<svg width="48" height="48" viewBox="0 0 48 48" fill="none" xmlns="http://www.w3.org/2000/svg">
<path d="M33.1295 27.4471C33.1994 27.7172 33.474 27.8924 33.7628 27.8207C34.041 27.749 34.2079 27.4654 34.1361 27.1872C34.0752 26.9516 34.0065 26.7181 33.9303 26.4893C33.8396 26.2165 33.5445 26.0662 33.273 26.1596C33.0006 26.2503 32.853 26.5448 32.9434 26.8169C33.0121 27.024 33.0747 27.2345 33.1295 27.4471Z" fill="black"/>
<path d="M33.0605 34.2136C33.3272 34.318 33.629 34.1871 33.7344 33.9198C33.9005 33.496 34.0413 33.0567 34.153 32.614C34.2234 32.3358 34.0545 32.0529 33.7763 31.9825C33.4974 31.9114 33.2148 32.0813 33.1451 32.3595C33.0439 32.7603 32.9167 33.1569 32.7664 33.5394C32.6615 33.8067 32.7931 34.1086 33.0605 34.2136Z" fill="black"/>
<path d="M33.4237 29.2832C33.4496 29.6854 33.4521 30.0965 33.4277 30.5253C33.4106 30.8218 33.6463 31.075 33.9469 31.075C34.2204 31.075 34.4499 30.8611 34.4654 30.5849C34.4913 30.1367 34.4913 29.6831 34.4614 29.2169C34.4424 28.9299 34.1903 28.7133 33.909 28.7315C33.6227 28.7498 33.4054 28.9969 33.4237 29.2832Z" fill="black"/>
<path d="M45.7483 7.65353C45.7483 6.22052 44.5823 5.05421 43.149 5.05421H40.1628V3.48107C40.1628 2.32627 39.2232 1.38672 38.0681 1.38672C36.913 1.38672 35.9734 2.32627 35.9734 3.48107V5.0542H30.4959V3.48107C30.4959 2.32627 29.556 1.38672 28.4008 1.38672C27.2457 1.38672 26.3062 2.32627 26.3062 3.48107V5.0542H20.8286V3.48107C20.8286 2.32627 19.8891 1.38672 18.7339 1.38672C17.5788 1.38672 16.6389 2.32627 16.6389 3.48107V5.0542H11.1614V3.48107C11.1614 2.32627 10.2218 1.38672 9.06668 1.38672C7.91154 1.38672 6.97199 2.32627 6.97199 3.48107V5.0542H3.98581C2.55246 5.0542 1.38649 6.22051 1.38649 7.65352V43.1492C1.38649 44.5822 2.55246 45.7485 3.98581 45.7485H43.149C44.5823 45.7485 45.7483 44.5822 45.7483 43.1492C45.7483 29.3435 45.7483 23.3219 45.7483 7.65353ZM2.42622 7.65353C2.42622 6.79386 3.12581 6.09394 3.98581 6.09394H6.97199V9.58813H6.36006C6.07306 9.58813 5.8402 9.82099 5.8402 10.108C5.8402 10.395 6.07306 10.6279 6.36006 10.6279C6.4342 10.6279 11.8463 10.6279 11.773 10.6279C12.06 10.6279 12.2928 10.395 12.2928 10.108C12.2928 9.82099 12.06 9.58813 11.773 9.58813H11.1614V6.09394H16.6389V9.58813H16.0273C15.7403 9.58813 15.5075 9.82099 15.5075 10.108C15.5075 10.395 15.7403 10.6279 16.0273 10.6279H21.4402C21.7272 10.6279 21.9601 10.395 21.9601 10.108C21.9601 9.82099 21.7272 9.58813 21.4402 9.58813H20.8286V6.09394H26.3062V9.58813H25.6946C25.4076 9.58813 25.1747 9.82099 25.1747 10.108C25.1747 10.395 25.4076 10.6279 25.6946 10.6279H31.1075C31.3945 10.6279 31.6273 10.395 31.6273 10.108C31.6273 9.82099 31.3945 9.58813 31.1075 9.58813H30.4959V6.09394H35.9734V9.58813H35.3618C35.0748 9.58813 34.842 9.82099 34.842 10.108C34.842 10.395 35.0748 10.6279 35.3618 10.6279H40.7747C41.0617 10.6279 41.2946 10.395 41.2946 10.108C41.2946 9.82099 41.0617 9.58813 40.7747 9.58813H40.1628V6.09394H43.149C44.009 6.09394 44.7086 6.79386 44.7086 7.65353V14.1221H2.42622V7.65353ZM44.7086 43.1492C44.7086 44.0089 44.009 44.7088 43.149 44.7088H3.98581C3.12581 44.7088 2.42622 44.0089 2.42622 43.1492V15.1638H44.7086V43.1492Z" fill="black"/>
<path d="M24.2969 40.8292C24.5833 40.8109 24.8006 40.5632 24.7819 40.2768C24.7633 39.9905 24.524 39.7867 24.2293 39.7922C18.4974 40.166 13.6898 35.6118 13.6898 29.933C13.6898 24.488 18.1219 20.0583 23.57 20.0583C25.6118 20.0583 27.5967 20.6996 29.2472 21.8568L28.2413 22.8627C27.9547 23.15 28.0928 23.6409 28.488 23.7359L32.0462 24.5861C32.4235 24.6756 32.7622 24.3365 32.673 23.9607L31.8289 20.3967C31.7337 19.9969 31.2392 19.8651 30.9554 20.149L29.9897 21.1144C28.1371 19.7693 25.8877 19.0186 23.57 19.0186C17.5489 19.0186 12.6501 23.9146 12.6501 29.933C12.6501 36.1819 17.9332 41.2415 24.2969 40.8292Z" fill="black"/>
<path d="M29.895 37.5209C29.5782 37.7856 29.2421 38.032 28.8962 38.2547C28.6546 38.4097 28.5845 38.7312 28.7399 38.9729C28.8954 39.216 29.2189 39.2837 29.4581 39.1293C29.8405 38.8836 30.2115 38.6114 30.5611 38.3197C30.7814 38.1356 30.8112 37.8079 30.6271 37.5873C30.443 37.3673 30.1153 37.3368 29.895 37.5209Z" fill="black"/>
<path d="M27.246 39.1058C26.8636 39.2594 26.4679 39.3901 26.0703 39.4936C25.7924 39.5654 25.6255 39.8497 25.6976 40.1272C25.7705 40.4074 26.057 40.5719 26.3315 40.4995C26.7722 40.3851 27.2105 40.2409 27.6339 40.071C27.9003 39.9641 28.0296 39.6608 27.9223 39.3948C27.8153 39.1281 27.5138 39.0015 27.246 39.1058Z" fill="black"/>
<path d="M32.645 35.0343C32.4023 34.8819 32.0815 34.9544 31.9282 35.1974C31.7085 35.5453 31.4645 35.8838 31.2025 36.2019C31.0204 36.4239 31.0522 36.7516 31.2743 36.9337C31.4952 37.116 31.8227 37.0844 32.006 36.8626C32.2954 36.5099 32.5651 36.1363 32.8075 35.7511C32.9608 35.5088 32.888 35.1872 32.645 35.0343Z" fill="black"/>
<path d="M23.0501 24.4022V29.416H18.6786C18.3916 29.416 18.1587 29.6489 18.1587 29.9359C18.1587 30.2229 18.3916 30.4558 18.6786 30.4558H23.5699C23.8569 30.4558 24.0898 30.2229 24.0898 29.9359V24.4022C24.0898 24.1152 23.8569 23.8823 23.5699 23.8823C23.2829 23.8823 23.0501 24.1152 23.0501 24.4022Z" fill="black"/>
</svg>
