<svg width="40" height="40" viewBox="0 0 40 40" fill="none" xmlns="http://www.w3.org/2000/svg">
<path d="M27.5 10.625C27.8452 10.625 28.125 10.3452 28.125 10C28.125 9.65482 27.8452 9.375 27.5 9.375C27.1548 9.375 26.875 9.65482 26.875 10C26.875 10.3452 27.1548 10.625 27.5 10.625Z" fill="black"/>
<path d="M32.5 10.625C32.8452 10.625 33.125 10.3452 33.125 10C33.125 9.65482 32.8452 9.375 32.5 9.375C32.1548 9.375 31.875 9.65482 31.875 10C31.875 10.3452 32.1548 10.625 32.5 10.625Z" fill="black"/>
<path d="M28.3406 15.625H30.625C32.0037 15.625 33.125 14.5038 33.125 13.125H31.875C31.875 13.8144 31.3144 14.375 30.625 14.375H28.3406V15.625Z" fill="black"/>
<path d="M35.575 14.375H35.625C37.6931 14.375 39.375 12.6931 39.375 10.625C39.375 9.51563 38.8881 8.52063 38.12 7.83375C38.0688 3.85063 34.8169 0.625 30.8219 0.625H29.1775C25.1937 0.625 21.95 3.83313 21.8812 7.83188C21.8794 7.83375 21.8769 7.83562 21.875 7.8375V2.5C21.875 1.46625 21.0338 0.625 20 0.625H2.5C1.46625 0.625 0.625 1.46625 0.625 2.5V12.5C0.625 13.5338 1.46625 14.375 2.5 14.375H10.3663L12.4244 16.4331C12.7094 16.7181 13.0881 16.875 13.4913 16.875C14.3231 16.875 15 16.1981 15 15.3663V14.375H20C20.7631 14.375 21.4181 13.9156 21.7106 13.26C21.7631 13.3131 21.8194 13.3625 21.875 13.4119V20C21.875 21.7231 23.2769 23.125 25 23.125H25.2381C24.4788 24.1194 23.9056 25.2281 23.5538 26.4144L16.9219 34.5769C15.4431 35.0794 14.375 36.4781 14.375 38.125H6.875V35.625H8.125C8.81438 35.625 9.375 35.0644 9.375 34.375V16.875C9.375 16.1856 8.81438 15.625 8.125 15.625H5.625C4.93562 15.625 4.375 16.1856 4.375 16.875V27.6744L2.76125 28.2125C1.48375 28.6381 0.625 29.83 0.625 31.1769V39.375H21.1069H21.2606H36.875V29.9194C37.675 28.6406 38.125 27.1394 38.125 25.5625C38.125 22.5181 35.9131 19.9862 33.0131 19.475L32.62 17.9025C34.1713 17.3894 35.3369 16.0313 35.575 14.375ZM34.375 13.75C34.375 15.4731 32.9731 16.875 31.25 16.875H28.75C27.0269 16.875 25.625 15.4731 25.625 13.75V8.67688C25.625 7.86875 26.14 7.15375 26.9069 6.89812L27.7487 6.6175C28.3012 7.225 29.0731 7.63313 29.9394 7.705L34.375 8.075V13.75ZM26.25 21.875C25.9056 21.875 25.625 21.5944 25.625 21.25C25.625 20.9056 25.9056 20.625 26.25 20.625H27.5C27.8444 20.625 28.125 20.9056 28.125 21.25C28.125 21.5944 27.8444 21.875 27.5 21.875H26.25ZM35.625 13.125V8.125C37.0038 8.125 38.125 9.24625 38.125 10.625C38.125 12.0038 37.0038 13.125 35.625 13.125ZM29.1781 1.875H30.8225C33.8581 1.875 36.3712 4.12313 36.8031 7.06688C36.4319 6.94438 36.0369 6.875 35.625 6.875H35.025L34.4988 6.83125L34.4069 6.77C33.6044 6.235 33.125 5.33937 33.125 4.375H31.875C31.875 5.2075 32.1275 6.00125 32.5763 6.67063L31.6806 6.59563C31.0194 6.0525 30.625 5.23625 30.625 4.375H29.375C29.375 5.10937 29.5788 5.81875 29.9388 6.44063C28.9144 6.30188 28.125 5.41813 28.125 4.375H26.875C26.875 4.77625 26.9481 5.16313 27.0813 5.5225L26.5112 5.7125C25.8625 5.92875 25.3231 6.34375 24.9481 6.875H24.375C23.9619 6.875 23.565 6.945 23.1931 7.06875C23.6125 4.1375 26.1325 1.875 29.1781 1.875ZM24.375 8.67688V13.125C22.9962 13.125 21.875 12.0038 21.875 10.625C21.875 9.24625 22.9962 8.125 24.375 8.125H24.4275C24.3956 8.305 24.375 8.48875 24.375 8.67688ZM20.625 12.5C20.625 12.8444 20.3444 13.125 20 13.125H13.75V15.3663C13.75 15.5775 13.4569 15.6981 13.3081 15.5494L10.8837 13.125H2.5C2.15563 13.125 1.875 12.8444 1.875 12.5V2.5C1.875 2.15563 2.15563 1.875 2.5 1.875H20C20.3444 1.875 20.625 2.15563 20.625 2.5V12.5ZM24.375 21.25C24.375 21.4394 24.4031 21.6219 24.4556 21.7944C23.6863 21.5606 23.125 20.845 23.125 20V14.1562C23.5169 14.2956 23.9362 14.375 24.375 14.375H24.425C24.6638 16.0313 25.8294 17.3894 27.3806 17.9025L27.0119 19.375H26.25C25.2162 19.375 24.375 20.2162 24.375 21.25ZM23.125 31.8806L19.67 33.7806C19.3838 33.9381 19.1356 34.1419 18.9206 34.375H18.6956L23.1481 28.8956C23.1406 29.0519 23.125 29.2062 23.125 29.3637V31.8806ZM5.625 16.875H8.125L8.12563 34.375H5.625V16.875ZM1.875 31.1769C1.875 30.3687 2.39 29.6537 3.15688 29.3981L4.375 28.9925V34.375C4.375 35.0644 4.93562 35.625 5.625 35.625V38.125H1.875V31.1769ZM18.125 35.625H18.2275C18.1612 35.8725 18.125 36.13 18.125 36.3931C18.125 37.04 18.3375 37.6356 18.6894 38.125H15.625C15.625 36.7462 16.7462 35.625 18.125 35.625ZM21.1069 38.125C20.1519 38.125 19.375 37.3481 19.375 36.3931C19.375 35.7619 19.7188 35.1806 20.2725 34.8756L29.6631 29.7106C30.1581 29.4381 30.6169 29.1187 31.0569 28.7775L33.9694 31.2044C33.7719 31.3444 33.5731 31.4825 33.3594 31.6025L22.1062 37.9037C21.8481 38.0487 21.5556 38.125 21.26 38.125H21.1069ZM24.27 38.125L33.97 32.6931C34.58 32.3512 35.1331 31.935 35.625 31.4619V38.125H24.27ZM36.875 25.6037C36.875 27.4119 36.1556 29.115 34.9319 30.38L32.0081 27.9431C32.3756 27.5787 32.7275 27.1962 33.0425 26.7762L33.625 26L32.625 25.25L32.0425 26.0262C31.2381 27.0987 30.2344 27.97 29.0606 28.6162L24.375 31.1931V29.3644C24.375 27.02 25.2656 24.8175 26.8756 23.1256H27.5C28.5262 23.1256 29.3606 22.2962 29.3725 21.2725C29.4781 21.2194 29.58 21.1619 29.6881 21.1125C30.3994 20.7887 31.1563 20.625 31.9381 20.625C34.6606 20.625 36.875 22.8394 36.875 25.6037ZM31.7025 19.3875C30.825 19.4181 29.9738 19.6094 29.1706 19.9744C29.0975 20.0081 29.0281 20.0481 28.9563 20.0831C28.77 19.8512 28.535 19.6619 28.26 19.5394L28.615 18.1187C28.66 18.1194 28.7044 18.125 28.75 18.125H31.25C31.2956 18.125 31.34 18.1194 31.385 18.1181L31.7025 19.3875Z" fill="black"/>
<path d="M17.5 5.625C16.4662 5.625 15.625 6.46625 15.625 7.5C15.625 8.53375 16.4662 9.375 17.5 9.375C18.5338 9.375 19.375 8.53375 19.375 7.5C19.375 6.46625 18.5338 5.625 17.5 5.625ZM17.5 8.125C17.1556 8.125 16.875 7.84437 16.875 7.5C16.875 7.15563 17.1556 6.875 17.5 6.875C17.8444 6.875 18.125 7.15563 18.125 7.5C18.125 7.84437 17.8444 8.125 17.5 8.125Z" fill="black"/>
<path d="M11.25 5.625C10.2162 5.625 9.375 6.46625 9.375 7.5C9.375 8.53375 10.2162 9.375 11.25 9.375C12.2838 9.375 13.125 8.53375 13.125 7.5C13.125 6.46625 12.2838 5.625 11.25 5.625ZM11.25 8.125C10.9056 8.125 10.625 7.84437 10.625 7.5C10.625 7.15563 10.9056 6.875 11.25 6.875C11.5944 6.875 11.875 7.15563 11.875 7.5C11.875 7.84437 11.5944 8.125 11.25 8.125Z" fill="black"/>
<path d="M5 5.625C3.96625 5.625 3.125 6.46625 3.125 7.5C3.125 8.53375 3.96625 9.375 5 9.375C6.03375 9.375 6.875 8.53375 6.875 7.5C6.875 6.46625 6.03375 5.625 5 5.625ZM5 8.125C4.65563 8.125 4.375 7.84437 4.375 7.5C4.375 7.15563 4.65563 6.875 5 6.875C5.34437 6.875 5.625 7.15563 5.625 7.5C5.625 7.84437 5.34437 8.125 5 8.125Z" fill="black"/>
</svg>
