<svg width="60" height="60" viewBox="0 0 42 42" fill="none" xmlns="http://www.w3.org/2000/svg">
<path d="M35.8974 33.9829C35.6581 33.9829 35.4188 33.9829 35.2991 34.1026C35.0598 34.2223 34.8205 34.3419 34.5812 34.3419L34.2222 34.4616L33.8633 34.5812C29.4359 36.6154 23.812 37.812 19.6239 37.812C15.4359 37.812 7.29914 34.5812 1.67521 31.4701C1.4359 31.3505 1.31624 31.3505 1.07692 31.3505C0.837606 31.3505 0.598291 31.4701 0.358975 31.5898C0.119658 31.7094 0 32.0684 0 32.3077C0 32.6667 0.239317 32.906 0.478633 33.1453C5.74359 37.812 12.6838 42 19.6239 42C26.6838 42 30.5128 40.2052 34.8205 37.453C35.4188 37.0941 35.7778 36.8547 36.2564 36.3761C36.6154 36.1368 37.094 35.5385 37.094 35.1795C37.2137 34.4616 36.6154 33.9829 35.8974 33.9829Z" fill="#2F4859"/>
<path d="M42 31.47C42 30.9914 41.8803 30.7521 41.7607 30.3931C41.5214 30.1538 41.4017 30.1538 41.1624 30.0341C40.5641 29.7948 39.7265 29.6752 38.7692 29.6752C38.0513 29.6752 37.2137 29.7948 36.4957 29.9145L35.6581 30.1538L35.1795 30.2735C34.7008 30.5128 34.1026 30.7521 33.7436 31.1111C33.5043 31.3504 33.265 31.5897 33.265 32.0683C33.265 32.3076 33.3846 32.547 33.6239 32.6666C33.8632 32.7863 34.1026 32.9059 34.2222 32.9059H34.3419C34.7008 32.7863 35.2991 32.7863 36.0171 32.6666C36.6154 32.547 37.2137 32.547 37.6923 32.547C38.0513 32.547 38.4103 32.547 38.6496 32.6666C38.7692 32.6666 38.8889 32.6666 38.8889 32.7863V33.0256C38.8889 33.5042 38.6496 34.3418 38.4103 35.0598C38.1709 35.8974 37.812 36.6153 37.6923 37.2136C37.6923 37.3333 37.5726 37.4529 37.5726 37.5726C37.5726 37.8119 37.6923 38.0512 37.812 38.1709C38.0513 38.2906 38.2906 38.4102 38.4103 38.4102C38.6496 38.4102 39.0085 38.2906 39.1282 38.1709C41.1624 36.376 41.8803 33.3846 41.8803 31.7094L42 31.47Z" fill="#2F4859"/>
<path d="M23.812 11.2479C21.0598 11.2479 15.4359 12.8034 12.6837 14C9.33332 15.5556 7.05981 18.0684 7.05981 22.3761C7.05981 27.8803 11.0085 30.7521 15.4359 30.7521C16.8718 30.7521 21.0598 30.7521 23.812 26.5641C24.8889 28 25.6068 28.5983 27.282 30.0342C27.7607 30.2735 28.2393 30.2735 28.5983 29.9145C29.6752 28.9573 31.7094 27.2821 32.6667 26.4444C33.1453 26.0855 33.0256 25.4872 32.7863 25.0085C31.829 23.6923 30.7521 22.0171 30.7521 19.5043V11.1282C30.7521 7.65812 30.5128 5.1453 28 2.75214C25.8461 0.837608 23.5726 0 21.0598 0H19.6239C14.9573 0.239316 9.57264 2.27351 8.49571 8.13675C8.2564 8.8547 8.85469 9.09402 9.21366 9.21368L14.359 9.81197C14.9573 9.69231 15.1966 9.21368 15.3162 8.8547C15.7949 6.82051 16.3932 5.74359 18.188 5.62393H19.6239C20.7008 5.62393 21.7778 5.98291 22.3761 6.94017C23.2137 8.25641 23.812 9.93162 23.812 11.2479ZM19.3846 25.1282C19.1453 25.1282 18.906 25.2479 18.6667 25.2479C16.6325 25.2479 15.5555 23.3333 15.5555 21.0598C15.5555 15.4359 22.4957 15.4359 23.9316 15.4359V16.8718C23.812 23.812 20.5812 24.8889 19.3846 25.1282Z" fill="#2F4859"/>
</svg>
