<svg width="131" height="131" viewBox="0 0 162 138" fill="none" xmlns="http://www.w3.org/2000/svg">
<path d="M157.969 30.9126H155.104C154.35 28.0741 153.228 25.3663 151.751 22.824L153.779 20.7961C154.48 20.095 154.866 19.1625 154.866 18.1696C154.866 17.1767 154.48 16.2443 153.779 15.5431L146.915 8.67902C146.214 7.97786 145.281 7.59185 144.288 7.59185C143.295 7.59185 142.363 7.97786 141.662 8.6787L139.634 10.7069C137.09 9.22925 134.382 8.10664 131.545 7.35359V4.4879C131.545 2.4398 129.879 0.773926 127.831 0.773926H118.123C116.075 0.773926 114.409 2.44012 114.409 4.4879V7.35359C111.57 8.10696 108.862 9.22957 106.32 10.7066L104.292 8.67902C103.591 7.97786 102.659 7.59185 101.666 7.59185C100.673 7.59185 99.7404 7.97786 99.0396 8.6787L92.1751 15.5428C91.4743 16.244 91.0883 17.1764 91.0883 18.1693C91.0883 19.1622 91.4743 20.0946 92.1751 20.7955L94.203 22.8236C92.7254 25.3675 91.6028 28.0757 90.8497 30.9126H87.9846C85.9366 30.9126 84.2707 32.5788 84.2707 34.6265V44.3345C84.2707 46.3826 85.9369 48.0485 87.9846 48.0485H90.8497C91.6031 50.887 92.7257 53.5948 94.2027 56.1377L92.1748 58.1653C90.7273 59.6135 90.7273 61.9691 92.1751 63.4179L99.0396 70.2824C99.7404 70.9832 100.673 71.3692 101.666 71.3692C102.659 71.3692 103.591 70.9832 104.292 70.2824L106.32 68.2545C108.864 69.7321 111.571 70.8547 114.409 71.6078V74.4728C114.409 76.5209 116.075 78.1868 118.123 78.1868H127.831C129.879 78.1868 131.545 76.5206 131.545 74.4728V71.6078C134.383 70.8544 137.091 69.7318 139.634 68.2548L141.662 70.2827C143.109 71.7296 145.465 71.7296 146.914 70.2824L153.779 63.4176C155.226 61.9694 155.226 59.6138 153.778 58.165L151.751 56.1374C153.228 53.5935 154.351 50.886 155.104 48.0485H157.969C160.017 48.0485 161.683 46.3823 161.683 44.3345V34.6265C161.683 32.5788 160.017 30.9126 157.969 30.9126ZM156.621 42.9863H153.094C151.887 42.9863 150.848 43.8387 150.612 45.0227C149.891 48.6357 148.486 52.027 146.434 55.1015C145.764 56.1055 145.896 57.4429 146.75 58.2966L149.245 60.7921L144.288 65.7498L141.792 63.254C140.939 62.4007 139.601 62.2691 138.597 62.9386C135.524 64.9895 132.133 66.3953 128.519 67.1161C127.335 67.3521 126.482 68.3912 126.482 69.5986V73.125H119.471V69.5986C119.471 68.3915 118.619 67.3521 117.435 67.1161C113.822 66.396 110.431 64.9902 107.356 62.9386C106.352 62.2687 105.015 62.4007 104.161 63.254L101.665 65.7498L96.708 60.7921L99.2035 58.2969C100.057 57.4432 100.189 56.1058 99.5189 55.1015C97.4677 52.0283 96.0622 48.6373 95.3414 45.0227C95.1054 43.839 94.0663 42.9863 92.8589 42.9863H89.3325V35.9754H92.8589C94.066 35.9754 95.1054 35.123 95.3414 33.9387C96.0612 30.3263 97.467 26.9353 99.5189 23.8599C100.189 22.8559 100.057 21.5188 99.2031 20.6651L96.7073 18.169L101.665 13.2115L104.161 15.7074C105.014 16.561 106.352 16.693 107.356 16.0228C110.428 13.9722 113.819 12.5664 117.435 11.8456C118.619 11.6096 119.471 10.5705 119.471 9.36309V5.83674H126.482V9.36341C126.482 10.5705 127.335 11.6099 128.519 11.8459C132.131 12.5661 135.522 13.9719 138.597 16.0234C139.601 16.6939 140.938 16.5616 141.792 15.708L144.288 13.2119L149.245 18.1696L146.75 20.6654C145.896 21.5191 145.764 22.8569 146.434 23.8608C148.485 26.9334 149.89 30.3244 150.612 33.9396C150.848 35.1233 151.887 35.9757 153.094 35.9757H156.62V42.9863H156.621ZM123.909 14.9996C117.37 14.7534 111.125 17.0632 106.325 21.5112C101.525 25.9589 98.7447 32.0099 98.496 38.549C97.9821 52.0479 108.546 63.4483 122.045 63.9622C122.362 63.9742 122.675 63.9802 122.989 63.9802C136.071 63.9802 146.957 53.5954 147.458 40.413C147.707 33.8735 145.395 27.6289 140.947 22.829C136.499 18.0291 130.448 15.2482 123.909 14.9996ZM142.399 40.22C141.992 50.9297 132.954 59.3119 122.238 58.9034C111.528 58.4956 103.147 49.4511 103.554 38.7414C103.752 33.5536 105.958 28.7531 109.766 25.2242C113.388 21.8678 118.047 20.0437 122.959 20.0437C123.21 20.0437 123.463 20.0488 123.716 20.0583C128.904 20.2557 133.704 22.4617 137.233 26.2696C140.762 30.0776 142.597 35.0319 142.399 40.22ZM115.925 35.2983L111.92 39.06L115.627 43.1148C116.571 44.1466 116.499 45.7473 115.468 46.6908C114.982 47.135 114.37 47.3543 113.76 47.3543C113.075 47.3543 112.391 47.0771 111.892 46.531L106.499 40.6329C105.564 39.6112 105.624 38.0279 106.634 37.08L112.46 31.6083C113.478 30.6515 115.08 30.7015 116.038 31.7204C116.994 32.7395 116.944 34.3411 115.925 35.2983ZM127.783 32.5041L123.007 47.9529C122.671 49.0395 121.67 49.7372 120.589 49.7372C120.342 49.7372 120.09 49.7008 119.841 49.6236C118.506 49.2107 117.758 47.7935 118.17 46.4576L122.947 31.0088C123.36 29.6732 124.778 28.924 126.113 29.3384C127.448 29.751 128.196 31.1682 127.783 32.5041ZM134.063 32.4301L139.456 38.3288C140.39 39.3508 140.33 40.9341 139.321 41.8821L133.494 47.3534C133.006 47.8118 132.383 48.0393 131.762 48.0393C131.087 48.0393 130.415 47.7713 129.916 47.241C128.96 46.2219 129.01 44.6202 130.029 43.6628L134.034 39.9014L130.326 35.8463C129.383 34.8145 129.455 33.2135 130.487 32.27C131.518 31.3264 133.119 31.3989 134.063 32.4301ZM39.7548 94.8719C45.1496 91.8125 48.8003 86.0201 48.8003 79.3879C48.8003 69.5777 40.8189 61.5967 31.0091 61.5967C21.1992 61.5967 13.2179 69.578 13.2179 79.3879C13.2179 86.0204 16.8685 91.8125 22.2633 94.8719C10.3439 98.4444 1.3001 109.11 0.329362 122.05C0.235706 123.298 0.667917 124.537 1.51525 125.45C2.36259 126.364 3.5662 126.887 4.8179 126.887H57.2012C58.4526 126.887 59.6562 126.364 60.5035 125.45C61.3508 124.537 61.7831 123.298 61.6897 122.05C60.7183 109.11 51.6745 98.4441 39.7548 94.8719ZM18.2804 79.3879C18.2804 72.3691 23.9902 66.6592 31.0091 66.6592C38.0279 66.6592 43.7378 72.3694 43.7378 79.3879C43.7378 86.4064 38.0276 92.1166 31.0091 92.1166C23.9905 92.1166 18.2804 86.4064 18.2804 79.3879ZM5.42983 121.825C6.71887 108.782 17.8386 98.6529 31.0091 98.6529C44.1795 98.6529 55.2993 108.783 56.5883 121.825H5.42983ZM33.9535 54.4184C34.7022 55.3875 35.833 55.9428 37.0568 55.9428C38.2807 55.9428 39.4115 55.3872 40.1598 54.4187L50.5101 41.0246C51.4331 39.8308 51.5948 38.2516 50.9322 36.904C50.2659 35.5476 48.9154 34.7053 47.4087 34.7053C47.4081 34.7053 47.4071 34.7053 47.4065 34.7053H47.3768C52.4861 14.1098 73.8555 10.0133 86.514 9.44409C87.6837 9.39125 88.6646 8.54328 88.8861 7.39378C89.1076 6.24427 88.5112 5.09255 87.4445 4.6094C75.2436 -0.914735 60.6861 -0.120555 48.5038 6.73565C37.4533 12.9546 30.0636 23.06 27.9573 34.7053H26.7069C26.7066 34.7053 26.7063 34.7053 26.7059 34.7053C25.1979 34.7053 23.8472 35.5479 23.1809 36.9044C22.5189 38.2519 22.6806 39.8308 23.6029 41.0243L33.9535 54.4184ZM30.1348 39.7675C31.415 39.7675 32.494 38.8117 32.6477 37.5403C33.9738 26.5797 40.6582 16.9597 50.987 11.147C57.8776 7.26848 65.6106 5.57507 73.099 6.12657C68.4947 7.18084 63.7014 8.81571 59.2929 11.3251C49.5043 16.897 43.6128 25.4792 41.7821 36.8335C41.664 37.5656 41.8732 38.313 42.3541 38.8778C42.8351 39.4422 43.5394 39.7678 44.281 39.7678H45.0838L37.0572 50.1551L29.0303 39.7678H30.1348V39.7675ZM122.151 83.7727C121.403 82.8035 120.272 82.2479 119.048 82.2479C119.048 82.2479 119.048 82.2479 119.048 82.2479C117.824 82.2479 116.693 82.8035 115.945 83.772L105.594 97.1661C104.671 98.3599 104.51 99.9391 105.172 101.287C105.839 102.643 107.189 103.485 108.696 103.485H108.698H108.728C103.618 124.081 82.2485 128.177 69.5904 128.747C68.4206 128.799 67.4398 129.647 67.2183 130.797C66.9968 131.946 67.5932 133.098 68.6598 133.581C74.0419 136.018 79.8818 137.226 85.7746 137.226C93.2411 137.226 100.792 135.287 107.601 131.455C118.651 125.236 126.041 115.131 128.147 103.486H129.397H129.398C130.906 103.486 132.257 102.643 132.924 101.287C133.585 99.9391 133.424 98.3603 132.501 97.1668L122.151 83.7727ZM125.97 98.4232C124.689 98.4232 123.61 99.3791 123.457 100.65C122.131 111.611 115.446 121.231 105.117 127.044C98.2267 130.922 90.4931 132.614 83.0054 132.064C87.6097 131.01 92.4029 129.375 96.8114 126.866C106.6 121.294 112.492 112.711 114.322 101.357C114.44 100.625 114.231 99.8777 113.75 99.313C113.269 98.7485 112.565 98.4229 111.823 98.4229H111.021L119.048 88.0359L127.074 98.4229H125.97V98.4232Z" fill="black"/>
</svg>
