<svg width="30" height="30" viewBox="0 0 38 38" fill="none" xmlns="http://www.w3.org/2000/svg">
<path d="M14.0734 31.5454H5.36354C2.95335 31.5454 0.999928 29.592 0.999928 27.1818C0.999928 26.7704 0.999928 8.10208 0.999928 5.36361C0.999928 2.95342 2.95342 1 5.36354 1H32.6364C35.0466 0.999928 37 2.95335 37 5.36354C37 7.00977 37 26.2006 37 27.1818C37 29.592 35.0466 31.5454 32.6364 31.5454H32.6189" stroke="black" stroke-miterlimit="10" stroke-linecap="round" stroke-linejoin="round"/>
<path d="M1.00009 9.1814H6.82312" stroke="black" stroke-miterlimit="10" stroke-linecap="round" stroke-linejoin="round"/>
<path d="M9.35817 9.1814H37" stroke="black" stroke-miterlimit="10" stroke-linecap="round" stroke-linejoin="round"/>
<path d="M31.5821 5.40461C31.409 4.67166 31.8629 3.9372 32.5958 3.76413C33.3288 3.59106 34.0632 4.04493 34.2363 4.77787C34.4094 5.51081 33.9555 6.24528 33.2226 6.41835C32.4896 6.59142 31.7552 6.13755 31.5821 5.40461Z" stroke="black" stroke-miterlimit="10" stroke-linecap="round" stroke-linejoin="round"/>
<path d="M26.9327 6.35068C26.2369 6.06246 25.9065 5.26474 26.1947 4.56892C26.4829 3.87311 27.2806 3.54269 27.9764 3.83091C28.6723 4.11913 29.0027 4.91685 28.7145 5.61267C28.4262 6.30848 27.6285 6.6389 26.9327 6.35068Z" stroke="black" stroke-miterlimit="10" stroke-linecap="round" stroke-linejoin="round"/>
<path d="M20.4905 6.05506C19.9579 5.52253 19.9579 4.65911 20.4905 4.12658C21.023 3.59404 21.8864 3.59404 22.4189 4.12658C22.9515 4.65911 22.9515 5.52253 22.4189 6.05506C21.8864 6.5876 21.023 6.5876 20.4905 6.05506Z" stroke="black" stroke-miterlimit="10" stroke-linecap="round" stroke-linejoin="round"/>
<path d="M5.091 6.45436H16.0001C16.7536 6.45436 17.3638 5.84417 17.3638 5.09071C17.3638 4.33739 16.7536 3.72705 16.0001 3.72705H5.091C4.33754 3.72705 3.72735 4.33724 3.72735 5.09071C3.72735 5.8441 4.33754 6.45436 5.091 6.45436Z" stroke="black" stroke-miterlimit="10" stroke-linecap="round" stroke-linejoin="round"/>
<path d="M32.619 22.2942C32.619 18.4145 32.619 14.9949 32.619 14.5574C32.619 13.0942 31.4333 11.9092 29.9701 11.9092H16.7218C15.2586 11.9092 14.0735 13.0942 14.0735 14.5574V20.7506" stroke="black" stroke-miterlimit="10" stroke-linecap="round" stroke-linejoin="round"/>
<path d="M14.0735 27.8617C14.0735 28.7824 14.0735 33.4298 14.0735 34.3511C14.0735 35.8143 15.2586 37.0001 16.7218 37.0001H29.9701C31.4333 37.0001 32.619 35.8143 32.619 34.3511C32.619 33.8615 32.619 29.3988 32.619 24.8296" stroke="black" stroke-miterlimit="10" stroke-linecap="round" stroke-linejoin="round"/>
<path d="M17.8914 17.3635H28.8005C29.4035 17.3635 29.8915 16.8748 29.8915 16.2726C29.8915 15.6702 29.4028 15.1816 28.8005 15.1816H17.8914C17.2893 15.1816 16.8005 15.6704 16.8005 16.2726C16.8006 16.8738 17.2893 17.3635 17.8914 17.3635Z" stroke="black" stroke-miterlimit="10" stroke-linecap="round" stroke-linejoin="round"/>
<path d="M29.3462 20.6362H16.8007" stroke="black" stroke-miterlimit="10" stroke-linecap="round" stroke-linejoin="round"/>
<path d="M16.528 23.9092H29.3462" stroke="black" stroke-miterlimit="10" stroke-linecap="round" stroke-linejoin="round"/>
<path d="M18.3847 27.1816H29.3462" stroke="black" stroke-miterlimit="10" stroke-linecap="round" stroke-linejoin="round"/>
<path d="M18.8509 30.4546H29.3462" stroke="black" stroke-miterlimit="10" stroke-linecap="round" stroke-linejoin="round"/>
<path d="M29.3462 33.7273H22.8007" stroke="black" stroke-miterlimit="10" stroke-linecap="round" stroke-linejoin="round"/>
<path d="M9.86377 15.3331L9.19469 14.4719C8.45506 13.5199 7.08489 13.3483 6.13288 14.0872C5.17985 14.8286 5.01115 16.1996 5.7489 17.1491C5.7602 17.1636 13.8028 27.5132 13.7445 27.4386L14.7853 28.7782" stroke="black" stroke-miterlimit="10" stroke-linecap="round" stroke-linejoin="round"/>
<path d="M18.231 26.1009C17.5764 25.2585 12.1088 18.2221 11.5371 17.4863" stroke="black" stroke-miterlimit="10" stroke-linecap="round" stroke-linejoin="round"/>
<path d="M18.8504 30.4545C18.8208 30.2464 19.0081 31.5624 18.2308 26.1011L14.785 28.7782L18.8504 30.4545Z" stroke="black" stroke-miterlimit="10" stroke-linecap="round" stroke-linejoin="round"/>
<path d="M8.09185 20.1643L11.537 17.4865L9.86353 15.333L6.41839 18.0101L8.09185 20.1643Z" stroke="black" stroke-miterlimit="10" stroke-linecap="round" stroke-linejoin="round"/>
</svg>
