<svg width="87" height="37" viewBox="0 0 87 37" fill="none" xmlns="http://www.w3.org/2000/svg">
<path d="M43.7749 35.9136L53.9212 9.90455L61.7769 9.75909L71.9392 35.9136H63.7934L66.0017 31.2341H49.7101L52.0577 35.9136H43.7749ZM61.9939 27.7886L57.9244 16.65L52.8867 30.8205L61.9939 27.7864V27.7886Z" fill="black"/>
<path d="M0.976807 0.959103C1.23714 1.00228 1.71443 0.872737 1.91539 0.988646C2.03871 1.0591 3.46142 3.22728 3.46142 3.36819V13.0705C3.91815 12.7818 4.22645 12.3136 4.63979 11.9727C8.32332 8.93183 13.1738 8.8341 17.2227 11.2568C24.3934 15.5477 23.8704 28.8205 17.5333 33.6318C13.0802 37.0114 5.825 36.5136 0.976807 34.1932V0.959103ZM3.48426 32.45C8.4375 34.3773 15.631 33.6614 18.481 28.6614C20.2463 25.5682 20.7213 20.8159 19.3625 17.5182C16.4303 10.4114 7.88258 9.98865 3.5345 15.9659L3.48426 32.4523V32.45Z" fill="black"/>
<path d="M33.6673 9.67044C49.5501 8.18408 50.5412 35.025 35.6952 36.05C20.1435 37.1227 19.1022 11.0341 33.6673 9.67044ZM34.22 12.2864C21.9522 13.2068 23.7197 35.6818 36.4648 33.2386C47.2003 31.1818 45.5834 11.4341 34.22 12.2864Z" fill="black"/>
<path d="M76.7689 0.959106V9.62956H85.191V11.8318H76.7689V29.3773C76.7689 29.9273 77.1206 31.5591 77.3832 32.0682C78.2396 33.7387 82.0875 33.3841 83.6518 33.0705C84.6932 32.8614 85.6774 32.3523 86.7119 32.1977V34.6068C83.2956 36.5409 76.3807 37.0273 74.1747 33.0659C74.0285 32.8023 73.5946 31.8023 73.5946 31.5796V11.8318H65.5881L68.0042 9.62956H73.3891L73.5969 9.42274V3.3682L75.5883 1.08865L76.7712 0.961378L76.7689 0.959106Z" fill="black"/>
</svg>
