<svg width="38" height="38" viewBox="0 0 40 38" fill="none" xmlns="http://www.w3.org/2000/svg">
<path d="M37.5164 3.9491H1.97455C1.45087 3.9491 0.948632 3.74107 0.578332 3.37077C0.208032 3.00047 0 2.49823 0 1.97455C0 1.45087 0.208032 0.948632 0.578332 0.578332C0.948632 0.208032 1.45087 0 1.97455 0H37.5164C38.0401 0 38.5424 0.208032 38.9127 0.578332C39.283 0.948632 39.491 1.45087 39.491 1.97455C39.491 2.49823 39.283 3.00047 38.9127 3.37077C38.5424 3.74107 38.0401 3.9491 37.5164 3.9491ZM1.97455 1.12831C1.75011 1.12831 1.53487 1.21747 1.37617 1.37617C1.21747 1.53487 1.12831 1.75011 1.12831 1.97455C1.12831 2.19899 1.21747 2.41423 1.37617 2.57293C1.53487 2.73163 1.75011 2.82079 1.97455 2.82079H37.5164C37.7409 2.82079 37.9561 2.73163 38.1148 2.57293C38.2735 2.41423 38.3627 2.19899 38.3627 1.97455C38.3627 1.75011 38.2735 1.53487 38.1148 1.37617C37.9561 1.21747 37.7409 1.12831 37.5164 1.12831H1.97455Z" fill="black"/>
<path d="M37.5164 25.9511H1.97446C1.45078 25.9511 0.948541 25.743 0.578241 25.3727C0.207941 25.0024 -9.15527e-05 24.5002 -9.15527e-05 23.9765C-9.15527e-05 23.4528 0.207941 22.9506 0.578241 22.5803C0.948541 22.21 1.45078 22.002 1.97446 22.002H37.5164C38.04 22.002 38.5423 22.21 38.9126 22.5803C39.2829 22.9506 39.4909 23.4528 39.4909 23.9765C39.4909 24.5002 39.2829 25.0024 38.9126 25.3727C38.5423 25.743 38.04 25.9511 37.5164 25.9511ZM1.97446 23.1303C1.75002 23.1303 1.53478 23.2194 1.37608 23.3781C1.21738 23.5368 1.12822 23.7521 1.12822 23.9765C1.12822 24.2009 1.21738 24.4162 1.37608 24.5749C1.53478 24.7336 1.75002 24.8227 1.97446 24.8227H37.5164C37.7408 24.8227 37.956 24.7336 38.1147 24.5749C38.2734 24.4162 38.3626 24.2009 38.3626 23.9765C38.3626 23.7521 38.2734 23.5368 38.1147 23.3781C37.956 23.2194 37.7408 23.1303 37.5164 23.1303H1.97446Z" fill="black"/>
<path d="M36.1059 23.1309H3.38477C3.23515 23.1309 3.09166 23.0715 2.98586 22.9657C2.88006 22.8599 2.82062 22.7164 2.82062 22.5668V3.38545C2.82062 3.23582 2.88006 3.09233 2.98586 2.98653C3.09166 2.88073 3.23515 2.82129 3.38477 2.82129H36.1059C36.2555 2.82129 36.399 2.88073 36.5048 2.98653C36.6106 3.09233 36.67 3.23582 36.67 3.38545V22.5668C36.67 22.7164 36.6106 22.8599 36.5048 22.9657C36.399 23.0715 36.2555 23.1309 36.1059 23.1309ZM3.94893 22.0026H35.5417V3.9496H3.94893V22.0026Z" fill="black"/>
<path d="M21.4376 37.7984H18.0527C17.903 37.7984 17.7595 37.7389 17.6537 37.6331C17.5479 37.5273 17.4885 37.3838 17.4885 37.2342V25.3869C17.4885 25.2373 17.5479 25.0938 17.6537 24.988C17.7595 24.8822 17.903 24.8228 18.0527 24.8228H21.4376C21.5872 24.8228 21.7307 24.8822 21.8365 24.988C21.9423 25.0938 22.0018 25.2373 22.0018 25.3869V37.2342C22.0018 37.3838 21.9423 37.5273 21.8365 37.6331C21.7307 37.7389 21.5872 37.7984 21.4376 37.7984ZM18.6168 36.6701H20.8734V25.9511H18.6168V36.6701Z" fill="black"/>
<path d="M29.9001 37.7989H26.5151C26.4318 37.7984 26.3496 37.7794 26.2745 37.7433C26.1994 37.7072 26.1332 37.6549 26.0807 37.5902L21.0033 31.3845L21.8721 30.6736L26.7803 36.6706H28.7379L20.9977 26.8656L21.8778 26.166L30.3401 36.885C30.4067 36.9681 30.4484 37.0684 30.4604 37.1742C30.4724 37.28 30.4541 37.3871 30.4078 37.483C30.3613 37.578 30.289 37.6579 30.1993 37.7138C30.1095 37.7696 30.0058 37.7991 29.9001 37.7989Z" fill="black"/>
<path d="M12.9752 37.7989H9.59028C9.48454 37.7991 9.38088 37.7696 9.2911 37.7138C9.20133 37.6579 9.12906 37.578 9.08254 37.483C9.03623 37.3871 9.01801 37.28 9.02999 37.1742C9.04197 37.0684 9.08366 36.9681 9.15024 36.885L17.6126 26.166L18.4927 26.8656L10.7524 36.6706H12.7101L17.6182 30.6736L18.487 31.3845L13.4096 37.5902C13.3571 37.6549 13.2909 37.7072 13.2158 37.7433C13.1407 37.7794 13.0586 37.7984 12.9752 37.7989Z" fill="black"/>
<path d="M13.6575 17.6298H13.6011C13.5184 17.6214 13.4386 17.5947 13.3674 17.5518C13.2962 17.5089 13.2354 17.4508 13.1893 17.3816C12.4624 16.3004 12.0143 15.0562 11.8849 13.7598C11.7555 12.4634 11.9488 11.1552 12.4475 9.95162C12.9463 8.74805 13.735 7.68655 14.7434 6.86169C15.7518 6.03683 16.9486 5.47423 18.2272 5.22402C18.3092 5.20787 18.3937 5.21012 18.4746 5.23061C18.5556 5.2511 18.631 5.28931 18.6955 5.3425C18.7599 5.39614 18.8115 5.46348 18.8467 5.5396C18.8818 5.61572 18.8995 5.69871 18.8986 5.78254V8.69359C18.8985 8.81256 18.8608 8.92845 18.7909 9.02471C18.7209 9.12097 18.6224 9.19266 18.5093 9.22954C17.7206 9.48934 17.0338 9.99116 16.5466 10.6637C16.0595 11.3362 15.7967 12.1451 15.7957 12.9755C15.7935 13.5938 15.9406 14.2034 16.2244 14.7526C16.278 14.8591 16.2964 14.9797 16.2772 15.0973C16.2579 15.2148 16.2019 15.3233 16.1173 15.4071L14.0581 17.4888C13.948 17.5862 13.8043 17.6368 13.6575 17.6298ZM17.7702 6.49902C16.3824 6.92219 15.1673 7.78002 14.304 8.94606C13.4406 10.1121 12.9747 11.5247 12.9749 12.9755C12.9717 14.0858 13.2451 15.1793 13.7704 16.1574L15.0454 14.8824C14.7936 14.2783 14.6651 13.63 14.6674 12.9755C14.6675 11.9773 14.962 11.0012 15.5139 10.1694C16.0657 9.33758 16.8506 8.68689 17.7702 8.29868V6.49902Z" fill="black"/>
<path d="M26.938 12.1293H24.027C23.9033 12.1354 23.781 12.1005 23.679 12.0302C23.577 11.9598 23.5011 11.8579 23.4628 11.74C23.2694 11.1547 22.9416 10.6227 22.5056 10.1868C22.0697 9.75081 21.5377 9.42299 20.9523 9.22954C20.8392 9.19266 20.7407 9.12097 20.6708 9.02471C20.6008 8.92845 20.5631 8.81256 20.5631 8.69359V5.78254C20.5621 5.69871 20.5798 5.61572 20.6149 5.5396C20.6501 5.46348 20.7017 5.39614 20.7662 5.3425C20.8306 5.28931 20.906 5.2511 20.987 5.23061C21.0679 5.21012 21.1525 5.20787 21.2344 5.22402C22.7739 5.51877 24.1901 6.26716 25.3009 7.373C26.4118 8.47884 27.1666 9.89161 27.4683 11.4298C27.4845 11.5117 27.4822 11.5962 27.4617 11.6772C27.4413 11.7582 27.403 11.8336 27.3499 11.898C27.302 11.964 27.2404 12.0189 27.1693 12.0588C27.0982 12.0988 27.0193 12.1228 26.938 12.1293ZM24.4219 11.001H26.2159C25.8874 9.93836 25.3047 8.9719 24.5182 8.18543C23.7317 7.39895 22.7653 6.81621 21.7027 6.48773V8.28175C22.9265 8.80262 23.901 9.77718 24.4219 11.001Z" fill="black"/>
<path d="M19.745 20.8739C18.175 20.8775 16.6401 20.4098 15.3389 19.5312C15.2679 19.4867 15.2076 19.4269 15.1626 19.3562C15.1176 19.2854 15.0889 19.2055 15.0787 19.1223C15.0684 19.0391 15.0768 18.9547 15.1033 18.8751C15.1297 18.7956 15.1736 18.7229 15.2317 18.6624L17.2909 16.6033C17.3747 16.5186 17.4831 16.4626 17.6007 16.4434C17.7182 16.4241 17.8389 16.4426 17.9453 16.4961C18.5013 16.7834 19.1191 16.9306 19.745 16.9248C20.5754 16.9238 21.3843 16.661 22.0568 16.1739C22.7293 15.6867 23.2312 15 23.491 14.2112C23.5292 14.0934 23.6052 13.9915 23.7072 13.9211C23.8091 13.8507 23.9314 13.8159 24.0551 13.822H26.9662C27.05 13.821 27.133 13.8387 27.2091 13.8739C27.2852 13.909 27.3526 13.9606 27.4062 14.0251C27.4594 14.0895 27.4976 14.1649 27.5181 14.2459C27.5386 14.3268 27.5408 14.4114 27.5247 14.4933C27.1719 16.2954 26.2022 17.9182 24.7823 19.0827C23.3625 20.2472 21.5812 20.8806 19.745 20.8739ZM16.5631 18.9502C17.5412 19.4754 18.6348 19.7488 19.745 19.7456C21.1958 19.7458 22.6084 19.2799 23.7744 18.4166C24.9405 17.5532 25.7983 16.3381 26.2215 14.9503H24.4218C24.0336 15.87 23.3829 16.6548 22.5511 17.2067C21.7193 17.7585 20.7432 18.053 19.745 18.0531C19.0905 18.0554 18.4422 17.9269 17.8381 17.6752L16.5631 18.9502Z" fill="black"/>
</svg>
