<svg width="138" height="138" viewBox="0 0 138 138" fill="none" xmlns="http://www.w3.org/2000/svg">
<path d="M131.531 90.5625H92.7188C92.1469 90.5625 91.5984 90.7897 91.1941 91.1941C90.7897 91.5984 90.5625 92.1469 90.5625 92.7188V99.8759L70.8309 77.1087C69.212 75.2398 67.21 73.741 64.9608 72.7139C62.7116 71.6869 60.2678 71.1556 57.7952 71.1562H51.7441C53.1495 69.2927 53.9086 67.0216 53.9062 64.6875V55.2389L54.8167 54.7837C56.0567 54.1637 57.0511 53.1432 57.6386 51.8875C58.2262 50.6318 58.3726 49.2145 58.0541 47.8653C57.7356 46.516 56.9708 45.3138 55.8837 44.4534C54.7966 43.5931 53.4509 43.125 52.0645 43.125H49.5938C49.0218 43.125 48.4734 43.3522 48.069 43.7566L32.9752 58.8503C32.5709 59.2547 32.3437 59.8032 32.3438 60.375V71.1562H21.7157C17.1017 71.1615 12.6781 72.9967 9.41552 76.2593C6.15292 79.5219 4.3177 83.9454 4.3125 88.5594V133.688H8.625V100.021C8.87755 100.309 9.13657 100.592 9.40964 100.865L28.5543 120.01C30.1524 121.617 32.0533 122.891 34.1471 123.758C36.2409 124.625 38.4859 125.069 40.7521 125.062H51.75V127.219C51.7519 128.934 52.4341 130.578 53.6468 131.791C54.8595 133.003 56.5037 133.686 58.2188 133.688H131.531C132.103 133.687 132.652 133.46 133.056 133.056C133.46 132.652 133.688 132.103 133.688 131.531V92.7188C133.688 92.1469 133.46 91.5984 133.056 91.1941C132.652 90.7897 132.103 90.5625 131.531 90.5625ZM88.8487 120.543L81.075 114.713C80.7018 114.433 80.2478 114.281 79.7812 114.281C79.3147 114.281 78.8607 114.433 78.4875 114.713L70.4374 120.75H69V109.969H76.8393C78.7803 109.964 80.6973 110.398 82.4467 111.239C84.1961 112.08 85.7328 113.306 86.9417 114.824L90.3354 119.066C90.4573 119.219 90.5338 119.403 90.5559 119.596C90.5779 119.79 90.5448 119.987 90.4603 120.163C90.3757 120.339 90.2432 120.487 90.0779 120.591C89.9127 120.695 89.7214 120.75 89.5262 120.75H89.4704C89.2463 120.75 89.0283 120.677 88.8487 120.543ZM81.9375 120.75H77.625L79.7812 119.133L81.9375 120.75ZM62.5312 105.656V96.3012L70.7169 105.656H62.5312ZM36.6562 73.3066C37.8745 74.2225 39.2732 74.8695 40.76 75.2048C42.2468 75.5401 43.7878 75.5561 45.2812 75.2518V75.4688C45.2812 76.6125 44.8269 77.7094 44.0181 78.5182C43.2094 79.3269 42.1125 79.7812 40.9688 79.7812C39.825 79.7812 38.7281 79.3269 37.9194 78.5182C37.1106 77.7094 36.6562 76.6125 36.6562 75.4688V73.3066ZM50.4868 47.4375H52.0645C52.4794 47.4375 52.8822 47.5776 53.2075 47.835C53.5328 48.0925 53.7617 48.4523 53.857 48.856C53.9523 49.2598 53.9085 49.684 53.7326 50.0597C53.5568 50.4355 53.2592 50.7409 52.8881 50.9264L51.2409 51.75H46.1743L50.4868 47.4375ZM36.6562 61.2682L41.8618 56.0625H49.5938V64.6875C49.5938 66.4031 48.9122 68.0485 47.6991 69.2616C46.486 70.4747 44.8406 71.1562 43.125 71.1562C41.4094 71.1562 39.764 70.4747 38.5509 69.2616C37.3378 68.0485 36.6562 66.4031 36.6562 64.6875V61.2682ZM31.6039 116.961L12.4592 97.816C10.6285 95.9853 9.38167 93.6527 8.87655 91.1134C8.37143 88.574 8.63065 85.9419 9.62145 83.5499C10.6123 81.1579 12.2901 79.1134 14.4429 77.6749C16.5956 76.2365 19.1266 75.4688 21.7157 75.4688H32.3438C32.3438 77.7562 33.2525 79.95 34.87 81.5675C36.4875 83.185 38.6813 84.0938 40.9688 84.0938C43.2562 84.0938 45.45 83.185 47.0675 81.5675C48.685 79.95 49.5938 77.7562 49.5938 75.4688H57.7952C59.6496 75.4683 61.4825 75.8667 63.1693 76.637C64.8562 77.4072 66.3576 78.5313 67.5718 79.933L90.5625 106.461V112.447L90.3093 112.13C88.6973 110.106 86.6484 108.471 84.3158 107.35C81.9832 106.229 79.4273 105.65 76.8393 105.656H76.4472L61.9977 89.1426C61.7088 88.8124 61.3261 88.5783 60.9007 88.4713C60.4752 88.3644 60.0272 88.3897 59.6166 88.544C59.2059 88.6983 58.8521 88.9742 58.6023 89.3349C58.3526 89.6955 58.2188 90.1238 58.2188 90.5625V105.656H44.0181L29.556 91.1941L26.5065 94.2434L41.6002 109.337C42.0046 109.742 42.5531 109.969 43.125 109.969H64.6875V120.75H40.7521C39.0524 120.755 37.3687 120.422 35.7984 119.772C34.2281 119.121 32.8024 118.166 31.6039 116.961ZM56.0625 127.219V125.062H90.5625V129.375H58.2188C57.6471 129.374 57.099 129.147 56.6948 128.743C56.2905 128.338 56.0632 127.79 56.0625 127.219ZM129.375 129.375H94.875V94.875H129.375V129.375Z" fill="black"/>
<path d="M112.125 118.594C113.404 118.594 114.655 118.214 115.719 117.504C116.783 116.793 117.612 115.782 118.101 114.6C118.591 113.418 118.719 112.118 118.469 110.863C118.22 109.608 117.604 108.456 116.699 107.551C115.794 106.646 114.642 106.03 113.387 105.781C112.132 105.531 110.832 105.659 109.65 106.149C108.468 106.638 107.457 107.467 106.746 108.531C106.036 109.595 105.656 110.846 105.656 112.125C105.658 113.84 106.34 115.484 107.553 116.697C108.766 117.91 110.41 118.592 112.125 118.594ZM112.125 109.969C112.551 109.969 112.968 110.095 113.323 110.332C113.678 110.569 113.954 110.906 114.117 111.3C114.28 111.694 114.323 112.127 114.24 112.546C114.157 112.964 113.951 113.348 113.65 113.65C113.348 113.951 112.964 114.157 112.546 114.24C112.127 114.323 111.694 114.28 111.3 114.117C110.906 113.954 110.569 113.678 110.332 113.323C110.095 112.968 109.969 112.551 109.969 112.125C109.969 111.553 110.197 111.005 110.601 110.601C111.005 110.197 111.553 109.969 112.125 109.969Z" fill="black"/>
<path d="M127.219 4.3125H77.625C75.91 4.31444 74.2657 4.99659 73.053 6.20929C71.8403 7.422 71.1582 9.06623 71.1562 10.7812V15.0938H53.9062C53.3343 15.0938 52.7859 15.3209 52.3815 15.7253L41.4662 26.6406C40.053 25.0438 38.3167 23.7654 36.3723 22.89C34.428 22.0146 32.3199 21.5621 30.1875 21.5625H23.7188C19.717 21.567 15.8805 23.1587 13.0508 25.9883C10.2212 28.818 8.62951 32.6545 8.625 36.6562V38.8125C8.62477 39.7219 8.81675 40.6211 9.18835 41.4511C9.55995 42.2812 10.1028 43.0233 10.7813 43.6288V47.4375C10.7832 49.1525 11.4653 50.7967 12.678 52.0095C13.8908 53.2222 15.535 53.9043 17.25 53.9062V58.2188C17.25 58.7906 17.4772 59.3391 17.8816 59.7434C18.2859 60.1478 18.8344 60.375 19.4062 60.375H23.7188C24.0737 60.375 24.4232 60.2874 24.7362 60.1199C25.0492 59.9524 25.3159 59.7102 25.5128 59.4148L29.1852 53.9062H32.3438C32.7442 53.9062 33.1367 53.7947 33.4773 53.5842C33.818 53.3737 34.0932 53.0725 34.2723 52.7143L37.9888 45.2812H38.8125C40.5275 45.2793 42.1717 44.5972 43.3845 43.3845C44.5972 42.1717 45.2793 40.5275 45.2812 38.8125V36.6562C45.2827 34.4683 44.8055 32.3066 43.8831 30.3226L54.7993 19.4062H71.1562V66.8438C71.1582 68.5588 71.8403 70.203 73.053 71.4157C74.2657 72.6284 75.91 73.3106 77.625 73.3125H127.219C128.934 73.3106 130.578 72.6284 131.791 71.4157C133.003 70.203 133.686 68.5588 133.688 66.8438V10.7812C133.686 9.06623 133.003 7.422 131.791 6.20929C130.578 4.99659 128.934 4.31444 127.219 4.3125ZM15.0938 47.4375V45.2812H21.5625V46.5444L18.513 49.5938H17.25C16.6783 49.5931 16.1303 49.3657 15.726 48.9615C15.3218 48.5572 15.0944 48.0092 15.0938 47.4375ZM31.0111 49.5938H28.0312C27.6763 49.5937 27.3268 49.6814 27.0138 49.8489C26.7008 50.0164 26.4341 50.2586 26.2372 50.554L22.5648 56.0625H21.5625V52.6432L25.2435 48.9622C25.6479 48.5578 25.875 48.0093 25.875 47.4375V45.2812H33.1673L31.0111 49.5938ZM40.9688 38.8125C40.9681 39.3842 40.7407 39.9322 40.3365 40.3365C39.9322 40.7407 39.3842 40.9681 38.8125 40.9688H29.3639L31.5202 36.6562H36.6562V32.3438H31.0807L27.3998 28.6628L24.3502 31.7122L27.5638 34.9258L24.5424 40.9688H15.0938C14.5221 40.9681 13.974 40.7407 13.5698 40.3365C13.1655 39.9322 12.9382 39.3842 12.9375 38.8125V36.6562C12.9373 35.932 13.01 35.2096 13.1545 34.5H16.3569L20.0377 38.1809L23.0873 35.1316L18.7748 30.8191C18.3704 30.4147 17.8219 30.1875 17.25 30.1875H15.0997C16.1028 28.8487 17.4039 27.762 18.9 27.0135C20.396 26.2649 22.0459 25.8751 23.7188 25.875H30.1875C33.0459 25.8782 35.7862 27.0152 37.8074 29.0363C39.8286 31.0575 40.9655 33.7979 40.9688 36.6562V38.8125ZM129.375 66.8438C129.374 67.4154 129.147 67.9635 128.743 68.3677C128.338 68.772 127.79 68.9993 127.219 69H77.625C77.0533 68.9993 76.5053 68.772 76.101 68.3677C75.6968 67.9635 75.4694 67.4154 75.4688 66.8438V10.7812C75.4694 10.2096 75.6968 9.66151 76.101 9.25727C76.5053 8.85304 77.0533 8.62565 77.625 8.625H127.219C127.79 8.62565 128.338 8.85304 128.743 9.25727C129.147 9.66151 129.374 10.2096 129.375 10.7812V66.8438Z" fill="black"/>
<path d="M84.0938 19.4062H79.7812V23.7188H84.0938V19.4062Z" fill="black"/>
<path d="M84.0938 28.0312H79.7812V32.3438H84.0938V28.0312Z" fill="black"/>
<path d="M84.0938 36.6562H79.7812V40.9688H84.0938V36.6562Z" fill="black"/>
<path d="M88.4062 45.2812H112.125C112.697 45.2812 113.245 45.0541 113.65 44.6497C114.054 44.2453 114.281 43.6969 114.281 43.125V36.6562H118.594C119.166 36.6562 119.714 36.4291 120.118 36.0247C120.523 35.6203 120.75 35.0719 120.75 34.5V25.875C120.75 25.3031 120.523 24.7547 120.118 24.3503C119.714 23.9459 119.166 23.7188 118.594 23.7188H107.812V17.25C107.812 16.6781 107.585 16.1297 107.181 15.7253C106.777 15.3209 106.228 15.0938 105.656 15.0938H88.4062C87.8344 15.0938 87.2859 15.3209 86.8816 15.7253C86.4772 16.1297 86.25 16.6781 86.25 17.25V43.125C86.25 43.6969 86.4772 44.2453 86.8816 44.6497C87.2859 45.0541 87.8344 45.2812 88.4062 45.2812ZM109.969 40.9688H90.5625V36.6562H109.969V40.9688ZM116.438 32.3438H90.5625V28.0312H116.438V32.3438ZM90.5625 19.4062H103.5V23.7188H90.5625V19.4062Z" fill="black"/>
<path d="M94.875 49.5938H88.4062V53.9062H94.875V49.5938Z" fill="black"/>
<path d="M122.906 49.5938H99.1875V53.9062H122.906V49.5938Z" fill="black"/>
<path d="M105.656 58.2188H81.9375V62.5312H105.656V58.2188Z" fill="black"/>
<path d="M122.906 58.2188H109.969V62.5312H122.906V58.2188Z" fill="black"/>
</svg>
