<svg width="45" height="61" viewBox="0 0 45 61" fill="none" xmlns="http://www.w3.org/2000/svg">
<path d="M18.6473 0C17.6662 0.0482917 15.4677 0.691333 13.3937 1.66988C11.3197 2.66112 3.99965 7.16242 3.85732 18.2822C4.04032 28.8174 13.6351 46.726 20.1164 52.4803C20.1164 52.4803 9.59132 34.8107 8.83391 19.4056C8.06632 4.00313 18.6473 0 18.6473 0ZM25.4564 0C25.4564 0 36.0272 4.00313 35.2698 19.4056C34.5098 34.8107 23.9873 52.4803 23.9873 52.4803C30.4609 46.726 40.0608 28.8174 40.2438 18.2822C40.0989 7.16242 32.7815 2.66112 30.7075 1.66988C28.6335 0.691333 26.4349 0.0482917 25.4564 0ZM21.9489 0.0482917C21.4544 0.0419683 20.9673 0.168357 20.5383 0.414292C16.647 2.51625 14.2197 10.1209 14.9009 22.0108C15.3711 30.2509 17.4654 40.5421 21.0568 52.4803H22.8359C26.4273 40.5421 28.5293 30.2611 28.9995 22.021C29.6807 10.1336 27.2508 2.51625 23.3595 0.414292C22.9305 0.168357 22.4434 0.0419683 21.9489 0.0482917ZM9.41086 2.70942C9.41086 2.70942 -1.96055 7.39371 0.296447 20.9052C2.54328 34.4269 14.4993 48.8508 18.0525 51.9135C19.331 53.0751 3.36932 35.2707 1.82145 19.6369C1.08182 13.7326 2.8127 7.18275 9.41086 2.70942ZM34.7411 2.70942C41.3367 7.18275 43.0676 13.7326 42.328 19.6369C40.7827 35.2707 24.821 53.0751 26.0969 51.9135C29.6502 48.8508 41.6087 34.4269 43.8555 20.9052C46.1125 7.39371 34.7411 2.70942 34.7411 2.70942ZM17.4197 55.5253L18.6371 61H25.2429L26.4832 55.5253H17.4197Z" fill="black"/>
</svg>
