<svg width="52" height="53" viewBox="0 0 48 53" fill="none" xmlns="http://www.w3.org/2000/svg">
<path d="M34.7919 4.29116C32.4841 2.22536 29.6511 0.836308 26.6047 0.276874C23.5583 -0.282561 20.4166 0.00931179 17.5254 1.12037C14.6342 2.23143 12.1056 4.11859 10.2178 6.57417C8.33003 9.02974 7.15633 11.9585 6.82586 15.0382C6.53111 17.7025 6.88246 20.3986 7.85018 22.8984C8.81789 25.3982 10.3735 27.6282 12.3854 29.3995C14.6651 31.4494 16.189 34.2066 16.7118 37.2275C16.25 37.418 15.855 37.7412 15.577 38.1563C15.2989 38.5713 15.1501 39.0595 15.1496 39.5591V46.2928C15.1496 46.9625 15.4156 47.6048 15.8892 48.0783C16.3627 48.5519 17.005 48.8179 17.6747 48.8179V49.6597C17.6747 50.3294 17.9408 50.9716 18.4143 51.4452C18.8879 51.9188 19.5302 52.1848 20.1999 52.1848H26.9336C27.6033 52.1848 28.2456 51.9188 28.7192 51.4452C29.1927 50.9716 29.4588 50.3294 29.4588 49.6597V48.8179C30.1285 48.8179 30.7708 48.5519 31.2443 48.0783C31.7179 47.6048 31.9839 46.9625 31.9839 46.2928V39.5591C31.9835 39.0593 31.8349 38.571 31.5568 38.1558C31.2787 37.7406 30.8837 37.4172 30.4217 37.2267C30.9281 34.2212 32.4377 31.4759 34.7043 29.4383C36.487 27.8666 37.9163 25.9348 38.898 23.7704C39.8796 21.606 40.3912 19.2581 40.3992 16.8815C40.4071 14.5049 39.9112 12.1537 38.9441 9.98272C37.977 7.81179 36.5607 5.87053 34.7885 4.28695L34.7919 4.29116ZM30.3005 39.5591V40.4008H16.833V39.5591C16.833 39.3358 16.9217 39.1217 17.0796 38.9639C17.2374 38.806 17.4515 38.7173 17.6747 38.7173H29.4588C29.682 38.7173 29.8961 38.806 30.0539 38.9639C30.2118 39.1217 30.3005 39.3358 30.3005 39.5591ZM30.3005 42.0842V43.7676H16.833V42.0842H30.3005ZM27.7753 49.6597C27.7753 49.8829 27.6867 50.097 27.5288 50.2548C27.3709 50.4127 27.1569 50.5014 26.9336 50.5014H20.1999C19.9766 50.5014 19.7626 50.4127 19.6047 50.2548C19.4468 50.097 19.3582 49.8829 19.3582 49.6597V48.8179H27.7753V49.6597ZM29.4588 47.1345H17.6747C17.4515 47.1345 17.2374 47.0458 17.0796 46.888C16.9217 46.7301 16.833 46.516 16.833 46.2928V45.4511H30.3005V46.2928C30.3005 46.516 30.2118 46.7301 30.0539 46.888C29.8961 47.0458 29.682 47.1345 29.4588 47.1345ZM33.5907 28.1757C31.0078 30.4873 29.2937 33.6132 28.7332 37.0339H18.4003C17.8237 33.6001 16.0969 30.4642 13.5032 28.1412C12.0073 26.8206 10.7871 25.2173 9.91275 23.4236C9.03843 21.6299 8.52722 19.681 8.4085 17.6891C8.28978 15.6972 8.5659 13.7014 9.22097 11.8166C9.87604 9.93169 10.8972 8.19486 12.2256 6.7059C13.5541 5.21694 15.1638 4.0052 16.9621 3.14032C18.7603 2.27545 20.7118 1.7745 22.7044 1.66625C24.6969 1.55801 26.6912 1.84462 28.5726 2.5096C30.454 3.17457 32.1854 4.20481 33.6673 5.5411C35.2621 6.96633 36.5367 8.71346 37.4069 10.6673C38.2771 12.6211 38.7232 14.7372 38.7158 16.876C38.7084 19.0148 38.2476 21.1278 37.3639 23.0755C36.4802 25.0233 35.1937 26.7615 33.5891 28.1757H33.5907Z" fill="black"/>
<path d="M23.5672 3.36475C20.9036 3.36475 18.2998 4.1546 16.0851 5.63442C13.8704 7.11425 12.1442 9.21757 11.1249 11.6784C10.1056 14.1393 9.83889 16.8471 10.3585 19.4596C10.8782 22.072 12.1608 24.4717 14.0443 26.3551C15.9277 28.2386 18.3274 29.5212 20.9398 30.0409C23.5523 30.5605 26.2601 30.2938 28.721 29.2745C31.1819 28.2552 33.2852 26.529 34.765 24.3143C36.2448 22.0996 37.0347 19.4958 37.0347 16.8322C37.0304 13.2617 35.6102 9.83867 33.0855 7.31395C30.5608 4.78923 27.1377 3.36898 23.5672 3.36475ZM17.6752 27.022V26.0911C17.6752 24.5284 18.296 23.0298 19.4009 21.9248C20.5059 20.8198 22.0046 20.1991 23.5672 20.1991C25.1299 20.1991 26.6285 20.8198 27.7335 21.9248C28.8385 23.0298 29.4592 24.5284 29.4592 26.0911V27.022C27.6711 28.066 25.6378 28.6162 23.5672 28.6162C21.4967 28.6162 19.4633 28.066 17.6752 27.022ZM19.3586 14.3071C19.3586 13.4747 19.6055 12.661 20.0679 11.9689C20.5304 11.2768 21.1876 10.7374 21.9567 10.4188C22.7257 10.1003 23.5719 10.017 24.3883 10.1793C25.2047 10.3417 25.9546 10.7426 26.5431 11.3311C27.1317 11.9197 27.5325 12.6696 27.6949 13.486C27.8573 14.3024 27.774 15.1486 27.4554 15.9176C27.1369 16.6866 26.5975 17.3439 25.9054 17.8064C25.2133 18.2688 24.3996 18.5156 23.5672 18.5156C22.4514 18.5143 21.3818 18.0705 20.5928 17.2815C19.8038 16.4925 19.36 15.4228 19.3586 14.3071ZM31.1309 25.8562C31.0864 24.4594 30.6563 23.1021 29.8883 21.9344C29.1203 20.7668 28.0443 19.8344 26.7792 19.2404C27.8442 18.5478 28.6568 17.5297 29.096 16.3377C29.5351 15.1456 29.5773 13.8436 29.2161 12.6257C28.8549 11.4078 28.1098 10.3392 27.0918 9.5793C26.0739 8.81938 24.8376 8.40881 23.5672 8.40881C22.2969 8.40881 21.0606 8.81938 20.0426 9.5793C19.0246 10.3392 18.2795 11.4078 17.9183 12.6257C17.5572 13.8436 17.5993 15.1456 18.0385 16.3377C18.4776 17.5297 19.2903 18.5478 20.3552 19.2404C19.0902 19.8344 18.0141 20.7668 17.2461 21.9344C16.4781 23.1021 16.0481 24.4594 16.0036 25.8562C14.1482 24.3032 12.8159 22.2168 12.1875 19.8803C11.5592 17.5437 11.6653 15.0704 12.4914 12.7963C13.3176 10.5222 14.8237 8.5575 16.8052 7.16911C18.7868 5.78072 21.1477 5.03594 23.5672 5.03594C25.9868 5.03594 28.3476 5.78072 30.3292 7.16911C32.3107 8.5575 33.8169 10.5222 34.643 12.7963C35.4692 15.0704 35.5753 17.5437 34.9469 19.8803C34.3186 22.2168 32.9862 24.3032 31.1309 25.8562Z" fill="black"/>
<path d="M37.0345 49.6593H43.7683C43.9915 49.6593 44.2056 49.5706 44.3635 49.4128C44.5213 49.2549 44.61 49.0408 44.61 48.8176V36.1919H46.2934C46.455 36.1917 46.6131 36.145 46.7489 36.0574C46.8847 35.9698 46.9924 35.845 47.0591 35.6978C47.1259 35.5507 47.1488 35.3874 47.1253 35.2276C47.1018 35.0677 47.0327 34.918 46.9264 34.7963L41.0344 28.0626C40.9535 27.9762 40.8557 27.9074 40.7471 27.8604C40.6385 27.8133 40.5214 27.7891 40.4031 27.7891C40.2848 27.7891 40.1677 27.8133 40.0591 27.8604C39.9505 27.9074 39.8527 27.9762 39.7718 28.0626L33.8798 34.7963C33.7737 34.9178 33.7047 35.0672 33.681 35.2267C33.6573 35.3863 33.68 35.5493 33.7464 35.6963C33.8127 35.8433 33.9199 35.9682 34.0552 36.0561C34.1904 36.1439 34.3481 36.1911 34.5094 36.1919H36.1928V48.8176C36.1928 49.0408 36.2815 49.2549 36.4394 49.4128C36.5972 49.5706 36.8113 49.6593 37.0345 49.6593ZM40.4014 29.895L44.4416 34.5084H43.7683C43.545 34.5084 43.3309 34.5971 43.1731 34.755C43.0152 34.9128 42.9266 35.1269 42.9266 35.3502V47.9759H37.8763V35.3502C37.8763 35.1269 37.7876 34.9128 37.6297 34.755C37.4719 34.5971 37.2578 34.5084 37.0345 34.5084H36.3612L40.4014 29.895Z" fill="black"/>
<path d="M6.0999 28.0624L0.20789 34.7961C0.101566 34.9178 0.032513 35.0675 0.00897712 35.2274C-0.0145588 35.3873 0.00841733 35.5505 0.0751616 35.6977C0.141906 35.8448 0.249597 35.9697 0.385374 36.0573C0.521151 36.1449 0.679274 36.1916 0.84086 36.1917H2.52429V48.8175C2.52429 49.0407 2.61297 49.2548 2.77083 49.4126C2.92868 49.5705 3.14277 49.6592 3.36601 49.6592H10.0997C10.323 49.6592 10.5371 49.5705 10.6949 49.4126C10.8528 49.2548 10.9415 49.0407 10.9415 48.8175V36.1917H12.6249C12.7865 36.1916 12.9446 36.1449 13.0804 36.0573C13.2161 35.9697 13.3238 35.8448 13.3906 35.6977C13.4573 35.5505 13.4803 35.3873 13.4568 35.2274C13.4332 35.0675 13.3642 34.9178 13.2579 34.7961L7.36584 28.0624C7.28488 27.9756 7.18689 27.9063 7.078 27.8589C6.9691 27.8115 6.85162 27.7871 6.73287 27.7871C6.61412 27.7871 6.49664 27.8115 6.38775 27.8589C6.27885 27.9063 6.18087 27.9756 6.0999 28.0624ZM10.7731 34.5083H10.0997C9.8765 34.5083 9.66241 34.597 9.50455 34.7548C9.3467 34.9127 9.25802 35.1268 9.25802 35.35V47.9757H4.20772V35.35C4.20772 35.1268 4.11904 34.9127 3.96119 34.7548C3.80334 34.597 3.58925 34.5083 3.36601 34.5083H2.69264L6.73287 29.8948L10.7731 34.5083Z" fill="black"/>
</svg>
