<svg width="131" height="131" viewBox="0 0 137 137" fill="none" xmlns="http://www.w3.org/2000/svg">
<path d="M134.835 66.3345H112.344C111.148 66.3345 110.178 67.3044 110.178 68.5005C110.178 91.4816 91.4815 110.178 68.5005 110.178C45.5196 110.178 26.8227 91.4816 26.8227 68.5005C26.8227 67.3044 25.8529 66.3345 24.6567 66.3345H2.16602C0.969838 66.3345 0 67.3044 0 68.5005V74.8242C0 76.7928 1.32994 78.5162 3.23415 79.0152L9.6269 80.6906L11.419 87.3792L6.71224 92.0348C5.31163 93.4202 5.0222 95.5792 6.00855 97.2849L12.3396 108.23C13.3243 109.933 15.3371 110.759 17.2345 110.24L23.6094 108.494L28.5057 113.391L26.7602 119.766C26.2406 121.663 27.0669 123.676 28.7697 124.661L39.7154 130.992C41.4209 131.978 43.5796 131.689 44.9651 130.288L49.6209 125.581L56.3091 127.373L57.9848 133.766C58.484 135.67 60.2074 137 62.176 137H74.8237C76.7924 137 78.5157 135.67 79.0147 133.766L80.6907 127.373L87.3788 125.581L92.0347 130.288C93.4201 131.689 95.5788 131.978 97.2848 130.992L108.23 124.661C109.933 123.676 110.759 121.663 110.24 119.766L108.494 113.391L113.391 108.494L119.765 110.24C121.663 110.76 123.675 109.933 124.66 108.23L130.992 97.2844C131.978 95.5789 131.688 93.4202 130.288 92.0348L125.581 87.3792L127.373 80.6906L133.766 79.0152C135.67 78.5159 137 76.7926 137 74.8242V68.5005C137 67.3044 136.03 66.3345 134.834 66.3345H134.835ZM132.668 74.825L125.058 76.8196C124.306 77.017 123.717 77.6027 123.515 78.3543L121.072 87.474C120.87 88.2253 121.088 89.0273 121.641 89.5744L127.243 95.1162L120.91 106.062L113.322 103.984C112.572 103.778 111.769 103.991 111.218 104.542L104.542 111.218C103.992 111.768 103.779 112.571 103.984 113.321L106.062 120.911L95.1153 127.242L89.5743 121.641C89.0271 121.087 88.2254 120.87 87.4738 121.071L78.3546 123.515C77.6033 123.716 77.0173 124.305 76.8202 125.058L74.8245 132.669L62.1763 132.668L60.1814 125.058C59.984 124.305 59.3981 123.716 58.6468 123.515L49.5275 121.071C49.342 121.022 49.1539 120.998 48.9671 120.998C48.396 120.998 47.8391 121.224 47.427 121.641L41.885 127.242L30.939 120.91L33.0167 113.321C33.2222 112.571 33.0094 111.768 32.4592 111.218L25.783 104.542C25.2328 103.992 24.4303 103.779 23.6793 103.984L16.0895 106.062L9.75875 95.1151L15.3601 89.5744C15.9132 89.0273 16.1304 88.2256 15.9292 87.474L13.4857 78.3543C13.2842 77.6027 12.6953 77.017 11.9426 76.8196L4.33205 74.8242V70.6666H22.541C23.6763 95.0344 43.8571 114.51 68.5005 114.51C93.1439 114.51 113.325 95.0344 114.46 70.6666H132.669V74.825H132.668ZM76.116 65.3384C76.116 61.1957 78.8847 57.4704 82.8486 56.2794C83.9944 55.9344 85.2019 56.5848 85.5463 57.7303C85.8905 58.8756 85.2409 60.0834 84.0954 60.4278C81.948 61.0733 80.4481 63.0926 80.4481 65.3384C80.4481 67.5843 81.9478 69.6039 84.0951 70.2488C85.2407 70.5929 85.8905 71.8007 85.5463 72.9465C85.2645 73.8844 84.404 74.4898 83.4726 74.4898C83.2663 74.4898 83.0565 74.4603 82.8486 74.3978C78.8845 73.207 76.1157 69.4815 76.1157 65.3384H76.116ZM60.8848 65.3384C60.8848 69.4815 58.1161 73.207 54.152 74.3978C53.944 74.4601 53.7342 74.4898 53.5279 74.4898C52.5965 74.4898 51.736 73.8844 51.4542 72.9465C51.1101 71.801 51.7596 70.5932 52.9054 70.2488C55.0528 69.6039 56.5525 67.5846 56.5525 65.3384C56.5525 63.0923 55.0528 61.0733 52.9052 60.4278C51.7596 60.0837 51.1098 58.8759 51.4542 57.7303C51.7983 56.5848 53.0053 55.9339 54.152 56.2794C58.1161 57.4704 60.8848 61.1957 60.8848 65.3384ZM33.2081 14.6187V24.7902C33.2081 25.9864 34.178 26.9562 35.3742 26.9562H52.5334V34.6854C49.3166 36.1753 46.7878 38.888 45.5442 42.2997C41.8427 43.6502 38.9879 46.8304 38.1082 50.7192C37.8264 51.9647 37.7649 53.2315 37.893 54.4716C34.1883 56.4012 31.7258 60.1129 31.4631 64.3616C31.2157 68.3646 32.932 71.9973 36.0326 74.2662C35.5198 75.6459 35.2423 77.1226 35.2396 78.6396C35.2309 83.8053 38.4599 88.5331 43.2742 90.4046C44.1606 90.7492 45.0728 90.9845 45.9926 91.1177C46.2422 96.4058 49.7111 101.15 54.8662 102.888C56.2346 103.35 57.636 103.571 59.0212 103.571C62.5813 103.571 66.0248 102.104 68.5 99.5086C70.975 102.105 74.4184 103.571 77.9788 103.571C79.3637 103.571 80.7659 103.35 82.1338 102.888C87.2889 101.15 90.7575 96.4058 91.0072 91.1177C91.9272 90.9843 92.8393 90.7492 93.7255 90.4046C98.5401 88.5331 101.769 83.8053 101.76 78.6396C101.758 77.1226 101.48 75.6459 100.967 74.2662C104.068 71.9973 105.784 68.3646 105.537 64.3616C105.274 60.1129 102.812 56.4015 99.107 54.4716C99.2351 53.2315 99.1736 51.9647 98.8918 50.7192C98.0118 46.8302 95.157 43.6499 91.4558 42.2997C90.2122 38.888 87.6837 36.1753 84.4669 34.6854V26.956H101.626C102.823 26.956 103.792 25.9861 103.792 24.79V14.6184C106.858 13.6875 109.096 10.8357 109.096 7.47002C109.096 3.35109 105.745 0 101.626 0C97.5074 0 94.1566 3.35109 94.1566 7.47002C94.1566 10.8357 96.3946 13.6878 99.4603 14.6184V22.624H82.3008C81.1046 22.624 80.1348 23.5938 80.1348 24.79V33.4989C76.6813 33.1426 73.3245 34.1211 70.666 36.1055V14.6189C73.7318 13.6884 75.9701 10.8363 75.9701 7.47056C75.9701 3.35163 72.6192 0.000541527 68.5003 0.000541527C64.3813 0.000541527 61.0305 3.35163 61.0305 7.47056C61.0305 10.8363 63.2685 13.6881 66.3342 14.6189V36.1071C63.6752 34.123 60.3181 33.1445 56.8655 33.4995V24.7902C56.8655 23.5941 55.8956 22.6242 54.6994 22.6242H37.5402V14.6187C40.6059 13.6881 42.8442 10.836 42.8442 7.47029C42.8442 3.35136 39.4934 0.000270796 35.3744 0.000270796C31.2555 0.000270796 27.9044 3.35136 27.9044 7.47029C27.9044 10.836 30.1424 13.6878 33.2081 14.6187ZM98.4889 7.47029C98.4889 5.73992 99.8965 4.33229 101.627 4.33229C103.357 4.33229 104.765 5.73992 104.765 7.47029C104.765 9.20066 103.357 10.608 101.627 10.608C99.8963 10.608 98.4889 9.20066 98.4889 7.47029ZM79.9168 37.8318C82.5448 38.1667 84.8232 39.5868 86.279 41.6648C83.2563 41.9824 80.395 43.461 78.4174 45.8674C77.658 46.7915 77.7914 48.1566 78.7158 48.916C79.6399 49.6755 81.0047 49.542 81.7645 48.6177C83.5406 46.4563 86.4469 45.4761 89.1696 46.1213C91.892 46.7665 94.0499 48.9466 94.6672 51.6753C95.2845 54.4039 94.2754 57.3004 92.0959 59.0543C91.1639 59.8046 91.0164 61.1678 91.7663 62.0997C92.1944 62.6315 92.8217 62.9076 93.455 62.9076C93.9316 62.9076 94.4116 62.7511 94.8118 62.429C96.0827 61.4063 97.1002 60.1373 97.8337 58.7281C100.115 60.2223 101.09 62.6234 101.214 64.6285C101.36 66.9944 100.458 69.0859 98.7545 70.4979C98.0121 69.6263 97.15 68.846 96.1731 68.1919C95.1795 67.5258 93.8338 67.7917 93.168 68.7862C92.5025 69.7801 92.7684 71.1255 93.7623 71.791C96.0532 73.3253 97.4237 75.8883 97.4286 78.6467C97.4343 82.0362 95.3157 85.1387 92.1562 86.3669C88.9974 87.5942 85.3392 86.7383 83.0541 84.2347C82.2475 83.3518 80.8777 83.289 79.994 84.0953C79.1105 84.9018 79.048 86.2716 79.8546 87.1553C81.6873 89.1629 84.0994 90.4742 86.6751 90.9948C86.4777 94.4975 84.1696 97.6301 80.7497 98.7835C76.9805 100.054 72.8296 98.5972 70.6663 95.3114V42.578C72.4668 39.2445 76.1258 37.349 79.9168 37.8312V37.8318ZM65.3628 7.47029C65.3628 5.73992 66.7704 4.33229 68.5005 4.33229C70.2307 4.33229 71.6383 5.73992 71.6383 7.47029C71.6383 9.20066 70.2307 10.608 68.5005 10.608C66.7704 10.608 65.3628 9.20066 65.3628 7.47029ZM57.084 37.8318C60.8775 37.3485 64.5359 39.2532 66.3345 42.5935V95.3084C64.1717 98.5959 60.0205 100.055 56.2511 98.7843C52.831 97.6307 50.5225 94.4981 50.3254 90.9954C52.9011 90.4747 55.3135 89.1635 57.1462 87.1561C57.9528 86.2724 57.8903 84.9026 57.0068 84.0961C56.1231 83.2892 54.753 83.3521 53.9467 84.2355C51.6616 86.7391 48.0034 87.5953 44.8443 86.3677C41.6852 85.1395 39.5662 82.037 39.5719 78.6475C39.5765 75.8891 40.9471 73.3261 43.2382 71.7921C44.2321 71.1263 44.4983 69.7809 43.8325 68.787C43.167 67.7928 41.8216 67.5269 40.8274 68.1924C39.8505 68.8466 38.9884 69.6269 38.246 70.4984C36.5422 69.0865 35.6406 66.9949 35.7871 64.6293C35.9111 62.6242 36.8858 60.2231 39.1671 58.7289C39.9006 60.1381 40.9181 61.4069 42.189 62.4298C42.5895 62.7517 43.069 62.9085 43.5458 62.9085C44.1788 62.9085 44.8067 62.632 45.2345 62.1005C45.9844 61.1686 45.8369 59.8051 44.9049 59.0551C42.7257 57.3012 41.7163 54.4047 42.3336 51.6761C42.9509 48.9474 45.1088 46.7674 47.8312 46.1222C50.5534 45.478 53.4605 46.4571 55.2363 48.6185C55.9958 49.5426 57.3607 49.6763 58.285 48.9169C59.2094 48.1574 59.3429 46.7925 58.5834 45.8682C56.6061 43.4615 53.745 41.9824 50.7218 41.6651C52.1776 39.587 54.456 38.1672 57.0837 37.8323L57.084 37.8318ZM35.3744 4.33256C37.1048 4.33256 38.5122 5.74019 38.5122 7.47056C38.5122 9.20093 37.1045 10.6083 35.3744 10.6083C33.6443 10.6083 32.2364 9.20093 32.2364 7.47056C32.2364 5.74019 33.6441 4.33256 35.3744 4.33256ZM87.7681 32.4926C87.7681 33.6887 88.738 34.6586 89.9342 34.6586H114.076V42.6639C111.011 43.5947 108.773 46.4465 108.773 49.8122C108.773 53.9312 112.123 57.2822 116.242 57.2822C120.361 57.2822 123.712 53.9312 123.712 49.8122C123.712 46.4465 121.474 43.5944 118.408 42.6639V32.4926C118.408 31.2964 117.439 30.3265 116.242 30.3265H89.9342C88.738 30.3265 87.7681 31.2964 87.7681 32.4926ZM119.38 49.8122C119.38 51.5426 117.973 52.9502 116.242 52.9502C114.512 52.9502 113.105 51.5426 113.105 49.8122C113.105 48.0819 114.512 46.6745 116.242 46.6745C117.973 46.6745 119.38 48.0819 119.38 49.8122ZM20.7592 57.2822C24.8781 57.2822 28.229 53.9312 28.229 49.8122C28.229 46.4465 25.9909 43.5944 22.9252 42.6639V34.6586H47.0672C48.2634 34.6586 49.2332 33.6887 49.2332 32.4926C49.2332 31.2964 48.2634 30.3265 47.0672 30.3265H20.7592C19.563 30.3265 18.5932 31.2964 18.5932 32.4926V42.6639C15.5274 43.5947 13.2894 46.4465 13.2894 49.8122C13.2894 53.9312 16.6402 57.2822 20.7592 57.2822ZM20.7592 46.6745C22.4896 46.6745 23.8969 48.0819 23.8969 49.8122C23.8969 51.5426 22.4893 52.9502 20.7592 52.9502C19.0291 52.9502 17.6214 51.5426 17.6214 49.8122C17.6214 48.0819 19.0291 46.6745 20.7592 46.6745Z" fill="black"/>
</svg>
