<svg width="700" height="600" viewBox="0 0 903 896" fill="none" xmlns="http://www.w3.org/2000/svg">
<mask id="mask0_330_10" style="mask-type:luminance" maskUnits="userSpaceOnUse" x="691" y="407" width="194" height="194">
<path d="M881.5 597.5V410.5H694.5V597.5H881.5Z" fill="white" stroke="white" stroke-width="7"/>
</mask>
<g mask="url(#mask0_330_10)">
<path d="M842.926 485.691C842.926 516.026 818.335 540.617 788 540.617C757.665 540.617 733.074 516.026 733.074 485.691C733.074 455.356 757.665 430.766 788 430.766C818.335 430.766 842.926 455.356 842.926 485.691Z" stroke="white" stroke-width="7" stroke-miterlimit="10" stroke-linecap="round" stroke-linejoin="round"/>
<path d="M749.211 420.423C727.072 433.561 712.239 457.659 712.15 485.442C712.035 521.207 736.675 551.236 769.906 559.369C769.978 559.386 770.044 559.424 770.096 559.475L787.709 576.945C787.87 577.105 788.129 577.105 788.291 576.945L805.903 559.475C805.955 559.423 806.021 559.386 806.093 559.369C839.248 551.255 863.849 521.346 863.849 485.691C863.849 444.218 830.563 410.518 789.249 409.852C779.248 409.69 769.685 411.447 760.909 414.781" stroke="white" stroke-width="7" stroke-miterlimit="10" stroke-linecap="round" stroke-linejoin="round"/>
<path d="M740.216 572.388C737.307 574.667 735.689 577.192 735.689 579.849C735.689 589.961 759.11 598.158 788 598.158C816.89 598.158 840.31 589.961 840.31 579.849C840.31 571.569 824.602 564.572 803.046 562.31" stroke="white" stroke-width="7" stroke-miterlimit="10" stroke-linecap="round" stroke-linejoin="round"/>
<path d="M772.953 562.309C765.217 563.122 758.233 564.543 752.459 566.416" stroke="white" stroke-width="7" stroke-miterlimit="10" stroke-linecap="round" stroke-linejoin="round"/>
<path d="M821.071 471.003H821.782C826.12 471.003 827.924 476.554 824.414 479.104L808.799 490.448C807.23 491.589 806.573 493.61 807.173 495.455L813.137 513.811C814.478 517.936 809.756 521.367 806.246 518.817L790.632 507.473C789.062 506.332 786.937 506.332 785.367 507.473L769.753 518.817C766.244 521.367 761.522 517.936 762.862 513.811L768.826 495.455C769.426 493.61 768.769 491.589 767.2 490.448L751.585 479.104C748.076 476.554 749.879 471.003 754.217 471.003H773.518C775.458 471.003 777.177 469.754 777.776 467.909L783.741 449.553C785.081 445.427 790.918 445.427 792.259 449.553L798.223 467.909C798.822 469.754 800.541 471.003 802.481 471.003H807.81" stroke="white" stroke-width="7" stroke-miterlimit="10" stroke-linecap="round" stroke-linejoin="round"/>
</g>
<path d="M818.73 239.322C817.237 239.322 816.016 240.544 816.016 242.037V270.57H805.156V208.128C805.156 206.635 803.935 205.414 802.441 205.414C800.948 205.414 799.727 206.635 799.727 208.128V273.285C799.727 274.778 800.948 276 802.441 276H818.73C820.224 276 821.445 274.778 821.445 273.285V242.037C821.445 240.544 820.224 239.322 818.73 239.322Z" fill="white"/>
<path d="M848.594 248.77C847.101 248.77 845.879 249.992 845.879 251.485V270.57H835.02V249.395C835.02 247.901 833.798 246.68 832.305 246.68C830.812 246.68 829.59 247.901 829.59 249.395V273.285C829.59 274.778 830.812 276 832.305 276H848.594C850.087 276 851.309 274.778 851.309 273.285V251.485C851.309 249.992 850.087 248.77 848.594 248.77Z" fill="white"/>
<path d="M837.734 140.257H848.594C850.087 140.257 851.309 139.036 851.309 137.542V126.683C851.309 125.19 850.087 123.968 848.594 123.968H837.734C836.241 123.968 835.02 125.19 835.02 126.683V137.542C835.02 139.036 836.241 140.257 837.734 140.257ZM840.449 129.398H845.879V134.828H840.449V129.398Z" fill="white"/>
<path d="M837.734 161.976H848.594C850.087 161.976 851.309 160.754 851.309 159.261V148.402C851.309 146.909 850.087 145.687 848.594 145.687H837.734C836.241 145.687 835.02 146.909 835.02 148.402V159.261C835.02 160.754 836.241 161.976 837.734 161.976ZM840.449 151.117H845.879V156.546H840.449V151.117Z" fill="white"/>
<path d="M788.867 205.414H772.578C771.085 205.414 769.863 206.635 769.863 208.128V273.285C769.863 274.778 771.085 276 772.578 276H788.867C790.36 276 791.582 274.778 791.582 273.285V208.128C791.582 206.635 790.36 205.414 788.867 205.414ZM786.152 270.57H775.293V210.843H786.152V270.57Z" fill="white"/>
<path d="M759.004 224.417H742.715C741.222 224.417 740 225.639 740 227.132V273.285C740 274.778 741.222 276 742.715 276H759.004C760.497 276 761.719 274.778 761.719 273.285V227.132C761.719 225.639 760.497 224.417 759.004 224.417ZM756.289 270.57H745.43V229.847H756.289V270.57Z" fill="white"/>
<path d="M859.453 129.398H900.176C901.669 129.398 902.891 128.176 902.891 126.683C902.891 125.19 901.669 123.968 900.176 123.968H859.453C857.96 123.968 856.738 125.19 856.738 126.683C856.738 128.176 857.96 129.398 859.453 129.398Z" fill="white"/>
<path d="M859.453 140.257H878.457C879.95 140.257 881.172 139.036 881.172 137.542C881.172 136.049 879.95 134.828 878.457 134.828H859.453C857.96 134.828 856.738 136.049 856.738 137.542C856.738 139.036 857.96 140.257 859.453 140.257Z" fill="white"/>
<path d="M900.176 145.687H859.453C857.96 145.687 856.738 146.909 856.738 148.402C856.738 149.895 857.96 151.117 859.453 151.117H900.176C901.669 151.117 902.891 149.895 902.891 148.402C902.891 146.909 901.669 145.687 900.176 145.687Z" fill="white"/>
<path d="M878.457 161.976C879.95 161.976 881.172 160.754 881.172 159.261C881.172 157.768 879.95 156.546 878.457 156.546H859.453C857.96 156.546 856.738 157.768 856.738 159.261C856.738 160.754 857.96 161.976 859.453 161.976H878.457Z" fill="white"/>
<path d="M884.213 234.951C883.154 233.892 881.443 233.892 880.385 234.951L878.457 236.879L872.647 231.069C877.941 224.906 881.172 216.897 881.172 208.128C881.172 188.663 865.344 172.835 845.879 172.835C826.413 172.835 810.586 188.663 810.586 208.128C810.586 227.594 826.413 243.421 845.879 243.421C854.621 243.421 862.63 240.191 868.819 234.897L874.629 240.707L872.702 242.634C871.643 243.693 871.643 245.403 872.702 246.462L890.592 264.353C891.135 264.896 891.814 265.14 892.52 265.14C893.226 265.14 893.905 264.869 894.448 264.353L902.131 256.67C902.646 256.154 902.918 255.475 902.918 254.742C902.918 254.009 902.619 253.331 902.131 252.815L884.24 234.924L884.213 234.951ZM816.016 208.128C816.016 191.649 829.4 178.265 845.879 178.265C862.358 178.265 875.742 191.649 875.742 208.128C875.742 224.608 862.358 237.992 845.879 237.992C829.4 237.992 816.016 224.608 816.016 208.128ZM892.493 258.597L878.457 244.562L882.285 240.734L896.321 254.77L892.493 258.597Z" fill="white"/>
<path d="M845.879 205.414C851.879 205.414 856.738 200.554 856.738 194.554C856.738 188.554 851.879 183.695 845.879 183.695C839.879 183.695 835.02 188.554 835.02 194.554C835.02 200.554 839.879 205.414 845.879 205.414ZM845.879 189.125C848.865 189.125 851.309 191.568 851.309 194.554C851.309 197.541 848.865 199.984 845.879 199.984C842.893 199.984 840.449 197.541 840.449 194.554C840.449 191.568 842.893 189.125 845.879 189.125Z" fill="white"/>
<path d="M845.879 208.128C836.893 208.128 829.59 215.431 829.59 224.417V225.069C829.59 225.884 829.97 226.671 830.594 227.187C834.911 230.662 840.341 232.562 845.879 232.562C851.417 232.562 856.847 230.662 861.164 227.187C861.815 226.671 862.168 225.884 862.168 225.069V224.417C862.168 220.074 860.485 216.001 857.39 212.879C854.295 209.812 850.196 208.128 845.879 208.128ZM835.047 223.739C835.4 218.065 840.123 213.558 845.879 213.558C848.784 213.558 851.499 214.698 853.562 216.707C855.435 218.608 856.548 221.078 856.711 223.712C850.331 228.164 841.427 228.164 835.047 223.712V223.739Z" fill="white"/>
<path d="M778.008 113C767.556 113 758.054 117.262 751.185 124.104C751.185 124.104 751.185 124.104 751.158 124.104C751.131 124.104 751.158 124.131 751.158 124.131C744.29 130.999 740.054 140.501 740.054 150.954C740.054 171.912 757.104 188.961 778.062 188.961C799.021 188.961 816.07 171.912 816.07 150.954C816.07 129.995 798.967 113 778.008 113ZM810.45 148.293H780.723V118.565C796.523 119.869 809.147 132.493 810.45 148.293ZM756.995 126.14C762.018 121.878 768.343 119.136 775.293 118.565V144.465L756.995 126.167V126.14ZM778.008 183.559C760.036 183.559 745.43 168.953 745.43 150.981C745.43 142.972 748.335 135.642 753.167 129.968L776.108 152.908C776.352 153.153 776.651 153.37 776.976 153.506C777.302 153.641 777.655 153.723 778.008 153.723H810.45C809.066 170.419 795.057 183.586 778.008 183.586V183.559Z" fill="white"/>
<path d="M479.284 53.271H466.795C466.678 52.9738 466.539 52.6835 466.377 52.4024L459.407 40.3298C461.766 38.0505 463.138 34.8884 463.138 31.5652C463.138 24.849 457.674 19.3852 450.957 19.3852C449.803 19.3852 448.676 19.5463 447.588 19.8595L440.622 7.79272C438.854 4.73176 434.925 3.67868 431.864 5.44616C428.952 7.12745 427.859 10.7643 429.282 13.7504C427.507 16.0915 425.989 18.4315 424.515 20.7042C420.753 26.5053 417.504 31.515 411.147 35.1853L399.41 41.962C396.23 43.798 395.127 47.8674 396.934 51.0566C395.979 51.6701 395.161 52.4226 394.487 53.2707H377.517C371.718 53.2707 367 57.9888 367 63.7878V123.482C367 129.282 371.718 134 377.517 134H479.284C485.083 134 489.801 129.282 489.801 123.482V63.7881C489.801 57.9891 485.083 53.271 479.284 53.271ZM445.792 94.1153L484.64 59.9804C485.406 61.0558 485.859 62.3698 485.859 63.7881V123.482C485.859 124.646 485.554 125.739 485.022 126.688L445.792 94.1153ZM450.957 23.3261C455.5 23.3261 459.196 27.0221 459.196 31.565C459.196 33.4748 458.525 35.3056 457.345 36.7597L449.649 23.4286C450.078 23.3608 450.514 23.3261 450.957 23.3261ZM433.834 8.85946C435.013 8.17895 436.527 8.58437 437.208 9.76356L462.963 54.3729C463.29 54.9384 463.375 55.6036 463.203 56.2453C463.031 56.8871 462.625 57.4205 462.059 57.7471C460.88 58.4279 459.366 58.0227 458.685 56.8433L432.93 12.2336C432.249 11.0539 432.655 9.54049 433.834 8.85946ZM427.821 22.8487C428.963 21.0878 430.135 19.2856 431.418 17.4972L453.371 55.5206C451.18 55.7376 449.034 55.8514 446.938 55.9597C440.41 56.2978 434.214 56.621 427.683 59.8861L414.794 37.561C420.887 33.5374 424.264 28.3335 427.821 22.8487ZM424.087 66.4431L436.678 79.0346C436.751 79.1071 436.766 79.1925 436.766 79.2511C436.766 79.3097 436.751 79.3951 436.678 79.4678L433.331 82.8152C433.258 82.8877 433.172 82.9032 433.114 82.9032C433.055 82.9032 432.97 82.888 432.897 82.8152L419.292 69.2109L424.087 66.4431ZM401.38 45.3753L411.411 39.5839L424.239 61.8039L414.209 67.5952C413.575 67.961 412.834 68.0577 412.121 67.8664C411.409 67.6754 410.815 67.2214 410.449 66.5879L400.373 49.1346C399.614 47.8206 400.066 46.1341 401.38 45.3753ZM396.439 57.9849C396.826 56.5382 397.697 55.3128 398.908 54.4807L405.089 65.1859C403.765 65.8173 402.267 65.9552 400.819 65.5669C399.21 65.1357 397.871 64.1139 397.049 62.6893C396.225 61.2621 396.008 59.5916 396.439 57.9849ZM392.566 57.2122C391.977 59.6546 392.283 62.3173 393.635 64.6599C394.984 66.9962 397.173 68.6704 399.799 69.3738C400.68 69.6097 401.573 69.7266 402.46 69.7266C404.054 69.7266 405.625 69.3446 407.063 68.6029C407.957 70.1249 409.389 71.2148 411.101 71.6738C411.68 71.8288 412.267 71.9056 412.85 71.9056C413.848 71.9056 414.834 71.6791 415.745 71.2374L430.11 85.6024C430.912 86.4037 431.978 86.8449 433.114 86.8449C434.25 86.8449 435.316 86.4037 436.118 85.6024L439.465 82.255C440.266 81.4539 440.707 80.3874 440.707 79.2513C440.707 78.1152 440.266 77.0488 439.465 76.2477L427.62 64.4029L427.917 64.2319C434.273 60.5619 440.236 60.2529 447.141 59.8955C449.848 59.7555 452.634 59.6107 455.55 59.2442C456.411 60.4962 457.676 61.3961 459.167 61.7954C459.722 61.9442 460.285 62.018 460.844 62.018C461.953 62.018 463.047 61.7279 464.03 61.1601C465.508 60.3073 466.566 58.9239 467.01 57.2655C467.015 57.2476 467.019 57.23 467.023 57.2122H479.284C480.029 57.2122 480.746 57.3385 481.414 57.5684L428.4 104.15L375.386 57.5684C376.055 57.3388 376.771 57.2122 377.517 57.2122H392.566ZM371.778 126.688C371.246 125.739 370.941 124.646 370.941 123.482V63.7881C370.941 62.3698 371.394 61.0558 372.161 59.9804L411.009 94.1155L371.778 126.688ZM377.517 130.059C376.498 130.059 375.532 129.826 374.67 129.41L414.006 96.7493L427.1 108.254C427.332 108.458 427.601 108.599 427.883 108.675C427.996 108.706 428.111 108.726 428.227 108.737C428.284 108.742 428.342 108.744 428.401 108.744C428.459 108.744 428.517 108.742 428.574 108.737C428.69 108.726 428.805 108.706 428.918 108.675C429.2 108.599 429.469 108.458 429.701 108.254L442.795 96.7493L482.131 129.41C481.269 129.826 480.303 130.059 479.283 130.059H377.517ZM469.707 20.7399C469.163 19.7975 469.486 18.5923 470.428 18.0481L476.908 14.3074C477.85 13.7638 479.055 14.086 479.6 15.0287C480.144 15.9711 479.821 17.1763 478.878 17.7205L472.399 21.4612C472.089 21.6404 471.75 21.7255 471.416 21.7255C470.735 21.7255 470.072 21.3721 469.707 20.7399ZM455.753 8.68789L457.689 1.46113C457.971 0.410152 459.052 -0.214389 460.103 0.0677971C461.154 0.349195 461.778 1.43012 461.496 2.48136L459.56 9.70812C459.324 10.5886 458.528 11.1692 457.658 11.1692C457.489 11.1692 457.317 11.1474 457.146 11.1014C456.095 10.8201 455.471 9.73912 455.753 8.68789ZM474.187 35.0437L481.414 36.9801C482.465 37.2615 483.089 38.3424 482.807 39.3937C482.571 40.2741 481.775 40.8548 480.905 40.8548C480.736 40.8548 480.565 40.833 480.394 40.787L473.167 38.8506C472.116 38.5692 471.492 37.4883 471.773 36.437C472.055 35.3858 473.137 34.7618 474.187 35.0437Z" fill="white"/>
<path d="M198.855 579.5C198.855 552.634 220.634 530.855 247.5 530.855C274.366 530.855 296.145 552.634 296.145 579.5C296.145 606.366 274.366 628.146 247.5 628.146C220.634 628.146 198.855 606.366 198.855 579.5ZM202.452 579.5C202.452 604.38 222.621 624.549 247.5 624.549C272.38 624.549 292.548 604.38 292.548 579.5C292.548 554.621 272.38 534.452 247.5 534.452C222.621 534.452 202.452 554.621 202.452 579.5Z" fill="#E1F5FB" stroke="white" stroke-width="4"/>
<path d="M310.464 568.886L310.177 567.393C308.52 558.764 305.138 550.75 300.386 543.736L299.533 542.477L300.517 541.319L306.282 534.537C307.252 533.395 307.262 531.726 306.316 530.587L310.464 568.886ZM310.464 568.886L311.98 569.009L320.86 569.729L321.021 567.735M310.464 568.886L321.021 567.735M321.021 567.735L320.86 569.729C322.352 569.85 323.54 571.024 323.676 572.498C323.889 574.805 324 577.14 324 579.5C324 581.86 323.889 584.195 323.676 586.502C323.54 587.976 322.353 589.15 320.86 589.271L311.98 589.991L310.464 590.114L310.177 591.608C308.52 600.237 305.138 608.25 300.386 615.264L299.533 616.523L300.517 617.681L306.282 624.464L306.283 624.464C307.253 625.605 307.262 627.275 306.316 628.413C304.835 630.195 303.263 631.925 301.594 633.594C299.925 635.263 298.196 636.835 296.414 638.315C295.275 639.262 293.605 639.252 292.464 638.282L285.681 632.517L284.523 631.532L283.264 632.385C276.25 637.138 268.237 640.52 259.608 642.177L258.114 642.464L257.991 643.979L257.271 652.859L257.271 652.86C257.15 654.352 255.976 655.54 254.502 655.676C252.195 655.888 249.86 656 247.5 656C245.14 656 242.805 655.889 240.498 655.676L240.498 655.676C239.024 655.54 237.85 654.352 237.729 652.86L237.009 643.979L236.886 642.464L235.393 642.177C226.764 640.52 218.75 637.138 211.736 632.385L210.477 631.532L209.319 632.517L202.536 638.282L202.536 638.282C201.395 639.252 199.725 639.262 198.587 638.316L198.587 638.316C196.805 636.835 195.076 635.263 193.407 633.594L193.407 633.594C191.737 631.925 190.166 630.195 188.684 628.414L321.021 567.735ZM284.523 527.468L283.264 526.615C276.25 521.862 268.237 518.481 259.608 516.823L258.114 516.537L257.991 515.021L257.271 506.141L257.271 506.141C257.15 504.648 255.976 503.46 254.502 503.325L254.502 503.324C252.195 503.111 249.86 503 247.5 503C245.14 503 242.805 503.111 240.498 503.324L284.523 527.468ZM284.523 527.468L285.681 526.483M284.523 527.468L285.681 526.483M285.681 526.483L292.464 520.718C292.464 520.718 292.464 520.718 292.464 520.718C293.605 519.748 295.275 519.739 296.414 520.685C298.195 522.165 299.925 523.738 301.594 525.407L285.681 526.483ZM236.886 516.536L235.393 516.823C226.764 518.48 218.75 521.862 211.736 526.614L210.477 527.467L209.319 526.483L202.536 520.717L203.832 519.193L202.536 520.717C201.395 519.747 199.725 519.738 198.587 520.684C196.805 522.164 195.076 523.737 193.407 525.406C191.738 527.075 190.166 528.804 188.684 530.586C187.738 531.724 187.748 533.394 188.718 534.536C188.718 534.536 188.718 534.536 188.718 534.536L194.483 541.318L195.468 542.477L194.615 543.735C189.862 550.749 186.48 558.763 184.823 567.392L184.536 568.885L183.021 569.008L174.141 569.728C174.141 569.728 174.14 569.728 174.14 569.728C172.648 569.849 171.46 571.023 171.324 572.497L236.886 516.536ZM236.886 516.536L237.009 515.02M236.886 516.536L237.009 515.02M237.009 515.02L237.729 506.14C237.85 504.648 239.024 503.46 240.498 503.324L237.009 515.02ZM184.536 590.114L184.823 591.608C186.48 600.237 189.862 608.25 194.615 615.264L195.468 616.523L194.483 617.681L188.718 624.464L188.718 624.464C187.748 625.605 187.738 627.275 188.684 628.413L184.536 590.114ZM184.536 590.114L183.021 589.991M184.536 590.114L183.021 589.991M183.021 589.991L174.141 589.271C172.647 589.15 171.46 587.976 171.324 586.502L183.021 589.991ZM301.594 525.407C303.263 527.076 304.835 528.805 306.316 530.587L301.594 525.407ZM171 579.5C171 577.14 171.111 574.805 171.324 572.498L171.324 586.502C171.111 584.195 171 581.86 171 579.5ZM194.855 579.5C194.855 608.575 218.425 632.145 247.5 632.145C276.575 632.145 300.145 608.575 300.145 579.5C300.145 550.425 276.575 526.855 247.5 526.855C218.425 526.855 194.855 550.425 194.855 579.5Z" fill="#D0E8FF" stroke="white" stroke-width="4"/>
<path d="M310.209 567.559L310.464 568.886L311.98 569.009L320.86 569.729L320.86 569.729C322.352 569.85 323.54 571.024 323.676 572.498C323.676 572.498 323.676 572.498 323.676 572.498L325.668 572.315L310.209 567.559ZM310.209 567.559C310.253 568.579 310.275 569.606 310.275 570.637C310.275 610.201 278.202 642.275 238.637 642.275C237.606 642.275 236.579 642.253 235.559 642.209M310.209 567.559L235.559 642.209M235.559 642.209C235.502 642.207 235.445 642.204 235.388 642.202C231.045 642.007 226.803 641.422 222.694 640.485C226.626 642.088 230.746 643.322 235.016 644.142L235.736 653.022C235.934 655.475 237.864 657.442 240.314 657.668C242.681 657.886 245.077 658 247.5 658C249.923 658 252.319 657.886 254.686 657.668L254.502 655.676C254.502 655.676 254.502 655.676 254.502 655.676C255.976 655.54 257.15 654.353 257.271 652.86L257.271 652.86L257.991 643.98L258.114 642.464L259.608 642.177C268.237 640.52 276.25 637.139 283.264 632.386L284.523 631.533L285.682 632.518L292.464 638.283C293.605 639.253 295.275 639.262 296.414 638.316C298.196 636.836 299.925 635.263 301.594 633.594C303.263 631.925 304.835 630.195 306.316 628.414C307.262 627.276 307.253 625.606 306.283 624.465L306.283 624.465L300.517 617.682L299.533 616.523L300.386 615.265C305.138 608.251 308.52 600.237 310.177 591.608L310.464 590.115L311.98 589.992L320.86 589.272C320.86 589.272 320.86 589.272 320.86 589.272C322.353 589.151 323.54 587.976 323.676 586.503L223.299 638.571C227.155 640.155 231.2 641.372 235.393 642.177L235.559 642.209Z" fill="#D0E8FF" stroke="white" stroke-width="4"/>
<path d="M259.985 514.859L259.264 505.979C259.066 503.526 257.136 501.558 254.685 501.332C252.319 501.114 249.923 501 247.5 501C245.077 501 242.681 501.114 240.314 501.332C237.864 501.558 235.934 503.526 235.735 505.979L235.016 514.859C226.116 516.568 217.849 520.056 210.614 524.959L203.832 519.193C201.957 517.6 199.201 517.573 197.308 519.146C195.481 520.664 193.706 522.278 191.992 523.991C190.279 525.705 188.665 527.48 187.146 529.308C185.573 531.2 185.6 533.956 187.194 535.831L192.959 542.614C188.056 549.849 184.568 558.115 182.859 567.015L173.979 567.735C171.526 567.934 169.559 569.863 169.332 572.314C169.114 574.68 169 577.077 169 579.5C169 581.923 169.114 584.319 169.332 586.686C169.558 589.136 171.526 591.066 173.979 591.265L182.859 591.985C184.568 600.885 188.056 609.151 192.959 616.386L187.194 623.169C185.6 625.044 185.573 627.799 187.146 629.692C188.665 631.519 190.279 633.294 191.992 635.008C193.706 636.721 195.481 638.335 197.308 639.854C199.201 641.427 201.957 641.4 203.832 639.806L210.614 634.041C217.849 638.944 226.116 642.432 235.016 644.141L235.735 653.021C235.934 655.474 237.864 657.441 240.314 657.667C242.681 657.886 245.077 658 247.5 658C249.923 658 252.319 657.885 254.686 657.667C257.136 657.441 259.066 655.474 259.265 653.021L259.985 644.141C268.885 642.432 277.151 638.944 284.386 634.041L291.169 639.806C293.044 641.4 295.799 641.427 297.692 639.854C299.519 638.335 301.294 636.721 303.008 635.008C304.721 633.294 306.335 631.519 307.854 629.692C309.427 627.799 309.4 625.044 307.806 623.169L302.041 616.386C306.944 609.151 310.432 600.885 312.141 591.985L321.021 591.265C323.474 591.066 325.442 589.136 325.668 586.686C325.886 584.319 326 581.923 326 579.5C326 577.077 325.886 574.68 325.668 572.314C325.442 569.864 323.474 567.934 321.021 567.735L312.141 567.016C310.432 558.116 306.944 549.849 302.041 542.614L307.806 535.832C309.4 533.957 309.427 531.201 307.854 529.309C306.335 527.481 304.722 525.706 303.008 523.992C301.294 522.279 299.519 520.665 297.692 519.147C295.799 517.574 293.044 517.601 291.169 519.194L284.386 524.959C279.85 521.885 274.908 519.367 269.659 517.496" stroke="white" stroke-width="4" stroke-miterlimit="10" stroke-linecap="round" stroke-linejoin="round"/>
<path d="M209.427 612.899C201.6 603.983 196.855 592.296 196.855 579.5C196.855 551.53 219.529 528.855 247.5 528.855C275.471 528.855 298.145 551.53 298.145 579.5C298.145 607.471 275.471 630.146 247.5 630.146C235.789 630.146 225.007 626.171 216.429 619.497" stroke="white" stroke-width="4" stroke-miterlimit="10" stroke-linecap="round" stroke-linejoin="round"/>
<path d="M237.056 591.631L241.382 567.664C241.49 567.102 242.273 567.05 242.455 567.592L249.493 591.444C249.663 591.952 250.383 591.948 250.548 591.439L257.345 567.595C257.522 567.052 258.305 567.096 258.419 567.656L263.001 591.631" stroke="white" stroke-width="4" stroke-miterlimit="10" stroke-linecap="round" stroke-linejoin="round"/>
<path d="M282.91 567.324H272.634V591.711H282.91" stroke="white" stroke-width="4" stroke-miterlimit="10" stroke-linecap="round" stroke-linejoin="round"/>
<path d="M282.152 579.518H272.634" stroke="white" stroke-width="4" stroke-miterlimit="10" stroke-linecap="round" stroke-linejoin="round"/>
<path d="M227.301 569.742C227.301 569.742 222.885 566.029 217.677 567.598C212.895 569.039 212.226 574.553 215.686 576.808C215.686 576.808 219.081 578.322 222.846 579.711C231.91 583.055 228.006 591.824 220.709 591.824C217.055 591.824 213.988 590.224 212.132 588.175" stroke="white" stroke-width="4" stroke-miterlimit="10" stroke-linecap="round" stroke-linejoin="round"/>
<path d="M678.084 73.0422C681.315 73.0422 683.94 70.4086 683.94 67.1745C683.94 63.9404 681.312 61.3068 678.084 61.3068C674.857 61.3068 672.229 63.9404 672.229 67.1745C672.229 70.4086 674.857 73.0422 678.084 73.0422ZM678.084 66.0628C678.695 66.0628 679.191 66.5592 679.191 67.1715C679.191 67.7839 678.695 68.2803 678.084 68.2803C677.473 68.2803 676.978 67.7839 676.978 67.1715C676.978 66.5592 677.476 66.0628 678.084 66.0628ZM663.587 46.8514H697.206C700.338 46.8514 702.887 44.2981 702.887 41.1591V16.6924C702.887 13.5534 700.338 11 697.206 11H663.587C660.455 11 657.907 13.5534 657.907 16.6924V26.5462H637.504C636.193 26.5462 635.128 27.6104 635.128 28.9272V71.122H596.985C596.742 68.9164 596.546 66.5384 596.407 63.9404C598.394 62.5047 599.694 60.1653 599.694 57.5257V55.1864C603.826 53.5753 606.766 49.5505 606.766 44.845V25.2175C606.766 22.6612 604.686 20.5804 602.129 20.5804H597.327C594.77 20.5804 592.69 22.6612 592.69 25.2175V32.3248H588.125V25.2175C588.125 22.6612 586.048 20.5804 583.497 20.5804H578.686C576.134 20.5804 574.058 22.6612 574.058 25.2175V32.3248H569.49V25.2175C569.49 22.6612 567.41 20.5804 564.853 20.5804H560.051C557.493 20.5804 555.414 22.6612 555.414 25.2175V44.842C555.414 49.5445 558.354 53.5693 562.486 55.1804V57.5228C562.486 60.1623 563.785 62.5017 565.773 63.9374C565.185 74.9863 563.521 82.0311 561.91 88.853C560.673 94.0906 559.499 99.0666 558.947 105.356C554.379 106.572 551 110.749 551 115.704V121.316C551 124.125 553.281 126.408 556.084 126.408H606.098C608.902 126.408 611.183 124.122 611.183 121.316V115.704C611.183 110.749 607.807 106.572 603.236 105.356C602.684 99.0576 601.509 94.0787 600.269 88.8352C599.326 84.8461 598.365 80.7767 597.611 75.878H635.131V118.064C635.131 119.378 636.196 120.445 637.507 120.445H657.91V130.308C657.91 133.447 660.458 136 663.59 136H697.209C700.341 136 702.89 133.447 702.89 130.308V105.829C702.89 102.69 700.341 100.137 697.209 100.137H663.587C660.455 100.137 657.907 102.69 657.907 105.829V115.683H639.88V75.881H657.907V85.7348C657.907 88.8738 660.455 91.4272 663.587 91.4272H697.206C700.338 91.4272 702.887 88.8738 702.887 85.7348V61.2562C702.887 58.1173 700.338 55.5639 697.206 55.5639H663.587C660.455 55.5639 657.907 58.1173 657.907 61.2562V71.119H639.88V31.3052H657.907V41.1591C657.91 44.2981 660.458 46.8514 663.587 46.8514ZM594.945 55.9354V57.5228C594.945 59.2528 593.544 60.6617 591.821 60.6617H570.362C568.638 60.6617 567.238 59.2528 567.238 57.5228V55.9354H594.945ZM591.735 65.4237C592.405 76.2228 594.12 83.4787 595.648 89.935C596.793 94.7743 597.881 99.3816 598.433 105H563.75C564.304 99.3906 565.39 94.7861 566.535 89.9499C568.063 83.4906 569.777 76.2288 570.448 65.4237H591.735ZM560.166 44.842V25.3424H564.74V32.4496C564.74 35.006 566.817 37.0867 569.368 37.0867H574.177C576.728 37.0867 578.804 35.006 578.804 32.4496V25.3424H583.37V32.4496C583.37 35.006 585.446 37.0867 587.997 37.0867H592.806C595.357 37.0867 597.433 35.006 597.433 32.4496V25.3424H602.008V44.845C602.008 48.3377 599.172 51.1764 595.689 51.1764H566.494C563.005 51.1764 560.166 48.3347 560.166 44.842ZM606.43 115.707V121.319C606.43 121.497 606.276 121.652 606.098 121.652H556.081C555.903 121.652 555.749 121.497 555.749 121.319V115.707C555.749 112.428 558.41 109.762 561.682 109.762H600.498C603.77 109.762 606.43 112.428 606.43 115.707ZM662.659 105.829C662.659 105.324 663.083 104.899 663.587 104.899H697.206C697.71 104.899 698.134 105.324 698.134 105.829V130.308C698.134 130.813 697.71 131.238 697.206 131.238H663.587C663.083 131.238 662.659 130.813 662.659 130.308V105.829ZM664.175 86.6652L669.989 78.5235L675.812 86.6652H664.175ZM697.206 86.6652H681.656L681.131 85.931L689.882 73.7021L698.001 85.0631C698.045 85.1225 698.09 85.179 698.137 85.2355V85.7348C698.137 86.2402 697.71 86.6652 697.206 86.6652ZM662.659 61.2562C662.659 60.7509 663.083 60.3258 663.587 60.3258H697.206C697.71 60.3258 698.134 60.7509 698.134 61.2562V77.0759L691.813 68.2297C691.368 67.6055 690.647 67.2369 689.882 67.2339C689.116 67.2339 688.399 67.6025 687.951 68.2268L678.209 81.8438L671.917 73.0482C671.472 72.4239 670.751 72.0554 669.986 72.0554C669.221 72.0554 668.5 72.4269 668.055 73.0512L662.659 80.6073V61.2562ZM662.659 16.6924C662.659 16.187 663.083 15.762 663.587 15.762H697.206C697.71 15.762 698.134 16.187 698.134 16.6924V41.1621C698.134 41.6763 697.716 42.0925 697.206 42.0925H663.587C663.074 42.0925 662.659 41.6733 662.659 41.1621V16.6924ZM668.805 23.9304C668.805 22.6166 669.867 21.5494 671.181 21.5494H689.606C690.917 21.5494 691.982 22.6136 691.982 23.9304C691.982 25.2472 690.92 26.3114 689.606 26.3114H671.181C669.87 26.3114 668.805 25.2443 668.805 23.9304ZM668.805 33.924C668.805 32.6101 669.867 31.543 671.181 31.543H689.606C690.917 31.543 691.982 32.6072 691.982 33.924C691.982 35.2408 690.92 36.305 689.606 36.305H671.181C669.87 36.302 668.805 35.2378 668.805 33.924ZM673.181 127.103C673.549 127.314 673.958 127.421 674.367 127.421C674.777 127.421 675.189 127.314 675.557 127.103L687.607 120.127C688.342 119.702 688.793 118.914 688.793 118.064C688.793 117.214 688.339 116.429 687.604 116.004L675.554 109.036C674.818 108.611 673.914 108.611 673.178 109.036C672.442 109.461 671.991 110.246 671.991 111.096V125.04C671.994 125.893 672.445 126.678 673.181 127.103ZM676.744 115.219L681.668 118.067L676.744 120.917V115.219Z" fill="white"/>
<path d="M65.5688 444.804C68.9202 449.743 70.8781 455.702 70.8781 462.117C70.8781 479.182 57.0238 493.017 39.9338 493.017C22.8438 493.017 8.9895 479.182 8.9895 462.117C8.9895 445.051 22.8438 431.217 39.9338 431.217C42.9398 431.217 45.8456 431.645 48.5938 432.443" fill="#D0E8FF"/>
<path d="M27.2563 389.72C40.9083 389.72 51.9755 378.668 51.9755 365.036C51.9755 351.403 40.9083 340.352 27.2563 340.352C13.6043 340.352 2.53711 351.403 2.53711 365.036C2.53711 378.668 13.6043 389.72 27.2563 389.72Z" fill="#D5EBFF"/>
<path d="M27.3088 376.799C35.2293 372.56 39.3267 368.966 39.302 363.426C39.2678 355.785 29.8851 353.916 27.2323 359.659C24.1452 353.751 15.1627 355.892 15.1969 363.533C15.2216 369.073 19.3508 372.631 27.3088 376.799Z" fill="#D0E8FF"/>
<path d="M135 494.684C145.226 494.684 153.516 486.405 153.516 476.194C153.516 465.982 145.226 457.704 135 457.704C124.773 457.704 116.483 465.982 116.483 476.194C116.483 486.405 124.773 494.684 135 494.684Z" fill="#D5EBFF"/>
<path d="M125.505 434.215C125.505 440.066 120.765 444.809 114.918 444.809H108.193L92.073 457.969V444.809H60.7697C54.9225 444.809 50.1826 440.066 50.1826 434.215V396.359C50.1826 390.508 54.9225 385.765 60.7697 385.765H125.505V434.215Z" fill="#D5EBFF"/>
<path d="M111.301 385.765V434.215C111.301 440.066 106.561 444.809 100.714 444.809H92.0728V457.969L108.193 444.809H114.918C120.765 444.809 125.505 440.066 125.505 434.215V385.765H111.301Z" fill="#D5EBFF"/>
<path d="M134.429 398.502C154.33 398.502 170.463 382.392 170.463 362.52C170.463 342.647 154.33 326.538 134.429 326.538C114.528 326.538 98.3945 342.647 98.3945 362.52C98.3945 382.392 114.528 398.502 134.429 398.502Z" fill="#D0E8FF"/>
<path d="M124.955 376.27L126.222 377.294C128.231 378.918 130.738 379.804 133.323 379.804H151.311C153.016 379.804 154.39 378.383 154.308 376.663C154.232 375.052 154.312 360.375 154.312 358.72C154.312 357.065 152.968 355.724 151.311 355.724H139.113L140.606 352.155C142.158 348.485 141.907 344.302 139.928 340.843C138.87 339.087 136.293 339.859 136.198 341.832C136.198 344.999 135.04 348.058 132.941 350.433L125.163 359.222H121.236V376.27L124.955 376.27Z" fill="#D5EBFF"/>
<path d="M114.545 356.103H124.724V378.972H114.545V356.103Z" fill="#D5EBFF"/>
<path d="M54.613 459.808C57.8785 459.808 57.8839 454.733 54.613 454.733H48.5821L49.7178 447.873C50.251 444.652 45.2452 443.818 44.711 447.044L43.4382 454.733H38.8749L40.0107 447.873C40.5439 444.652 35.5381 443.818 35.0039 447.045L33.7311 454.734H25.2551C21.9896 454.734 21.9842 459.808 25.2551 459.808H32.891L32.1264 464.426H25.2551C21.9896 464.426 21.9842 469.501 25.2551 469.501H31.2864L30.1506 476.361C29.6178 479.581 34.6199 480.436 35.1575 477.19L36.4302 469.501H40.9935L39.8578 476.361C39.3249 479.58 44.327 480.435 44.8646 477.189L46.1374 469.501H54.6133C57.8788 469.501 57.8843 464.426 54.6133 464.426H46.9774L47.742 459.808H54.613ZM41.8336 464.426H37.2703L38.0349 459.808H42.5982L41.8336 464.426Z" fill="white"/>
<path d="M27.2552 392.257C27.2954 392.257 27.3377 392.257 27.378 392.257C34.6577 392.224 41.4894 389.363 46.6143 384.2C51.7402 379.035 54.5453 372.186 54.5131 364.915C54.4465 349.945 42.233 337.814 27.2589 337.814C27.2186 337.814 27.1757 337.815 27.1354 337.815C19.8557 337.847 13.024 340.708 7.89909 345.872C2.77283 351.036 -0.0322 357.885 0.000278919 365.157C0.0665901 380.126 12.2807 392.257 27.2552 392.257ZM11.5005 349.447C15.6717 345.245 21.232 342.916 27.1577 342.89C27.1916 342.889 27.2247 342.889 27.2582 342.889C39.4432 342.889 49.3835 352.759 49.4379 364.937C49.4643 370.852 47.1824 376.423 43.0122 380.624C38.841 384.827 33.2807 387.156 27.3553 387.182C27.3218 387.182 27.289 387.182 27.2555 387.182C15.0702 387.182 5.12924 377.312 5.07511 365.134C5.04838 359.219 7.33071 353.648 11.5005 349.447Z" fill="white"/>
<path d="M26.1319 379.047C26.8701 379.433 27.771 379.429 28.5059 379.036C36.5319 374.742 41.8706 370.442 41.8395 363.416C41.8155 357.992 38.1393 354.767 34.507 353.977C31.7737 353.383 29.1308 354.037 27.1841 355.647C25.125 353.968 22.3941 353.314 19.6567 353.993C16.1564 354.861 12.6359 358.151 12.6595 363.545C12.6744 366.905 13.9151 369.816 16.4525 372.444C18.5244 374.59 21.5097 376.626 26.1319 379.047ZM20.8777 358.919C22.5714 358.497 24.1879 359.312 24.9836 360.835C25.9394 362.664 28.6717 362.596 29.5361 360.724C30.3518 358.959 32.0813 358.644 33.4285 358.936C35.0331 359.285 36.7521 360.651 36.7643 363.438C36.7812 367.226 34.2756 370.04 27.2957 373.917C20.2819 370.102 17.751 367.311 17.734 363.523C17.7219 360.706 19.3499 359.298 20.8777 358.919Z" fill="white"/>
<path d="M135 455.166C123.391 455.166 113.946 464.599 113.946 476.193C113.946 487.787 123.391 497.221 135 497.221C146.609 497.221 156.054 487.788 156.054 476.193C156.054 464.599 146.609 455.166 135 455.166ZM135 492.146C126.189 492.146 119.021 484.99 119.021 476.193C119.021 467.397 126.189 460.241 135 460.241C143.81 460.241 150.979 467.397 150.979 476.193C150.979 484.99 143.81 492.146 135 492.146Z" fill="white"/>
<path d="M142.851 473.656H137.537V468.353C137.537 465.088 132.462 465.083 132.462 468.353V473.656H127.148C123.883 473.656 123.878 478.731 127.148 478.731H132.462V484.034C132.462 487.3 137.537 487.305 137.537 484.034V478.731H142.851C146.117 478.731 146.122 473.656 142.851 473.656Z" fill="white"/>
<path d="M134.428 324C130.99 324 127.581 324.452 124.293 325.344C121.134 326.201 122.464 331.102 125.622 330.242C128.477 329.467 131.439 329.075 134.428 329.075C152.898 329.075 167.925 344.078 167.925 362.52C167.925 380.961 152.898 395.965 134.428 395.965C115.958 395.965 100.932 380.961 100.932 362.52C100.932 351.917 106.048 341.835 114.617 335.548C117.257 333.612 114.254 329.519 111.616 331.456C101.748 338.695 95.857 350.307 95.857 362.519C95.857 370.136 98.0825 377.243 101.918 383.227H60.7696C53.5329 383.227 47.6454 389.118 47.6454 396.358V429.576C45.1293 428.984 42.5435 428.679 39.9343 428.679C21.4724 428.679 6.45264 443.679 6.45264 462.116C6.45264 480.554 21.4724 495.554 39.9343 495.554C45.3225 495.554 50.6784 494.245 55.4234 491.768C58.3252 490.254 55.9759 485.753 53.0751 487.269C48.995 489.399 44.5738 490.479 39.9347 490.479C24.271 490.479 11.5278 477.756 11.5278 462.116C11.5278 446.477 24.271 433.754 39.9347 433.754C42.5621 433.754 45.1597 434.114 47.6613 434.818C47.9783 441.779 53.7362 447.345 60.7703 447.345H64.186C66.9064 451.786 68.3412 456.864 68.3412 462.116C68.3412 468.934 65.883 475.524 61.4195 480.672C59.2823 483.136 63.0955 486.485 65.2537 483.996C70.5173 477.926 73.4161 470.156 73.4161 462.116C73.4161 456.944 72.2333 451.915 69.9753 447.345H89.5358V457.967C89.5358 460.063 92.0451 461.266 93.6778 459.933L109.098 447.345H114.918C122.155 447.345 128.042 441.454 128.042 434.214V400.508C130.12 400.855 132.253 401.039 134.428 401.039C155.697 401.039 173 383.759 173 362.519C173 341.279 155.697 324 134.428 324ZM122.967 434.215C122.967 438.657 119.356 442.271 114.918 442.271H108.193C107.608 442.271 107.041 442.473 106.588 442.843L94.6103 452.621V444.808C94.6103 443.407 93.4742 442.271 92.0728 442.271H60.7696C56.3311 442.271 52.7202 438.657 52.7202 434.215V396.359C52.7202 391.916 56.3311 388.303 60.7696 388.303H105.797C110.378 393.371 116.285 397.223 122.967 399.304V434.215H122.967Z" fill="white"/>
<path d="M133.661 341.832C133.661 344.382 132.73 346.84 131.041 348.751L126.296 354.113C125.863 353.771 125.318 353.565 124.724 353.565H114.545C113.144 353.565 112.008 354.701 112.008 356.103V378.972C112.008 380.374 113.144 381.51 114.545 381.51H124.724C125.494 381.51 126.184 381.165 126.649 380.622C128.683 381.74 130.984 382.341 133.323 382.341H151.311C154.42 382.341 156.989 379.646 156.843 376.543C156.787 375.348 156.849 359.082 156.849 358.72C156.849 355.668 154.365 353.186 151.319 353.186H142.936H142.943C144.792 348.815 144.555 343.663 142.13 339.582C139.506 335.165 133.661 337.314 133.661 341.832ZM122.186 376.435H117.082V358.64H122.186V376.435ZM151.311 358.261C151.567 358.261 151.774 358.467 151.774 358.72C151.774 359.079 151.716 375.559 151.774 376.782C151.759 377.076 151.604 377.238 151.311 377.267H133.323C131.019 377.267 128.989 376.329 127.261 374.871V360.679L134.843 352.112C136.861 349.828 138.15 347.021 138.578 344.039C139.828 347.934 138.252 351.207 136.776 354.699C136.089 356.323 137.332 358.255 139.105 358.261L151.311 358.261Z" fill="white"/>
<path d="M100.847 408.183C100.847 409.585 101.983 410.72 103.384 410.72H109.943C113.217 410.72 113.217 405.646 109.943 405.646H103.384C101.983 405.646 100.847 406.782 100.847 408.183Z" fill="white"/>
<path d="M65.7442 410.72H88.788C92.0613 410.72 92.0613 405.646 88.788 405.646H65.7442C62.4713 405.646 62.4713 410.72 65.7442 410.72Z" fill="white"/>
<path d="M72.3036 421.465H65.7442C62.4713 421.465 62.4713 426.54 65.7442 426.54H72.3036C75.5766 426.54 75.5766 421.465 72.3036 421.465Z" fill="white"/>
<path d="M109.944 421.465H86.8998C83.6268 421.465 83.6268 426.54 86.8998 426.54H109.944C113.216 426.54 113.216 421.465 109.944 421.465Z" fill="white"/>
<path d="M203.613 114.774V100.758V88.5512V79.0967C203.613 77.6951 204.76 76.5483 206.161 76.5483H272.419C273.821 76.5483 274.968 77.6951 274.968 79.0967V114.774C274.968 116.176 273.821 117.323 272.419 117.323H262.226H234.194L225.045 126.471C224.382 127.134 223.465 127.516 222.497 127.516C220.509 127.516 218.903 125.911 218.903 123.923V117.323H206.161C204.76 117.323 203.613 116.176 203.613 114.774Z" fill="#D0E8FF"/>
<path d="M254.581 199.992V213.015C252.822 213.117 251.064 213.524 249.356 214.212C243.266 216.735 239.29 222.673 239.29 229.273V229.452H208.71V229.273C208.71 225.986 207.716 222.826 205.957 220.227C204.199 217.576 201.676 215.487 198.643 214.212C192.553 211.689 185.545 213.091 180.881 217.755L180.754 217.882L159.118 196.246L159.245 196.119C162.354 193.01 164.036 188.83 164.036 184.575C164.036 182.485 163.629 180.37 162.788 178.357C160.265 172.266 154.327 168.29 147.727 168.29H147.548V137.71H147.727C151.014 137.71 154.174 136.716 156.773 134.958C159.424 133.199 161.513 130.676 162.788 127.644C165.311 121.553 163.909 114.545 159.245 109.881L159.118 109.754L180.754 88.1182L180.881 88.2456C183.99 91.3546 188.17 93.0366 192.425 93.0366C194.515 93.0366 196.63 92.6288 198.643 91.7878C200.504 90.9978 202.186 89.902 203.613 88.5514V100.758C182.742 108.913 167.935 129.224 167.935 153C167.935 160.187 169.286 167.067 171.758 173.387C179.913 194.258 200.223 209.065 224 209.065C235.289 209.065 245.789 205.726 254.581 199.992Z" fill="#D0E8FF"/>
<path d="M254.581 193.01V199.992C245.789 205.726 235.289 209.065 224 209.065C200.224 209.065 179.913 194.258 171.758 173.387C190.642 173.234 208.71 167.653 224.076 157.791C225.07 175.273 237.838 189.595 254.581 193.01Z" fill="#D0E8FF"/>
<path d="M254.581 193.01C257.053 193.519 259.601 193.774 262.226 193.774C264.851 193.774 267.399 193.519 269.871 193.01V224.355C269.871 227.158 267.577 229.452 264.774 229.452H259.677C256.874 229.452 254.581 227.158 254.581 224.355V213.015V199.992V193.01Z" fill="#D0E8FF"/>
<path d="M262.226 117.323C283.326 117.323 300.452 134.448 300.452 155.549C300.452 174.024 287.327 189.468 269.871 193.01C267.399 193.52 264.851 193.774 262.226 193.774C259.601 193.774 257.053 193.52 254.581 193.01C237.838 189.595 225.07 175.273 224.076 157.791C224.025 157.052 224 156.313 224 155.549C224 134.448 241.125 117.323 262.226 117.323Z" fill="#D0E8FF"/>
<path d="M262.226 183.581C277.708 183.581 290.258 171.03 290.258 155.548C290.258 140.067 277.708 127.516 262.226 127.516C246.744 127.516 234.194 140.067 234.194 155.548C234.194 171.03 246.744 183.581 262.226 183.581Z" fill="#D0E8FF"/>
<path d="M226.548 94.3869H216.355V89.2901H226.548V84.1934H211.258V99.4837H221.452V104.58H211.258V109.677H226.548V94.3869Z" fill="white"/>
<path d="M246.936 104.58H236.742V99.4837H246.936V94.3869H236.742V89.2901H246.936V84.1934H231.645V109.677H246.936V104.58Z" fill="white"/>
<path d="M267.323 84.1934H252.032V109.677H267.323V84.1934ZM262.226 104.58H257.129V89.2901H262.226V104.58Z" fill="white"/>
<path d="M262.226 124.968C245.363 124.968 231.645 138.686 231.645 155.548C231.645 172.411 245.363 186.129 262.226 186.129C279.089 186.129 292.807 172.411 292.807 155.548C292.807 138.686 279.089 124.968 262.226 124.968ZM262.226 181.032C248.174 181.032 236.742 169.6 236.742 155.548C236.742 141.497 248.174 130.065 262.226 130.065C276.278 130.065 287.71 141.497 287.71 155.548C287.71 169.6 276.278 181.032 262.226 181.032Z" fill="white"/>
<path d="M303 155.548C303 138.176 292.057 123.347 276.718 117.483C277.218 116.698 277.516 115.773 277.516 114.774V79.0968C277.516 76.2859 275.23 74 272.419 74H206.161C203.35 74 201.065 76.2859 201.065 79.0968V87.3383C200.027 88.1843 198.909 88.9157 197.662 89.433C192.507 91.566 186.623 90.3963 182.545 86.3164L180.744 84.535L157.327 107.95L155.645 109.871L157.446 111.673C161.394 115.62 162.566 121.504 160.433 126.662C158.295 131.823 153.305 135.161 147.548 135.161H145V168.29L145.168 170.839H147.717C153.303 170.839 158.295 174.177 160.43 179.338C162.563 184.493 161.391 190.38 157.334 194.437L155.515 196.238L178.95 219.673L180.871 221.355L182.675 219.554C186.62 215.604 192.507 214.434 197.66 216.567C202.825 218.703 206.161 223.692 206.161 229.452V232H239.29L241.839 231.832V229.283C241.839 223.695 245.175 218.705 250.338 216.57C250.888 216.34 251.459 216.18 252.032 216.027V224.355C252.032 228.57 255.462 232 259.677 232H264.774C268.989 232 272.419 228.57 272.419 224.355V194.98C289.975 190.436 303 174.506 303 155.548ZM206.161 79.0968H272.419V114.774H233.139L223.256 124.657C222.644 125.274 221.452 124.774 221.452 123.913V114.774H206.161V79.0968ZM216.355 119.871V123.913C216.355 127.305 219.115 130.065 222.507 130.065C224.125 130.065 225.71 129.407 226.857 128.263L235.249 119.871H242.529C229.976 126.831 221.452 140.207 221.452 155.548C221.452 155.826 221.487 156.094 221.492 156.369C207.053 165.344 190.56 170.288 173.575 170.757C171.61 165.189 170.484 159.231 170.484 153C170.484 132.06 182.37 113.472 201.065 104.642V114.774C201.065 117.585 203.35 119.871 206.161 119.871H216.355ZM252.032 198.56C250.376 199.582 248.681 200.52 246.935 201.348V193.321C248.582 193.988 250.289 194.529 252.032 194.98V198.56ZM241.839 203.44C240.167 204.031 238.467 204.536 236.742 204.957V187.327C238.345 188.614 240.052 189.768 241.839 190.805V203.44ZM231.645 205.971C229.961 206.213 228.258 206.345 226.548 206.427V175.245C227.981 177.831 229.706 180.224 231.645 182.429V205.971ZM175.639 175.765C177.324 175.686 179.006 175.581 180.677 175.418V184.292C178.743 181.623 177.061 178.772 175.639 175.765ZM185.774 174.835C187.484 174.58 189.179 174.238 190.871 173.897V194.946C189.079 193.527 187.372 192.013 185.774 190.38V174.835ZM195.968 172.722C197.678 172.284 199.38 171.822 201.065 171.295V201.279C199.311 200.443 197.611 199.516 195.968 198.501V172.722ZM206.161 169.58C207.881 168.938 209.574 168.214 211.258 167.477V204.918C209.523 204.493 207.825 203.983 206.161 203.392V169.58ZM216.355 165.067C218.078 164.198 219.777 163.283 221.452 162.314V206.386C219.729 206.305 218.032 206.147 216.355 205.905V165.067ZM248.391 211.86C242.094 214.462 237.782 220.163 236.905 226.903H211.11C210.272 220.232 205.945 214.477 199.609 211.86C193.312 209.256 186.235 210.242 180.866 214.383L162.627 196.144C166.745 190.838 167.757 183.716 165.14 177.393C162.535 171.096 156.835 166.779 150.097 165.905V140.108C156.766 139.269 162.52 134.942 165.142 128.607C167.742 122.323 166.761 115.253 162.614 109.866L180.858 91.6246C186.159 95.7428 193.282 96.7571 199.609 94.1374C200.119 93.9258 200.578 93.6277 201.065 93.3754V99.0863C179.345 108.317 165.387 129.264 165.387 153C165.387 185.321 191.681 211.613 224 211.613C233.865 211.613 243.462 209.151 252.032 204.475V210.81C250.791 211.05 249.568 211.371 248.391 211.86ZM267.323 224.355C267.323 225.762 266.178 226.903 264.774 226.903H259.677C258.273 226.903 257.129 225.762 257.129 224.355V195.968C258.803 196.18 260.495 196.323 262.226 196.323C263.956 196.323 265.648 196.18 267.323 195.968V224.355ZM262.226 191.226C242.552 191.226 226.548 175.222 226.548 155.548C226.548 135.875 242.552 119.871 262.226 119.871C281.899 119.871 297.903 135.875 297.903 155.548C297.903 175.222 281.899 191.226 262.226 191.226Z" fill="white"/>
<path d="M206.161 135.161H211.258V140.258H206.161V135.161Z" fill="white"/>
<path d="M195.968 135.161H201.065V140.258H195.968V135.161Z" fill="white"/>
<path d="M185.774 135.161H190.871V140.258H185.774V135.161Z" fill="white"/>
<path opacity="0.3042" d="M690.249 708C792.836 604.17 792.836 435.83 690.249 332C587.662 228.17 421.337 228.17 318.75 332C216.163 435.83 216.163 604.17 318.75 708C421.337 811.83 587.662 811.83 690.249 708Z" fill="white"/>
<path d="M332.218 305.233H268.355C265.269 305.233 262.767 302.701 262.767 299.578V257.849C262.767 254.726 265.269 252.193 268.355 252.193H332.218C335.304 252.193 337.806 254.726 337.806 257.849V299.578C337.806 302.703 335.304 305.233 332.218 305.233Z" fill="white"/>
<path d="M329.55 258.031H271.022V299.399H329.55V258.031Z" fill="#E1E8F9"/>
<path d="M312.632 278.801L295.716 299.4H329.549L312.632 278.801Z" fill="#A1D7FF"/>
<path d="M293.346 272.217L271.022 299.399H315.67L293.346 272.217Z" fill="#6BBFFF"/>
<path d="M317.789 269.801C317.789 272.683 315.481 275.019 312.633 275.019C309.786 275.019 307.478 272.683 307.478 269.801C307.478 266.919 309.786 264.583 312.633 264.583C315.481 264.583 317.789 266.919 317.789 269.801Z" fill="#FCBE32"/>
<path d="M658.159 445.989C658.159 448.518 656.672 450.983 653.873 453.369C653.762 453.433 653.683 453.496 653.605 453.577C653.274 453.817 652.972 454.057 652.656 454.313C641.269 463.069 624.568 479.941 607.281 502.943C576.979 543.234 544.95 602.318 536.98 669.198C535.842 678.579 535.193 688.119 535.097 697.772V699.485H535.082C534.923 701.357 518.316 702.863 497.835 702.863C478.127 702.863 462.012 701.47 460.683 699.693V697.772C460.589 688.119 459.925 678.579 458.802 669.198C450.831 602.318 418.788 543.236 388.484 502.943C371.197 479.941 354.496 463.069 343.109 454.313C342.809 454.057 342.491 453.817 342.16 453.577C342.082 453.498 342.001 453.433 341.907 453.369C339.091 450.983 337.606 448.518 337.606 445.989C337.606 437.185 355.43 429.23 384.279 423.451C413.127 417.672 452.982 414.07 497.046 414.039H498.724C586.878 414.12 658.159 428.398 658.159 445.989Z" fill="#1E90FF"/>
<path opacity="0.4" d="M658.158 445.989C658.158 448.518 656.671 450.983 653.873 453.369C653.761 453.432 653.683 453.496 653.604 453.577C653.273 453.817 652.971 454.057 652.656 454.313C641.269 463.069 624.568 479.941 607.281 502.943C576.978 543.234 544.949 602.318 536.98 669.198C535.841 678.579 535.193 688.119 535.097 697.771V699.485H535.081C534.938 701.101 522.603 702.446 506.09 702.783V697.628C506.184 688.023 506.738 678.531 507.702 669.2C507.781 668.351 507.877 667.502 507.971 666.655C515.942 594.174 547.985 530.144 578.289 486.474C595.576 461.55 612.277 443.254 623.664 433.776C623.964 433.488 624.282 433.232 624.613 432.961C624.691 432.897 624.772 432.816 624.866 432.753C626.731 431.039 628.013 429.296 628.661 427.519C647.23 432.719 658.158 439.091 658.158 445.989Z" fill="#1E90FF"/>
<path opacity="0.7" d="M658.166 445.986C658.166 448.525 656.673 450.981 653.87 453.371C653.772 453.438 653.688 453.503 653.606 453.57C653.279 453.819 652.967 454.052 652.656 454.316C641.276 463.062 624.568 479.939 607.286 502.941C574.951 507.588 538.157 510.244 499.116 510.293H497.887C458.387 510.293 421.166 507.637 388.485 502.941C371.203 479.939 354.495 463.062 343.115 454.316C342.803 454.052 342.493 453.819 342.165 453.57C342.083 453.503 342.001 453.438 341.903 453.371C339.1 450.981 337.607 448.525 337.607 445.986C337.607 437.19 355.432 429.225 384.273 423.449C413.132 417.673 452.977 414.072 497.051 414.04H498.723C586.871 414.123 658.166 428.395 658.166 445.986Z" fill="#035CB4"/>
<path d="M658.159 445.989C658.159 453.689 644.526 460.749 621.798 466.255C592.569 473.345 548.317 477.877 498.718 477.924H497.88C447.949 477.924 403.38 473.378 373.978 466.255C359.775 462.798 349.099 458.748 343.105 454.313C342.805 454.057 342.488 453.817 342.156 453.577C342.078 453.498 341.998 453.433 341.904 453.369C339.088 450.983 337.602 448.518 337.602 445.989C337.602 428.348 409.359 414.039 497.881 414.039H498.72C586.878 414.12 658.159 428.398 658.159 445.989Z" fill="#035CB4"/>
<path opacity="0.3765" d="M621.799 466.256C607.518 469.729 589.629 472.579 569.307 474.596C548.05 476.708 524.073 477.894 498.72 477.926H497.881C472.18 477.926 447.903 476.726 426.378 474.58C406.086 472.563 388.245 469.697 373.979 466.256C387.786 455.163 438.017 446.951 497.881 446.951H498.546C558.124 446.998 608.039 455.193 621.799 466.256Z" fill="#035CB4"/>
<path opacity="0.3765" d="M573.765 473.587C572.342 473.939 570.855 474.275 569.305 474.594C548.048 476.706 524.071 477.892 498.718 477.924H497.88C472.178 477.924 447.901 476.724 426.376 474.578C424.857 474.259 423.403 473.922 422.01 473.587C430.456 466.784 461.219 461.756 497.878 461.756H498.289C534.78 461.79 565.353 466.8 573.765 473.587Z" fill="#035CB4"/>
<path d="M638.816 368.18C638.816 371.869 635.863 374.856 632.219 374.856C628.575 374.856 625.621 371.867 625.621 368.18C625.621 364.494 628.575 361.503 632.219 361.503C635.863 361.503 638.816 364.492 638.816 368.18Z" fill="#3D2F63"/>
<path d="M638.816 368.177C638.816 371.876 635.859 374.853 632.22 374.853C629.912 374.853 627.903 373.669 626.716 371.86C627.68 372.403 628.787 372.725 629.975 372.725C633.627 372.725 636.571 369.732 636.571 366.049C636.571 364.688 636.175 363.439 635.495 362.384C637.472 363.534 638.816 365.696 638.816 368.177Z" fill="#292049"/>
<path d="M645.415 404.725C645.415 408.963 642.021 412.399 637.833 412.399C633.645 412.399 630.25 408.963 630.25 404.725C630.25 400.486 633.645 397.05 637.833 397.05C642.021 397.05 645.415 400.486 645.415 404.725Z" fill="#3D2F63"/>
<path d="M645.412 404.723C645.412 408.965 642.027 412.406 637.836 412.406C635.195 412.406 632.87 411.046 631.51 408.965C632.602 409.558 633.835 409.894 635.163 409.894C639.355 409.894 642.739 406.468 642.739 402.226C642.739 400.657 642.265 399.201 641.473 397.984C643.83 399.297 645.412 401.826 645.412 404.723Z" fill="#292049"/>
<path d="M631.805 368.113L605.973 393.392" stroke="#3D2F63" stroke-miterlimit="10" stroke-linecap="round" stroke-linejoin="round"/>
<path d="M609.893 396.626L636.928 404.43" stroke="#3D2F63" stroke-miterlimit="10" stroke-linecap="round" stroke-linejoin="round"/>
<path d="M614.605 393.936C614.605 398.785 610.721 402.717 605.929 402.717C601.138 402.717 597.254 398.785 597.254 393.936C597.254 389.086 601.138 385.155 605.929 385.155C610.722 385.155 614.605 389.086 614.605 393.936Z" fill="#3D2F63"/>
<path d="M606.512 389.162C607.689 390.498 607.343 392.755 605.739 394.203C604.135 395.652 601.881 395.742 600.704 394.406C599.527 393.071 599.872 390.814 601.477 389.365C603.081 387.918 605.335 387.826 606.512 389.162Z" fill="#645999"/>
<path d="M632.335 364.413C633.216 365.411 632.956 367.098 631.758 368.18C630.559 369.262 628.875 369.331 627.994 368.332C627.114 367.333 627.373 365.646 628.571 364.564C629.771 363.483 631.457 363.414 632.335 364.413Z" fill="#645999"/>
<path d="M638.194 400.366C639.275 401.46 639.086 403.424 637.773 404.753C636.461 406.081 634.52 406.272 633.439 405.18C632.358 404.086 632.546 402.122 633.861 400.793C635.172 399.462 637.113 399.272 638.194 400.366Z" fill="#645999"/>
<path d="M614.602 393.934C614.602 398.785 610.728 402.722 605.935 402.722C602.519 402.722 599.56 400.72 598.169 397.823C599.656 399.072 601.584 399.808 603.658 399.808C608.451 399.808 612.325 395.885 612.325 391.036C612.325 389.644 612.009 388.299 611.408 387.131C613.353 388.731 614.602 391.179 614.602 393.934Z" fill="#292049"/>
<path d="M516.956 336.734C519.569 336.734 521.688 334.59 521.688 331.945C521.688 329.299 519.569 327.155 516.956 327.155C514.342 327.155 512.224 329.299 512.224 331.945C512.224 334.59 514.342 336.734 516.956 336.734Z" fill="white"/>
<path d="M533.981 335.776C531.891 335.776 530.196 334.061 530.196 331.945C530.196 324.554 524.256 318.544 516.956 318.544C514.865 318.544 513.17 316.829 513.17 314.713C513.17 312.597 514.865 310.882 516.956 310.882C528.432 310.882 537.768 320.33 537.768 331.946C537.768 334.062 536.073 335.776 533.981 335.776Z" fill="white"/>
<path d="M550.083 335.775C547.992 335.775 546.297 334.06 546.297 331.944C546.297 315.57 533.134 302.247 516.956 302.247C514.865 302.247 513.17 300.532 513.17 298.416C513.17 296.3 514.865 294.585 516.956 294.585C537.31 294.585 553.868 311.346 553.868 331.944C553.868 334.062 552.173 335.775 550.083 335.775Z" fill="white"/>
<path d="M569.209 335.776C567.119 335.776 565.424 334.061 565.424 331.945C565.424 304.896 543.68 282.889 516.956 282.889C514.865 282.889 513.17 281.174 513.17 279.058C513.17 276.942 514.865 275.227 516.956 275.227C547.856 275.227 572.996 300.672 572.996 331.946C572.996 334.062 571.301 335.776 569.209 335.776Z" fill="white"/>
<path d="M378.694 351.105H323.365C315.646 351.105 309.388 344.772 309.388 336.96V303.098C309.388 295.286 315.646 288.953 323.365 288.953H378.694C386.412 288.953 392.67 295.286 392.67 303.098V336.96C392.67 344.772 386.412 351.105 378.694 351.105Z" fill="#FF2E00"/>
<path d="M345.506 329.229V310.827C345.506 309.249 347.237 308.303 348.539 309.17L362.373 318.371C363.549 319.154 363.549 320.901 362.373 321.685L348.539 330.886C347.237 331.752 345.506 330.806 345.506 329.229Z" fill="white"/>
<path d="M493.549 365.404V417.192C493.549 422.02 489.675 425.941 484.904 425.941H428.374C423.604 425.941 419.729 422.02 419.729 417.192V365.404C419.729 360.576 423.604 356.655 428.374 356.655H484.904C489.675 356.657 493.549 360.576 493.549 365.404Z" fill="#3D2F63"/>
<path d="M474.631 417.336H438.65C438.619 415.575 438.65 413.719 438.65 411.846C438.65 402.658 443 395.742 449.232 392.718C450.354 392.174 450.402 390.589 449.359 389.901C445.769 387.499 443.396 383.37 443.396 378.696C443.396 370.772 450.164 364.465 458.153 365.362C464.195 366.05 469.113 371.012 469.809 377.111C470.395 382.458 467.894 387.275 463.862 389.933C462.833 390.605 462.88 392.206 463.989 392.751C470.205 395.776 474.522 402.691 474.522 411.848C474.522 413.719 474.584 415.575 474.631 417.336Z" fill="white"/>
<path d="M493.547 365.408V417.192C493.547 422.025 489.673 425.948 484.911 425.948H428.371C423.611 425.948 419.735 422.025 419.735 417.192V414.342H470.677C472.069 414.342 473.382 414.005 474.536 413.414C477.367 411.974 479.313 409.011 479.313 405.586V356.65H484.911C489.673 356.652 493.547 360.573 493.547 365.408Z" fill="#292049"/>
<path d="M474.632 417.337H438.65C438.635 416.361 438.635 415.367 438.635 414.344H470.677C472.069 414.344 473.382 414.007 474.536 413.416C474.553 414.758 474.6 416.071 474.632 417.337Z" fill="#292049"/>
<path d="M436.748 199.983H412.594V183.197C412.594 180.653 414.632 178.59 417.146 178.59H436.748C439.263 178.59 441.301 180.653 441.301 183.197V195.373C441.301 197.92 439.263 199.983 436.748 199.983Z" fill="#035CB4"/>
<path d="M482.922 253.249H424.918C417.705 253.249 411.859 247.33 411.859 240.032V205.164C411.859 197.864 417.707 191.947 424.918 191.947H482.922C490.135 191.947 495.981 197.865 495.981 205.164V240.032C495.981 247.332 490.135 253.249 482.922 253.249Z" fill="#1E90FF"/>
<path opacity="0.4584" d="M495.979 205.171V240.023C495.979 247.328 490.139 253.258 482.92 253.258H424.913C418.462 253.258 413.075 248.493 412.046 242.229H468.972C476.19 242.229 482.031 236.299 482.031 228.994V194.142C482.031 193.401 481.961 192.659 481.839 191.954H482.92C490.139 191.954 495.979 197.865 495.979 205.171Z" fill="#1E90FF"/>
<path d="M375.791 564.143V601.824" stroke="white" stroke-miterlimit="10"/>
<path d="M375.791 608.637V632.052" stroke="white" stroke-miterlimit="10"/>
<path d="M390.002 579.602V664.455" stroke="white" stroke-miterlimit="10"/>
<path d="M344.38 586.856V657.202" stroke="white" stroke-miterlimit="10"/>
<path d="M426.076 605.688V671.709" stroke="white" stroke-miterlimit="10"/>
<path d="M359.531 534.361V616.841" stroke="white" stroke-miterlimit="10"/>
<path d="M359.531 625.256V663.973" stroke="white" stroke-miterlimit="10"/>
<path d="M593.397 573.305V669.945" stroke="white" stroke-miterlimit="10"/>
<path d="M566.615 604.418V667.118" stroke="white" stroke-miterlimit="10"/>
<path d="M605.422 550.677V655.802" stroke="white" stroke-miterlimit="10"/>
<path d="M409.952 609.069V619.054" stroke="white" stroke-miterlimit="10"/>
<path d="M409.952 629.359V661.404" stroke="white" stroke-miterlimit="10"/>
<path d="M409.952 596.348V606.333" stroke="white" stroke-miterlimit="10"/>
<path d="M578.092 620.446V653.211" stroke="white" stroke-miterlimit="10"/>
<path d="M619.937 571.64V614.304" stroke="white" stroke-miterlimit="10"/>
<path d="M619.937 629.285V648.557" stroke="white" stroke-miterlimit="10"/>
<path d="M634.613 604.418V667.118" stroke="white" stroke-miterlimit="10"/>
<path d="M578.092 597.818V612.433" stroke="white" stroke-miterlimit="10"/>
<path d="M321.192 410.541L316.181 408.695C316.242 408.005 316.279 407.304 316.279 406.59C316.279 404.977 316.108 403.401 315.768 401.899L320.645 399.044C321.715 398.416 322.092 397.025 321.471 395.942L317.568 389.111C316.947 388.015 315.573 387.646 314.502 388.274L309.797 391.019C307.34 388.594 304.312 386.76 300.931 385.739V379.732C300.931 378.475 299.921 377.454 298.682 377.454H290.886C289.645 377.454 288.637 378.475 288.637 379.732V385.739C286.643 386.342 284.77 387.228 283.067 388.349L278.153 384.188C277.205 383.376 275.782 383.498 274.991 384.459L269.98 390.503C269.178 391.476 269.298 392.903 270.248 393.715L275.1 397.827C274.323 399.612 273.775 401.52 273.495 403.526L266.878 404.709C265.663 404.919 264.847 406.099 265.054 407.343L266.416 415.11C266.636 416.341 267.79 417.178 269.019 416.955L275.318 415.835C276.145 417.631 277.228 419.306 278.492 420.795L275.172 426.629C274.551 427.713 274.917 429.103 275.986 429.731L282.748 433.682C283.818 434.311 285.192 433.94 285.813 432.846L288.853 427.504C290.738 428.059 292.721 428.353 294.776 428.353H294.947L297.088 434.298C297.513 435.481 298.802 436.082 299.97 435.664L307.303 432.955C308.459 432.525 309.068 431.219 308.641 430.038L306.719 424.697C308.543 423.455 310.161 421.953 311.535 420.229L316.983 422.235C318.152 422.666 319.44 422.05 319.866 420.869L322.53 413.46C322.957 412.277 322.361 410.971 321.192 410.541ZM294.778 417.324C288.928 417.324 284.174 412.524 284.174 406.592C284.174 400.659 288.928 395.857 294.778 395.857C300.64 395.857 305.396 400.657 305.396 406.592C305.394 412.523 300.64 417.324 294.778 417.324Z" fill="#92D6FF"/>
<path d="M294.33 363.391L291.099 362.2C291.139 361.755 291.162 361.304 291.162 360.843C291.162 359.804 291.052 358.787 290.832 357.818L293.977 355.976C294.668 355.57 294.91 354.674 294.511 353.975L291.993 349.569C291.594 348.863 290.706 348.625 290.016 349.029L286.981 350.799C285.396 349.235 283.443 348.053 281.264 347.393V343.519C281.264 342.709 280.613 342.051 279.813 342.051H274.785C273.984 342.051 273.334 342.709 273.334 343.519V347.393C272.047 347.781 270.841 348.353 269.742 349.076L266.574 346.394C265.962 345.87 265.045 345.949 264.534 346.569L261.304 350.467C260.786 351.093 260.864 352.014 261.476 352.539L264.606 355.191C264.104 356.341 263.752 357.573 263.57 358.867L259.304 359.629C258.519 359.765 257.994 360.525 258.127 361.328L259.006 366.338C259.147 367.132 259.891 367.672 260.685 367.529L264.747 366.808C265.281 367.967 265.978 369.045 266.794 370.007L264.653 373.769C264.254 374.468 264.489 375.364 265.178 375.77L269.538 378.318C270.229 378.722 271.114 378.484 271.515 377.778L273.477 374.334C274.692 374.69 275.97 374.881 277.297 374.881H277.407L278.788 378.715C279.061 379.478 279.893 379.866 280.646 379.596L285.377 377.849C286.121 377.572 286.513 376.73 286.24 375.968L285 372.523C286.177 371.722 287.219 370.753 288.105 369.642L291.618 370.935C292.372 371.212 293.203 370.817 293.477 370.055L295.194 365.276C295.468 364.51 295.083 363.668 294.33 363.391ZM277.295 367.764C273.522 367.764 270.455 364.669 270.455 360.841C270.455 357.016 273.522 353.919 277.295 353.919C281.075 353.919 284.142 357.016 284.142 360.841C284.142 364.669 281.075 367.764 277.295 367.764Z" fill="#92D6FF"/>
<path d="M508.705 430.942C508.705 430.942 510.682 448.95 527.157 455.486" stroke="white" stroke-miterlimit="10" stroke-linecap="round" stroke-linejoin="round"/>
<path d="M507.518 442.049C507.518 442.049 508.969 448.95 515.294 453.821" stroke="white" stroke-miterlimit="10" stroke-linecap="round" stroke-linejoin="round"/>
<path d="M584.179 388.966C584.179 388.966 577.177 372.29 559.543 370.815" stroke="white" stroke-miterlimit="10" stroke-linecap="round" stroke-linejoin="round"/>
<path d="M582.165 377.983C582.165 377.983 578.819 371.793 571.378 368.966" stroke="white" stroke-miterlimit="10" stroke-linecap="round" stroke-linejoin="round"/>
<path d="M436.33 522.145C449.394 549.135 467.908 596.622 472.998 656.835" stroke="#FFDA00" stroke-width="7" stroke-miterlimit="10" stroke-linecap="round" stroke-linejoin="round"/>
<path d="M550.726 456.695C572.33 456.695 589.844 438.969 589.844 417.103C589.844 395.238 572.33 377.512 550.726 377.512C529.122 377.512 511.608 395.238 511.608 417.103C511.608 438.969 529.122 456.695 550.726 456.695Z" fill="#FF3000"/>
<path d="M550.726 448.763C568.002 448.763 582.007 434.588 582.007 417.103C582.007 399.618 568.002 385.443 550.726 385.443C533.45 385.443 519.446 399.618 519.446 417.103C519.446 434.588 533.45 448.763 550.726 448.763Z" fill="white"/>
<path d="M582.007 417.096C582.007 430.238 574.098 441.509 562.838 446.31C571.521 440.692 577.263 430.847 577.263 419.641C577.263 402.145 563.265 387.978 545.978 387.978C541.693 387.978 537.611 388.843 533.896 390.427C538.751 387.274 544.524 385.449 550.724 385.449C568.01 385.449 582.007 399.616 582.007 417.096Z" fill="#D6D6D6"/>
<path d="M563.398 409.334L550.726 417.103L551.145 397.193" stroke="#3D2F63" stroke-miterlimit="10" stroke-linecap="round" stroke-linejoin="round"/>
<path d="M515.953 410.265C515.953 410.265 518.457 389.723 537.964 384.519" stroke="#FF9D5A" stroke-miterlimit="10" stroke-linecap="round" stroke-linejoin="round"/>
<path d="M580.733 398.327C580.733 398.327 594.322 418.298 578.733 440.342C573.021 448.419 561.423 454.021 547.715 452.553" stroke="#C62302" stroke-miterlimit="10" stroke-linecap="round" stroke-linejoin="round"/>
<path d="M551.27 447.361V440.748" stroke="#3D2F63" stroke-miterlimit="10" stroke-linecap="round" stroke-linejoin="round"/>
<path d="M551.27 394.803V388.189" stroke="#3D2F63" stroke-miterlimit="10" stroke-linecap="round" stroke-linejoin="round"/>
<path d="M522.038 417.776H528.575" stroke="#3D2F63" stroke-miterlimit="10" stroke-linecap="round" stroke-linejoin="round"/>
<path d="M573.967 417.776H580.502" stroke="#3D2F63" stroke-miterlimit="10" stroke-linecap="round" stroke-linejoin="round"/>
<path d="M530.601 396.854L535.221 401.532" stroke="#3D2F63" stroke-miterlimit="10" stroke-linecap="round" stroke-linejoin="round"/>
<path d="M567.32 434.019L571.942 438.695" stroke="#3D2F63" stroke-miterlimit="10" stroke-linecap="round" stroke-linejoin="round"/>
<path d="M571.942 396.854L567.32 401.532" stroke="#3D2F63" stroke-miterlimit="10" stroke-linecap="round" stroke-linejoin="round"/>
<path d="M535.221 434.019L530.601 438.695" stroke="#3D2F63" stroke-miterlimit="10" stroke-linecap="round" stroke-linejoin="round"/>
<path d="M674.306 221.09H607.483C601.079 221.09 595.889 226.343 595.889 232.825V273.638C595.889 280.119 601.079 285.373 607.483 285.373H652.24C652.264 285.429 652.283 285.485 652.318 285.538L658.527 295.027C658.919 295.625 659.786 295.63 660.185 295.038L666.638 285.427C666.65 285.41 666.653 285.392 666.664 285.374H674.307C680.711 285.374 685.902 280.121 685.902 273.639V232.825C685.9 226.343 680.71 221.09 674.306 221.09Z" fill="#2475EA"/>
<path opacity="0.3" d="M685.9 232.818V273.638C685.9 280.121 680.713 285.371 674.307 285.371H666.669C666.653 285.387 666.653 285.402 666.638 285.418L660.185 295.039C659.789 295.632 658.919 295.632 658.525 295.023L652.372 285.611L656.089 280.087C656.105 280.071 656.105 280.056 656.121 280.04H663.759C670.165 280.04 675.352 274.79 675.352 268.307V227.487C675.352 225.134 674.656 222.925 673.471 221.084H674.309C680.713 221.084 685.9 226.35 685.9 232.818Z" fill="#008DAF"/>
<path d="M625.436 252.458C625.436 255.677 622.859 258.285 619.679 258.285C616.499 258.285 613.922 255.677 613.922 252.458C613.922 249.24 616.499 246.631 619.679 246.631C622.859 246.631 625.436 249.241 625.436 252.458Z" fill="white"/>
<path d="M646.651 252.458C646.651 255.677 644.075 258.285 640.894 258.285C637.714 258.285 635.137 255.677 635.137 252.458C635.137 249.24 637.714 246.631 640.894 246.631C644.075 246.631 646.651 249.241 646.651 252.458Z" fill="white"/>
<path d="M667.867 252.458C667.867 255.677 665.29 258.285 662.11 258.285C658.93 258.285 656.353 255.677 656.353 252.458C656.353 249.24 658.93 246.631 662.11 246.631C665.288 246.631 667.867 249.241 667.867 252.458Z" fill="white"/>
<path d="M603.731 229.648H611.244" stroke="#0CC4E2" stroke-miterlimit="10" stroke-linecap="round" stroke-linejoin="round"/>
<path d="M615.068 229.648H628.773" stroke="#0CC4E2" stroke-miterlimit="10" stroke-linecap="round" stroke-linejoin="round"/>
<path d="M639.993 393.925C639.993 393.925 646.814 393.325 647.999 401.728" stroke="#3D2F63" stroke-miterlimit="10" stroke-linecap="round" stroke-linejoin="round"/>
<path d="M644.737 391.933C644.737 391.933 649.037 392.125 650.569 397.617" stroke="#3D2F63" stroke-miterlimit="10" stroke-linecap="round" stroke-linejoin="round"/>
<path d="M622.125 368.413C622.125 368.413 620.791 363.061 625.487 361.035" stroke="#3D2F63" stroke-miterlimit="10" stroke-linecap="round" stroke-linejoin="round"/>
<path d="M618.668 366.083C618.668 366.083 618.318 363.171 620.031 361.044" stroke="#3D2F63" stroke-miterlimit="10" stroke-linecap="round" stroke-linejoin="round"/>
<path d="M414.534 372.115V360.806C414.534 356.442 418.028 352.905 422.339 352.905H433.514" stroke="white" stroke-miterlimit="10" stroke-linecap="round" stroke-linejoin="round"/>
<path d="M411.172 357.403C411.172 353.041 414.666 349.503 418.978 349.503" stroke="white" stroke-miterlimit="10" stroke-linecap="round" stroke-linejoin="round"/>
<path d="M605.445 360.243C605.445 363.336 602.966 365.846 599.909 365.846C596.853 365.846 594.374 363.338 594.374 360.243C594.374 357.149 596.853 354.64 599.909 354.64C602.968 354.64 605.445 357.148 605.445 360.243Z" stroke="white" stroke-miterlimit="10" stroke-linecap="round" stroke-linejoin="round"/>
<path d="M356.345 401.329C359.403 401.329 361.881 398.821 361.881 395.726C361.881 392.632 359.403 390.124 356.345 390.124C353.288 390.124 350.81 392.632 350.81 395.726C350.81 398.821 353.288 401.329 356.345 401.329Z" stroke="white" stroke-miterlimit="10" stroke-linecap="round" stroke-linejoin="round"/>
<path d="M690.06 339.166C690.06 342.261 687.581 344.769 684.524 344.769C681.468 344.769 678.989 342.261 678.989 339.166C678.989 336.073 681.468 333.563 684.524 333.563C687.583 333.563 690.06 336.073 690.06 339.166Z" fill="white"/>
<path d="M466.264 310.086C466.264 313.181 463.787 315.689 460.729 315.689C457.672 315.689 455.193 313.181 455.193 310.086C455.193 306.993 457.67 304.483 460.729 304.483C463.787 304.483 466.264 306.991 466.264 310.086Z" stroke="white" stroke-miterlimit="10" stroke-linecap="round" stroke-linejoin="round"/>
<path d="M237.461 328.762C240.518 328.762 242.997 326.253 242.997 323.159C242.997 320.065 240.518 317.556 237.461 317.556C234.404 317.556 231.925 320.065 231.925 323.159C231.925 326.253 234.404 328.762 237.461 328.762Z" stroke="white" stroke-miterlimit="10" stroke-linecap="round" stroke-linejoin="round"/>
<path d="M272.616 534.633C275.673 534.633 278.151 532.124 278.151 529.03C278.151 525.936 275.673 523.427 272.616 523.427C269.559 523.427 267.08 525.936 267.08 529.03C267.08 532.124 269.559 534.633 272.616 534.633Z" stroke="white" stroke-miterlimit="10" stroke-linecap="round" stroke-linejoin="round"/>
<path d="M401.375 242.899C401.375 245.994 398.898 248.502 395.84 248.502C392.783 248.502 390.304 245.993 390.304 242.899C390.304 239.806 392.782 237.296 395.84 237.296C398.896 237.296 401.375 239.806 401.375 242.899Z" stroke="white" stroke-miterlimit="10" stroke-linecap="round" stroke-linejoin="round"/>
<path d="M560.765 214.841C560.765 217.934 558.286 220.444 555.229 220.444C552.173 220.444 549.694 217.936 549.694 214.841C549.694 211.748 552.173 209.238 555.229 209.238C558.286 209.238 560.765 211.748 560.765 214.841Z" stroke="white" stroke-miterlimit="10" stroke-linecap="round" stroke-linejoin="round"/>
<path d="M669.331 407.645C672.389 407.645 674.867 405.137 674.867 402.042C674.867 398.948 672.389 396.439 669.331 396.439C666.274 396.439 663.796 398.948 663.796 402.042C663.796 405.137 666.274 407.645 669.331 407.645Z" stroke="white" stroke-miterlimit="10" stroke-linecap="round" stroke-linejoin="round"/>
<path opacity="0.4999" d="M536.978 669.198C535.84 678.579 535.191 688.119 535.095 697.772V699.485H535.08C534.937 701.101 522.601 702.446 506.088 702.783C503.431 702.831 500.68 702.862 497.833 702.862C478.126 702.862 462.01 701.47 460.682 699.693C460.619 699.614 460.587 699.533 460.587 699.453C460.587 699.374 460.619 699.293 460.682 699.229V697.772C460.587 688.119 459.923 678.579 458.8 669.198H536.978Z" fill="#FF6900"/>
<path d="M480.096 258.781C480.096 258.781 502.762 264.075 502.326 242.017" stroke="white" stroke-miterlimit="10" stroke-linecap="round" stroke-linejoin="round"/>
<path d="M497.179 262.692C499.82 261.714 502.315 260.015 504.041 257.147" stroke="white" stroke-miterlimit="10" stroke-linecap="round" stroke-linejoin="round"/>
<path d="M351.655 280.839H382.458" stroke="white" stroke-miterlimit="10" stroke-linecap="round" stroke-linejoin="round"/>
<path d="M342.938 274.958H373.74" stroke="white" stroke-miterlimit="10" stroke-linecap="round" stroke-linejoin="round"/>
<path d="M309.23 452.231V461.937" stroke="white" stroke-miterlimit="10" stroke-linecap="round" stroke-linejoin="round"/>
<path d="M314.024 457.083H304.435" stroke="white" stroke-miterlimit="10" stroke-linecap="round" stroke-linejoin="round"/>
<path d="M735.378 253.877V263.583" stroke="white" stroke-miterlimit="10" stroke-linecap="round" stroke-linejoin="round"/>
<path d="M740.173 258.73H730.583" stroke="white" stroke-miterlimit="10" stroke-linecap="round" stroke-linejoin="round"/>
<path d="M709.687 405.149L701.154 396.513L679.444 418.487C677.086 420.871 677.086 424.737 679.444 427.123C681.799 429.509 685.619 429.509 687.977 427.123L709.687 405.149Z" fill="#92D6FF"/>
<path d="M734.423 411.24C749.833 404.858 757.213 387.041 750.908 371.445C744.602 355.849 726.999 348.379 711.589 354.761C696.18 361.143 688.799 378.959 695.105 394.555C701.41 410.152 719.014 417.621 734.423 411.24Z" fill="#92D6FF"/>
<path d="M723.018 404.521C711.286 404.521 701.775 394.895 701.775 383.023C701.775 371.148 711.286 361.524 723.018 361.524C734.749 361.524 744.259 371.15 744.259 383.023C744.259 394.897 734.749 404.521 723.018 404.521Z" fill="#32A8FF"/>
<path d="M736.722 389.319C737.118 388.438 736.733 387.411 735.87 387.02C735.007 386.623 733.988 387.007 733.596 387.883C731.715 392.072 727.564 394.779 723.018 394.779C722.07 394.779 721.301 395.555 721.301 396.515C721.301 397.475 722.07 398.252 723.018 398.252C728.906 398.252 734.285 394.745 736.722 389.319Z" fill="white"/>
<path d="M738.039 383.928C738.056 383.628 738.065 383.328 738.065 383.024C738.065 382.065 737.296 381.288 736.347 381.288C735.401 381.288 734.63 382.065 734.63 383.024C734.63 383.256 734.625 383.49 734.611 383.718C734.609 383.753 734.607 383.79 734.607 383.826C734.607 384.736 735.31 385.502 736.222 385.559C737.167 385.615 737.981 384.884 738.039 383.928Z" fill="white"/>
<path d="M397.423 189.172V213.585" stroke="white" stroke-miterlimit="10" stroke-linecap="round" stroke-linejoin="round"/>
<path d="M397.423 173.365V182.042" stroke="white" stroke-miterlimit="10" stroke-linecap="round" stroke-linejoin="round"/>
<path d="M389.795 183.511V204.025" stroke="white" stroke-miterlimit="10" stroke-linecap="round" stroke-linejoin="round"/>
</svg>
