<svg width="122" height="122" viewBox="0 0 122 122" fill="none" xmlns="http://www.w3.org/2000/svg">
<g clip-path="url(#clip0_216_6537)">
<path d="M34.8843 73.2C33.3593 75.1062 31.0718 76.0594 28.7843 76.0594C26.4968 76.0594 24.2093 74.9156 22.6843 73.2C22.1124 72.4375 20.778 72.2469 20.0155 72.8187C19.253 73.3906 19.0624 74.725 19.6343 75.4875C21.9218 78.3469 25.1624 79.8719 28.7843 79.8719C32.4061 79.8719 35.6468 78.3469 37.9343 75.4875C38.5061 74.725 38.5061 73.3906 37.553 72.8187C36.5999 72.2469 35.4561 72.2469 34.8843 73.2Z" fill="black"/>
<path d="M59.0938 83.875H57.1875C56.2344 77.3937 50.7062 72.4375 44.0344 72.4375C42.8906 72.4375 42.1281 73.2 42.1281 74.3438C42.1281 75.4875 42.8906 76.25 44.0344 76.25C48.6094 76.25 52.4219 79.4906 53.375 83.875H24.7812C21.5406 83.875 19.0625 86.3531 19.0625 89.5938V106.75H13.3438C12.2 106.75 11.4375 107.513 11.4375 108.656C11.4375 109.8 12.2 110.562 13.3438 110.562H19.0625V118.188H3.8125V85.7812C3.8125 80.4438 8.00625 76.25 13.3438 76.25C14.4875 76.25 15.25 75.4875 15.25 74.3438C15.25 73.2 14.4875 72.4375 13.3438 72.4375C5.90937 72.4375 0 78.3469 0 85.7812V120.094C0 121.237 0.7625 122 1.90625 122H20.9688H62.9062C64.05 122 64.8125 121.237 64.8125 120.094V89.5938C64.8125 86.3531 62.3344 83.875 59.0938 83.875ZM61 118.188H22.875V89.5938C22.875 88.45 23.6375 87.6875 24.7812 87.6875H59.0938C60.2375 87.6875 61 88.45 61 89.5938V118.188Z" fill="black"/>
<path d="M116.281 0H32.4062C29.1656 0 26.6875 2.47812 26.6875 5.71875V20.9688C26.6875 22.1125 27.45 22.875 28.5938 22.875C29.7375 22.875 30.5 22.1125 30.5 20.9688V5.71875C30.5 4.575 31.2625 3.8125 32.4062 3.8125H116.281C117.425 3.8125 118.188 4.575 118.188 5.71875V101.031C118.188 102.175 117.425 102.938 116.281 102.938H70.5312C69.3875 102.938 68.625 103.7 68.625 104.844C68.625 105.988 69.3875 106.75 70.5312 106.75H116.281C119.522 106.75 122 104.272 122 101.031V5.71875C122 2.47812 119.522 0 116.281 0Z" fill="black"/>
<path d="M90.9281 13.9156C90.5469 13.5344 90.1656 13.3438 89.5938 13.3438H59.0938C57.95 13.3438 57.1875 14.1062 57.1875 15.25V64.8125C57.1875 65.9562 57.95 66.7188 59.0938 66.7188H74.3438C75.4875 66.7188 76.25 65.9562 76.25 64.8125C76.25 63.6688 75.4875 62.9062 74.3438 62.9062H61V17.1562H88.8312L95.3125 23.6375V49.5625C95.3125 50.7062 96.075 51.4688 97.2188 51.4688C98.3625 51.4688 99.125 50.7062 99.125 49.5625V22.875C99.125 22.3031 98.9344 21.9219 98.5531 21.5406L90.9281 13.9156Z" fill="black"/>
<path d="M97.2188 89.5938C106.75 89.5938 114.375 81.9688 114.375 72.4375C114.375 62.9062 106.75 55.2812 97.2188 55.2812C87.6875 55.2812 80.0625 62.9062 80.0625 72.4375C80.0625 81.9688 87.6875 89.5938 97.2188 89.5938ZM97.2188 59.0938C104.653 59.0938 110.562 65.0031 110.562 72.4375C110.562 79.8719 104.653 85.7812 97.2188 85.7812C89.7844 85.7812 83.875 79.8719 83.875 72.4375C83.875 65.0031 89.7844 59.0938 97.2188 59.0938Z" fill="black"/>
<path d="M93.9781 77.5844C94.7406 78.3469 95.8844 78.3469 96.6469 77.5844C97.4094 76.8219 97.4094 75.6781 96.6469 74.9156L96.075 74.3438H102.938C104.081 74.3438 104.844 73.5813 104.844 72.4375C104.844 71.2938 104.081 70.5313 102.938 70.5313H96.075L96.6469 69.9594C97.0281 69.5781 97.2188 69.0063 97.2188 68.625C97.2188 68.2438 97.0281 67.6719 96.6469 67.2906C95.8844 66.5281 94.7406 66.5281 93.9781 67.2906L90.1656 71.1031C89.4031 71.8656 89.4031 73.0094 90.1656 73.7719L93.9781 77.5844Z" fill="black"/>
<path d="M28.5938 68.8157C36.9813 68.8157 43.8438 61.9532 43.8438 53.5657V47.8469C43.8438 46.7032 43.0812 45.9407 41.9375 45.9407C40.7938 45.9407 40.0312 46.7032 40.0312 47.8469V53.5657C40.0312 59.8563 34.8844 65.0032 28.5938 65.0032C22.3031 65.0032 17.1562 59.8563 17.1562 53.5657V47.8469C17.1562 46.7032 16.3937 45.9407 15.25 45.9407C14.1062 45.9407 13.3438 46.7032 13.3438 47.8469V53.5657C13.3438 61.9532 20.2062 68.8157 28.5938 68.8157Z" fill="black"/>
<path d="M15.25 42.1282H41.9375C43.0812 42.1282 43.8438 41.3657 43.8438 40.2219V36.4094C43.8438 31.0719 39.65 26.8782 34.3125 26.8782H22.875C17.5375 26.8782 13.3438 31.0719 13.3438 36.4094V40.2219C13.3438 41.3657 14.2969 42.1282 15.25 42.1282ZM17.1562 36.4094C17.1562 33.1688 19.6344 30.6907 22.875 30.6907H34.3125C37.5531 30.6907 40.0312 33.1688 40.0312 36.4094V38.3157H17.1562V36.4094Z" fill="black"/>
<path d="M41.9375 92.6438C36.2188 92.6438 31.4531 97.4094 31.4531 103.128C31.4531 108.847 36.2188 113.613 41.9375 113.613C47.6562 113.613 52.4219 108.847 52.4219 103.128C52.4219 97.4094 47.6562 92.6438 41.9375 92.6438ZM41.9375 109.8C38.3156 109.8 35.2656 106.75 35.2656 103.128C35.2656 99.5063 38.3156 96.4563 41.9375 96.4563C45.5594 96.4563 48.6094 99.5063 48.6094 103.128C48.6094 106.75 45.5594 109.8 41.9375 109.8Z" fill="black"/>
<path d="M88.2595 31.6437C88.2595 26.1155 83.6845 21.5405 78.1563 21.5405C72.6282 21.5405 68.0532 26.1155 68.0532 31.6437V48.4187C68.0532 53.9468 72.6282 58.5218 78.1563 58.5218C83.6845 58.5218 88.2595 53.9468 88.2595 48.4187C88.2595 47.2749 87.497 46.5124 86.3532 46.5124C85.2095 46.5124 84.447 47.2749 84.447 48.4187C84.447 51.8499 81.5876 54.7093 78.1563 54.7093C74.7251 54.7093 71.8657 51.8499 71.8657 48.4187V31.6437C71.8657 28.2124 74.7251 25.353 78.1563 25.353C81.5876 25.353 84.447 28.2124 84.447 31.6437V36.028V36.2187V36.4093C84.447 37.553 83.4938 38.6968 82.1595 38.6968C81.0157 38.6968 79.872 37.7437 79.872 36.4093V32.4062C79.872 31.2624 79.1095 30.4999 77.9657 30.4999C76.822 30.4999 76.0595 31.2624 76.0595 32.4062V36.9812C76.0595 37.3624 76.0595 37.553 76.2501 37.7437C76.822 40.4124 79.3001 42.3187 82.1595 42.3187C85.4001 42.3187 88.2595 39.6499 88.2595 36.2187V36.028V35.8374V31.6437Z" fill="black"/>
</g>
<defs>
<clipPath id="clip0_216_6537">
<rect width="122" height="122" fill="white"/>
</clipPath>
</defs>
</svg>
