<svg width="130" height="130" viewBox="0 0 130 130" fill="none" xmlns="http://www.w3.org/2000/svg">
<g clip-path="url(#clip0_216_6571)">
<path d="M124.273 91.3446H93.59C93.0188 88.482 91.8264 85.7797 90.097 83.4282C88.3676 81.0767 86.1433 79.1334 83.581 77.7352C83.4276 77.6512 83.264 77.5873 83.0943 77.5452C75.6929 75.7128 68.1608 74.0038 60.6838 72.46C60.5332 71.0965 60.3214 68.6131 60.0327 64.1522C63.7685 61.1633 66.3279 56.9503 67.2589 52.2575H67.589C69.6206 52.2584 71.6023 51.6285 73.2605 50.4548C74.9187 49.281 76.1715 47.6214 76.846 45.705C77.5205 43.7887 77.5833 41.7102 77.0257 39.7567C76.4682 37.8031 75.3178 36.0708 73.7335 34.7991L74.7362 27.0588C75.3939 25.7287 75.7271 24.2617 75.7086 22.778C75.6901 21.2943 75.3204 19.836 74.6298 18.5227C73.9393 17.2094 72.9474 16.0783 71.7355 15.2221C70.5236 14.366 69.1261 13.809 67.6575 13.5969C65.4489 9.5889 62.2318 6.22711 58.3247 3.8443C54.4177 1.46149 49.9561 0.140269 45.3816 0.0114002C40.8071 -0.117469 36.2782 0.950482 32.2432 3.10956C28.2082 5.26863 24.807 8.44398 22.3762 12.3213C22.3122 12.4234 22.2574 12.531 22.2124 12.6428C19.2034 20.1276 18.2801 28.2881 19.5405 36.256C18.3685 37.6945 17.6285 39.436 17.4065 41.2782C17.1846 43.1204 17.4898 44.9878 18.2867 46.6635C19.0835 48.3392 20.3394 49.7545 21.9085 50.745C23.4775 51.7355 25.2953 52.2605 27.1509 52.2592H27.4809C28.3402 56.5967 30.594 60.5342 33.8989 63.4717C33.5882 68.3531 33.3624 71.0252 33.2037 72.4618C25.7267 74.0055 18.1946 75.7146 10.7935 77.547C10.6237 77.5891 10.4601 77.6529 10.3067 77.737C7.7333 79.1409 5.50088 81.0948 3.76827 83.4594C2.03566 85.8241 0.845434 88.5415 0.282251 91.4184C0.261377 91.5248 0.249065 91.6326 0.245434 91.7409C-0.0158351 99.3284 -0.0633156 114.746 0.0811571 122.044C0.130053 124.166 1.00563 126.185 2.52138 127.671C4.03713 129.158 6.07324 129.993 8.196 130H8.27217C34.8526 129.755 61.8916 129.838 88.0401 129.919C99.9156 129.956 112.195 129.994 124.273 130.001C125.791 129.999 127.247 129.395 128.321 128.321C129.395 127.247 129.999 125.791 130 124.273V97.0719C129.998 95.5534 129.394 94.0976 128.321 93.0239C127.247 91.9502 125.791 91.3462 124.273 91.3446ZM121.878 95.4071L102.201 111.699L82.525 95.4071H121.878ZM70.5963 88.8134L64.9517 90.6052C64.6353 90.7055 64.3484 90.8818 64.1159 91.1186C63.8835 91.3554 63.7126 91.6456 63.6182 91.9638C63.5238 92.282 63.5089 92.6184 63.5746 92.9437C63.6403 93.269 63.7847 93.5732 63.9952 93.8298L69.0007 99.9365L52.2454 119.457L60.8199 90.4401C60.8751 90.2533 60.9032 90.0594 60.9031 89.8645V76.6563C62.7944 77.0504 64.6874 77.4548 66.5823 77.8695L70.5963 88.8134ZM30.2693 91.9633C30.175 91.6453 30.0042 91.3553 29.7718 91.1185C29.5395 90.8818 29.2527 90.7055 28.9366 90.6052L23.2917 88.8134L27.2507 78.0196C27.2687 77.9706 27.2826 77.921 27.2966 77.8715C29.1938 77.4565 31.0896 77.0514 32.9841 76.6563V89.8635C32.9841 90.0586 33.0123 90.2526 33.0676 90.4396L41.6916 119.58L24.8858 99.9378L29.8928 93.829C30.1032 93.5724 30.2475 93.2682 30.3131 92.943C30.3788 92.6178 30.3637 92.2814 30.2693 91.9633ZM37.0474 78.6647L45.5999 86.2136C45.9711 86.5412 46.4491 86.722 46.9441 86.722C47.4392 86.722 47.9172 86.5412 48.2883 86.2136L56.8406 78.6647V89.5697L46.9505 123.039L37.0481 89.5692L37.0474 78.6647ZM67.6431 48.1945V36.6925C69.1683 36.6925 70.6311 37.2984 71.7096 38.3769C72.7881 39.4554 73.3941 40.9182 73.3941 42.4435C73.3941 43.9687 72.7881 45.4315 71.7096 46.51C70.6311 47.5886 69.1683 48.1945 67.6431 48.1945ZM25.9143 14.3277C28.0326 11.0089 30.9948 8.31258 34.4976 6.51487C38.0005 4.71716 41.9181 3.88261 45.8495 4.09666C49.7809 4.3107 53.5848 5.56566 56.8718 7.73304C60.1587 9.90042 62.8107 12.9024 64.5561 16.4316C64.7226 16.7683 64.9793 17.0522 65.2976 17.2518C65.6158 17.4514 65.9832 17.5589 66.3588 17.5622C67.2818 17.5695 68.187 17.8163 68.986 18.2784C69.785 18.7405 70.4503 19.4021 70.9169 20.1984C71.3835 20.9948 71.6354 21.8986 71.648 22.8215C71.6605 23.7444 71.4333 24.6548 70.9885 25.4635C70.8662 25.6859 70.7867 25.9293 70.7542 26.181L69.8835 32.9032C69.1491 32.7264 68.3967 32.6351 67.6413 32.631V29.0878C67.6413 26.7412 66.2136 24.1478 64.3205 23.055C63.7124 22.6822 63.0149 22.4806 62.3017 22.4714C61.5886 22.4622 60.8861 22.6458 60.2686 23.0026C51.7092 27.9444 43.0284 27.9444 34.4695 23.0026C34.1607 22.8244 33.8104 22.7305 33.4538 22.7305C31.7683 22.7323 30.1524 23.4027 28.9606 24.5946C27.7688 25.7864 27.0984 27.4023 27.0965 29.0878V32.631C25.778 32.6366 24.4742 32.9095 23.2641 33.4331C22.598 26.9442 23.5071 20.3903 25.9143 14.3277ZM21.3986 42.444C21.4005 40.9283 22 39.4745 23.0669 38.398C24.1339 37.3215 25.5822 36.709 27.0978 36.6935V48.1955C25.582 48.18 24.1335 47.5674 23.0666 46.4906C21.9996 45.4139 21.4003 43.9598 21.3986 42.444ZM31.2474 50.0198V50.0175C31.1896 49.4596 31.1606 48.8991 31.1606 48.3382V29.0878C31.1612 28.5583 31.3447 28.0452 31.68 27.6354C32.0152 27.2255 32.4817 26.944 33.0006 26.8384C37.606 29.3919 42.3279 30.7158 47.0442 30.774C52.1421 30.8407 57.2652 29.4171 62.2532 26.5479C62.7071 26.7381 63.5793 27.9779 63.5793 29.087V48.3377C63.5793 48.8986 63.5503 49.4591 63.4925 50.017V50.0193C63.0775 54.0064 61.1999 57.6984 58.2222 60.3822C55.2446 63.066 51.3781 64.5514 47.3694 64.5514C43.3608 64.5514 39.4943 63.066 36.5166 60.3822C33.539 57.6984 31.6613 54.0064 31.2464 50.0193L31.2474 50.0198ZM47.3704 68.6108C50.4016 68.6142 53.3944 67.9338 56.1261 66.6202C56.3801 70.299 56.5644 72.2594 56.7002 73.37L46.9444 81.981L37.1883 73.3698C37.3297 72.2145 37.5222 70.1469 37.7913 66.1995C40.7347 67.7857 44.0266 68.6144 47.3702 68.6111L47.3704 68.6108ZM8.23383 125.938C7.16661 125.946 6.13919 125.533 5.37364 124.789C4.60808 124.046 4.16589 123.031 4.14264 121.964C4.00045 114.768 4.04565 99.6343 4.29981 92.0484C4.75697 89.8286 5.68355 87.7322 7.01741 85.8999C8.35128 84.0676 10.0616 82.5417 12.0335 81.4247C15.5308 80.5604 19.0506 79.7261 22.5927 78.9217L18.7468 89.408C18.6524 89.6655 18.611 89.9395 18.6253 90.2134C18.6396 90.4874 18.7093 90.7556 18.83 91.0018C18.9508 91.2481 19.1202 91.4674 19.328 91.6464C19.5358 91.8255 19.7778 91.9606 20.0392 92.0436L24.8515 93.5711L20.6653 98.6779C20.3631 99.0467 20.2002 99.51 20.2052 99.9868C20.2103 100.464 20.3828 100.923 20.6928 101.286L41.6469 125.778C30.4961 125.79 19.3265 125.836 8.23383 125.938ZM74.4018 97.0722V125.816C67.0345 125.796 59.625 125.783 52.1733 125.777L73.1927 101.289C73.5037 100.926 73.6771 100.466 73.6825 99.9886C73.688 99.5112 73.5251 99.0471 73.2224 98.6779L69.0373 93.5705L73.8498 92.043C74.1112 91.96 74.3531 91.8249 74.5609 91.6459C74.7687 91.4668 74.9381 91.2475 75.0588 91.0013C75.1796 90.755 75.2492 90.4868 75.2635 90.2129C75.2777 89.939 75.2364 89.665 75.1419 89.4075L71.296 78.9212C74.8314 79.725 78.3512 80.5593 81.8552 81.4239C83.7209 82.4812 85.3532 83.9052 86.6539 85.61C87.9546 87.3149 88.8968 89.2654 89.4237 91.344H80.1307C78.612 91.3455 77.1559 91.9494 76.0819 93.0233C75.008 94.0971 74.4039 95.5532 74.4023 97.0719L74.4018 97.0722ZM124.274 125.938C112.202 125.931 99.9242 125.893 88.0521 125.856L78.4648 125.827V97.3195L100.906 115.9C101.27 116.202 101.728 116.367 102.201 116.367C102.674 116.367 103.132 116.202 103.496 115.9L125.938 97.3195V124.273C125.937 124.714 125.762 125.137 125.45 125.449C125.138 125.761 124.715 125.937 124.274 125.938Z" fill="black"/>
</g>
<defs>
<clipPath id="clip0_216_6571">
<rect width="130" height="130" fill="white"/>
</clipPath>
</defs>
</svg>
