<svg width="56" height="60" viewBox="0 0 56 60" fill="none" xmlns="http://www.w3.org/2000/svg">
<path d="M8.92365 13.4494H30.3774C30.865 13.4494 31.3525 13.0837 31.3525 12.4742C31.3525 11.8647 30.9869 11.499 30.3774 11.499H8.92365C8.43607 11.499 7.94849 11.8647 7.94849 12.4742C7.94849 13.0837 8.43607 13.4494 8.92365 13.4494Z" fill="#8AC7FF" stroke="#004283"/>
<path d="M7.2165 20.276H21.3565C21.844 20.276 22.3316 19.9103 22.3316 19.3009C22.3316 18.6914 21.9659 18.3257 21.3565 18.3257H7.2165C6.72892 18.3257 6.24133 18.6914 6.24133 19.3009C6.24133 19.9103 6.72892 20.276 7.2165 20.276Z" fill="#8AC7FF" stroke="#004283"/>
<path d="M26.3541 19.3009C26.3541 19.7884 26.7198 20.276 27.3293 20.276H32.0832C32.5708 20.276 33.0584 19.9103 33.0584 19.3009C33.0584 18.6914 32.6927 18.3257 32.0832 18.3257H27.3293C26.8417 18.4476 26.3541 18.8133 26.3541 19.3009Z" fill="#8AC7FF" stroke="#004283"/>
<path d="M7.2165 26.9801H21.3565C21.844 26.9801 22.3316 26.6144 22.3316 26.005C22.3316 25.3955 21.9659 25.0298 21.3565 25.0298H7.2165C6.72892 25.0298 6.24133 25.3955 6.24133 26.005C6.24133 26.6144 6.72892 26.9801 7.2165 26.9801Z" fill="#8AC7FF" stroke="#004283"/>
<path d="M32.0832 25.1519H27.3293C26.8417 25.1519 26.3541 25.5175 26.3541 26.127C26.3541 26.7365 26.7198 27.1022 27.3293 27.1022H32.0832C32.5708 27.1022 33.0584 26.7365 33.0584 26.127C33.0584 25.5175 32.5708 25.1519 32.0832 25.1519Z" fill="#8AC7FF" stroke="#004283"/>
<path d="M7.2165 33.6842H21.3565C21.844 33.6842 22.3316 33.3185 22.3316 32.7091C22.3316 32.0996 21.9659 31.7339 21.3565 31.7339H7.2165C6.72892 31.7339 6.24133 32.0996 6.24133 32.7091C6.24133 33.3185 6.72892 33.6842 7.2165 33.6842Z" fill="#8AC7FF" stroke="#004283"/>
<path d="M32.0832 31.8564H27.3293C26.8417 31.8564 26.3541 32.2221 26.3541 32.8316C26.3541 33.4411 26.7198 33.8068 27.3293 33.8068H32.0832C32.5708 33.8068 33.0584 33.4411 33.0584 32.8316C33.0584 32.2221 32.5708 31.8564 32.0832 31.8564Z" fill="#8AC7FF" stroke="#004283"/>
<path d="M40.9819 31.7341C40.0068 31.7341 39.1535 31.856 38.3002 31.9779V4.42936C38.3002 2.47903 35.9842 1.38196 34.5214 2.60092L33.1806 3.69799C33.0587 3.81988 32.8149 3.81988 32.5711 3.69799L29.8894 1.50386C29.0361 0.772479 27.8172 0.894375 26.9639 1.50386L24.2822 3.69799C24.0384 3.81988 23.9165 3.81988 23.6727 3.69799L20.991 1.62575C20.1377 0.894375 18.9187 0.894375 18.0655 1.62575L15.3837 3.81988C15.14 3.94178 15.0181 3.94178 14.7743 3.81988L12.0926 1.74765C11.2393 1.01627 10.0203 1.01627 9.16704 1.74765L6.72912 3.69799C6.48533 3.81988 6.36343 3.81988 6.11964 3.69799L4.77878 2.60092C3.31603 1.38196 1 2.47903 1 4.42936V53.6754C1 55.6258 3.19413 56.7228 4.77878 55.5039L5.99774 54.4068C6.11964 54.2849 6.36343 54.2849 6.60722 54.4068L9.28894 56.479C10.1422 57.2104 11.3612 57.2104 12.2144 56.479L14.8962 54.2849C15.0181 54.163 15.2619 54.163 15.5056 54.2849L18.1874 56.3571C19.0406 57.0885 20.2596 57.0885 21.1129 56.3571L23.7946 54.163C23.9165 54.0411 24.1603 54.0411 24.4041 54.163L27.0858 56.2352C27.4515 56.6009 28.0609 56.7228 28.5485 56.7228C29.0361 56.7228 29.5237 56.6009 30.0113 56.2352L31.3521 55.2601C33.912 57.698 37.3251 59.2826 41.1038 59.2826C48.7833 59.2826 55 53.0659 55 45.3865C54.8781 37.9508 48.5395 31.7341 40.9819 31.7341ZM40.9819 44.777C43.298 44.777 45.2483 46.4835 45.2483 48.6777C45.2483 50.5061 43.7856 52.0908 41.8352 52.4565V53.4316C41.8352 53.9192 41.4695 54.4068 40.86 54.4068C40.3725 54.4068 39.8849 54.0411 39.8849 53.4316V52.4565C37.9345 52.0908 36.5937 50.5061 36.5937 48.6777C36.5937 48.1901 36.9594 47.7025 37.5689 47.7025C38.0564 47.7025 38.544 48.0682 38.544 48.6777C38.544 49.7747 39.6411 50.628 40.9819 50.628C42.3228 50.628 43.4199 49.7747 43.4199 48.6777C43.4199 47.5806 42.3228 46.6054 40.9819 46.6054C38.6659 46.6054 36.7156 44.8989 36.7156 42.8267C36.7156 40.9982 38.1783 39.4136 40.0068 39.0479V38.0727C40.0068 37.5851 40.3725 37.0975 40.9819 37.0975C41.4695 37.0975 41.9571 37.4632 41.9571 38.0727V39.0479C43.9074 39.4136 45.3702 40.9982 45.3702 42.8267C45.3702 43.3142 45.0045 43.8018 44.395 43.8018C43.9074 43.8018 43.4199 43.4361 43.4199 42.8267C43.4199 41.7296 42.3228 40.7544 40.9819 40.7544C39.6411 40.7544 38.544 41.6077 38.544 42.8267C38.544 43.8018 39.6411 44.777 40.9819 44.777ZM28.7923 55.1382C28.5485 55.2601 28.3047 55.2601 28.1828 55.1382L25.5011 53.0659C24.6479 52.3346 23.4289 52.3346 22.5756 53.0659L19.8939 55.2601C19.6501 55.382 19.4063 55.382 19.2844 55.2601L16.6027 53.1878C15.7494 52.4565 14.5305 52.4565 13.6772 53.1878L10.9955 55.382C10.7517 55.5039 10.5079 55.5039 10.386 55.382L7.70429 53.3097C6.85102 52.5784 5.63205 52.5784 4.77878 53.3097L3.43792 54.2849C3.07223 54.5287 2.70655 54.2849 2.70655 53.9192V4.67316C2.70655 4.30747 3.19413 4.06368 3.43792 4.30747L4.65688 5.28264C5.51016 6.01401 6.72912 6.01401 7.58239 5.28264L10.2641 3.08851C10.386 2.96661 10.6298 2.96661 10.8736 3.08851L13.5553 5.16074C14.4086 5.89212 15.6275 5.89212 16.4808 5.16074L19.1625 2.96661C19.2844 2.84471 19.5282 2.84471 19.772 2.96661L22.4537 5.03885C23.307 5.77022 24.526 5.77022 25.3792 5.03885L28.0609 2.84471C28.1828 2.72282 28.4266 2.72282 28.6704 2.84471L31.3521 5.03885C32.2054 5.77022 33.4244 5.77022 34.1558 5.03885L35.4966 3.94178C35.8623 3.69799 36.228 3.94178 36.228 4.30747V32.3436C33.3025 33.3188 30.4989 35.5129 28.7923 38.4384H7.2167C6.72912 38.4384 6.24153 38.8041 6.24153 39.4136C6.24153 39.9011 6.60722 40.3887 7.2167 40.3887H28.1828C27.6953 41.6077 27.3296 43.1923 27.2077 44.4113V45.2646H7.2167C6.72912 45.2646 6.24153 45.6303 6.24153 46.2397C6.24153 46.7273 6.60722 47.2149 7.2167 47.2149H27.2077C27.2077 47.3368 27.2077 47.4587 27.3296 47.5806C27.6953 50.0185 28.6704 52.3346 30.1332 54.163L28.7923 55.1382Z" fill="#8AC7FF" stroke="#004283"/>
<ellipse cx="40.5" cy="45.5" rx="10.5" ry="11.5" fill="#8AC7FF"/>
<path d="M47.2051 38.7949C45.4028 36.9927 43.0215 36 40.5 36C37.9785 36 35.5972 36.9927 33.7949 38.7949C31.9927 40.5972 31 42.9785 31 45.5C31 48.0215 31.9927 50.4028 33.7949 52.2051C35.5972 54.0073 37.9785 55 40.5 55C43.0215 55 45.4028 54.0073 47.2051 52.2051C49.0073 50.4028 50 48.0215 50 45.5C50 42.9785 49.0073 40.5972 47.2051 38.7949ZM44.8622 41.1378H41.9541C42.2741 41.5594 42.4922 42.0538 42.6084 42.5918H44.8622V44.0459H42.6084C42.3322 45.3692 41.3724 46.416 40.0929 46.8087L44.615 50.7639L43.6554 51.8688L38.0426 46.9541H36.1378V45.5H39.0459C39.9911 45.5 40.8054 44.8892 41.0962 44.0459H36.1378V42.5918H41.0962C40.8054 41.7485 39.9911 41.1378 39.0459 41.1378H36.1378V39.6837H44.8622V41.1378Z" fill="#1E90FF"/>
</svg>
