<svg width="56" height="64" viewBox="0 0 61 64" fill="none" xmlns="http://www.w3.org/2000/svg">
<path fill-rule="evenodd" clip-rule="evenodd" d="M59.4086 29.3325V63.061H0.741425V29.3325H14.6737C15.7982 32.6127 18.0741 35.4044 21.0524 37.2806C22.0756 37.9256 22.6405 38.925 22.6405 40.086V49.4068C22.6405 51.432 24.2962 53.0877 26.3214 53.0877H33.9701C35.9953 53.0877 37.6498 51.432 37.6498 49.4068V39.8393C37.6498 38.7058 38.1871 37.7314 39.1716 37.0789C41.9958 35.2078 44.1525 32.4987 45.2372 29.3325H59.4086Z" fill="#8AC7FF"/>
<path fill-rule="evenodd" clip-rule="evenodd" d="M54.7709 23.9893V55.9355C46.3958 54.7006 38.1522 55.8228 30.0739 59.9721C21.9981 55.8228 13.7545 54.7006 5.37561 55.9355V23.9893C8.24497 23.5672 11.0993 23.4207 13.9361 23.5797C13.9098 23.9354 13.896 24.2936 13.896 24.6556C13.896 26.2875 14.1691 27.8593 14.6738 29.3322C15.7984 32.6124 18.0742 35.4041 21.0525 37.2803C22.0758 37.9253 22.6406 38.9247 22.6406 40.0857V49.4065C22.6406 51.4317 24.2964 53.0874 26.3216 53.0874H33.9703C35.9955 53.0874 37.65 51.4317 37.65 49.4065V39.839C37.65 38.7055 38.1873 37.7311 39.1717 37.0786C41.996 35.2075 44.1527 32.4984 45.2373 29.3322C45.742 27.8593 46.0151 26.2875 46.0151 24.6556C46.0151 24.2986 46.0025 23.9442 45.9762 23.5935C48.8907 23.4131 51.8227 23.5559 54.7709 23.9893Z" fill="#8AC7FF"/>
<path fill-rule="evenodd" clip-rule="evenodd" d="M20.8413 17.8091H39.3203V31.6683H20.8413V17.8091Z" fill="#8AC7FF"/>
<path d="M59.7764 28.3857H55.9957V23.8963C55.9957 23.4622 55.6775 23.0938 55.248 23.0305C52.4879 22.6239 49.7431 22.4746 47.0757 22.5839C46.0411 14.6375 38.871 8.46505 30.2069 8.46505C21.544 8.46505 14.3744 14.6334 13.3358 22.5759C10.7569 22.4853 8.09257 22.6365 5.40081 23.0304C4.97097 23.0933 4.65222 23.4619 4.65222 23.8963V28.3857H0.875211C0.391766 28.3857 0 28.7776 0 29.261V63.1248C0 63.6082 0.391891 64 0.875211 64H59.7764C60.2598 64 60.6516 63.6081 60.6516 63.1248V29.261C60.6516 28.7776 60.2598 28.3857 59.7764 28.3857ZM54.2452 24.6586V54.9683C50.2259 54.4654 46.271 54.511 42.4752 55.1055C38.6363 55.7067 34.8499 56.8881 31.1992 58.6185V53.9867H34.2359C36.7564 53.9867 38.8069 51.9362 38.8069 49.4157V47.6832H51.7791C52.2626 47.6832 52.6543 47.2913 52.6543 46.808C52.6543 46.3247 52.2624 45.9328 51.7791 45.9328H38.8069V45.7201V43.9946H51.7791C52.2626 43.9946 52.6543 43.6027 52.6543 43.1194C52.6543 42.6361 52.2624 42.2442 51.7791 42.2442H38.8069V40.3061H51.7791C52.2626 40.3061 52.6543 39.9142 52.6543 39.4308C52.6543 38.9475 52.2624 38.5556 51.7791 38.5556H39.1574C39.3459 38.2549 39.6083 37.9902 39.9422 37.7687C44.4897 34.7565 47.2047 29.8209 47.2047 24.5664C47.2047 24.4878 47.2027 24.4097 47.2015 24.3313C49.5022 24.2398 51.8643 24.349 54.2452 24.6586ZM23.7369 46.5951H37.0563V49.4156C37.0563 50.9708 35.7911 52.2361 34.2358 52.2361H26.5574C25.0023 52.2361 23.7369 50.9709 23.7369 49.4156V46.5951ZM30.2071 10.2155C38.6142 10.2155 45.4541 16.6531 45.4541 24.566C45.4541 29.232 43.0323 33.6219 38.9753 36.3094C37.8769 37.0375 37.2178 38.0994 37.0834 39.3337C37.0827 39.3398 37.0822 39.3461 37.0817 39.3523C37.0661 39.5025 37.0566 39.6547 37.0566 39.8097V44.8447H23.7369V40.0577C23.7369 39.8173 23.7152 39.5819 23.6763 39.3518C23.6713 39.2958 23.6608 39.2415 23.6457 39.189C23.4148 38.0921 22.7471 37.1396 21.7334 36.5C17.4898 33.8283 14.9564 29.367 14.9564 24.566C14.9564 24.2299 14.9696 23.8966 14.9939 23.5662C14.9949 23.5556 14.9967 23.5452 14.9973 23.5344C14.9977 23.5276 14.9972 23.5211 14.9974 23.5143C15.5719 16.0905 22.1737 10.2155 30.2071 10.2155ZM6.40289 24.6591C8.71266 24.3601 10.9951 24.2477 13.2093 24.3213C13.2081 24.4028 13.2061 24.4841 13.2061 24.5659C13.2061 29.9721 16.0454 34.987 20.8002 37.9806C21.0633 38.1467 21.2832 38.3396 21.4606 38.5551H8.6315C8.14806 38.5551 7.75629 38.947 7.75629 39.4303C7.75629 39.9137 8.14818 40.3056 8.6315 40.3056H21.9864V42.2437H8.6315C8.14806 42.2437 7.75629 42.6356 7.75629 43.1189C7.75629 43.6022 8.14818 43.9941 8.6315 43.9941H21.9864V45.7196V45.9323H8.6315C8.14806 45.9323 7.75629 46.3242 7.75629 46.8075C7.75629 47.2908 8.14818 47.6827 8.6315 47.6827H21.9864V49.4152C21.9864 51.9357 24.0369 53.9862 26.5573 53.9862H29.4486V58.6157C25.7994 56.8856 22.0135 55.7063 18.174 55.105C14.3776 54.5101 10.4228 54.4645 6.40277 54.9678L6.40289 24.6591ZM58.9012 62.2496H1.75042V30.1363H4.65235V55.9709C4.65235 56.2253 4.76306 56.4672 4.95569 56.6335C5.14819 56.7998 5.40369 56.8738 5.65531 56.8369C14.3101 55.5605 22.2481 56.8578 29.9239 60.8031C29.9344 60.8085 29.9455 60.8124 29.9562 60.8173C29.97 60.8237 29.9837 60.8299 29.9979 60.8356C30.0194 60.8442 30.0412 60.8516 30.0632 60.8585C30.0767 60.8627 30.0901 60.8673 30.1039 60.8709C30.128 60.8772 30.1526 60.8818 30.1771 60.8859C30.1893 60.888 30.2013 60.8908 30.2136 60.8924C30.2475 60.8968 30.2817 60.8991 30.316 60.8994C30.3189 60.8994 30.3218 60.9001 30.3247 60.9001C30.3619 60.9001 30.3992 60.8972 30.4364 60.8923C30.4458 60.8911 30.455 60.8888 30.4644 60.8873C30.4916 60.8829 30.5187 60.8776 30.5456 60.8705C30.5586 60.867 30.5714 60.8627 30.5843 60.8587C30.6067 60.8517 30.6291 60.844 30.6513 60.8349C30.666 60.8291 30.6804 60.8225 30.6946 60.8158C30.7043 60.8113 30.7142 60.8079 30.7238 60.803C38.4022 56.858 46.3407 55.5606 54.9926 56.8367C55.2445 56.8737 55.4998 56.7995 55.6923 56.6334C55.8849 56.467 55.9956 56.2253 55.9956 55.9708V30.1363H58.901V62.2496H58.9012ZM29.4558 5.98821V0.875211C29.4558 0.391766 29.8477 0 30.3311 0C30.8145 0 31.2063 0.391891 31.2063 0.875211V5.98821C31.2063 6.47165 30.8144 6.86342 30.3311 6.86342C29.8476 6.86354 29.4558 6.47165 29.4558 5.98821ZM38.9063 8.04886L41.4611 3.62308C41.7025 3.20439 42.2378 3.06086 42.6565 3.30258C43.0752 3.54418 43.2186 4.07948 42.977 4.49804L40.4223 8.92382C40.2603 9.20475 39.966 9.36168 39.6634 9.36168C39.515 9.36168 39.3646 9.32385 39.2268 9.2442C38.8081 9.00273 38.6646 8.46743 38.9063 8.04886ZM45.7379 15.7553C45.4962 15.3367 45.6396 14.8014 46.0584 14.5598L50.4842 12.0051C50.9026 11.7634 51.4379 11.9069 51.6797 12.3255C51.9214 12.744 51.778 13.2793 51.3592 13.5209L46.9333 16.0758C46.7955 16.1553 46.6451 16.1933 46.4967 16.1933C46.1941 16.1932 45.9 16.0362 45.7379 15.7553ZM8.98632 12.3256C9.22779 11.9068 9.76309 11.7634 10.1818 12.0052L14.6076 14.56C15.0263 14.8016 15.1697 15.3369 14.9281 15.7554C14.7661 16.0364 14.4718 16.1933 14.1692 16.1933C14.0208 16.1933 13.8704 16.1555 13.7326 16.0758L9.30682 13.5211C8.888 13.2795 8.7446 12.7442 8.98632 12.3256ZM17.6855 4.49855C17.4435 4.0801 17.5866 3.54468 18.0052 3.30283C18.4239 3.06073 18.9592 3.20414 19.2009 3.62258L21.7592 8.04836C22.0011 8.4668 21.8579 9.00223 21.4394 9.24407C21.3015 9.32373 21.1509 9.3618 21.0023 9.3618C20.7 9.3618 20.4059 9.205 20.2437 8.92445L17.6855 4.49855ZM7.75629 50.5C7.75629 50.0165 8.14818 49.6248 8.6315 49.6248H18.7443C19.2277 49.6248 19.6195 50.0167 19.6195 50.5C19.6195 50.9833 19.2276 51.3752 18.7443 51.3752H8.6315C8.14818 51.3752 7.75629 50.9833 7.75629 50.5ZM21.0545 32.482H39.6076C40.091 32.482 40.4828 32.0901 40.4828 31.6068V17.6918C40.4828 17.2084 40.0909 16.8166 39.6076 16.8166H36.0784V15.3959C36.0784 14.4444 35.3058 13.6702 34.3563 13.6702H26.2384C25.2889 13.6702 24.5163 14.4444 24.5163 15.3959V16.8166H21.0544C20.571 16.8166 20.1792 17.2085 20.1792 17.6918V31.6068C20.1793 32.0901 20.5711 32.482 21.0545 32.482ZM21.9298 30.7315V23.7734C22.515 24.1467 23.2089 24.364 23.953 24.364H27.5388V25.4306C27.5388 25.914 27.9307 26.3058 28.4141 26.3058H32.2479C32.7314 26.3058 33.1231 25.9139 33.1231 25.4306V24.364H36.7089C37.453 24.364 38.147 24.1466 38.7321 23.7734V30.7315H21.9298ZM31.3728 24.5554H29.2894V22.426H31.3728V24.5554ZM26.2669 15.4208H34.3279V16.8166H26.2669V15.4208ZM21.9298 18.5672H38.7322V20.5904C38.7322 21.7059 37.8246 22.6136 36.709 22.6136H33.1233V21.5508C33.1233 21.0673 32.7314 20.6755 32.248 20.6755H28.4142C27.9307 20.6755 27.539 21.0674 27.539 21.5508V22.6136H23.9531C22.8375 22.6136 21.9299 21.7059 21.9299 20.5904V18.5672H21.9298ZM52.6543 50.5C52.6543 50.9834 52.2624 51.3752 51.7791 51.3752H41.6663C41.1829 51.3752 40.7911 50.9833 40.7911 50.5C40.7911 50.0167 41.183 49.6248 41.6663 49.6248H51.7791C52.2624 49.6246 52.6543 50.0165 52.6543 50.5Z" fill="#035CB4"/>
</svg>
