<svg width="53" height="53" viewBox="0 0 53 53" fill="none" xmlns="http://www.w3.org/2000/svg">
<path d="M51.5879 1.32243C50.6807 0.438386 49.4842 -0.0308052 48.2152 0.00210963C45.7141 0.0665937 43.6794 2.1867 43.6794 4.72829V17.7957C42.0293 17.2297 40.1018 17.6119 38.7876 18.9259L27.2143 30.4993C26.9538 30.7597 26.7154 31.0362 26.4974 31.3254C26.2794 31.0361 26.0408 30.7597 25.7804 30.4991L14.1616 18.8802C12.8548 17.5734 10.9582 17.207 9.32059 17.7811L9.3357 4.66101C9.3357 3.3941 8.83598 2.20937 7.92854 1.32512C7.02142 0.441077 5.82448 -0.027493 4.55601 0.00480078C2.0549 0.0691814 0.0201836 2.18929 0.0201836 4.72922L0 23.405C0 24.9933 0.449215 26.542 1.2991 27.8838L10.6427 42.6355C10.9145 43.0648 11.0582 43.5603 11.0582 44.0686V51.4478C11.0582 52.3052 11.7534 53.0004 12.6108 53.0004H40.3843C41.2418 53.0004 41.9369 52.3052 41.9369 51.4478V44.2C41.9369 43.6059 42.105 43.0265 42.4228 42.5244L51.696 27.8837C52.5458 26.5419 52.995 24.9933 52.995 23.4049V4.65832C52.9949 3.39151 52.4951 2.20678 51.5879 1.32243ZM13.2658 40.9739L3.92225 26.2222C3.38764 25.3782 3.10507 24.4041 3.10507 23.4066L3.12536 4.73087C3.12536 3.85801 3.80301 3.13036 4.63602 3.10894C5.05729 3.09745 5.459 3.25426 5.76144 3.54884C6.06399 3.84373 6.23053 4.2387 6.23053 4.65925L6.21035 22.1713C6.21024 22.1728 6.21024 22.1744 6.21035 22.176V22.2238C6.21035 22.2402 6.21231 22.2562 6.21273 22.2725C6.23767 23.4796 6.71814 24.611 7.57455 25.4673L13.2377 31.1304C13.8439 31.7368 14.827 31.7368 15.4333 31.1304C16.0397 30.5241 16.0397 29.5411 15.4333 28.9348L9.77022 23.2715C8.37082 21.7614 10.4571 19.6771 11.9659 21.0758L23.5847 32.6946C24.4618 33.5719 24.9449 34.7428 24.9449 35.9917V49.8952H14.1633V44.0686C14.1633 42.9711 13.8529 41.901 13.2658 40.9739ZM49.8898 23.405C49.8898 24.404 49.6073 25.3782 49.0726 26.2222L39.7993 40.8631C39.1663 41.8628 38.8315 43.0167 38.8315 44.2V49.8952H28.0501V35.9917C28.0501 34.7428 28.5331 33.5719 29.4101 32.6947L40.9833 21.1215C41.5976 20.5073 42.5887 20.473 43.1927 21.0446C43.5008 21.3362 43.6735 21.7295 43.6793 22.1521C43.6851 22.5751 43.5237 22.9726 43.2243 23.272L37.5616 28.9383C36.9556 29.5447 36.9558 30.5278 37.5623 31.1339C38.1687 31.74 39.1517 31.7399 39.7581 31.1332L45.4204 25.4672C46.2798 24.6078 46.7592 23.4768 46.7825 22.2678C46.7829 22.2536 46.7847 22.2397 46.7847 22.2254V4.72829C46.7847 3.85542 47.4624 3.12778 48.2953 3.10635C48.719 3.09445 49.1185 3.25157 49.4208 3.54635C49.7233 3.84114 49.8899 4.23612 49.8899 4.65842V23.405H49.8898Z" fill="#1B65AD"/>
<path d="M15.7159 14.777C17.1599 19.298 21.474 22.6579 26.5062 22.6429C32.7449 22.6381 37.8188 17.5613 37.8188 11.3216C37.881 5.15281 32.6576 -0.0358336 26.4974 0.000186422C20.2546 0.000186422 15.1759 5.07901 15.1759 11.3216C15.1699 12.3934 15.3705 13.7243 15.7159 14.777ZM27.3651 19.4917C25.9819 17.0079 32.6076 15.1179 34.6757 10.5402C35.1313 15.016 31.7568 19.0569 27.3651 19.4917ZM32.4863 5.70522C32.7722 9.55698 30.4256 11.3652 27.9453 13.2741C26.5989 14.3103 25.3271 15.289 24.6193 16.5957C24.1737 17.4182 24.0017 18.2821 24.1024 19.1808C21.7333 18.4574 19.8168 16.6902 18.8887 14.4175C20.5224 11.7666 22.2899 11.4393 24.154 11.0948C25.5929 10.8289 27.224 10.5273 28.471 9.10786C29.451 7.99238 30.0316 6.3867 30.2823 4.03277C31.1092 4.46377 31.8537 5.03108 32.4863 5.70522ZM26.4975 3.10536C26.7494 3.10536 26.9982 3.1185 27.2445 3.14086C27.0927 5.07776 26.7224 6.39363 26.1384 7.05845C25.6265 7.64108 24.8746 7.8039 23.5898 8.04134C22.0709 8.32205 20.174 8.67459 18.3531 10.2524C18.879 6.22554 22.3295 3.10536 26.4975 3.10536Z" fill="#1B65AD"/>
</svg>
