<svg width="60" height="90" viewBox="0 0 60 90" fill="none" xmlns="http://www.w3.org/2000/svg">
<path d="M15.228 89.0516C23.3628 89.0516 29.9649 82.4613 29.9649 74.3412V59.6309H15.228C7.09331 59.6309 0.491211 66.2211 0.491211 74.3412C0.491211 82.4613 7.09331 89.0516 15.228 89.0516Z" fill="#0ACF83"/>
<path d="M0.491211 44.9203C0.491211 36.8002 7.09331 30.21 15.228 30.21H29.9649V59.6307H15.228C7.09331 59.6307 0.491211 53.0404 0.491211 44.9203Z" fill="#A259FF"/>
<path d="M0.491211 15.4999C0.491211 7.37979 7.09331 0.789551 15.228 0.789551H29.9649V30.2103H15.228C7.09331 30.2103 0.491211 23.62 0.491211 15.4999Z" fill="#F24E1E"/>
<path d="M29.9648 0.789551H44.7017C52.8364 0.789551 59.4385 7.37979 59.4385 15.4999C59.4385 23.62 52.8364 30.2103 44.7017 30.2103H29.9648V0.789551Z" fill="#FF7262"/>
<path d="M59.4385 44.9203C59.4385 53.0404 52.8364 59.6307 44.7017 59.6307C36.5669 59.6307 29.9648 53.0404 29.9648 44.9203C29.9648 36.8002 36.5669 30.21 44.7017 30.21C52.8364 30.21 59.4385 36.8002 59.4385 44.9203Z" fill="#1ABCFE"/>
</svg>
