<svg width="131" height="131" viewBox="0 0 131 131" fill="none" xmlns="http://www.w3.org/2000/svg">
<path d="M71.8999 126.372L72.3218 130.572C73.7491 130.431 75.161 130.245 76.5574 130.013L75.8697 125.849C74.5577 126.067 73.2344 126.241 71.8999 126.372Z" fill="black"/>
<path d="M79.7826 125.071L80.7445 129.178C82.1219 128.855 83.512 128.482 84.8725 128.068L83.6406 124.033C82.375 124.42 81.089 124.766 79.7826 125.071Z" fill="black"/>
<path d="M87.4248 122.746L88.914 126.693C90.2324 126.195 91.5592 125.638 92.8564 125.054L91.1099 121.215C89.9005 121.759 88.6721 122.27 87.4248 122.746Z" fill="black"/>
<path d="M6.95223 47.4016L2.91488 46.176C2.50566 47.5239 2.1323 48.9182 1.80957 50.3041L5.91863 51.2617C6.21957 49.9609 6.5641 48.6742 6.95223 47.4016Z" fill="black"/>
<path d="M9.77032 39.9197L5.92915 38.1731C5.34063 39.4683 4.79008 40.7993 4.29016 42.1261L8.2368 43.6026C8.7093 42.3567 9.22047 41.129 9.77032 39.9197Z" fill="black"/>
<path d="M5.14027 55.1829L0.978471 54.4995C0.749253 55.8973 0.564331 57.3092 0.423706 58.7351L4.62136 59.157C4.75214 57.8154 4.92511 56.4908 5.14027 55.1829Z" fill="black"/>
<path d="M43.8894 7.93517L42.4002 3.98853C41.0818 4.48634 39.755 5.04321 38.4578 5.62751L40.2043 9.46657C41.4137 8.91813 42.6421 8.40767 43.8894 7.93517Z" fill="black"/>
<path d="M36.6248 11.2406L34.6314 7.52173C33.3742 8.19392 32.1424 8.90759 30.9358 9.66274L33.1675 13.2487C34.2967 12.5399 35.4492 11.8706 36.6248 11.2406Z" fill="black"/>
<path d="M59.4145 4.30703L58.9989 0.109375C57.5716 0.25 56.1597 0.436328 54.7633 0.668359L55.451 4.83016C56.7574 4.615 58.0785 4.44063 59.4145 4.30703Z" fill="black"/>
<path d="M29.8516 15.4657L27.3879 12.04C26.2291 12.8711 25.1006 13.7388 24.0023 14.643L26.6876 17.902C27.7113 17.0568 28.766 16.2447 29.8516 15.4657Z" fill="black"/>
<path d="M13.546 32.8723L9.96011 30.6384C9.20636 31.845 8.49269 33.079 7.81909 34.3404L11.5358 36.3316C12.1728 35.1546 12.8429 34.0015 13.546 32.8723Z" fill="black"/>
<path d="M18.2099 26.3753L14.9509 23.6985C14.0467 24.7982 13.1783 25.9274 12.3458 27.0861L15.7736 29.5478C16.5526 28.4622 17.3647 27.4047 18.2099 26.3753Z" fill="black"/>
<path d="M23.6732 20.5428L20.7812 17.4631C19.7406 18.4377 18.7337 19.4452 17.7606 20.4859L20.8403 23.3694C21.7558 22.3977 22.7001 21.4555 23.6732 20.5428Z" fill="black"/>
<path d="M51.5296 5.61062L50.5698 1.50366C49.1924 1.82429 47.8023 2.19765 46.4418 2.61319L47.6694 6.64843C48.9393 6.26311 50.226 5.91718 51.5296 5.61062Z" fill="black"/>
<path d="M113.104 104.312L116.363 106.991C117.269 105.893 118.137 104.764 118.968 103.604L115.541 101.142C114.763 102.221 113.951 103.277 113.104 104.312Z" fill="black"/>
<path d="M101.465 115.216L103.926 118.641C105.084 117.809 106.212 116.941 107.312 116.036L104.635 112.78C103.606 113.623 102.549 114.435 101.465 115.216Z" fill="black"/>
<path d="M107.641 110.139L110.525 113.218C111.565 112.244 112.572 111.236 113.545 110.196L110.466 107.312C109.556 108.284 108.611 109.227 107.641 110.139Z" fill="black"/>
<path d="M117.768 97.8094L121.354 100.041C122.106 98.8345 122.82 97.6013 123.495 96.3413L119.778 94.3479C119.141 95.5249 118.471 96.6788 117.768 97.8094Z" fill="black"/>
<path d="M124.362 83.2799L128.399 84.5055C128.809 83.1576 129.18 81.7633 129.505 80.3753L125.406 79.4219C125.095 80.7227 124.747 82.0087 124.362 83.2799Z" fill="black"/>
<path d="M126.174 75.4984L130.336 76.1819C130.565 74.7841 130.75 73.3715 130.891 71.9441L126.693 71.5349C126.562 72.868 126.389 74.1892 126.174 75.4984Z" fill="black"/>
<path d="M121.544 90.7618L125.385 92.5063C125.972 91.2111 126.524 89.8822 127.024 88.5554L123.077 87.0789C122.605 88.322 122.094 89.5496 121.544 90.7618Z" fill="black"/>
<path d="M94.6896 119.441L96.6829 123.158C97.9401 122.484 99.172 121.77 100.379 121.017L98.1468 117.431C97.019 118.141 95.8666 118.811 94.6896 119.441Z" fill="black"/>
<path d="M4.32812 65.5H0.109375C0.128916 82.8367 7.02454 99.4577 19.2834 111.717C31.5423 123.975 48.1633 130.871 65.5 130.891V126.672C49.2819 126.653 33.7333 120.203 22.2653 108.735C10.7973 97.2667 4.34655 81.7181 4.32812 65.5Z" fill="black"/>
<path d="M126.672 65.5H130.891C130.871 48.1633 123.975 31.5423 111.717 19.2834C99.4577 7.02454 82.8367 0.128916 65.5 0.109375V4.32812C81.7181 4.34655 97.2667 10.7973 108.735 22.2653C120.203 33.7333 126.653 49.2819 126.672 65.5Z" fill="black"/>
<path d="M120.344 65.5C120.344 54.653 117.127 44.0495 111.101 35.0305C105.075 26.0115 96.5092 18.982 86.4878 14.831C76.4664 10.68 65.4392 9.59392 54.8005 11.7101C44.1619 13.8262 34.3897 19.0496 26.7196 26.7196C19.0496 34.3897 13.8262 44.1619 11.7101 54.8005C9.59392 65.4392 10.68 76.4664 14.831 86.4878C18.982 96.5092 26.0115 105.075 35.0305 111.101C44.0495 117.127 54.653 120.344 65.5 120.344C80.0405 120.328 93.9808 114.544 104.263 104.263C114.544 93.9808 120.328 80.0405 120.344 65.5ZM65.5 116.125C55.4873 116.125 45.6995 113.156 37.3743 107.593C29.049 102.03 22.5603 94.1239 18.7286 84.8734C14.8969 75.6229 13.8944 65.4439 15.8478 55.6236C17.8011 45.8033 22.6227 36.7828 29.7027 29.7027C36.7828 22.6227 45.8033 17.8011 55.6236 15.8478C65.4439 13.8944 75.6229 14.8969 84.8734 18.7286C94.1239 22.5603 102.03 29.049 107.593 37.3743C113.156 45.6995 116.125 55.4873 116.125 65.5C116.109 78.9218 110.771 91.7894 101.28 101.28C91.7894 110.771 78.9218 116.109 65.5 116.125Z" fill="black"/>
<path d="M97.1406 46.5156C97.1408 46.1236 97.0318 45.7394 96.8257 45.4059C96.6197 45.0724 96.3248 44.803 95.9742 44.6277L66.4429 29.8621C66.1501 29.7158 65.8273 29.6396 65.5 29.6396C65.1727 29.6396 64.8499 29.7158 64.5571 29.8621L35.0259 44.6277C34.6749 44.8027 34.3796 45.072 34.1732 45.4055C33.9668 45.739 33.8574 46.1234 33.8574 46.5156C33.8574 46.9078 33.9668 47.2923 34.1732 47.6257C34.3796 47.9592 34.6749 48.2286 35.0259 48.4035L43.9085 52.8438L35.0259 57.284C34.6749 57.4589 34.3796 57.7283 34.1732 58.0618C33.9668 58.3953 33.8574 58.7797 33.8574 59.1719C33.8574 59.5641 33.9668 59.9485 34.1732 60.282C34.3796 60.6155 34.6749 60.8848 35.0259 61.0598L43.9085 65.5L35.0259 69.9297C34.6749 70.1046 34.3796 70.374 34.1732 70.7075C33.9668 71.041 33.8574 71.4254 33.8574 71.8176C33.8574 72.2098 33.9668 72.5942 34.1732 72.9277C34.3796 73.2612 34.6749 73.5305 35.0259 73.7055L43.9085 78.1562L35.0259 82.5859C34.6749 82.7609 34.3796 83.0302 34.1732 83.3637C33.9668 83.6972 33.8574 84.0816 33.8574 84.4738C33.8574 84.866 33.9668 85.2505 34.1732 85.5839C34.3796 85.9174 34.6749 86.1868 35.0259 86.3617L64.5571 101.127C64.8499 101.274 65.1727 101.35 65.5 101.35C65.8273 101.35 66.1501 101.274 66.4429 101.127L95.9742 86.3617C96.3252 86.1868 96.6205 85.9174 96.8269 85.5839C97.0333 85.2505 97.1426 84.866 97.1426 84.4738C97.1426 84.0816 97.0333 83.6972 96.8269 83.3637C96.6205 83.0302 96.3252 82.7609 95.9742 82.5859L87.0916 78.1562L95.9742 73.7266C96.3252 73.5516 96.6205 73.2823 96.8269 72.9488C97.0333 72.6153 97.1426 72.2309 97.1426 71.8387C97.1426 71.4465 97.0333 71.062 96.8269 70.7286C96.6205 70.3951 96.3252 70.1257 95.9742 69.9508L87.0916 65.5L95.9742 61.0703C96.3252 60.8954 96.6205 60.626 96.8269 60.2925C97.0333 59.9591 97.1426 59.5746 97.1426 59.1824C97.1426 58.7902 97.0333 58.4058 96.8269 58.0723C96.6205 57.7388 96.3252 57.4695 95.9742 57.2945L87.0916 52.8438L95.9742 48.4141C96.3264 48.2381 96.6224 47.9669 96.8285 47.6314C97.0347 47.2959 97.1428 46.9094 97.1406 46.5156ZM90.3147 84.4844L65.5 96.8917L40.6853 84.4844L48.625 80.5145L64.5571 88.4922C64.8499 88.6385 65.1727 88.7147 65.5 88.7147C65.8273 88.7147 66.1501 88.6385 66.4429 88.4922L82.375 80.5145L90.3147 84.4844ZM90.3147 71.8281L65.5 84.2355L40.6853 71.8281L48.625 67.8583L64.5571 75.8359C64.8499 75.9822 65.1727 76.0584 65.5 76.0584C65.8273 76.0584 66.1501 75.9822 66.4429 75.8359L82.375 67.8583L90.3147 71.8281ZM90.3147 59.1719L65.5 71.5792L40.6853 59.1719L48.625 55.202L64.5571 63.1797C64.8499 63.326 65.1727 63.4022 65.5 63.4022C65.8273 63.4022 66.1501 63.326 66.4429 63.1797L82.375 55.202L90.3147 59.1719ZM65.5 58.923L40.6853 46.5156L65.5 34.1083L90.3147 46.5156L65.5 58.923Z" fill="black"/>
</svg>
