<svg width="131" height="131" viewBox="0 0 128 128" fill="none" xmlns="http://www.w3.org/2000/svg">
<g clip-path="url(#clip0_216_1255)">
<path d="M102.197 27.8017C101.311 21.1683 98.3701 14.9788 93.7878 10.1014C89.2054 5.2239 83.2112 1.90318 76.646 0.604953C70.0808 -0.69327 63.2739 0.0961388 57.18 2.86245C51.0862 5.62877 46.0111 10.2332 42.6666 16.03C39.7712 15.0154 36.6775 14.6975 33.6362 15.102C29.3614 15.6898 25.4096 17.7019 22.4196 20.813C19.4296 23.9242 17.576 27.9528 17.1584 32.2476C17.0042 33.8632 17.0479 35.4916 17.2885 37.0966C11.8068 38.5945 7.05492 42.0305 3.91498 46.7668C0.77504 51.5032 -0.53959 57.218 0.215165 62.8502C0.969921 68.4825 3.74278 73.6495 8.01894 77.3921C12.2951 81.1346 17.784 83.1983 23.4666 83.2001H32.0149L26.1184 85.6257C25.3472 85.966 24.6916 86.5232 24.2313 87.2294C23.7711 87.9356 23.526 88.7603 23.526 89.6033C23.526 90.4462 23.7711 91.271 24.2313 91.9772C24.6916 92.6834 25.3472 93.2405 26.1184 93.5809L39.7952 99.2001L26.1162 104.824C25.3533 105.172 24.7065 105.732 24.253 106.437C23.7996 107.143 23.5584 107.964 23.5584 108.802C23.5584 109.641 23.7996 110.462 24.253 111.167C24.7065 111.873 25.3533 112.433 26.1162 112.781L62.4618 127.714C63.4763 128.087 64.5917 128.078 65.6 127.689L101.884 112.777C102.656 112.437 103.313 111.88 103.775 111.174C104.236 110.467 104.482 109.642 104.482 108.798C104.482 107.954 104.236 107.129 103.775 106.422C103.313 105.716 102.656 105.159 101.884 104.819L88.2048 99.2001L101.882 93.5788C102.651 93.237 103.305 92.6794 103.764 91.9733C104.223 91.2673 104.468 90.4433 104.468 89.6012C104.468 88.759 104.223 87.935 103.764 87.229C103.305 86.5229 102.651 85.9653 101.882 85.6236L95.985 83.2001H100.267C107.452 83.1965 114.356 80.404 119.524 75.4109C124.691 70.4178 127.719 63.614 127.969 56.4327C128.219 49.2514 125.673 42.2533 120.865 36.9126C116.058 31.5719 109.365 28.3055 102.197 27.8017ZM100.267 108.838L64.0213 123.75L27.7333 108.77L45.3994 101.517L62.4661 108.527C63.4817 108.893 64.5947 108.884 65.6042 108.501L82.5962 101.519L100.267 108.838ZM100.267 89.6385L64.0213 104.548L27.7333 89.5702L45.3994 82.3169L62.3829 89.2972C63.4142 89.7091 64.5644 89.7091 65.5957 89.2972L82.5877 82.3169L100.267 89.6385ZM42.6666 68.2668H85.3333C87.2477 68.2583 89.1025 67.6001 90.5941 66.4001L100.267 70.4342L64.0213 85.3441L27.7333 70.366L37.3994 66.3958C38.8923 67.5985 40.7496 68.2582 42.6666 68.2668ZM38.4 59.7334V38.4001C38.4 37.2685 38.8495 36.1833 39.6496 35.3831C40.4498 34.5829 41.535 34.1334 42.6666 34.1334H85.3333C86.4649 34.1334 87.5501 34.5829 88.3503 35.3831C89.1504 36.1833 89.6 37.2685 89.6 38.4001V59.7334C89.6 60.865 89.1504 61.9503 88.3503 62.7504C87.5501 63.5506 86.4649 64.0001 85.3333 64.0001H42.6666C41.535 64.0001 40.4498 63.5506 39.6496 62.7504C38.8495 61.9503 38.4 60.865 38.4 59.7334ZM100.267 78.9334H90.8053L101.899 74.3766C102.667 74.0335 103.319 73.4754 103.777 72.7695C104.235 72.0637 104.478 71.2403 104.478 70.399C104.478 69.5577 104.235 68.7344 103.777 68.0285C103.319 67.3227 102.667 66.7645 101.899 66.4214L93.2608 62.8716C93.6608 61.8737 93.8664 60.8085 93.8666 59.7334V38.4001C93.8666 36.1369 92.9676 33.9664 91.3673 32.3661C89.767 30.7658 87.5965 29.8668 85.3333 29.8668H42.6666C40.4034 29.8668 38.233 30.7658 36.6326 32.3661C35.0323 33.9664 34.1333 36.1369 34.1333 38.4001V59.7334C34.1369 60.8092 34.3461 61.8744 34.7498 62.8716L26.1034 66.4236C25.336 66.7673 24.6844 67.3257 24.2272 68.0315C23.77 68.7373 23.5267 69.5602 23.5267 70.4012C23.5267 71.2421 23.77 72.065 24.2272 72.7708C24.6844 73.4766 25.336 74.035 26.1034 74.3788L37.1946 78.9334H23.4666C18.7492 78.927 14.1993 77.1842 10.6848 74.0373C7.17041 70.8905 4.93749 66.5599 4.41208 61.8719C3.88667 57.1838 5.10556 52.4664 7.83619 48.6197C10.5668 44.7729 14.6181 42.0661 19.217 41.0156C20.0294 40.8203 20.7354 40.3199 21.1887 39.618C21.6419 38.9161 21.8075 38.0667 21.6512 37.246C21.343 35.7311 21.2617 34.1788 21.4101 32.6401C21.7333 29.3077 23.1706 26.1816 25.4897 23.7669C27.8088 21.3522 30.8743 19.7899 34.1909 19.3324C36.8388 18.9803 39.5327 19.3297 42.0032 20.3457C42.732 20.6229 43.5367 20.6257 44.2674 20.3538C44.9982 20.0818 45.6052 19.5535 45.9754 18.8673C48.7933 13.6385 53.2129 9.45058 58.5856 6.91802C63.9584 4.38546 70.0014 3.64163 75.828 4.79567C81.6545 5.94972 86.9578 8.94088 90.9595 13.3302C94.9613 17.7196 97.4509 23.276 98.0629 29.1841C98.1498 29.9458 98.5073 30.651 99.0703 31.1713C99.6333 31.6916 100.364 31.9925 101.131 32.0193C107.26 32.2665 113.05 34.9043 117.258 39.3677C121.467 43.8311 123.761 49.7652 123.648 55.899C123.535 62.0327 121.024 67.8784 116.654 72.1838C112.284 76.4892 106.401 78.9121 100.267 78.9334Z" fill="black"/>
<path d="M51.825 56.975C52.2274 57.3636 52.7663 57.5786 53.3256 57.5737C53.885 57.5689 54.42 57.3445 54.8156 56.949C55.2111 56.5534 55.4355 56.0184 55.4403 55.459C55.4452 54.8997 55.2302 54.3608 54.8416 53.9584L49.9498 49.0667L54.8416 44.175C55.2302 43.7726 55.4452 43.2337 55.4403 42.6744C55.4355 42.115 55.2111 41.5799 54.8156 41.1844C54.42 40.7889 53.885 40.5645 53.3256 40.5597C52.7663 40.5548 52.2274 40.7698 51.825 41.1584L45.425 47.5584C45.0251 47.9585 44.8004 48.501 44.8004 49.0667C44.8004 49.6324 45.0251 50.1749 45.425 50.575L51.825 56.975Z" fill="black"/>
<path d="M73.1584 56.975C73.5585 57.3749 74.101 57.5996 74.6667 57.5996C75.2324 57.5996 75.7749 57.3749 76.175 56.975L82.575 50.575C82.9749 50.1749 83.1996 49.6324 83.1996 49.0667C83.1996 48.501 82.9749 47.9585 82.575 47.5584L76.175 41.1584C75.7726 40.7698 75.2337 40.5548 74.6744 40.5597C74.115 40.5645 73.5799 40.7889 73.1844 41.1844C72.7889 41.5799 72.5645 42.115 72.5597 42.6744C72.5548 43.2337 72.7698 43.7726 73.1584 44.175L78.0502 49.0667L73.1584 53.9584C72.7585 54.3585 72.5338 54.901 72.5338 55.4667C72.5338 56.0324 72.7585 56.5749 73.1584 56.975Z" fill="black"/>
<path d="M61.1925 57.4911C61.7292 57.6694 62.3147 57.6273 62.8203 57.3741C63.3259 57.1209 63.7103 56.6773 63.889 56.1407L68.1557 43.3407C68.3345 42.8032 68.2924 42.2167 68.0388 41.7102C67.9132 41.4594 67.7394 41.2358 67.5274 41.0522C67.3154 40.8686 67.0693 40.7285 66.8032 40.6399C66.2657 40.4611 65.6792 40.5032 65.1727 40.7569C64.6662 41.0105 64.2812 41.455 64.1024 41.9925L59.8357 54.7925C59.7473 55.0587 59.7122 55.3399 59.7325 55.6197C59.7529 55.8995 59.8282 56.1726 59.9543 56.4233C60.0803 56.674 60.2545 56.8973 60.467 57.0806C60.6795 57.2638 60.926 57.4033 61.1925 57.4911Z" fill="black"/>
</g>
<defs>
<clipPath id="clip0_216_1255">
<rect width="128" height="128" fill="white"/>
</clipPath>
</defs>
</svg>
