<svg width="60" height="60" viewBox="0 0 41 41" fill="none" xmlns="http://www.w3.org/2000/svg">
<path d="M20.5 41C9.20074 41 0 31.7996 0 20.5C0 9.20082 9.20074 7.76939e-05 20.5 7.76939e-05C25.9399 -0.0149369 31.16 2.14681 34.9966 6.00378L35.6919 6.6991L28.7855 13.5937L28.0898 12.898C24.7988 9.61265 19.7671 8.81902 15.6245 10.9318C11.4819 13.0446 9.17 17.584 9.89749 22.177C10.6246 26.7701 14.226 30.3729 18.8187 31.1025C23.4114 31.8321 27.9519 29.5228 30.0668 25.3812H19.5237V15.6192H40.4265L40.5852 16.4C40.8601 17.7495 40.9992 19.123 40.9999 20.5C40.9999 31.7996 31.7995 41 20.5 41ZM20.5 1.95269C10.2743 1.95269 1.95226 10.2744 1.95226 20.5C1.95226 30.7257 10.2743 39.0477 20.5 39.0477C30.7256 39.0477 39.0477 30.7257 39.0477 20.5C39.0469 19.5194 38.9694 18.5403 38.8157 17.5715H21.4763V23.4286H32.9221L32.4584 24.7342C30.5994 29.9753 25.5445 33.3958 19.9877 33.172C14.4312 32.9486 9.66763 29.1334 8.23552 23.7596C6.80341 18.3862 9.03701 12.7064 13.7452 9.74743C18.4537 6.78812 24.5403 7.23927 28.7609 10.8603L32.9099 6.71161C29.5098 3.6354 25.0848 1.93839 20.5 1.95269Z" fill="black"/>
</svg>
