<svg width="73" height="51" viewBox="0 0 73 51" fill="none" xmlns="http://www.w3.org/2000/svg">
<path d="M71.4492 15.7821L38.5179 0.904095C36.8368 0.229294 34.958 0.240893 33.2854 0.936397L1.52922 15.7621C0.122367 16.4187 -0.00851355 17.398 0.000394726 17.7884C0.00930871 18.1791 0.18586 19.1518 1.62223 19.7435L16.539 25.8846C16.539 25.8846 16.5507 37.0775 16.569 37.1588C17.2008 41.9794 35.6992 42.0394 36.5001 42.0394C37.301 42.0394 55.7994 41.9794 56.4311 37.1588C56.4495 37.0775 56.4612 25.8862 56.4612 25.8862L62.7346 23.3034V40.4204C61.4927 40.6527 60.3799 41.3343 59.6087 42.3351C58.8375 43.336 58.4621 44.5858 58.5541 45.8459C58.6461 47.106 59.1991 48.2881 60.1074 49.1663C61.0158 50.0445 62.2159 50.5573 63.4784 50.6067C64.7409 50.6561 65.9773 50.2387 66.9515 49.4341C67.9257 48.6296 68.5694 47.4944 68.7596 46.2453C68.9498 44.9963 68.6732 43.7209 67.9826 42.6629C67.292 41.6048 66.2359 40.8383 65.0159 40.5097V22.3642L71.3818 19.7432C72.8227 19.1501 72.9936 18.1794 72.9998 17.7896C73.0065 17.3997 72.8689 16.424 71.4492 15.7821ZM54.1799 27.9719C52.9531 27.431 51.6711 27.0254 50.3564 26.7623C50.0614 26.6976 49.7527 26.7524 49.4981 26.915C49.2435 27.0775 49.0637 27.3343 48.9983 27.6292C48.9328 27.9241 48.9869 28.2329 49.1488 28.4879C49.3107 28.7429 49.5672 28.9233 49.8619 28.9895C52.9729 29.68 54.0111 30.4279 54.1799 30.6922V34.2841C49.0799 31.8117 37.1399 31.7743 36.5001 31.7743C35.8603 31.7743 23.9203 31.8117 18.8203 34.2841V30.6078C19.0707 30.3588 20.0013 29.6684 23.0603 28.9895C23.3551 28.9233 23.6115 28.7429 23.7734 28.4879C23.9353 28.2329 23.9894 27.9241 23.924 27.6292C23.8585 27.3343 23.6787 27.0775 23.4241 26.915C23.1695 26.7525 22.8608 26.6976 22.5658 26.7623C21.2792 27.0216 20.0237 27.4164 18.8203 27.9402V19.8546C19.4218 18.7962 25.7493 16.9469 36.5001 16.9469C47.2509 16.9469 53.5784 18.7962 54.1799 19.8546V27.9719ZM36.5001 39.7583C25.9381 39.7583 19.6451 37.9734 18.857 36.9069C19.6451 35.8404 25.9381 34.0555 36.5001 34.0555C47.0621 34.0555 53.3551 35.8404 54.1431 36.9069C53.3551 37.9734 47.0621 39.7583 36.5001 39.7583ZM66.5369 45.4612C66.537 46.0251 66.3697 46.5765 66.0564 47.0454C65.7431 47.5144 65.2978 47.8799 64.7767 48.0958C64.2557 48.3116 63.6823 48.3681 63.1291 48.2581C62.576 48.1481 62.0679 47.8765 61.6691 47.4777C61.2703 47.0789 60.9987 46.5708 60.8886 46.0177C60.7786 45.4645 60.835 44.8911 61.0509 44.3701C61.2667 43.849 61.6322 43.4037 62.1011 43.0903C62.5701 42.777 63.1214 42.6097 63.6854 42.6097C64.4414 42.6106 65.1661 42.9113 65.7007 43.4458C66.2353 43.9804 66.536 44.7052 66.5369 45.4612ZM56.4612 23.4192V19.7984C56.4612 14.7243 37.3149 14.6658 36.5001 14.6658C35.6853 14.6658 16.539 14.7243 16.539 19.7984V23.4175L2.71441 17.7261L34.25 3.00309C35.3198 2.5891 36.5042 2.58197 37.5789 2.98304L70.2485 17.7431L56.4612 23.4192Z" fill="#1455FE"/>
</svg>
