<svg width="81" height="100" viewBox="0 0 81 100" fill="none" xmlns="http://www.w3.org/2000/svg">
<path d="M65.4827 55.0726H56.9812V51.388C56.9812 47.1494 53.5062 43.6992 49.2325 43.6992H31.7717C27.5001 43.6992 24.023 47.1473 24.023 51.388V55.0726H15.5215C12.2033 55.0726 9.50403 57.751 9.50403 61.0436V94.029C9.50403 97.3216 12.2033 100 15.5215 100H65.4847C68.8029 100 71.5022 97.3216 71.5022 94.029V61.0436C71.5001 57.751 68.8008 55.0726 65.4827 55.0726ZM26.532 51.388C26.532 48.5207 28.8821 46.1888 31.7717 46.1888H49.2325C52.1221 46.1888 54.4722 48.5207 54.4722 51.388V55.0726H26.532V51.388ZM68.9911 94.029C68.9911 95.9481 67.4167 97.5104 65.4827 97.5104H15.5194C13.5854 97.5104 12.011 95.9481 12.011 94.029V75.1535C14.3235 78.2303 18.0201 80.2282 22.1767 80.2282H31.5752V80.7656C31.5752 82.5685 33.0534 84.0332 34.8704 84.0332H46.1296C47.9466 84.0332 49.4248 82.5664 49.4248 80.7656V80.2282H58.8233C62.982 80.2282 66.6765 78.2324 68.989 75.1535V94.029H68.9911ZM34.0863 80.7635V77.2012C34.0863 76.778 34.4459 76.4232 34.8724 76.4232H46.1317C46.5583 76.4232 46.9179 76.7801 46.9179 77.2012V80.7635C46.9179 81.1867 46.5583 81.5415 46.1317 81.5415H34.8724C34.4459 81.5436 34.0863 81.1867 34.0863 80.7635ZM58.8233 77.7386H49.4248V77.2033C49.4248 75.4004 47.9466 73.9357 46.1296 73.9357H34.8704C33.0534 73.9357 31.5752 75.4025 31.5752 77.2033V77.7386H22.1767C16.5711 77.7386 12.011 73.2137 12.011 67.6515V61.0456C12.011 59.1266 13.5854 57.5643 15.5194 57.5643H65.4827C67.4167 57.5643 68.9911 59.1266 68.9911 61.0456V67.6515C68.9911 73.2116 64.4289 77.7386 58.8233 77.7386ZM29.5303 18.444H33.7747V33.4627C33.7747 34.1494 34.3372 34.7075 35.0293 34.7075H45.9728C46.6649 34.7075 47.2273 34.1494 47.2273 33.4627V18.444H51.4718C51.936 18.444 52.3646 18.1888 52.582 17.7801C52.7995 17.3714 52.7702 16.8776 52.5089 16.4979L41.5381 0.543569C41.3039 0.20332 40.915 0 40.501 0C40.0871 0 39.6982 0.20332 39.464 0.543569L28.4932 16.4979C28.2319 16.8797 28.2026 17.3734 28.4201 17.7801C28.6375 18.1867 29.064 18.444 29.5303 18.444ZM40.501 3.45436L49.0966 15.9564H45.9728C45.2808 15.9564 44.7183 16.5145 44.7183 17.2012V32.2199H36.2838V17.1992C36.2838 16.5124 35.7213 15.9544 35.0293 15.9544H31.9055L40.501 3.45436ZM80.633 16.4959C80.3403 16.2054 79.92 16.0768 79.5123 16.1535L60.3851 19.7386C59.9272 19.8237 59.5572 20.1535 59.4192 20.5954C59.2812 21.0353 59.4024 21.5166 59.7307 21.8423L62.7332 24.8216L52.0321 35.4398C51.5429 35.9253 51.5429 36.7137 52.0321 37.1992L59.7704 44.8776C60.0067 45.112 60.3245 45.2427 60.6569 45.2427C60.9894 45.2427 61.3093 45.112 61.5435 44.8776L72.2445 34.2593L75.247 37.2386C75.5752 37.5643 76.0603 37.6846 76.5036 37.5477C76.9489 37.4108 77.2793 37.0436 77.3671 36.5892L80.978 17.61C81.0554 17.2012 80.9258 16.7863 80.633 16.4959ZM75.3432 33.8091L73.1331 31.6162C72.6439 31.1307 71.8493 31.1307 71.358 31.6162L60.6569 42.2344L54.6917 36.3154L65.3927 25.6971C65.6269 25.4647 65.7607 25.1473 65.7607 24.8174C65.7607 24.4876 65.629 24.1701 65.3927 23.9378L63.1827 21.7448L78.17 18.9357L75.3432 33.8091ZM20.3451 45.2407C20.6776 45.2407 20.9975 45.11 21.2317 44.8755L28.9699 37.1971C29.4592 36.7116 29.4592 35.9232 28.9699 35.4378L18.2689 24.8195L21.2714 21.8402C21.5997 21.5145 21.7209 21.0332 21.5829 20.5934C21.4449 20.1535 21.0749 19.8237 20.617 19.7365L1.48767 16.1515C1.07996 16.0747 0.661784 16.2033 0.366972 16.4938C0.074252 16.7842 -0.0553817 17.2012 0.0219801 17.6058L3.6329 36.5851C3.71862 37.0394 4.05107 37.4066 4.49642 37.5436C4.93969 37.6805 5.42476 37.5602 5.75303 37.2344L8.75551 34.2573L19.4565 44.8755C19.6928 45.11 20.0127 45.2407 20.3451 45.2407ZM8.75551 31.251C8.43351 31.251 8.11361 31.3734 7.86898 31.6162L5.65894 33.8091L2.82791 18.9378L17.8152 21.7469L15.6052 23.9398C15.371 24.1722 15.2372 24.4896 15.2372 24.8195C15.2372 25.1494 15.3689 25.4668 15.6052 25.6992L26.3062 36.3174L20.341 42.2365L9.63994 31.6183C9.3974 31.3734 9.0775 31.251 8.75551 31.251Z" fill="#5793CE"/>
</svg>
