<svg width="98" height="98" viewBox="0 0 98 98" fill="none" xmlns="http://www.w3.org/2000/svg">
<path d="M1.63369 97.9982H80.0335C80.9359 97.9982 81.6672 97.2669 81.6672 96.3652V81.665H93.1C94.0024 81.665 94.7337 80.9338 94.7337 80.0321V63.6982C94.7337 62.7965 94.0024 62.0653 93.1 62.0653H81.6672V47.3651C81.6672 46.4626 80.9359 45.7314 80.0335 45.7314H77.036C77.2663 44.6637 77.0226 43.5482 76.3683 42.6734L68.988 32.8354L72.3959 30.279C73.91 29.1455 74.7556 27.3287 74.6487 25.44L74.4849 22.4987C74.4401 21.7009 74.7974 20.9338 75.4367 20.4545L78.8439 17.8989L80.278 19.81C80.5374 20.1562 80.924 20.3857 81.3531 20.447C81.4294 20.4575 81.5064 20.4635 81.5842 20.4627C81.9378 20.4635 82.2818 20.3483 82.5644 20.136L96.0406 10.0266C98.2044 8.40333 98.6433 5.3326 97.0201 3.16806L96.1124 1.95681C94.4869 -0.204738 91.4177 -0.642133 89.2524 0.978844L75.7777 11.0875C75.0561 11.6288 74.9096 12.6532 75.4509 13.3747L76.8842 15.2858L73.477 17.8421C71.963 18.9756 71.1166 20.7917 71.2243 22.6803L71.3873 25.6217C71.4329 26.4195 71.0755 27.1874 70.4362 27.6659L67.029 30.2222L59.6479 20.3842C58.8755 19.3382 57.6209 18.7617 56.3237 18.8567C55.0863 18.9464 53.9805 19.6642 53.3935 20.758L39.9726 45.7314H1.63369C0.731234 45.7314 0 46.4626 0 47.3651V63.6982C0 64.6007 0.731234 65.3319 1.63369 65.3319H13.0665V78.3984H1.63369C0.731234 78.3984 0 79.1296 0 80.0321V96.3652C0 97.2669 0.731234 97.9982 1.63369 97.9982ZM91.2128 3.59125C91.9336 3.04992 92.9572 3.19572 93.4992 3.91724L94.4069 5.12848C94.9475 5.85 94.801 6.87283 94.0802 7.41415L81.9102 16.5441L79.0428 12.7205L91.2128 3.59125ZM29.4004 81.665H52.2668V94.7315H29.4004V81.665ZM42.4669 65.3319H65.3333V78.3984H42.4669V65.3319ZM78.4005 94.7315H55.5334V81.665H78.4005V94.7315ZM91.467 78.3984H68.5999V65.3319H91.467V78.3984ZM78.4005 62.0653H55.5334V52.554L72.2516 48.998H78.4005V62.0653ZM56.2721 22.3057C56.3274 22.1914 56.4426 22.1181 56.5697 22.1143L56.6018 22.1128C56.7753 22.1158 56.9361 22.2018 57.0347 22.3439L64.4144 32.1819L57.6763 37.237C56.9547 37.7783 56.8082 38.8019 57.3495 39.5241C57.8908 40.2456 58.9144 40.3914 59.6367 39.8509L66.3748 34.7958L73.7552 44.6338C73.8726 44.7774 73.907 44.971 73.8449 45.1452C73.806 45.2663 73.7036 45.3553 73.578 45.3777L41.1741 52.2684C40.973 52.2998 40.7711 52.2138 40.6553 52.0463C40.5252 51.8893 40.499 51.671 40.588 51.4871L56.2721 22.3057ZM38.0429 54.0068C38.9132 55.2038 40.407 55.7743 41.8538 55.4632L52.2668 53.2486V62.0653H29.4004V48.998H38.2163L37.7101 49.9401C37.0103 51.2433 37.1411 52.8351 38.0429 54.0068ZM3.26663 55.532H6.53325C7.43571 55.532 8.16694 54.8008 8.16694 53.8983C8.16694 52.9966 7.43571 52.2654 6.53325 52.2654H3.26663V48.998H26.1338V62.0653H3.26663V55.532ZM16.3331 65.3319H39.2003V78.3984H16.3331V65.3319ZM3.26663 81.665H26.1338V94.7315H3.26663V81.665Z" fill="#629AD1"/>
<path d="M21.2336 53.8986C21.2336 52.9969 20.5024 52.2656 19.5999 52.2656H13.0667C12.1649 52.2656 11.4337 52.9969 11.4337 53.8986C11.4337 54.801 12.1649 55.5323 13.0667 55.5323H19.5999C20.5024 55.5323 21.2336 54.801 21.2336 53.8986Z" fill="#629AD1"/>
</svg>
