<svg width="90" height="91" viewBox="0 0 90 91" fill="none" xmlns="http://www.w3.org/2000/svg">
<path d="M40.3577 57.3301H37.7347C36.6245 57.3301 35.7245 58.2317 35.7245 59.3436V90.0169H42.368V59.3436C42.368 58.2315 41.468 57.3301 40.3577 57.3301Z" fill="#629AD1"/>
<path d="M28.4493 45.7432H25.8263C24.716 45.7432 23.816 46.6447 23.816 47.7567V90.0167H30.4595V47.7567C30.4595 46.6446 29.5595 45.7432 28.4493 45.7432Z" fill="#629AD1"/>
<path d="M4.63324 57.3301H2.01023C0.9 57.3301 0 58.2317 0 59.3436V88.0034C0 89.1155 0.9 90.0169 2.01023 90.0169H6.64348V59.3436C6.64348 58.2315 5.74348 57.3301 4.63324 57.3301Z" fill="#629AD1"/>
<path d="M16.5417 33.79H13.9187C12.8084 33.79 11.9084 34.6916 11.9084 35.8036V90.0163H18.5519V35.8036C18.5519 34.6916 17.6519 33.79 16.5417 33.79Z" fill="#629AD1"/>
<path d="M87.9899 75.3433H85.3669C84.2567 75.3433 83.3567 76.2448 83.3567 77.3568V90.0168H87.9899C89.1002 90.0168 90.0002 89.1152 90.0002 88.0032V77.357C90.0002 76.2448 89.1002 75.3433 87.9899 75.3433Z" fill="#629AD1"/>
<path d="M76.0815 57.3301H73.4585C72.3482 57.3301 71.4482 58.2317 71.4482 59.3436V90.0169H78.0917V59.3436C78.0917 58.2315 77.1915 57.3301 76.0815 57.3301Z" fill="#629AD1"/>
<path d="M64.1738 64.3271H61.5508C60.4405 64.3271 59.5405 65.2287 59.5405 66.3407V90.0163H66.184V66.3407C66.184 65.2287 65.284 64.3271 64.1738 64.3271Z" fill="#629AD1"/>
<path d="M52.2654 33.79H49.6424C48.5322 33.79 47.6322 34.6916 47.6322 35.8036V90.0163H54.2757V35.8036C54.2757 34.6916 53.3757 33.79 52.2654 33.79Z" fill="#629AD1"/>
<path d="M2.63672 47.5693C4.09294 47.5693 5.27344 46.3874 5.27344 44.9294C5.27344 43.4715 4.09294 42.2896 2.63672 42.2896C1.1805 42.2896 0 43.4715 0 44.9294C0 46.3874 1.1805 47.5693 2.63672 47.5693Z" fill="#629AD1"/>
<path d="M2.63672 37.0498C4.09289 37.0498 5.27344 35.8678 5.27344 34.4099C5.27344 32.952 4.09289 31.77 2.63672 31.77C1.18055 31.77 0 32.952 0 34.4099C0 35.8678 1.18055 37.0498 2.63672 37.0498Z" fill="#629AD1"/>
<path d="M15.864 23.6794C15.864 22.2215 14.6835 21.0396 13.2273 21.0396C11.7711 21.0396 10.5906 22.2215 10.5906 23.6794C10.5906 25.1374 11.7711 26.3193 13.2273 26.3193C14.6835 26.3193 15.864 25.1374 15.864 23.6794Z" fill="#629AD1"/>
<path d="M13.2273 15.7998C14.6835 15.7998 15.864 14.6178 15.864 13.1599C15.864 11.702 14.6835 10.52 13.2273 10.52C11.7711 10.52 10.5906 11.702 10.5906 13.1599C10.5906 14.6178 11.7711 15.7998 13.2273 15.7998Z" fill="#629AD1"/>
<path d="M2.63672 26.5298C4.09289 26.5298 5.27344 25.3478 5.27344 23.8899C5.27344 22.432 4.09289 21.25 2.63672 21.25C1.18055 21.25 0 22.4318 0 23.8899C0 25.3478 1.18055 26.5298 2.63672 26.5298Z" fill="#629AD1"/>
<path d="M26.4553 23.6789C26.4553 22.221 25.2748 21.0391 23.8186 21.0391C22.3624 21.0391 21.1819 22.221 21.1819 23.6789C21.1819 25.1369 22.3624 26.3188 23.8186 26.3188C25.2748 26.3188 26.4553 25.1369 26.4553 23.6789Z" fill="#629AD1"/>
<path d="M34.4091 26.3188C35.8652 26.3188 37.0458 25.1369 37.0458 23.6789C37.0458 22.221 35.8652 21.0391 34.4091 21.0391C32.9529 21.0391 31.7723 22.221 31.7723 23.6789C31.7723 25.1369 32.9529 26.3188 34.4091 26.3188Z" fill="#629AD1"/>
<path d="M45.0004 21.0396C43.5442 21.0396 42.3636 22.2215 42.3636 23.6794C42.3636 25.1374 43.5442 26.3193 45.0004 26.3193C46.4565 26.3193 47.6371 25.1374 47.6371 23.6794C47.6371 22.2215 46.4565 21.0396 45.0004 21.0396Z" fill="#629AD1"/>
<path d="M55.5909 21.0396C54.1348 21.0396 52.9542 22.2215 52.9542 23.6794C52.9542 25.1374 54.1348 26.3193 55.5909 26.3193C57.0471 26.3193 58.2277 25.1374 58.2277 23.6794C58.2277 22.2215 57.0473 21.0396 55.5909 21.0396Z" fill="#629AD1"/>
<path d="M37.0458 34.4094C37.0458 32.9515 35.8652 31.7695 34.4091 31.7695C32.9529 31.7695 31.7723 32.9515 31.7723 34.4094C31.7723 35.8673 32.9529 37.0493 34.4091 37.0493C35.8652 37.0493 37.0458 35.8673 37.0458 34.4094Z" fill="#629AD1"/>
<path d="M23.8186 15.7998C25.2748 15.7998 26.4553 14.6178 26.4553 13.1599C26.4553 11.702 25.2748 10.52 23.8186 10.52C22.3624 10.52 21.1819 11.702 21.1819 13.1599C21.1819 14.6178 22.3624 15.7998 23.8186 15.7998Z" fill="#629AD1"/>
<path d="M55.5909 10.52C54.1348 10.52 52.9542 11.702 52.9542 13.1599C52.9542 14.6178 54.1348 15.7998 55.5909 15.7998C57.0471 15.7998 58.2277 14.6178 58.2277 13.1599C58.2277 11.702 57.0473 10.52 55.5909 10.52Z" fill="#629AD1"/>
<path d="M23.8186 5.27959C25.2748 5.27959 26.4553 4.09764 26.4553 2.63971C26.4553 1.18178 25.275 0 23.8186 0C22.3623 0 21.1819 1.18195 21.1819 2.63988C21.1819 4.09781 22.3624 5.27959 23.8186 5.27959Z" fill="#629AD1"/>
<path d="M66.1815 21.0396C64.7253 21.0396 63.5448 22.2215 63.5448 23.6794C63.5448 25.1374 64.7253 26.3193 66.1815 26.3193C67.6377 26.3193 68.8182 25.1374 68.8182 23.6794C68.8182 22.2215 67.6379 21.0396 66.1815 21.0396Z" fill="#629AD1"/>
<path d="M66.1815 31.77C64.7253 31.77 63.5448 32.952 63.5448 34.4099C63.5448 35.8678 64.7253 37.0498 66.1815 37.0498C67.6377 37.0498 68.8182 35.8678 68.8182 34.4099C68.8182 32.952 67.6379 31.77 66.1815 31.77Z" fill="#629AD1"/>
<path d="M66.1815 47.6748C67.6377 47.6748 68.8182 46.4929 68.8182 45.0349C68.8182 43.5769 67.6377 42.395 66.1815 42.395C64.7253 42.395 63.5448 43.5769 63.5448 45.0349C63.5448 46.4929 64.7253 47.6748 66.1815 47.6748Z" fill="#629AD1"/>
<path d="M66.1815 10.52C64.7253 10.52 63.5448 11.702 63.5448 13.1599C63.5448 14.6178 64.7253 15.7998 66.1815 15.7998C67.6377 15.7998 68.8182 14.6178 68.8182 13.1599C68.8182 11.702 67.6379 10.52 66.1815 10.52Z" fill="#629AD1"/>
<path d="M76.7728 21.0396C75.3167 21.0396 74.1361 22.2215 74.1361 23.6794C74.1361 25.1374 75.3167 26.3193 76.7728 26.3193C78.229 26.3193 79.4095 25.1374 79.4095 23.6794C79.4095 22.2215 78.2292 21.0396 76.7728 21.0396Z" fill="#629AD1"/>
<path d="M76.7728 31.77C75.3167 31.77 74.1361 32.952 74.1361 34.4099C74.1361 35.8678 75.3167 37.0498 76.7728 37.0498C78.229 37.0498 79.4095 35.8678 79.4095 34.4099C79.4095 32.952 78.2292 31.77 76.7728 31.77Z" fill="#629AD1"/>
<path d="M76.7728 47.6748C78.229 47.6748 79.4095 46.4929 79.4095 45.0349C79.4095 43.5769 78.229 42.395 76.7728 42.395C75.3166 42.395 74.1361 43.5769 74.1361 45.0349C74.1361 46.4929 75.3166 47.6748 76.7728 47.6748Z" fill="#629AD1"/>
<path d="M87.3634 37.0498C88.8196 37.0498 90.0001 35.8678 90.0001 34.4099C90.0001 32.952 88.8196 31.77 87.3634 31.77C85.9072 31.77 84.7267 32.952 84.7267 34.4099C84.7267 35.8678 85.9072 37.0498 87.3634 37.0498Z" fill="#629AD1"/>
<path d="M87.3634 47.6748C88.8196 47.6748 90.0001 46.4929 90.0001 45.0349C90.0001 43.5769 88.8196 42.395 87.3634 42.395C85.9072 42.395 84.7267 43.5769 84.7267 45.0349C84.7267 46.4929 85.9072 47.6748 87.3634 47.6748Z" fill="#629AD1"/>
<path d="M87.3634 52.6953C85.9072 52.6953 84.7267 53.8773 84.7267 55.3352C84.7267 56.7931 85.9072 57.9751 87.3634 57.9751C88.8196 57.9751 90.0001 56.7931 90.0001 55.3352C90.0001 53.8773 88.8198 52.6953 87.3634 52.6953Z" fill="#629AD1"/>
<path d="M76.7728 10.52C75.3167 10.52 74.1361 11.702 74.1361 13.1599C74.1361 14.6178 75.3167 15.7998 76.7728 15.7998C78.229 15.7998 79.4095 14.6178 79.4095 13.1599C79.4095 11.702 78.2292 10.52 76.7728 10.52Z" fill="#629AD1"/>
<path d="M66.1815 0C64.7253 0 63.5448 1.18195 63.5448 2.63988C63.5448 4.09781 64.7253 5.27977 66.1815 5.27977C67.6377 5.27977 68.8182 4.09781 68.8182 2.63988C68.8182 1.18195 67.6379 0 66.1815 0Z" fill="#629AD1"/>
</svg>
