<svg width="88" height="95" viewBox="0 0 88 95" fill="none" xmlns="http://www.w3.org/2000/svg">
<path d="M67.6674 94.8934C68.6028 94.8934 69.3613 94.1358 69.3613 93.1996V76.8583C69.3613 74.2878 70.5043 71.8942 72.4189 70.4568C101.584 48.4759 87.2091 2.01562 50.8046 0.0806789C29.2746 -1.37689 9.62159 17.1236 9.82082 38.6736C9.82049 38.6733 0.613544 53.4043 0.613544 53.4043C-0.163894 54.6465 -0.205258 56.2146 0.505206 57.4966C1.21567 58.7786 2.56791 59.5759 4.03349 59.5759H9.81719V73.7419C9.81719 78.5472 13.7259 82.4559 18.5304 82.4559H23.2099C26.1469 82.4559 28.5363 84.8445 28.5363 87.7822V93.1995C28.5682 95.4045 31.8842 95.4438 31.9239 93.1995V87.7822C31.9239 82.977 28.0152 79.0682 23.2099 79.0682H18.5304C15.5943 79.0682 13.2049 76.6796 13.2049 73.7419V57.882C13.2049 56.9458 12.4465 56.1882 11.511 56.1882H4.03349C3.70267 56.1882 3.53725 55.9797 3.46859 55.8557C3.39911 55.7316 3.31063 55.4802 3.48596 55.2006L12.9476 40.0611C13.1155 39.7923 13.2049 39.4813 13.2049 39.1637C13.2049 29.3109 17.1293 20.1353 24.2562 13.3277C46.0638 -7.8085 83.2894 7.1719 84.6478 37.4646C85.1988 49.3119 79.8667 60.6328 70.3852 67.7473C67.6228 69.8216 65.9736 73.2275 65.9736 76.8583V93.1995C65.9736 94.1358 66.732 94.8934 67.6674 94.8934Z" fill="#629AD1"/>
<path d="M49.1163 11.895C34.1728 11.895 22.0149 24.053 22.0149 38.9965C23.5035 74.948 74.7328 74.942 76.2178 38.9963C76.2178 33.3236 74.4801 27.893 71.1933 23.2929C70.6491 22.5295 69.5888 22.3533 68.8312 22.8992C68.0695 23.4426 67.8933 24.5004 68.4375 25.2613C79.6584 40.5364 68.0834 62.9643 49.1159 62.71C36.0404 62.7102 25.4026 52.0724 25.4026 38.9965C25.1528 20.0279 47.5738 8.45395 62.8517 19.6757C63.6099 20.2178 64.6702 20.0433 65.2136 19.2816C65.7578 18.5207 65.5816 17.4629 64.8199 16.9195C60.2197 13.6327 54.7892 11.895 49.1163 11.895Z" fill="#629AD1"/>
<path d="M61.3561 23.4964C61.3098 22.9952 61.0443 22.5411 60.6299 22.2558C57.2265 19.9102 53.245 18.6704 49.1163 18.6704C37.9087 18.6704 28.7902 27.7889 28.7902 38.9965C28.7902 43.1533 30.0308 47.1365 32.3789 50.5159C32.665 50.9278 33.1191 51.1924 33.6195 51.2371C34.116 51.2817 34.6131 51.103 34.9676 50.7475L60.8665 24.8478C61.2221 24.4922 61.4016 23.9967 61.3561 23.4964ZM34.0959 46.8288C26.5088 32.2234 42.3321 16.3841 56.9438 23.9804C56.9437 23.9802 34.0959 46.8288 34.0959 46.8288Z" fill="#629AD1"/>
<path d="M49.1158 59.322C60.3235 59.322 69.4419 50.2044 69.4419 38.9959C69.4419 34.8672 68.2021 30.8857 65.8566 27.4823C65.2922 26.6217 63.9824 26.5077 63.2645 27.2458C63.2645 27.2457 37.3656 53.1438 37.3656 53.1438C36.6249 53.8488 36.7403 55.1692 37.5964 55.7325C40.975 58.0814 44.9582 59.322 49.1158 59.322ZM64.1321 31.1685C71.7302 45.7866 55.8802 61.6037 41.2833 54.0153C41.2835 54.0155 64.1321 31.1685 64.1321 31.1685Z" fill="#629AD1"/>
</svg>
