<svg width="117" height="91" viewBox="0 0 117 91" fill="none" xmlns="http://www.w3.org/2000/svg">
<path fill-rule="evenodd" clip-rule="evenodd" d="M58.5008 21.9694C45.0681 21.9694 34.1368 32.898 34.1368 46.3328C34.1371 59.7653 45.0681 70.6936 58.5003 70.6936C71.9327 70.6936 82.8607 59.7653 82.8607 46.3328C82.861 32.898 71.9324 21.9697 58.5008 21.9694ZM58.5008 73.2479C43.6576 73.2479 31.5825 61.1728 31.5825 46.3328C31.5825 31.4904 43.6576 19.415 58.5003 19.415C73.3432 19.415 85.4154 31.4904 85.4154 46.3328C85.4156 61.1728 73.3427 73.2479 58.5008 73.2479Z" fill="#5793CE"/>
<path fill-rule="evenodd" clip-rule="evenodd" d="M84.0372 49.9247H79.3383C77.3583 49.9247 75.7456 48.3123 75.7456 46.3326C75.7459 44.3502 77.358 42.7402 79.338 42.7402H84.0372C84.7428 42.7402 85.3141 43.3124 85.3141 44.0177C85.3144 44.7229 84.7422 45.2949 84.037 45.2949H79.3383C78.7658 45.2949 78.2999 45.7604 78.2999 46.3326C78.3005 46.9048 78.7655 47.3704 79.338 47.3704H84.0372C84.7428 47.3704 85.3141 47.9426 85.3141 48.6476C85.3144 49.3528 84.7422 49.9247 84.0372 49.9247Z" fill="#5793CE"/>
<path fill-rule="evenodd" clip-rule="evenodd" d="M60.8155 73.1467C60.1102 73.1467 59.538 72.5747 59.538 71.8698L59.5383 67.1705C59.5383 66.5983 59.0722 66.1327 58.5003 66.1327C57.9283 66.1327 57.4625 66.5983 57.4625 67.1705V71.8698C57.4625 72.5747 56.8903 73.1469 56.1853 73.1469C55.4803 73.1467 54.9081 72.5747 54.9081 71.8698L54.9087 67.1705C54.9087 65.1908 56.5178 63.5781 58.5003 63.5781C60.48 63.5781 62.0924 65.1908 62.0924 67.1705L62.0929 71.8698C62.0929 72.5747 61.5202 73.1469 60.8155 73.1467Z" fill="#5793CE"/>
<path fill-rule="evenodd" clip-rule="evenodd" d="M37.6628 49.9247H32.9636C32.2583 49.9247 31.6864 49.3528 31.6864 48.6476C31.6867 47.9426 32.2583 47.3704 32.9636 47.3704H37.6628C38.2353 47.3704 38.7003 46.9048 38.7003 46.3326C38.7003 45.7604 38.2347 45.2949 37.6626 45.2949H32.9636C32.2583 45.2949 31.6864 44.7229 31.6864 44.0177C31.6867 43.3124 32.2583 42.7402 32.9636 42.7402H37.6628C39.6428 42.7402 41.2522 44.3502 41.2522 46.3326C41.2528 48.3123 39.6423 49.9247 37.6628 49.9247Z" fill="#5793CE"/>
<path fill-rule="evenodd" clip-rule="evenodd" d="M58.5008 44.5762C57.7956 44.5762 57.2228 44.0067 57.2228 43.299L57.2231 31.1812C57.2231 30.476 57.795 29.9038 58.5003 29.9038C59.2055 29.9038 59.7775 30.476 59.7775 31.1812L59.778 43.299C59.778 44.0067 59.2053 44.5762 58.5008 44.5762Z" fill="#5793CE"/>
<path fill-rule="evenodd" clip-rule="evenodd" d="M61.5739 35.5291C61.2465 35.5291 60.9191 35.4068 60.6689 35.1566L58.5008 32.9853L56.3316 35.1566C55.8317 35.6541 55.0223 35.6541 54.5249 35.1566C54.0248 34.6562 54.0245 33.85 54.5249 33.3499L57.5955 30.2765C57.8379 30.0369 58.1623 29.9038 58.5003 29.9038C58.8384 29.9038 59.1629 30.0369 59.4023 30.2765L62.4762 33.3499C62.9736 33.85 62.9733 34.6562 62.4756 35.1566C62.226 35.4068 61.8983 35.5291 61.5739 35.5291Z" fill="#5793CE"/>
<path fill-rule="evenodd" clip-rule="evenodd" d="M67.7603 31.5672C67.5449 31.5672 67.3239 31.5113 67.1241 31.3969C66.5128 31.043 66.302 30.2633 66.6559 29.6514L70.214 23.4888C70.5654 22.8793 71.347 22.6691 71.9592 23.0232C72.5686 23.3743 72.7786 24.1565 72.4247 24.766L68.8674 30.9286C68.6302 31.3383 68.2019 31.5672 67.7603 31.5672Z" fill="#5793CE"/>
<path fill-rule="evenodd" clip-rule="evenodd" d="M74.5432 38.3475C74.1011 38.3475 73.6728 38.1186 73.4361 37.7086C73.0822 37.0994 73.2922 36.317 73.9044 35.9632L80.0643 32.4056C80.6762 32.0542 81.4586 32.2644 81.8098 32.8739C82.1641 33.486 81.9533 34.2655 81.3415 34.6193L75.1821 38.1772C74.9796 38.294 74.7583 38.3475 74.5432 38.3475Z" fill="#5793CE"/>
<path fill-rule="evenodd" clip-rule="evenodd" d="M80.7032 60.4302C80.4878 60.4302 80.2665 60.3744 80.0643 60.2572L73.9044 56.6996C73.2925 56.3485 73.082 55.5661 73.4361 54.9542C73.7899 54.3448 74.5694 54.1345 75.1815 54.4883L81.342 58.0462C81.9539 58.3973 82.1636 59.1798 81.8098 59.7916C81.573 60.1986 81.1444 60.4302 80.7032 60.4302Z" fill="#5793CE"/>
<path fill-rule="evenodd" clip-rule="evenodd" d="M71.3209 69.8123C70.879 69.8123 70.4504 69.5837 70.2137 69.1737L66.6564 63.0138C66.3026 62.4019 66.5123 61.6195 67.1242 61.2683C67.7341 60.9142 68.5158 61.1245 68.8672 61.7339L72.4248 67.8966C72.7786 68.5087 72.5683 69.2882 71.9592 69.6423C71.7573 69.7591 71.536 69.8123 71.3209 69.8123Z" fill="#5793CE"/>
<path fill-rule="evenodd" clip-rule="evenodd" d="M45.6799 69.8122C45.4621 69.8122 45.2435 69.759 45.0414 69.6422C44.4325 69.288 44.2217 68.5086 44.5731 67.8964L48.1306 61.7338C48.485 61.1243 49.2642 60.9144 49.8761 61.2682C50.4882 61.6193 50.6958 62.4018 50.3444 63.0137L46.7871 69.1736C46.5501 69.5836 46.1218 69.8122 45.6799 69.8122Z" fill="#5793CE"/>
<path fill-rule="evenodd" clip-rule="evenodd" d="M36.2979 60.4302C35.8561 60.4302 35.4275 60.2013 35.1905 59.7916C34.837 59.1795 35.0469 58.3973 35.6564 58.0462L41.819 54.4883C42.4314 54.1345 43.2106 54.3448 43.5645 54.9542C43.9164 55.5661 43.7081 56.3485 43.0962 56.6996L36.9335 60.2572C36.7344 60.3744 36.513 60.4302 36.2979 60.4302Z" fill="#5793CE"/>
<path fill-rule="evenodd" clip-rule="evenodd" d="M42.4579 38.3475C42.2393 38.3475 42.0212 38.294 41.819 38.1772L35.6566 34.6193C35.0472 34.2655 34.8367 33.486 35.1905 32.8739C35.5422 32.2644 36.3241 32.0542 36.9335 32.4056L43.0967 35.9632C43.7086 36.317 43.9159 37.0994 43.5645 37.7086C43.3278 38.1186 42.8992 38.3475 42.4579 38.3475Z" fill="#5793CE"/>
<path fill-rule="evenodd" clip-rule="evenodd" d="M49.2408 31.5672C48.7987 31.5672 48.3674 31.3386 48.1306 30.9286L44.5731 24.766C44.2222 24.1565 44.4319 23.3743 45.0414 23.0232C45.6538 22.6691 46.433 22.8793 46.7868 23.4888L50.3446 29.6514C50.6961 30.2633 50.4882 31.043 49.8761 31.3969C49.6772 31.5113 49.4559 31.5672 49.2408 31.5672Z" fill="#5793CE"/>
<path fill-rule="evenodd" clip-rule="evenodd" d="M58.5008 44.5763C57.5321 44.5763 56.7467 45.3642 56.7467 46.3326C56.7473 47.2985 57.5316 48.0861 58.5003 48.0861C59.4665 48.0861 60.2538 47.2985 60.2538 46.3326C60.2538 45.3639 59.4663 44.5763 58.5008 44.5763ZM58.5008 50.6405C56.1246 50.6405 54.1924 48.7088 54.1924 46.3326C54.1927 43.9564 56.1241 42.022 58.5003 42.022C60.8765 42.0217 62.8082 43.9564 62.8082 46.3326C62.8084 48.7088 60.8765 50.6407 58.5008 50.6405Z" fill="#5793CE"/>
<path fill-rule="evenodd" clip-rule="evenodd" d="M48.0138 53.6633C47.572 53.6633 47.1434 53.4345 46.9067 53.0247C46.5555 52.4153 46.7628 51.6331 47.375 51.2793L55.2356 46.7423C55.8474 46.3884 56.6272 46.5987 56.981 47.2081C57.3321 47.82 57.1246 48.6021 56.5125 48.9536L48.6527 53.493C48.4502 53.6075 48.2316 53.6633 48.0138 53.6633Z" fill="#5793CE"/>
<path fill-rule="evenodd" clip-rule="evenodd" d="M52.2127 54.789C52.1012 54.789 51.9916 54.7758 51.8799 54.7466L47.684 53.6209C47.0028 53.4374 46.5979 52.7375 46.779 52.0563L47.905 47.8601C48.088 47.1762 48.7879 46.7746 49.4691 46.9554C50.1506 47.1389 50.5547 47.8388 50.3711 48.52L49.5782 51.4844L52.54 52.2773C53.2237 52.4609 53.6253 53.1607 53.4445 53.8419C53.2904 54.4139 52.7741 54.789 52.2127 54.789Z" fill="#5793CE"/>
<path fill-rule="evenodd" clip-rule="evenodd" d="M102.501 80.8978C103.207 80.8978 103.778 81.47 103.778 82.1752V86.1825L113.824 77.0741L103.778 67.9633V71.9706C103.778 72.6755 103.206 73.2477 102.501 73.2477H83.6543C83.6513 73.2477 83.6486 73.2477 83.6459 73.2477H58.5008C57.7956 73.2477 57.2228 72.6755 57.2228 71.9706C57.2231 71.2656 57.795 70.6934 58.5003 70.6934H83.1244C86.2807 67.5137 88.7522 63.8096 90.4736 59.6771C90.6949 59.1448 91.2428 58.8256 91.8201 58.9027L100.822 60.0922L102.03 55.5765L93.6352 52.1042C93.1005 51.8834 92.781 51.3326 92.8552 50.7604C93.2304 47.8228 93.2331 44.8425 92.8552 41.9022C92.7839 41.3303 93.103 40.7819 93.6349 40.5611L102.03 37.0858L100.822 32.5731L91.8228 33.7625C91.2482 33.837 90.6973 33.5204 90.4765 32.9855C89.3378 30.2554 87.8447 27.6744 86.0434 25.3168C85.6923 24.859 85.692 24.2204 86.0434 23.7627L91.5756 16.5596L88.2733 13.2546L81.0678 18.7895C80.6098 19.1406 79.9712 19.1406 79.5134 18.7895C77.1612 16.9882 74.5802 15.498 71.8447 14.3591C71.313 14.1356 70.9932 13.5847 71.0704 13.0125L72.2604 4.01078L67.7441 2.80001L64.2724 11.198C64.0513 11.73 63.5029 12.052 62.928 11.9775C59.9904 11.5996 57.0102 11.5996 54.0725 11.9775C53.4979 12.0495 52.9495 11.7302 52.7287 11.198L49.2562 2.80001L44.7407 4.01078L45.9304 13.0125C46.0076 13.5847 45.6881 14.1356 45.1558 14.3591C42.4209 15.4978 39.8393 16.9882 37.4871 18.7895C37.0269 19.1406 36.3908 19.1406 35.933 18.7895L28.7277 13.2546L25.4228 16.5596L30.955 23.7627C31.3058 24.2204 31.3085 24.859 30.9571 25.3168C29.1558 27.6744 27.663 30.2554 26.524 32.9882C26.3035 33.5204 25.7551 33.837 25.1777 33.7625L16.179 32.5731L14.9676 37.0858L23.3659 40.5611C23.8981 40.7819 24.2169 41.3303 24.1451 41.9022C23.7675 44.8425 23.7672 47.8228 24.1451 50.7604C24.2172 51.3326 23.9003 51.8834 23.3656 52.1042L14.9676 55.5765L16.179 60.0922L25.1804 58.9027C25.7551 58.8256 26.3032 59.1448 26.5267 59.6771C31.8273 72.3938 44.1898 80.7224 58.0266 80.8978H102.501ZM102.498 90.3441C102.325 90.3441 102.15 90.3068 101.982 90.235C101.52 90.0302 101.224 89.5724 101.224 89.0669L101.225 83.4524H58.0109C43.4692 83.2689 30.4516 74.7114 24.5575 61.561L15.4019 62.7691C14.7631 62.8544 14.1668 62.4552 14.0019 61.8352L12.2111 55.1562C12.046 54.5363 12.3653 53.8896 12.9561 53.6448L21.5003 50.1113C21.2453 47.5993 21.2447 45.066 21.4976 42.554L12.9561 39.0178C12.3658 38.773 12.046 38.1263 12.2111 37.509L14.0019 30.8301C14.1674 30.2101 14.7628 29.8085 15.4014 29.8935L24.5553 31.1043C25.5907 28.7972 26.8592 26.6021 28.3412 24.553L22.7168 17.2276C22.3252 16.7194 22.3705 15.9982 22.8253 15.5458L27.7135 10.6576C28.1685 10.2029 28.887 10.1575 29.3952 10.5459L36.7236 16.1739C38.77 14.6916 40.9648 13.4252 43.2719 12.3901L42.0617 3.23374C41.9788 2.59785 42.3777 1.99921 42.9977 1.8316L49.6772 0.0432377C50.2966 -0.121672 50.9406 0.19762 51.1881 0.788434L54.7217 9.33C57.2339 9.0771 59.7669 9.0771 62.2786 9.33L65.8127 0.788434C66.0578 0.19762 66.7039 -0.121672 67.3239 0.0432377L74.0031 1.8316C74.6228 1.99921 75.0217 2.59785 74.9367 3.23374L73.7289 12.3899C76.0333 13.4252 78.2309 14.6919 80.2773 16.1739L87.6056 10.5459C88.1141 10.1575 88.832 10.2029 89.2871 10.6579L94.1753 15.5458C94.6279 15.9982 94.6754 16.7194 94.2843 17.2276L88.6593 24.553C90.1411 26.6021 91.4104 28.7999 92.443 31.1043L101.599 29.8935C102.235 29.8085 102.834 30.2101 102.999 30.8301L104.79 37.509C104.955 38.1263 104.635 38.773 104.044 39.0178L95.5002 42.554C95.7558 45.066 95.7558 47.5993 95.5002 50.1113L104.045 53.6448C104.635 53.8896 104.955 54.5363 104.789 55.1562L102.999 61.835C102.834 62.4552 102.235 62.8544 101.599 62.7691L92.4433 61.561C90.95 64.8924 88.997 67.9498 86.6102 70.6934H101.225V65.0816C101.225 64.5758 101.519 64.118 101.982 63.9132C102.446 63.7083 102.983 63.7936 103.358 64.1342L116.58 76.127C116.849 76.3691 117 76.7122 117 77.0741C117.001 77.4333 116.849 77.7767 116.58 78.0188L103.358 90.0116C103.119 90.2299 102.81 90.3441 102.498 90.3441Z" fill="#5793CE"/>
<path fill-rule="evenodd" clip-rule="evenodd" d="M14.4996 90.3442C14.1882 90.3442 13.8821 90.23 13.6427 90.0116L0.418077 78.0189C0.152224 77.7768 0 77.4334 0 77.0742C0 76.7123 0.151684 76.3692 0.417807 76.1271L13.6427 64.1343C14.0152 63.7937 14.5552 63.7084 15.0181 63.9133C15.4791 64.1181 15.7765 64.5759 15.7765 65.0817L15.7771 70.6935H33.3576C34.0629 70.6935 34.6318 71.2657 34.6318 71.9706C34.6321 72.6756 34.0623 73.2478 33.3574 73.2478H14.4996C13.7944 73.2478 13.2222 72.6756 13.2222 71.9706L13.2225 67.9634L3.17728 77.0742L13.2225 86.1826V82.1753C13.2225 81.4701 13.7941 80.8979 14.4994 80.8979H58.0109C58.7162 80.8979 59.2878 81.4701 59.2878 82.1753C59.2881 82.8803 58.7157 83.4525 58.0107 83.4525H15.7771V89.067C15.7771 89.5725 15.4786 90.0303 15.0181 90.2351C14.851 90.3069 14.6751 90.3442 14.4996 90.3442Z" fill="#5793CE"/>
<path fill-rule="evenodd" clip-rule="evenodd" d="M58.5008 29.0844C56.5178 29.0844 54.9081 27.4744 54.9081 25.492L54.9087 20.7955C54.9087 20.0905 55.4801 19.5186 56.1853 19.5186C56.8908 19.5183 57.4625 20.0905 57.4625 20.7957V25.492C57.4625 26.0669 57.9281 26.5325 58.5003 26.5325C59.0724 26.5325 59.538 26.0669 59.538 25.492L59.5383 20.7955C59.5383 20.0905 60.1099 19.5186 60.8152 19.5186C61.5207 19.5183 62.0924 20.0905 62.0924 20.7957L62.0929 25.492C62.0929 27.4744 60.48 29.0844 58.5008 29.0844Z" fill="#5793CE"/>
</svg>
