<svg width="39" height="39" viewBox="0 0 39 39" fill="none" xmlns="http://www.w3.org/2000/svg">
<path d="M8.95672 10.1511C10.7481 10.1511 12.241 8.65823 12.241 6.8668C12.241 5.07537 10.7481 3.58252 8.95672 3.58252C7.16529 3.58252 5.67244 5.07537 5.67244 6.8668C5.67244 8.65823 7.16529 10.1511 8.95672 10.1511ZM8.95672 4.7768C10.0913 4.7768 11.0467 5.73223 11.0467 6.8668C11.0467 8.00137 10.0913 8.9568 8.95672 8.9568C7.82215 8.9568 6.86672 8.00137 6.86672 6.8668C6.86672 5.73223 7.82215 4.7768 8.95672 4.7768Z" fill="black"/>
<path d="M4.77662 19.7052C5.1349 19.7052 5.37376 19.4663 5.37376 19.108V11.9423H12.5395V19.108C12.5395 19.4663 12.7783 19.7052 13.1366 19.7052C13.4949 19.7052 13.7337 19.4663 13.7337 19.108V11.3452C13.7337 10.9869 13.4949 10.748 13.1366 10.748H4.77662C4.41833 10.748 4.17947 10.9869 4.17947 11.3452V19.108C4.17947 19.4663 4.41833 19.7052 4.77662 19.7052Z" fill="black"/>
<path d="M9.55397 13.1372C9.55397 12.7789 9.31512 12.54 8.95683 12.54C8.59854 12.54 8.35969 12.7789 8.35969 13.1372V17.9143C8.35969 18.2726 8.59854 18.5115 8.95683 18.5115C9.31512 18.5115 9.55397 18.2726 9.55397 17.9143V13.1372Z" fill="black"/>
<path d="M8.95683 22.6909C9.28662 22.6909 9.55397 22.4235 9.55397 22.0937C9.55397 21.7639 9.28662 21.4966 8.95683 21.4966C8.62704 21.4966 8.35969 21.7639 8.35969 22.0937C8.35969 22.4235 8.62704 22.6909 8.95683 22.6909Z" fill="black"/>
<path d="M8.95683 1.19428C9.28662 1.19428 9.55397 0.926935 9.55397 0.597142C9.55397 0.26735 9.28662 0 8.95683 0C8.62704 0 8.35969 0.26735 8.35969 0.597142C8.35969 0.926935 8.62704 1.19428 8.95683 1.19428Z" fill="black"/>
<path d="M1.19383 5.97114C1.52362 5.97114 1.79097 5.70379 1.79097 5.374C1.79097 5.04421 1.52362 4.77686 1.19383 4.77686C0.864037 4.77686 0.596687 5.04421 0.596687 5.374C0.596687 5.70379 0.864037 5.97114 1.19383 5.97114Z" fill="black"/>
<path d="M1.19383 11.3457C1.52362 11.3457 1.79097 11.0783 1.79097 10.7485C1.79097 10.4187 1.52362 10.1514 1.19383 10.1514C0.864037 10.1514 0.596687 10.4187 0.596687 10.7485C0.596687 11.0783 0.864037 11.3457 1.19383 11.3457Z" fill="black"/>
<path d="M1.19383 16.7197C1.52362 16.7197 1.79097 16.4523 1.79097 16.1225C1.79097 15.7927 1.52362 15.5254 1.19383 15.5254C0.864037 15.5254 0.596687 15.7927 0.596687 16.1225C0.596687 16.4523 0.864037 16.7197 1.19383 16.7197Z" fill="black"/>
<path d="M16.7198 5.97114C17.0496 5.97114 17.317 5.70379 17.317 5.374C17.317 5.04421 17.0496 4.77686 16.7198 4.77686C16.39 4.77686 16.1227 5.04421 16.1227 5.374C16.1227 5.70379 16.39 5.97114 16.7198 5.97114Z" fill="black"/>
<path d="M16.7198 11.3457C17.0496 11.3457 17.317 11.0783 17.317 10.7485C17.317 10.4187 17.0496 10.1514 16.7198 10.1514C16.39 10.1514 16.1227 10.4187 16.1227 10.7485C16.1227 11.0783 16.39 11.3457 16.7198 11.3457Z" fill="black"/>
<path d="M16.7198 16.7197C17.0496 16.7197 17.317 16.4523 17.317 16.1225C17.317 15.7927 17.0496 15.5254 16.7198 15.5254C16.39 15.5254 16.1227 15.7927 16.1227 16.1225C16.1227 16.4523 16.39 16.7197 16.7198 16.7197Z" fill="black"/>
<path d="M24.8406 18.5114H28.304C31.4689 18.5114 34.0366 15.9437 34.0366 12.7788V5.73256C34.0366 2.56771 31.4689 0 28.304 0H24.8406C21.6757 0 19.108 2.56771 19.108 5.73256V12.7788C19.108 15.9437 21.6757 18.5114 24.8406 18.5114ZM20.3023 5.73256C20.3023 3.22457 22.3326 1.19428 24.8406 1.19428H28.304C30.812 1.19428 32.8423 3.22457 32.8423 5.73256V12.7788C32.8423 15.2868 30.812 17.3171 28.304 17.3171H24.8406C22.3326 17.3171 20.3023 15.2868 20.3023 12.7788V5.73256Z" fill="black"/>
<path d="M14.9281 25.0793C15.2864 25.0793 15.5253 24.8405 15.5253 24.4822C15.5253 24.1836 15.5253 23.2879 17.3167 23.2879H21.4967C23.1687 23.2879 24.4824 21.9742 24.4824 20.3022V19.7051C24.4824 19.3468 24.2436 19.1079 23.8853 19.1079C23.527 19.1079 23.2881 19.3468 23.2881 19.7051V20.3022C23.2881 21.3173 22.5118 22.0936 21.4967 22.0936H17.3167C15.4656 22.0936 14.331 22.9893 14.331 24.4822C14.331 24.8405 14.5699 25.0793 14.9281 25.0793Z" fill="black"/>
<path d="M35.231 22.0936H31.051C30.0359 22.0936 29.2596 21.3173 29.2596 20.3022V19.7051C29.2596 19.3468 29.0207 19.1079 28.6624 19.1079C28.3042 19.1079 28.0653 19.3468 28.0653 19.7051V20.3022C28.0653 21.9742 29.379 23.2879 31.051 23.2879H35.231C36.2461 23.2879 37.0224 24.0642 37.0224 25.0793V37.6193C37.0224 37.9776 37.2613 38.2165 37.6196 38.2165C37.9779 38.2165 38.2167 37.9776 38.2167 37.6193V25.0793C38.2167 23.4073 36.903 22.0936 35.231 22.0936Z" fill="black"/>
<path d="M10.7483 29.7974C9.43454 29.7974 8.35969 30.8722 8.35969 32.1859C8.35969 33.4996 9.43454 34.5745 10.7483 34.5745C12.062 34.5745 13.1368 33.4996 13.1368 32.1859C13.1368 30.8722 12.062 29.7974 10.7483 29.7974ZM10.7483 33.3802C10.0914 33.3802 9.55397 32.8428 9.55397 32.1859C9.55397 31.5291 10.0914 30.9916 10.7483 30.9916C11.4051 30.9916 11.9425 31.5291 11.9425 32.1859C11.9425 32.8428 11.4051 33.3802 10.7483 33.3802Z" fill="black"/>
<path d="M23.2287 9.55383C23.6904 9.55383 24.0647 9.17954 24.0647 8.71784C24.0647 8.25613 23.6904 7.88184 23.2287 7.88184C22.767 7.88184 22.3927 8.25613 22.3927 8.71784C22.3927 9.17954 22.767 9.55383 23.2287 9.55383Z" fill="black"/>
<path d="M29.9166 9.55383C30.3783 9.55383 30.7526 9.17954 30.7526 8.71784C30.7526 8.25613 30.3783 7.88184 29.9166 7.88184C29.4549 7.88184 29.0806 8.25613 29.0806 8.71784C29.0806 9.17954 29.4549 9.55383 29.9166 9.55383Z" fill="black"/>
<path d="M28.603 13.5546L28.1253 14.0323C27.8267 14.3309 27.4087 14.5101 26.9907 14.5101H25.4978C25.0798 14.5101 24.6618 14.3309 24.3633 14.0323L23.8856 13.5546C23.6467 13.3158 23.2884 13.3158 23.0496 13.5546C22.8107 13.7935 22.8107 14.1518 23.0496 14.3906L23.5273 14.8683C24.0647 15.4058 24.7813 15.7043 25.5576 15.7043H27.0504C27.8267 15.7043 28.4836 15.4058 28.9613 14.8683L29.439 14.3906C29.6778 14.1518 29.6778 13.7935 29.439 13.5546C29.2001 13.3158 28.8418 13.3158 28.603 13.5546Z" fill="black"/>
<path d="M26.0351 5.85165L27.4683 4.77679V5.37393C27.4683 5.73222 27.7071 5.97108 28.0654 5.97108H31.6483C32.0066 5.97108 32.2454 5.73222 32.2454 5.37393C32.2454 5.01565 32.0066 4.77679 31.6483 4.77679H28.6626V3.58251C28.6626 3.34365 28.5431 3.16451 28.3043 3.04508C28.1251 2.92565 27.8863 2.98536 27.7071 3.10479L25.4977 4.77679H21.4969C21.1386 4.77679 20.8997 5.01565 20.8997 5.37393C20.8997 5.73222 21.1386 5.97108 21.4969 5.97108H25.6769C25.7963 5.97108 25.9157 5.91136 26.0351 5.85165Z" fill="black"/>
<path d="M34.0371 26.8706C33.6788 26.8706 33.44 27.1095 33.44 27.4677V34.0363H24.4829C24.3037 34.0363 24.1843 34.096 24.0649 34.2155L22.8706 35.4097C22.6317 35.6486 22.6317 36.0069 22.8706 36.2457C22.99 36.3652 23.1094 36.4249 23.2886 36.4249C23.4677 36.4249 23.5871 36.3652 23.7066 36.2457L24.7217 35.2306H34.0371C34.3954 35.2306 34.6343 34.9917 34.6343 34.6335V27.4677C34.6343 27.1095 34.3954 26.8706 34.0371 26.8706Z" fill="black"/>
<path d="M27.4685 32.8428C27.8268 32.8428 28.0657 32.604 28.0657 32.2457V26.8714C28.424 26.8714 28.6628 26.6325 28.6628 26.2743V23.2885C28.6628 22.9303 28.424 22.6914 28.0657 22.6914H24.4828C24.1246 22.6914 23.8857 22.9303 23.8857 23.2885V26.2743C23.8857 26.6325 24.1246 26.8714 24.4828 26.8714V32.2457C24.4828 32.604 24.7217 32.8428 25.08 32.8428C25.4383 32.8428 25.6771 32.604 25.6771 32.2457V26.8714H26.8714V32.2457C26.8714 32.604 27.1103 32.8428 27.4685 32.8428ZM25.08 23.8857H27.4685V25.6771H25.08V23.8857Z" fill="black"/>
<path d="M29.857 37.023H21.497V26.8716C21.497 26.5133 21.2581 26.2744 20.8998 26.2744H0.597012C0.238727 26.2744 -0.0001297 26.5133 -0.0001297 26.8716V37.6201C-0.0001297 37.9784 0.238727 38.2173 0.597012 38.2173H20.8998H29.857C30.2153 38.2173 30.4541 37.9784 30.4541 37.6201C30.4541 37.2618 30.2153 37.023 29.857 37.023ZM1.19415 27.4687H20.3027V37.023H1.19415V27.4687Z" fill="black"/>
</svg>
