<svg width="30" height="30" viewBox="0 0 37 37" fill="none" xmlns="http://www.w3.org/2000/svg">
<path fill-rule="evenodd" clip-rule="evenodd" d="M31.4117 23.9814H34.9444C35.3228 23.9814 35.6297 24.2882 35.6297 24.6667V33.5741C35.6297 34.1192 35.4131 34.642 35.0276 35.0275C34.6421 35.4131 34.1192 35.6297 33.5741 35.6297C32.6776 35.6297 31.9074 35.6297 31.9074 35.6297C31.5292 35.6297 31.2221 35.9366 31.2221 36.3148C31.2221 36.6929 31.5292 37 31.9074 37H33.5741C34.4827 37 35.3542 36.639 35.9966 35.9966C36.639 35.354 37 34.4827 37 33.5741C37 30.8465 37 26.7726 37 24.6667C37 23.5314 36.0797 22.6111 34.9444 22.6111C33.4938 22.6111 31.4117 22.6111 31.4117 22.6111C31.0334 22.6111 30.7264 22.9181 30.7264 23.2963C30.7264 23.6745 31.0334 23.9814 31.4117 23.9814Z" fill="white"/>
<path fill-rule="evenodd" clip-rule="evenodd" d="M33.5729 37H3.42595C1.53377 37 0 35.4661 0 33.574C0 26.4133 0 7.33439 0 2.05547C0 1.51034 0.216573 0.98753 0.60199 0.60199C0.98753 0.216573 1.51034 0 2.05547 0H29.5239C30.069 0 30.5918 0.216573 30.9774 0.60199C31.3628 0.98753 31.5794 1.51034 31.5794 2.05547V33.6357C31.5794 34.737 32.4721 35.6296 33.5733 35.6296H33.574H33.5737C34.4826 35.6299 33.576 36.997 33.574 37H33.5729ZM30.8636 35.6296H3.42595C2.29067 35.6296 1.37036 34.7093 1.37036 33.574C1.37036 26.4133 1.37036 7.33439 1.37036 2.05547C1.37036 1.8738 1.44251 1.69953 1.57102 1.57102C1.69953 1.44251 1.8738 1.37036 2.05547 1.37036H29.5238C29.7056 1.37036 29.8798 1.44251 30.0084 1.57102C30.1369 1.69953 30.209 1.8738 30.209 2.05547V33.6357C30.209 34.3821 30.4521 35.0717 30.8636 35.6296Z" fill="white"/>
<path fill-rule="evenodd" clip-rule="evenodd" d="M4.79638 26.0369H26.7222C27.1005 26.0369 27.4075 25.7299 27.4075 25.3516C27.4075 24.9735 27.1005 24.6665 26.7222 24.6665H4.79638C4.41812 24.6665 4.11115 24.9735 4.11115 25.3516C4.11115 25.7299 4.41812 26.0369 4.79638 26.0369Z" fill="white"/>
<path fill-rule="evenodd" clip-rule="evenodd" d="M4.79638 29.4629H26.7222C27.1005 29.4629 27.4075 29.1558 27.4075 28.7776C27.4075 28.3995 27.1005 28.0925 26.7222 28.0925H4.79638C4.41812 28.0925 4.11115 28.3995 4.11115 28.7776C4.11115 29.1558 4.41812 29.4629 4.79638 29.4629Z" fill="white"/>
<path fill-rule="evenodd" clip-rule="evenodd" d="M26.7221 7.53704C26.7221 6.40176 25.8018 5.48145 24.6666 5.48145C20.9291 5.48145 10.5892 5.48145 6.85174 5.48145C5.71658 5.48145 4.79626 6.40176 4.79626 7.53704V17.8148C4.79626 18.9501 5.71658 19.8704 6.85174 19.8704H24.6666C25.8018 19.8704 26.7221 18.9501 26.7221 17.8148V7.53704ZM25.3517 7.53704V17.8148C25.3517 18.1933 25.045 18.5 24.6666 18.5H6.85174C6.47335 18.5 6.16662 18.1933 6.16662 17.8148V7.53704C6.16662 7.15853 6.47335 6.8518 6.85174 6.8518H24.6666C25.045 6.8518 25.3517 7.15853 25.3517 7.53704Z" fill="white"/>
<path fill-rule="evenodd" clip-rule="evenodd" d="M5.12893 8.12435L15.4067 14.291C15.6237 14.4211 15.8948 14.4211 16.1118 14.291L26.3895 8.12435C26.7137 7.92973 26.8191 7.50855 26.6246 7.18431C26.4299 6.85994 26.0088 6.75461 25.6845 6.94923L15.7593 12.9044L5.83402 6.94923C5.50966 6.75461 5.08847 6.85994 4.89385 7.18431C4.69936 7.50855 4.80468 7.92973 5.12893 8.12435Z" fill="white"/>
</svg>
