<svg width="48" height="48" viewBox="0 0 55 48" fill="none" xmlns="http://www.w3.org/2000/svg">
<path d="M26.6701 29.0072C29.2921 29.0072 31.4248 26.871 31.4248 24.2453C31.4248 21.6196 29.2915 19.4834 26.6701 19.4834C24.048 19.4834 21.9147 21.6196 21.9147 24.2453C21.9147 26.871 24.048 29.0072 26.6701 29.0072ZM26.6701 20.9084C28.5076 20.9084 30.0024 22.4053 30.0024 24.2453C30.0024 26.0853 28.5076 27.5822 26.6701 27.5822C24.8326 27.5822 23.3377 26.0853 23.3377 24.2453C23.3377 22.4053 24.8326 20.9084 26.6701 20.9084ZM35.6044 36.8184C35.6883 37.2023 35.4461 37.5827 35.062 37.6668C35.0109 37.6777 34.9592 37.6832 34.9087 37.6832C34.5818 37.6832 34.2872 37.4565 34.2148 37.1237C33.4437 33.6082 30.2708 31.0563 26.6701 31.0563C23.0693 31.0563 19.8965 33.6082 19.1253 37.1237C19.0407 37.5083 18.6615 37.7503 18.2781 37.6668C17.894 37.5827 17.6518 37.2023 17.7358 36.8184C18.1758 34.8113 19.3 32.9878 20.9001 31.6835C22.524 30.3603 24.5733 29.6313 26.6701 29.6313C28.7675 29.6313 30.8168 30.3603 32.44 31.6835C34.0401 32.9878 35.1643 34.8113 35.6044 36.8184ZM51.9671 0H25.7705C24.2209 0 22.9598 1.26285 22.9598 2.8146V11.9106H7.12775C5.18313 11.9106 3.60188 13.4946 3.60188 15.4413V40.5539H0.711429C0.478927 40.5539 0.261032 40.6679 0.127739 40.8592C-0.00555347 41.0506 -0.0365943 41.2944 0.0443552 41.5132C1.47102 45.3828 4.41381 47.6995 8.79056 48.3992C8.82769 48.4053 8.86543 48.4083 8.90255 48.4083H44.4376C44.4753 48.4083 44.5125 48.4053 44.5496 48.3992C48.9263 47.6995 51.8691 45.3828 53.2958 41.5132C53.3761 41.2944 53.3451 41.0506 53.2124 40.8592C53.0791 40.6679 52.8612 40.5539 52.6287 40.5539H49.7383V16.0928H51.9671C53.5167 16.0928 54.7778 14.83 54.7778 13.2782V2.8146C54.7778 1.26285 53.5167 0 51.9671 0ZM44.3804 46.9827H8.95977C5.48624 46.4141 3.12835 44.7727 1.78386 41.9783H20.0608C20.3889 43.5282 21.7662 44.6941 23.4102 44.6941H30.1911C31.835 44.6941 33.2124 43.5276 33.5404 41.9783H51.5557C50.2118 44.7727 47.8539 46.4141 44.3804 46.9827ZM48.3153 40.5533H32.9044C32.5118 40.5533 32.1929 40.872 32.1929 41.2658C32.1929 42.3708 31.2952 43.2698 30.1917 43.2698H23.4108C22.3073 43.2698 21.4096 42.3708 21.4096 41.2658C21.4096 40.8727 21.0912 40.5533 20.6981 40.5533H5.02488V15.4413C5.02488 14.2802 5.96828 13.3349 7.12836 13.3349H22.9622C22.9926 14.8605 24.2404 16.0928 25.7717 16.0928H31.3V19.8601C31.3 20.124 31.4461 20.3665 31.6792 20.4903C31.7839 20.5457 31.8977 20.5725 32.0115 20.5725C32.1521 20.5725 32.2921 20.5311 32.4126 20.4488L38.7869 16.0934H48.3159L48.3153 40.5533ZM53.3548 13.2782C53.3548 14.0444 52.7322 14.6679 51.9671 14.6679H38.566C38.423 14.6679 38.283 14.7111 38.1649 14.7916L32.7218 18.5113V15.3803C32.7218 14.9872 32.4035 14.6679 32.0103 14.6679H25.7705C25.0054 14.6679 24.3828 14.0444 24.3828 13.2782V2.8146C24.3828 2.04848 25.0054 1.42498 25.7705 1.42498H51.9671C52.7322 1.42498 53.3548 2.04848 53.3548 2.8146V13.2782ZM29.3487 5.25863C27.8137 5.25863 26.5654 6.5093 26.5654 8.04581C26.5654 9.58232 27.8143 10.8336 29.3487 10.8336C30.8831 10.8336 32.1326 9.58293 32.1326 8.04581C32.1326 6.50869 30.8837 5.25863 29.3487 5.25863ZM29.3487 9.40923C28.5983 9.40923 27.9878 8.79791 27.9878 8.04642C27.9878 7.29492 28.5983 6.68361 29.3487 6.68361C30.0992 6.68361 30.7096 7.29492 30.7096 8.04642C30.7096 8.79791 30.0992 9.40923 29.3487 9.40923ZM38.8691 5.25863C37.3341 5.25863 36.0852 6.5093 36.0852 8.04581C36.0852 9.58232 37.3341 10.8336 38.8691 10.8336C40.4041 10.8336 41.6524 9.58293 41.6524 8.04581C41.6524 6.50869 40.4041 5.25863 38.8691 5.25863ZM38.8691 9.40923C38.1187 9.40923 37.5082 8.79791 37.5082 8.04642C37.5082 7.29492 38.1187 6.68361 38.8691 6.68361C39.6196 6.68361 40.23 7.29492 40.23 8.04642C40.23 8.79791 39.6196 9.40923 38.8691 9.40923ZM48.3889 5.25863C46.8539 5.25863 45.6056 6.5093 45.6056 8.04581C45.6056 9.58232 46.8545 10.8336 48.3889 10.8336C49.9239 10.8336 51.1722 9.58293 51.1722 8.04581C51.1722 6.50869 49.9239 5.25863 48.3889 5.25863ZM48.3889 9.40923C47.6385 9.40923 47.028 8.79791 47.028 8.04642C47.028 7.29492 47.6385 6.68361 48.3889 6.68361C49.1394 6.68361 49.7498 7.29492 49.7498 8.04642C49.7498 8.79791 49.1394 9.40923 48.3889 9.40923Z" fill="black"/>
</svg>
