<svg width="56" height="56" viewBox="0 0 56 56" fill="none" xmlns="http://www.w3.org/2000/svg">
<path d="M35.8061 29.188C35.1273 32.582 37.8424 37.8426 41.4061 37.8426C44.8 37.8426 47.0909 33.3456 47.0909 30.3759C47.0909 27.1517 44.5454 24.4365 41.4061 24.4365C38.3515 24.4365 36.0606 26.8971 35.8061 29.188ZM45.3091 30.2911C45.3091 32.7517 43.3576 36.0608 41.3212 36.0608C39.0303 36.0608 36.9091 31.9032 37.4182 29.4426C37.8424 27.3214 39.5394 26.1335 41.3212 26.1335C43.5273 26.1335 45.3091 28.0002 45.3091 30.2911Z" fill="black"/>
<path d="M50.4 39.5396C48.6182 39.0305 47.0909 38.6911 45.0545 38.4365C44.8 38.4365 44.4606 38.5214 44.2909 38.7759C44.1212 39.0305 44.0364 39.285 44.1212 39.5396C45.3091 43.2729 44.3758 46.4123 41.2364 49.6365C38.097 46.4123 37.2485 43.188 38.3515 39.5396C38.4364 39.285 38.3515 38.9456 38.1818 38.7759C38.0121 38.5214 37.7576 38.4365 37.4182 38.4365C35.297 38.6062 33.7697 39.0305 32.0727 39.5396C29.1879 40.388 30.0364 42.8486 29.103 54.3032C29.103 54.5577 29.1879 54.7274 29.3576 54.982C29.5273 55.1517 29.7818 55.2365 29.9515 55.2365H52.6061C52.8606 55.2365 53.0303 55.1517 53.2 54.982C53.3697 54.8123 53.4545 54.5577 53.4545 54.3032C52.6061 43.1032 53.3697 40.3032 50.4 39.5396ZM48.9576 53.4547V50.4002C48.9576 49.8911 48.6182 49.5517 48.1091 49.5517C47.6 49.5517 47.2606 49.8911 47.2606 50.4002V53.4547H35.3818V50.4002C35.3818 49.8911 35.0424 49.5517 34.5333 49.5517C34.0242 49.5517 33.6848 49.8911 33.6848 50.4002V53.4547H30.9697C31.8182 42.6789 31.3091 41.4911 32.7515 41.0668C34.0242 40.7274 35.2121 40.388 36.5697 40.2183C35.7212 44.2062 37.1636 47.9396 40.8121 51.4183C41.1515 51.7577 41.6606 51.7577 42 51.4183C45.7333 47.8547 47.0909 44.2911 46.2424 40.3032C47.6 40.4729 48.703 40.8123 50.0606 41.1517C51.503 41.5759 50.9091 42.5093 51.8424 53.4547H48.9576Z" fill="black"/>
<path d="M14.6788 37.8426C18.0727 37.8426 20.3636 33.3456 20.3636 30.3759C20.3636 27.1517 17.8182 24.4365 14.6788 24.4365C11.9636 24.4365 9.67273 26.388 9.07879 29.1032C8.4 32.7517 11.1152 37.8426 14.6788 37.8426ZM10.7758 29.4426C11.2 27.5759 12.8121 26.1335 14.6788 26.1335C16.8849 26.1335 18.6667 28.0002 18.6667 30.3759C18.6667 32.8365 16.7152 36.1456 14.6788 36.1456C12.7273 36.1456 10.3515 32.8365 10.7758 29.4426Z" fill="black"/>
<path d="M23.7576 39.5396C21.9758 39.0305 20.4485 38.6911 18.4121 38.4365C18.1576 38.4365 17.8182 38.5214 17.6485 38.7759C17.4788 39.0305 17.3939 39.285 17.4788 39.5396C18.6667 43.2729 17.8182 46.4123 14.6788 49.6365C11.5394 46.4123 10.6909 43.188 11.7939 39.5396C11.8788 39.285 11.7939 38.9456 11.6242 38.7759C11.4545 38.5214 11.2 38.4365 10.8606 38.4365C8.7394 38.6062 7.21212 39.0305 5.51515 39.5396C2.6303 40.388 3.47879 42.8486 2.54546 54.3032C2.54546 54.5577 2.6303 54.7274 2.8 54.982C2.88485 55.0668 3.1394 55.1517 3.39394 55.1517H25.9636C26.2182 55.1517 26.3879 55.0668 26.5576 54.8971C26.7273 54.7274 26.8121 54.4729 26.8121 54.2183C25.8788 43.1032 26.7273 40.3032 23.7576 39.5396ZM22.3152 53.4547V50.4002C22.3152 49.8911 21.9758 49.5517 21.4667 49.5517C20.9576 49.5517 20.6182 49.8911 20.6182 50.4002V53.4547H8.7394V50.4002C8.7394 49.8911 8.4 49.5517 7.89091 49.5517C7.38182 49.5517 7.04243 49.8911 7.04243 50.4002V53.4547H4.24243C5.09091 42.6789 4.58182 41.4911 6.02424 41.0668C7.29697 40.7274 8.48485 40.388 9.84243 40.2183C8.99394 44.2062 10.4364 47.9396 14.0849 51.4183C14.4242 51.7577 14.9333 51.7577 15.2727 51.4183C19.0061 47.8547 20.3636 44.2911 19.5152 40.3032C20.8727 40.4729 21.9758 40.8123 23.3333 41.1517C24.7758 41.5759 24.1818 42.5093 25.1152 53.4547H22.3152Z" fill="black"/>
<path d="M24.4364 8.14551H15.3576C14.8485 8.14551 14.5091 8.4849 14.5091 8.99399C14.5091 9.50308 14.8485 9.84248 15.3576 9.84248H24.4364C24.9455 9.84248 25.2849 9.50308 25.2849 8.99399C25.2849 8.4849 24.8606 8.14551 24.4364 8.14551Z" fill="black"/>
<path d="M24.4364 12.0488H15.3576C14.8485 12.0488 14.5091 12.3882 14.5091 12.8973C14.5091 13.4064 14.8485 13.7458 15.3576 13.7458H24.4364C24.9455 13.7458 25.2849 13.4064 25.2849 12.8973C25.2849 12.4731 24.8606 12.0488 24.4364 12.0488Z" fill="black"/>
<path d="M24.4364 16.0366H15.3576C14.8485 16.0366 14.5091 16.376 14.5091 16.8851C14.5091 17.3942 14.8485 17.7336 15.3576 17.7336H24.4364C24.9455 17.7336 25.2849 17.3942 25.2849 16.8851C25.2849 16.4609 24.8606 16.0366 24.4364 16.0366Z" fill="black"/>
<path d="M34.703 9.84237C35.2121 9.84237 35.5515 9.50298 35.5515 8.99389V8.23025C35.5515 6.87268 36.6546 6.44843 37.3333 6.44843C38.0121 6.44843 39.1152 6.78783 39.1152 8.23025C39.1152 10.9454 36.4849 11.2 36.4849 13.406V15.5272C36.4849 16.0363 36.8242 16.3757 37.3333 16.3757C37.8424 16.3757 38.1818 16.0363 38.1818 15.5272V13.406C38.1818 13.1515 38.2667 12.9818 38.4364 12.8121C39.2 12.2181 40.8121 10.5212 40.8121 8.23025C40.8121 5.93934 39.0303 4.75146 37.3333 4.75146C36.4 4.75146 35.6364 5.09086 34.9576 5.59995C34.4485 6.02419 33.8546 6.87268 33.8546 8.23025V8.99389C33.8546 9.41813 34.1939 9.84237 34.703 9.84237Z" fill="black"/>
<path d="M37.3333 16.4609C36.8242 16.4609 36.4848 16.8852 36.4848 17.3094C36.4848 17.8185 36.8242 18.1579 37.3333 18.1579C37.8424 18.1579 38.1818 17.8185 38.1818 17.3094C38.1818 16.8003 37.7576 16.4609 37.3333 16.4609Z" fill="black"/>
<path d="M36.8242 21.8911C38.5212 21.8911 40.2182 21.4668 41.8303 20.6183L47.2606 21.7214C47.5152 21.8062 47.8545 21.7214 48.0242 21.4668C48.1939 21.2123 48.2788 20.9577 48.1939 20.6183L46.6667 15.188C47.9394 12.0486 47.5152 8.40015 45.6485 5.60015C43.697 2.63045 40.3879 0.848633 36.8242 0.848633C33.2606 0.848633 29.8667 2.7153 28 5.76984C26.0485 3.73348 23.3333 2.46075 20.3636 2.46075C16.8 2.46075 13.5758 4.24257 11.6242 7.21227C9.75758 10.0971 9.33334 13.6608 10.6061 16.8001L8.99394 22.3153C8.90909 22.5698 8.99394 22.9092 9.16364 23.1638C9.33334 23.4183 9.67273 23.5032 9.92727 23.4183L15.3576 22.3153C16.9697 23.1638 18.6667 23.588 20.3636 23.588C22.1455 23.588 23.9273 23.0789 25.6242 22.1456C27.1515 21.2971 28.3394 20.1092 29.2727 18.6668C31.2242 20.7032 34.0242 21.8911 36.8242 21.8911ZM24.6909 20.6183C21.8909 22.2304 18.6667 22.2304 15.8667 20.6183C15.3576 20.2789 15.1879 20.6183 10.9455 21.4668L12.2182 17.0547C12.303 16.885 12.303 16.6304 12.2182 16.4608C11.0303 13.7456 11.3697 10.6062 12.9818 8.1456C14.6788 5.60015 17.3091 4.15772 20.3636 4.15772C25.2 4.15772 29.1879 8.1456 29.1879 12.982C29.1879 16.1214 27.4909 19.0062 24.6909 20.6183ZM29.103 7.12742C30.6303 4.32742 33.6 2.5456 36.8242 2.5456C39.7939 2.5456 42.5091 3.98803 44.2061 6.53348C45.8182 8.99409 46.1576 12.1335 44.9697 14.8486C44.8849 15.0183 44.8849 15.2729 44.9697 15.4426L46.2424 19.8547L41.9152 18.9214C41.7455 18.8365 41.4909 18.9214 41.3212 19.0062C37.5879 21.2123 32.8364 20.2789 30.1212 16.9698C30.6303 15.6971 30.8849 14.3395 30.8849 12.8971C30.8849 10.7759 30.2061 8.82439 29.103 7.12742Z" fill="black"/>
</svg>
