<svg width="150" height="102" viewBox="0 0 150 102" fill="none" xmlns="http://www.w3.org/2000/svg">
<path d="M36.0634 92.7962H30.2761C30.0724 83.0278 29.5082 73.8427 28.5861 65.2387H28.5351L19.7237 92.7962H15.3164L6.55793 65.2387H6.50615C5.8565 73.502 5.44723 82.6871 5.27719 92.7962H0C0.340863 80.5018 1.19418 68.9768 2.56033 58.2188H9.73352L18.0835 83.6252H18.1345L26.5359 58.2188H33.3995C34.9025 70.8183 35.7898 82.3468 36.0623 92.7962M61.169 67.2856C58.8119 80.0725 55.7032 89.3648 51.8447 95.1618C48.838 99.6284 45.5446 101.861 41.9582 101.861C41.0021 101.861 39.8229 101.574 38.4239 101.002V97.9191C39.1076 98.0193 39.9095 98.0725 40.8316 98.0725C42.505 98.0725 43.8534 97.61 44.8791 96.6873C46.108 95.5627 46.7225 94.2985 46.7225 92.8979C46.7225 91.9413 46.2433 89.978 45.2883 87.0084L38.9364 67.2856H44.6221L49.1808 82.0362C50.205 85.3854 50.6324 87.7233 50.4612 89.0561C52.9547 82.3969 54.6965 75.1396 55.6874 67.2856H61.1686" fill="#00758F"/>
<path d="M86.5214 83.2136C86.5214 86.1459 85.4439 88.5532 83.2959 90.4367C81.1464 92.3121 78.2583 93.2521 74.6422 93.2521C71.2598 93.2521 67.9818 92.1703 64.8066 90.0235L66.2918 87.0535C69.0241 88.4194 71.4975 89.1012 73.7174 89.1012C75.8 89.1012 77.4301 88.6379 78.6093 87.7222C79.786 86.7999 80.4913 85.5138 80.4913 83.8823C80.4913 81.8292 79.0591 80.0744 76.4319 78.6021C74.0065 77.2709 69.1594 74.4925 69.1594 74.4925C66.533 72.577 65.2163 70.5212 65.2163 67.1345C65.2163 64.3334 66.1979 62.0694 68.1596 60.347C70.1252 58.6208 72.6612 57.7578 75.7668 57.7578C78.9772 57.7578 81.8962 58.6146 84.5253 60.3216L83.1896 63.2893C80.9404 62.3354 78.7221 61.8567 76.5347 61.8567C74.7601 61.8567 73.3927 62.2826 72.439 63.1401C71.4805 63.9896 70.8877 65.083 70.8877 66.4158C70.8877 68.4635 72.3508 70.2398 75.0518 71.7406C77.5078 73.0722 82.4739 75.9046 82.4739 75.9046C85.1753 77.8167 86.5214 79.8555 86.5214 83.2136Z" fill="#F29111"/>
<path fill-rule="evenodd" clip-rule="evenodd" d="M96.8673 85.8804C95.4663 83.6265 94.7649 80.0094 94.7649 75.0221C94.7649 66.3156 97.4122 61.9593 102.705 61.9593C105.472 61.9593 107.504 63.0015 108.802 65.0831C110.201 67.3378 110.903 70.9236 110.903 75.8411C110.903 84.6174 108.255 89.0076 102.963 89.0076C100.196 89.0076 98.1642 87.9663 96.8673 85.8804ZM117.46 93.6315L111.104 90.4973C111.67 90.0332 112.207 89.5326 112.694 88.9529C115.392 85.781 116.743 81.0855 116.743 74.8691C116.743 63.43 112.252 57.707 103.271 57.707C98.8649 57.707 95.4315 59.1577 92.9732 62.063C90.2738 65.2388 88.9258 69.9169 88.9258 76.0978C88.9258 82.1758 90.12 86.6347 92.5106 89.4671C94.6888 92.027 97.983 93.3089 102.393 93.3089C104.038 93.3089 105.548 93.1061 106.92 92.7011L115.197 97.5176L117.454 93.6311" fill="#F29111"/>
<path d="M138.208 92.7981H121.766V58.2207H127.299V88.5447H138.208V92.7981ZM142.154 92.7946H143.071V89.2766H144.27V88.5582H140.908V89.2766H142.154V92.7946ZM149.13 92.7946H149.994V88.5582H148.695L147.637 91.4457L146.485 88.5582H145.233V92.7946H146.05V89.5703H146.097L147.303 92.7946H147.926L149.13 89.5703V92.7946Z" fill="#F29111"/>
<path fill-rule="evenodd" clip-rule="evenodd" d="M145.154 46.6378C141.81 46.5541 139.221 46.8875 137.049 47.8075C136.422 48.058 135.42 48.058 135.335 48.852C135.671 49.1854 135.711 49.728 136.006 50.1894C136.506 51.0253 137.382 52.1511 138.177 52.7377C139.054 53.4068 139.932 54.0728 140.852 54.6571C142.481 55.6646 144.32 56.2469 145.905 57.2498C146.827 57.834 147.743 58.5852 148.665 59.2138C149.123 59.5476 149.413 60.0918 150.001 60.2984V60.172C149.706 59.797 149.624 59.2539 149.333 58.8338C148.916 58.4191 148.497 58.0406 148.079 57.6248C146.866 55.9956 145.36 54.5765 143.735 53.4068C142.397 52.4853 139.471 51.2315 138.93 49.6903L138.845 49.6051C139.764 49.5203 140.852 49.1854 141.729 48.9321C143.147 48.5571 144.443 48.6419 145.905 48.2669C146.575 48.0985 147.243 47.8884 147.915 47.683V47.3042C147.159 46.5541 146.618 45.5498 145.824 44.8402C143.695 43.0026 141.352 41.2073 138.93 39.7011C137.633 38.8655 135.962 38.3252 134.582 37.6129C134.083 37.3616 133.249 37.2379 132.955 36.8178C132.202 35.899 131.783 34.6892 131.241 33.6012C130.03 31.306 128.858 28.7584 127.816 26.3315C127.064 24.7031 126.604 23.0747 125.685 21.5701C121.379 14.4661 116.702 10.1657 109.515 5.9454C107.969 5.06665 106.131 4.69087 104.169 4.23146C103.123 4.18752 102.079 4.1062 101.035 4.06535C100.365 3.77166 99.6956 2.97732 99.1117 2.60116C96.7291 1.09805 90.5901 -2.15986 88.834 2.14252C87.7055 4.85969 90.5055 7.53215 91.4666 8.91154C92.1765 9.87122 93.0967 10.9592 93.596 12.0438C93.8886 12.7541 93.9724 13.5076 94.2662 14.2584C94.934 16.0964 95.5597 18.1441 96.4389 19.8577C96.8968 20.7353 97.3977 21.6556 97.9824 22.4457C98.3198 22.9082 98.903 23.114 99.0286 23.8687C98.4458 24.7031 98.4002 25.9565 98.0663 27.0017C96.5629 31.723 97.1469 37.5713 99.2786 41.0385C99.9456 42.083 101.536 44.3812 103.666 43.5017C105.546 42.7513 105.129 40.3698 105.671 38.282C105.796 37.7771 105.712 37.4457 105.962 37.1123V37.1967C106.547 38.3645 107.134 39.4899 107.676 40.6635C108.973 42.7085 111.228 44.8398 113.109 46.2589C114.109 47.0139 114.903 48.307 116.157 48.768V48.6415H116.075C115.823 48.2665 115.448 48.0981 115.113 47.8071C114.362 47.0548 113.528 46.1352 112.941 45.3C111.186 42.9613 109.639 40.3698 108.263 37.6962C107.592 36.3981 107.009 34.979 106.465 33.6848C106.215 33.1857 106.215 32.4314 105.796 32.1817C105.168 33.0993 104.251 33.8945 103.792 35.0191C102.998 36.8174 102.915 39.0312 102.62 41.3302C102.454 41.3738 102.538 41.3302 102.454 41.4131C101.119 41.0793 100.659 39.7007 100.156 38.5348C98.903 35.5648 98.6923 30.8023 99.7802 27.3759C100.071 26.5003 101.328 23.743 100.825 22.9075C100.572 22.1104 99.7377 21.6549 99.279 21.0259C98.7368 20.2319 98.1486 19.2314 97.7764 18.3523C96.7728 16.0136 96.2684 13.422 95.1856 11.0833C94.6839 9.99533 93.8047 8.86722 93.0967 7.8663C92.3014 6.73819 91.4249 5.94463 90.7972 4.60917C90.5901 4.1486 90.2972 3.39588 90.6303 2.89639C90.7122 2.56146 90.8819 2.43543 91.2169 2.3518C91.7568 1.892 93.3046 2.4759 93.8468 2.72642C95.3939 3.35156 96.6889 3.9397 97.9824 4.81536C98.5683 5.23392 99.1948 6.02749 99.9457 6.23831H100.825C102.161 6.52853 103.666 6.31925 104.921 6.69695C107.134 7.40689 109.139 8.45097 110.936 9.57946C116.408 13.0474 120.92 17.9784 123.969 23.8679C124.471 24.8276 124.682 25.7059 125.141 26.7065C126.018 28.7577 127.106 30.8466 127.981 32.85C128.858 34.8137 129.695 36.8174 130.951 38.4493C131.576 39.3249 134.083 39.7847 135.211 40.2445C136.045 40.6192 137.342 40.9541 138.095 41.4131C139.515 42.2888 140.933 43.2932 142.272 44.2555C142.939 44.7566 145.028 45.8003 145.154 46.637" fill="#00758F"/>
<path fill-rule="evenodd" clip-rule="evenodd" d="M102.537 10.3283C101.959 10.3241 101.384 10.3947 100.824 10.5384V10.622H100.905C101.243 11.2888 101.828 11.752 102.243 12.3359C102.579 13.0046 102.872 13.6706 103.206 14.3401C103.247 14.2988 103.287 14.2553 103.287 14.2553C103.876 13.839 104.168 13.1715 104.168 12.1671C103.916 11.8727 103.876 11.5824 103.666 11.2888C103.415 10.8721 102.872 10.6632 102.537 10.3283Z" fill="#00758F"/>
</svg>
