<svg width="60" height="60" viewBox="0 0 60 60" fill="none" xmlns="http://www.w3.org/2000/svg">
<path d="M53 12.78C53 13.33 53.45 13.78 54 13.78C54.55 13.78 55 13.33 55 12.78C55 10.3 52.98 8.28 50.5 8.28H9.5C7.02 8.28 5 10.3 5 12.78V41.78C5 44.26 7.02 46.28 9.5 46.28H19.99L17.03 50.1C16.69 50.54 16.77 51.16 17.21 51.5C17.39 51.64 17.61 51.71 17.82 51.71C18.12 51.71 18.41 51.58 18.61 51.32L22.52 46.27H37.48L41.39 51.32C41.59 51.57 41.88 51.71 42.18 51.71C42.39 51.71 42.61 51.64 42.79 51.5C43.23 51.16 43.31 50.53 42.97 50.1L40.01 46.28H50.5C52.98 46.28 55 44.26 55 41.78V17.51C55 16.96 54.55 16.51 54 16.51C53.45 16.51 53 16.96 53 17.51V41.78C53 43.16 51.88 44.28 50.5 44.28H9.5C8.12 44.28 7 43.16 7 41.78V12.78C7 11.4 8.12 10.28 9.5 10.28H50.5C51.88 10.28 53 11.4 53 12.78Z" fill="black"/>
<path d="M21.28 41.51H27.39C27.94 41.51 28.39 41.06 28.39 40.51V33.21L31.68 40.89V40.9C31.73 41.01 31.8 41.1 31.87 41.19C31.89 41.21 31.92 41.23 31.94 41.25C32.01 41.31 32.08 41.36 32.15 41.39C32.18 41.41 32.21 41.42 32.24 41.43C32.35 41.47 32.47 41.5 32.59 41.5H38.7C38.74 41.5 38.78 41.48 38.82 41.48C38.91 41.47 39.01 41.46 39.09 41.42C39.11 41.41 39.12 41.39 39.14 41.38C39.24 41.33 39.33 41.27 39.41 41.2C39.46 41.15 39.48 41.09 39.52 41.04C39.56 40.99 39.6 40.94 39.62 40.88C39.66 40.78 39.67 40.68 39.68 40.57C39.68 40.55 39.69 40.52 39.69 40.5V14.05C39.69 13.5 39.24 13.05 38.69 13.05H32.58C32.03 13.05 31.58 13.5 31.58 14.05V21.35L28.29 13.67C28.29 13.67 28.29 13.67 28.29 13.66C28.29 13.65 28.28 13.65 28.28 13.64C28.23 13.53 28.16 13.43 28.07 13.34C28.03 13.3 27.98 13.28 27.93 13.25C27.87 13.21 27.81 13.16 27.75 13.13C27.65 13.09 27.55 13.08 27.45 13.07C27.42 13.07 27.4 13.06 27.38 13.06H21.28C21.2 13.06 21.12 13.09 21.04 13.11C20.99 13.12 20.94 13.12 20.89 13.14C20.87 13.15 20.86 13.17 20.83 13.18C20.73 13.23 20.64 13.29 20.57 13.36C20.52 13.41 20.5 13.47 20.46 13.52C20.42 13.57 20.38 13.62 20.36 13.68C20.32 13.78 20.3 13.88 20.3 13.99C20.3 14.01 20.29 14.03 20.29 14.06V40.51C20.28 41.06 20.73 41.51 21.28 41.51ZM26.39 39.51H22.28V18.93L26.39 28.54V39.51ZM26.74 15.05L31.69 26.61L37.21 39.5H33.27L28.32 27.94L22.8 15.05H26.74ZM33.61 15.05H37.72V35.63L33.61 26.02V15.05Z" fill="black"/>
</svg>
