<svg width="134" height="134" viewBox="0 0 134 134" fill="none" xmlns="http://www.w3.org/2000/svg">
<g clip-path="url(#clip0_216_6549)">
<path fill-rule="evenodd" clip-rule="evenodd" d="M97.6543 66.0186C95.2208 66.0186 90.3538 66.6466 90.3538 62.1721V60.4451C89.4903 60.1311 88.5483 59.7386 87.6848 59.2676L86.4288 60.5236C85.0158 62.0151 82.4253 62.0151 81.0123 60.5236C79.2068 58.7966 75.3603 55.8136 78.5003 52.5951L79.7563 51.4176C79.3638 50.5541 78.9713 49.6121 78.6573 48.6701C76.4593 48.6701 73.0053 48.5916 73.0053 44.8235C73.0053 42.3115 72.4557 37.523 76.9303 37.523H78.6573C78.9713 36.581 79.3638 35.7175 79.7563 34.854L78.5003 33.598C75.3603 30.3795 79.2068 27.3965 81.0123 25.6695C82.5038 24.178 84.9373 24.178 86.4288 25.6695L87.6848 26.9255C88.5483 26.4545 89.4118 26.062 90.3538 25.8265C90.3538 23.6285 90.4323 20.1745 94.2788 20.1745C96.7123 20.1745 101.579 19.5465 101.579 24.021V25.8265C102.521 26.062 103.385 26.4545 104.248 26.9255L105.504 25.6695C108.644 22.5295 111.627 26.376 113.433 28.103C114.924 29.5945 114.924 32.1065 113.433 33.598L112.177 34.854C112.648 35.7175 112.962 36.581 113.276 37.523C115.474 37.523 118.928 37.6015 118.928 41.3695C118.928 43.8815 119.556 48.6701 115.003 48.6701H113.276C112.962 49.6121 112.648 50.5541 112.177 51.4176C113.747 52.9091 116.102 55.4211 113.433 58.0901C111.627 59.8171 108.644 63.6636 105.504 60.5236L104.248 59.2676C103.385 59.7386 102.521 60.1311 101.579 60.4451C101.579 62.5646 101.501 66.0186 97.6543 66.0186ZM87.4493 55.8136C88.3128 55.8136 89.4118 56.9911 92.3163 57.6976C94.8283 58.3256 92.3948 62.8786 94.2788 62.8786C99.1459 62.8786 98.4393 63.6636 98.4393 59.2676C98.4393 57.3051 100.48 58.0116 103.699 56.0491C105.897 54.7146 107.467 59.6601 108.723 58.3256C112.255 54.8716 112.177 55.8921 109.115 52.7521C107.781 51.4176 109.665 50.4756 110.607 46.7861C111.156 44.274 115.788 46.7076 115.788 44.8235C115.788 39.9565 116.494 40.663 112.098 40.663C110.214 40.663 110.842 38.622 108.88 35.4035C107.545 33.2055 112.491 31.6355 111.156 30.301C107.702 26.847 108.723 26.847 105.661 29.987C104.248 31.3215 103.306 29.4375 99.6169 28.4955C97.1048 27.8675 99.5384 23.3145 97.7328 23.3145C92.7873 23.3145 93.4938 22.608 93.4938 27.004C93.4938 28.888 91.5313 28.26 88.2343 30.2225C86.0363 31.557 84.4663 26.6115 83.2103 27.8675C79.6778 31.4 79.7563 30.3795 82.8178 33.441C84.1523 34.7755 82.2683 35.796 81.3263 39.4855C80.6983 41.919 76.1453 39.564 76.1453 41.3695C76.1453 46.3151 75.4388 45.5301 79.8348 45.5301C81.7188 45.5301 81.0908 47.5711 83.0533 50.8681C84.3878 53.0661 79.4423 54.5576 80.7768 55.8921C84.3093 59.4246 83.2103 59.2676 86.2718 56.2061C86.5858 55.9706 86.9783 55.8136 87.4493 55.8136Z" fill="black"/>
<path fill-rule="evenodd" clip-rule="evenodd" d="M95.9272 54.7147C89.5687 54.7147 84.3877 49.5337 84.3877 43.0967C84.3877 36.7381 89.5687 31.5571 95.9272 31.5571C102.364 31.5571 107.545 36.7381 107.545 43.0967C107.545 49.5337 102.364 54.7147 95.9272 54.7147ZM95.9272 34.6971C91.2957 34.6971 87.5277 38.4652 87.5277 43.0967C87.5277 47.7282 91.2957 51.5747 95.9272 51.5747C100.637 51.5747 104.405 47.7282 104.405 43.0967C104.405 38.4652 100.637 34.6971 95.9272 34.6971Z" fill="black"/>
<path fill-rule="evenodd" clip-rule="evenodd" d="M17.9765 123.167C17.113 123.167 16.4065 122.46 16.4065 121.597V103.699C16.4065 101.658 19.5465 101.658 19.5465 103.699V121.597C19.5465 122.46 18.84 123.167 17.9765 123.167Z" fill="black"/>
<path fill-rule="evenodd" clip-rule="evenodd" d="M70.0222 123.167C69.1587 123.167 68.4521 122.46 68.4521 121.597V103.699C68.4521 101.658 71.5922 101.658 71.5922 103.699V121.597C71.5922 122.46 70.8857 123.167 70.0222 123.167Z" fill="black"/>
<path fill-rule="evenodd" clip-rule="evenodd" d="M43.9601 89.8828C36.8165 89.8828 30.929 84.0738 30.929 76.9303C30.929 75.9098 30.772 73.9473 32.499 73.9473C35.796 73.9473 32.1065 78.9713 36.9735 83.8383C43.2536 90.0398 53.8511 85.6438 53.8511 76.8518C53.8511 75.9098 53.6156 73.9473 55.4211 73.9473C57.2266 73.9473 56.9911 75.9098 56.9911 76.8518C56.9911 84.0738 51.1821 89.8828 43.9601 89.8828Z" fill="black"/>
<path fill-rule="evenodd" clip-rule="evenodd" d="M1.57001 123.167C0.706503 123.167 0 122.46 0 121.597V94.1217C0.0785003 82.2681 19.1541 73.9471 29.4376 73.9471C31.4786 73.9471 34.1476 73.4761 34.1476 75.5171C34.1476 77.5581 31.4786 77.0871 29.4376 77.0871C19.6251 77.0871 3.21851 85.3297 3.14001 94.1217V120.027H81.4833C83.6028 120.027 83.6028 123.167 81.4833 123.167H1.57001ZM77.4013 83.6812C75.8313 83.6812 68.6093 77.1656 58.4827 77.1656C56.5202 77.1656 53.8512 77.6366 53.8512 75.5956C53.8512 73.5546 56.5202 74.0256 58.4827 74.0256C64.4487 74.0256 72.2203 76.6946 78.2648 80.8551C79.5208 81.7186 78.8928 83.6812 77.4013 83.6812Z" fill="black"/>
<path fill-rule="evenodd" clip-rule="evenodd" d="M43.9603 71.2783C31.5572 71.2783 21.4307 59.7387 21.4307 45.6087C21.4307 42.4686 20.8027 39.1716 23.0007 39.1716C25.1987 39.1716 24.5707 42.4686 24.5707 45.6087C24.5707 58.0117 33.2842 68.1382 43.9603 68.1382C54.7148 68.1382 63.4284 58.0117 63.4284 45.6087C63.4284 42.6256 62.8004 39.4856 64.9984 39.4856C67.1964 39.4856 66.5684 42.6256 66.5684 45.6087C66.5684 59.7387 56.4418 71.2783 43.9603 71.2783Z" fill="black"/>
<path fill-rule="evenodd" clip-rule="evenodd" d="M55.4213 77.0872C54.5578 77.0872 53.8513 76.3807 53.8513 75.5172V65.7832C53.8513 63.7422 56.9913 63.7422 56.9913 65.7832V75.5172C56.9913 76.4592 56.2848 77.0872 55.4213 77.0872ZM32.4992 77.0872C31.6357 77.0872 30.9292 76.3807 30.9292 75.5172V65.7832C30.9292 63.7422 34.0692 63.7422 34.0692 65.7832V75.5172C34.0692 76.4592 33.4412 77.0872 32.4992 77.0872Z" fill="black"/>
<path fill-rule="evenodd" clip-rule="evenodd" d="M64.9984 42.704C64.1349 42.704 63.4284 41.9975 63.4284 41.134C63.4284 37.366 55.8923 27.004 50.1618 31.714C45.0593 35.796 41.1343 35.796 36.0318 31.714C30.3797 27.0825 24.5707 37.209 24.5707 40.82C24.5707 42.704 21.8232 43.018 21.4307 41.134C21.3522 40.349 18.6832 25.5125 26.6902 16.328C31.1647 11.3039 38.3868 8.71342 47.4143 9.34142C47.6498 9.41992 54.4793 10.4404 59.5033 16.4065C62.2509 15.9354 66.3329 16.328 67.1964 19.939L66.5684 41.2125C66.5684 42.076 65.8619 42.704 64.9984 42.704ZM53.3018 27.318C57.5408 27.318 61.3088 30.5365 63.6639 33.912L64.0564 20.567C63.8209 18.997 60.2098 19.468 59.2678 19.7035C58.6398 19.8605 58.0118 19.625 57.6193 19.0755C53.5373 13.6589 47.5713 12.5599 47.0218 12.4814C38.9363 12.0104 32.8917 14.0514 29.0452 18.369C25.1987 22.765 24.1782 28.8095 24.0212 33.441C27.2397 28.4955 32.7347 24.963 37.9943 29.2805C45.8443 35.639 46.6293 27.318 53.3018 27.318Z" fill="black"/>
<path fill-rule="evenodd" clip-rule="evenodd" d="M32.7347 45.4515C31.0861 45.4515 30.5366 43.175 32.1067 42.4685C34.3047 41.5265 41.1342 41.5265 39.7212 44.588C38.7792 46.7076 36.1102 44.117 33.4412 45.373C33.2057 45.4515 32.9702 45.4515 32.7347 45.4515Z" fill="black"/>
<path fill-rule="evenodd" clip-rule="evenodd" d="M49.6907 45.4515C48.0422 45.4515 47.4927 43.175 49.0627 42.4685C51.1822 41.5265 58.0902 41.5265 56.6772 44.588C55.7352 46.7076 53.0662 44.117 50.3972 45.373C50.1617 45.4515 49.9262 45.4515 49.6907 45.4515Z" fill="black"/>
<path fill-rule="evenodd" clip-rule="evenodd" d="M43.9602 61.1517C33.9907 61.1517 36.9737 56.3632 39.1717 57.2267C46.1583 59.9742 49.7693 55.2642 50.8683 58.0902C51.9673 60.9162 45.6088 61.1517 43.9602 61.1517Z" fill="black"/>
<path fill-rule="evenodd" clip-rule="evenodd" d="M81.0907 101.972C78.0292 101.972 75.4387 99.3812 75.4387 96.2412V83.7597C75.4387 80.6197 78.0292 78.1077 81.0907 78.1077H94.1218C96.2413 78.1077 96.2413 81.2477 94.1218 81.2477H81.0907C79.7562 81.2477 78.5787 82.3467 78.5787 83.7597V96.2412C78.5787 97.6542 79.7562 98.8317 81.0907 98.8317H94.1218C96.1628 98.8317 96.2413 101.972 94.1218 101.972H81.0907Z" fill="black"/>
<path fill-rule="evenodd" clip-rule="evenodd" d="M77.0088 97.0262C74.5753 97.0262 69.8652 97.5757 69.8652 93.2582V86.7426C69.8652 82.4251 74.5753 83.0531 77.0088 83.0531C79.0498 83.0531 79.0498 86.1931 77.0088 86.1931C75.1248 86.1931 73.0052 85.8006 73.0052 86.7426V93.2582C73.0052 94.9067 78.5788 92.3947 78.5788 95.4562C78.5788 96.3197 77.8723 97.0262 77.0088 97.0262Z" fill="black"/>
<path fill-rule="evenodd" clip-rule="evenodd" d="M88.2344 124.658C85.9579 124.658 82.7394 124.894 80.7769 123.01C79.2069 121.597 78.4219 119.32 78.4219 116.259V100.245C78.4219 98.1252 81.5619 98.1252 81.5619 100.245V116.259C81.5619 121.675 83.9169 121.361 85.9579 121.44C91.5314 121.675 93.4154 121.832 90.7464 114.767C89.2549 110.921 87.2139 105.661 90.1184 99.6952C91.0604 97.8112 93.8864 99.2242 92.9444 101.108C88.3129 110.685 99.931 118.614 92.7089 123.795C91.6884 124.501 90.1969 124.658 88.2344 124.658Z" fill="black"/>
<path fill-rule="evenodd" clip-rule="evenodd" d="M92.9442 117.829H79.9917C77.9507 117.829 77.9507 114.689 79.9917 114.689H92.9442C94.9852 114.689 94.9852 117.829 92.9442 117.829Z" fill="black"/>
<path fill-rule="evenodd" clip-rule="evenodd" d="M120.969 112.334C120.262 112.334 101.187 104.798 98.8319 103.856C96.8694 103.149 98.0469 100.245 99.9309 100.951L121.518 109.272C123.167 109.9 122.696 112.334 120.969 112.334ZM99.3814 79.2068C97.6544 79.2068 97.1834 76.7733 98.8319 76.1453L120.419 67.8242C122.382 67.1177 123.481 70.0222 121.597 70.7287C119.085 71.6707 100.166 79.2068 99.3814 79.2068Z" fill="black"/>
<path fill-rule="evenodd" clip-rule="evenodd" d="M128.976 99.7739C127.249 99.7739 124.816 100.245 124.816 98.2039C124.816 94.9068 130.86 98.4394 130.86 94.8283C130.86 82.5823 131.881 83.3673 126.386 83.3673C124.266 83.3673 124.266 80.2273 126.386 80.2273H128.976C131.724 80.2273 134 82.4253 134 85.1728V94.8283C134 97.5759 131.724 99.7739 128.976 99.7739Z" fill="black"/>
<path fill-rule="evenodd" clip-rule="evenodd" d="M97.1048 105.112C94.5928 105.112 92.5518 103.071 92.5518 100.559V79.4423C92.5518 73.4763 101.658 73.4763 101.658 79.4423V100.559C101.658 103.071 99.6168 105.112 97.1048 105.112ZM97.1048 78.1078C96.3198 78.1078 95.6918 78.6573 95.6918 79.4423V100.559C95.6918 102.364 98.5178 102.364 98.5178 100.559V79.4423C98.5178 78.6573 97.8898 78.1078 97.1048 78.1078Z" fill="black"/>
<path fill-rule="evenodd" clip-rule="evenodd" d="M123.638 116.651C121.283 116.651 119.399 114.767 119.399 112.412V68.0595C119.399 62.486 127.877 62.486 127.877 68.0595V112.412C127.877 114.767 125.993 116.651 123.638 116.651ZM123.638 66.9605C123.088 66.9605 122.539 67.4315 122.539 68.0595V112.412C122.539 113.825 124.815 113.825 124.815 112.412V68.0595C124.815 67.4315 124.266 66.9605 123.638 66.9605Z" fill="black"/>
</g>
<defs>
<clipPath id="clip0_216_6549">
<rect width="134" height="134" fill="white"/>
</clipPath>
</defs>
</svg>
