<svg width="128" height="128" viewBox="0 0 128 128" fill="none" xmlns="http://www.w3.org/2000/svg">
<path d="M76.7809 101.127V102.513C76.7233 103.649 75.785 104.54 74.6486 104.54C73.5112 104.54 72.573 103.649 72.5154 102.513V85.3438H74.6486C75.826 85.3438 76.7809 84.3889 76.7809 83.2115C76.7809 82.0331 75.826 81.0782 74.6486 81.0782H54.5999C54.0346 81.0782 53.4918 81.3028 53.0925 81.7031L47.547 87.2486C46.9925 87.7836 46.7699 88.5773 46.9651 89.3223C47.1604 90.0682 47.7423 90.651 48.4882 90.8453C49.2341 91.0406 50.0269 90.819 50.5629 90.2644L55.4532 85.3731V100.453C55.4571 102.096 54.804 103.672 53.6392 104.829L53.3034 105.166C52.7547 105.703 52.536 106.494 52.7332 107.237C52.9295 107.98 53.5113 108.56 54.2543 108.754C54.9973 108.949 55.7881 108.729 56.3241 108.178L56.657 107.843C58.6233 105.887 59.7256 103.227 59.7188 100.453V85.3438H68.2498V102.513C68.2498 106.047 71.1143 108.911 74.6486 108.911C78.1819 108.911 81.0464 106.047 81.0464 102.513V101.127C81.0464 99.9485 80.0916 98.9937 78.9141 98.9937C77.7357 98.9937 76.7809 99.9485 76.7809 101.127Z" fill="black"/>
<path d="M54.2593 29.5288C54.3784 29.6098 54.5073 29.6742 54.644 29.7201C54.765 29.7816 54.8949 29.8246 55.0276 29.849C55.1682 29.8715 55.3108 29.8861 55.4533 29.891C56.3154 29.888 57.0916 29.3677 57.4226 28.571C57.7525 27.7743 57.5739 26.8576 56.9676 26.2444C56.7635 26.0521 56.5243 25.8998 56.2637 25.7963C55.468 25.4722 54.5571 25.6479 53.9391 26.2444C53.1141 27.085 53.1141 28.4314 53.9391 29.273C54.0455 29.3579 54.1519 29.4428 54.2593 29.5288Z" fill="black"/>
<path d="M63.9843 29.8909H72.5154C73.6938 29.8909 74.6486 28.9361 74.6486 27.7586C74.6486 26.5802 73.6938 25.6254 72.5154 25.6254H63.9843C62.8069 25.6254 61.8511 26.5802 61.8511 27.7586C61.8511 28.9361 62.8069 29.8909 63.9843 29.8909Z" fill="black"/>
<path d="M34.1256 115.203H29.8591C28.6817 115.203 27.7269 116.158 27.7269 117.336C27.7269 118.514 28.6817 119.469 29.8591 119.469H34.1256C35.3031 119.469 36.2579 118.514 36.2579 117.336C36.2579 116.158 35.3031 115.203 34.1256 115.203Z" fill="black"/>
<path d="M40.5234 117.336C40.5234 118.514 41.4783 119.469 42.6567 119.469H98.1095C99.287 119.469 100.242 118.514 100.242 117.336C100.242 116.158 99.287 115.203 98.1095 115.203H42.6567C41.4783 115.203 40.5234 116.158 40.5234 117.336Z" fill="black"/>
<path d="M58.2046 37.8137C59.0452 38.6386 60.3925 38.6386 61.2331 37.8137C61.4254 37.6096 61.5777 37.3714 61.6812 37.1097C61.7906 36.8539 61.8482 36.5786 61.8511 36.2994C61.8433 35.7351 61.6226 35.1942 61.2331 34.7851C61.0251 34.5977 60.7879 34.4463 60.5292 34.338C60.0098 34.1251 59.4279 34.1251 58.9085 34.338C58.6468 34.4405 58.4086 34.5928 58.2046 34.7851C57.3796 35.6267 57.3796 36.9731 58.2046 37.8137Z" fill="black"/>
<path d="M61.2331 45.4387C61.0251 45.2512 60.7879 45.0999 60.5292 44.9915C60.0098 44.7787 59.4279 44.7787 58.9085 44.9915C58.6468 45.0941 58.4086 45.2464 58.2046 45.4387C57.3737 46.2764 57.3766 47.6276 58.2104 48.4614C59.0442 49.2951 60.3954 49.2981 61.2331 48.4672C61.4254 48.2642 61.5777 48.025 61.6812 47.7643C61.7906 47.5075 61.8482 47.2322 61.8511 46.953C61.8433 46.3886 61.6226 45.8478 61.2331 45.4387Z" fill="black"/>
<path d="M61.2331 56.1031C61.0251 55.9157 60.7879 55.7643 60.5292 55.655C60.0098 55.4431 59.4279 55.4431 58.9085 55.655C58.6468 55.7585 58.4086 55.9108 58.2046 56.1031C57.3737 56.9408 57.3766 58.292 58.2104 59.1258C59.0442 59.9596 60.3954 59.9625 61.2331 59.1317C61.4254 58.9276 61.5777 58.6894 61.6812 58.4277C61.7906 58.1719 61.8482 57.8966 61.8511 57.6174C61.8433 57.0531 61.6226 56.5122 61.2331 56.1031Z" fill="black"/>
<path d="M60.5292 66.3193C60.0098 66.1065 59.4279 66.1065 58.9085 66.3193C58.6468 66.4228 58.4086 66.5741 58.2046 66.7674C57.3737 67.6041 57.3766 68.9554 58.2104 69.7891C59.0442 70.6239 60.3954 70.6258 61.2331 69.796C61.4254 69.5919 61.5777 69.3527 61.6812 69.092C61.7906 68.8353 61.8482 68.5599 61.8511 68.2817C61.8433 67.7174 61.6226 67.1765 61.2331 66.7674C61.0251 66.579 60.7879 66.4277 60.5292 66.3193Z" fill="black"/>
<path d="M6.39919 16.7917V49.0863C6.40114 51.4412 8.30984 53.3489 10.6647 53.3518H20.7374C21.5106 53.3518 22.2692 53.1419 22.9321 52.7436L33.0897 46.6494C33.7487 46.2598 34.149 45.5471 34.1383 44.7817C34.1266 44.0163 33.7068 43.3153 33.036 42.9452C32.3653 42.5752 31.5481 42.5938 30.895 42.9921L20.7374 49.0863H10.6647V16.7917C14.8238 15.7177 17.536 11.7178 16.9952 7.45613C16.4533 3.19451 12.8273 0 8.53146 0C4.23567 0 0.609631 3.19451 0.0687513 7.45613C-0.473104 11.7178 2.2391 15.7177 6.39919 16.7917ZM8.53146 4.29775C10.8873 4.29775 12.797 6.20742 12.797 8.56327C12.797 10.9191 10.8873 12.8288 8.53146 12.8288C6.17561 12.8288 4.26594 10.9191 4.26594 8.56327C4.26887 6.2084 6.17659 4.30067 8.53146 4.29775Z" fill="black"/>
<path d="M119.437 0.0322447C115.144 0.0234579 111.516 3.21211 110.974 7.4708C110.433 11.7295 113.146 15.7246 117.304 16.7917V49.0863H107.231L97.0736 42.9921C96.4205 42.5938 95.6033 42.5752 94.9326 42.9453C94.2618 43.3153 93.842 44.0163 93.8303 44.7817C93.8195 45.5472 94.2198 46.2599 94.8789 46.6494L105.036 52.7436C105.699 53.1419 106.458 53.3518 107.231 53.3518H117.304C119.659 53.3489 121.567 51.4412 121.569 49.0863V16.7917C125.728 15.7246 128.442 11.7295 127.9 7.4708C127.358 3.21211 123.73 0.0234579 119.437 0.0322447ZM119.437 12.8288C117.081 12.8288 115.172 10.9192 115.172 8.5633C115.172 6.20745 117.081 4.29777 119.437 4.29777C121.793 4.29777 123.703 6.20745 123.703 8.5633C123.7 10.9182 121.792 12.8259 119.437 12.8288Z" fill="black"/>
<path d="M121.569 77.1154V68.2817C121.567 65.9268 119.659 64.0191 117.304 64.0162H78.9141V53.3519H88.9868L99.1444 59.446C100.154 60.0416 101.454 59.7116 102.058 58.707C102.66 57.7023 102.34 56.3989 101.339 55.7887L91.1816 49.6946C90.5186 49.2962 89.76 49.0863 88.9868 49.0863H78.9141V44.4732C78.9268 42.4025 79.3183 40.3522 80.0691 38.422H100.242C102.597 38.4201 104.504 36.5114 104.507 34.1565V29.5883C108.667 28.5144 111.38 24.5144 110.838 20.2528C110.297 15.9911 106.671 12.7966 102.375 12.7966C98.0783 12.7966 94.4532 15.9911 93.9113 20.2528C93.3705 24.5144 96.0827 28.5144 100.242 29.5883V34.1565H82.3703L88.7593 25.0279C90.1271 23.0733 90.2941 20.5203 89.1918 18.4046C88.0905 16.2889 85.9026 14.9611 83.5165 14.9611H44.4521C42.066 14.9611 39.879 16.2889 38.7768 18.4046C37.6745 20.5203 37.8415 23.0733 39.2093 25.0279L45.5983 34.1565H27.7268V29.5883C31.8859 28.5144 34.5981 24.5144 34.0573 20.2528C33.5154 15.9911 29.8903 12.7966 25.5936 12.7966C21.2978 12.7966 17.6717 15.9911 17.1309 20.2528C16.589 24.5144 19.3012 28.5144 23.4613 29.5883V34.1565C23.4642 36.5114 25.372 38.4201 27.7268 38.422H47.8995C48.6503 40.3522 49.0418 42.4025 49.0545 44.4732V49.0863H38.9818C38.2086 49.0863 37.45 49.2962 36.787 49.6946L26.6294 55.7887C25.9695 56.1783 25.5701 56.891 25.5809 57.6564C25.5926 58.4219 26.0124 59.1229 26.6831 59.4929C27.3539 59.8629 28.1711 59.8453 28.8242 59.446L38.9818 53.3519H49.0545V64.0162H10.6647C8.30984 64.0191 6.40114 65.9268 6.39919 68.2817V77.1154C2.2391 78.1894 -0.473105 82.1893 0.0687513 86.4509C0.609631 90.7126 4.23567 93.9071 8.53146 93.9071C12.8273 93.9071 16.4533 90.7126 16.9952 86.4509C17.536 82.1893 14.8238 78.1894 10.6647 77.1154V68.2817H48.5605C48.0879 70.0908 47.2219 71.774 46.0259 73.2111L20.4601 103.427C16.7052 107.864 15.8675 114.079 18.3132 119.352C20.7589 124.625 26.0437 128 31.8566 128H96.112C101.925 128 107.21 124.625 109.655 119.352C112.101 114.079 111.263 107.864 107.509 103.427L81.9427 73.2111C80.7467 71.774 79.8807 70.0908 79.4082 68.2817H117.304V77.1154C113.145 78.1894 110.433 82.1893 110.973 86.4509C111.515 90.7126 115.141 93.9071 119.437 93.9071C123.733 93.9071 127.359 90.7126 127.9 86.4509C128.442 82.1893 125.73 78.1894 121.569 77.1154ZM98.1095 21.3599C98.1095 19.0041 100.019 17.0944 102.375 17.0944C104.731 17.0944 106.641 19.0041 106.641 21.3599C106.641 23.7158 104.731 25.6254 102.375 25.6254C100.02 25.6225 98.1115 23.7148 98.1095 21.3599ZM21.328 21.3599C21.328 19.0041 23.2377 17.0944 25.5936 17.0944C27.9494 17.0944 29.8591 19.0041 29.8591 21.3599C29.8591 23.7158 27.9494 25.6254 25.5936 25.6254C23.2397 25.6225 21.331 23.7148 21.328 21.3599ZM12.797 85.3438C12.797 87.6997 10.8873 89.6093 8.53146 89.6093C6.17561 89.6093 4.26594 87.6997 4.26594 85.3438C4.26594 82.9879 6.17561 81.0783 8.53146 81.0783C10.8863 81.0812 12.7941 82.9889 12.797 85.3438ZM104.252 106.181C106.935 109.35 107.535 113.79 105.787 117.557C104.041 121.325 100.264 123.736 96.112 123.735H31.8566C27.7044 123.736 23.928 121.325 22.1814 117.557C20.4337 113.79 21.0332 109.35 23.7171 106.181L49.2839 75.9663C51.5353 73.3 52.9168 70.0088 53.2419 66.5351C53.2809 66.4091 53.3073 66.2793 53.32 66.1484C53.3102 66.0762 53.2956 66.003 53.278 65.9317C53.2966 65.6037 53.32 65.2766 53.32 64.9456V44.4732C53.3268 40.0964 51.9805 35.824 49.4655 32.2429L42.7045 22.5832C42.2476 21.932 42.1919 21.0807 42.559 20.3748C42.9271 19.6689 43.6564 19.2267 44.4521 19.2276H83.5165C84.3122 19.2267 85.0415 19.6699 85.4096 20.3748C85.7767 21.0807 85.721 21.932 85.2641 22.5832L78.5031 32.2429C75.9881 35.824 74.6418 40.0964 74.6486 44.4732V64.9456C74.6486 65.2766 74.673 65.6037 74.6906 65.9327C74.673 66.0039 74.6584 66.0762 74.6486 66.1484C74.6613 66.2802 74.6877 66.4091 74.7267 66.5351C75.0518 70.0098 76.4333 73.3009 78.6847 75.9673L104.252 106.181ZM119.437 89.6093C117.081 89.6093 115.172 87.6997 115.172 85.3438C115.172 82.9879 117.081 81.0783 119.437 81.0783C121.793 81.0783 123.703 82.9879 123.703 85.3438C123.7 87.6987 121.792 89.6064 119.437 89.6093Z" fill="black"/>
<path d="M52.126 10.3334C52.2451 10.4144 52.3749 10.4788 52.5116 10.5257C52.6317 10.5862 52.7616 10.6292 52.8953 10.6536C53.0359 10.678 53.1775 10.6917 53.32 10.6956C53.6002 10.7034 53.8775 10.6448 54.1304 10.5257C54.3891 10.4164 54.6263 10.265 54.8343 10.0776C55.2238 9.66851 55.4445 9.12763 55.4533 8.56331C55.4494 8.4198 55.4347 8.27725 55.4103 8.13666C55.3879 8.00291 55.3449 7.87306 55.2824 7.75297C55.2395 7.62215 55.174 7.49913 55.0911 7.38978C55.0051 7.26188 54.9202 7.15547 54.8343 7.04905C54.6273 6.86062 54.3891 6.70929 54.1304 6.60092C53.7418 6.43104 53.3093 6.38613 52.8934 6.47302C52.7606 6.49645 52.6307 6.53941 52.5097 6.60092C52.374 6.64778 52.2441 6.71222 52.125 6.79325L51.8058 7.04905C51.7208 7.15547 51.6349 7.26188 51.55 7.38978C51.465 7.49913 51.4006 7.62117 51.3576 7.75297C51.2961 7.87404 51.2532 8.00291 51.2287 8.13666C51.2053 8.27823 51.1916 8.4198 51.1877 8.56331C51.1956 9.12763 51.4162 9.66851 51.8058 10.0776C51.9073 10.1694 52.0137 10.2553 52.126 10.3334Z" fill="black"/>
<path d="M58.5248 3.93451C58.6439 4.01554 58.7728 4.07998 58.9095 4.12684C59.0305 4.18835 59.1604 4.23131 59.2931 4.25474C59.4337 4.27915 59.5763 4.29379 59.7188 4.2977C59.999 4.30453 60.2763 4.24693 60.5292 4.12684C60.7869 4.01847 61.0251 3.86616 61.2331 3.67871C61.6217 3.26963 61.8433 2.72875 61.8511 2.16444C61.8472 2.0219 61.8335 1.87936 61.8091 1.73779C61.7867 1.60404 61.7427 1.47516 61.6812 1.3541C61.6373 1.22327 61.5728 1.10123 61.4889 0.991887C61.4039 0.86399 61.318 0.756595 61.2331 0.650176C61.0251 0.462723 60.7879 0.311395 60.5292 0.202047C60.1406 0.0321678 59.7081 -0.0117664 59.2922 0.0741495C59.1584 0.0975811 59.0295 0.140539 58.9085 0.202047C58.7728 0.24891 58.6429 0.313347 58.5248 0.394381L58.2046 0.650176C58.1196 0.756595 58.0337 0.86399 57.9488 0.991887C57.8638 1.10026 57.7994 1.22327 57.7564 1.3541C57.6959 1.47516 57.652 1.60501 57.6285 1.73779C57.6051 1.87936 57.5905 2.0219 57.5856 2.16444C57.5934 2.72973 57.815 3.27061 58.2046 3.67871C58.3061 3.77049 58.4125 3.8564 58.5248 3.93451Z" fill="black"/>
<path d="M69.1881 10.3334C69.3072 10.4144 69.4371 10.4788 69.5738 10.5257C69.6948 10.5862 69.8237 10.6292 69.9575 10.6536C70.098 10.678 70.2406 10.6917 70.3831 10.6956C70.6624 10.7034 70.9406 10.6448 71.1935 10.5257C71.4512 10.4164 71.6894 10.265 71.8974 10.0776C72.286 9.66851 72.5066 9.12763 72.5154 8.56331C72.5115 8.4198 72.4969 8.27725 72.4724 8.13666C72.45 8.00291 72.407 7.87306 72.3446 7.75297C72.3016 7.62215 72.2372 7.49913 72.1532 7.38978C72.0673 7.26188 71.9823 7.15547 71.8974 7.04905C71.6894 6.86062 71.4512 6.70929 71.1935 6.60092C70.8039 6.43104 70.3714 6.38613 69.9565 6.47302C69.8227 6.49645 69.6929 6.53941 69.5718 6.60092C69.4361 6.64778 69.3063 6.71222 69.1871 6.79325L68.8669 7.04905C68.782 7.15547 68.697 7.26188 68.6111 7.38978C68.5262 7.49913 68.4617 7.62117 68.4198 7.75297C68.3582 7.87404 68.3143 8.00291 68.2899 8.13666C68.2675 8.27823 68.2538 8.4198 68.2499 8.56331C68.2577 9.12763 68.4783 9.66851 68.8689 10.0776C68.9694 10.1694 69.0768 10.2553 69.1881 10.3334Z" fill="black"/>
<path d="M75.5869 3.93451C75.706 4.01554 75.8359 4.07998 75.9716 4.12684C76.0927 4.18835 76.2225 4.23131 76.3563 4.25474C76.4968 4.27915 76.6384 4.29379 76.781 4.2977C77.0612 4.30453 77.3384 4.24693 77.5913 4.12684C77.85 4.01847 78.0873 3.86616 78.2952 3.67871C78.6848 3.26963 78.9054 2.72875 78.9142 2.16444C78.9103 2.0219 78.8957 1.87936 78.8713 1.73779C78.8488 1.60404 78.8058 1.47516 78.7434 1.3541C78.7004 1.22327 78.635 1.10123 78.551 0.991887C78.4661 0.86399 78.3811 0.756595 78.2952 0.650176C78.0882 0.462723 77.85 0.311395 77.5913 0.202047C77.2027 0.0321678 76.7702 -0.0117664 76.3543 0.0741495C76.2206 0.0975811 76.0917 0.140539 75.9706 0.202047C75.8349 0.24891 75.706 0.313347 75.5869 0.394381L75.2667 0.650176C75.1818 0.756595 75.0958 0.86399 75.0109 0.991887C74.926 1.10026 74.8615 1.22327 74.8186 1.3541C74.758 1.47516 74.7151 1.60501 74.6907 1.73779C74.6672 1.87936 74.6536 2.0219 74.6487 2.16444C74.6565 2.72973 74.8771 3.27061 75.2667 3.67871C75.3682 3.77049 75.4746 3.8564 75.5869 3.93451Z" fill="black"/>
</svg>
