<svg width="48" height="48" viewBox="0 0 48 50" fill="none" xmlns="http://www.w3.org/2000/svg">
<path d="M16.9948 39.4912C16.556 39.4912 16.2004 39.1356 16.2004 38.6968V33.6366C16.2004 33.1977 16.5561 32.8421 16.9948 32.8421H20.2188L20.2079 20.936C20.2079 19.8802 19.3487 19.0212 18.2929 19.0212H15.2447C14.8059 19.0212 14.4502 18.6654 14.4502 18.2266C14.4502 17.7878 14.8059 17.4321 15.2447 17.4321H18.2929C20.2249 17.4321 21.7968 19.0041 21.7968 20.936V32.8529C21.7968 33.723 21.0888 34.431 20.2187 34.431H17.7893V38.6968C17.7894 39.1356 17.4336 39.4912 16.9948 39.4912Z" fill="black"/>
<path d="M4.80207 39.4912C4.36325 39.4912 4.00762 39.1356 4.00762 38.6968V34.431H1.5778C0.707861 34.431 0 33.723 0 32.8529V20.936C0 19.0041 1.57186 17.4321 3.50376 17.4321H6.55208C6.99091 17.4321 7.34654 17.7879 7.34654 18.2266C7.34654 18.6654 6.9908 19.0212 6.55208 19.0212H3.50376C2.44797 19.0212 1.58892 19.8802 1.58892 20.936V32.8529L4.80196 32.842C5.24079 32.842 5.59653 33.1976 5.59653 33.6365V38.6967C5.59664 39.1356 5.2409 39.4912 4.80207 39.4912Z" fill="black"/>
<path d="M4.80194 34.4312C4.36311 34.4312 4.00748 34.0755 4.00748 33.6368V24.21C4.00748 23.7712 4.36322 23.4155 4.80194 23.4155C5.24076 23.4155 5.5965 23.7713 5.5965 24.21V33.6366C5.5965 34.0755 5.24076 34.4312 4.80194 34.4312Z" fill="black"/>
<path d="M16.9946 34.4312C16.5558 34.4312 16.2002 34.0755 16.2002 33.6368V24.21C16.2002 23.7712 16.5559 23.4155 16.9946 23.4155C17.4334 23.4155 17.7892 23.7713 17.7892 24.21V33.6366C17.7892 34.0755 17.4334 34.4312 16.9946 34.4312Z" fill="black"/>
<path d="M10.8978 13.1703C8.06302 13.1703 5.75677 10.8641 5.75677 8.02933C5.75677 5.19491 8.06302 2.88867 10.8978 2.88867C13.7322 2.88867 16.0384 5.19491 16.0384 8.02933C16.0385 10.8642 13.7323 13.1703 10.8978 13.1703ZM10.8978 4.47759C8.93912 4.47759 7.3458 6.07102 7.3458 8.02933C7.3458 9.98797 8.93912 11.5813 10.8978 11.5813C12.8561 11.5813 14.4495 9.98797 14.4495 8.02933C14.4495 6.07102 12.8561 4.47759 10.8978 4.47759Z" fill="black"/>
<path d="M10.8989 32.3986C10.7158 32.3986 10.5327 32.3355 10.3843 32.2096L8.12651 30.2907C7.92933 30.1231 7.826 29.8702 7.84999 29.6123L8.59791 21.4839C8.63796 21.0466 9.02462 20.7213 9.46191 20.7658C9.89864 20.8058 10.2204 21.1928 10.18 21.6298L9.46994 29.347L10.8988 30.5614L12.3248 29.3496L11.5613 21.6352C11.5181 21.1986 11.8371 20.8096 12.2739 20.7661C12.7103 20.7246 13.0995 21.0424 13.1429 21.4787L13.9473 29.6072C13.9728 29.8666 13.8698 30.122 13.6711 30.2908L11.4133 32.2097C11.2651 32.3356 11.0821 32.3986 10.8989 32.3986Z" fill="black"/>
<path d="M32.5213 39.4912C32.0824 39.4912 31.7268 39.1356 31.7268 38.6968V34.431H29.2974C28.4272 34.431 27.7193 33.723 27.7193 32.8529V20.936C27.7193 19.0041 29.2912 17.4321 31.2232 17.4321H34.2714C34.7102 17.4321 35.0658 17.7879 35.0658 18.2266C35.0658 18.6654 34.7101 19.0212 34.2714 19.0212H31.2232C30.1673 19.0212 29.3082 19.8802 29.3082 20.936V32.8529L32.5213 32.842C32.9601 32.842 33.3158 33.1976 33.3158 33.6365V38.6967C33.3159 39.1356 32.9602 39.4912 32.5213 39.4912Z" fill="black"/>
<path d="M44.714 39.4912C44.2752 39.4912 43.9196 39.1356 43.9196 38.6968V33.6366C43.9196 33.1977 44.2753 32.8421 44.714 32.8421H47.9383L47.9272 20.936C47.9272 19.8802 47.0681 19.0212 46.0122 19.0212H42.964C42.5252 19.0212 42.1695 18.6654 42.1695 18.2266C42.1695 17.7878 42.5252 17.4321 42.964 17.4321H46.0122C47.9442 17.4321 49.5161 19.0041 49.5161 20.936V32.8529C49.5161 33.723 48.8081 34.431 47.9383 34.431H45.5087V38.6968C45.5087 39.1356 45.1529 39.4912 44.714 39.4912Z" fill="black"/>
<path d="M44.7145 34.4312C44.2757 34.4312 43.9201 34.0755 43.9201 33.6368V24.21C43.9201 23.7712 44.2758 23.4155 44.7145 23.4155C45.1534 23.4155 45.5091 23.7713 45.5091 24.21V33.6366C45.5092 34.0755 45.1535 34.4312 44.7145 34.4312Z" fill="black"/>
<path d="M32.5212 34.4312C32.0824 34.4312 31.7268 34.0755 31.7268 33.6368V24.21C31.7268 23.7712 32.0825 23.4155 32.5212 23.4155C32.9601 23.4155 33.3158 23.7713 33.3158 24.21V33.6366C33.3159 34.0755 32.9602 34.4312 32.5212 34.4312Z" fill="black"/>
<path d="M38.618 13.1703C35.7836 13.1703 33.4773 10.8641 33.4773 8.02933C33.4773 5.19491 35.7836 2.88867 38.618 2.88867C41.4527 2.88867 43.759 5.19491 43.759 8.02933C43.759 10.8642 41.4527 13.1703 38.618 13.1703ZM38.618 4.47759C36.6597 4.47759 35.0663 6.07102 35.0663 8.02933C35.0663 9.98797 36.6597 11.5813 38.618 11.5813C40.5766 11.5813 42.1699 9.98797 42.1699 8.02933C42.1701 6.07102 40.5766 4.47759 38.618 4.47759Z" fill="black"/>
<path d="M38.7182 16.0601C37.4408 16.0601 36.164 15.7683 34.9877 15.1827L27.466 11.5681C27.0707 11.3781 26.904 10.9036 27.0942 10.5079C27.2841 10.1125 27.7582 9.94559 28.1544 10.1362L35.686 13.7555C37.7182 14.7675 40.1079 14.7008 42.0896 13.5819C43.9703 12.5203 45.1468 10.709 45.3169 8.61262C45.3328 8.4205 45.3405 8.22595 45.3405 8.02976C45.3405 7.834 45.3327 7.63935 45.3169 7.44756C45.1468 5.35082 43.9703 3.53963 42.0896 2.4779C40.1079 1.35949 37.7176 1.2927 35.6959 2.29975L25.4549 8.27129L14.5981 15.1428C14.5752 15.1573 14.5515 15.1708 14.5275 15.1829C12.033 16.4248 9.08629 16.3435 6.6447 14.9659C4.29686 13.6407 2.828 11.372 2.6142 8.74114C2.59516 8.50687 2.58559 8.26941 2.58559 8.02987C2.58559 7.79065 2.59516 7.55319 2.6142 7.31859C2.828 4.68797 4.29686 2.41936 6.6447 1.09409C9.08596 -0.284114 12.0337 -0.36455 14.5275 0.877205L21.6932 4.44567C22.0861 4.64142 22.2459 5.11854 22.0505 5.51104C21.8546 5.90364 21.378 6.06353 20.985 5.86832L13.8193 2.29986C11.7964 1.29248 9.40704 1.35916 7.42562 2.47801C5.54489 3.53974 4.36839 5.35104 4.19827 7.44745C4.18243 7.63946 4.17472 7.83411 4.17472 8.02998C4.17472 8.22617 4.18254 8.42071 4.19827 8.61251C4.36839 10.7092 5.54489 12.5204 7.42562 13.5822C9.39571 14.6942 11.7693 14.7663 13.7838 13.778L24.6301 6.91366L34.9417 0.902183C37.4817 -0.36433 40.4288 -0.283674 42.8703 1.0942C45.2181 2.41947 46.687 4.68808 46.9008 7.31893C46.9198 7.5533 46.9294 7.79065 46.9294 8.02998C46.9294 8.26964 46.9198 8.50698 46.9008 8.74169C46.687 11.3722 45.2181 13.6409 42.8703 14.9661C41.5805 15.6939 40.149 16.0597 38.7182 16.0601Z" fill="black"/>
<path d="M38.6177 32.3989C38.4346 32.3989 38.2514 32.3358 38.1032 32.21L35.8453 30.2911C35.6467 30.1223 35.5436 29.8669 35.569 29.6074L36.3735 21.4789C36.4167 21.0426 36.7994 20.7251 37.2426 20.7663C37.6793 20.8098 37.9982 21.1987 37.9552 21.6354L37.1916 29.3498L38.6177 30.5616L40.0466 29.3473L39.3366 21.63C39.2962 21.1931 39.618 20.806 40.0547 20.766C40.4901 20.7263 40.8787 21.0472 40.9187 21.4841L41.6666 29.6126C41.6905 29.8704 41.5871 30.1234 41.3901 30.2909L39.1322 32.2099C38.9839 32.336 38.8009 32.3989 38.6177 32.3989Z" fill="black"/>
</svg>
