<svg width="196" height="57" viewBox="0 0 196 57" fill="none" xmlns="http://www.w3.org/2000/svg">
<path d="M73.9022 24.2082C73.9022 18.1993 72.1882 15.1145 68.7599 14.9457C67.3956 14.8813 66.0643 15.0984 64.7685 15.6014C63.7344 15.9711 63.0384 16.3375 62.6722 16.7077V31.0501C64.8651 32.4258 66.8123 33.0654 68.5105 32.9647C72.1032 32.7266 73.9022 29.8109 73.9022 24.2082ZM78.131 24.4574C78.131 27.5101 77.4148 30.0441 75.9741 32.059C74.3687 34.3396 72.1436 35.514 69.299 35.5784C67.1545 35.6465 64.9451 34.9751 62.6718 33.5672V46.6028L58.9941 45.2914V16.3573C59.5977 15.6175 60.3746 14.982 61.3158 14.4427C63.5049 13.1677 66.1642 12.5124 69.2949 12.4802L69.3469 12.5322C72.208 12.4963 74.4124 13.6707 75.9617 16.0516C77.4065 18.2357 78.131 21.035 78.131 24.4574ZM100.607 33.0126C100.607 37.1072 100.197 39.9424 99.376 41.5191C98.5512 43.0954 96.9817 44.3543 94.6643 45.2918C92.7852 46.0317 90.7529 46.434 88.5725 46.5025L87.9644 44.186C90.1816 43.8848 91.7428 43.5827 92.6481 43.2811C94.4306 42.6778 95.6538 41.7531 96.3258 40.5139C96.8649 39.5046 97.1304 37.578 97.1304 34.7267V33.7694C94.6155 34.912 91.9802 35.4789 89.2243 35.4789C87.4133 35.4789 85.8162 34.912 84.4399 33.7694C82.8948 32.5265 82.1224 30.9502 82.1224 29.0397V13.7392L85.8001 12.4802V27.8802C85.8001 29.525 86.3309 30.7922 87.3931 31.681C88.4552 32.5698 89.8315 32.9965 91.5174 32.9639C93.2033 32.9276 95.0098 32.276 96.9289 31.001V13.0348H100.607L100.607 33.0126ZM114.963 35.3774C114.56 35.4114 114.156 35.4288 113.752 35.4294C111.672 35.4294 110.05 34.9351 108.892 33.9414C107.737 32.9482 107.157 31.577 107.157 29.827V15.3476H104.638V13.0352H107.157V6.89351L110.831 5.58628V13.0352H114.963V15.3476H110.831V29.7264C110.831 31.1062 111.201 32.0833 111.941 32.6548C112.577 33.1252 113.587 33.3947 114.963 33.4632V35.3774H114.963ZM137.23 35.0758H133.553V20.886C133.553 19.4422 133.215 18.1993 132.543 17.162C131.766 15.9872 130.688 15.4 129.304 15.4C127.618 15.4 125.509 16.2888 122.979 18.0665V35.0758H119.301V1.15827L122.979 0V15.4483C125.328 13.7387 127.896 12.8821 130.684 12.8821C132.632 12.8821 134.209 13.5378 135.416 14.845C136.627 16.1518 137.231 17.7809 137.231 19.7278L137.23 35.0758ZM156.777 23.6292C156.777 21.3205 156.339 19.4141 155.465 17.906C154.427 16.0681 152.814 15.0984 150.633 14.9981C146.601 15.2312 144.589 18.1189 144.589 23.6536C144.589 26.1913 145.008 28.311 145.853 30.0123C146.931 32.1803 148.549 33.2503 150.705 33.214C154.753 33.1814 156.777 29.988 156.777 23.6292ZM160.805 23.6532C160.805 26.9394 159.964 29.6744 158.286 31.858C156.439 34.3037 153.888 35.5301 150.633 35.5301C147.406 35.5301 144.891 34.3033 143.076 31.858C141.431 29.6744 140.61 26.9394 140.61 23.6532C140.61 20.5646 141.499 17.9662 143.277 15.8506C145.157 13.6063 147.627 12.4802 150.681 12.4802C153.735 12.4802 156.221 13.6063 158.137 15.8506C159.916 17.9662 160.805 20.5646 160.805 23.6532ZM181.888 35.0758H178.211V20.0818C178.211 18.437 177.716 17.1537 176.726 16.2286C175.736 15.3076 174.416 14.8611 172.771 14.897C171.025 14.9292 169.363 15.5003 167.786 16.6066V35.0758H164.108V16.1523C166.225 14.6123 168.172 13.6063 169.951 13.1359C171.628 12.6977 173.109 12.4802 174.384 12.4802C175.257 12.4802 176.079 12.5644 176.851 12.7336C178.295 13.0674 179.471 13.6867 180.375 14.5958C181.386 15.6014 181.888 16.8075 181.888 18.2196V35.0758Z" fill="#646464"/>
<path d="M22.6707 1.29337C20.7784 1.30204 18.9716 1.46338 17.3818 1.7448C12.6981 2.57213 11.8478 4.30315 11.8478 7.49613V11.7129H22.9159V13.1183H7.6937C4.47712 13.1183 1.66014 15.0511 0.77921 18.7277C-0.237117 22.942 -0.282113 25.5717 0.77921 29.972C1.56602 33.2476 3.44511 35.5814 6.66169 35.5814H10.4673V30.5266C10.4673 26.8748 13.6282 23.6538 17.3818 23.6538H28.4372C31.5146 23.6538 33.9713 21.121 33.9713 18.0316V7.49572C33.9713 4.4975 31.4408 2.24491 28.4372 1.74438C26.5354 1.4283 24.563 1.28429 22.6707 1.29337ZM16.685 4.68442C17.8285 4.68442 18.7618 5.63307 18.7618 6.79919C18.7618 7.96117 17.8281 8.90116 16.685 8.90116C15.5378 8.90116 14.6082 7.96158 14.6082 6.79919C14.6082 5.63307 15.5378 4.68442 16.685 4.68442Z" fill="url(#paint0_linear_108_813)"/>
<path d="M35.3516 13.1191V18.032C35.3516 21.841 32.1209 25.0468 28.4371 25.0468H17.3817C14.3534 25.0468 11.8477 27.6374 11.8477 30.669V41.204C11.8477 44.2027 14.4558 45.9663 17.3817 46.8262C20.8852 47.8561 24.245 48.0422 28.4371 46.8262C31.2235 46.0199 33.9711 44.3966 33.9711 41.204V36.9877H22.9158V35.5823H39.5052C42.7222 35.5823 43.9206 33.3392 45.0393 29.9729C46.1951 26.5076 46.146 23.1743 45.0393 18.7285C44.2442 15.5277 42.7259 13.1191 39.5052 13.1191H35.3516ZM29.1335 39.7986C30.2807 39.7986 31.2103 40.7382 31.2103 41.9006C31.2103 43.0667 30.2807 44.0153 29.1335 44.0153C27.99 44.0153 27.0567 43.0667 27.0567 41.9006C27.0567 40.7386 27.9904 39.7986 29.1335 39.7986Z" fill="url(#paint1_linear_108_813)"/>
<path d="M189.049 9.75853H189.694V5.71634H191.221V5.23438H187.521V5.71634H189.049L189.049 9.75853ZM191.793 9.75853H192.344V6.06666L193.539 9.75811H194.152L195.399 6.07904V9.75853H196V5.23479H195.205L193.843 9.11069L192.682 5.23479H191.793V9.75853Z" fill="#646464"/>
<path opacity="0.444" d="M37.8744 53.9885C37.8744 55.5764 31.2336 56.8634 23.0415 56.8634C14.8498 56.8634 8.20898 55.5764 8.20898 53.9885C8.20898 52.4007 14.8498 51.1133 23.0415 51.1133C31.2336 51.1133 37.8744 52.4007 37.8744 53.9885Z" fill="url(#paint2_radial_108_813)"/>
<defs>
<linearGradient id="paint0_linear_108_813" x1="-1.09162" y1="2.61009" x2="24.4227" y2="24.3579" gradientUnits="userSpaceOnUse">
<stop stop-color="#5A9FD4"/>
<stop offset="1" stop-color="#306998"/>
</linearGradient>
<linearGradient id="paint1_linear_108_813" x1="34.0083" y1="37.8999" x2="24.8562" y2="25.0711" gradientUnits="userSpaceOnUse">
<stop stop-color="#FFD43B"/>
<stop offset="1" stop-color="#FFE873"/>
</linearGradient>
<radialGradient id="paint2_radial_108_813" cx="0" cy="0" r="1" gradientUnits="userSpaceOnUse" gradientTransform="translate(23.0368 53.9224) rotate(-90) scale(2.87442 12.6423)">
<stop stop-color="#B8B8B8" stop-opacity="0.498"/>
<stop offset="1" stop-color="#7F7F7F" stop-opacity="0"/>
</radialGradient>
</defs>
</svg>
