<svg width="123" height="117" viewBox="0 0 123 117" fill="none" xmlns="http://www.w3.org/2000/svg">
<path d="M0.925088 15.7239L3.50357 33.3308C3.59978 34.0427 3.98463 34.6585 4.56191 35.1011C5.13918 35.5244 5.83191 35.7168 6.54388 35.6014L18.8013 33.8118C18.8783 33.8118 18.9552 33.8118 19.013 33.8503L24.4971 36.7752C24.8819 36.9868 25.3245 37.083 25.7671 37.083C26.1904 37.083 26.6137 36.9868 26.9986 36.7944C27.7875 36.3903 28.3071 35.6399 28.4225 34.7547L28.7111 32.6188C28.7304 32.4649 28.8458 32.3302 29.019 32.3109L31.8092 31.9068C33.2716 31.6952 34.2915 30.3289 34.0798 28.8665L31.5013 11.2597C31.4051 10.5477 31.0202 9.93198 30.443 9.50864C29.8657 9.08531 29.1537 8.89288 28.461 9.00834L3.17645 12.6836C2.48372 12.7991 1.84872 13.1647 1.42539 13.742C1.00206 14.3192 0.809633 15.0312 0.925088 15.7239ZM3.29191 15.1274C3.33039 15.0889 3.40736 15.012 3.52281 14.9927L28.7689 11.2982C28.9613 11.2789 29.1537 11.4136 29.173 11.6061L31.7515 29.2129C31.7707 29.4053 31.636 29.5977 31.4436 29.617L28.6534 30.0211C27.4796 30.1943 26.5368 31.1371 26.3828 32.3302L26.0942 34.4661C26.0749 34.62 25.9595 34.697 25.9018 34.7355C25.844 34.7739 25.7093 34.8124 25.5746 34.7355L20.0905 31.8106C19.7057 31.5989 19.2631 31.5027 18.8398 31.5027C18.7051 31.5027 18.5704 31.5027 18.4549 31.522L6.19751 33.3115C6.08206 33.3308 5.98585 33.2923 5.92812 33.2538C5.87039 33.2153 5.81266 33.1383 5.79342 33.0229L3.21494 15.3968C3.19569 15.2814 3.25342 15.1852 3.29191 15.1274Z" fill="black"/>
<path d="M26.4983 22.8051L8.37195 25.4606C7.73695 25.5568 7.29437 26.1341 7.39058 26.7691C7.46755 27.3463 7.96786 27.7697 8.54513 27.7697C8.60286 27.7697 8.66058 27.7697 8.71831 27.7504L26.8447 25.095C27.4797 24.9988 27.9223 24.4215 27.826 23.7865C27.7298 23.1515 27.1333 22.7089 26.4983 22.8051Z" fill="black"/>
<path d="M8.29514 21.6505C8.35287 21.6505 8.4106 21.6505 8.46833 21.6313L26.5947 18.9758C27.2297 18.8796 27.6723 18.3024 27.5761 17.6674C27.4798 17.0324 26.8833 16.5898 26.2676 16.686L8.14121 19.3414C7.48696 19.4377 7.06363 20.0149 7.1406 20.6499C7.23681 21.2272 7.73711 21.6505 8.29514 21.6505Z" fill="black"/>
<path d="M91.2106 28.3086L94.0007 28.7127C94.1547 28.7319 94.2894 28.8666 94.3086 29.0205L94.5973 31.1565C94.7127 32.0224 95.2515 32.7921 96.0212 33.1961C96.406 33.3886 96.8294 33.4848 97.2527 33.4848C97.6953 33.4848 98.1186 33.3886 98.5227 33.1769L104.007 30.2521C104.084 30.2136 104.161 30.1943 104.238 30.2136L116.495 32.0031C117.207 32.0993 117.9 31.9261 118.477 31.5028C119.054 31.0795 119.42 30.4445 119.535 29.7325L122.114 12.1257C122.21 11.4137 122.037 10.721 121.614 10.1437C121.19 9.56645 120.555 9.20085 119.843 9.08539L94.578 5.39084C93.1156 5.17918 91.7494 6.19903 91.5377 7.66145L88.9592 25.2683C88.863 25.9802 89.0362 26.673 89.4595 27.2502C89.8829 27.8275 90.5179 28.2124 91.2106 28.3086ZM93.8276 7.98857C93.8468 7.85388 93.9238 7.79615 93.9623 7.75766C94.0007 7.71918 94.0777 7.68069 94.1739 7.68069H94.2317L119.478 11.3752C119.593 11.3945 119.67 11.4522 119.709 11.5099C119.747 11.5677 119.786 11.6446 119.766 11.7793L117.188 29.3862C117.149 29.5786 116.995 29.7133 116.784 29.694L104.526 27.9045C103.949 27.8083 103.391 27.9237 102.872 28.1931L97.3874 31.118C97.2527 31.1949 97.118 31.1565 97.0603 31.118C97.0026 31.0795 96.8871 31.0025 96.8679 30.8486L96.5792 28.7127C96.4253 27.5389 95.4824 26.5768 94.3086 26.4036L91.5185 25.9995C91.3838 25.9802 91.326 25.9033 91.2876 25.8648C91.2491 25.8071 91.2106 25.7301 91.2298 25.5954L93.8276 7.98857Z" fill="black"/>
<path d="M101.948 25.8454C102.16 26.0571 102.448 26.1725 102.756 26.1725C102.833 26.1725 102.91 26.1725 102.987 26.1533C104.623 25.8069 112.839 23.9019 114.013 19.8802C114.898 16.7822 113.109 13.5302 110.011 12.6451C108.779 12.2795 107.471 12.3565 106.278 12.8183C105.527 11.7984 104.45 11.048 103.199 10.6824C100.101 9.79722 96.8487 11.5868 95.9636 14.6848C94.809 18.7065 100.755 24.6909 101.948 25.8454ZM98.1957 15.3198C98.6383 13.7804 100.043 12.7798 101.582 12.7798C101.91 12.7798 102.237 12.8183 102.564 12.9145C103.545 13.2031 104.353 13.8959 104.777 14.8195C104.911 15.1274 105.181 15.3583 105.508 15.4545C105.835 15.5507 106.181 15.493 106.47 15.3198C107.336 14.7618 108.394 14.6078 109.376 14.8772C111.242 15.416 112.32 17.3787 111.781 19.2452C111.242 21.131 106.585 22.9398 103.122 23.7672C100.62 21.208 97.6569 17.1863 98.1957 15.3198Z" fill="black"/>
<path d="M71.9105 85.9781C71.9105 80.0899 67.1191 75.2793 61.2117 75.2793C55.3043 75.2793 50.5129 80.0707 50.5129 85.9781C50.5129 91.8663 55.3043 96.6769 61.2117 96.6769C67.1191 96.6769 71.9105 91.8663 71.9105 85.9781ZM52.8413 85.9781C52.8413 81.3599 56.5935 77.6076 61.2117 77.6076C65.8299 77.6076 69.5822 81.3599 69.5822 85.9781C69.5822 90.5963 65.8299 94.3485 61.2117 94.3485C56.5935 94.3485 52.8413 90.5963 52.8413 85.9781Z" fill="black"/>
<path d="M56.4974 29.5977C57.1324 29.5977 57.652 29.0781 57.652 28.4431C57.652 27.8081 57.1324 27.2886 56.4974 27.2886H54.3423C53.7073 27.2886 53.1877 27.8081 53.1877 28.4431C53.1877 29.0781 53.7073 29.5977 54.3423 29.5977H56.4974Z" fill="black"/>
<path d="M66.6382 29.5977H68.7933C69.4283 29.5977 69.9479 29.0781 69.9479 28.4431C69.9479 27.8081 69.4283 27.2886 68.7933 27.2886H66.6382C66.0032 27.2886 65.4836 27.8081 65.4836 28.4431C65.4836 29.0781 65.9839 29.5977 66.6382 29.5977Z" fill="black"/>
<path d="M55.4582 35.3127C55.1696 35.89 55.4005 36.5827 55.9585 36.8713C57.8251 37.8142 59.6916 38.2953 61.5581 38.2953C63.4246 38.2953 65.2911 37.8142 67.1576 36.8713C67.7349 36.5827 67.9466 35.8707 67.6579 35.3127C67.3693 34.7354 66.6766 34.5238 66.0993 34.8124C63.0398 36.371 60.0764 36.371 57.0169 34.8124C56.4396 34.5238 55.7469 34.7547 55.4582 35.3127Z" fill="black"/>
<path d="M30.116 86.7478H7.62157C3.90778 86.7478 0.886719 89.7689 0.886719 93.4827V110.05C0.886719 113.764 3.90778 116.785 7.62157 116.785H30.116C33.8298 116.785 36.8508 113.764 36.8508 110.05V93.4827C36.8508 89.7689 33.8298 86.7478 30.116 86.7478ZM34.5417 110.05C34.5417 112.475 32.5598 114.457 30.1352 114.457H7.62157C5.19702 114.457 3.21505 112.475 3.21505 110.05V93.4827C3.21505 91.0581 5.19702 89.0761 7.62157 89.0761H30.116C32.5405 89.0761 34.5225 91.0581 34.5225 93.4827V110.05H34.5417Z" fill="black"/>
<path d="M19.0515 93.3671C17.82 92.3857 16.1652 92.1933 14.7412 92.8668C13.3173 93.5595 12.4321 94.9642 12.4321 96.5421V106.991C12.4321 108.569 13.3173 109.973 14.7412 110.666C15.3185 110.935 15.915 111.07 16.5115 111.07C17.4159 111.07 18.3011 110.762 19.0515 110.166L25.5747 104.951C26.5368 104.181 27.0949 103.008 27.0949 101.776C27.0949 100.544 26.5368 99.3707 25.5747 98.601L19.0515 93.3671ZM24.1315 103.142L17.6083 108.357C17.0696 108.78 16.3768 108.876 15.7611 108.569C15.1453 108.261 14.7605 107.683 14.7605 106.991V96.5421C14.7605 95.8493 15.1261 95.2528 15.7611 94.9642C16.0112 94.8487 16.2614 94.791 16.5308 94.791C16.9156 94.791 17.3005 94.9257 17.6083 95.1758L24.1315 100.391C24.5549 100.718 24.7858 101.218 24.7858 101.757C24.7858 102.296 24.5549 102.796 24.1315 103.142Z" fill="black"/>
<path d="M117.688 69.3911H99.4849C99.5619 67.7747 99.0038 66.1968 97.9455 64.9653C96.8102 63.6376 95.2131 62.8679 93.4812 62.7524V61.3285C93.4812 54.0356 87.5353 48.0897 80.2425 48.0897H70.2364V44.78C73.6231 41.7782 76.1823 37.3332 77.3561 33.0229C78.8955 29.7324 84.6875 16.205 79.2996 11.2789C78.5684 10.6055 77.9911 9.95122 77.5678 9.25849C75.8359 6.52607 70.3134 0.195312 56.2087 0.195312C56.0932 0.195312 55.9585 0.195312 55.8431 0.195312C53.2261 0.214555 50.6861 1.33062 48.8773 3.25486C47.2417 5.00592 46.3373 7.2188 46.2988 9.56637C45.0866 10.0282 43.0469 11.1635 41.8346 13.742C39.6794 18.3409 41.1419 25.2489 46.1641 34.2736C47.4149 38.0836 49.7625 42.0283 52.8797 44.78V48.032H42.8929C35.6 48.032 29.6541 53.9779 29.6541 61.2708V62.6755H29.3655C27.499 62.6755 25.7287 63.4837 24.4972 64.9076C23.2849 66.3315 22.7461 68.198 23.0155 70.0646L24.6319 80.6094C24.7281 81.1867 25.2091 81.5908 25.7864 81.5908C25.8441 81.5908 25.9019 81.5908 25.9596 81.5715C26.5946 81.4753 27.0372 80.8788 26.9217 80.2438L25.3053 69.699C25.1322 68.5059 25.4593 67.3129 26.2482 66.4085C27.0179 65.5041 28.1532 64.9846 29.3463 64.9846H93.0964C94.2894 64.9846 95.4247 65.5041 96.1944 66.4085C96.8872 67.2167 97.2143 68.275 97.1373 69.3333H89.3249C86.8811 69.3333 84.8991 71.3153 84.8991 73.7591V94.5794C84.8991 95.9841 85.5341 97.2541 86.6502 98.1008C86.6694 98.12 86.6887 98.12 86.6887 98.1393C86.6887 98.1393 86.6887 98.1393 86.7079 98.1585H86.7272C87.4776 98.7165 88.3628 99.0052 89.3056 99.0052H92.6153L91.4031 106.856H43.1238C42.4888 106.856 41.9693 107.376 41.9693 108.011C41.9693 108.646 42.4888 109.165 43.1238 109.165H92.0958C93.539 109.165 94.7128 110.339 94.7128 111.782C94.7128 112.475 94.4434 113.148 93.9431 113.629C93.4428 114.13 92.7885 114.399 92.0958 114.399H41.8731C41.2381 114.399 40.7185 114.919 40.7185 115.554C40.7185 116.189 41.2381 116.708 41.8731 116.708H92.0958C93.4235 116.708 94.655 116.189 95.5979 115.265C96.5408 114.341 97.0411 113.091 97.0411 111.763C97.0411 109.627 95.6556 107.818 93.7506 107.125L95.0014 98.9667H117.707C118.92 98.9667 120.094 98.4664 120.921 97.5812C121.691 96.7538 122.133 95.6762 122.133 94.5409V73.8168C122.114 71.373 120.132 69.3911 117.688 69.3911ZM43.9128 14.8003C45.1443 12.1064 47.5881 11.6061 47.6843 11.5868C48.2616 11.4714 48.6849 10.9518 48.6272 10.3553L48.6079 10.1821C48.4925 8.2194 49.1852 6.3144 50.5514 4.85198C51.9176 3.38955 53.8419 2.54289 55.8431 2.52365H56.2087C69.1588 2.52365 74.0849 8.08471 75.605 10.5093C76.1631 11.3752 76.8558 12.2026 77.7409 13.0108C80.8005 15.8009 78.5876 23.8058 76.5094 29.1359L74.8353 19.938C74.6429 18.9182 73.9502 18.0715 73.0073 17.6482C72.0644 17.2249 70.9484 17.2826 70.0632 17.8214C63.5978 21.6699 56.0547 19.2646 52.1293 17.475C51.0517 16.9747 49.8009 17.0517 48.7811 17.6674C47.7613 18.2832 47.107 19.3608 47.0493 20.5538L46.549 30.0403C42.5081 21.7276 42.816 17.2056 43.9128 14.8003ZM48.6272 34.3699L49.3584 20.6885C49.3776 20.2652 49.6085 19.8803 49.9741 19.6686C50.3397 19.457 50.7631 19.4185 51.1479 19.5917C55.4775 21.5736 63.8479 24.2291 71.237 19.8226C71.4872 19.6686 71.795 19.6494 72.0452 19.7649C72.1991 19.8226 72.4493 19.9958 72.5263 20.3614L74.8738 33.2153C73.6808 37.0638 71.3332 40.9315 68.3314 43.4138C68.2929 43.433 68.2737 43.4715 68.2352 43.4908C66.2532 45.1071 63.9634 46.1077 61.5388 46.1077C55.8431 46.127 50.84 40.335 48.6272 34.3699ZM61.5581 48.4553C63.8287 48.4553 65.9838 47.7241 67.9273 46.5311V48.8017L61.5581 55.5943L55.1888 48.8017V46.5696C57.1131 47.7433 59.2682 48.4553 61.5581 48.4553ZM31.9632 61.3285C31.9632 55.3056 36.8508 50.418 42.8737 50.418H53.534L60.7306 58.0765C60.9423 58.3074 61.2502 58.4421 61.5773 58.4421C61.9044 58.4421 62.2123 58.3074 62.424 58.0765L69.6206 50.418H80.2809C86.3038 50.418 91.1914 55.3056 91.1914 61.3285V62.7332H31.9632V61.3285ZM87.2467 73.8168C87.2467 72.6623 88.1896 71.7194 89.3441 71.7194H117.688C118.843 71.7194 119.786 72.6623 119.786 73.8168V94.3677L114.898 86.9979C114.244 85.9973 113.109 85.3815 111.896 85.3815C110.684 85.3815 109.568 85.978 108.894 86.9979L105.469 92.1549L100.428 84.5349C99.7543 83.5342 98.6382 82.9185 97.4259 82.9185C96.2137 82.9185 95.0976 83.515 94.4241 84.5349L87.3429 95.2144C87.2852 95.0412 87.2659 94.8488 87.2659 94.6564V73.8168H87.2467ZM89.1132 96.7153L96.3484 85.8049C96.5985 85.4393 96.9834 85.2276 97.4067 85.2276C97.8493 85.2276 98.2341 85.4393 98.465 85.8049L104.469 94.8488C104.488 94.868 104.488 94.8873 104.507 94.9065L105.719 96.7346H89.3249C89.2672 96.7346 89.1902 96.7153 89.1132 96.7153ZM108.51 96.7346L106.855 94.233L110.819 88.2486C111.069 87.883 111.454 87.6714 111.896 87.6714C112.339 87.6714 112.724 87.883 112.955 88.2486L118.477 96.5614C118.227 96.6576 117.977 96.7153 117.707 96.7153H108.51V96.7346Z" fill="black"/>
<path d="M105.258 84.6696C108.105 84.6696 110.415 82.3606 110.415 79.5127C110.415 76.6648 108.105 74.3557 105.258 74.3557C102.41 74.3557 100.101 76.6648 100.101 79.5127C100.101 82.3606 102.41 84.6696 105.258 84.6696ZM105.258 76.6648C106.816 76.6648 108.105 77.9348 108.105 79.5127C108.105 81.0713 106.835 82.3606 105.258 82.3606C103.699 82.3606 102.41 81.0906 102.41 79.5127C102.41 77.9348 103.699 76.6648 105.258 76.6648Z" fill="black"/>
</svg>
