<svg width="120" height="120" viewBox="0 0 120 120" fill="none" xmlns="http://www.w3.org/2000/svg">
<g clip-path="url(#clip0_216_6521)">
<path d="M28.125 67.5C36.3956 67.5 43.125 60.7706 43.125 52.5V43.125C43.125 42.0881 42.285 41.25 41.25 41.25C40.215 41.25 39.375 42.0881 39.375 43.125V52.5C39.375 58.7044 34.3294 63.75 28.125 63.75C21.9206 63.75 16.875 58.7044 16.875 52.5V46.875C16.875 45.8381 16.035 45 15 45C13.965 45 13.125 45.8381 13.125 46.875V52.5C13.125 60.7706 19.8544 67.5 28.125 67.5Z" fill="black"/>
<path d="M15 41.25H33.75C38.9194 41.25 43.125 37.0444 43.125 31.875V28.125C43.125 27.0881 42.285 26.25 41.25 26.25H22.5C17.3306 26.25 13.125 30.4556 13.125 35.625V39.375C13.125 40.4119 13.965 41.25 15 41.25ZM16.875 35.625C16.875 32.5237 19.3987 30 22.5 30H39.375V31.875C39.375 34.9762 36.8512 37.5 33.75 37.5H16.875V35.625Z" fill="black"/>
<path d="M34.245 71.953C32.7694 73.7961 30.5719 74.8555 28.2094 74.8555C25.8469 74.8555 23.6475 73.798 22.1719 71.953C21.525 71.143 20.3437 71.0136 19.5375 71.6605C18.7275 72.3093 18.5981 73.4886 19.245 74.2968C21.435 77.0343 24.7031 78.6055 28.2094 78.6055C31.7156 78.6055 34.9819 77.0343 37.1719 74.2968C37.8187 73.4868 37.6875 72.3074 36.8794 71.6605C36.0712 71.0136 34.89 71.1468 34.245 71.953Z" fill="black"/>
<path d="M58.2038 82.5H56.1825C55.2675 76.1513 49.8056 71.25 43.2075 71.25C42.1725 71.25 41.3325 72.0881 41.3325 73.125C41.3325 74.1619 42.1725 75 43.2075 75C47.7337 75 51.5213 78.2269 52.3931 82.5H24.3787C21.2756 82.5 18.75 85.0256 18.75 88.1287V105H13.125C12.09 105 11.25 105.838 11.25 106.875C11.25 107.912 12.09 108.75 13.125 108.75H18.75V116.25H3.75V84.375C3.75 79.2056 7.95563 75 13.125 75C14.16 75 15 74.1619 15 73.125C15 72.0881 14.16 71.25 13.125 71.25C5.8875 71.25 0 77.1394 0 84.375V118.125C0 119.162 0.84 120 1.875 120H20.625H61.875C62.91 120 63.75 119.162 63.75 118.125V88.0444C63.75 84.9863 61.2619 82.5 58.2038 82.5ZM60 116.25H22.5V88.1287C22.5 87.0919 23.3438 86.25 24.3787 86.25H58.2056C59.1937 86.25 60 87.0563 60 88.0444V116.25Z" fill="black"/>
<path d="M41.25 101.25C42.2855 101.25 43.125 100.411 43.125 99.375C43.125 98.3395 42.2855 97.5 41.25 97.5C40.2145 97.5 39.375 98.3395 39.375 99.375C39.375 100.411 40.2145 101.25 41.25 101.25Z" fill="black"/>
<path d="M114.375 0H31.875C28.7737 0 26.25 2.52375 26.25 5.625V20.625C26.25 21.6619 27.09 22.5 28.125 22.5C29.16 22.5 30 21.6619 30 20.625V5.625C30 4.59 30.8419 3.75 31.875 3.75H114.375C115.408 3.75 116.25 4.59 116.25 5.625V99.375C116.25 100.41 115.408 101.25 114.375 101.25H69.375C68.34 101.25 67.5 102.088 67.5 103.125C67.5 104.162 68.34 105 69.375 105H114.375C117.476 105 120 102.476 120 99.375V5.625C120 2.52375 117.476 0 114.375 0Z" fill="black"/>
<path d="M35.625 11.25C36.6605 11.25 37.5 10.4105 37.5 9.375C37.5 8.33947 36.6605 7.5 35.625 7.5C34.5895 7.5 33.75 8.33947 33.75 9.375C33.75 10.4105 34.5895 11.25 35.625 11.25Z" fill="black"/>
<path d="M43.125 11.25C44.1605 11.25 45 10.4105 45 9.375C45 8.33947 44.1605 7.5 43.125 7.5C42.0895 7.5 41.25 8.33947 41.25 9.375C41.25 10.4105 42.0895 11.25 43.125 11.25Z" fill="black"/>
<path d="M50.625 11.25C51.6605 11.25 52.5 10.4105 52.5 9.375C52.5 8.33947 51.6605 7.5 50.625 7.5C49.5895 7.5 48.75 8.33947 48.75 9.375C48.75 10.4105 49.5895 11.25 50.625 11.25Z" fill="black"/>
<path d="M110.625 11.25C111.66 11.25 112.5 10.4119 112.5 9.375C112.5 8.33813 111.66 7.5 110.625 7.5H58.125C57.09 7.5 56.25 8.33813 56.25 9.375C56.25 10.4119 57.09 11.25 58.125 11.25H110.625Z" fill="black"/>
<path d="M108.75 43.125C108.75 29.685 97.815 18.75 84.375 18.75C70.935 18.75 60 29.685 60 43.125C60 56.565 70.935 67.5 84.375 67.5C97.815 67.5 108.75 56.565 108.75 43.125ZM63.75 43.125C63.75 31.7531 73.0031 22.5 84.375 22.5C95.7469 22.5 105 31.7531 105 43.125C105 54.4969 95.7469 63.75 84.375 63.75C73.0031 63.75 63.75 54.4969 63.75 43.125Z" fill="black"/>
<path d="M71.25 69.375C70.215 69.375 69.375 70.2131 69.375 71.25V91.875C69.375 92.5425 69.7313 93.1613 70.3088 93.4969C70.8863 93.8306 71.5987 93.8325 72.18 93.5025L84.375 86.5331L96.57 93.5025C96.8588 93.6675 97.1794 93.75 97.5 93.75C97.8244 93.75 98.1506 93.6656 98.4412 93.4969C99.0187 93.1613 99.375 92.5425 99.375 91.875V71.25C99.375 70.2131 98.535 69.375 97.5 69.375C96.465 69.375 95.625 70.2131 95.625 71.25V88.6425L85.305 82.7456C84.7275 82.4156 84.0206 82.4156 83.445 82.7456L73.125 88.6425V71.25C73.125 70.2131 72.285 69.375 71.25 69.375Z" fill="black"/>
<path d="M93.0863 55.8919C93.6638 55.4719 93.9526 54.7613 93.8326 54.0581L92.4863 46.2094L98.1882 40.6519C98.6982 40.1531 98.8838 39.4088 98.6626 38.7319C98.4413 38.0531 97.8545 37.5581 97.1495 37.455L89.2688 36.3094L85.7457 29.1694C85.1138 27.8869 83.0138 27.8869 82.382 29.1694L78.8588 36.3094L70.9782 37.455C70.2732 37.5581 69.6863 38.0513 69.4651 38.7319C69.2438 39.4088 69.4276 40.155 69.9395 40.6519L75.6413 46.2094L74.2951 54.0581C74.1751 54.7613 74.462 55.4719 75.0395 55.8919C75.3695 56.13 75.7557 56.25 76.1438 56.25C76.442 56.25 76.742 56.1788 77.0157 56.0344L84.0638 52.3294L91.112 56.0344C91.7457 56.3663 92.5088 56.3138 93.0863 55.8919ZM84.9376 48.5531C84.6638 48.4088 84.3638 48.3375 84.0657 48.3375C83.7676 48.3375 83.4657 48.4088 83.1938 48.5531L78.6357 50.9475L79.5057 45.8738C79.6107 45.2663 79.4082 44.6456 78.9657 44.2144L75.2795 40.62L80.3757 39.8775C80.987 39.7894 81.5138 39.405 81.7876 38.8519L84.0657 34.2356L86.3438 38.8519C86.6176 39.405 87.1445 39.7894 87.7557 39.8775L92.852 40.62L89.1657 44.2144C88.7251 44.6438 88.5226 45.2663 88.6257 45.8738L89.4957 50.9475L84.9376 48.5531Z" fill="black"/>
</g>
<defs>
<clipPath id="clip0_216_6521">
<rect width="120" height="120" fill="white"/>
</clipPath>
</defs>
</svg>
