<svg width="131" height="131" viewBox="0 0 144 144" fill="none" xmlns="http://www.w3.org/2000/svg">
<path fill-rule="evenodd" clip-rule="evenodd" d="M38.5149 43.2219H105.486V34.7432H38.5149V43.2219ZM106.892 46.0343H37.1084C36.3318 46.0343 35.7021 45.4045 35.7021 44.6281V33.337C35.7021 32.5606 36.3318 31.9308 37.1084 31.9308H106.892C107.669 31.9308 108.298 32.5607 108.298 33.3371V44.6281C108.298 45.4045 107.669 46.0343 106.892 46.0343Z" fill="black"/>
<path fill-rule="evenodd" clip-rule="evenodd" d="M92.3759 74.0538H75.9228C75.1461 74.0538 74.5162 73.4239 74.5162 72.6476V52.4736C74.5162 51.6973 75.1461 51.0675 75.9227 51.0675H106.892C107.668 51.0675 108.298 51.6973 108.298 52.4737V67.9659C108.298 68.7452 107.668 69.3722 106.892 69.3722C106.115 69.3722 105.485 68.7452 105.485 67.966V53.88H77.329V71.2413H92.3759C93.1526 71.2413 93.7822 71.8712 93.7822 72.6476C93.7822 73.4239 93.1526 74.0538 92.3759 74.0538Z" fill="black"/>
<path fill-rule="evenodd" clip-rule="evenodd" d="M38.5149 71.2413H66.6713V53.88H38.5149V71.2413ZM68.0775 74.0538H37.1084C36.3318 74.0538 35.7021 73.4239 35.7021 72.6476V52.4736C35.7021 51.6973 36.3318 51.0675 37.1084 51.0675H68.0775C68.8542 51.0675 69.4838 51.6973 69.4838 52.4737L69.4839 72.6476C69.4839 73.4239 68.8542 74.0538 68.0775 74.0538Z" fill="black"/>
<path fill-rule="evenodd" clip-rule="evenodd" d="M98.4907 69.3722C95.7725 69.3722 93.5611 71.5842 93.5611 74.3029L93.5612 128.666C93.5612 131.385 95.7725 133.597 98.4907 133.597H128.668C131.386 133.597 133.597 131.385 133.597 128.666L133.598 74.3029C133.598 71.5842 131.386 69.3722 128.668 69.3722H98.4907ZM128.668 136.409H98.4907C94.2218 136.409 90.7487 132.935 90.7487 128.666V74.3029C90.7487 70.0344 94.2217 66.5597 98.4907 66.5597H128.668C132.937 66.5597 136.41 70.0344 136.41 74.3029V128.666C136.41 132.935 132.937 136.409 128.668 136.409Z" fill="black"/>
<path fill-rule="evenodd" clip-rule="evenodd" d="M100.922 86.6897H126.236V80.1857H100.922V86.6897ZM127.642 89.5022H99.5158C98.7392 89.5022 98.1096 88.8723 98.1096 88.0959V78.7795C98.1096 78.0002 98.7392 77.3733 99.5158 77.3733H127.642C128.419 77.3733 129.049 78.0002 129.049 78.7795V88.0959C129.049 88.8723 128.419 89.5022 127.642 89.5022Z" fill="black"/>
<path fill-rule="evenodd" clip-rule="evenodd" d="M116.655 128.438H110.502C109.726 128.438 109.096 127.811 109.096 127.032C109.097 126.255 109.726 125.625 110.502 125.625H116.655C117.432 125.625 118.062 126.255 118.062 127.032C118.062 127.811 117.432 128.438 116.655 128.438Z" fill="black"/>
<path fill-rule="evenodd" clip-rule="evenodd" d="M100.922 115.43H108.365V96.621H100.922V115.43ZM109.771 118.242H99.516C98.7396 118.242 98.11 117.612 98.11 116.836V95.2147C98.11 94.4384 98.7396 93.8085 99.5159 93.8085H109.771C110.548 93.8085 111.177 94.4384 111.177 95.2148V116.836C111.177 117.612 110.548 118.242 109.771 118.242Z" fill="black"/>
<path fill-rule="evenodd" clip-rule="evenodd" d="M118.794 115.43H126.236V96.621H118.794V115.43ZM127.642 118.242H117.388C116.611 118.242 115.981 117.612 115.981 116.836L115.981 95.2147C115.981 94.4384 116.611 93.8085 117.388 93.8085H127.642C128.419 93.8085 129.049 94.4384 129.049 95.2148V116.836C129.049 117.612 128.419 118.242 127.642 118.242Z" fill="black"/>
<path fill-rule="evenodd" clip-rule="evenodd" d="M92.155 86.8857H32.0536C28.6606 86.8857 25.9001 84.1259 25.9001 80.7334V13.7429C25.9001 10.3504 28.6606 7.59058 32.0536 7.59058H111.947C115.34 7.59058 118.1 10.3504 118.1 13.7429V67.9657C118.1 68.745 117.471 69.372 116.694 69.372C115.917 69.372 115.288 68.745 115.288 67.9657L115.288 13.7429C115.288 11.9001 113.789 10.4031 111.947 10.4031L32.0536 10.403C30.2114 10.403 28.7125 11.9002 28.7125 13.7429V80.7333C28.7125 82.5761 30.2114 84.0761 32.0536 84.0761H92.155C92.9316 84.0761 93.5612 84.703 93.5612 85.4795C93.5613 86.2587 92.9316 86.8857 92.155 86.8857Z" fill="black"/>
<path fill-rule="evenodd" clip-rule="evenodd" d="M116.694 25.3594H27.3065C26.5298 25.3594 25.9003 24.7324 25.9003 23.9532C25.9003 23.1767 26.5298 22.5469 27.3065 22.5469H116.694C117.471 22.5469 118.101 23.1768 118.101 23.9532C118.101 24.7324 117.471 25.3594 116.694 25.3594Z" fill="black"/>
<path fill-rule="evenodd" clip-rule="evenodd" d="M37.2363 19.456C36.4598 19.456 35.8301 18.8262 35.8301 18.0498V14.9004C35.8301 14.124 36.4598 13.4941 37.2363 13.4941C38.013 13.4941 38.6429 14.124 38.6429 14.9004V18.0497C38.6429 18.8262 38.013 19.456 37.2363 19.456Z" fill="black"/>
<path fill-rule="evenodd" clip-rule="evenodd" d="M45.6745 19.456C44.8978 19.456 44.2679 18.8262 44.2679 18.0498V14.9004C44.2679 14.124 44.8978 13.4941 45.6744 13.4941C46.4512 13.4941 47.0807 14.124 47.0807 14.9004V18.0497C47.0807 18.8262 46.4512 19.456 45.6745 19.456Z" fill="black"/>
<path fill-rule="evenodd" clip-rule="evenodd" d="M54.1123 19.456C53.336 19.456 52.7061 18.8262 52.7061 18.0498V14.9004C52.7061 14.124 53.3359 13.4941 54.1123 13.4941C54.8889 13.4941 55.5188 14.124 55.5188 14.9004V18.0497C55.5188 18.8262 54.8889 19.456 54.1123 19.456Z" fill="black"/>
<path fill-rule="evenodd" clip-rule="evenodd" d="M62.5504 19.456C61.7737 19.456 61.1438 18.8262 61.1438 18.0498V14.9004C61.1438 14.124 61.7737 13.4941 62.5504 13.4941C63.327 13.4941 63.9566 14.124 63.9566 14.9004L63.9567 18.0497C63.9567 18.8262 63.327 19.456 62.5504 19.456Z" fill="black"/>
<path fill-rule="evenodd" clip-rule="evenodd" d="M127.136 69.3722C126.359 69.3722 125.73 68.7452 125.73 67.966L125.73 46.3624C125.73 42.2579 122.391 38.9181 118.286 38.9181H116.694C115.917 38.9181 115.288 38.2882 115.288 37.5119C115.288 36.7354 115.917 36.1056 116.694 36.1056L118.286 36.1055C123.941 36.1055 128.542 40.7081 128.542 46.3624V67.9659C128.542 68.7452 127.913 69.3722 127.136 69.3722ZM16.8635 116.315C16.0869 116.315 15.4571 115.685 15.4573 114.908L15.4574 46.3624C15.4574 40.7081 20.0583 36.1056 25.7137 36.1056L27.3058 36.1055C28.0825 36.1055 28.7121 36.7354 28.7121 37.5119C28.7121 38.2881 28.0825 38.9181 27.3058 38.9181H25.7137C21.6093 38.9181 18.2698 42.2579 18.2698 46.3624V114.908C18.2698 115.685 17.6402 116.315 16.8635 116.315Z" fill="black"/>
<path fill-rule="evenodd" clip-rule="evenodd" d="M92.155 103.204H29.9758C29.1992 103.204 28.5697 102.574 28.5697 101.798V84.9992C28.5697 84.2228 29.1992 83.593 29.9758 83.593C30.7525 83.593 31.3822 84.2228 31.3822 84.9992V100.392H92.155C92.9317 100.392 93.5612 101.022 93.5612 101.798C93.5613 102.574 92.9317 103.204 92.155 103.204Z" fill="black"/>
<path fill-rule="evenodd" clip-rule="evenodd" d="M98.4906 136.41H16.9896C11.8068 136.41 7.59058 132.194 7.59058 127.011V119.699C7.59058 116.283 10.3699 113.502 13.7864 113.502H92.1548C92.9315 113.502 93.5611 114.132 93.5611 114.909C93.5611 115.685 92.9315 116.315 92.1548 116.315H13.7864C11.9207 116.315 10.4029 117.832 10.4029 119.699V127.011C10.4029 130.641 13.3578 133.597 16.9896 133.597H98.4906C99.2673 133.597 99.8968 134.227 99.8968 135.003C99.8968 135.78 99.2673 136.41 98.4906 136.41Z" fill="black"/>
<path fill-rule="evenodd" clip-rule="evenodd" d="M83.161 126.703H60.8397C58.6577 126.703 56.8826 124.928 56.8826 122.745V114.908C56.8826 114.132 57.5121 113.502 58.2888 113.502C59.0655 113.502 59.6951 114.132 59.6951 114.908V122.745C59.6951 123.378 60.2087 123.891 60.8397 123.891H83.161C83.7924 123.891 84.306 123.378 84.306 122.745V114.908C84.306 114.132 84.9356 113.502 85.7122 113.502C86.4889 113.502 87.1184 114.132 87.1184 114.908L87.1185 122.745C87.1185 124.928 85.3434 126.703 83.161 126.703Z" fill="black"/>
<path fill-rule="evenodd" clip-rule="evenodd" d="M72.0002 126.703C71.2235 126.703 70.5939 126.073 70.5939 125.297V114.908C70.5939 114.132 71.2234 113.502 72.0001 113.502C72.7768 113.502 73.4064 114.132 73.4064 114.908V125.297C73.4064 126.073 72.7768 126.703 72.0002 126.703Z" fill="black"/>
</svg>
