<svg width="131" height="131" viewBox="0 0 135 135" fill="none" xmlns="http://www.w3.org/2000/svg">
<mask id="mask0_216_1288" style="mask-type:luminance" maskUnits="userSpaceOnUse" x="0" y="0" width="135" height="135">
<path d="M0 1.52588e-05H135V135H0V1.52588e-05Z" fill="white"/>
</mask>
<g mask="url(#mask0_216_1288)">
<path d="M2.63672 40.9551H44.0055H122.744" stroke="black" stroke-width="6" stroke-miterlimit="10" stroke-linecap="round" stroke-linejoin="round"/>
<path d="M24.6551 29.7349C28.1082 29.7349 30.9258 26.9262 30.9258 23.475C30.9258 20.0238 28.1082 17.2152 24.6551 17.2152C21.2097 17.2152 18.3918 20.0238 18.3918 23.475C18.3918 26.9262 21.2097 29.7349 24.6551 29.7349Z" stroke="black" stroke-width="6" stroke-miterlimit="10" stroke-linecap="round" stroke-linejoin="round"/>
<path d="M79.0885 17.215H102.677C106.122 17.215 108.94 20.0312 108.94 23.4748C108.94 26.9186 106.122 29.7346 102.677 29.7346H79.0885C75.6431 29.7346 72.8252 26.9186 72.8252 23.4748C72.8252 20.0312 75.6431 17.215 79.0885 17.215Z" stroke="black" stroke-width="6" stroke-miterlimit="10" stroke-linecap="round" stroke-linejoin="round"/>
<path d="M47.7797 29.7349C51.2328 29.7349 54.0504 26.9262 54.0504 23.475C54.0504 20.0238 51.2328 17.2152 47.7797 17.2152C44.3343 17.2152 41.5165 20.0238 41.5165 23.475C41.5165 26.9262 44.3343 29.7349 47.7797 29.7349Z" stroke="black" stroke-width="6" stroke-miterlimit="10" stroke-linecap="round" stroke-linejoin="round"/>
<path d="M42.8245 61.2361L37.5477 83.3179" stroke="black" stroke-width="6" stroke-miterlimit="10" stroke-linecap="round" stroke-linejoin="round"/>
<path d="M54.9774 81.3232L62.4438 72.9416C62.7726 72.5757 62.7726 71.9782 62.4438 71.6122L54.9774 63.2306" stroke="black" stroke-width="6" stroke-miterlimit="10" stroke-linecap="round" stroke-linejoin="round"/>
<path d="M25.3951 81.3232L17.9287 72.9416C17.5997 72.5757 17.5997 71.9782 17.9287 71.6122L25.3951 63.2306" stroke="black" stroke-width="6" stroke-miterlimit="10" stroke-linecap="round" stroke-linejoin="round"/>
<path d="M106.66 72.8895C109.545 73.532 112.243 74.6674 114.672 76.1912L116.832 74.0399C118.11 72.755 120.211 72.755 121.496 74.0399L124.897 77.4389C126.182 78.7237 126.182 80.8228 124.897 82.1003L122.744 84.259C124.262 86.6645 125.382 89.3389 126.033 92.1924H129.06C130.876 92.1924 132.363 93.6789 132.363 95.4867V100.305C132.363 102.112 130.876 103.599 129.06 103.599H126.018C125.367 106.438 124.247 109.097 122.744 111.488L124.897 113.639C126.182 114.924 126.182 117.023 124.897 118.3L121.496 121.707C120.211 122.992 118.11 122.992 116.832 121.707L114.672 119.555C112.273 121.064 109.605 122.185 106.75 122.835V125.897C106.75 127.713 105.262 129.199 103.454 129.199H98.6332C96.8242 129.199 95.3371 127.713 95.3371 125.897V122.827C92.4968 122.185 89.8287 121.057 87.4293 119.555L85.2769 121.707C83.9913 122.992 81.8914 122.992 80.6131 121.707L77.2051 118.3C75.9269 117.023 75.9269 114.924 77.2051 113.639L79.3649 111.488C77.8554 109.097 76.7342 106.438 76.084 103.599H73.027C71.2111 103.599 69.7308 102.112 69.7308 100.305V95.4867C69.7308 93.6789 71.2111 92.1924 73.027 92.1924H76.0766C76.7192 89.3687 77.8256 86.7243 79.3127 84.3413L77.1453 82.1675C75.8599 80.8901 75.8599 78.791 77.1453 77.5061L80.5459 74.1071C81.8315 72.8222 83.9317 72.8222 85.2097 74.1071L87.3547 76.2436C89.7467 74.7273 92.4071 73.599 95.2474 72.9343V69.8941C95.2474 68.0788 96.7271 66.5922 98.5433 66.5922H103.357C105.173 66.5922 106.66 68.0788 106.66 69.8941V72.8895Z" stroke="black" stroke-width="6" stroke-miterlimit="10" stroke-linecap="round" stroke-linejoin="round"/>
<path d="M101.047 84.3112C108.551 84.3112 114.635 90.392 114.635 97.8993C114.635 105.399 108.551 111.48 101.047 111.48C93.5358 111.48 87.4516 105.399 87.4516 97.8993C87.4516 90.392 93.5358 84.3112 101.047 84.3112Z" stroke="black" stroke-width="6" stroke-miterlimit="10" stroke-linecap="round" stroke-linejoin="round"/>
<path d="M28.0633 103.599H12.4573C7.06154 103.599 2.6366 98.3178 2.6366 91.871V17.5285C2.6366 11.0746 7.05363 5.80062 12.4573 5.80062H23.8329H112.923C118.327 5.80062 122.744 11.082 122.744 17.5285V75.2874M73.027 103.599H51.6289" stroke="black" stroke-width="6" stroke-miterlimit="10" stroke-linecap="round" stroke-linejoin="round"/>
<path d="M39.8723 103.599H39.9245" stroke="black" stroke-width="6" stroke-miterlimit="10" stroke-linecap="round" stroke-linejoin="round"/>
</g>
</svg>
