<svg width="222" height="222" viewBox="0 0 222 222" fill="none" xmlns="http://www.w3.org/2000/svg">
<path d="M70.152 47.321H33.3C30.8478 47.321 28.86 49.3088 28.86 51.761V65.525C28.86 67.9773 30.8478 69.965 33.3 69.965H69.93L74.592 76.181V65.525V51.761C74.592 49.3088 72.6042 47.321 70.152 47.321Z" fill="#263238"/>
<path d="M36.8813 62.4752H35.5577V54.0525H36.8813V57.6622H38.3851V54.0525H39.7327V62.4752H38.3851V58.8655H36.8813V62.4752Z" fill="#D0E8FF"/>
<path d="M40.6948 54.0525H42.0184V62.4752H40.6948V54.0525Z" fill="#D0E8FF"/>
<path d="M44.4604 54.0525H48.5514V55.2557H47.1675V62.4752H45.8443V55.2557H44.4604V54.0525Z" fill="#D0E8FF"/>
<path d="M50.4522 62.4752H49.1286V54.0525H50.4522V57.6622H51.9564V54.0525H53.304V62.4752H51.9564V58.8655H50.4522V62.4752Z" fill="#D0E8FF"/>
<path d="M55.5892 57.6018H57.4061V58.8051H55.5892V61.2719H57.8754V62.4752H54.2657V54.0525H57.8754V55.2557H55.5892V57.6018Z" fill="#D0E8FF"/>
<path d="M61.4603 62.4752C61.3879 62.2585 61.3399 62.1262 61.3399 61.4402V60.1166C61.3399 59.3343 61.0753 59.0457 60.4737 59.0457H60.0164V62.4752H58.6928V54.0525H60.6904C62.0619 54.0525 62.6515 54.6905 62.6515 55.9897V56.6512C62.6515 57.5175 62.3749 58.0831 61.7853 58.3597C62.4468 58.6368 62.6635 59.2744 62.6635 60.1526V61.4522C62.6635 61.8616 62.6755 62.1622 62.8078 62.4752H61.4603ZM60.0164 55.2557V57.8425H60.5336C61.0269 57.8425 61.3275 57.6262 61.3275 56.9523V56.122C61.3275 55.5204 61.1228 55.2557 60.6535 55.2557H60.0164Z" fill="#D0E8FF"/>
<path d="M64.8529 57.6018H66.6697V58.8051H64.8529V61.2719H67.139V62.4752H63.5293V54.0525H67.139V55.2557H64.8529V57.6018Z" fill="#D0E8FF"/>
<path d="M68.1256 60.6104L67.9573 57.5664V54.053H69.2809V57.5664L69.1126 60.6104H68.1256ZM69.2565 61.1996V62.4752H67.9813V61.1996H69.2565Z" fill="#D0E8FF"/>
<path d="M132.316 47.767C132.316 47.767 130.671 47.1836 130.3 48.6688C129.929 50.1539 132.104 50.6845 132.369 50.6845C132.634 50.6845 133.058 50.3133 132.793 49.4644C132.528 48.6159 132.316 47.767 132.316 47.767Z" fill="#263238" stroke="#263238" stroke-miterlimit="10" stroke-linecap="round" stroke-linejoin="round"/>
<path d="M141.652 44.1599C141.652 44.1599 141.493 46.2818 141.493 47.1303C141.493 47.9792 142.394 48.2971 142.819 48.2971C143.243 48.2971 143.455 49.305 143.19 50.3657C142.925 51.4264 142.023 52.0631 139.848 52.0631C137.673 52.0631 136.347 51.1085 136.294 50.419C136.241 49.7294 136.772 46.7591 137.673 45.9634C138.575 45.1678 141.652 44.1599 141.652 44.1599Z" fill="#263238" stroke="#263238" stroke-miterlimit="10" stroke-linecap="round" stroke-linejoin="round"/>
<path d="M133.695 50.6844V51.4828C133.695 51.7465 133.849 51.9845 134.089 52.0937C134.342 52.2087 134.73 52.3312 135.286 52.3819C136.115 52.4573 137.158 52.0777 137.693 51.8513C137.907 51.7607 138.045 51.5498 138.045 51.3171V50.4584C138.045 50.2209 137.795 50.0664 137.582 50.1725L137.408 50.2595C137.408 50.2595 134.809 50.6316 133.695 50.6844Z" fill="#D0E8FF" stroke="#263238" stroke-miterlimit="10" stroke-linecap="round" stroke-linejoin="round"/>
<path d="M132.528 43.7359C132.528 43.7359 132.103 45.3272 131.944 47.2897C131.785 49.2522 131.944 51.0557 132.74 51.109C133.536 51.1618 134.278 50.6845 134.278 50.6845C134.278 50.6845 136.135 50.8967 136.772 50.5784C137.408 50.26 137.408 50.26 137.408 50.26L137.886 47.1303C137.886 47.1303 137.938 42.3031 137.037 41.9852C136.135 41.6669 132.528 43.7359 132.528 43.7359Z" fill="white" stroke="#263238" stroke-miterlimit="10" stroke-linecap="round" stroke-linejoin="round"/>
<path d="M133.96 45.9106L133.536 47.0246C133.536 47.0246 132.687 47.2369 132.793 47.6613C132.899 48.0858 133.461 48.0183 133.461 48.0183" stroke="#263238" stroke-miterlimit="10" stroke-linecap="round" stroke-linejoin="round"/>
<path d="M135.324 46.3919C135.237 46.625 135.067 46.7768 134.943 46.7311C134.819 46.6849 134.789 46.4585 134.877 46.2254C134.964 45.9923 135.134 45.8404 135.258 45.8862C135.382 45.9319 135.411 46.1584 135.324 46.3919Z" fill="#263238"/>
<path d="M133.324 45.8577C133.237 46.0908 133.066 46.2427 132.943 46.1969C132.819 46.1508 132.79 45.9243 132.877 45.6912C132.964 45.4581 133.134 45.3063 133.258 45.352C133.381 45.3977 133.41 45.6242 133.324 45.8577Z" fill="#263238"/>
<path d="M134.915 44.9027C134.915 44.9027 135.923 44.6376 136.029 45.5922" stroke="#263238" stroke-miterlimit="10" stroke-linecap="round" stroke-linejoin="round"/>
<path d="M133.589 44.6376C133.589 44.6376 132.687 44.3193 132.422 45.0621" stroke="#263238" stroke-miterlimit="10" stroke-linecap="round" stroke-linejoin="round"/>
<path d="M134.278 50.6845L135.711 50.1011" stroke="#263238" stroke-miterlimit="10" stroke-linecap="round" stroke-linejoin="round"/>
<path d="M133.218 41.2957C133.218 41.2957 131.52 39.2799 130.247 40.7651C128.974 42.2503 129.346 44.4783 131.626 44.5844C133.907 44.6905 136.454 42.4625 136.454 42.4625C136.454 42.4625 136.189 45.38 136.825 46.3879C137.462 47.3958 137.939 48.0853 137.939 48.0853C137.939 48.0853 138.841 48.6687 140.326 47.5019C141.811 46.3351 142.182 43.5237 141.121 41.614C140.061 39.7044 138.204 38.6437 135.976 39.386C133.748 40.1288 133.218 41.2957 133.218 41.2957Z" fill="#263238" stroke="#263238" stroke-miterlimit="10" stroke-linecap="round" stroke-linejoin="round"/>
<path d="M136.878 48.0325C136.878 48.0325 138.787 46.2823 138.787 47.2897C138.787 48.2976 137.886 49.1994 137.196 48.9871" fill="white"/>
<path d="M136.878 48.0325C136.878 48.0325 138.787 46.2823 138.787 47.2897C138.787 48.2976 137.886 49.1994 137.196 48.9871" stroke="#263238" stroke-miterlimit="10" stroke-linecap="round" stroke-linejoin="round"/>
<path d="M132.79 48.8365C132.79 48.8365 133.628 49.4772 134.515 48.8365" stroke="#263238" stroke-miterlimit="10" stroke-linecap="round" stroke-linejoin="round"/>
<path d="M142.645 52.2009C146.036 48.5928 145.859 42.9192 142.251 39.5285C138.643 36.1378 132.97 36.314 129.579 39.9221C126.188 43.5302 126.364 49.2038 129.973 52.5945C133.581 55.9852 139.254 55.809 142.645 52.2009Z" stroke="#263238" stroke-miterlimit="10" stroke-linecap="round" stroke-linejoin="round"/>
<path d="M197.112 118.968C202.208 117.777 205.373 112.68 204.181 107.585C202.989 102.489 197.893 99.3243 192.797 100.516C187.702 101.707 184.537 106.804 185.729 111.9C186.92 116.995 192.017 120.16 197.112 118.968Z" stroke="#263238" stroke-miterlimit="10" stroke-linecap="round" stroke-linejoin="round"/>
<path d="M198.194 112.546C198.194 114.287 196.783 115.698 195.042 115.698C193.302 115.698 191.891 114.287 191.891 112.546C191.891 110.806 193.302 109.395 195.042 109.395C196.783 109.395 198.194 110.806 198.194 112.546Z" fill="#D0E8FF" stroke="#263238" stroke-miterlimit="10" stroke-linecap="round" stroke-linejoin="round"/>
<path d="M199.548 114.645C200.336 113.659 200.808 112.409 200.808 111.049C200.808 107.865 198.227 105.283 195.042 105.283C191.858 105.283 189.276 107.865 189.276 111.049C189.276 112.409 189.749 113.659 190.536 114.645H199.548Z" fill="white" stroke="#263238" stroke-miterlimit="10" stroke-linecap="round" stroke-linejoin="round"/>
<path d="M197.293 113.01H192.645C191.503 113.01 190.576 112.084 190.576 110.942C190.576 109.799 191.503 108.873 192.645 108.873H197.293C198.436 108.873 199.362 109.799 199.362 110.942C199.362 112.084 198.436 113.01 197.293 113.01Z" fill="#D0E8FF" stroke="#263238" stroke-miterlimit="10" stroke-linecap="round" stroke-linejoin="round"/>
<path d="M191.527 110.774C191.721 110.231 192.24 109.843 192.849 109.843C193.431 109.843 193.93 110.197 194.143 110.701" stroke="#263238" stroke-width="2" stroke-miterlimit="10" stroke-linecap="round" stroke-linejoin="round"/>
<path d="M195.868 110.774C196.063 110.231 196.581 109.843 197.191 109.843C197.773 109.843 198.272 110.197 198.485 110.701" stroke="#263238" stroke-width="2" stroke-miterlimit="10" stroke-linecap="round" stroke-linejoin="round"/>
<path d="M194.282 111.733C194.332 112.125 194.666 112.428 195.071 112.428C195.477 112.428 195.811 112.125 195.861 111.733H194.282Z" fill="white" stroke="#263238" stroke-miterlimit="10" stroke-linecap="round" stroke-linejoin="round"/>
<path d="M202.502 112.061C202.169 112.061 201.899 111.79 201.899 111.457V110.086C201.899 109.752 202.169 109.482 202.502 109.482C202.836 109.482 203.106 109.753 203.106 110.086V111.457C203.106 111.79 202.836 112.061 202.502 112.061Z" fill="#263238" stroke="#263238" stroke-miterlimit="10" stroke-linecap="round" stroke-linejoin="round"/>
<path d="M187.416 112.061C187.082 112.061 186.812 111.79 186.812 111.457V110.086C186.812 109.752 187.082 109.482 187.416 109.482C187.749 109.482 188.019 109.753 188.019 110.086V111.457C188.019 111.79 187.749 112.061 187.416 112.061Z" fill="#263238" stroke="#263238" stroke-miterlimit="10" stroke-linecap="round" stroke-linejoin="round"/>
<path d="M188.533 110.171C188.183 110.171 187.899 109.887 187.899 109.537V108.541C187.899 107.457 188.219 106.41 188.823 105.515C189.019 105.225 189.414 105.149 189.704 105.345C189.994 105.541 190.07 105.935 189.874 106.225C189.412 106.91 189.168 107.711 189.168 108.541V109.537C189.167 109.887 188.883 110.171 188.533 110.171Z" fill="#263238"/>
<path d="M200.796 106.191C200.695 106.191 200.594 106.142 200.533 106.051C199.701 104.818 198.318 104.082 196.833 104.082H193.309C191.825 104.082 190.443 104.816 189.611 106.048C189.513 106.193 189.316 106.231 189.171 106.133C189.026 106.035 188.988 105.838 189.086 105.693C190.036 104.287 191.614 103.448 193.309 103.448H196.833C198.53 103.448 200.109 104.289 201.059 105.697C201.156 105.842 201.118 106.039 200.973 106.137C200.919 106.174 200.858 106.191 200.796 106.191Z" fill="#263238"/>
<path d="M201.609 110.171C201.259 110.171 200.975 109.887 200.975 109.537V108.541C200.975 107.712 200.732 106.913 200.271 106.228C200.075 105.938 200.152 105.544 200.442 105.348C200.733 105.153 201.127 105.229 201.322 105.52C201.925 106.414 202.244 107.459 202.244 108.541V109.537C202.243 109.887 201.96 110.171 201.609 110.171Z" fill="#263238"/>
<path d="M188.61 112.959C187.919 112.959 187.358 112.399 187.358 111.708V109.716C187.358 109.024 187.919 108.464 188.61 108.464C189.301 108.464 189.862 109.024 189.862 109.716V111.708C189.861 112.399 189.301 112.959 188.61 112.959Z" fill="white" stroke="#263238" stroke-miterlimit="10" stroke-linecap="round" stroke-linejoin="round"/>
<path d="M188.737 108.464H188.482V112.959H188.737V108.464Z" fill="#D0E8FF" stroke="#263238" stroke-miterlimit="10" stroke-linecap="round" stroke-linejoin="round"/>
<path d="M201.38 112.959C200.689 112.959 200.128 112.399 200.128 111.708V109.716C200.128 109.024 200.688 108.464 201.379 108.464C202.071 108.464 202.631 109.024 202.631 109.716V111.708C202.631 112.399 202.071 112.959 201.38 112.959Z" fill="white" stroke="#263238" stroke-miterlimit="10" stroke-linecap="round" stroke-linejoin="round"/>
<path d="M201.507 108.464H201.252V112.959H201.507V108.464Z" fill="#D0E8FF" stroke="#263238" stroke-miterlimit="10" stroke-linecap="round" stroke-linejoin="round"/>
<path d="M195.063 108.055C195.96 108.055 196.796 107.601 197.283 106.847L197.83 106.002C197.004 105.545 196.054 105.283 195.042 105.283C194 105.283 193.023 105.561 192.179 106.045L193 107.067C193.502 107.692 194.261 108.055 195.063 108.055Z" fill="#D0E8FF" stroke="#263238" stroke-miterlimit="10" stroke-linecap="round" stroke-linejoin="round"/>
<path d="M195.106 113.523C195.158 113.523 195.2 113.481 195.2 113.43C195.2 113.378 195.158 113.336 195.106 113.336C195.054 113.336 195.012 113.378 195.012 113.43C195.012 113.481 195.054 113.523 195.106 113.523Z" fill="#263238"/>
<path d="M195.199 113.755C195.199 113.704 195.157 113.662 195.106 113.662C195.054 113.662 195.012 113.704 195.012 113.755C195.012 113.807 195.054 113.849 195.106 113.849C195.157 113.849 195.199 113.807 195.199 113.755Z" fill="#263238"/>
<path d="M194.83 113.705C194.88 113.69 194.908 113.638 194.892 113.588C194.877 113.539 194.825 113.511 194.776 113.526C194.726 113.542 194.698 113.594 194.714 113.643C194.729 113.692 194.781 113.72 194.83 113.705Z" fill="#263238"/>
<path d="M195.412 113.705C195.462 113.69 195.49 113.638 195.474 113.588C195.459 113.539 195.407 113.511 195.358 113.526C195.308 113.542 195.28 113.594 195.295 113.643C195.311 113.692 195.363 113.72 195.412 113.705Z" fill="#263238"/>
<path d="M183.317 61.3369H147.992V45.6011V41.4261L152.167 45.6011H183.317V61.3369Z" fill="#D6D6D6" stroke="#263238" stroke-miterlimit="10" stroke-linecap="round" stroke-linejoin="round"/>
<path d="M183.317 84.1394H147.992V68.4036V64.2286L152.167 68.4036H183.317V84.1394Z" fill="#D6D6D6" stroke="#263238" stroke-miterlimit="10" stroke-linecap="round" stroke-linejoin="round"/>
<path d="M171.581 51.0166H179.894" stroke="#263238" stroke-miterlimit="10" stroke-linecap="round" stroke-linejoin="round"/>
<path d="M159.942 51.0166H169.443" stroke="#263238" stroke-miterlimit="10" stroke-linecap="round" stroke-linejoin="round"/>
<path d="M152.816 51.0166H158.279" stroke="#263238" stroke-miterlimit="10" stroke-linecap="round" stroke-linejoin="round"/>
<path d="M167.78 53.6295H179.894" stroke="#263238" stroke-miterlimit="10" stroke-linecap="round" stroke-linejoin="round"/>
<path d="M152.816 53.6295H165.642" stroke="#263238" stroke-miterlimit="10" stroke-linecap="round" stroke-linejoin="round"/>
<path d="M177.519 56.2421H179.894" stroke="#263238" stroke-miterlimit="10" stroke-linecap="round" stroke-linejoin="round"/>
<path d="M164.217 56.2421H175.618" stroke="#263238" stroke-miterlimit="10" stroke-linecap="round" stroke-linejoin="round"/>
<path d="M152.816 56.2421H162.317" stroke="#263238" stroke-miterlimit="10" stroke-linecap="round" stroke-linejoin="round"/>
<path d="M171.581 73.1064H179.894" stroke="#263238" stroke-miterlimit="10" stroke-linecap="round" stroke-linejoin="round"/>
<path d="M159.942 73.1064H169.443" stroke="#263238" stroke-miterlimit="10" stroke-linecap="round" stroke-linejoin="round"/>
<path d="M152.816 73.1064H158.279" stroke="#263238" stroke-miterlimit="10" stroke-linecap="round" stroke-linejoin="round"/>
<path d="M167.78 75.7194H179.894" stroke="#263238" stroke-miterlimit="10" stroke-linecap="round" stroke-linejoin="round"/>
<path d="M152.816 75.7194H165.642" stroke="#263238" stroke-miterlimit="10" stroke-linecap="round" stroke-linejoin="round"/>
<path d="M177.519 78.3319H179.894" stroke="#263238" stroke-miterlimit="10" stroke-linecap="round" stroke-linejoin="round"/>
<path d="M164.217 78.3319H175.618" stroke="#263238" stroke-miterlimit="10" stroke-linecap="round" stroke-linejoin="round"/>
<path d="M152.816 78.3319H162.317" stroke="#263238" stroke-miterlimit="10" stroke-linecap="round" stroke-linejoin="round"/>
<path d="M147.992 148.254H183.317V110.191V106.017L179.142 110.191H147.992V148.254Z" fill="#D0E8FF" stroke="#263238" stroke-miterlimit="10" stroke-linecap="round" stroke-linejoin="round"/>
<path d="M171.581 115.386H179.894" stroke="#263238" stroke-miterlimit="10" stroke-linecap="round" stroke-linejoin="round"/>
<path d="M159.942 115.386H169.443" stroke="#263238" stroke-miterlimit="10" stroke-linecap="round" stroke-linejoin="round"/>
<path d="M152.816 115.386H158.279" stroke="#263238" stroke-miterlimit="10" stroke-linecap="round" stroke-linejoin="round"/>
<path d="M167.78 117.999H179.894" stroke="#263238" stroke-miterlimit="10" stroke-linecap="round" stroke-linejoin="round"/>
<path d="M152.816 117.999H165.642" stroke="#263238" stroke-miterlimit="10" stroke-linecap="round" stroke-linejoin="round"/>
<path d="M177.519 120.612H179.894" stroke="#263238" stroke-miterlimit="10" stroke-linecap="round" stroke-linejoin="round"/>
<path d="M164.217 120.612H175.618" stroke="#263238" stroke-miterlimit="10" stroke-linecap="round" stroke-linejoin="round"/>
<path d="M152.816 120.612H162.317" stroke="#263238" stroke-miterlimit="10" stroke-linecap="round" stroke-linejoin="round"/>
<path d="M171.581 122.749H179.894" stroke="#263238" stroke-miterlimit="10" stroke-linecap="round" stroke-linejoin="round"/>
<path d="M159.942 122.749H169.443" stroke="#263238" stroke-miterlimit="10" stroke-linecap="round" stroke-linejoin="round"/>
<path d="M152.816 122.749H158.279" stroke="#263238" stroke-miterlimit="10" stroke-linecap="round" stroke-linejoin="round"/>
<path d="M167.78 125.362H179.894" stroke="#263238" stroke-miterlimit="10" stroke-linecap="round" stroke-linejoin="round"/>
<path d="M152.816 125.362H165.642" stroke="#263238" stroke-miterlimit="10" stroke-linecap="round" stroke-linejoin="round"/>
<path d="M177.519 127.975H179.894" stroke="#263238" stroke-miterlimit="10" stroke-linecap="round" stroke-linejoin="round"/>
<path d="M164.217 127.975H175.618" stroke="#263238" stroke-miterlimit="10" stroke-linecap="round" stroke-linejoin="round"/>
<path d="M152.816 127.975H162.317" stroke="#263238" stroke-miterlimit="10" stroke-linecap="round" stroke-linejoin="round"/>
<path d="M171.581 130.112H179.894" stroke="#263238" stroke-miterlimit="10" stroke-linecap="round" stroke-linejoin="round"/>
<path d="M159.942 130.112H169.443" stroke="#263238" stroke-miterlimit="10" stroke-linecap="round" stroke-linejoin="round"/>
<path d="M152.816 130.112H158.279" stroke="#263238" stroke-miterlimit="10" stroke-linecap="round" stroke-linejoin="round"/>
<path d="M167.78 132.725H179.894" stroke="#263238" stroke-miterlimit="10" stroke-linecap="round" stroke-linejoin="round"/>
<path d="M152.816 132.725H165.642" stroke="#263238" stroke-miterlimit="10" stroke-linecap="round" stroke-linejoin="round"/>
<path d="M177.519 135.338H179.894" stroke="#263238" stroke-miterlimit="10" stroke-linecap="round" stroke-linejoin="round"/>
<path d="M164.217 135.338H175.618" stroke="#263238" stroke-miterlimit="10" stroke-linecap="round" stroke-linejoin="round"/>
<path d="M152.816 135.338H162.317" stroke="#263238" stroke-miterlimit="10" stroke-linecap="round" stroke-linejoin="round"/>
<path d="M171.581 137.476H179.894" stroke="#263238" stroke-miterlimit="10" stroke-linecap="round" stroke-linejoin="round"/>
<path d="M159.942 137.476H169.443" stroke="#263238" stroke-miterlimit="10" stroke-linecap="round" stroke-linejoin="round"/>
<path d="M152.816 137.476H158.279" stroke="#263238" stroke-miterlimit="10" stroke-linecap="round" stroke-linejoin="round"/>
<path d="M167.78 140.089H179.894" stroke="#263238" stroke-miterlimit="10" stroke-linecap="round" stroke-linejoin="round"/>
<path d="M152.816 140.089H165.642" stroke="#263238" stroke-miterlimit="10" stroke-linecap="round" stroke-linejoin="round"/>
<path d="M177.519 142.702H179.894" stroke="#263238" stroke-miterlimit="10" stroke-linecap="round" stroke-linejoin="round"/>
<path d="M164.217 142.702H175.618" stroke="#263238" stroke-miterlimit="10" stroke-linecap="round" stroke-linejoin="round"/>
<path d="M152.816 142.702H162.317" stroke="#263238" stroke-miterlimit="10" stroke-linecap="round" stroke-linejoin="round"/>
<path d="M194.959 169.423C200.192 169.423 204.434 165.181 204.434 159.947C204.434 154.714 200.192 150.472 194.959 150.472C189.726 150.472 185.484 154.714 185.484 159.947C185.484 165.181 189.726 169.423 194.959 169.423Z" stroke="#263238" stroke-miterlimit="10" stroke-linecap="round" stroke-linejoin="round"/>
<path d="M198.194 162.741C198.194 164.482 196.783 165.893 195.042 165.893C193.302 165.893 191.891 164.482 191.891 162.741C191.891 161.001 193.302 159.59 195.042 159.59C196.783 159.59 198.194 161.001 198.194 162.741Z" fill="#D0E8FF" stroke="#263238" stroke-miterlimit="10" stroke-linecap="round" stroke-linejoin="round"/>
<path d="M199.548 164.84C200.336 163.854 200.808 162.605 200.808 161.244C200.808 158.06 198.227 155.479 195.042 155.479C191.858 155.479 189.276 158.06 189.276 161.244C189.276 162.605 189.749 163.854 190.536 164.84H199.548Z" fill="white" stroke="#263238" stroke-miterlimit="10" stroke-linecap="round" stroke-linejoin="round"/>
<path d="M197.293 163.206H192.645C191.503 163.206 190.576 162.279 190.576 161.137C190.576 159.995 191.503 159.068 192.645 159.068H197.293C198.436 159.068 199.362 159.995 199.362 161.137C199.362 162.279 198.436 163.206 197.293 163.206Z" fill="#D0E8FF" stroke="#263238" stroke-miterlimit="10" stroke-linecap="round" stroke-linejoin="round"/>
<path d="M191.527 160.969C191.721 160.427 192.24 160.038 192.849 160.038C193.431 160.038 193.93 160.392 194.143 160.896" stroke="#263238" stroke-width="2" stroke-miterlimit="10" stroke-linecap="round" stroke-linejoin="round"/>
<path d="M195.868 160.969C196.063 160.427 196.581 160.038 197.191 160.038C197.773 160.038 198.272 160.392 198.485 160.896" stroke="#263238" stroke-width="2" stroke-miterlimit="10" stroke-linecap="round" stroke-linejoin="round"/>
<path d="M194.282 161.929C194.332 162.321 194.666 162.623 195.071 162.623C195.477 162.623 195.811 162.32 195.861 161.929H194.282Z" fill="white" stroke="#263238" stroke-miterlimit="10" stroke-linecap="round" stroke-linejoin="round"/>
<path d="M202.502 162.256C202.169 162.256 201.899 161.986 201.899 161.653V160.281C201.899 159.948 202.169 159.678 202.502 159.678C202.836 159.678 203.106 159.948 203.106 160.281V161.653C203.106 161.986 202.836 162.256 202.502 162.256Z" fill="#263238" stroke="#263238" stroke-miterlimit="10" stroke-linecap="round" stroke-linejoin="round"/>
<path d="M187.416 162.256C187.082 162.256 186.812 161.986 186.812 161.653V160.281C186.812 159.948 187.082 159.678 187.416 159.678C187.749 159.678 188.019 159.948 188.019 160.281V161.653C188.019 161.986 187.749 162.256 187.416 162.256Z" fill="#263238" stroke="#263238" stroke-miterlimit="10" stroke-linecap="round" stroke-linejoin="round"/>
<path d="M188.533 160.366C188.183 160.366 187.899 160.082 187.899 159.732V158.736C187.899 157.652 188.219 156.606 188.823 155.711C189.019 155.421 189.414 155.344 189.704 155.54C189.994 155.736 190.07 156.13 189.874 156.421C189.412 157.105 189.168 157.906 189.168 158.736V159.732C189.167 160.082 188.883 160.366 188.533 160.366Z" fill="#263238"/>
<path d="M200.796 156.387C200.695 156.387 200.594 156.338 200.533 156.247C199.701 155.014 198.318 154.277 196.833 154.277H193.309C191.825 154.277 190.443 155.012 189.611 156.243C189.513 156.388 189.316 156.427 189.171 156.328C189.026 156.23 188.988 156.033 189.086 155.888C190.036 154.483 191.614 153.643 193.309 153.643H196.833C198.53 153.643 200.109 154.484 201.059 155.892C201.156 156.037 201.118 156.234 200.973 156.332C200.919 156.369 200.858 156.387 200.796 156.387Z" fill="#263238"/>
<path d="M201.609 160.366C201.259 160.366 200.975 160.082 200.975 159.732V158.736C200.975 157.907 200.732 157.108 200.271 156.424C200.075 156.133 200.152 155.74 200.442 155.544C200.733 155.348 201.127 155.425 201.322 155.715C201.925 156.609 202.244 157.654 202.244 158.736V159.732C202.243 160.082 201.96 160.366 201.609 160.366Z" fill="#263238"/>
<path d="M188.61 163.154C187.919 163.154 187.358 162.594 187.358 161.903V159.911C187.358 159.219 187.919 158.659 188.61 158.659C189.301 158.659 189.862 159.219 189.862 159.911V161.903C189.861 162.594 189.301 163.154 188.61 163.154Z" fill="white" stroke="#263238" stroke-miterlimit="10" stroke-linecap="round" stroke-linejoin="round"/>
<path d="M188.737 158.659H188.482V163.154H188.737V158.659Z" fill="#D0E8FF" stroke="#263238" stroke-miterlimit="10" stroke-linecap="round" stroke-linejoin="round"/>
<path d="M201.38 163.154C200.689 163.154 200.128 162.594 200.128 161.903V159.911C200.128 159.219 200.688 158.659 201.379 158.659C202.071 158.659 202.631 159.219 202.631 159.911V161.903C202.631 162.594 202.071 163.154 201.38 163.154Z" fill="white" stroke="#263238" stroke-miterlimit="10" stroke-linecap="round" stroke-linejoin="round"/>
<path d="M201.507 158.659H201.252V163.154H201.507V158.659Z" fill="#D0E8FF" stroke="#263238" stroke-miterlimit="10" stroke-linecap="round" stroke-linejoin="round"/>
<path d="M195.063 158.251C195.96 158.251 196.796 157.796 197.283 157.043L197.83 156.197C197.004 155.74 196.054 155.479 195.042 155.479C194 155.479 193.023 155.756 192.179 156.24L193 157.263C193.502 157.887 194.261 158.251 195.063 158.251Z" fill="#D0E8FF" stroke="#263238" stroke-miterlimit="10" stroke-linecap="round" stroke-linejoin="round"/>
<path d="M195.106 163.719C195.158 163.719 195.2 163.677 195.2 163.625C195.2 163.573 195.158 163.531 195.106 163.531C195.054 163.531 195.012 163.573 195.012 163.625C195.012 163.677 195.054 163.719 195.106 163.719Z" fill="#263238"/>
<path d="M195.106 164.045C195.158 164.045 195.2 164.003 195.2 163.951C195.2 163.899 195.158 163.857 195.106 163.857C195.054 163.857 195.012 163.899 195.012 163.951C195.012 164.003 195.054 164.045 195.106 164.045Z" fill="#263238"/>
<path d="M194.83 163.901C194.88 163.886 194.908 163.833 194.892 163.784C194.877 163.734 194.825 163.707 194.776 163.722C194.726 163.737 194.698 163.789 194.714 163.839C194.729 163.888 194.781 163.916 194.83 163.901Z" fill="#263238"/>
<path d="M195.412 163.901C195.462 163.886 195.49 163.833 195.474 163.784C195.459 163.734 195.407 163.707 195.358 163.722C195.308 163.737 195.28 163.789 195.295 163.839C195.311 163.888 195.363 163.916 195.412 163.901Z" fill="#263238"/>
<path d="M147.992 182.851H183.317V160.387V156.212L179.142 160.387H147.992V182.851Z" fill="#D0E8FF" stroke="#263238" stroke-miterlimit="10" stroke-linecap="round" stroke-linejoin="round"/>
<path d="M171.581 165.581H179.894" stroke="#263238" stroke-miterlimit="10" stroke-linecap="round" stroke-linejoin="round"/>
<path d="M159.942 165.581H169.443" stroke="#263238" stroke-miterlimit="10" stroke-linecap="round" stroke-linejoin="round"/>
<path d="M152.816 165.581H158.279" stroke="#263238" stroke-miterlimit="10" stroke-linecap="round" stroke-linejoin="round"/>
<path d="M167.78 168.194H179.894" stroke="#263238" stroke-miterlimit="10" stroke-linecap="round" stroke-linejoin="round"/>
<path d="M152.816 168.194H165.642" stroke="#263238" stroke-miterlimit="10" stroke-linecap="round" stroke-linejoin="round"/>
<path d="M177.519 170.807H179.894" stroke="#263238" stroke-miterlimit="10" stroke-linecap="round" stroke-linejoin="round"/>
<path d="M164.217 170.807H175.618" stroke="#263238" stroke-miterlimit="10" stroke-linecap="round" stroke-linejoin="round"/>
<path d="M152.816 170.807H162.317" stroke="#263238" stroke-miterlimit="10" stroke-linecap="round" stroke-linejoin="round"/>
<path d="M171.581 172.945H179.894" stroke="#263238" stroke-miterlimit="10" stroke-linecap="round" stroke-linejoin="round"/>
<path d="M159.942 172.945H169.443" stroke="#263238" stroke-miterlimit="10" stroke-linecap="round" stroke-linejoin="round"/>
<path d="M152.816 172.945H158.279" stroke="#263238" stroke-miterlimit="10" stroke-linecap="round" stroke-linejoin="round"/>
<path d="M167.78 175.558H179.894" stroke="#263238" stroke-miterlimit="10" stroke-linecap="round" stroke-linejoin="round"/>
<path d="M152.816 175.558H165.642" stroke="#263238" stroke-miterlimit="10" stroke-linecap="round" stroke-linejoin="round"/>
<path d="M177.519 178.171H179.894" stroke="#263238" stroke-miterlimit="10" stroke-linecap="round" stroke-linejoin="round"/>
<path d="M164.217 178.171H175.618" stroke="#263238" stroke-miterlimit="10" stroke-linecap="round" stroke-linejoin="round"/>
<path d="M152.816 178.171H162.317" stroke="#263238" stroke-miterlimit="10" stroke-linecap="round" stroke-linejoin="round"/>
<path d="M201.109 24.6771H182.802C182.418 26.7346 180.616 28.2931 178.447 28.2931H152.209C150.04 28.2931 148.238 26.7346 147.854 24.6771H129.547C126.356 24.6771 123.769 27.2634 123.769 30.4545V185.412C123.769 188.603 126.356 191.19 129.547 191.19H201.109C204.3 191.19 206.887 188.603 206.887 185.412V30.4545C206.886 27.2639 204.3 24.6771 201.109 24.6771Z" stroke="#263238" stroke-width="2" stroke-miterlimit="10" stroke-linecap="round" stroke-linejoin="round"/>
<path d="M206.886 35.136V30.4545C206.886 27.2639 204.3 24.6771 201.109 24.6771H182.802C182.418 26.7346 180.616 28.2931 178.447 28.2931H152.209C150.04 28.2931 148.238 26.7346 147.853 24.6771H129.546C126.356 24.6771 123.769 27.2634 123.769 30.4545V35.136H206.886Z" stroke="#263238" stroke-width="2" stroke-miterlimit="10" stroke-linecap="round" stroke-linejoin="round"/>
<path d="M131.387 28.8596C131.387 29.9958 130.111 30.4047 130.106 31.2714V31.3304H131.344V31.7127H129.692V31.3895C129.692 30.1729 130.968 29.9363 130.968 28.8755C130.968 28.4879 130.838 28.2837 130.526 28.2837C130.219 28.2837 130.084 28.5044 130.084 28.8378V29.1717H129.692V28.8649C129.692 28.289 129.955 27.9067 130.536 27.9067C131.123 27.9067 131.387 28.2837 131.387 28.8596Z" fill="#263238"/>
<path d="M133.449 28.8542V28.951C133.449 29.3386 133.293 29.6135 132.992 29.7262C133.309 29.8448 133.449 30.1298 133.449 30.5068V30.7976C133.449 31.3735 133.18 31.7504 132.598 31.7504C132.023 31.7504 131.753 31.3735 131.753 30.7976V30.5392H132.146V30.8243C132.146 31.1635 132.286 31.3682 132.588 31.3682C132.895 31.3682 133.03 31.1688 133.03 30.787V30.4961C133.03 30.1245 132.873 29.9469 132.555 29.9363H132.329V29.5593H132.577C132.857 29.5486 133.029 29.3711 133.029 29.0429V28.8702C133.029 28.4826 132.895 28.2837 132.587 28.2837C132.286 28.2837 132.146 28.4933 132.146 28.8325V29.0265H131.753V28.8542C131.753 28.2784 132.022 27.9067 132.598 27.9067C133.18 27.9067 133.449 28.2784 133.449 28.8542Z" fill="#263238"/>
<path d="M134.263 29.1398V29.6619H133.859V29.1398H134.263ZM134.263 31.1906V31.7128H133.859V31.1906H134.263Z" fill="#263238"/>
<path d="M135.113 29.4789C135.232 29.2742 135.42 29.1668 135.673 29.1668C136.157 29.1668 136.373 29.522 136.373 30.0606V30.798C136.373 31.3739 136.098 31.7509 135.523 31.7509C134.946 31.7509 134.677 31.3739 134.677 30.798V30.545H135.07V30.8247C135.07 31.1639 135.21 31.3686 135.512 31.3686C135.813 31.3686 135.953 31.1639 135.953 30.8247V30.0925C135.953 29.7533 135.813 29.5486 135.512 29.5486C135.281 29.5486 135.124 29.6778 135.087 29.9527V30.0388H134.694L134.796 27.9445H136.281V28.3214H135.172L135.113 29.4789Z" fill="#263238"/>
<path d="M138.468 28.849V28.9191H138.075V28.8223C138.075 28.4831 137.935 28.2842 137.628 28.2842C137.311 28.2842 137.171 28.4889 137.171 28.8925V29.7374C137.273 29.479 137.477 29.3338 137.779 29.3338C138.263 29.3338 138.479 29.6837 138.479 30.2276V30.7981C138.479 31.374 138.193 31.7509 137.618 31.7509C137.036 31.7509 136.751 31.374 136.751 30.7981V28.876C136.751 28.2784 137.021 27.9072 137.618 27.9072C138.199 27.9068 138.468 28.2731 138.468 28.849ZM137.171 30.2595V30.8248C137.171 31.164 137.311 31.3687 137.617 31.3687C137.919 31.3687 138.064 31.164 138.064 30.8248V30.2595C138.064 29.9203 137.919 29.7156 137.617 29.7156C137.311 29.7156 137.171 29.9203 137.171 30.2595Z" fill="#263238"/>
<path d="M185.001 29.0145H183.937V31.6745H185.001V29.0145Z" fill="#263238"/>
<path d="M186.42 28.4817H185.356V31.6749H186.42V28.4817Z" fill="#263238"/>
<path d="M187.839 28.1034H186.775V31.6749H187.839V28.1034Z" fill="#263238"/>
<path d="M189.257 27.4454H188.193V31.675H189.257V27.4454Z" fill="#263238"/>
<path d="M202.425 31.6017H196.041V27.7003H202.425V31.6017ZM196.395 31.247H202.07V28.0551H196.395V31.247Z" fill="#263238"/>
<path d="M200.297 28.4409H196.927V30.8612H200.297V28.4409Z" fill="#263238"/>
<path d="M203.006 29.1913H202.203V30.1104H203.006V29.1913Z" fill="#263238"/>
<path d="M193.7 30.7527C193.659 30.7527 193.616 30.7421 193.578 30.719C192.279 29.9469 191.42 30.6635 191.384 30.6937C191.285 30.7798 191.135 30.7687 191.048 30.6697C190.962 30.5707 190.972 30.4215 191.07 30.3349C191.116 30.2945 192.214 29.3537 193.822 30.3087C193.935 30.3758 193.973 30.5223 193.905 30.6355C193.86 30.7114 193.781 30.7527 193.7 30.7527Z" fill="#263238"/>
<path d="M194.18 29.9513C194.139 29.9513 194.096 29.9407 194.058 29.9176C192.18 28.8005 190.917 29.8812 190.904 29.8914C190.805 29.9789 190.655 29.9686 190.568 29.8701C190.481 29.7715 190.49 29.6205 190.589 29.534C190.605 29.5198 192.127 28.2157 194.302 29.5078C194.415 29.5748 194.452 29.7218 194.385 29.8346C194.341 29.91 194.262 29.9513 194.18 29.9513Z" fill="#263238"/>
<path d="M194.617 29.0235C194.575 29.0235 194.533 29.0128 194.495 28.9902C192.115 27.5756 190.534 28.9071 190.468 28.9648C190.369 29.051 190.218 29.0403 190.132 28.9418C190.045 28.8432 190.055 28.6931 190.153 28.6065C190.172 28.5897 192.051 26.9824 194.739 28.5803C194.852 28.6474 194.889 28.7939 194.822 28.9071C194.777 28.9822 194.698 29.0235 194.617 29.0235Z" fill="#263238"/>
<path d="M192.982 31.1524C192.982 31.4827 192.714 31.7505 192.384 31.7505C192.054 31.7505 191.786 31.4827 191.786 31.1524C191.786 30.8221 192.054 30.5543 192.384 30.5543C192.714 30.5543 192.982 30.8221 192.982 31.1524Z" fill="#263238"/>
<path d="M200.244 198.249H209.568" stroke="#263238" stroke-miterlimit="10" stroke-linecap="round" stroke-linejoin="round"/>
<path d="M24.42 198.249H197.136" stroke="#263238" stroke-miterlimit="10" stroke-linecap="round" stroke-linejoin="round"/>
<path d="M12.2748 198.249H18.648" stroke="#263238" stroke-miterlimit="10" stroke-linecap="round" stroke-linejoin="round"/>
<path d="M76.2282 138.456H69.4438V197.419H76.2282V138.456Z" fill="#263238" stroke="#263238" stroke-miterlimit="10" stroke-linecap="round" stroke-linejoin="round"/>
<path d="M22.4301 159.808V163.956H49.471V159.808H22.4301Z" fill="#263238" stroke="#263238" stroke-miterlimit="10" stroke-linecap="round" stroke-linejoin="round"/>
<path d="M25.2126 145.496H21.0643V162.089H25.2126V145.496Z" fill="#263238" stroke="#263238" stroke-miterlimit="10" stroke-linecap="round" stroke-linejoin="round"/>
<path d="M26.9384 162.155C26.9384 164.253 25.2356 165.955 23.1386 165.955C23.0134 165.955 22.8904 165.948 22.7674 165.939C20.8427 165.75 19.3389 164.128 19.3389 162.155C19.3389 160.058 21.0416 158.356 23.1386 158.356C24.9097 158.356 26.3994 159.571 26.8203 161.21C26.8984 161.512 26.9384 161.829 26.9384 162.155Z" fill="white" stroke="#263238" stroke-miterlimit="10" stroke-linecap="round" stroke-linejoin="round"/>
<path d="M27.2154 148.051C27.2154 150.148 25.5131 151.851 23.4157 151.851C23.2904 151.851 23.1675 151.844 23.0445 151.834C21.1197 151.645 19.6159 150.023 19.6159 148.051C19.6159 145.954 21.3182 144.251 23.4157 144.251C25.1868 144.251 26.6764 145.466 27.0973 147.105C27.1754 147.408 27.2154 147.725 27.2154 148.051Z" fill="white" stroke="#263238" stroke-miterlimit="10" stroke-linecap="round" stroke-linejoin="round"/>
<path d="M34.036 137.734L28.5095 140.711L29.6544 142.837L35.1809 139.86L34.036 137.734Z" fill="#263238" stroke="#263238" stroke-miterlimit="10" stroke-linecap="round" stroke-linejoin="round"/>
<path d="M36.0857 140.107L33.3604 141.575L31.6217 138.346L34.347 136.878C35.2385 136.398 36.3507 136.732 36.8307 137.623C37.3111 138.515 36.9777 139.627 36.0857 140.107Z" fill="white" stroke="#263238" stroke-miterlimit="10" stroke-linecap="round" stroke-linejoin="round"/>
<path d="M24.1536 126.418L23.96 137.68L21.546 137.642L21.7396 126.381L24.1536 126.418Z" fill="#263238" stroke="#263238" stroke-miterlimit="10" stroke-linecap="round" stroke-linejoin="round"/>
<path d="M24.8067 125.741L24.7592 128.836L21.0922 128.78L21.1397 125.684C21.1553 124.672 21.9887 123.864 23.0014 123.879C24.0142 123.895 24.8223 124.728 24.8067 125.741Z" fill="white" stroke="#263238" stroke-miterlimit="10" stroke-linecap="round" stroke-linejoin="round"/>
<path d="M33.1748 130.503L27.8787 140.443L25.7462 139.311L31.0418 129.371L33.1748 130.503Z" fill="#263238" stroke="#263238" stroke-miterlimit="10" stroke-linecap="round" stroke-linejoin="round"/>
<path d="M34.0646 130.196L32.614 132.931L29.3741 131.212L30.8247 128.478C31.2993 127.583 32.4093 127.242 33.304 127.717C34.1987 128.192 34.5392 129.302 34.0646 130.196Z" fill="white" stroke="#263238" stroke-miterlimit="10" stroke-linecap="round" stroke-linejoin="round"/>
<path d="M15.5919 130.459L20.8409 140.424L18.707 141.553L13.4581 131.588L15.5919 130.459Z" fill="#263238" stroke="#263238" stroke-miterlimit="10" stroke-linecap="round" stroke-linejoin="round"/>
<path d="M20.5154 137.683C20.2961 136.397 19.0764 135.533 17.7911 135.753C16.5057 135.972 15.6417 137.192 15.861 138.477C16.0803 139.763 17.3 140.627 18.5854 140.407C19.8708 140.187 20.7348 138.968 20.5154 137.683Z" fill="white" stroke="#263238" stroke-miterlimit="10" stroke-linecap="round" stroke-linejoin="round"/>
<path d="M22.8278 137.994C24.1316 137.994 25.1885 136.937 25.1885 135.634C25.1885 134.33 24.1316 133.273 22.8278 133.273C21.524 133.273 20.467 134.33 20.467 135.634C20.467 136.937 21.524 137.994 22.8278 137.994Z" fill="white" stroke="#263238" stroke-miterlimit="10" stroke-linecap="round" stroke-linejoin="round"/>
<path d="M30.5361 136.997C30.7341 135.709 29.8501 134.503 28.5616 134.305C27.2731 134.107 26.0677 134.991 25.8696 136.28C25.6716 137.568 26.5556 138.774 27.8441 138.972C29.1326 139.17 30.3381 138.286 30.5361 136.997Z" fill="white" stroke="#263238" stroke-miterlimit="10" stroke-linecap="round" stroke-linejoin="round"/>
<path d="M15.8384 129.551L17.2858 132.287L14.0442 134.002L12.5967 131.266C12.123 130.371 12.4649 129.261 13.36 128.788C14.2551 128.314 15.3646 128.656 15.8384 129.551Z" fill="white" stroke="#263238" stroke-miterlimit="10" stroke-linecap="round" stroke-linejoin="round"/>
<path d="M30.0823 142.243C30.0823 145.922 27.0956 148.909 23.4157 148.909C23.1959 148.909 22.9801 148.897 22.7643 148.88C19.3877 148.549 16.749 145.703 16.749 142.243C16.749 138.563 19.7358 135.576 23.4157 135.576C26.5228 135.576 29.1362 137.708 29.8746 140.583C30.0117 141.115 30.0823 141.671 30.0823 142.243Z" fill="white" stroke="#263238" stroke-miterlimit="10" stroke-linecap="round" stroke-linejoin="round"/>
<path d="M30.0824 142.243C30.0824 145.922 27.0956 148.909 23.4157 148.909C23.1959 148.909 22.9801 148.897 22.7644 148.88C22.6276 148.349 22.557 147.793 22.557 147.221C22.557 143.542 25.5438 140.554 29.2237 140.554C29.4434 140.554 29.6592 140.567 29.875 140.583C30.0118 141.115 30.0824 141.671 30.0824 142.243Z" fill="white" stroke="#263238" stroke-miterlimit="10" stroke-linecap="round" stroke-linejoin="round"/>
<path d="M63.6148 162.274C64.7457 157.441 61.744 152.606 56.9104 151.475C52.0769 150.344 47.2418 153.346 46.111 158.179C44.9801 163.013 47.9818 167.848 52.8154 168.979C57.6489 170.11 62.484 167.108 63.6148 162.274Z" fill="white" stroke="#263238" stroke-miterlimit="10" stroke-linecap="round" stroke-linejoin="round"/>
<path d="M56.5421 164.237C58.7622 163.311 59.8112 160.761 58.885 158.541C57.9589 156.321 55.4084 155.272 53.1883 156.198C50.9682 157.124 49.9192 159.674 50.8454 161.894C51.7715 164.115 54.322 165.163 56.5421 164.237Z" fill="#263238" stroke="#263238" stroke-miterlimit="10" stroke-linecap="round" stroke-linejoin="round"/>
<path d="M53.3191 198.249H93.1894L93.7657 195.551C94.2448 193.31 92.8266 191.108 90.5906 190.606C84.9358 189.334 72.7001 188.875 72.7001 188.875C69.7533 188.969 61.5486 189.335 55.8929 190.611C53.6672 191.113 52.2659 193.32 52.7427 195.551L53.3191 198.249Z" fill="white" stroke="#263238" stroke-miterlimit="10" stroke-linecap="round" stroke-linejoin="round"/>
<path d="M82.8526 189.537C77.7448 189.065 72.7001 188.875 72.7001 188.875C70.8442 188.934 66.9037 189.101 62.8273 189.536C64.0168 193.599 68.0479 196.589 72.84 196.589C77.6321 196.59 81.6627 193.599 82.8526 189.537Z" fill="#D0E8FF" stroke="#263238" stroke-miterlimit="10" stroke-linecap="round" stroke-linejoin="round"/>
<path d="M114.482 179.224L116.963 175.899L95.2898 159.728L92.8092 163.053L114.482 179.224Z" fill="#263238" stroke="#263238" stroke-miterlimit="10" stroke-linecap="round" stroke-linejoin="round"/>
<path d="M103.684 189.019L107.009 191.5L116.932 178.2L113.607 175.719L103.684 189.019Z" fill="#263238" stroke="#263238" stroke-miterlimit="10" stroke-linecap="round" stroke-linejoin="round"/>
<path d="M112.274 174.636C113.529 172.955 115.911 172.609 117.593 173.863C117.693 173.938 117.787 174.017 117.88 174.099C119.31 175.401 119.545 177.601 118.366 179.182C117.111 180.862 114.729 181.209 113.048 179.955C111.628 178.896 111.161 177.03 111.804 175.465C111.922 175.176 112.079 174.898 112.274 174.636Z" fill="white" stroke="#263238" stroke-miterlimit="10" stroke-linecap="round" stroke-linejoin="round"/>
<path d="M103.603 185.26C104.773 183.519 107.136 183.056 108.877 184.227C108.981 184.296 109.079 184.371 109.176 184.447C110.667 185.678 111.01 187.863 109.91 189.5C108.74 191.241 106.377 191.704 104.636 190.533C103.167 189.545 102.608 187.705 103.173 186.111C103.278 185.816 103.421 185.531 103.603 185.26Z" fill="white" stroke="#263238" stroke-miterlimit="10" stroke-linecap="round" stroke-linejoin="round"/>
<path d="M92.203 190.01L98.4501 190.624L98.6863 188.221L92.4391 187.607L92.203 190.01Z" fill="#263238" stroke="#263238" stroke-miterlimit="10" stroke-linecap="round" stroke-linejoin="round"/>
<path d="M91.8094 186.903L94.8904 187.206L94.5316 190.856L91.4511 190.553C90.4433 190.454 89.7067 189.557 89.8057 188.549C89.9042 187.541 90.8016 186.804 91.8094 186.903Z" fill="white" stroke="#263238" stroke-miterlimit="10" stroke-linecap="round" stroke-linejoin="round"/>
<path d="M97.9837 188.48C100.037 185.427 104.182 184.614 107.236 186.667C107.418 186.79 107.59 186.921 107.76 187.055C110.377 189.215 110.979 193.048 109.049 195.919C106.996 198.973 102.85 199.785 99.7966 197.732C97.2178 195.998 96.2388 192.771 97.2302 189.973C97.4127 189.456 97.6645 188.955 97.9837 188.48Z" fill="white" stroke="#263238" stroke-miterlimit="10" stroke-linecap="round" stroke-linejoin="round"/>
<path d="M90.8069 195.395L99.0671 189.221L100.393 190.989L92.1336 197.163L90.8069 195.395Z" fill="#263238" stroke="#263238" stroke-miterlimit="10" stroke-linecap="round" stroke-linejoin="round"/>
<path d="M89.9509 195.302L92.2179 193.601L94.2328 196.287L91.9657 197.988C91.2238 198.544 90.1715 198.394 89.6152 197.653C89.0589 196.911 89.2089 195.858 89.9509 195.302Z" fill="white" stroke="#263238" stroke-miterlimit="10" stroke-linecap="round" stroke-linejoin="round"/>
<path d="M101.47 191.122C101.751 189.849 100.946 188.589 99.6731 188.309C98.4002 188.028 97.1401 188.833 96.8595 190.106C96.5789 191.379 97.3834 192.639 98.6564 192.919C99.9293 193.2 101.189 192.395 101.47 191.122Z" fill="white" stroke="#263238" stroke-miterlimit="10" stroke-linecap="round" stroke-linejoin="round"/>
<path d="M105.851 201.602L107.075 193.129L108.891 193.388L107.668 201.86L105.851 201.602Z" fill="#263238" stroke="#263238" stroke-miterlimit="10" stroke-linecap="round" stroke-linejoin="round"/>
<path d="M105.294 202.05L105.626 199.721L108.385 200.114L108.053 202.443C107.944 203.205 107.239 203.735 106.477 203.627C105.715 203.518 105.185 202.812 105.294 202.05Z" fill="white" stroke="#263238" stroke-miterlimit="10" stroke-linecap="round" stroke-linejoin="round"/>
<path d="M109.601 192.834C109.018 191.922 107.806 191.655 106.894 192.238C105.982 192.82 105.715 194.032 106.298 194.944C106.881 195.856 108.093 196.124 109.005 195.541C109.917 194.958 110.183 193.746 109.601 192.834Z" fill="white" stroke="#263238" stroke-miterlimit="10" stroke-linecap="round" stroke-linejoin="round"/>
<path d="M97.6765 200.474L103.18 191.753L105.051 192.93L99.5479 201.65L97.6765 200.474Z" fill="#263238" stroke="#263238" stroke-miterlimit="10" stroke-linecap="round" stroke-linejoin="round"/>
<path d="M96.8435 200.693L98.3518 198.294L101.195 200.081L99.6864 202.48C99.1932 203.265 98.1564 203.501 97.3714 203.008C96.5864 202.515 96.3502 201.478 96.8435 200.693Z" fill="white" stroke="#263238" stroke-miterlimit="10" stroke-linecap="round" stroke-linejoin="round"/>
<path d="M106.104 192.668C105.91 191.379 104.709 190.491 103.419 190.684C102.13 190.878 101.241 192.08 101.435 193.369C101.629 194.658 102.83 195.547 104.12 195.353C105.409 195.16 106.298 193.958 106.104 192.668Z" fill="white" stroke="#263238" stroke-miterlimit="10" stroke-linecap="round" stroke-linejoin="round"/>
<path d="M95.9165 167.932C100.09 165.244 101.296 159.683 98.6085 155.509C95.9214 151.335 90.3595 150.13 86.1857 152.817C82.0119 155.504 80.8066 161.066 83.4937 165.24C86.1808 169.413 91.7426 170.619 95.9165 167.932Z" fill="white" stroke="#263238" stroke-miterlimit="10" stroke-linecap="round" stroke-linejoin="round"/>
<path d="M95.0139 162.182C96.0165 159.996 95.0567 157.41 92.87 156.408C90.6834 155.405 88.098 156.365 87.0953 158.551C86.0927 160.738 87.0525 163.324 89.2392 164.326C91.4258 165.329 94.0113 164.369 95.0139 162.182Z" fill="#263238" stroke="#263238" stroke-miterlimit="10" stroke-linecap="round" stroke-linejoin="round"/>
<path d="M72.8355 142.575C80.8067 142.575 87.2686 136.114 87.2686 128.142C87.2686 120.171 80.8067 113.709 72.8355 113.709C64.8643 113.709 58.4024 120.171 58.4024 128.142C58.4024 136.114 64.8643 142.575 72.8355 142.575Z" fill="#D0E8FF" stroke="#263238" stroke-miterlimit="10" stroke-linecap="round" stroke-linejoin="round"/>
<path d="M93.4709 137.754C97.0797 133.238 99.2425 127.516 99.2425 121.286C99.2425 106.702 87.4196 94.8788 72.8356 94.8788C58.2515 94.8788 46.4286 106.702 46.4286 121.286C46.4286 127.516 48.5914 133.238 52.2002 137.754H93.4709Z" fill="white" stroke="#263238" stroke-miterlimit="10" stroke-linecap="round" stroke-linejoin="round"/>
<path d="M88.9887 130.268H56.0128C54.0077 130.268 52.3822 128.642 52.3822 126.637V114.949C52.3822 112.944 54.0077 111.319 56.0128 111.319H88.9887C90.9938 111.319 92.6193 112.944 92.6193 114.949V126.637C92.6188 128.642 90.9933 130.268 88.9887 130.268Z" fill="#D0E8FF" stroke="#263238" stroke-miterlimit="10" stroke-linecap="round" stroke-linejoin="round"/>
<path d="M56.7347 120.026C57.6254 117.541 60.0012 115.764 62.7922 115.764C65.4571 115.764 67.7433 117.384 68.7201 119.693" stroke="#263238" stroke-width="5" stroke-miterlimit="10" stroke-linecap="round" stroke-linejoin="round"/>
<path d="M76.6193 120.026C77.51 117.541 79.8858 115.764 82.6768 115.764C85.3417 115.764 87.6279 117.384 88.6047 119.693" stroke="#263238" stroke-width="5" stroke-miterlimit="10" stroke-linecap="round" stroke-linejoin="round"/>
<path d="M69.3506 124.419C69.5806 126.214 71.1106 127.602 72.9683 127.602C74.8255 127.602 76.3556 126.215 76.586 124.419H69.3506Z" fill="white" stroke="#263238" stroke-miterlimit="10" stroke-linecap="round" stroke-linejoin="round"/>
<path d="M107.001 125.92C105.474 125.92 104.237 124.682 104.237 123.156V116.874C104.237 115.348 105.474 114.111 107.001 114.111C108.527 114.111 109.765 115.348 109.765 116.874V123.156C109.765 124.682 108.527 125.92 107.001 125.92Z" fill="#263238" stroke="#263238" stroke-miterlimit="10" stroke-linecap="round" stroke-linejoin="round"/>
<path d="M37.907 125.92C36.3805 125.92 35.1431 124.682 35.1431 123.156V116.874C35.1431 115.348 36.3805 114.111 37.907 114.111C39.4334 114.111 40.6709 115.348 40.6709 116.874V123.156C40.6709 124.682 39.4334 125.92 37.907 125.92Z" fill="#263238" stroke="#263238" stroke-miterlimit="10" stroke-linecap="round" stroke-linejoin="round"/>
<path d="M46.7603 97.569C44.4018 101.06 43.025 105.268 43.025 109.799V114.36" stroke="#263238" stroke-width="14" stroke-miterlimit="10" stroke-linecap="round" stroke-linejoin="round"/>
<path d="M99.1878 97.5858C95.2584 91.7583 88.5967 87.9253 81.0389 87.9253H64.8973C57.3471 87.9253 50.6906 91.7508 46.7599 97.569" stroke="#263238" stroke-width="7" stroke-miterlimit="10" stroke-linecap="round" stroke-linejoin="round"/>
<path d="M102.912 114.36V109.798C102.912 105.275 101.539 101.073 99.1879 97.5858" stroke="#263238" stroke-width="14" stroke-miterlimit="10" stroke-linecap="round" stroke-linejoin="round"/>
<path d="M45.2259 130.034H41.5247C39.3815 130.034 37.6437 128.296 37.6437 126.153V113.328C37.6437 111.185 39.3811 109.447 41.5247 109.447H45.2259C47.3691 109.447 49.1069 111.185 49.1069 113.328V126.153C49.1069 128.296 47.3695 130.034 45.2259 130.034Z" fill="white" stroke="#263238" stroke-miterlimit="10" stroke-linecap="round" stroke-linejoin="round"/>
<path d="M43.96 109.448H42.7905V130.034H43.96V109.448Z" fill="#D0E8FF" stroke="#263238" stroke-miterlimit="10" stroke-linecap="round" stroke-linejoin="round"/>
<path d="M103.71 130.034H100.009C97.8656 130.034 96.1278 128.296 96.1278 126.153V113.328C96.1278 111.185 97.8652 109.447 100.009 109.447H103.71C105.853 109.447 107.591 111.185 107.591 113.328V126.153C107.591 128.296 105.854 130.034 103.71 130.034Z" fill="white" stroke="#263238" stroke-miterlimit="10" stroke-linecap="round" stroke-linejoin="round"/>
<path d="M102.444 109.448H101.275V130.034H102.444V109.448Z" fill="#D0E8FF" stroke="#263238" stroke-miterlimit="10" stroke-linecap="round" stroke-linejoin="round"/>
<path d="M72.9279 107.576C77.0376 107.576 80.8666 105.493 83.099 102.043L85.605 98.1701C81.8199 96.0749 77.4682 94.8783 72.836 94.8783C68.0616 94.8783 63.5879 96.1517 59.7233 98.3677L63.4831 103.048C65.7822 105.911 69.256 107.576 72.9279 107.576Z" fill="#D0E8FF" stroke="#263238" stroke-miterlimit="10" stroke-linecap="round" stroke-linejoin="round"/>
<path d="M73.5517 132.186C73.5517 131.951 73.3608 131.76 73.125 131.76C72.8892 131.76 72.6983 131.951 72.6983 132.186C72.6983 132.422 72.8892 132.613 73.125 132.613C73.3608 132.613 73.5517 132.422 73.5517 132.186Z" fill="#263238"/>
<path d="M73.5517 133.679C73.5517 133.444 73.3608 133.253 73.125 133.253C72.8892 133.253 72.6983 133.444 72.6983 133.679C72.6983 133.915 72.8892 134.106 73.125 134.106C73.3608 134.106 73.5517 133.915 73.5517 133.679Z" fill="#263238"/>
<path d="M71.8632 133.448C72.0883 133.379 72.2153 133.141 72.1464 132.915C72.0776 132.69 71.8392 132.563 71.6141 132.632C71.3885 132.701 71.262 132.939 71.3304 133.165C71.3992 133.39 71.6376 133.517 71.8632 133.448Z" fill="#263238"/>
<path d="M74.5294 133.448C74.7549 133.379 74.8819 133.141 74.8131 132.915C74.7443 132.69 74.5059 132.563 74.2803 132.632C74.0552 132.701 73.9282 132.939 73.9966 133.165C74.0659 133.39 74.3043 133.517 74.5294 133.448Z" fill="#263238"/>
<path d="M90.5906 148.845C84.9359 147.573 72.7001 147.115 72.7001 147.115C69.7533 147.209 61.5486 147.575 55.8929 148.851C53.6672 149.353 52.2659 151.56 52.7427 153.791L57.9762 178.284C58.4996 180.735 60.6646 182.485 63.1701 182.485H72.7001H73.8079H83.3379C85.8434 182.485 88.0083 180.734 88.5318 178.284L93.7652 153.791C94.2448 151.55 92.8266 149.348 90.5906 148.845Z" fill="white" stroke="#263238" stroke-miterlimit="10" stroke-linecap="round" stroke-linejoin="round"/>
<path d="M88.0026 148.377C81.8709 147.459 72.7001 147.115 72.7001 147.115C70.3043 147.191 64.4342 147.447 59.2833 148.226L65.2165 182.485H72.7001H73.8079H81.3377L88.0026 148.377Z" fill="#D0E8FF" stroke="#263238" stroke-miterlimit="10" stroke-linecap="round" stroke-linejoin="round"/>
<path d="M77.9944 166.622H68.17C66.1649 166.622 64.5399 164.997 64.5399 162.992V158.192C64.5399 156.187 66.1653 154.562 68.17 154.562H77.9944C79.9995 154.562 81.6245 156.188 81.6245 158.192V162.992C81.6245 164.997 79.999 166.622 77.9944 166.622Z" fill="white" stroke="#263238" stroke-miterlimit="10" stroke-linecap="round" stroke-linejoin="round"/>
<path d="M70.2128 159.531H67.4471V162.297H70.2128V159.531Z" fill="white" stroke="#263238" stroke-miterlimit="10" stroke-linecap="round" stroke-linejoin="round"/>
<path d="M74.465 159.531H71.6993V162.297H74.465V159.531Z" fill="white" stroke="#263238" stroke-miterlimit="10" stroke-linecap="round" stroke-linejoin="round"/>
<path d="M78.7168 159.531H75.9511V162.297H78.7168V159.531Z" fill="white" stroke="#263238" stroke-miterlimit="10" stroke-linecap="round" stroke-linejoin="round"/>
<path d="M85.6494 204.61H31.9969V176.962C31.9969 175.736 32.991 174.742 34.2169 174.742H83.4294C84.6553 174.742 85.6494 175.736 85.6494 176.962V204.61Z" fill="white" stroke="#263238" stroke-miterlimit="10" stroke-linecap="round" stroke-linejoin="round"/>
<path d="M85.6494 184.677C78.9082 186.388 71.992 190.738 59.0995 196.867C46.664 202.778 36.4902 202.679 31.9969 202.219V204.61H85.6494V184.677Z" fill="#263238" stroke="#263238" stroke-miterlimit="10" stroke-linecap="round" stroke-linejoin="round"/>
<path d="M85.6494 202.951H31.9969V204.61H85.6494V202.951Z" fill="white" stroke="#263238" stroke-miterlimit="10" stroke-linecap="round" stroke-linejoin="round"/>
<path d="M61.5886 189.676C61.5886 191.203 60.3503 192.442 58.8229 192.442C57.2956 192.442 56.0573 191.203 56.0573 189.676C56.0573 188.149 57.2956 186.91 58.8229 186.91C60.3503 186.91 61.5886 188.149 61.5886 189.676Z" fill="white" stroke="#263238" stroke-miterlimit="10" stroke-linecap="round" stroke-linejoin="round"/>
</svg>
