<svg width="247" height="251" viewBox="0 0 247 251" fill="none" xmlns="http://www.w3.org/2000/svg">
<rect width="247" height="251" rx="30" fill="#1B65AD"/>
<path fill-rule="evenodd" clip-rule="evenodd" d="M101.543 163.282H75.7859C72.4044 163.282 69.6233 160.532 69.6233 157.119V129.656C69.6233 126.211 72.4044 123.43 75.8491 123.43H101.543C102.554 123.43 103.376 124.252 103.376 125.263V161.48C103.376 162.492 102.554 163.282 101.543 163.282Z" fill="white"/>
<path fill-rule="evenodd" clip-rule="evenodd" d="M142.5 175.544C142.311 175.544 142.153 175.544 141.963 175.481L104.387 164.23C105.082 163.503 105.493 162.555 105.493 161.48V125.263C105.493 124.188 105.082 123.209 104.387 122.513L141.963 111.231C142.532 111.073 143.132 111.2 143.575 111.516C144.049 111.863 144.302 112.4 144.302 113.001V173.742C144.302 174.311 144.049 174.848 143.575 175.196C143.259 175.449 142.88 175.544 142.5 175.544Z" fill="white"/>
<path fill-rule="evenodd" clip-rule="evenodd" d="M67.4743 156.74H61.7225C57.8037 156.74 54.5802 153.548 54.5802 149.597V137.083C54.5802 133.164 57.7721 129.972 61.6909 129.972H67.4743V156.74Z" fill="white"/>
<path fill-rule="evenodd" clip-rule="evenodd" d="M85.0457 194C84.1924 194 83.4339 193.4 83.2759 192.515L77.7453 165.431H96.9601L101.922 189.892C102.017 190.366 101.922 190.903 101.606 191.314C101.321 191.725 100.879 191.977 100.373 192.041L85.2985 193.968C85.2037 193.968 85.1405 194 85.0457 194Z" fill="white"/>
<path fill-rule="evenodd" clip-rule="evenodd" d="M146.451 131.584C151.381 133.259 154.92 137.904 154.92 143.372C154.92 148.839 151.381 153.485 146.451 155.16V131.584Z" fill="white"/>
<path fill-rule="evenodd" clip-rule="evenodd" d="M176.158 144.952H162.537C161.557 144.952 160.735 144.13 160.735 143.15C160.735 142.139 161.557 141.317 162.537 141.317H176.158C177.169 141.317 177.991 142.139 177.991 143.15C177.991 144.13 177.169 144.952 176.158 144.952Z" fill="white"/>
<path fill-rule="evenodd" clip-rule="evenodd" d="M169.015 172.067C168.731 172.067 168.415 172.004 168.131 171.815L156.311 165.02C155.458 164.514 155.142 163.408 155.647 162.523C156.153 161.638 157.259 161.354 158.144 161.86L169.932 168.654C170.817 169.16 171.101 170.298 170.596 171.151C170.28 171.751 169.648 172.067 169.015 172.067Z" fill="white"/>
<path fill-rule="evenodd" clip-rule="evenodd" d="M157.006 124.726C156.374 124.726 155.774 124.41 155.426 123.809C154.92 122.956 155.205 121.818 156.09 121.313L167.878 114.518C168.763 114.012 169.869 114.297 170.374 115.182C170.88 116.066 170.564 117.173 169.711 117.678L157.923 124.473C157.638 124.631 157.322 124.726 157.006 124.726Z" fill="white"/>
<path fill-rule="evenodd" clip-rule="evenodd" d="M79.6415 110.315C64.946 110.315 53 98.3686 53 83.6731C53 68.9776 64.946 57 79.6415 57C94.3686 57 106.315 68.9776 106.315 83.6731C106.315 98.3686 94.3686 110.315 79.6415 110.315ZM72.6888 96.8201C72.91 96.8201 73.0997 96.7569 73.2893 96.6305L90.4498 84.4948C90.7027 84.3052 90.8607 83.9892 90.8607 83.6731C90.8607 83.3255 90.7027 83.0095 90.4498 82.8198L73.2893 70.7158C72.9732 70.4946 72.5624 70.463 72.2148 70.621C71.8987 70.8106 71.6775 71.1582 71.6775 71.5375V95.8088C71.6775 96.188 71.8987 96.5356 72.2148 96.6937C72.3728 96.7885 72.5308 96.8201 72.6888 96.8201ZM73.7001 73.4969L88.0796 83.6731L73.7001 93.8178V73.4969Z" fill="white"/>
<path fill-rule="evenodd" clip-rule="evenodd" d="M127.11 109.651C126.604 109.651 126.161 109.493 125.814 109.114C125.245 108.576 125.119 107.723 125.466 107.028L127.868 102.256C125.024 102.098 122.78 99.7276 122.78 96.8517V62.4042C122.78 59.4334 125.182 57 128.152 57H174.167C177.137 57 179.571 59.4334 179.571 62.4042V96.8517C179.571 99.8224 177.137 102.256 174.167 102.256H142.722L127.9 109.493C127.647 109.619 127.362 109.651 127.11 109.651ZM168.826 90.9419C169.395 90.9419 169.869 90.4994 169.869 89.9306C169.869 89.3617 169.395 88.9193 168.826 88.9193H133.493C132.925 88.9193 132.482 89.3617 132.482 89.9306C132.482 90.4994 132.925 90.9419 133.493 90.9419H168.826ZM168.826 80.6392C169.395 80.6392 169.869 80.1968 169.869 79.6279C169.869 79.0591 169.395 78.6166 168.826 78.6166H133.493C132.925 78.6166 132.482 79.0591 132.482 79.6279C132.482 80.1968 132.925 80.6392 133.493 80.6392H168.826ZM168.826 70.3366C169.395 70.3366 169.869 69.8941 169.869 69.3253C169.869 68.7564 169.395 68.314 168.826 68.314H133.493C132.925 68.314 132.482 68.7564 132.482 69.3253C132.482 69.8941 132.925 70.3366 133.493 70.3366H168.826Z" fill="white"/>
</svg>
