<svg width="285" height="267" viewBox="0 0 285 267" fill="none" xmlns="http://www.w3.org/2000/svg">
<path d="M29.401 265.676H1" stroke="#263238" stroke-miterlimit="10" stroke-linecap="round" stroke-linejoin="round"/>
<path d="M283.614 265.676H34.4634" stroke="#263238" stroke-miterlimit="10" stroke-linecap="round" stroke-linejoin="round"/>
<path d="M86.1546 200.15C86.1546 200.15 85.0699 203.134 82.7641 203.541C80.4588 203.948 76.39 199.472 78.9665 197.167C81.5435 194.861 85.0699 198.523 86.1546 200.15Z" fill="#8EC7FF" stroke="#263238" stroke-miterlimit="10" stroke-linecap="round" stroke-linejoin="round"/>
<path d="M89.6806 185.504C89.6806 185.504 86.29 193.776 87.6465 197.845C89.0023 201.914 97.411 204.897 99.8522 199.608C102.293 194.319 96.8687 186.86 94.834 185.232C92.7999 183.605 90.3588 184.147 89.6806 185.504Z" fill="#8EC7FF" stroke="#263238" stroke-miterlimit="10" stroke-linecap="round" stroke-linejoin="round"/>
<path d="M109.481 189.029C109.481 189.029 103.649 194.319 102.971 199.607C102.293 204.897 106.226 206.796 110.294 206.117C114.363 205.439 116.397 195.132 115.177 190.385C113.957 185.639 109.481 189.029 109.481 189.029Z" fill="#8EC7FF" stroke="#263238" stroke-miterlimit="10" stroke-linecap="round" stroke-linejoin="round"/>
<path d="M110.566 218.323C110.566 218.323 104.056 218.594 103.785 221.714C103.514 224.833 106.633 225.511 109.752 222.798C112.872 220.087 113.279 218.459 110.566 218.323Z" fill="#8EC7FF" stroke="#263238" stroke-miterlimit="10" stroke-linecap="round" stroke-linejoin="round"/>
<path d="M103.893 222.457C103.893 222.457 109.023 220.11 111.333 219.702" stroke="#263238" stroke-miterlimit="10"/>
<path d="M112.017 238.734C112.017 238.734 107.235 234.308 104.831 236.315C102.428 238.322 104.146 241.012 108.268 241.312C112.392 241.612 113.833 240.753 112.017 238.734Z" fill="#8EC7FF" stroke="#263238" stroke-miterlimit="10" stroke-linecap="round" stroke-linejoin="round"/>
<path d="M104.381 236.915C104.381 236.915 109.662 238.899 111.58 240.25" stroke="#263238" stroke-miterlimit="10"/>
<path d="M86.7944 237.431C86.7944 237.431 93.3859 231.33 96.6991 234.096C100.012 236.862 97.6437 240.571 91.9606 240.984C86.2775 241.398 84.2911 240.214 86.7944 237.431Z" fill="#8EC7FF" stroke="#263238" stroke-miterlimit="10" stroke-linecap="round" stroke-linejoin="round"/>
<path d="M97.3211 234.924C97.3211 234.924 90.0405 237.658 87.3965 239.521" stroke="#263238" stroke-miterlimit="10"/>
<path d="M94.4274 224.833C94.4274 224.833 93.7491 228.088 91.308 229.308C88.8669 230.529 84.5269 227.952 86.8328 224.019C89.138 220.087 93.2068 223.205 94.4274 224.833Z" fill="#8EC7FF" stroke="#263238" stroke-miterlimit="10" stroke-linecap="round" stroke-linejoin="round"/>
<path d="M88.7312 214.662C88.7312 214.662 87.5106 211.95 82.7636 213.713C78.0173 215.475 76.1185 218.188 79.1019 219.137C82.086 220.087 88.7312 214.662 88.7312 214.662Z" fill="#8EC7FF" stroke="#263238" stroke-miterlimit="10" stroke-linecap="round" stroke-linejoin="round"/>
<path d="M87.8226 214.538C87.8226 214.538 82.7942 215.082 80.0765 217.392" stroke="#263238" stroke-miterlimit="10"/>
<path d="M102.294 182.113C102.294 182.113 103.107 184.012 104.735 183.605C106.363 183.198 106.769 180.757 109.346 181.435C111.923 182.113 114.092 185.097 114.092 183.741C114.092 182.384 110.838 178.858 107.176 178.858C103.514 178.858 102.429 180.35 102.294 182.113Z" fill="#8EC7FF" stroke="#263238" stroke-miterlimit="10" stroke-linecap="round" stroke-linejoin="round"/>
<path d="M88.731 214.662C88.731 214.662 94.5705 213.541 97.0026 220.025C97.2412 220.661 97.4429 221.327 97.612 222.01" stroke="#263238" stroke-miterlimit="10"/>
<path d="M113.102 208.379C113.102 208.379 114.323 205.667 119.07 207.43C123.816 209.193 125.715 211.905 122.731 212.854C119.747 213.804 113.102 208.379 113.102 208.379Z" fill="#8EC7FF" stroke="#263238" stroke-miterlimit="10" stroke-linecap="round" stroke-linejoin="round"/>
<path d="M114.187 208.558C114.187 208.558 119.08 208.287 121.39 211.141" stroke="#263238" stroke-miterlimit="10"/>
<path d="M113.103 208.379C113.103 208.379 111.168 208.008 109.061 208.93" stroke="#263238" stroke-miterlimit="10"/>
<path d="M91.8444 203.514C88.9824 200.592 86.1547 200.15 86.1547 200.15C86.1547 200.15 81.979 199.045 80.3478 200.54" stroke="#263238" stroke-miterlimit="10"/>
<path d="M92.425 188.491L92.1714 187.358" stroke="#263238" stroke-miterlimit="10"/>
<path d="M99.0299 248.447C99.0299 248.447 99.6381 225.091 99.0299 217.999C98.4217 210.906 95.585 202.598 95.585 202.598L92.6951 189.692" stroke="#263238" stroke-miterlimit="10"/>
<path d="M111.082 193.505L111.605 192.386" stroke="#263238" stroke-miterlimit="10"/>
<path d="M100.448 248.421C100.448 248.421 100.651 227.118 101.462 221.038C102.272 214.959 105.515 205.434 105.515 205.434L110.491 194.775" stroke="#263238" stroke-miterlimit="10"/>
<path d="M103.893 222.457C103.893 222.457 102.474 234.671 101.663 248.451" stroke="#263238" stroke-miterlimit="10"/>
<path d="M97.0032 248.421C97.0032 248.421 97.4084 228.941 96.5979 226.307C95.7874 223.673 94.428 224.833 94.428 224.833C94.428 224.833 90.6769 225.274 89.318 227.449" stroke="#263238" stroke-miterlimit="10"/>
<path d="M97.9336 223.527C98.9941 229.468 98.0157 248.442 98.0157 248.442" stroke="#263238" stroke-miterlimit="10"/>
<path d="M107.911 209.567C106.738 210.37 105.61 211.667 104.831 213.743C102.399 220.228 102.677 248.451 102.677 248.451" stroke="#263238" stroke-miterlimit="10"/>
<path d="M92.55 204.287C93.8171 205.775 95.0455 207.786 95.9895 210.501C99.2321 219.823 100.448 243.963 99.8396 248.421" stroke="#263238" stroke-miterlimit="10"/>
<path d="M100.785 213.011C100.588 224.776 100.448 248.421 100.448 248.421" stroke="#263238" stroke-miterlimit="10"/>
<path d="M100.81 211.547C100.943 203.768 101.101 196.154 101.259 192.059C101.664 181.522 102.293 182.112 102.293 182.112C102.293 182.112 103.043 179.746 107.256 180.019" stroke="#263238" stroke-miterlimit="10"/>
<path d="M95.6192 220.431C95.6192 220.431 92.2287 217.408 93.5851 215.921C94.9416 214.434 103.35 213.343 105.791 215.277C108.232 217.21 102.807 219.936 100.773 220.53C98.7386 221.125 96.2975 220.927 95.6192 220.431Z" fill="#8EC7FF" stroke="#263238" stroke-miterlimit="10" stroke-linecap="round" stroke-linejoin="round"/>
<path d="M98.751 217.956C98.7039 218.262 98.6755 218.566 98.6755 218.859" stroke="#263238" stroke-miterlimit="10"/>
<path d="M99.9162 214.426C99.9162 214.426 99.4119 215.435 99.0459 216.672" stroke="#263238" stroke-miterlimit="10"/>
<path d="M95.6192 240.2C95.6192 240.2 92.2287 237.177 93.5851 235.69C94.9416 234.203 103.35 233.112 105.791 235.046C108.232 236.979 102.807 239.705 100.773 240.299C98.7386 240.894 96.2975 240.695 95.6192 240.2Z" fill="#8EC7FF" stroke="#263238" stroke-miterlimit="10" stroke-linecap="round" stroke-linejoin="round"/>
<path d="M99.9166 234.195C99.9166 234.195 98.6755 236.677 98.6755 238.627" stroke="#263238" stroke-miterlimit="10"/>
<path d="M98.1427 231.839C98.1427 231.839 95.8405 229.786 96.7615 228.777C97.6825 227.767 103.391 227.027 105.049 228.339C106.706 229.652 103.023 231.503 101.642 231.906C100.261 232.31 98.6035 232.176 98.1427 231.839Z" fill="#8EC7FF" stroke="#263238" stroke-miterlimit="10" stroke-linecap="round" stroke-linejoin="round"/>
<path d="M101.061 227.762C101.061 227.762 100.218 229.447 100.218 230.771" stroke="#263238" stroke-miterlimit="10"/>
<path d="M104.137 245.058H94.9592V265.409H104.137V245.058Z" fill="#263238" stroke="#263238" stroke-miterlimit="10" stroke-linecap="round" stroke-linejoin="round"/>
<path d="M258.361 218.171C254.941 218.171 252.115 216.093 251.947 215.968C251.387 215.548 251.273 214.752 251.694 214.192C252.114 213.633 252.909 213.517 253.47 213.939C253.646 214.069 257.897 217.16 261.446 214.647C264.056 212.797 264.41 200.347 263.828 192.097C263.778 191.398 264.304 190.792 265.003 190.743C265.708 190.703 266.309 191.22 266.357 191.918C266.609 195.473 267.626 213.377 262.912 216.716C261.394 217.791 259.823 218.171 258.361 218.171Z" fill="#263238"/>
<path d="M242.709 217.942H238.487V248.996H242.709V217.942Z" fill="#263238" stroke="#263238" stroke-miterlimit="10" stroke-linecap="round" stroke-linejoin="round"/>
<path d="M257.137 214.952H224.059C222.783 214.952 221.749 213.918 221.749 212.643V208.156C221.749 206.881 222.783 205.847 224.059 205.847H257.137C258.412 205.847 259.446 206.881 259.446 208.156V212.643C259.446 213.918 258.412 214.952 257.137 214.952Z" fill="#8C8C8C" stroke="#263238" stroke-miterlimit="10" stroke-linecap="round" stroke-linejoin="round"/>
<path d="M262.771 163.619C262.437 164.366 262.173 165.146 261.946 165.932C260.353 171.436 260.234 177.391 260.173 183.087C260.15 185.351 259.558 189.017 260.438 191.118C261.533 193.736 266.47 194.937 267.832 191.986C269.549 188.265 268.511 183.324 269.337 179.316C270.254 174.87 272.782 169.37 271.679 164.872C270.627 160.582 267.174 157.135 263.816 161.779C263.401 162.353 263.059 162.973 262.771 163.619Z" fill="#8C8C8C" stroke="#263238" stroke-miterlimit="10" stroke-linecap="round" stroke-linejoin="round"/>
<path d="M248.362 215.043H232.833V219.265H248.362V215.043Z" fill="#263238" stroke="#263238" stroke-miterlimit="10" stroke-linecap="round" stroke-linejoin="round"/>
<path d="M222.355 263.689C222.355 264.787 221.465 265.676 220.368 265.676C219.27 265.676 218.381 264.787 218.381 263.689C218.381 262.592 219.27 261.702 220.368 261.702C221.465 261.702 222.355 262.592 222.355 263.689Z" fill="white" stroke="#263238" stroke-miterlimit="10" stroke-linecap="round" stroke-linejoin="round"/>
<path d="M263.175 263.689C263.175 264.787 262.285 265.676 261.188 265.676C260.091 265.676 259.201 264.787 259.201 263.689C259.201 262.592 260.091 261.702 261.188 261.702C262.285 261.702 263.175 262.592 263.175 263.689Z" fill="white" stroke="#263238" stroke-miterlimit="10" stroke-linecap="round" stroke-linejoin="round"/>
<path d="M242.524 263.689C242.524 264.787 241.635 265.676 240.537 265.676C239.44 265.676 238.55 264.787 238.55 263.689C238.55 262.592 239.44 261.702 240.537 261.702C241.635 261.702 242.524 262.592 242.524 263.689Z" fill="white" stroke="#263238" stroke-miterlimit="10" stroke-linecap="round" stroke-linejoin="round"/>
<path d="M241.935 248.996L240.597 249.047L239.259 248.996L217.417 261.341V263.148H220.371V261.582L240.597 254.47L260.823 261.582V263.148H263.777V261.341L241.935 248.996Z" fill="#263238" stroke="#263238" stroke-miterlimit="10" stroke-linecap="round" stroke-linejoin="round"/>
<path d="M238.665 248.939H242.53L241.95 263.148H239.244L238.665 248.939Z" fill="#263238" stroke="#263238" stroke-miterlimit="10" stroke-linecap="round" stroke-linejoin="round"/>
<path d="M218.282 120.231C218.282 120.231 217.741 124.47 219.364 126.815C220.988 129.16 221.439 130.513 221.439 131.595C221.439 132.677 220.717 134.481 221.439 135.022C222.16 135.564 224.325 135.022 224.325 135.022C224.325 135.022 228.203 138.991 229.556 138.63C230.909 138.269 232.261 137.187 232.261 137.187C232.261 137.187 236.32 141.335 236.861 142.508C237.402 143.681 237.763 144.583 237.763 144.583L243.805 135.023C243.805 135.023 239.837 132.137 237.943 127.086C236.049 122.035 236.049 115.362 230.277 113.918C224.505 112.474 218.914 117.796 218.282 120.231Z" fill="white" stroke="#263238" stroke-miterlimit="10" stroke-linecap="round" stroke-linejoin="round"/>
<path d="M225.793 134.39C225.793 134.39 227.506 133.578 227.506 131.955" stroke="#263238" stroke-miterlimit="10" stroke-linecap="round" stroke-linejoin="round"/>
<path d="M220.656 127.579C220.656 127.579 220.566 125.595 222.731 125.956" stroke="#263238" stroke-miterlimit="10" stroke-linecap="round" stroke-linejoin="round"/>
<path d="M223.625 128.976C223.962 129.499 224.016 130.066 223.744 130.242C223.472 130.417 222.978 130.136 222.64 129.613C222.303 129.09 222.249 128.523 222.521 128.348C222.792 128.172 223.287 128.453 223.625 128.976Z" fill="#263238"/>
<path d="M232.261 137.186L234.694 135.339V139.432L232.261 137.186Z" fill="#263238" stroke="#263238" stroke-miterlimit="10" stroke-linecap="round" stroke-linejoin="round"/>
<path d="M195.578 202.609L190.316 255.456C190.316 255.456 182.857 255.612 179.749 255.301C176.641 254.99 173.688 253.747 173.999 255.456C174.31 257.166 178.972 259.963 180.681 260.74C182.39 261.518 184.566 261.983 185.964 262.76C187.363 263.538 190.316 265.713 191.558 265.402C192.802 265.091 195.599 253.747 195.599 253.747L210.03 207.271L226.192 206.029C226.192 206.029 201.794 199.502 199.308 199.191C196.822 198.88 195.578 202.609 195.578 202.609Z" fill="white" stroke="#263238" stroke-miterlimit="10" stroke-linecap="round" stroke-linejoin="round"/>
<path d="M187.519 259.808C182.235 258.564 180.37 257.01 180.37 257.01L181.778 255.427C181.007 255.397 180.307 255.357 179.749 255.301C176.641 254.99 173.688 253.747 173.999 255.456C174.31 257.166 178.972 259.963 180.681 260.74C182.39 261.517 184.566 261.983 185.964 262.76C187.363 263.538 190.315 265.713 191.558 265.402C192.075 265.273 192.858 263.242 193.598 260.911C192.28 260.761 190.257 260.452 187.519 259.808Z" fill="#8EC7FF" stroke="#263238" stroke-miterlimit="10" stroke-linecap="round" stroke-linejoin="round"/>
<path d="M234.149 178.854L232.098 186.914C232.098 186.914 222.774 187.225 212.207 189.4C201.64 191.576 191.849 194.528 191.539 196.393C191.228 198.258 203.349 220.48 212.828 237.574C214.878 241.271 219.355 250.628 219.355 250.628C219.355 250.628 217.646 255.29 215.936 257.932C214.227 260.574 211.585 263.06 210.963 263.371C210.342 263.682 208.477 264.459 209.098 265.236C209.72 266.013 216.091 265.236 216.557 265.236C217.024 265.236 221.997 260.885 223.395 259.642C224.794 258.398 230.233 254.358 230.077 252.804C229.922 251.25 225.104 247.831 224.794 246.743C224.483 245.656 218.267 232.136 217.956 230.892C217.645 229.649 209.409 205.251 209.409 205.251C209.409 205.251 243.131 207.116 250.435 206.495C257.738 205.873 258.827 203.076 259.293 200.589C259.759 198.103 256.496 177.901 256.496 177.901L234.74 177.746L234.149 178.854Z" fill="white" stroke="#263238" stroke-miterlimit="10" stroke-linecap="round" stroke-linejoin="round"/>
<path d="M209.409 205.251L201.951 202.143" stroke="#263238" stroke-miterlimit="10" stroke-linecap="round" stroke-linejoin="round"/>
<path d="M230.078 252.803C230.002 252.041 228.802 250.828 227.563 249.663C227.064 250.298 226.491 251.006 225.882 251.716C224.017 253.891 216.092 261.661 216.092 261.661L213.559 260.97C212.396 262.248 211.329 263.187 210.964 263.37C210.343 263.681 208.478 264.458 209.099 265.235C209.72 266.013 216.092 265.235 216.558 265.235C217.025 265.235 221.997 260.884 223.396 259.641C224.794 258.398 230.233 254.357 230.078 252.803Z" fill="#8EC7FF" stroke="#263238" stroke-miterlimit="10" stroke-linecap="round" stroke-linejoin="round"/>
<path d="M234.739 177.745L234.148 178.855L232.097 186.914C232.097 186.914 222.773 187.225 212.205 189.401C209.037 190.053 205.94 190.775 203.146 191.518L210.362 205.304C215.886 205.6 243.859 207.055 250.434 206.495C257.737 205.874 258.826 203.076 259.292 200.59C259.758 198.104 256.494 177.902 256.494 177.902L234.739 177.745Z" fill="#8EC7FF" stroke="#263238" stroke-miterlimit="10" stroke-linecap="round" stroke-linejoin="round"/>
<path d="M233.961 187.691C233.961 187.691 244.994 189.245 249.967 193.441" stroke="#263238" stroke-miterlimit="10" stroke-linecap="round" stroke-linejoin="round"/>
<path d="M237.846 187.069C237.846 187.069 244.839 188.001 247.015 189.555" stroke="#263238" stroke-miterlimit="10" stroke-linecap="round" stroke-linejoin="round"/>
<path d="M206.057 164.058C206.057 164.058 203.629 163.847 202.468 164.586C201.306 165.325 195.711 169.125 194.234 170.392C192.756 171.659 191.383 173.876 191.278 174.193C191.172 174.509 191.911 174.615 192.228 174.509C192.544 174.404 193.917 173.348 193.495 173.876C193.073 174.404 193.816 174.532 193.816 174.532C193.816 174.532 201.624 169.97 202.257 170.075C202.891 170.181 204.157 169.759 205.002 169.125C205.846 168.492 208.063 167.33 208.063 167.33L232.978 172.187L236.778 168.703L235.934 160.258L230.339 164.902L206.057 164.058Z" fill="white" stroke="#263238" stroke-miterlimit="10" stroke-linecap="round" stroke-linejoin="round"/>
<path d="M240.969 136.567C240.969 136.567 236.331 145.98 234.012 153.21C231.693 160.439 232.921 162.076 233.466 162.485C234.012 162.895 235.24 163.85 235.24 163.85C235.24 163.85 233.193 177.763 234.148 178.855C235.103 179.946 243.015 180.356 249.426 180.356C255.838 180.356 257.338 177.763 257.338 176.4C257.338 175.035 254.473 153.074 252.291 145.98C250.109 138.886 244.243 134.248 240.969 136.567Z" fill="white" stroke="#263238" stroke-miterlimit="10" stroke-linecap="round" stroke-linejoin="round"/>
<path d="M237.887 135.861C237.887 135.861 232.689 140.902 233.161 142.477C233.634 144.052 235.681 143.894 235.681 143.894C235.681 143.894 235.366 146.415 236.469 146.099C237.572 145.784 242.612 139.326 242.612 139.326C242.612 139.326 240.093 133.026 237.887 135.861Z" fill="white" stroke="#263238" stroke-miterlimit="10" stroke-linecap="round" stroke-linejoin="round"/>
<path d="M240.7 147.353L237.786 167.849C237.786 167.849 207.639 166.212 207.093 166.212C206.548 166.212 200.546 168.94 198.091 170.304C195.635 171.668 193.998 172.623 193.589 173.578C193.18 174.533 193.18 174.533 193.18 174.533C193.18 174.533 195.09 174.942 196.863 174.533C198.636 174.124 200 173.442 200 173.442C200 173.442 203.547 173.032 204.774 172.214C206.002 171.395 208.73 169.076 208.73 169.076C208.73 169.076 232.466 175.488 234.921 175.897C237.376 176.306 243.242 178.761 244.606 177.397C245.741 176.262 249.146 156.407 250.254 149.788C250.527 148.158 250.123 146.482 249.098 145.186C248.276 144.147 247.151 143.197 245.833 143.022C241.823 142.49 240.7 147.353 240.7 147.353Z" fill="white" stroke="#263238" stroke-miterlimit="10" stroke-linecap="round" stroke-linejoin="round"/>
<path d="M249.098 145.186C248.276 144.147 247.152 143.197 245.834 143.022C241.823 142.491 240.7 147.354 240.7 147.354L237.785 167.849C237.785 167.849 234.862 167.69 230.819 167.472C231.255 169.836 231.864 173.263 232.107 175.244C233.5 175.591 234.51 175.828 234.92 175.897C237.376 176.307 243.241 178.762 244.605 177.397C245.741 176.262 249.146 156.407 250.254 149.788C250.528 148.158 250.123 146.482 249.098 145.186Z" stroke="#263238" stroke-miterlimit="10" stroke-linecap="round" stroke-linejoin="round"/>
<path d="M238.831 169.256C238.831 169.256 243.241 175.557 242.769 173.982C242.297 172.407 241.509 168.626 240.249 167.367" stroke="#263238" stroke-miterlimit="10" stroke-linecap="round" stroke-linejoin="round"/>
<path d="M196.864 174.532C196.864 174.532 196.816 173.668 197.398 173.335C197.98 173.002 200.891 171.671 201.141 171.588" stroke="#263238" stroke-miterlimit="10" stroke-linecap="round" stroke-linejoin="round"/>
<path d="M195.235 174.749C195.235 174.749 195.651 173.418 195.984 173.169C196.317 172.919 199.81 170.923 199.81 170.923" stroke="#263238" stroke-miterlimit="10" stroke-linecap="round" stroke-linejoin="round"/>
<path d="M270.966 135.547C270.808 128.931 262.145 130.821 260.412 127.986C258.68 125.15 261.672 125.15 259.782 120.582C257.892 116.014 249.858 119.637 245.921 119.007C243.81 118.669 242.018 116.478 240.808 114.516C240.157 112.571 239.625 111.082 237.177 108.633C233.712 105.168 224.011 109.673 224.011 109.673C224.011 109.673 213.617 115.389 213.79 118.681C213.964 121.972 227.996 124.051 229.208 124.051C230.421 124.051 230.594 120.933 232.153 121.799C233.623 122.616 234.008 124.498 233.903 125.438C233.67 126.362 233.478 127.107 233.366 127.515C232.846 129.421 234.894 130.348 234.579 136.492C234.264 142.635 243.558 141.532 245.763 141.848C247.968 142.163 250.257 149.788 251.906 152.559C253.555 155.331 258.68 155.237 261.2 152.717C263.721 150.196 261.516 147.833 261.673 145.786C261.83 143.738 271.123 142.162 270.966 135.547Z" fill="#263238" stroke="#263238" stroke-miterlimit="10" stroke-linecap="round" stroke-linejoin="round"/>
<path d="M144.195 266H140.564L139.786 181.517H144.973L144.195 266Z" fill="white" stroke="#263238" stroke-miterlimit="10" stroke-linecap="round" stroke-linejoin="round"/>
<path d="M210.72 266H207.09L206.312 181.517H211.498L210.72 266Z" fill="white" stroke="#263238" stroke-miterlimit="10" stroke-linecap="round" stroke-linejoin="round"/>
<path d="M217.253 176.385H134.651V181.955H217.253V176.385Z" fill="#263238" stroke="#263238" stroke-miterlimit="10" stroke-linecap="round" stroke-linejoin="round"/>
<path d="M169.758 176.43H157.345C156.569 176.43 155.871 176.031 155.476 175.363C155.081 174.695 155.07 173.89 155.444 173.21L169.08 148.496C169.286 148.122 169.758 147.987 170.132 148.192C170.507 148.399 170.643 148.871 170.436 149.245L156.801 173.959C156.647 174.239 156.756 174.483 156.811 174.575C156.865 174.668 157.026 174.881 157.346 174.881H169.759C170.186 174.881 170.534 175.227 170.534 175.656C170.533 176.083 170.186 176.43 169.758 176.43Z" fill="#263238"/>
<path d="M168.152 125.948L165.431 126.474L174.14 171.451L176.86 170.924L168.152 125.948Z" fill="white" stroke="#263238" stroke-miterlimit="10" stroke-linecap="round" stroke-linejoin="round"/>
<path d="M208.322 175.403L186.033 174.768V176.252H208.322V175.403Z" fill="white" stroke="#263238" stroke-miterlimit="10" stroke-linecap="round" stroke-linejoin="round"/>
<path d="M209.969 77.0415C229.232 77.0415 244.847 61.426 244.847 42.1632C244.847 22.9005 229.232 7.28497 209.969 7.28497C190.706 7.28497 175.091 22.9005 175.091 42.1632C175.091 61.426 190.706 77.0415 209.969 77.0415Z" stroke="#263238" stroke-miterlimit="10" stroke-linecap="round" stroke-linejoin="round"/>
<path d="M186.555 67.9993C186.802 58.1327 186.99 48.3325 186.879 47.7787C186.654 46.6523 184.063 46.6523 184.063 46.6523C184.063 46.6523 182.035 51.9471 181.585 57.0166C181.487 58.1152 181.278 59.7337 181.011 61.5939C182.594 63.9499 184.459 66.0987 186.555 67.9993Z" fill="white" stroke="#263238" stroke-miterlimit="10" stroke-linecap="round" stroke-linejoin="round"/>
<path d="M209.969 77.0415C217.473 77.0415 224.42 74.6668 230.109 70.6343L230.149 49.6582C230.149 49.6582 222.781 45.9071 215.948 44.8351C209.116 43.7631 188.752 46.8444 188.752 46.8444L188.073 69.3038C194.059 74.1402 201.673 77.0415 209.969 77.0415Z" fill="#8EC7FF" stroke="#263238" stroke-miterlimit="10" stroke-linecap="round" stroke-linejoin="round"/>
<path d="M203.212 33.246C203.212 33.246 201.635 49.4685 202.086 50.4826C202.537 51.4966 204.452 54.2004 208.395 54.2004C212.338 54.2004 216.619 50.032 216.619 50.032L217.97 33.6966C217.97 33.6966 212.788 36.1752 209.183 35.3864C205.579 34.5977 203.212 33.246 203.212 33.246Z" fill="white" stroke="#263238" stroke-miterlimit="10" stroke-linecap="round" stroke-linejoin="round"/>
<path d="M208.587 39.6194L217.407 45.2192L218.107 32.6191L208.587 39.6194Z" fill="#263238"/>
<path d="M199.532 19.6144C199.532 19.6144 198.406 17.0235 197.279 19.051C196.152 21.079 199.87 26.2608 199.87 26.2608L199.532 19.6144Z" fill="white" stroke="#263238" stroke-miterlimit="10" stroke-linecap="round" stroke-linejoin="round"/>
<path d="M221.162 19.6144C221.162 19.6144 222.289 17.0235 223.416 19.051C224.542 21.079 220.246 26.5942 220.246 26.5942L221.162 19.6144Z" fill="white" stroke="#263238" stroke-miterlimit="10" stroke-linecap="round" stroke-linejoin="round"/>
<path d="M199.87 21.079C199.87 21.079 198.744 17.0236 198.744 15.8966C198.744 14.7703 200.772 14.7703 200.772 14.7703L199.87 21.079Z" fill="#263238"/>
<path d="M200.023 15.1996C200.023 15.1996 199.628 29.1537 200.681 31.3913C201.734 33.6289 205.42 38.763 206.342 39.4213C207.264 40.0796 210.423 40.343 211.344 40.2113C212.266 40.0796 219.323 33.0407 219.586 32.1191C219.849 31.1975 220.954 18.3588 220.954 18.3588L220.823 7.69625C220.823 7.69625 218.19 6.24799 214.24 6.51131C210.291 6.77463 200.55 10.9871 200.55 10.9871L200.023 15.1996Z" fill="white" stroke="#263238" stroke-miterlimit="10" stroke-linecap="round" stroke-linejoin="round"/>
<path d="M217.794 9.8022C217.794 9.8022 214.503 14.1464 213.055 14.8047C211.607 15.4629 211.87 12.6987 211.87 12.6987C211.87 12.6987 208.448 15.3313 203.577 16.3846C198.706 17.4378 194.757 17.7012 193.44 15.8579C192.124 14.0147 196.336 11.3821 196.336 11.3821C196.336 11.3821 193.045 9.40722 196.336 5.85302C199.627 2.29881 208.052 -1.65037 214.108 0.718901C220.164 3.08877 218.979 5.32638 218.979 5.32638C218.979 5.32638 223.586 4.66808 223.981 8.35394C224.376 12.0398 221.612 16.2523 221.612 16.2523C221.612 16.2523 221.48 19.4115 221.48 20.2015C221.48 20.9914 220.559 20.8598 220.559 20.8598L220.164 16.9106C220.164 16.9106 218.715 17.0423 217.926 14.278C217.136 11.5138 217.794 9.8022 217.794 9.8022Z" fill="#263238"/>
<path d="M206.856 28.4018C206.856 28.4018 208.207 29.5281 209.447 29.5281C210.686 29.5281 211.925 28.5141 211.925 28.5141" stroke="#263238" stroke-miterlimit="10" stroke-linecap="round" stroke-linejoin="round"/>
<path d="M205.503 31.3309C205.503 31.3309 207.981 32.6832 210.122 32.4573C212.262 32.232 213.614 30.4293 213.614 30.4293" stroke="#263238" stroke-miterlimit="10" stroke-linecap="round" stroke-linejoin="round"/>
<path d="M211.924 18.4881C211.924 18.4881 216.205 17.2488 217.557 19.6144" stroke="#263238" stroke-miterlimit="10" stroke-linecap="round" stroke-linejoin="round"/>
<path d="M207.306 18.8257C207.306 18.8257 204.376 16.7977 202.123 18.9386" stroke="#263238" stroke-miterlimit="10" stroke-linecap="round" stroke-linejoin="round"/>
<path d="M206.066 21.7325C206.066 22.6535 205.652 23.4 205.141 23.4C204.631 23.4 204.217 22.6535 204.217 21.7325C204.217 20.8115 204.631 20.0656 205.141 20.0656C205.652 20.065 206.066 20.8115 206.066 21.7325Z" fill="#263238"/>
<path d="M213.866 24.0921C214.376 24.0921 214.79 23.3458 214.79 22.4252C214.79 21.5046 214.376 20.7583 213.866 20.7583C213.355 20.7583 212.941 21.5046 212.941 22.4252C212.941 23.3458 213.355 24.0921 213.866 24.0921Z" fill="#263238"/>
<path d="M240.269 59.436C237.937 53.8979 236.043 49.628 235.658 49.2433C234.532 48.1169 220.562 41.0194 220.562 41.0194C220.562 41.0194 218.985 38.2032 217.407 39.6678C217.407 39.6678 212.676 54.8769 211.099 68.2832C210.818 70.6657 210.602 73.6824 210.436 77.0313C223.217 76.8622 234.335 69.8244 240.269 59.436Z" fill="white" stroke="#263238" stroke-miterlimit="10" stroke-linecap="round" stroke-linejoin="round"/>
<path d="M220.562 41.0194C220.562 41.0194 220.9 44.6243 220.9 49.2433C220.9 53.8622 220.224 58.4812 220.224 58.4812C220.224 58.4812 217.746 57.8054 215.267 58.5941C212.788 59.3829 212.226 60.284 212.226 60.284C212.226 60.284 215.718 41.9205 217.408 39.6678C219.097 37.4145 219.661 39.1043 220.562 41.0194Z" fill="white" stroke="#263238" stroke-miterlimit="10" stroke-linecap="round" stroke-linejoin="round"/>
<path d="M227.38 70.9701C227.062 70.034 226.901 69.1849 226.983 68.5078C227.434 64.79 228.11 60.7345 228.11 60.7345" stroke="#263238" stroke-miterlimit="10" stroke-linecap="round" stroke-linejoin="round"/>
<path d="M199.174 75.3354C199.281 71.3114 199.454 68.0114 199.721 66.1422C200.96 57.4678 202.312 39.6678 202.312 39.6678C200.96 39.3296 198.481 41.6958 198.481 41.6958C198.481 41.6958 185.187 45.526 184.061 46.653C183.533 47.1814 183.451 55.8341 183.512 64.8764C187.631 69.6698 193.025 73.3358 199.174 75.3354Z" fill="white" stroke="#263238" stroke-miterlimit="10" stroke-linecap="round" stroke-linejoin="round"/>
<path d="M198.481 41.6952C198.481 41.6952 197.017 46.8776 195.665 51.2713C194.313 55.665 193.975 58.0306 193.975 58.0306C193.975 58.0306 195.327 56.1155 197.355 57.5801C199.383 59.0446 200.622 60.2839 200.622 60.2839L202.531 39.6792C202.531 39.6792 199.833 39.3295 198.481 41.6952Z" fill="white" stroke="#263238" stroke-miterlimit="10" stroke-linecap="round" stroke-linejoin="round"/>
<path d="M44.9294 93.139C57.9673 93.139 69.328 85.9811 75.3119 75.3837L73.2041 72.8816C71.9334 70.6585 70.6549 69.5762 69.5587 69.2773C67.454 68.7029 52.4346 66.4738 52.4346 66.4738L36.8408 67.2975C36.8408 67.2975 29.1755 69.1522 23.1778 71.7214L16.4752 78.424C22.7943 87.3261 33.1803 93.139 44.9294 93.139Z" fill="#8EC7FF" stroke="#263238" stroke-miterlimit="10" stroke-linecap="round" stroke-linejoin="round"/>
<path d="M48.3041 77.4528C47.5963 77.8641 46.8492 78.2446 46.0653 78.5786" stroke="#263238" stroke-miterlimit="10" stroke-linecap="round" stroke-linejoin="round"/>
<path d="M56.2809 70.2206C56.2809 70.2206 53.6676 73.9874 49.3162 76.829" stroke="#263238" stroke-miterlimit="10" stroke-linecap="round" stroke-linejoin="round"/>
<path d="M55.0045 74.0515C55.0045 74.0515 53.0308 76.8374 51.2897 77.7663" stroke="#263238" stroke-miterlimit="10" stroke-linecap="round" stroke-linejoin="round"/>
<path d="M36.7075 27.2078C36.7075 27.2078 29.9482 25.6551 28.669 27.3902C27.3905 29.126 29.9482 30.7699 29.5828 31.1353C29.2174 31.5007 21.3619 35.5199 22.0009 39.4479C22.6405 43.376 27.9383 47.3952 28.1212 48.4914C28.3036 49.5875 22.0009 49.9529 21.1789 51.5974C20.357 53.2414 19.1696 61.0063 26.0201 63.564C32.8713 66.1217 41.4575 61.8282 43.8328 61.8282C46.2075 61.8282 48.5828 66.487 51.3229 66.2129C54.063 65.9387 55.6163 63.9293 55.6163 63.9293C55.6163 63.9293 58.4482 67.8574 62.5587 66.2129C66.6691 64.5689 71.4191 58.814 69.4098 57.0782C67.4005 55.3425 65.1163 54.7947 66.5779 53.2414C68.0394 51.6886 71.0537 47.5776 70.5971 44.0155C70.1405 40.4529 65.9383 40.1793 64.2944 39.0832C62.6498 37.987 66.1213 36.1601 66.0301 33.1458C65.9389 30.1315 63.7466 25.1073 52.6021 21.7277C41.4581 18.348 35.9773 19.9919 35.4289 22.8238C34.8806 25.6551 36.7075 27.2078 36.7075 27.2078Z" fill="#263238" stroke="#263238" stroke-miterlimit="10" stroke-linecap="round" stroke-linejoin="round"/>
<path d="M37.9228 56.5153C37.9228 56.5153 35.6393 70.7653 35.5481 71.2219C35.4569 71.6785 39.5673 75.7889 45.1393 75.0582C50.7112 74.3274 53.5431 70.5823 53.5431 70.5823L51.8074 56.4235C51.8074 56.4235 47.0574 58.707 44.1343 58.6158C41.2112 58.5252 37.9228 56.5153 37.9228 56.5153Z" fill="white" stroke="#263238" stroke-miterlimit="10" stroke-linecap="round" stroke-linejoin="round"/>
<path d="M36.9857 64.1606L46.6028 62.2993L37.923 56.5153L36.9857 64.1606Z" fill="#263238" stroke="#263238" stroke-miterlimit="10" stroke-linecap="round" stroke-linejoin="round"/>
<path d="M32.8459 43.9515C32.8459 43.9515 31.237 41.9132 30.4857 44.4878C29.735 47.0624 32.9528 50.1733 32.9528 50.1733L32.8459 43.9515Z" fill="white" stroke="#263238" stroke-miterlimit="10" stroke-linecap="round" stroke-linejoin="round"/>
<path d="M55.9036 43.9515C55.9036 43.9515 57.5125 41.9132 58.2638 44.4878C59.0151 47.0624 55.7967 50.1733 55.7967 50.1733L55.9036 43.9515Z" fill="white" stroke="#263238" stroke-miterlimit="10" stroke-linecap="round" stroke-linejoin="round"/>
<path d="M37.9032 31.07C37.9032 31.07 33.297 35.5428 32.629 36.8781C31.961 38.2135 32.2286 53.5017 32.963 54.9704C33.6974 56.4392 41.0413 62.1803 42.2425 62.6478C43.4444 63.1152 46.1815 63.5827 48.3176 62.5143C50.4538 61.4459 55.5945 55.9718 56.1284 54.57C56.6623 53.1683 55.9949 37.1457 55.6609 35.6099C55.327 34.074 47.2492 28.5999 43.8442 28.333C40.4398 28.0654 37.9032 31.07 37.9032 31.07Z" fill="white" stroke="#263238" stroke-miterlimit="10" stroke-linecap="round" stroke-linejoin="round"/>
<path d="M40.3183 52.9249C40.3183 52.9249 41.6977 54.419 44.2258 54.419C46.7539 54.419 48.823 52.58 48.823 52.58" stroke="#263238" stroke-miterlimit="10" stroke-linecap="round" stroke-linejoin="round"/>
<path d="M40.3014 36.9892C40.3014 36.9892 38.0795 37.078 36.4797 38.5003C34.8798 39.9226 36.5685 40.1889 37.1905 39.9226C37.8126 39.6562 39.59 38.5897 40.8347 38.5897C42.0788 38.5897 41.9013 36.9004 40.3014 36.9892Z" fill="#263238" stroke="#263238" stroke-miterlimit="10" stroke-linecap="round" stroke-linejoin="round"/>
<path d="M47.381 36.1009C47.381 36.1009 49.6029 36.1896 51.2028 37.6119C52.8026 39.0342 51.114 39.3005 50.4919 39.0342C49.8699 38.7673 48.0925 37.7007 46.8478 37.7007C45.603 37.7007 45.7812 36.0121 47.381 36.1009Z" fill="#263238" stroke="#263238" stroke-miterlimit="10" stroke-linecap="round" stroke-linejoin="round"/>
<path d="M41.525 28.3348C41.525 28.3348 48.4256 34.6296 53.3888 34.8718C58.352 35.114 58.352 35.114 58.352 35.114C58.352 35.114 47.4563 33.6615 44.067 26.2765C44.067 26.2765 40.3141 23.1288 41.525 28.3348Z" fill="#263238" stroke="#263238" stroke-miterlimit="10" stroke-linecap="round" stroke-linejoin="round"/>
<path d="M46.4475 48.9618C46.4475 48.9618 45.2457 50.7646 44.3778 50.7646C43.51 50.7646 42.6421 49.7632 42.6421 49.7632" stroke="#263238" stroke-miterlimit="10" stroke-linecap="round" stroke-linejoin="round"/>
<path d="M42.298 44.1405C42.298 45.3043 41.7085 46.2471 40.9814 46.2471C40.2542 46.2471 39.6648 45.3037 39.6648 44.1405C39.6648 42.9767 40.2542 42.0334 40.9814 42.0334C41.7085 42.0334 42.298 42.9767 42.298 44.1405Z" fill="#263238"/>
<path d="M49.7091 46.3365C50.4362 46.3365 51.0257 45.3931 51.0257 44.2293C51.0257 43.0656 50.4362 42.1222 49.7091 42.1222C48.982 42.1222 48.3925 43.0656 48.3925 44.2293C48.3925 45.3931 48.982 46.3365 49.7091 46.3365Z" fill="#263238"/>
<path d="M44.9293 93.139C64.192 93.139 79.8076 77.5235 79.8076 58.2607C79.8076 38.998 64.192 23.3824 44.9293 23.3824C25.6666 23.3824 10.051 38.998 10.051 58.2607C10.051 77.5235 25.6666 93.139 44.9293 93.139Z" stroke="#263238" stroke-miterlimit="10" stroke-linecap="round" stroke-linejoin="round"/>
<path d="M75.1165 182.256C74.4968 178.492 71.5085 173.828 71.5085 173.828C71.5085 173.828 70.1919 175.484 70.0301 176.273C69.8682 177.063 66.0785 185.573 64.9304 192.326C64.7927 193.137 64.7057 193.892 64.6556 194.598C69.0354 191.37 72.6373 187.147 75.1165 182.256Z" fill="#8EC7FF" stroke="#263238" stroke-miterlimit="10" stroke-linecap="round" stroke-linejoin="round"/>
<path d="M43.9914 201.385C53.28 201.385 61.7135 197.748 67.9637 191.828C68.8038 188.002 69.6445 184.24 69.7393 184.07C69.935 183.722 72.9094 176.164 71.5082 173.828C70.1071 171.491 56.7056 164.745 56.7056 164.745L51.406 162.264C51.406 162.264 34.6647 162.659 34.0107 162.821C33.3566 162.982 24.0215 167.252 18.1004 171.15C12.212 175.026 12.2965 175.149 11.2444 178.509C16.1376 191.856 28.9472 201.385 43.9914 201.385Z" fill="#8EC7FF" stroke="#263238" stroke-miterlimit="10" stroke-linecap="round" stroke-linejoin="round"/>
<path d="M43.9912 201.385C63.2539 201.385 78.8695 185.77 78.8695 166.507C78.8695 147.244 63.2539 131.629 43.9912 131.629C24.7285 131.629 9.11292 147.244 9.11292 166.507C9.11292 185.77 24.7285 201.385 43.9912 201.385Z" stroke="#263238" stroke-miterlimit="10" stroke-linecap="round" stroke-linejoin="round"/>
<path d="M37.2427 157.577C35.176 157.668 33.3231 158.874 32.3803 160.715L29.1746 164.707C29.1746 164.707 29.0139 164.57 31.7238 168.567C34.4337 172.565 40.6012 176.598 40.6012 176.598C40.6012 176.598 41.2371 170.354 42.4776 170.859C43.7181 171.365 47.6897 183.02 47.6897 183.02C47.6897 183.02 48.63 169.5 50.7782 170.087C52.9264 170.673 55.2818 176.072 55.2818 176.072C55.2818 176.072 58.6717 169.354 58.351 165.172C58.0304 160.991 52.3219 159.026 52.3219 159.026C52.3219 159.026 42.8442 157.33 37.2427 157.577Z" fill="white" stroke="#263238" stroke-miterlimit="10" stroke-linecap="round" stroke-linejoin="round"/>
<path d="M53.6535 153.864L53.7091 163.426C53.7091 163.426 50.6435 171.877 45.632 171.706C40.6204 171.535 35.0895 161.549 35.0895 161.549L35.7062 154.463L53.6535 153.864Z" fill="#C2C2C2" stroke="#263238" stroke-miterlimit="10" stroke-linecap="round" stroke-linejoin="round"/>
<path d="M35.8478 127.576C35.8478 127.576 32.6041 130.77 32.1288 132.622C31.6535 134.473 32.5992 149.652 33.7975 152.853C34.9957 156.055 38.2328 161.635 41.758 163.46C45.2832 165.285 49.5211 163.611 51.7714 160.341C54.0217 157.071 55.2948 152.059 55.6511 150.309C56.0074 148.559 56.3185 132.922 55.511 130.417C54.7035 127.911 48.6381 124.447 44.7651 124.261C40.8926 124.075 37.5208 126.038 35.8478 127.576Z" fill="#A8A8A8" stroke="#263238" stroke-miterlimit="10" stroke-linecap="round" stroke-linejoin="round"/>
<path d="M41.2206 148.758C41.2206 148.758 41.9936 150.261 44.0833 150.532C46.1729 150.803 47.4974 149.461 47.6671 148.697" stroke="#263238" stroke-miterlimit="10" stroke-linecap="round" stroke-linejoin="round"/>
<path d="M41.8577 138.889C41.8577 138.889 38.0342 139.733 37.1675 140.019C36.3008 140.307 35.8527 138.786 38.2492 138.161C40.6456 137.536 43.0831 137.464 41.8577 138.889Z" fill="#263238" stroke="#263238" stroke-miterlimit="10" stroke-linecap="round" stroke-linejoin="round"/>
<path d="M47.0924 138.911C47.0924 138.911 50.9148 139.759 51.7809 140.048C52.6475 140.336 53.0974 138.816 50.7016 138.188C48.3064 137.56 45.8689 137.484 47.0924 138.911Z" fill="#263238" stroke="#263238" stroke-miterlimit="10" stroke-linecap="round" stroke-linejoin="round"/>
<path d="M41.4234 143.28C41.372 143.95 40.9348 144.464 40.4468 144.426C39.9588 144.389 39.6049 143.815 39.6569 143.144C39.7082 142.473 40.1454 141.96 40.6334 141.997C41.1208 142.035 41.4747 142.609 41.4234 143.28Z" fill="#263238"/>
<path d="M50.8788 143.28C50.8275 143.95 50.3902 144.464 49.9023 144.426C49.4143 144.389 49.0604 143.815 49.1123 143.144C49.1636 142.473 49.6009 141.96 50.0889 141.997C50.5763 142.035 50.9302 142.609 50.8788 143.28Z" fill="#263238"/>
<path d="M43.1914 150.575C43.1914 150.575 38.834 150.907 38.2657 152.529C37.6968 154.152 37.9613 159.393 39.1511 161.261C40.3402 163.129 43.5852 164.267 45.3608 164.292C47.1358 164.317 49.4628 162.941 50.2014 161.997C50.94 161.055 51.5174 159.321 51.6273 157.886C51.7372 156.451 52.323 153.164 50.7594 151.822C49.1964 150.48 43.1914 150.575 43.1914 150.575Z" fill="#263238" stroke="#263238" stroke-miterlimit="10" stroke-linecap="round" stroke-linejoin="round"/>
<path d="M50.0411 153.061C50.0411 153.061 47.1561 153.117 45.0411 153.176C42.9261 153.236 40.1642 153.135 40.1642 153.135C40.1642 153.135 41.0128 157.914 44.7669 158.202C48.521 158.49 50.0411 153.061 50.0411 153.061Z" fill="#C2C2C2" stroke="#263238" stroke-miterlimit="10" stroke-linecap="round" stroke-linejoin="round"/>
<path d="M39.7349 152.936C39.7349 152.936 45.4065 158.528 49.9512 152.777" stroke="#263238" stroke-miterlimit="10" stroke-linecap="round" stroke-linejoin="round"/>
<path d="M40.9991 145.853C40.9991 145.853 39.3262 147.391 38.6468 147.561" stroke="#263238" stroke-miterlimit="10" stroke-linecap="round" stroke-linejoin="round"/>
<path d="M48.7369 146.335C48.7369 146.335 49.8838 147.312 50.6568 147.371" stroke="#263238" stroke-miterlimit="10" stroke-linecap="round" stroke-linejoin="round"/>
<path d="M32.2498 142.627C32.2498 142.627 30.5164 140.606 29.625 142.093C28.7336 143.579 29.7198 148.098 30.7477 149.176C31.7757 150.255 33.1943 150.586 33.1943 150.586L32.2498 142.627Z" fill="#A8A8A8" stroke="#263238" stroke-miterlimit="10" stroke-linecap="round" stroke-linejoin="round"/>
<path d="M56.0837 141.79C56.0837 141.79 58.215 140.065 58.6909 141.101C59.1668 142.137 59.1843 144.804 58.3781 146.631C57.5718 148.457 55.7117 149.536 55.7117 149.536L56.0837 141.79Z" fill="#A8A8A8" stroke="#263238" stroke-miterlimit="10" stroke-linecap="round" stroke-linejoin="round"/>
<path d="M24.0803 195.143C24.2863 190.943 23.6588 186.629 21.4659 183.462C16.4254 176.182 13.0904 175.16 13.0904 175.16C13.0904 175.16 12.1899 175.33 10.7543 177.073C13.1037 184.47 17.8458 190.8 24.0803 195.143Z" fill="#8EC7FF" stroke="#263238" stroke-miterlimit="10" stroke-linecap="round" stroke-linejoin="round"/>
<path d="M160.438 116.594V62.6713C160.438 59.0035 157.465 56.0297 153.797 56.0297H100.674C97.0063 56.0297 94.0325 59.0035 94.0325 62.6713V116.594C94.0325 120.262 97.0063 123.236 100.674 123.236H134.979L160.438 134.037L148.592 123.236H153.797C157.465 123.236 160.438 120.263 160.438 116.594Z" fill="#263238"/>
<path d="M155.82 118.686H97.7717V63.3773C97.7717 61.3577 99.409 59.7198 101.429 59.7198H152.163C154.183 59.7198 155.821 61.3571 155.821 63.3773V118.686H155.82Z" fill="white" stroke="#263238" stroke-miterlimit="10" stroke-linecap="round" stroke-linejoin="round"/>
<path d="M155.82 67.4249H97.7717V63.3773C97.7717 61.3577 99.409 59.7198 101.429 59.7198H152.163C154.183 59.7198 155.821 61.3571 155.821 63.3773V67.4249H155.82Z" fill="#8EC7FF" stroke="#263238" stroke-miterlimit="10" stroke-linecap="round" stroke-linejoin="round"/>
<path d="M111.655 76.513C111.655 79.0375 109.608 81.0843 107.084 81.0843C104.559 81.0843 102.513 79.0375 102.513 76.513C102.513 73.9885 104.559 71.9424 107.084 71.9424C109.609 71.9424 111.655 73.9885 111.655 76.513Z" fill="#8EC7FF"/>
<path d="M109.696 86.5059H102.504V88.5937H109.696V86.5059Z" fill="#B0B0B0"/>
<path d="M109.696 94.0799H102.504V96.1677H109.696V94.0799Z" fill="#B0B0B0"/>
<path d="M109.696 101.653H102.504V103.741H109.696V101.653Z" fill="#B0B0B0"/>
<path d="M109.696 109.143H102.504V111.231H109.696V109.143Z" fill="#B0B0B0"/>
<path d="M151.488 70.9628H115.9V82.7167H151.488V70.9628Z" fill="#8EC7FF"/>
<path d="M149.783 85.7599H116.69V102.307H149.783V85.7599Z" stroke="#263238" stroke-miterlimit="10" stroke-linecap="round" stroke-linejoin="round"/>
<path d="M116.69 102.307L128.238 95.757L134.098 97.4807L143.233 90.2412L149.611 94.3782V102.307H116.69Z" fill="#263238" stroke="#263238" stroke-miterlimit="10" stroke-linecap="round" stroke-linejoin="round"/>
<path d="M122.895 93.6885C124.323 93.6885 125.481 92.531 125.481 91.1031C125.481 89.6751 124.323 88.5176 122.895 88.5176C121.467 88.5176 120.31 89.6751 120.31 91.1031C120.31 92.531 121.467 93.6885 122.895 93.6885Z" fill="#263238" stroke="#263238" stroke-miterlimit="10" stroke-linecap="round" stroke-linejoin="round"/>
<path d="M126.606 105.828H151.249" stroke="#263238" stroke-miterlimit="10" stroke-linecap="round" stroke-linejoin="round"/>
<path d="M116.303 105.828H124.93" stroke="#263238" stroke-miterlimit="10" stroke-linecap="round" stroke-linejoin="round"/>
<path d="M143.697 109.117H151.249" stroke="#263238" stroke-miterlimit="10" stroke-linecap="round" stroke-linejoin="round"/>
<path d="M124.261 109.117H141.519" stroke="#263238" stroke-miterlimit="10" stroke-linecap="round" stroke-linejoin="round"/>
<path d="M116.303 109.117H122.417" stroke="#263238" stroke-miterlimit="10" stroke-linecap="round" stroke-linejoin="round"/>
<path d="M132.303 112.405H151.249" stroke="#263238" stroke-miterlimit="10" stroke-linecap="round" stroke-linejoin="round"/>
<path d="M116.303 112.405H130.292" stroke="#263238" stroke-miterlimit="10" stroke-linecap="round" stroke-linejoin="round"/>
<path d="M144.534 115.693H151.249" stroke="#263238" stroke-miterlimit="10" stroke-linecap="round" stroke-linejoin="round"/>
<path d="M120.741 115.693H142.858" stroke="#263238" stroke-miterlimit="10" stroke-linecap="round" stroke-linejoin="round"/>
<path d="M116.303 115.693H118.898" stroke="#263238" stroke-miterlimit="10" stroke-linecap="round" stroke-linejoin="round"/>
<path d="M229.753 97.5895H157.561C155.557 97.5895 153.932 95.9643 153.932 93.9604V86.2124C153.932 84.2079 155.557 82.5827 157.561 82.5827H229.753C231.758 82.5827 233.383 84.2079 233.383 86.2124V93.9604C233.383 95.9643 231.758 97.5895 229.753 97.5895Z" fill="#8EC7FF" stroke="#263238" stroke-miterlimit="10" stroke-linecap="round" stroke-linejoin="round"/>
<path d="M165.398 84.8094L166.717 88.8704H170.988L167.533 91.381L168.852 95.4419L165.398 92.9319L161.942 95.4419L163.262 91.381L159.808 88.8704H164.078L165.398 84.8094Z" fill="white" stroke="#263238" stroke-miterlimit="10" stroke-linecap="round" stroke-linejoin="round"/>
<path d="M179.632 84.8094L180.951 88.8704H185.222L181.766 91.381L183.086 95.4419L179.632 92.9319L176.176 95.4419L177.496 91.381L174.041 88.8704H178.312L179.632 84.8094Z" fill="white" stroke="#263238" stroke-miterlimit="10" stroke-linecap="round" stroke-linejoin="round"/>
<path d="M193.864 84.8094L195.184 88.8704H199.454L195.999 91.381L197.319 95.4419L193.864 92.9319L190.409 95.4419L191.729 91.381L188.274 88.8704H192.545L193.864 84.8094Z" fill="white" stroke="#263238" stroke-miterlimit="10" stroke-linecap="round" stroke-linejoin="round"/>
<path d="M208.097 84.8094L209.417 88.8704H213.687L210.233 91.381L211.552 95.4419L208.097 92.9319L204.642 95.4419L205.962 91.381L202.507 88.8704H206.777L208.097 84.8094Z" fill="white" stroke="#263238" stroke-miterlimit="10" stroke-linecap="round" stroke-linejoin="round"/>
<path d="M222.33 84.8094L223.649 88.8704H227.92L224.465 91.381L225.785 95.4419L222.33 92.9319L218.875 95.4419L220.195 91.381L216.74 88.8704H221.01L222.33 84.8094Z" fill="white" stroke="#263238" stroke-miterlimit="10" stroke-linecap="round" stroke-linejoin="round"/>
<path d="M105.595 49.5039C117.514 46.5535 124.784 34.4998 121.834 22.5813C118.883 10.6628 106.829 3.3928 94.9109 6.34326C82.9924 9.29372 75.7224 21.3474 78.6729 33.2659C81.6233 45.1844 93.677 52.4544 105.595 49.5039Z" fill="#263238" stroke="#263238" stroke-miterlimit="10"/>
<path d="M104.788 46.2545C114.916 43.7484 121.095 33.5067 118.589 23.379C116.083 13.2513 105.841 7.07278 95.7131 9.57888C85.5854 12.085 79.4069 22.3267 81.913 32.4544C84.4191 42.5821 94.6608 48.7606 104.788 46.2545Z" fill="#8EC7FF" stroke="#263238" stroke-miterlimit="10" stroke-linecap="round" stroke-linejoin="round"/>
<path d="M110.416 26.3073C111.371 26.7071 112.085 27.2651 112.091 28.2937C112.096 29.2588 111.62 29.9732 110.614 30.3821C110.71 30.4558 110.78 30.5198 110.86 30.5681C111.352 30.864 111.674 31.2844 111.864 31.7923C112.274 32.8872 111.418 34.2099 110.184 34.385C109.816 34.4376 109.443 34.4575 109.007 34.4986C109.126 34.5753 109.204 34.626 109.282 34.6755C110.26 35.2964 110.274 36.5659 109.312 37.2145C109.016 37.4138 108.715 37.5249 108.329 37.5195C105.596 37.4814 102.863 37.4772 100.129 37.4398C98.0953 37.412 96.0896 37.1396 94.0966 36.767C92.6375 36.494 91.159 36.3672 89.6703 36.3466C89.4082 36.343 89.1436 36.3255 88.8858 36.2844C88.4884 36.221 88.3845 36.102 88.3833 35.7234C88.3748 33.4604 88.3646 31.198 88.3688 28.9356C88.3706 28.0068 88.4014 27.0779 88.4262 26.1497C88.4358 25.7831 88.5663 25.614 88.96 25.5735C89.6334 25.5034 90.3129 25.4817 90.9893 25.4358C91.3698 25.4098 91.7497 25.3784 92.1301 25.3464C92.5897 25.3084 92.9714 25.1139 93.3042 24.8258C94.0827 24.1512 94.6933 23.3486 95.2676 22.523C95.8873 21.6316 96.4592 20.7106 97.0982 19.8318C97.536 19.2297 98.0379 18.6656 98.5392 18.1064C99.2385 17.3267 99.6704 16.4389 99.8944 15.4496C100.086 14.6035 100.297 13.7616 100.503 12.9185C100.535 12.7874 100.579 12.6582 100.628 12.5314C100.84 11.9775 101.262 11.7571 101.869 11.9335C102.978 12.2554 103.647 12.9807 103.917 14.0231C104.165 14.9816 104.052 15.9406 103.786 16.8743C103.466 17.9922 103.075 19.0926 102.721 20.202C102.608 20.559 102.497 20.9189 102.422 21.2837C102.332 21.7216 102.485 21.9015 102.961 21.9106C104.327 21.9372 105.694 21.9432 107.06 21.9662C107.985 21.9813 108.909 22.0247 109.833 22.0314C111.057 22.0404 112.327 23.4192 111.787 24.9406C111.584 25.5095 111.214 25.9437 110.626 26.2022C110.565 26.2288 110.508 26.2608 110.416 26.3073Z" fill="white" stroke="#263238" stroke-miterlimit="10" stroke-linecap="round" stroke-linejoin="round"/>
<path d="M123.468 157.531H69.9381C67.9535 157.531 66.3452 155.923 66.3452 153.939V134.565C66.3452 132.581 67.9535 130.972 69.9381 130.972H123.468C125.452 130.972 127.061 132.581 127.061 134.565V153.939C127.061 155.923 125.452 157.531 123.468 157.531Z" fill="#263238" stroke="#263238" stroke-miterlimit="10" stroke-linecap="round" stroke-linejoin="round"/>
<path d="M69.9383 130.972H63.0117L66.299 136.143L69.9383 130.972Z" fill="#263238" stroke="#263238" stroke-miterlimit="10" stroke-linecap="round" stroke-linejoin="round"/>
<path d="M82.3847 140.041C83.1704 136.713 81.1099 133.379 77.7823 132.593C74.4547 131.807 71.1202 133.868 70.3345 137.195C69.5488 140.523 71.6093 143.857 74.9369 144.643C78.2645 145.429 81.5989 143.368 82.3847 140.041Z" fill="white" stroke="#263238" stroke-miterlimit="10" stroke-linecap="round" stroke-linejoin="round"/>
<path d="M76.3632 144.797C78.0614 144.797 79.5985 144.112 80.717 143.005C80.45 140.836 78.6044 139.155 76.3632 139.155C74.1219 139.155 72.2763 140.836 72.0093 143.005C73.1278 144.112 74.6655 144.797 76.3632 144.797Z" fill="white" stroke="#263238" stroke-miterlimit="10" stroke-linecap="round" stroke-linejoin="round"/>
<path d="M79.0636 137.034C79.0636 138.526 77.8545 139.735 76.3628 139.735C74.871 139.735 73.6619 138.526 73.6619 137.034C73.6619 135.543 74.871 134.334 76.3628 134.334C77.8545 134.333 79.0636 135.542 79.0636 137.034Z" fill="white" stroke="#263238" stroke-miterlimit="10" stroke-linecap="round" stroke-linejoin="round"/>
<path d="M87.3541 135.012H110.381" stroke="white" stroke-miterlimit="10" stroke-linecap="round" stroke-linejoin="round"/>
<path d="M87.3541 137.335H104.725" stroke="white" stroke-miterlimit="10" stroke-linecap="round" stroke-linejoin="round"/>
<path d="M87.3541 142.182H121.692" stroke="white" stroke-miterlimit="10" stroke-linecap="round" stroke-linejoin="round"/>
<path d="M87.3541 146.121H121.692" stroke="white" stroke-miterlimit="10" stroke-linecap="round" stroke-linejoin="round"/>
<path d="M87.3541 150.06H104.152" stroke="white" stroke-miterlimit="10" stroke-linecap="round" stroke-linejoin="round"/>
<path d="M108.905 153.042C110.515 153.042 111.819 151.738 111.819 150.128C111.819 148.519 110.515 147.214 108.905 147.214C107.296 147.214 105.991 148.519 105.991 150.128C105.991 151.738 107.296 153.042 108.905 153.042Z" fill="#8EC7FF" stroke="#263238" stroke-miterlimit="10" stroke-linecap="round" stroke-linejoin="round"/>
<path d="M110.575 150.64C110.356 151.354 109.692 151.874 108.906 151.874C108.111 151.874 107.441 151.342 107.23 150.616" stroke="#263238" stroke-width="0.5" stroke-miterlimit="10" stroke-linecap="round" stroke-linejoin="round"/>
<path d="M107.121 149.476C107.121 149.476 107.685 148.913 108.436 149.523" stroke="#263238" stroke-width="0.5" stroke-miterlimit="10" stroke-linecap="round" stroke-linejoin="round"/>
<path d="M109.374 149.476C109.374 149.476 109.938 148.913 110.689 149.523" stroke="#263238" stroke-width="0.5" stroke-miterlimit="10" stroke-linecap="round" stroke-linejoin="round"/>
<path d="M115.905 153.042C117.515 153.042 118.819 151.738 118.819 150.128C118.819 148.519 117.515 147.214 115.905 147.214C114.296 147.214 112.991 148.519 112.991 150.128C112.991 151.738 114.296 153.042 115.905 153.042Z" fill="#8EC7FF" stroke="#263238" stroke-miterlimit="10" stroke-linecap="round" stroke-linejoin="round"/>
<path d="M117.574 150.64C117.356 151.354 116.691 151.874 115.906 151.874C115.111 151.874 114.441 151.342 114.23 150.616" stroke="#263238" stroke-width="0.5" stroke-miterlimit="10" stroke-linecap="round" stroke-linejoin="round"/>
<path d="M114.121 149.476C114.121 149.476 114.685 148.913 115.436 149.523" stroke="#263238" stroke-width="0.5" stroke-miterlimit="10" stroke-linecap="round" stroke-linejoin="round"/>
<path d="M116.376 149.476C116.376 149.476 116.939 148.913 117.69 149.523" stroke="#263238" stroke-width="0.5" stroke-miterlimit="10" stroke-linecap="round" stroke-linejoin="round"/>
</svg>
