<svg width="266" height="266" viewBox="0 0 266 266" fill="none" xmlns="http://www.w3.org/2000/svg">
<g opacity="0.07">
<path d="M44.6933 161.632H36.7133V246.88H44.6933V161.632Z" fill="black"/>
<path d="M55.2323 185.524H47.2523V246.875H55.2323V185.524Z" fill="black"/>
<path d="M65.7658 81.5503H57.7858V246.88H65.7658V81.5503Z" fill="black"/>
<path d="M76.2995 184.178H68.3195V246.88H76.2995V184.178Z" fill="black"/>
<path d="M86.8383 129.34H78.8583V246.88H86.8383V129.34Z" fill="black"/>
<path d="M97.372 78.6562H89.392V246.88H97.372V78.6562Z" fill="black"/>
<path d="M107.906 165.25H99.9255V246.88H107.906V165.25Z" fill="black"/>
<path d="M118.439 186.264H110.459V246.875H118.439V186.264Z" fill="black"/>
<path d="M128.978 37.1123H120.998V246.88H128.978V37.1123Z" fill="black"/>
<path d="M139.512 55.3918H131.532V246.88H139.512V55.3918Z" fill="black"/>
<path d="M150.045 129.34H142.065V246.88H150.045V129.34Z" fill="black"/>
<path d="M160.584 181.683H152.604V246.875H160.584V181.683Z" fill="black"/>
<path d="M171.118 163.404H163.138V246.875H171.118V163.404Z" fill="black"/>
<path d="M181.651 88.6259H173.671V246.875H181.651V88.6259Z" fill="black"/>
<path d="M192.185 129.34H184.205V246.88H192.185V129.34Z" fill="black"/>
<path d="M202.724 129.34H194.744V246.88H202.724V129.34Z" fill="black"/>
<path d="M213.258 168.389H205.278V246.875H213.258V168.389Z" fill="black"/>
<path d="M223.791 62.0365H215.811V246.875H223.791V62.0365Z" fill="black"/>
</g>
<path d="M202.942 207.15C204.277 207.735 207.555 207.661 207.555 207.661C207.586 207.661 206.852 205.517 206.788 205.389C206.07 203.889 203.799 201.41 201.953 201.655C200.623 201.835 199.883 203.165 200.181 204.421C200.49 205.703 201.804 206.655 202.942 207.15Z" fill="#263238"/>
<path d="M204.07 216.63C205.458 216.833 208.379 215.987 208.608 215.918C209.071 217.551 209.677 219.195 210.379 220.817C210.778 221.748 211.215 222.674 211.662 223.594C211.396 223.206 211.156 222.855 211.114 222.812C210.023 221.551 207.182 219.759 205.464 220.487C204.229 221.014 203.868 222.493 204.485 223.621C205.118 224.775 206.634 225.345 207.868 225.525C209.119 225.706 211.619 225.036 212.279 224.85C212.454 225.201 212.624 225.552 212.8 225.903C213.646 227.59 214.497 229.265 215.279 230.936C215.556 231.526 215.806 232.112 216.061 232.702C215.822 232.356 215.62 232.064 215.588 232.027C214.497 230.766 211.656 228.973 209.938 229.707C208.704 230.234 208.342 231.713 208.959 232.84C209.592 233.995 211.108 234.564 212.342 234.745C213.534 234.921 215.848 234.319 216.636 234.101C216.875 234.713 217.12 235.325 217.327 235.926C217.46 236.341 217.615 236.729 217.721 237.155C217.838 237.57 217.955 237.985 218.067 238.395C218.258 239.193 218.46 240.012 218.625 240.794C218.748 241.336 218.849 241.858 218.955 242.379C218.689 241.789 218.136 240.65 218.077 240.56C217.194 239.15 214.651 236.947 212.843 237.41C211.539 237.74 210.959 239.15 211.401 240.358C211.853 241.592 213.268 242.39 214.455 242.752C215.763 243.151 218.663 242.784 219.024 242.736C219.2 243.603 219.36 244.443 219.498 245.247C219.604 245.837 219.695 246.406 219.785 246.954H220.945C220.833 246.348 220.716 245.71 220.583 245.045C220.413 244.167 220.211 243.225 219.993 242.268C220.211 242.182 221.445 241.682 222.541 241.071C223.493 242.103 225.94 243.316 226.254 243.465C225.919 244.284 225.589 245.076 225.265 245.816C225.095 246.21 224.93 246.582 224.759 246.949H225.988C226.084 246.715 226.18 246.486 226.281 246.247C226.621 245.417 226.972 244.523 227.318 243.603C227.669 243.677 230.537 244.257 231.878 243.959C233.09 243.683 234.559 243.002 235.101 241.799C235.633 240.624 235.155 239.177 233.883 238.751C232.117 238.155 229.42 240.166 228.43 241.501C228.372 241.581 227.834 242.507 227.504 243.097C227.643 242.72 227.786 242.358 227.925 241.964C228.207 241.198 228.467 240.421 228.749 239.586C228.872 239.177 228.994 238.767 229.116 238.352C229.249 237.942 229.335 237.495 229.446 237.059C229.686 236.048 229.883 235.016 230.053 233.968C230.728 234.213 233.133 235.048 234.378 234.963C235.617 234.878 237.176 234.42 237.894 233.319C238.597 232.239 238.347 230.739 237.155 230.122C235.5 229.265 232.527 230.845 231.346 232.016C231.271 232.09 230.521 233.027 230.117 233.548C230.218 232.92 230.319 232.292 230.399 231.649C230.627 229.803 230.803 227.925 230.984 226.052C231.037 225.478 231.101 224.908 231.159 224.334C231.399 224.424 234.234 225.478 235.633 225.382C236.873 225.297 238.432 224.839 239.15 223.738C239.852 222.658 239.602 221.158 238.41 220.541C236.756 219.684 233.782 221.259 232.606 222.435C232.516 222.525 231.436 223.876 231.181 224.233C231.314 222.972 231.457 221.722 231.649 220.487C231.909 218.79 232.266 217.141 232.723 215.566C232.835 215.609 235.793 216.726 237.219 216.625C238.458 216.54 240.017 216.082 240.735 214.981C241.438 213.901 241.188 212.401 239.996 211.784C238.341 210.927 235.367 212.502 234.186 213.678C234.096 213.768 232.931 215.226 232.739 215.503C232.766 215.407 232.787 215.311 232.814 215.215C233.325 213.539 234.032 211.981 234.766 210.555C235.192 209.725 235.644 208.954 236.096 208.219C236.628 208.485 239.06 209.667 240.352 209.714C241.597 209.762 243.193 209.48 244.028 208.464C244.848 207.469 244.763 205.948 243.645 205.203C242.092 204.171 238.969 205.411 237.666 206.448C237.597 206.506 236.937 207.155 236.469 207.64C236.681 207.31 236.889 206.964 237.102 206.65C237.884 205.474 238.666 204.448 239.373 203.543C239.778 203.032 240.155 202.58 240.512 202.155C241.166 202.144 243.805 202.064 244.959 201.522C246.082 200.995 247.369 200.005 247.646 198.718C247.912 197.457 247.135 196.143 245.8 195.999C243.949 195.797 241.746 198.34 241.065 199.862C241.007 199.995 240.326 202.155 240.363 202.155C240.363 202.155 240.395 202.155 240.4 202.155C240.049 202.554 239.677 202.985 239.283 203.463C238.559 204.352 237.745 205.368 236.937 206.528C236.128 207.687 235.277 208.97 234.506 210.401C233.729 211.832 232.989 213.38 232.431 215.077C232.425 215.098 232.42 215.114 232.415 215.135C232.425 214.588 232.399 213.061 232.383 212.944C232.17 211.294 230.787 208.23 228.951 207.89C227.632 207.645 226.515 208.682 226.409 209.964C226.302 211.278 227.254 212.587 228.18 213.417C229.228 214.353 232.128 215.258 232.362 215.327C231.846 216.944 231.447 218.647 231.133 220.392C230.957 221.392 230.808 222.397 230.67 223.413C230.665 222.94 230.654 222.52 230.643 222.461C230.43 220.812 229.047 217.748 227.212 217.407C225.893 217.162 224.775 218.2 224.669 219.482C224.563 220.796 225.515 222.105 226.44 222.935C227.382 223.775 229.84 224.594 230.494 224.802C230.446 225.19 230.393 225.579 230.345 225.972C230.122 227.845 229.909 229.712 229.638 231.537C229.542 232.181 229.43 232.809 229.313 233.442C229.308 233.021 229.297 232.67 229.292 232.617C229.079 230.968 227.696 227.903 225.861 227.563C224.541 227.318 223.419 228.356 223.318 229.638C223.211 230.947 224.164 232.261 225.089 233.09C225.988 233.894 228.249 234.671 229.026 234.921C228.888 235.564 228.755 236.208 228.595 236.825C228.478 237.245 228.388 237.655 228.249 238.07C228.116 238.48 227.983 238.889 227.856 239.294C227.574 240.065 227.292 240.858 226.999 241.603C226.802 242.124 226.6 242.613 226.403 243.108C226.504 242.47 226.675 241.214 226.68 241.108C226.706 240.001 226.313 238.203 225.531 236.942C225.536 236.777 225.525 236.618 225.499 236.453C225.297 235.181 224.1 234.234 222.802 234.58C220.998 235.059 219.86 238.224 219.774 239.884C219.769 239.98 219.833 241.055 219.886 241.725C219.796 241.331 219.711 240.953 219.615 240.549C219.423 239.751 219.216 238.964 218.987 238.113C218.865 237.708 218.737 237.293 218.615 236.878C218.498 236.463 218.322 236.043 218.179 235.618C217.822 234.644 217.412 233.676 216.982 232.707C217.678 232.543 220.147 231.909 221.136 231.149C222.121 230.393 223.169 229.154 223.158 227.84C223.147 226.552 222.11 225.435 220.775 225.579C218.923 225.781 217.311 228.733 216.976 230.361C216.955 230.462 216.843 231.659 216.795 232.319C216.529 231.739 216.269 231.159 215.981 230.579C215.151 228.909 214.263 227.249 213.38 225.584C213.109 225.073 212.848 224.563 212.582 224.052C212.832 223.993 215.779 223.312 216.891 222.461C217.875 221.706 218.923 220.466 218.913 219.152C218.902 217.865 217.865 216.747 216.529 216.891C214.678 217.093 213.066 220.046 212.731 221.674C212.704 221.796 212.55 223.52 212.534 223.961C211.949 222.839 211.38 221.711 210.858 220.578C210.14 219.019 209.523 217.444 209.039 215.88C209.156 215.854 212.236 215.151 213.375 214.279C214.359 213.524 215.407 212.284 215.396 210.97C215.386 209.682 214.348 208.565 213.013 208.709C211.161 208.911 209.549 211.864 209.214 213.492C209.188 213.619 209.023 215.471 209.017 215.811C208.991 215.721 208.948 215.625 208.922 215.529C208.427 213.848 208.156 212.162 207.98 210.566C207.874 209.64 207.831 208.751 207.799 207.884C208.384 207.815 211.066 207.453 212.178 206.783C213.242 206.139 214.417 205.022 214.55 203.713C214.683 202.431 213.774 201.208 212.433 201.208C210.571 201.202 208.645 203.963 208.134 205.544C208.108 205.629 207.922 206.538 207.794 207.198C207.789 206.804 207.773 206.4 207.778 206.028C207.783 204.618 207.868 203.325 207.959 202.187C208.012 201.538 208.076 200.952 208.14 200.404C208.677 200.032 210.837 198.51 211.497 197.425C212.146 196.361 212.672 194.829 212.188 193.605C211.715 192.408 210.342 191.743 209.15 192.355C207.496 193.212 207.06 196.547 207.331 198.186C207.358 198.33 207.98 200.505 208.007 200.484C208.007 200.484 208.033 200.468 208.039 200.463C207.964 200.99 207.895 201.554 207.826 202.171C207.714 203.314 207.597 204.607 207.56 206.022C207.523 207.437 207.523 208.975 207.666 210.592C207.81 212.215 208.044 213.917 208.512 215.636C208.517 215.657 208.528 215.673 208.533 215.694C208.241 215.231 207.379 213.97 207.299 213.885C206.209 212.624 203.368 210.837 201.649 211.56C200.415 212.087 200.053 213.566 200.67 214.694C201.325 215.88 202.841 216.45 204.07 216.63Z" fill="#263238"/>
<path d="M236.038 207.874C236.064 207.89 236.634 205.698 236.655 205.554C236.884 203.905 236.357 200.585 234.681 199.771C233.474 199.186 232.122 199.888 231.681 201.101C231.228 202.336 231.803 203.857 232.479 204.9C233.266 206.129 236.038 207.868 236.038 207.874Z" fill="#263238"/>
<path d="M13.3638 218.822C14.3108 219.237 16.6197 219.184 16.625 219.184C16.6516 219.184 16.1302 217.668 16.0823 217.577C15.5769 216.513 13.9703 214.763 12.6669 214.939C11.7253 215.066 11.2039 216.008 11.4167 216.891C11.6348 217.795 12.5605 218.471 13.3638 218.822Z" fill="#263238"/>
<path d="M14.1618 225.52C15.1407 225.664 17.2049 225.063 17.3698 225.015C17.6943 226.169 18.1252 227.329 18.62 228.478C18.902 229.138 19.2105 229.787 19.5244 230.441C19.3382 230.164 19.168 229.92 19.136 229.888C18.3646 228.999 16.3537 227.733 15.1407 228.244C14.2682 228.616 14.0129 229.659 14.4491 230.457C14.896 231.271 15.9706 231.675 16.8378 231.803C17.7209 231.931 19.4925 231.457 19.9553 231.324C20.0777 231.574 20.2 231.824 20.3224 232.069C20.9182 233.261 21.5194 234.442 22.078 235.623C22.2748 236.038 22.4504 236.453 22.6313 236.873C22.4664 236.628 22.3227 236.421 22.2961 236.394C21.5247 235.506 19.5138 234.24 18.3008 234.756C17.4283 235.128 17.173 236.171 17.6092 236.969C18.0561 237.783 19.1307 238.187 19.9979 238.315C20.8384 238.437 22.477 238.011 23.0303 237.857C23.2005 238.288 23.3708 238.719 23.5197 239.15C23.6102 239.443 23.7219 239.719 23.8017 240.017C23.8868 240.31 23.9666 240.602 24.0464 240.895C24.1794 241.459 24.323 242.039 24.4401 242.592C24.5252 242.975 24.5997 243.342 24.6742 243.715C24.4826 243.3 24.0943 242.491 24.057 242.427C23.4293 241.432 21.6364 239.873 20.3596 240.198C19.4393 240.432 19.0296 241.427 19.3435 242.283C19.6627 243.156 20.6629 243.72 21.5034 243.975C22.4291 244.257 24.4773 244.002 24.7327 243.965C24.855 244.576 24.9668 245.172 25.0678 245.736C25.1423 246.156 25.2062 246.555 25.27 246.944H26.0893C26.0095 246.513 25.9297 246.066 25.8339 245.592C25.7116 244.97 25.5679 244.31 25.4136 243.629C25.5679 243.566 26.4404 243.214 27.2171 242.784C27.8928 243.512 29.6218 244.369 29.8452 244.475C29.6111 245.055 29.377 245.614 29.1483 246.14C29.0259 246.417 28.9089 246.683 28.7918 246.944H29.659C29.7282 246.779 29.7973 246.619 29.8665 246.444C30.1059 245.858 30.3559 245.225 30.6006 244.576C30.8507 244.63 32.8776 245.039 33.8192 244.826C34.6758 244.635 35.7132 244.145 36.0962 243.3C36.4739 242.47 36.1334 241.448 35.2344 241.145C33.9842 240.725 32.0796 242.145 31.3827 243.092C31.3401 243.145 30.9624 243.805 30.7283 244.22C30.8294 243.954 30.9252 243.699 31.0262 243.422C31.2284 242.879 31.4093 242.331 31.6061 241.741C31.6912 241.454 31.7817 241.161 31.8668 240.868C31.9626 240.581 32.0211 240.262 32.1009 239.953C32.2711 239.24 32.4094 238.512 32.5318 237.772C33.0053 237.948 34.7077 238.538 35.5908 238.474C36.4686 238.41 37.5645 238.091 38.0752 237.309C38.57 236.548 38.3944 235.484 37.5539 235.048C36.3835 234.447 34.2821 235.559 33.4522 236.389C33.399 236.442 32.867 237.102 32.585 237.474C32.6542 237.027 32.7286 236.586 32.7818 236.134C32.9414 234.825 33.0691 233.5 33.1968 232.175C33.234 231.771 33.2819 231.367 33.3245 230.962C33.4947 231.026 35.5004 231.771 36.4846 231.702C37.3624 231.638 38.4583 231.319 38.969 230.537C39.4638 229.776 39.2882 228.712 38.4476 228.276C37.2772 227.669 35.1758 228.787 34.3459 229.617C34.2821 229.68 33.5213 230.633 33.3351 230.888C33.4309 230 33.532 229.111 33.665 228.244C33.8512 227.042 34.1012 225.877 34.4257 224.765C34.5055 224.797 36.591 225.584 37.6018 225.509C38.4796 225.446 39.5755 225.126 40.0862 224.344C40.581 223.584 40.4054 222.52 39.5648 222.083C38.3944 221.477 36.293 222.594 35.4631 223.424C35.3993 223.488 34.5747 224.515 34.4417 224.711C34.463 224.648 34.4736 224.573 34.4949 224.509C34.8566 223.328 35.3567 222.227 35.8728 221.216C36.1707 220.631 36.4899 220.088 36.8144 219.562C37.1868 219.748 38.9052 220.583 39.8255 220.62C40.7033 220.658 41.8312 220.455 42.4217 219.737C43.0016 219.035 42.9377 217.96 42.1504 217.434C41.0544 216.705 38.8466 217.583 37.9263 218.312C37.8784 218.349 37.4102 218.812 37.0804 219.152C37.2294 218.918 37.3783 218.673 37.5273 218.455C38.0806 217.625 38.6338 216.902 39.1339 216.258C39.4212 215.896 39.6872 215.577 39.9372 215.279C40.4001 215.268 42.2621 215.215 43.0814 214.832C43.874 214.46 44.7838 213.763 44.9806 212.853C45.1668 211.959 44.6188 211.034 43.6772 210.933C42.3685 210.789 40.8097 212.587 40.3309 213.662C40.2884 213.752 39.8096 215.279 39.8362 215.279C39.8362 215.279 39.8574 215.279 39.8628 215.279C39.6127 215.561 39.352 215.864 39.0701 216.205C38.5594 216.833 37.9848 217.551 37.4156 218.37C36.841 219.189 36.2452 220.094 35.6972 221.105C35.1492 222.115 34.6226 223.211 34.2289 224.408C34.2236 224.424 34.2236 224.435 34.2182 224.451C34.2236 224.062 34.2076 222.982 34.197 222.903C34.048 221.738 33.0691 219.572 31.771 219.333C30.84 219.163 30.0474 219.892 29.9729 220.801C29.8984 221.727 30.5687 222.658 31.2231 223.243C31.9626 223.903 34.0161 224.541 34.1757 224.594C33.8086 225.738 33.5266 226.941 33.3085 228.175C33.1808 228.882 33.0798 229.595 32.984 230.308C32.9787 229.973 32.9734 229.675 32.968 229.632C32.8191 228.467 31.8402 226.302 30.5421 226.063C29.6111 225.893 28.8184 226.621 28.744 227.531C28.6695 228.457 29.3398 229.388 29.9942 229.973C30.6592 230.569 32.3988 231.149 32.8616 231.292C32.8297 231.569 32.7925 231.84 32.7606 232.117C32.601 233.442 32.452 234.761 32.2605 236.048C32.1966 236.501 32.1115 236.947 32.0317 237.394C32.0264 237.096 32.0211 236.846 32.0158 236.809C31.8668 235.644 30.8879 233.479 29.5898 233.239C28.6588 233.069 27.8662 233.798 27.7917 234.708C27.7172 235.633 28.3875 236.564 29.0419 237.15C29.675 237.719 31.2763 238.267 31.8242 238.442C31.7285 238.895 31.6327 239.352 31.521 239.788C31.4359 240.086 31.3774 240.374 31.2763 240.666C31.1805 240.959 31.0901 241.246 30.9943 241.533C30.7975 242.076 30.5953 242.64 30.3878 243.167C30.2495 243.534 30.1059 243.879 29.9676 244.231C30.0367 243.778 30.1591 242.89 30.1591 242.815C30.175 242.033 29.8984 240.762 29.3451 239.868C29.3504 239.751 29.3398 239.639 29.3238 239.522C29.1802 238.623 28.3343 237.953 27.4193 238.198C26.1478 238.538 25.3392 240.773 25.2806 241.948C25.2753 242.017 25.3232 242.773 25.3604 243.252C25.2966 242.975 25.2381 242.704 25.1689 242.422C25.0359 241.858 24.887 241.299 24.7274 240.698C24.6422 240.411 24.5518 240.118 24.4614 239.826C24.3816 239.533 24.2539 239.235 24.1528 238.937C23.9028 238.251 23.6102 237.565 23.3069 236.878C23.8017 236.761 25.5413 236.314 26.2436 235.777C26.9405 235.24 27.68 234.367 27.6746 233.436C27.6693 232.527 26.9352 231.739 25.9882 231.84C24.6795 231.984 23.541 234.069 23.3016 235.224C23.2856 235.298 23.2112 236.144 23.1739 236.607C22.9877 236.197 22.8015 235.788 22.5994 235.378C22.0142 234.197 21.3864 233.021 20.764 231.851C20.5724 231.489 20.3862 231.133 20.2 230.771C20.3756 230.728 22.461 230.25 23.2431 229.643C23.94 229.106 24.6795 228.233 24.6742 227.302C24.6688 226.393 23.9347 225.605 22.9877 225.706C21.679 225.85 20.5405 227.935 20.3011 229.09C20.2852 229.175 20.1734 230.393 20.1628 230.707C19.7478 229.914 19.3488 229.116 18.9818 228.318C18.4764 227.217 18.0401 226.105 17.6943 224.999C17.7741 224.983 19.9553 224.483 20.7586 223.871C21.4556 223.334 22.195 222.461 22.1897 221.53C22.1844 220.62 21.4502 219.833 20.5033 219.934C19.1946 220.078 18.0561 222.163 17.8167 223.318C17.7954 223.408 17.6784 224.717 17.6784 224.956C17.6571 224.892 17.6305 224.823 17.6092 224.759C17.2581 223.573 17.0666 222.381 16.9442 221.253C16.8697 220.599 16.8378 219.971 16.8165 219.354C17.2315 219.301 19.1254 219.051 19.9074 218.578C20.6576 218.12 21.4928 217.333 21.5832 216.407C21.679 215.503 21.0353 214.635 20.083 214.635C18.7636 214.635 17.407 216.583 17.0453 217.7C17.024 217.758 16.891 218.402 16.8059 218.87C16.8006 218.593 16.7899 218.306 16.7952 218.04C16.7952 217.045 16.8591 216.13 16.9229 215.322C16.9602 214.864 17.008 214.449 17.0506 214.061C17.4336 213.8 18.9552 212.726 19.4233 211.954C19.8808 211.204 20.2532 210.119 19.9128 209.257C19.5776 208.411 18.6094 207.938 17.7688 208.374C16.5984 208.98 16.2898 211.337 16.4814 212.497C16.4973 212.598 16.9389 214.135 16.9602 214.119C16.9602 214.119 16.9761 214.109 16.9814 214.103C16.9282 214.476 16.8804 214.875 16.8325 215.311C16.7527 216.12 16.6676 217.029 16.6463 218.03C16.6197 219.03 16.6197 220.115 16.7208 221.259C16.8218 222.408 16.9868 223.61 17.3166 224.823C17.3219 224.839 17.3272 224.85 17.3326 224.866C17.1251 224.541 16.5133 223.647 16.4601 223.584C15.6887 222.695 13.6777 221.429 12.4648 221.94C11.5923 222.312 11.3369 223.355 11.7732 224.153C12.22 224.988 13.2947 225.392 14.1618 225.52Z" fill="#263238"/>
<path d="M36.7559 219.328C36.7772 219.338 37.1762 217.79 37.1921 217.689C37.3517 216.524 36.9846 214.178 35.7983 213.603C34.9418 213.188 33.9895 213.688 33.6756 214.545C33.3564 215.417 33.7607 216.492 34.2395 217.226C34.7981 218.099 36.7559 219.328 36.7559 219.328Z" fill="#263238"/>
<path d="M9.22485 246.944H252.923" stroke="#263238" stroke-miterlimit="10"/>
<path d="M69.9154 39.618C69.9154 35.9792 72.8734 33.0212 76.5122 33.0212H84.8433V29.0312C84.8433 26.2702 82.6036 24.0304 79.8426 24.0304H62.393C59.6319 24.0304 57.3922 26.2702 57.3922 29.0312V36.3303V45.22L61.8397 41.2938C62.0206 41.3151 62.2068 41.3258 62.393 41.3258H69.9154V39.618Z" fill="#263238"/>
<path d="M64.2124 31.0954H79.0392" stroke="white" stroke-miterlimit="10"/>
<path d="M64.2124 34.33H73.533" stroke="white" stroke-miterlimit="10"/>
<path d="M76.5122 34.6172H93.9618C96.7229 34.6172 98.9626 36.857 98.9626 39.618V46.9171V55.8121L94.5151 51.886C94.3342 51.9072 94.148 51.9179 93.9618 51.9179H76.5122C73.7511 51.9179 71.5114 49.6782 71.5114 46.9171V39.618C71.5114 36.857 73.7511 34.6172 76.5122 34.6172Z" fill="#263238"/>
<path d="M76.9219 41.6875H93.616" stroke="white" stroke-miterlimit="10"/>
<path d="M76.9219 44.6508H93.616" stroke="white" stroke-miterlimit="10"/>
<path d="M205.804 67.9204H187.179C185.609 67.9204 184.338 66.649 184.338 65.0796V47.5236C184.338 45.9542 185.609 44.6827 187.179 44.6827H205.804C207.374 44.6827 208.645 45.9542 208.645 47.5236V65.0796C208.645 66.649 207.374 67.9204 205.804 67.9204Z" fill="#1E90FF"/>
<path d="M202.192 55.8919L192.621 50.3698V61.4141L202.192 55.8919Z" fill="#263238"/>
<path d="M44.0389 187.647H25.4189C23.8495 187.647 22.5781 186.376 22.5781 184.806V167.25C22.5781 165.681 23.8495 164.409 25.4189 164.409H44.0443C45.6137 164.409 46.8851 165.681 46.8851 167.25V184.806C46.8798 186.376 45.6083 187.647 44.0389 187.647Z" fill="#263238"/>
<path d="M40.4267 175.619L30.8613 170.096V181.141L40.4267 175.619Z" fill="white"/>
<path d="M169.91 48.0077H143.209C141.666 48.0077 140.416 46.7575 140.416 45.2147V19.9287C140.416 18.3859 141.666 17.1357 143.209 17.1357H169.91C171.453 17.1357 172.703 18.3859 172.703 19.9287V45.2147C172.708 46.7575 171.453 48.0077 169.91 48.0077Z" fill="#263238"/>
<path d="M145.284 42.6824H168.442L159.94 26.3393L154.365 37.6922L150.732 32.2445L145.284 42.6824Z" fill="#1E90FF"/>
<path d="M151.056 29.111C153.448 29.111 155.387 27.1722 155.387 24.7806C155.387 22.3889 153.448 20.4501 151.056 20.4501C148.664 20.4501 146.726 22.3889 146.726 24.7806C146.726 27.1722 148.664 29.111 151.056 29.111Z" fill="#1E90FF"/>
<path d="M76.3579 109.714H58.919C57.3762 109.714 56.126 108.464 56.126 106.921V90.4932C56.126 88.9504 57.3762 87.7002 58.919 87.7002H76.3579C77.9007 87.7002 79.1509 88.9504 79.1509 90.4932V106.921C79.1563 108.464 77.9061 109.714 76.3579 109.714Z" fill="#1E90FF"/>
<path d="M59.5999 105.916H76.1132L70.0484 94.2597L66.0744 102.357L63.4835 98.4679L59.5999 105.916Z" fill="#263238"/>
<path d="M66.8032 93.1479C66.8032 91.4401 65.42 90.0569 63.7123 90.0569C62.0045 90.0569 60.6213 91.4401 60.6213 93.1479C60.6213 94.8556 62.0045 96.2388 63.7123 96.2388C65.42 96.2335 66.8032 94.8503 66.8032 93.1479Z" fill="#263238"/>
<path d="M229.214 52.3062C234.947 50.9649 238.507 45.2299 237.166 39.4967C235.825 33.7635 230.09 30.2031 224.356 31.5444C218.623 32.8857 215.063 38.6207 216.404 44.3539C217.745 50.0871 223.48 53.6475 229.214 52.3062Z" fill="#1E90FF"/>
<path d="M232.351 38.32C230.909 36.8782 228.579 36.8782 227.137 38.32L226.77 38.687L226.403 38.32C224.962 36.8782 222.631 36.8782 221.19 38.32C219.748 39.7617 219.748 42.0918 221.19 43.5336L226.712 49.0557L226.765 49.0025L226.818 49.0557L232.34 43.5336C233.793 42.0918 233.793 39.7617 232.351 38.32Z" fill="white"/>
<path d="M219.446 108.815C225.872 102.389 225.872 91.9707 219.446 85.5448C213.02 79.1189 202.602 79.1189 196.176 85.5448C189.75 91.9707 189.75 102.389 196.176 108.815C202.602 115.241 213.02 115.241 219.446 108.815Z" fill="#263238"/>
<path d="M216.402 91.6211C214.178 89.3973 210.576 89.3973 208.358 91.6211L207.794 92.185L207.23 91.6211C205.006 89.3973 201.405 89.3973 199.186 91.6211C196.962 93.8448 196.962 97.4464 199.186 99.6649L207.709 108.188L207.794 108.102L207.879 108.188L216.402 99.6649C218.625 97.4464 218.625 93.8448 216.402 91.6211Z" fill="#1E90FF"/>
<path d="M41.8577 89.0568C34.3831 89.0568 28.3237 82.9973 28.3237 75.5227C28.3237 68.0481 34.3831 61.9886 41.8577 61.9886C49.3323 61.9886 55.3918 68.0481 55.3918 75.5227C55.3918 82.9973 49.3323 89.0568 41.8577 89.0568Z" fill="#263238"/>
<path d="M41.8577 69.442C43.8368 69.442 44.0762 69.4473 44.8582 69.4845C45.5817 69.5164 45.9754 69.6388 46.2361 69.7399C46.5819 69.8729 46.8319 70.0378 47.0873 70.2932C47.348 70.5538 47.5076 70.7986 47.6406 71.1444C47.7417 71.405 47.864 71.7987 47.8959 72.5222C47.9332 73.3043 47.9385 73.5384 47.9385 75.5227C47.9385 77.5018 47.9332 77.7412 47.8959 78.5232C47.864 79.2467 47.7417 79.6404 47.6406 79.9011C47.5076 80.2469 47.3427 80.4969 47.0873 80.7523C46.8266 81.013 46.5819 81.1726 46.2361 81.3056C45.9754 81.4066 45.5817 81.529 44.8582 81.5609C44.0762 81.5982 43.8421 81.6035 41.8577 81.6035C39.8734 81.6035 39.6393 81.5982 38.8573 81.5609C38.1337 81.529 37.7401 81.4066 37.4794 81.3056C37.1336 81.1726 36.8835 81.0076 36.6282 80.7523C36.3675 80.4916 36.2079 80.2469 36.0749 79.9011C35.9738 79.6404 35.8515 79.2467 35.8195 78.5232C35.7823 77.7412 35.777 77.5071 35.777 75.5227C35.777 73.5437 35.7823 73.3043 35.8195 72.5222C35.8515 71.7987 35.9738 71.405 36.0749 71.1444C36.2079 70.7986 36.3728 70.5485 36.6282 70.2932C36.8889 70.0325 37.1336 69.8729 37.4794 69.7399C37.7401 69.6388 38.1337 69.5164 38.8573 69.4845C39.6393 69.4473 39.8787 69.442 41.8577 69.442ZM41.8577 68.1013C39.8415 68.1013 39.5914 68.112 38.7987 68.1439C38.0114 68.1811 37.4687 68.3035 36.9953 68.4897C36.5058 68.6812 36.0962 68.9312 35.6812 69.3462C35.2663 69.7612 35.0162 70.1708 34.8247 70.6602C34.6438 71.1337 34.5161 71.671 34.4789 72.4637C34.4417 73.2564 34.4363 73.5064 34.4363 75.5227C34.4363 77.539 34.447 77.789 34.4789 78.5817C34.5161 79.3691 34.6385 79.9117 34.8247 80.3852C35.0162 80.8746 35.2663 81.2896 35.6812 81.6992C36.0962 82.1142 36.5058 82.3642 36.9953 82.5558C37.4687 82.7366 38.0061 82.8643 38.7987 82.9016C39.5914 82.9388 39.8415 82.9441 41.8577 82.9441C43.874 82.9441 44.1241 82.9335 44.9167 82.9016C45.7041 82.8643 46.2467 82.742 46.7202 82.5558C47.2097 82.3642 47.6246 82.1142 48.0343 81.6992C48.4492 81.2843 48.6993 80.8746 48.8908 80.3852C49.0717 79.9117 49.1993 79.3744 49.2366 78.5817C49.2738 77.789 49.2791 77.539 49.2791 75.5227C49.2791 73.5064 49.2685 73.2564 49.2366 72.4637C49.1993 71.6764 49.077 71.1337 48.8908 70.6602C48.6993 70.1708 48.4492 69.7558 48.0343 69.3462C47.6193 68.9312 47.2097 68.6812 46.7202 68.4897C46.2467 68.3088 45.7094 68.1811 44.9167 68.1439C44.1241 68.112 43.874 68.1013 41.8577 68.1013Z" fill="white"/>
<path d="M41.8578 71.7136C39.751 71.7136 38.0486 73.4213 38.0486 75.5227C38.0486 77.6241 39.7564 79.3318 41.8578 79.3318C43.9645 79.3318 45.6669 77.6241 45.6669 75.5227C45.6669 73.4213 43.9645 71.7136 41.8578 71.7136ZM41.8578 77.9965C40.4905 77.9965 39.384 76.89 39.384 75.5227C39.384 74.1555 40.4905 73.0489 41.8578 73.0489C43.225 73.0489 44.3316 74.1555 44.3316 75.5227C44.3316 76.89 43.225 77.9965 41.8578 77.9965Z" fill="white"/>
<path d="M46.7096 71.5647C46.7096 72.0541 46.3106 72.4531 45.8211 72.4531C45.3317 72.4531 44.9327 72.0541 44.9327 71.5647C44.9327 71.0752 45.3317 70.6762 45.8211 70.6762C46.3106 70.6709 46.7096 71.0699 46.7096 71.5647Z" fill="white"/>
<path d="M174.336 211.731C166.862 211.731 160.802 205.671 160.802 198.197C160.802 190.722 166.862 184.663 174.336 184.663C181.811 184.663 187.87 190.722 187.87 198.197C187.87 205.677 181.811 211.731 174.336 211.731Z" fill="#1E90FF"/>
<path d="M174.336 192.116C176.315 192.116 176.555 192.121 177.337 192.158C178.06 192.19 178.454 192.313 178.715 192.414C179.061 192.547 179.311 192.712 179.566 192.967C179.827 193.228 179.986 193.472 180.119 193.818C180.22 194.079 180.343 194.473 180.375 195.196C180.412 195.978 180.417 196.212 180.417 198.197C180.417 200.176 180.412 200.415 180.375 201.197C180.343 201.921 180.22 202.314 180.119 202.575C179.986 202.921 179.821 203.171 179.566 203.426C179.305 203.687 179.061 203.846 178.715 203.979C178.454 204.081 178.06 204.203 177.337 204.235C176.555 204.272 176.321 204.277 174.336 204.277C172.357 204.277 172.118 204.272 171.336 204.235C170.612 204.203 170.219 204.081 169.958 203.979C169.612 203.846 169.362 203.682 169.107 203.426C168.846 203.165 168.687 202.921 168.554 202.575C168.452 202.314 168.33 201.921 168.298 201.197C168.261 200.415 168.256 200.181 168.256 198.197C168.256 196.218 168.261 195.978 168.298 195.196C168.33 194.473 168.452 194.079 168.554 193.818C168.687 193.472 168.851 193.222 169.107 192.967C169.367 192.706 169.612 192.547 169.958 192.414C170.219 192.313 170.612 192.19 171.336 192.158C172.118 192.126 172.352 192.116 174.336 192.116ZM174.336 190.781C172.32 190.781 172.07 190.791 171.277 190.823C170.49 190.86 169.947 190.983 169.474 191.169C168.984 191.36 168.569 191.61 168.16 192.025C167.745 192.44 167.495 192.85 167.303 193.339C167.122 193.813 166.995 194.35 166.958 195.143C166.92 195.936 166.915 196.186 166.915 198.202C166.915 200.218 166.926 200.468 166.958 201.261C166.995 202.048 167.117 202.591 167.303 203.064C167.495 203.554 167.745 203.969 168.16 204.378C168.575 204.793 168.984 205.043 169.474 205.235C169.947 205.416 170.485 205.544 171.277 205.581C172.07 205.618 172.32 205.623 174.336 205.623C176.353 205.623 176.603 205.613 177.395 205.581C178.183 205.544 178.725 205.421 179.199 205.235C179.688 205.043 180.103 204.793 180.513 204.378C180.928 203.964 181.178 203.554 181.369 203.064C181.55 202.591 181.678 202.054 181.715 201.261C181.752 200.468 181.758 200.218 181.758 198.202C181.758 196.186 181.747 195.936 181.715 195.143C181.678 194.356 181.556 193.813 181.369 193.339C181.178 192.85 180.928 192.435 180.513 192.025C180.098 191.61 179.688 191.36 179.199 191.169C178.725 190.988 178.188 190.86 177.395 190.823C176.603 190.786 176.353 190.781 174.336 190.781Z" fill="#263238"/>
<path d="M174.336 194.388C172.23 194.388 170.527 196.095 170.527 198.197C170.527 200.303 172.235 202.006 174.336 202.006C176.443 202.006 178.146 200.298 178.146 198.197C178.146 196.095 176.438 194.388 174.336 194.388ZM174.336 200.676C172.969 200.676 171.863 199.569 171.863 198.202C171.863 196.835 172.969 195.728 174.336 195.728C175.704 195.728 176.81 196.835 176.81 198.202C176.81 199.564 175.704 200.676 174.336 200.676Z" fill="#263238"/>
<path d="M179.188 194.239C179.188 194.728 178.789 195.127 178.3 195.127C177.81 195.127 177.411 194.728 177.411 194.239C177.411 193.749 177.81 193.35 178.3 193.35C178.789 193.35 179.188 193.749 179.188 194.239Z" fill="#263238"/>
<path d="M157.882 94.9194C150.476 94.9194 144.475 88.9185 144.475 81.513C144.475 74.1076 150.476 68.1066 157.882 68.1066C165.287 68.1066 171.288 74.1076 171.288 81.513C171.288 88.9185 165.287 94.9194 157.882 94.9194Z" fill="#263238"/>
<path d="M150.742 86.0031C152.04 86.833 153.578 87.3225 155.232 87.3225C160.675 87.3225 163.744 82.726 163.563 78.603C164.138 78.188 164.633 77.672 165.026 77.0868C164.5 77.3209 163.936 77.4752 163.345 77.5496C163.952 77.1879 164.415 76.6133 164.633 75.927C164.069 76.2622 163.441 76.5069 162.771 76.6399C162.233 76.0707 161.473 75.7142 160.632 75.7142C158.743 75.7142 157.35 77.4805 157.775 79.3106C155.339 79.1882 153.179 78.0231 151.737 76.2462C150.971 77.5656 151.338 79.2893 152.641 80.1564C152.163 80.1405 151.71 80.0075 151.311 79.7894C151.28 81.146 152.253 82.4174 153.663 82.6994C153.248 82.8111 152.801 82.8377 152.338 82.7473C152.711 83.9124 153.791 84.7582 155.078 84.7848C153.849 85.7584 152.296 86.1893 150.742 86.0031Z" fill="white"/>
<path d="M230.989 192.121C223.584 192.121 217.583 186.12 217.583 178.715C217.583 171.309 223.584 165.308 230.989 165.308C238.394 165.308 244.395 171.309 244.395 178.715C244.39 186.115 238.389 192.121 230.989 192.121Z" fill="#1E90FF"/>
<path d="M223.844 183.2C225.142 184.029 226.68 184.519 228.334 184.519C233.777 184.519 236.852 179.922 236.665 175.799C237.24 175.384 237.735 174.868 238.128 174.283C237.602 174.517 237.038 174.672 236.447 174.746C237.054 174.384 237.517 173.81 237.735 173.123C237.171 173.459 236.543 173.703 235.873 173.836C235.335 173.267 234.575 172.911 233.734 172.911C231.84 172.911 230.452 174.677 230.877 176.507C228.441 176.385 226.281 175.22 224.839 173.443C224.073 174.762 224.44 176.486 225.744 177.353C225.265 177.337 224.813 177.204 224.414 176.986C224.382 178.342 225.355 179.614 226.765 179.896C226.35 180.008 225.903 180.034 225.44 179.944C225.813 181.109 226.893 181.955 228.18 181.981C226.951 182.955 225.398 183.386 223.844 183.2Z" fill="#263238"/>
<path d="M206.31 163.037C196.249 163.037 188.099 154.881 188.099 144.826C188.099 134.766 196.255 126.616 206.31 126.616C216.37 126.616 224.52 134.772 224.52 144.826C224.52 154.881 216.37 163.037 206.31 163.037Z" fill="#263238"/>
<path d="M203.426 155.833H207.858V144.731H210.949L211.279 141.012H207.858C207.858 141.012 207.858 139.623 207.858 138.895C207.858 138.017 208.033 137.671 208.879 137.671C209.56 137.671 211.279 137.671 211.279 137.671V133.814C211.279 133.814 208.752 133.814 208.209 133.814C204.91 133.814 203.421 135.266 203.421 138.049C203.421 140.469 203.421 141.012 203.421 141.012H201.117V144.773H203.421V155.833H203.426Z" fill="white"/>
<path d="M42.5866 148.492C34.8886 148.492 28.6482 142.251 28.6482 134.548C28.6482 126.85 34.8886 120.61 42.5866 120.61C50.2846 120.61 56.5303 126.85 56.5303 134.548C56.525 142.251 50.2846 148.492 42.5866 148.492Z" fill="#1E90FF"/>
<path d="M40.3788 142.975H43.773V134.479H46.1404L46.3904 131.633H43.7676C43.7676 131.633 43.7676 130.569 43.7676 130.01C43.7676 129.34 43.9006 129.074 44.5497 129.074C45.071 129.074 46.3851 129.074 46.3851 129.074V126.121C46.3851 126.121 44.4486 126.121 44.0336 126.121C41.5066 126.121 40.3682 127.233 40.3682 129.361C40.3682 131.218 40.3682 131.627 40.3682 131.627H38.6019V134.511H40.3682V142.975H40.3788Z" fill="#263238"/>
<path d="M160.861 165.032H151.359L155.754 141.943C156.025 140.522 155.051 139.368 153.583 139.357L148.332 139.32C146.864 139.31 145.454 140.453 145.188 141.868L140.778 165.032H77.0123L81.4067 141.943C81.678 140.522 80.7044 139.368 79.2361 139.357L73.9853 139.32C72.5169 139.31 71.1071 140.453 70.8411 141.868L66.4309 165.032H56.5623C55.1205 165.032 53.732 166.202 53.4713 167.644L52.5244 172.81C52.2584 174.251 53.216 175.422 54.6577 175.422H64.4465L56.7378 215.928H46.9756C45.5339 215.928 44.1454 217.099 43.8847 218.54L42.9377 223.706C42.6717 225.148 43.6293 226.318 45.0711 226.318H54.7641L51.338 244.321C51.0667 245.741 52.0403 246.896 53.5086 246.906L58.7594 246.944C60.2277 246.954 61.6375 245.811 61.9035 244.395L65.3456 226.318H129.111L125.685 244.321C125.414 245.741 126.387 246.896 127.856 246.906L133.106 246.944C134.575 246.954 135.985 245.811 136.251 244.395L139.693 226.318H149.364C150.806 226.318 152.195 225.148 152.455 223.706L153.402 218.54C153.668 217.099 152.711 215.928 151.269 215.928H141.672L149.38 175.422H158.962C160.403 175.422 161.792 174.251 162.053 172.81L163 167.644C163.26 166.202 162.303 165.032 160.861 165.032ZM131.09 215.928H67.3246L75.0333 175.422H138.799L131.09 215.928Z" fill="#1E90FF" stroke="#263238" stroke-miterlimit="10"/>
<path opacity="0.34" d="M79.5659 151.609L64.3614 175.9L56.7431 215.928H48.8961L46.1138 226.323H54.7641L51.338 244.326C51.0667 245.747 52.0403 246.901 53.5086 246.912L58.7594 246.949C60.2277 246.96 61.6375 245.816 61.9035 244.401L65.3456 226.323H94.1587L88.6365 215.928H67.3246L75.0333 175.422H123.839L134.234 165.026H77.0123L79.5659 151.609Z" fill="black"/>
<path d="M121.674 192.77C121.674 192.77 125.222 198.83 127.265 200.537C129.313 202.245 129.654 202.926 128.116 203.607C126.579 204.288 121.466 203.096 120.95 202.586C120.439 202.075 116.343 188.599 118.051 189.11C119.758 189.621 121.674 192.77 121.674 192.77Z" fill="white" stroke="#263238" stroke-miterlimit="10"/>
<path d="M119.758 199.521C119.758 199.521 124.073 203.357 128.983 203.118C128.983 203.118 128.622 205.884 120.955 202.586L119.758 199.521Z" fill="white" stroke="#263238" stroke-miterlimit="10"/>
<path d="M85.3966 148.157C85.3966 148.157 81.9493 155.413 85.2158 165.021C88.4822 174.634 107.342 193.313 107.523 193.855C107.703 194.398 114.779 213.444 118.221 219.971C121.668 226.499 132.005 245.906 133.09 246.63C134.181 247.353 138.171 244.997 138.895 244.816C139.618 244.635 148.689 238.831 152.136 234.66C155.583 230.489 152.136 228.856 152.136 228.856C152.136 228.856 137.448 233.388 136.176 233.388C134.905 233.388 134.181 231.032 133.458 230.851C132.734 230.67 122.392 196.574 121.668 192.765C120.945 188.956 120.945 189.318 120.216 186.418C119.493 183.519 111.874 169.187 111.874 169.187C111.874 169.187 132.548 166.83 143.975 163.021C155.403 159.212 156.972 153.402 156.424 151.407C155.876 149.412 130.845 148.178 123.626 148.072C116.407 147.965 110.863 148.151 110.863 148.151L85.3966 148.157Z" fill="#263238" stroke="#263238" stroke-miterlimit="10"/>
<path d="M146.156 156.137C146.156 156.137 139.99 157.589 136.905 160.308C134.612 162.334 123.376 174.602 117.779 180.747L118.976 183.364C118.976 183.364 119.785 184.918 120.285 186.737C129.17 180.619 152.056 163.047 156.259 160.802C161.34 158.084 161.153 151.732 159.526 150.827C157.892 149.923 147.79 149.795 147.79 149.795" fill="#263238"/>
<path d="M146.156 156.137C146.156 156.137 139.99 157.589 136.905 160.308C134.612 162.334 123.376 174.602 117.779 180.747L118.976 183.364C118.976 183.364 119.785 184.918 120.285 186.737C129.17 180.619 152.056 163.047 156.259 160.802C161.34 158.084 161.153 151.732 159.526 150.827C157.892 149.923 147.79 149.795 147.79 149.795" stroke="#263238" stroke-miterlimit="10"/>
<path d="M84.4922 145.257C84.4922 145.257 82.859 148.524 83.9496 149.79C85.0402 151.061 94.4779 153.503 102.453 154.551C110.427 155.594 115.508 153.599 116.774 152.333C118.045 151.061 117.545 148.891 117.545 148.891C117.545 148.891 91.7487 149.428 84.4922 145.257Z" fill="#1E90FF" stroke="#263238" stroke-miterlimit="10"/>
<path d="M110.581 97.5103C110.581 97.5103 96.9623 99.7287 95.2173 104.229C93.4777 108.73 88.3758 136.554 88.3758 136.554C88.3758 136.554 81.263 143.81 83.0079 146.135C84.7476 148.455 97.0846 153.971 106.373 153.248C115.662 152.524 116.971 151.216 117.551 148.896C118.131 146.571 119.727 139.315 120.163 136.559C120.599 133.803 124.515 125.531 124.515 125.531C124.515 125.531 126.547 132.064 128.579 133.511C130.611 134.963 135.979 136.415 135.979 136.415L139.464 129.595C139.464 129.595 134.24 120.743 133.803 117.402C133.367 114.066 134.383 102.889 131.478 98.8243C128.574 94.7598 122.913 94.7598 120.157 95.0524C117.402 95.3344 110.581 97.5103 110.581 97.5103Z" fill="#1E90FF" stroke="#263238" stroke-miterlimit="10"/>
<path d="M126.456 115.428C126.19 116.04 125.999 116.668 125.962 117.247C125.818 119.572 126.105 123.924 124.509 125.52" stroke="#263238" stroke-miterlimit="10"/>
<path d="M128.723 111.88C128.723 111.88 128.015 112.71 127.313 113.827" stroke="#263238" stroke-miterlimit="10"/>
<path d="M106.645 134.511C109.039 133.165 111.991 131.361 113.789 129.718" stroke="#263238" stroke-miterlimit="10"/>
<path d="M102.788 136.554C102.788 136.554 103.538 136.187 104.666 135.586" stroke="#263238" stroke-miterlimit="10"/>
<path d="M117.061 130.01C117.061 130.01 109.182 135.66 107.544 136.256" stroke="#263238" stroke-miterlimit="10"/>
<path d="M127.914 130.904C127.914 130.904 129.696 126.595 133.415 124.36" stroke="#263238" stroke-miterlimit="10"/>
<path d="M128.957 125.701C128.957 125.701 126.579 128.526 126.43 129.718" stroke="#263238" stroke-miterlimit="10"/>
<path d="M120.158 95.0418C117.402 95.3344 110.576 97.5103 110.576 97.5103C110.576 97.5103 109.156 97.9837 107.23 98.7924C107.661 100.069 109.129 104.166 111.305 107.671C113.917 111.88 116.386 116.088 116.386 116.088C116.386 116.088 122.046 103.751 123.786 98.8137C124.376 97.1432 124.547 95.9409 124.515 95.079C122.839 94.8609 121.264 94.9247 120.158 95.0418Z" fill="#1E90FF" stroke="#263238" stroke-miterlimit="10"/>
<path d="M127.893 74.48C127.893 74.48 128.824 75.411 129.478 78.0231C130.132 80.6352 129.76 80.0766 131.808 82.4068C133.862 84.7369 133.484 87.5353 132.649 90.7964C131.808 94.0576 131.063 96.7655 129.015 97.8827C126.962 98.9999 122.025 98.0689 122.025 98.0689C122.025 98.0689 118.668 107.017 117.641 108.975C116.614 110.933 116.987 112.05 115.683 110.188C114.38 108.321 109.714 99.7447 109.342 98.4413C108.969 97.1379 109.06 96.5793 109.06 96.5793C109.06 96.5793 106.171 94.1534 106.075 90.0516C105.98 85.9499 108.129 84.3645 109.805 81.38C111.481 78.3955 113.438 67.5799 117.636 67.0213C121.828 66.4627 127.329 72.336 127.893 74.48Z" fill="white" stroke="#263238" stroke-miterlimit="10"/>
<path d="M120.152 70.2878C120.152 70.2878 121.828 71.0326 122.578 72.5276C123.323 74.0172 122.86 75.3259 123.881 74.6715C124.908 74.0172 124.536 71.7827 124.536 71.7827L127.893 74.4853C127.893 74.4853 129.569 70.5698 128.547 68.0534C127.52 65.5371 122.392 64.1379 120.807 64.3241C119.221 64.5103 116.237 65.8137 116.237 65.8137C116.237 65.8137 119.125 68.3248 120.152 70.2878Z" fill="#263238" stroke="#263238" stroke-miterlimit="10"/>
<path d="M120.434 71.2188C120.434 71.2188 120.53 74.6662 117.732 78.8637C114.933 83.0612 112.326 84.2688 112.326 84.2688C112.326 84.2688 112.699 87.53 111.954 87.8119C111.209 88.0939 110.651 87.1576 110.087 87.0671C109.528 86.9714 107.661 86.599 107.57 90.0516C107.475 93.499 111.582 94.8077 111.582 94.8077L113.539 93.9672C113.539 93.9672 113.071 96.6697 109.438 97.6965C105.804 98.7232 102.447 95.5525 102.447 95.5525L104.405 93.1266L100.771 88.2801H98.9094C98.9094 88.2801 100.122 87.0671 99.3776 85.2956C98.6328 83.524 98.0741 77.6507 101.053 72.8946C104.038 68.1386 113.64 65.3402 113.64 65.3402C113.64 65.3402 116.715 64.1273 118.769 65.8084C120.807 67.4895 120.434 71.2188 120.434 71.2188Z" fill="#263238" stroke="#263238" stroke-miterlimit="10"/>
<path d="M123.413 78.7679C123.413 78.7679 119.87 79.2361 118.939 81.6567" stroke="#263238" stroke-miterlimit="10"/>
<path d="M126.584 77.6507C126.584 77.6507 127.515 76.2516 128.914 76.7197" stroke="#263238" stroke-miterlimit="10"/>
<path d="M126.121 80.0766C126.121 80.0766 126.909 82.2206 128.281 83.7953C129.654 85.3753 130.638 85.4871 130.441 86.4979C130.244 87.514 128.675 89.0887 127.792 89.0887" stroke="#263238" stroke-miterlimit="10"/>
<path d="M124.983 91.504C124.983 91.504 127.409 92.6212 129.829 91.3178" stroke="#263238" stroke-miterlimit="10"/>
<path d="M123.669 83.2261C123.85 83.9762 123.61 84.6784 123.131 84.7901C122.658 84.9019 122.126 84.3858 121.945 83.6357C121.764 82.8856 122.003 82.1833 122.482 82.0716C122.961 81.9599 123.493 82.4759 123.669 83.2261Z" fill="#263238"/>
<path d="M129.733 80.5608C129.914 81.3109 129.675 82.0131 129.196 82.1248C128.723 82.2366 128.191 81.7205 128.01 80.9704C127.829 80.2203 128.068 79.518 128.547 79.4063C129.021 79.2946 129.553 79.8106 129.733 80.5608Z" fill="#263238"/>
<path d="M122.014 98.0689L118.141 96.8187L120.897 100.888L122.014 98.0689Z" fill="#263238" stroke="#263238" stroke-miterlimit="10"/>
<path d="M125.531 79.8585C125.531 79.8585 121.269 80.9225 117.997 83.375C117.997 83.375 119.322 87.0139 120.546 87.2852C121.769 87.5565 124.903 85.785 126.265 84.971C127.627 84.1571 125.844 79.8585 125.531 79.8585Z" stroke="#263238" stroke-miterlimit="10"/>
<path d="M132.638 76.6612C132.638 76.6612 129.185 77.523 126.541 79.5074C126.541 79.5074 127.611 82.4547 128.606 82.6728C129.6 82.8909 132.133 81.4598 133.239 80.8002C134.341 80.1405 132.894 76.6612 132.638 76.6612Z" stroke="#263238" stroke-miterlimit="10"/>
<path d="M125.531 79.8585L126.541 79.5074" stroke="#263238" stroke-miterlimit="10"/>
<path d="M117.998 83.3697L110.081 87.0671" stroke="#263238" stroke-miterlimit="10"/>
<path d="M98.7764 100.83C98.7764 100.83 93.5309 102.288 91.0518 107.533C89.4451 110.938 85.0349 134.373 85.6201 137.857C86.1999 141.342 98.9733 152.083 102.458 154.546C105.942 157.014 107.102 158.031 107.102 158.031L110.874 148.162C110.874 148.162 107.102 145.986 106.522 144.826C105.942 143.667 97.5262 133.649 97.5262 133.649L103.788 115.114" fill="#1E90FF"/>
<path d="M98.7764 100.83C98.7764 100.83 93.5309 102.288 91.0518 107.533C89.4451 110.938 85.0349 134.373 85.6201 137.857C86.1999 141.342 98.9733 152.083 102.458 154.546C105.942 157.014 107.102 158.031 107.102 158.031L110.874 148.162C110.874 148.162 107.102 145.986 106.522 144.826C105.942 143.667 97.5262 133.649 97.5262 133.649L103.788 115.114" stroke="#263238" stroke-miterlimit="10"/>
<path d="M106.985 145.555C106.985 145.555 104.304 150.763 103.751 151.945" stroke="#263238" stroke-miterlimit="10"/>
<path d="M135.229 130.271L112.561 145.263L130.547 155.658L153.87 136.548L135.229 130.271Z" fill="#A1A1A1" stroke="#263238" stroke-miterlimit="10"/>
<path d="M134.713 133.532L117.865 144.672L131.234 152.402L148.566 138.198L134.713 133.532Z" fill="#787878"/>
<path d="M155.344 113.72C155.344 113.72 158.414 113.46 159.728 112.757C161.042 112.055 160.957 114.071 160.254 114.949C159.552 115.827 157.445 116.529 156.307 116.614C155.168 116.7 155.168 116.7 155.168 116.7L155.344 113.72Z" fill="white" stroke="#263238" stroke-miterlimit="10"/>
<path d="M131.244 127.515L130.547 155.658L153.87 136.548L156.866 110.188L131.244 127.515Z" fill="#858585" stroke="#263238" stroke-miterlimit="10"/>
<path d="M158.031 115.907C158.031 115.907 154.642 117.769 153.854 118.253C153.067 118.737 153.695 119.95 154.801 120.03C155.903 120.11 158.19 119.221 158.898 118.088C159.605 116.96 159.451 115.423 158.031 115.907Z" fill="white" stroke="#263238" stroke-miterlimit="10"/>
<path d="M158.85 118.28C158.85 118.28 159.903 120.296 159.201 121.349C158.499 122.403 156.216 123.541 155.078 123.28C153.939 123.02 153.849 122.403 154.2 121.7C154.551 120.998 155.69 120.471 155.69 120.471C155.69 120.471 158.323 118.806 158.85 118.28Z" fill="white" stroke="#263238" stroke-miterlimit="10"/>
<path d="M158.414 122.317C158.414 122.317 159.025 123.546 158.153 124.509C157.275 125.472 154.823 125.914 154.471 125.472C154.12 125.036 156.578 123.456 156.578 123.456L158.414 122.317Z" fill="white" stroke="#263238" stroke-miterlimit="10"/>
<path d="M158.148 124.509C158.148 124.509 157.711 126.174 157.185 126.616C156.658 127.052 154.727 127.669 154.817 127.052C154.902 126.44 156.397 125.472 156.397 125.472C156.397 125.472 157.36 125.121 158.148 124.509Z" fill="white" stroke="#263238" stroke-miterlimit="10"/>
<path d="M110.869 148.162C110.869 148.162 113.774 147.055 115.268 146.422C116.769 145.789 118.897 145.241 119.37 145.162C119.844 145.082 121.578 146.108 122.605 146.108C123.631 146.108 125.206 146.343 125.286 146.896C125.366 147.449 124.499 147.683 123.631 148.077C122.764 148.471 118.897 147.917 118.897 147.917L118.343 148.391L126.393 153.439C126.393 153.439 123.866 154.147 122.998 154.466C122.131 154.78 122.211 154.7 120.791 154.7C119.37 154.7 118.583 154.78 114.715 155.014C110.848 155.248 109.033 153.04 109.033 153.04L110.869 148.162Z" fill="white" stroke="#263238" stroke-miterlimit="10"/>
<path d="M97.5156 133.649C97.5156 133.649 95.3557 133.431 93.8661 132.686" stroke="#263238" stroke-miterlimit="10"/>
<path d="M152.141 228.866C152.141 228.866 137.453 233.399 136.181 233.399C136.181 233.399 135.33 239.054 133.654 242.172C133.101 243.198 132.409 244.012 131.723 244.645C132.409 245.779 132.904 246.507 133.096 246.64C134.186 247.364 138.176 245.007 138.9 244.826C139.623 244.646 148.694 238.841 152.141 234.67C155.589 230.494 152.141 228.866 152.141 228.866Z" fill="white" stroke="#263238" stroke-miterlimit="10"/>
<path d="M152.141 234.665C153.7 232.777 153.849 231.409 153.541 230.478C151.673 232.931 144.348 241.773 132.84 246.353C132.952 246.497 133.037 246.593 133.096 246.635C134.186 247.359 138.176 245.002 138.9 244.821C139.629 244.64 148.694 238.841 152.141 234.665Z" fill="white" stroke="#263238" stroke-miterlimit="10"/>
<path d="M108.613 160.85L111.151 166.473" stroke="#5C5C5C" stroke-miterlimit="10"/>
<path d="M110.406 164.883L112.763 156.466" stroke="#5C5C5C" stroke-miterlimit="10"/>
<path d="M114.279 157.142L112.428 161.685" stroke="#5C5C5C" stroke-miterlimit="10"/>
<path d="M141.544 156.467C141.544 156.467 144.741 154.785 148.109 154.95" stroke="#5C5C5C" stroke-miterlimit="10"/>
<path d="M90.3762 156.131C90.3762 156.131 96.941 155.121 100.814 156.131" stroke="#5C5C5C" stroke-miterlimit="10"/>
</svg>
