<svg width="247" height="251" viewBox="0 0 247 251" fill="none" xmlns="http://www.w3.org/2000/svg">
<rect width="247" height="251" rx="30" fill="#1B65AD"/>
<path d="M143.031 133.338C141.467 132.791 140.11 131.774 139.145 130.426C138.181 129.079 137.656 127.466 137.643 125.809V122.02C134.812 121.774 132.173 120.485 130.238 118.403C128.304 116.321 127.213 113.595 127.176 110.753V78.7844C127.217 75.7439 128.461 72.8435 130.635 70.7177C132.809 68.5918 135.737 67.4136 138.777 67.4406C140.634 67.4406 144.888 67.4664 146.77 67.4406C146.514 64.0717 145.002 60.9217 142.533 58.6152C140.065 56.3087 136.819 55.0142 133.441 54.9883H119.905C119.106 57.2055 117.482 61.5883 116.709 63.7797C116.236 65.0459 115.388 66.1372 114.277 66.9069C113.166 67.6766 111.847 68.0878 110.495 68.0852H89.6125C82.8063 68.0594 82.4453 59.8094 80.2281 54.9883H66.6672C64.9116 54.9894 63.1734 55.3364 61.5519 56.0095C59.9304 56.6826 58.4575 57.6687 57.2173 58.9113C55.9771 60.1539 54.9939 61.6287 54.3239 63.2515C53.6539 64.8742 53.3102 66.6131 53.3125 68.3688V182.683C53.3134 184.435 53.6596 186.17 54.3313 187.788C55.0031 189.407 55.9872 190.877 57.2275 192.115C58.4678 193.353 59.9398 194.334 61.5595 195.003C63.1793 195.671 64.9149 196.014 66.6672 196.012H133.441C136.978 196.012 140.372 194.609 142.875 192.11C145.379 189.611 146.789 186.22 146.795 182.683V133.698C145.53 133.875 144.24 133.751 143.031 133.338ZM91.8297 92.3453C92.4893 92.3561 93.1182 92.6257 93.5808 93.0959C94.0434 93.5661 94.3027 94.1993 94.3027 94.859C94.3027 95.5186 94.0434 96.1519 93.5808 96.6221C93.1182 97.0923 92.4893 97.3619 91.8297 97.3727H65.7133C65.0522 97.3642 64.4211 97.0956 63.9566 96.6251C63.4921 96.1547 63.2316 95.5201 63.2316 94.859C63.2316 94.1978 63.4921 93.5633 63.9566 93.0928C64.4211 92.6223 65.0522 92.3538 65.7133 92.3453H91.8297ZM65.7133 82.007H81.7492C82.4159 82.007 83.0553 82.2719 83.5267 82.7433C83.9981 83.2147 84.2629 83.854 84.2629 84.5207C84.2629 85.1874 83.9981 85.8267 83.5267 86.2981C83.0553 86.7695 82.4159 87.0344 81.7492 87.0344H65.7133C65.0466 87.0344 64.4073 86.7695 63.9359 86.2981C63.4645 85.8267 63.1996 85.1874 63.1996 84.5207C63.1996 83.854 63.4645 83.2147 63.9359 82.7433C64.4073 82.2719 65.0466 82.007 65.7133 82.007ZM65.7133 102.658H96.857C97.5237 102.658 98.1631 102.923 98.6345 103.394C99.1059 103.865 99.3707 104.505 99.3707 105.171C99.3707 105.838 99.1059 106.478 98.6345 106.949C98.1631 107.42 97.5237 107.685 96.857 107.685H65.7133C65.0466 107.685 64.4073 107.42 63.9359 106.949C63.4645 106.478 63.1996 105.838 63.1996 105.171C63.1996 104.505 63.4645 103.865 63.9359 103.394C64.4073 102.923 65.0466 102.658 65.7133 102.658ZM124.907 160.202C119.35 158.833 113.581 158.553 107.917 159.377C108.341 161.368 108.128 163.442 107.309 165.307C106.49 167.171 105.107 168.731 103.354 169.766L105.958 174.923C106.443 175.92 106.67 177.024 106.617 178.132C106.565 179.24 106.234 180.317 105.657 181.264C105.079 182.211 104.273 182.998 103.312 183.552C102.351 184.107 101.266 184.41 100.157 184.436C97.1937 183.845 94.2869 183 91.4688 181.909C90.0198 181.419 88.7431 180.521 87.7919 179.322C86.8407 178.124 86.2554 176.677 86.1063 175.155L85.3328 166.982C82.0197 167.426 78.6567 166.676 75.8453 164.868L73.3961 166.08C71.7235 166.912 69.7892 167.049 68.0161 166.46C66.2431 165.87 64.7755 164.603 63.9344 162.934C63.1076 161.253 62.974 159.314 63.5622 157.535C64.1504 155.756 65.4135 154.278 67.0797 153.421L69.5547 152.184C69.7638 149.709 70.6097 147.33 72.0102 145.279C73.4107 143.228 75.318 141.575 77.5469 140.479C88.8658 135.886 97.9041 126.996 102.684 115.755C102.862 114.494 103.333 113.291 104.058 112.244C104.783 111.197 105.743 110.333 106.86 109.722C114.311 105.958 124.907 117.044 131.069 129.316C134.519 135.83 136.507 143.018 136.895 150.379C137.308 158.242 131.868 163.553 124.907 160.202Z" fill="white"/>
<path d="M88.1409 62.0387C88.2527 62.3354 88.4525 62.5909 88.7135 62.771C88.9745 62.951 89.2843 63.047 89.6014 63.0461H110.504C112.008 63.1419 112.252 61.0179 112.694 60.024L114.558 54.9874H85.5469C86.0752 56.4191 87.6575 60.6767 88.1409 62.0387Z" fill="white"/>
<path d="M191.113 72.4937H138.777C137.072 72.4595 135.423 73.1023 134.191 74.2813C132.959 75.4603 132.244 77.0795 132.203 78.7843V110.753C132.248 112.457 132.965 114.073 134.196 115.251C135.427 116.429 137.074 117.073 138.777 117.044H142.155C142.438 117.044 142.696 117.224 142.696 117.43V125.809C142.726 126.429 142.943 127.025 143.32 127.519C143.696 128.012 144.213 128.38 144.803 128.573C145.393 128.766 146.028 128.775 146.623 128.599C147.218 128.423 147.746 128.071 148.136 127.588L156.231 117.25C156.286 117.187 156.353 117.135 156.428 117.1C156.504 117.064 156.586 117.045 156.67 117.044H191.113C192.818 117.078 194.467 116.435 195.7 115.256C196.932 114.077 197.646 112.458 197.688 110.753V78.7843C197.669 77.9395 197.485 77.1065 197.145 76.333C196.804 75.5595 196.315 74.8606 195.704 74.2764C195.094 73.6921 194.374 73.234 193.586 72.9281C192.798 72.6222 191.958 72.4746 191.113 72.4937ZM153.653 102.245L152.648 99.5382H145.609L144.63 102.245C144.518 102.557 144.347 102.844 144.124 103.089C143.902 103.335 143.634 103.534 143.334 103.675C143.035 103.816 142.71 103.897 142.38 103.913C142.049 103.929 141.718 103.879 141.407 103.766C140.78 103.537 140.268 103.071 139.979 102.469C139.69 101.868 139.647 101.177 139.86 100.544L145.042 86.1836C145.366 85.3599 145.93 84.6528 146.661 84.1544C147.392 83.656 148.257 83.3895 149.141 83.3895C150.026 83.3895 150.891 83.656 151.622 84.1544C152.353 84.6528 152.917 85.3599 153.241 86.1836L158.371 100.544C158.59 101.168 158.553 101.853 158.269 102.45C157.985 103.047 157.477 103.508 156.855 103.732C156.233 103.956 155.548 103.926 154.948 103.648C154.349 103.369 153.883 102.865 153.653 102.245ZM164.327 103.921C163.398 103.922 162.507 103.558 161.846 102.906C161.184 102.255 160.807 101.369 160.795 100.441V86.8539C160.796 86.3929 160.889 85.9369 161.068 85.512C161.247 85.0872 161.508 84.7019 161.836 84.3784C162.164 84.0548 162.553 83.7995 162.981 83.627C163.408 83.4545 163.866 83.3683 164.327 83.3734C165.69 83.3503 167.045 83.599 168.312 84.105C169.578 84.6109 170.732 85.364 171.704 86.3203C172.677 87.2766 173.449 88.417 173.977 89.6749C174.504 90.9329 174.776 92.2832 174.776 93.6472C174.776 95.0112 174.504 96.3616 173.977 97.6195C173.449 98.8775 172.677 100.018 171.704 100.974C170.732 101.93 169.578 102.684 168.312 103.189C167.045 103.695 165.69 103.944 164.327 103.921ZM183.585 103.921C180.517 104.102 175.773 101.111 178.609 98.0945C178.858 97.8784 179.146 97.7137 179.459 97.6096C179.771 97.5056 180.101 97.4644 180.429 97.4883C180.757 97.5123 181.078 97.601 181.372 97.7493C181.665 97.8975 181.927 98.1025 182.141 98.3523C182.941 99.3578 185.209 98.7906 185.132 97.6046C185.127 97.4077 185.083 97.2136 185.002 97.0339C184.922 96.8542 184.806 96.6924 184.662 96.5579C184.518 96.4235 184.348 96.3191 184.163 96.2509C183.979 96.1828 183.782 96.1522 183.585 96.1609C181.829 96.1904 180.133 95.5236 178.867 94.3062C177.602 93.0888 176.869 91.4198 176.83 89.664C176.779 83.1671 186.009 81.1304 189.257 86.4414C189.595 87.0085 189.698 87.6859 189.541 88.3276C189.385 88.9693 188.983 89.524 188.422 89.8722C187.861 90.2204 187.185 90.3342 186.541 90.1892C185.897 90.0442 185.335 89.6519 184.977 89.0968C184.307 87.9109 181.78 88.4007 181.884 89.664C181.908 90.0546 182.078 90.422 182.359 90.6939C182.64 90.9659 183.013 91.1227 183.405 91.1336C184.26 91.0951 185.115 91.229 185.918 91.5272C186.722 91.8254 187.457 92.2818 188.08 92.8695C188.703 93.4571 189.202 94.164 189.547 94.9481C189.892 95.7322 190.076 96.5777 190.088 97.4342C190.1 98.2908 189.94 99.1411 189.618 99.9347C189.295 100.728 188.816 101.449 188.21 102.054C187.603 102.659 186.881 103.136 186.087 103.457C185.292 103.777 184.442 103.935 183.585 103.921Z" fill="white"/>
<path d="M147.396 94.5006H150.871L149.134 89.6641L147.396 94.5006Z" fill="white"/>
<path d="M169.734 93.9962C169.852 92.7736 169.52 91.55 168.802 90.5537C168.084 89.5574 167.028 88.8566 165.831 88.5819V98.6802C166.907 98.4405 167.874 97.8508 168.581 97.0034C169.287 96.156 169.692 95.0985 169.734 93.9962Z" fill="white"/>
<path d="M99.1709 161.436L101.06 165.189C101.843 164.671 102.447 163.923 102.789 163.049C103.132 162.174 103.196 161.216 102.973 160.303C101.687 160.615 100.418 160.993 99.1709 161.436Z" fill="white"/>
<path d="M94.462 163.3C93.0225 163.956 91.6186 164.687 90.2563 165.491L91.1126 174.683C91.1644 175.234 91.3752 175.759 91.7195 176.192C92.0637 176.626 92.5266 176.95 93.0518 177.126L99.6246 179.317C99.9075 179.413 100.213 179.421 100.501 179.34C100.789 179.259 101.045 179.093 101.236 178.863C101.436 178.64 101.562 178.361 101.598 178.064C101.634 177.767 101.578 177.466 101.438 177.201C101.438 177.201 94.6242 163.598 94.462 163.3Z" fill="white"/>
<path d="M70.9157 158.969C70.6738 158.479 70.4636 157.974 70.2861 157.458L69.3291 157.936C68.8565 158.185 68.4984 158.607 68.3295 159.114C68.1605 159.621 68.1939 160.173 68.4226 160.656C69.2372 162.193 70.8565 161.905 72.0993 161.084C71.6591 160.405 71.2637 159.699 70.9157 158.969Z" fill="white"/>
<path d="M83.079 143.431C81.9709 144.01 80.8376 144.539 79.6289 145.042C77.5371 146.044 75.9235 147.829 75.1366 150.01C74.3497 152.192 74.4527 154.596 75.4233 156.702C78.5632 163.562 85.4207 163.148 91.0618 159.346C86.7588 155.037 83.9594 149.456 83.079 143.431Z" fill="white"/>
<path d="M126.583 131.584C124.237 126.765 121.158 122.338 117.456 118.462C113.486 114.749 108.845 111.346 107.556 116.863C105.184 124.881 114.569 146.228 122.948 152.854C134.575 163.27 134.111 146.924 126.583 131.584ZM121.014 143.134C120.716 143.379 120.367 143.554 119.992 143.645C119.617 143.737 119.227 143.743 118.849 143.664C118.472 143.584 118.117 143.421 117.811 143.186C117.506 142.951 117.256 142.65 117.082 142.306C116.908 141.962 116.814 141.583 116.806 141.198C116.798 140.812 116.876 140.429 117.036 140.078C117.196 139.727 117.432 139.416 117.728 139.169C118.024 138.921 118.372 138.744 118.745 138.648C119.17 138.339 119.501 137.919 119.702 137.434C119.904 136.949 119.968 136.418 119.888 135.899C119.809 135.38 119.588 134.893 119.25 134.492C118.912 134.09 118.47 133.789 117.972 133.621C117.595 133.47 117.186 133.419 116.784 133.474C116.382 133.528 116.001 133.685 115.677 133.931C115.081 134.218 114.395 134.259 113.768 134.045C113.142 133.832 112.624 133.381 112.326 132.789C112.029 132.198 111.976 131.513 112.178 130.883C112.38 130.252 112.822 129.727 113.409 129.419C122.303 124.469 129.909 138.262 121.014 143.134Z" fill="white"/>
<path d="M96.0483 157.156C102.696 154.629 109.799 153.522 116.9 153.907C109.921 145.919 105.1 136.279 102.898 125.903C98.9465 131.826 93.8209 136.874 87.8389 140.736C88.0354 143.884 88.8635 146.96 90.2739 149.781C91.6843 152.601 93.6481 155.11 96.0483 157.156Z" fill="white"/>
</svg>
