<svg width="240" height="224" viewBox="0 0 240 224" fill="none" xmlns="http://www.w3.org/2000/svg">
<path d="M52.0308 123.134H10.6314C4.76949 123.134 0 118.365 0 112.503V19.9263C0 19.6189 0.249609 19.3693 0.557409 19.3693H52.0308C52.3386 19.3693 52.5882 19.6192 52.5882 19.9263V122.577C52.5878 122.884 52.3386 123.134 52.0308 123.134ZM1.11446 20.4834V112.503C1.11446 117.751 5.38334 122.019 10.631 122.019H51.4734V20.4834H1.11446Z" fill="#362D60"/>
<path d="M93.6633 103.07L93.1599 103.96C92.3465 105.397 92.8521 107.221 94.2891 108.034L103.084 113.012C104.521 113.826 106.345 113.32 107.158 111.883L107.662 110.994L93.6633 103.07Z" fill="white"/>
<path d="M93.7768 107.743L79.6969 132.618C78.1614 135.331 79.1157 138.775 81.8287 140.31C84.5414 141.846 87.9854 140.891 89.5209 138.178L103.601 113.303L93.7768 107.743Z" fill="#1E90FF"/>
<path d="M104.551 113.956C103.96 113.956 103.361 113.809 102.811 113.497L94.0159 108.519C93.1918 108.052 92.5979 107.292 92.3451 106.379C92.0924 105.466 92.2098 104.51 92.6764 103.685L93.1798 102.796C93.3309 102.527 93.6713 102.434 93.9392 102.585C94.207 102.736 94.3013 103.076 94.1499 103.344L93.6468 104.234C93.3267 104.8 93.2461 105.456 93.4196 106.081C93.5935 106.708 94.0005 107.228 94.5656 107.549L103.36 112.527C104.526 113.186 106.014 112.776 106.675 111.609L107.178 110.719C107.33 110.45 107.67 110.357 107.938 110.508C108.206 110.66 108.3 111 108.148 111.268L107.645 112.158C106.993 113.309 105.789 113.956 104.551 113.956Z" fill="#362D60"/>
<path d="M84.5974 141.603C83.5404 141.603 82.4964 141.329 81.5513 140.795C80.1098 139.979 79.0724 138.65 78.63 137.054C78.1876 135.457 78.3937 133.785 79.2095 132.343L93.2894 107.468C93.4409 107.2 93.7795 107.106 94.0491 107.258L103.873 112.818C104.001 112.891 104.096 113.012 104.135 113.154C104.175 113.297 104.156 113.449 104.083 113.577L90.0032 138.452C89.1874 139.894 87.8588 140.932 86.2626 141.374C85.7126 141.527 85.1531 141.603 84.5974 141.603ZM93.9849 108.502L80.1795 132.892C79.5099 134.074 79.3413 135.447 79.7042 136.756C80.0674 138.065 80.9178 139.156 82.1003 139.824C83.2831 140.494 84.6542 140.663 85.965 140.3C87.2744 139.937 88.3643 139.086 89.0332 137.903L102.839 113.513L93.9849 108.502Z" fill="#362D60"/>
<path d="M114.166 110.721L116.38 111.975C123.563 116.04 137.083 92.1538 129.9 88.0879L127.686 86.8346C127.798 94.4331 120.734 106.913 114.166 110.721Z" fill="white"/>
<path d="M79.7748 37.0576L46.8035 95.3081L89.1417 100.457C98.4283 105.714 115.268 75.963 105.981 70.7066L79.7748 37.0576Z" fill="#1E90FF"/>
<path d="M89.1375 100.455L108.281 111.291C117.241 116.362 134.104 86.5706 125.144 81.4989L105.977 70.7042C110.625 73.3349 108.733 82.0823 104.52 89.5248C100.311 96.9611 93.7849 103.086 89.1375 100.455Z" fill="#D0E8FF"/>
<path d="M91.5098 101.637C90.6313 101.637 89.7784 101.435 88.9675 100.997L46.7366 95.8607C46.5522 95.8379 46.3905 95.725 46.3064 95.5585C46.223 95.3923 46.2272 95.1953 46.319 95.0333L79.29 36.7838C79.3819 36.6219 79.5488 36.5156 79.7342 36.5027C79.9214 36.4844 80.1002 36.5679 80.2148 36.7162L106.355 70.2796C111.347 73.2392 109.172 82.4486 105.012 89.799C101.512 95.9809 96.1608 101.636 91.5098 101.637ZM47.7003 94.8549L89.2094 99.9041C89.282 99.9129 89.3524 99.9353 89.4166 99.9721C93.67 102.383 99.9943 96.4006 104.042 89.2496C106.212 85.4151 107.625 81.5073 108.021 78.2449C108.318 75.7931 108.158 72.5794 105.707 71.1922C105.643 71.1557 105.587 71.1077 105.542 71.0495L79.8485 38.0595L47.7003 94.8549Z" fill="#362D60"/>
<path d="M49.8732 58.5847C40.7668 74.673 39.3863 91.1098 46.7878 95.2994C54.1898 99.4891 67.5713 89.8453 76.6781 73.757C85.7806 57.6753 87.1611 41.2385 79.7592 37.0489C72.3577 32.8592 58.9757 42.503 49.8732 58.5847Z" fill="white"/>
<path d="M50.6321 96.8132C49.1306 96.8132 47.7434 96.4805 46.5129 95.7839C42.7327 93.6447 40.9823 88.5215 41.5842 81.3573C42.1732 74.3445 44.9448 66.1594 49.3879 58.3098C58.6271 41.9852 72.3758 32.2271 80.0329 36.5633C87.6907 40.8977 86.4031 57.7054 77.1628 74.0311C69.4054 87.7362 58.4725 96.8121 50.6321 96.8132ZM75.7882 36.6113C68.4164 36.6113 57.9127 45.5109 50.3579 58.8584C45.9923 66.571 43.2708 74.5944 42.6948 81.4505C42.1315 88.1559 43.6827 92.9012 47.0619 94.8139C54.1858 98.8443 67.2518 89.2763 76.1927 73.4828C85.1305 57.6917 86.6068 41.5649 79.4839 37.5333C78.3828 36.91 77.1372 36.6113 75.7882 36.6113Z" fill="#362D60"/>
<path d="M45.3987 94.2793C45.8183 94.6701 46.2821 95.014 46.781 95.2963C54.1829 99.4859 67.5645 89.8421 76.6712 73.7538C85.7737 57.6721 87.1543 41.2353 79.7523 37.0457C79.2535 36.7631 78.7199 36.5423 78.1688 36.3838C83.9578 41.7812 82.1818 57.0825 73.698 72.0707C65.2107 87.0659 53.0057 96.4644 45.3987 94.2793Z" fill="#362D60"/>
<path d="M71.2929 78.937C71.1755 78.937 71.0595 78.8994 70.9634 78.829L60.413 71.0902C60.1852 70.9229 60.1185 70.6123 60.2577 70.3666L65.314 61.4334C65.4525 61.188 65.7536 61.0832 66.0144 61.194L78.0796 66.2562C78.2261 66.3179 78.3401 66.4392 78.3913 66.5896C78.4428 66.7403 78.4274 66.9058 78.3492 67.0439L71.7781 78.6537C71.6996 78.7922 71.5657 78.8907 71.4104 78.9243C71.3711 78.9324 71.3322 78.937 71.2929 78.937ZM61.4714 70.484L71.117 77.5592L77.0703 67.0411L66.04 62.4125L61.4714 70.484Z" fill="#362D60"/>
<path d="M61.2172 65.0089C59.8205 67.4765 59.6084 69.9978 60.7439 70.6404C61.8794 71.283 63.932 69.8039 65.3287 67.3359C66.725 64.8693 66.9367 62.348 65.8012 61.7054C64.6658 61.0628 62.6132 62.5423 61.2172 65.0089Z" fill="#D0E8FF"/>
<path d="M61.3394 71.3478C61.0267 71.3478 60.7329 71.2756 60.4679 71.1259C59.019 70.3049 59.1322 67.5578 60.7305 64.735C61.4446 63.4733 62.3501 62.4094 63.2794 61.7391C64.3326 60.9797 65.3243 60.7961 66.0738 61.2209C66.8234 61.6451 67.1764 62.5906 67.0677 63.8835C66.972 65.025 66.5257 66.3484 65.8116 67.6101C64.5061 69.9164 62.7343 71.3478 61.3394 71.3478ZM65.1967 62.1131C64.8584 62.1131 64.4118 62.2968 63.9312 62.6435C63.1287 63.2209 62.3368 64.1587 61.7005 65.2833C60.41 67.5627 60.2758 69.7363 61.0169 70.1559C61.7562 70.5783 63.5515 69.3408 64.8419 67.0614C65.4782 65.9364 65.8747 64.775 65.9571 63.7903C66.0251 62.9804 65.8635 62.3824 65.5252 62.191C65.4333 62.1384 65.3222 62.1131 65.1967 62.1131Z" fill="#362D60"/>
<path d="M118.154 112.992C117.421 112.992 116.732 112.816 116.103 112.459L113.888 111.205C113.621 111.054 113.527 110.714 113.678 110.446C113.83 110.178 114.169 110.084 114.438 110.235L116.652 111.489C117.801 112.143 119.219 111.981 120.862 111.013C125.926 108.032 131.432 98.3052 131.382 92.4279C131.366 90.5211 130.774 89.2237 129.623 88.5723L127.409 87.3194C127.141 87.168 127.047 86.8276 127.198 86.5601C127.35 86.2919 127.69 86.1979 127.958 86.3494L130.172 87.6023C131.673 88.4521 132.477 90.1176 132.496 92.4181C132.55 98.7238 126.86 108.775 121.427 111.973C120.276 112.652 119.172 112.992 118.154 112.992Z" fill="#362D60"/>
<path d="M50.94 69.494C50.6332 69.494 50.384 69.2458 50.3826 68.9384C50.3812 68.6309 50.6297 68.3803 50.9375 68.3792L55.6972 68.3617C55.6983 68.3617 55.6993 68.3617 55.6993 68.3617C56.0064 68.3617 56.2553 68.6099 56.2567 68.9173C56.2578 69.2248 56.0089 69.4754 55.7018 69.4765L50.9421 69.494C50.9414 69.494 50.941 69.494 50.94 69.494Z" fill="#1E1238"/>
<path d="M56.7183 62.9892C56.6257 62.9892 56.5314 62.9665 56.4452 62.9177L51.8513 60.3291C51.5831 60.1777 51.4881 59.838 51.6392 59.5698C51.7893 59.3009 52.13 59.2059 52.3979 59.3573L56.9917 61.9459C57.2599 62.0974 57.3549 62.4371 57.2038 62.7053C57.1021 62.8872 56.9132 62.9892 56.7183 62.9892Z" fill="#1E1238"/>
<path d="M60.9826 58.802C60.8571 58.802 60.7309 58.7603 60.6268 58.673L56.7484 55.4481C56.5114 55.2514 56.4795 54.9005 56.6762 54.6635C56.8722 54.4276 57.2238 54.3926 57.4608 54.5913L61.3395 57.8162C61.5765 58.0129 61.6084 58.3638 61.4117 58.6008C61.3013 58.7333 61.1425 58.802 60.9826 58.802Z" fill="#1E1238"/>
<path d="M235.243 49.8664C235.51 50.9384 235.249 52.077 234.554 52.9265C234.676 54.2541 234.037 55.5925 232.805 56.3032C232.438 56.5142 232.055 56.653 231.66 56.7196C231.594 56.842 231.521 56.964 231.438 57.0807C230.91 57.8302 230.144 58.3137 229.316 58.4911C229.216 58.7301 229.094 58.9633 228.938 59.1799C227.972 60.5573 226.2 61.0292 224.706 60.4069C223.512 61.5399 221.651 61.7061 220.257 60.7287C218.669 59.6066 218.286 57.4071 219.408 55.8187C219.414 55.8074 219.424 55.7966 219.436 55.7854L208.012 39.8387C207.846 39.8888 207.673 39.9165 207.496 39.9165C206.474 39.9165 205.646 39.0888 205.646 38.0669C205.646 37.8948 205.668 37.7282 205.719 37.567C205.163 37.2448 204.791 36.6506 204.791 35.9673C204.791 35.5954 204.902 35.2452 205.097 34.9566C205.008 34.7456 204.964 34.5177 204.964 34.2734C204.964 33.5624 205.364 32.9461 205.947 32.6404C205.936 32.5682 205.93 32.496 205.93 32.4238C205.93 31.4629 206.669 30.6744 207.613 30.591C207.613 30.5854 207.613 30.5854 207.613 30.5798C207.613 29.5579 208.441 28.7361 209.457 28.7361C209.518 28.7361 209.58 28.7418 209.641 28.7474C209.741 27.9418 210.424 27.3198 211.252 27.3202C211.502 27.3202 211.74 27.3756 211.951 27.4759C212.334 26.9426 212.957 26.604 213.662 26.604C213.862 26.604 214.062 26.6317 214.245 26.6874C214.734 26.3653 215.311 26.1819 215.939 26.1823C217 26.1823 217.938 26.7102 218.499 27.5211C218.866 27.2322 219.333 27.0545 219.838 27.0545C220.848 27.0545 221.698 27.7546 221.926 28.693C222.42 28.3765 223.009 28.1935 223.642 28.1935C224.865 28.1935 225.931 28.8879 226.458 29.8986C226.669 29.8489 226.897 29.8208 227.125 29.8208C228.18 29.8208 229.096 30.3929 229.585 31.2375C230.94 31.2932 232.073 32.2152 232.451 33.4594C232.456 33.4594 232.456 33.4594 232.462 33.4594C233.606 33.4594 234.539 34.387 234.539 35.5368C234.539 35.5645 234.539 35.587 234.534 35.6147C235.322 36.0368 235.861 36.8757 235.861 37.8362C235.861 38.1472 235.805 38.4473 235.694 38.7249C236.089 39.6248 236.077 40.6187 235.716 41.4797C235.833 41.6185 235.933 41.7686 236.027 41.9242C236.782 43.2294 236.605 44.8178 235.694 45.9231C236.388 47.2283 236.171 48.7943 235.243 49.8664Z" fill="#1E1238"/>
<path d="M221.683 69.1918C222.115 70.9271 221.692 72.7704 220.568 74.1461C220.765 76.2951 219.731 78.4623 217.735 79.6128C217.141 79.9546 216.521 80.1794 215.882 80.287C215.774 80.4851 215.658 80.6824 215.523 80.8717C214.668 82.0854 213.427 82.8675 212.087 83.155C211.925 83.5417 211.728 83.9192 211.476 84.2702C209.911 86.5001 207.043 87.264 204.624 86.2568C202.691 88.091 199.678 88.3603 197.422 86.7778C194.85 84.9611 194.23 81.4 196.047 78.829C196.056 78.8111 196.074 78.7929 196.092 78.775L177.598 52.958C177.328 53.039 177.049 53.0839 176.762 53.0839C175.107 53.0839 173.767 51.744 173.768 50.0893C173.768 49.8106 173.804 49.541 173.885 49.2802C172.985 48.7586 172.383 47.7966 172.383 46.6906C172.383 46.0883 172.563 45.5218 172.878 45.0541C172.734 44.7123 172.662 44.3438 172.662 43.948C172.662 42.7971 173.31 41.7991 174.254 41.3048C174.236 41.1877 174.227 41.0709 174.227 40.9538C174.227 39.3984 175.423 38.1216 176.952 37.9866C176.952 37.9779 176.952 37.9779 176.952 37.9687C176.952 36.3144 178.292 34.9836 179.937 34.984C180.036 34.984 180.135 34.9931 180.234 35.0019C180.396 33.6978 181.502 32.6909 182.842 32.6913C183.246 32.6913 183.633 32.781 183.975 32.943C184.595 32.0799 185.603 31.5312 186.744 31.5316C187.068 31.5316 187.392 31.5768 187.689 31.6666C188.48 31.1449 189.415 30.8483 190.431 30.8483C192.148 30.8483 193.668 31.703 194.576 33.0159C195.169 32.5482 195.925 32.2608 196.743 32.2608C198.38 32.2608 199.755 33.3942 200.124 34.9135C200.924 34.4013 201.877 34.1044 202.902 34.1048C204.88 34.1051 206.607 35.229 207.461 36.8655C207.803 36.7849 208.171 36.7396 208.54 36.7396C210.248 36.7396 211.732 37.6662 212.523 39.0331C214.717 39.1232 216.551 40.6159 217.163 42.6303C217.172 42.6303 217.172 42.6303 217.181 42.6303C219.033 42.6306 220.543 44.1321 220.543 45.9936C220.543 46.0385 220.543 46.0746 220.534 46.1195C221.811 46.8031 222.683 48.1608 222.683 49.7163C222.683 50.2201 222.593 50.7056 222.413 51.155C223.051 52.612 223.033 54.2211 222.448 55.615C222.637 55.8397 222.799 56.0827 222.952 56.3344C224.174 58.4472 223.886 61.019 222.411 62.8083C223.536 64.9208 223.185 67.4562 221.683 69.1918Z" fill="#1E1238"/>
<path d="M222.711 62.958C222.441 62.958 222.205 62.7621 222.161 62.4879C220.242 50.3253 213.609 40.3887 203.481 34.5079C203.215 34.3537 203.125 34.0126 203.279 33.7469C203.434 33.4794 203.774 33.3889 204.041 33.5449C214.464 39.5961 221.29 49.8138 223.262 62.3137C223.31 62.6176 223.103 62.903 222.798 62.951C222.769 62.9563 222.74 62.958 222.711 62.958Z" fill="#D0E8FF"/>
<path d="M224.97 61.167C224.7 61.167 224.464 60.971 224.421 60.6968C222.502 48.5342 215.868 38.5977 205.74 32.7169C205.474 32.5626 205.384 32.2215 205.538 31.9558C205.693 31.6883 206.033 31.5979 206.3 31.7539C216.724 37.805 223.55 48.0227 225.521 60.5226C225.57 60.8266 225.362 61.1119 225.057 61.1599C225.028 61.1652 224.999 61.167 224.97 61.167Z" fill="#D0E8FF"/>
<path d="M64.2551 123.134H10.6314C4.76949 123.134 0 118.366 0 112.503V10.6231C0 4.76578 4.76914 0.000488281 10.6314 0.000488281H155.869C161.725 0.000488281 166.49 4.76578 166.49 10.6231V49.9047C166.49 50.2122 166.241 50.4621 165.933 50.4621C165.625 50.4621 165.375 50.2122 165.375 49.9047V10.6231C165.375 5.38067 161.11 1.11495 155.868 1.11495H10.631C5.38334 1.11495 1.11446 5.38032 1.11446 10.6231V112.503C1.11446 117.751 5.38334 122.02 10.631 122.02H64.2551C64.5629 122.02 64.8125 122.27 64.8125 122.577C64.8125 122.885 64.5633 123.134 64.2551 123.134Z" fill="#362D60"/>
<path d="M165.933 20.4834H0.557409C0.249609 20.4834 0 20.2334 0 19.926V10.6226C0 4.76528 4.76914 0 10.6314 0H155.869C161.725 0 166.49 4.76528 166.49 10.6226V19.926C166.49 20.2338 166.241 20.4834 165.933 20.4834ZM1.11446 19.3689H165.376V10.6229C165.376 5.38054 161.111 1.11481 155.869 1.11481H10.6314C5.38369 1.11481 1.11481 5.38019 1.11481 10.6229V19.3689H1.11446Z" fill="#362D60"/>
<path d="M97.7109 124.914C99.2545 122.028 100.878 119.184 102.58 116.388C102.689 116.209 102.803 116.025 102.979 115.913C103.598 115.516 104.33 116.249 104.625 116.923C105.71 119.397 105.515 122.282 104.66 124.845C103.805 127.408 102.34 129.716 100.889 131.995" fill="white"/>
<path d="M112.049 136.432L97.7749 155.198C97.0846 154.913 96.3936 154.637 95.6932 154.351C95.4566 154.252 95.2098 154.152 94.9633 154.052C85.6413 150.244 76.3288 146.173 68.3937 139.998C67.3269 139.176 66.2752 138.284 65.5678 137.143C64.8508 135.992 64.5437 134.525 65.044 133.272C65.5436 132.028 67.3998 131.13 68.6791 131.561C67.3055 131.306 66.6542 129.681 66.6973 128.292C66.7278 127.613 66.8834 126.893 67.376 126.422C68.2622 125.583 69.8447 126.037 70.9914 126.468C69.5755 125.285 69.1075 123.115 69.9025 121.456C70.1199 120.995 70.4372 120.561 70.8831 120.309C72.0533 119.614 73.8089 120.335 75.1593 120.223C72.7541 119.626 71.5835 116.245 73.1229 114.286C74.8978 112.03 78.4287 112.527 81.119 113.532C90.0473 116.894 97.3626 123.337 104.498 129.747C105.212 130.39 105.927 131.023 106.641 131.666C107.87 132.774 109.11 133.863 110.351 134.942C110.913 135.442 111.475 135.942 112.049 136.432Z" fill="white"/>
<path d="M110.348 134.942L95.9543 154.459C95.7177 154.359 95.208 154.152 94.9612 154.052L104.495 129.747C105.21 130.39 105.925 131.023 106.639 131.666C107.867 132.775 109.107 133.863 110.348 134.942Z" fill="#1E1238"/>
<path d="M33.5012 156.023C40.9309 149.11 42.9227 139.173 37.9501 133.829C32.9774 128.485 22.9234 129.757 15.4937 136.67C8.06397 143.583 6.07214 153.519 11.0448 158.864C16.0174 164.208 26.0715 162.936 33.5012 156.023Z" fill="#1E90FF"/>
<path d="M20.8917 158.079C18.4115 158.079 16.1664 157.258 14.591 155.564C10.8613 151.557 12.2751 144.158 17.7412 139.071C20.3589 136.635 23.5129 135.076 26.6221 134.682C29.8127 134.277 32.5815 135.141 34.4174 137.114C38.1471 141.122 36.734 148.521 31.2672 153.607C28.111 156.544 24.2817 158.078 20.8917 158.079ZM28.1229 135.922C27.6907 135.922 27.2462 135.951 26.7904 136.009C23.9571 136.368 21.067 137.803 18.652 140.05C13.7254 144.635 12.3428 151.186 15.5698 154.654C18.7978 158.121 25.4299 157.211 30.3568 152.628C35.2833 148.044 36.6659 141.493 33.4386 138.025C32.158 136.649 30.3017 135.922 28.1229 135.922Z" fill="white"/>
<path d="M12.4322 133.37C5.00575 140.281 3.01487 150.215 7.9912 155.563L11.0531 158.854C6.07674 153.506 8.07323 143.578 15.4997 136.667C22.9261 129.757 32.9805 128.471 37.9568 133.819L34.8949 130.528C29.9186 125.18 19.8587 126.46 12.4322 133.37Z" fill="#362D60"/>
<path d="M25.937 150.589C25.1811 151.346 24.3237 151.741 23.3641 151.774C22.5768 151.803 21.7712 151.59 20.9477 151.137L19.4483 152.638C19.0202 153.067 18.6413 153.116 18.3103 152.785C18.1659 152.641 18.1291 152.452 18.201 152.221C18.2616 152.033 18.3671 151.862 18.5193 151.711L19.8444 150.383C19.7242 150.279 19.6106 150.174 19.5044 150.067C18.9252 149.489 18.5824 148.931 18.4762 148.392C18.3773 147.909 18.4776 147.518 18.7773 147.218C19.3491 146.645 19.8623 146.586 20.3177 147.04C20.4351 147.158 20.5768 147.418 20.7419 147.817C20.906 148.217 21.0297 148.459 21.1124 148.542C21.191 148.62 21.2958 148.705 21.4279 148.797L24.073 146.147C23.6127 145.6 23.3326 145.024 23.2299 144.418C23.0935 143.627 23.3161 142.941 23.8956 142.36C24.5557 141.699 25.3705 141.298 26.3408 141.155C27.2053 141.027 28.0253 141.114 28.7994 141.415L29.789 140.424C30.2567 139.956 30.6493 139.88 30.9662 140.197C31.2684 140.498 31.1857 140.884 30.718 141.352L29.9261 142.145C30.2241 142.498 30.4719 142.946 30.6718 143.489C30.9312 144.18 30.9214 144.665 30.6413 144.946C30.4134 145.174 30.1603 145.309 29.8819 145.351C29.6043 145.394 29.3834 145.333 29.219 145.168C29.0805 145.031 28.9259 144.8 28.7538 144.477C28.568 144.139 28.4165 143.904 28.3009 143.773L26.4593 145.617C26.4993 145.657 26.5298 145.69 26.5487 145.718C27.117 146.42 27.3726 147.171 27.3126 147.968C27.2478 148.863 26.7885 149.736 25.937 150.589ZM22.6567 149.425C23.5917 149.749 24.2847 149.687 24.7366 149.234C25.416 148.553 25.4868 147.851 24.9477 147.13L22.6567 149.425ZM27.1135 143.103C26.3938 142.88 25.8493 142.952 25.4812 143.32C25.165 143.636 25.2022 144.073 25.5899 144.628L27.1135 143.103Z" fill="#362D60"/>
<path d="M238.887 134.482L224.25 223.43H119.201L133.829 134.53C136.713 117.005 151.862 104.144 169.624 104.144H213.133C229.239 104.144 241.502 118.589 238.887 134.482Z" fill="#1E90FF"/>
<path d="M133.959 223.987C133.928 223.987 133.897 223.984 133.867 223.979C133.563 223.929 133.358 223.641 133.408 223.338L148.617 132.08C148.668 131.777 148.952 131.565 149.258 131.622C149.562 131.672 149.767 131.96 149.717 132.263L134.508 223.521C134.462 223.794 134.226 223.987 133.959 223.987Z" fill="#362D60"/>
<path d="M222.966 112.629C212.258 113.668 202.918 120.341 198.464 130.134L177.602 176.011L110.501 131.898L94.916 156.071C94.916 156.071 157.211 223.798 183.805 218.384C217.651 211.492 234.531 160.956 234.531 160.956" fill="#1E90FF"/>
<path d="M101.573 164.344C101.463 164.344 101.352 164.312 101.255 164.244C101.002 164.068 100.94 163.721 101.116 163.468L119.175 137.585C119.352 137.333 119.699 137.271 119.951 137.447C120.204 137.623 120.266 137.97 120.09 138.222L102.031 164.106C101.922 164.262 101.749 164.344 101.573 164.344Z" fill="white"/>
<path d="M97.709 161.01C97.599 161.01 97.4878 160.978 97.3907 160.91C97.1383 160.734 97.0763 160.387 97.2522 160.134L115.311 134.252C115.488 133.999 115.836 133.938 116.087 134.114C116.34 134.29 116.402 134.637 116.226 134.89L98.1665 160.772C98.0582 160.928 97.8847 161.01 97.709 161.01Z" fill="white"/>
<path d="M213.027 76.971C212.694 79.0228 211.308 80.7974 209.478 81.7955C207.704 82.7936 205.485 83.0709 203.489 82.627C202.379 86.2873 198.387 88.6719 194.949 90.3353C191.233 92.1657 187.241 93.7737 183.081 94.051C178.922 94.2726 174.486 92.8864 171.879 89.67C169.162 86.3427 168.774 81.7397 168.829 77.4695C169.106 65.0474 169.99 58.5818 174.648 47.0467C175.092 53.3131 182.083 54.7883 188.128 56.4518C192.73 57.7272 198.055 56.8956 202.103 59.5017C205.762 61.8863 207.371 66.9885 205.651 71.0365C207.426 69.9273 209.478 70.0938 211.086 71.3692C212.694 72.701 213.415 74.9191 213.027 76.971Z" fill="white"/>
<path d="M201.53 82.1818C198.949 89.1206 199.226 97.0754 202.283 103.818C202.31 113.956 177.626 114.021 177.599 103.883C177.69 103.475 177.647 102.931 177.738 102.523V88.7837" fill="white"/>
<path d="M180.639 219.242C165.617 219.242 142.433 201.609 125.027 186.184C124.796 185.98 124.775 185.628 124.979 185.398C125.184 185.166 125.535 185.145 125.766 185.35C144.305 201.778 169.403 220.745 183.693 217.836C216.832 211.087 233.831 161.28 233.999 160.777C234.096 160.485 234.409 160.329 234.704 160.425C234.996 160.523 235.153 160.838 235.056 161.131C234.886 161.639 217.686 212.051 183.915 218.928C182.875 219.14 181.78 219.242 180.639 219.242Z" fill="#362D60"/>
<path d="M177.599 176.57C177.491 176.57 177.384 176.539 177.292 176.478L131.634 146.458C131.377 146.289 131.305 145.944 131.474 145.686C131.643 145.428 131.989 145.359 132.246 145.527L177.361 175.189L197.955 129.901C198.083 129.62 198.413 129.497 198.693 129.624C198.973 129.752 199.097 130.081 198.97 130.362L178.105 176.243C178.038 176.391 177.909 176.503 177.753 176.548C177.702 176.563 177.65 176.57 177.599 176.57Z" fill="#362D60"/>
<path d="M192.677 90.5892C192.677 90.5892 186.665 98.41 177.742 98.3501V93.4277C177.742 93.4277 184.928 95.1525 192.677 90.5892Z" fill="#D0E8FF"/>
<path d="M78.733 121.735C78.6717 121.735 78.6089 121.725 78.5479 121.704C76.1924 120.874 75.1218 120.779 75.1113 120.778C74.8056 120.753 74.5763 120.486 74.5998 120.18C74.6236 119.875 74.8974 119.647 75.1951 119.667C75.2431 119.671 76.3926 119.763 78.9181 120.652C79.2084 120.755 79.3609 121.073 79.2585 121.363C79.1779 121.592 78.963 121.735 78.733 121.735Z" fill="#1E1238"/>
<path d="M74.919 127.995C74.8573 127.995 74.7945 127.985 74.7328 127.963C72.3248 127.109 71.2327 127.012 71.2219 127.011C70.9162 126.986 70.6869 126.719 70.7104 126.413C70.7339 126.107 70.9933 125.886 71.306 125.9C71.3544 125.904 72.5267 125.998 75.1058 126.913C75.3958 127.016 75.5476 127.334 75.4445 127.624C75.3628 127.853 75.1483 127.995 74.919 127.995Z" fill="#1E1238"/>
<path d="M72.7141 133.279C72.6549 133.279 72.5942 133.269 72.5346 133.249C69.4938 132.216 68.7597 132.179 68.7302 132.178C68.4309 132.168 68.1844 131.922 68.1834 131.623C68.183 131.323 68.4102 131.076 68.7092 131.064C68.8365 131.043 69.64 131.088 72.8932 132.194C73.1846 132.293 73.3402 132.609 73.2414 132.901C73.1632 133.132 72.9462 133.279 72.7141 133.279Z" fill="#1E1238"/>
<path d="M153.583 14.0214C153.44 14.0214 153.298 13.9674 153.189 13.8587L146.744 7.41455C146.527 7.19685 146.527 6.84347 146.744 6.62577C146.962 6.40807 147.315 6.40807 147.532 6.62577L153.977 13.0699C154.195 13.2876 154.195 13.641 153.977 13.8587C153.868 13.9674 153.726 14.0214 153.583 14.0214Z" fill="#1E90FF"/>
<path d="M147.138 14.0214C146.996 14.0214 146.853 13.9674 146.744 13.8587C146.527 13.641 146.527 13.2876 146.744 13.0699L153.189 6.62577C153.407 6.40807 153.759 6.40807 153.977 6.62577C154.195 6.84347 154.195 7.19685 153.977 7.41455L147.532 13.8587C147.423 13.9674 147.281 14.0214 147.138 14.0214Z" fill="#1E90FF"/>
<path d="M140.616 10.7996H131.012C130.704 10.7996 130.455 10.5497 130.455 10.2422C130.455 9.93477 130.704 9.68481 131.012 9.68481H140.616C140.924 9.68481 141.173 9.93477 141.173 10.2422C141.173 10.5497 140.924 10.7996 140.616 10.7996Z" fill="#1E90FF"/>
<path d="M43.1709 30.3702H10.1935C9.88573 30.3702 9.63647 30.1202 9.63647 29.8131C9.63647 29.5057 9.88608 29.2557 10.1935 29.2557H43.1709C43.4787 29.2557 43.7283 29.5057 43.7283 29.8131C43.7283 30.1206 43.4787 30.3702 43.1709 30.3702Z" fill="#1E90FF"/>
<path d="M33.708 40.0038H10.1957C9.88793 40.0038 9.63867 39.7539 9.63867 39.4464C9.63867 39.139 9.88828 38.889 10.1957 38.889H33.708C34.0158 38.889 34.2654 39.139 34.2654 39.4464C34.2651 39.7539 34.0158 40.0038 33.708 40.0038Z" fill="#1E90FF"/>
<path d="M43.171 40.0038H37.2857C36.9779 40.0038 36.7283 39.7538 36.7283 39.4464C36.7283 39.1389 36.9779 38.889 37.2857 38.889H43.171C43.4788 38.889 43.7284 39.1389 43.7284 39.4464C43.7284 39.7538 43.4788 40.0038 43.171 40.0038Z" fill="#1E90FF"/>
<path d="M39.4111 50.4616H10.1957C9.88793 50.4616 9.63867 50.2117 9.63867 49.9042C9.63867 49.5968 9.88828 49.3468 10.1957 49.3468H39.4111C39.7189 49.3468 39.9685 49.5968 39.9685 49.9042C39.9682 50.2117 39.7189 50.4616 39.4111 50.4616Z" fill="#1E90FF"/>
<path d="M31.9443 60.0949H19.0024C18.6946 60.0949 18.4453 59.845 18.4453 59.5375C18.4453 59.2301 18.6946 58.9801 19.0024 58.9801H31.9443C32.2521 58.9801 32.5017 59.2301 32.5017 59.5375C32.5017 59.8453 32.2521 60.0949 31.9443 60.0949Z" fill="#1E90FF"/>
<path d="M15.4223 60.0949H10.1935C9.88573 60.0949 9.63647 59.845 9.63647 59.5375C9.63647 59.2301 9.88608 58.9801 10.1935 58.9801H15.4223C15.7301 58.9801 15.9793 59.2301 15.9793 59.5375C15.9797 59.8453 15.7301 60.0949 15.4223 60.0949Z" fill="#1E90FF"/>
<path d="M189.553 119.155C188.441 119.155 187.4 118.588 186.91 117.672C186.731 117.34 186.624 116.97 186.586 116.556C186.227 116.849 185.799 117.102 185.291 117.265C184.104 117.644 182.782 117.457 181.839 116.782C181.188 116.316 180.734 115.614 180.549 114.864C180.038 115.175 179.454 115.375 178.946 115.473C177.933 115.675 176.839 115.328 176.169 114.596C175.673 114.055 175.429 113.323 175.47 112.616C174.851 112.672 174.238 112.616 173.614 112.445C172.514 112.141 171.666 111.275 171.504 110.288C171.409 109.709 171.58 109.087 171.962 108.607C171.353 108.276 170.83 107.745 170.49 107.075C169.928 105.972 170.045 104.562 170.783 103.565C170.965 103.319 171.316 103.266 171.562 103.45C171.81 103.633 171.861 103.982 171.679 104.229C171.195 104.883 171.114 105.845 171.483 106.571C171.876 107.342 172.637 107.861 173.385 107.872C173.401 107.87 173.418 107.87 173.437 107.872C173.742 107.877 173.985 108.127 173.983 108.432C173.981 108.736 173.735 108.983 173.431 108.986C173.417 108.986 173.403 108.985 173.387 108.986C173.136 108.993 172.952 109.164 172.862 109.266C172.659 109.501 172.558 109.831 172.603 110.107C172.694 110.664 173.232 111.184 173.909 111.371C174.634 111.569 175.342 111.573 176.073 111.38C176.285 111.325 176.509 111.397 176.647 111.567C176.785 111.736 176.811 111.97 176.715 112.166C176.459 112.684 176.574 113.39 176.99 113.843C177.404 114.294 178.088 114.504 178.734 114.38C179.427 114.246 180.27 113.87 180.59 113.335C180.73 113.098 181.021 113 181.275 113.103C181.529 113.204 181.672 113.476 181.612 113.743C181.44 114.506 181.8 115.384 182.488 115.876C183.152 116.352 184.097 116.477 184.953 116.203C185.685 115.969 186.278 115.453 186.875 114.528C187.024 114.298 187.321 114.21 187.571 114.322C187.822 114.435 187.954 114.714 187.88 114.979C187.616 115.929 187.62 116.638 187.892 117.147C188.232 117.78 189.071 118.143 189.894 118.014C190.653 117.892 191.414 117.378 191.98 116.605C192.725 115.587 193.2 114.742 193.431 114.021C193.517 113.752 193.786 113.591 194.068 113.644C194.345 113.698 194.538 113.95 194.517 114.233C194.466 114.916 194.544 115.5 194.749 115.965C194.977 116.484 195.384 116.872 195.837 117.004C196.69 117.249 197.635 116.58 198.053 115.789C198.579 114.795 198.799 113.298 198.828 112.318C198.837 112.022 199.075 111.785 199.371 111.778C199.638 111.763 199.917 111.995 199.94 112.291C199.987 112.89 200.65 113.405 201.322 113.355C201.99 113.304 202.629 112.76 202.876 112.032C203.115 111.327 203.032 110.296 202.674 109.522C202.556 109.267 202.646 108.964 202.885 108.815C203.123 108.666 203.435 108.719 203.612 108.937C204.095 109.532 205.079 109.731 205.9 109.394C206.1 109.313 206.367 109.17 206.508 108.951C206.6 108.808 206.658 108.602 206.685 108.323C206.807 107.029 206.153 105.564 204.936 104.406C204.713 104.194 204.704 103.841 204.917 103.618C205.128 103.395 205.481 103.385 205.704 103.598C207.189 105.011 207.95 106.772 207.794 108.429C207.75 108.895 207.639 109.253 207.446 109.554C207.206 109.926 206.828 110.22 206.321 110.427C205.592 110.724 204.791 110.744 204.089 110.525C204.166 111.184 204.116 111.845 203.931 112.39C203.539 113.546 202.525 114.38 201.408 114.466C200.811 114.517 200.231 114.326 199.772 113.989C199.63 114.798 199.395 115.635 199.039 116.309C198.421 117.48 196.981 118.493 195.525 118.074C194.759 117.85 194.088 117.23 193.729 116.415C193.692 116.332 193.659 116.247 193.628 116.159C193.414 116.506 193.166 116.872 192.879 117.263C192.13 118.286 191.132 118.944 190.07 119.114C189.897 119.142 189.724 119.155 189.553 119.155Z" fill="#362D60"/>
<path d="M176.522 77.4968C175.919 77.4968 175.306 77.3124 174.765 76.957C174.01 76.4616 173.502 75.7033 173.371 74.8777C173.151 73.4828 173.91 71.9634 175.402 70.8125C175.867 70.4528 176.362 70.144 176.841 69.8443C177.509 69.4264 178.139 69.032 178.666 68.5279C180.084 67.1712 180.664 65.0954 181.176 63.2644C181.275 62.9093 181.645 62.7021 182 62.8003C182.355 62.8995 182.563 63.2686 182.464 63.6248C181.934 65.5221 181.274 67.8842 179.591 69.494C178.964 70.0932 178.245 70.5433 177.55 70.9776C177.078 71.2728 176.633 71.5515 176.219 71.8709C175.807 72.1885 174.48 73.3286 174.692 74.6684C174.764 75.1228 175.058 75.5494 175.499 75.8386C175.94 76.1279 176.449 76.2295 176.894 76.1128C177.252 76.0241 177.617 76.2355 177.709 76.5934C177.801 76.9513 177.586 77.3159 177.228 77.4085C176.998 77.4681 176.761 77.4968 176.522 77.4968Z" fill="#362D60"/>
<path d="M184.288 70.5408C183.616 72.1506 183.621 73.6458 184.299 73.9287C184.949 74.2 186.044 73.1652 186.716 71.5553C187.377 69.9739 187.355 68.4388 186.706 68.1674C186.028 67.8842 184.949 68.9594 184.288 70.5408Z" fill="#362D60"/>
<path d="M174.625 62.7799C173.953 64.3897 173.958 65.8849 174.636 66.1678C175.286 66.4391 176.381 65.4043 177.054 63.7945C177.715 62.213 177.693 60.6779 177.043 60.4066C176.365 60.1233 175.286 61.1985 174.625 62.7799Z" fill="#362D60"/>
<path d="M192.932 68.7908C192.713 68.7908 192.498 68.6835 192.37 68.4861C191.191 66.6663 189.521 65.1897 187.54 64.2155C187.209 64.0525 187.072 63.6521 187.235 63.3205C187.399 62.9906 187.8 62.8529 188.13 63.0159C190.328 64.0963 192.182 65.7366 193.493 67.7587C193.693 68.0686 193.605 68.483 193.295 68.6842C193.183 68.7557 193.057 68.7908 192.932 68.7908Z" fill="#362D60"/>
<path d="M181.772 59.6518C181.649 59.6518 181.524 59.6178 181.413 59.5473C179.583 58.3796 177.45 57.7303 175.246 57.6676C174.877 57.657 174.586 57.3489 174.596 56.9797C174.607 56.6113 174.929 56.3396 175.284 56.3301C177.73 56.3999 180.098 57.1224 182.132 58.4188C182.443 58.6183 182.535 59.0309 182.336 59.3426C182.209 59.5431 181.993 59.6518 181.772 59.6518Z" fill="#362D60"/>
<path d="M180.198 83.8007C178.264 83.8007 176.313 83.0912 174.834 81.8477C174.552 81.61 174.516 81.1876 174.753 80.9057C174.991 80.6228 175.413 80.5871 175.695 80.8241C176.953 81.8821 178.61 82.4549 180.264 82.4637C181.908 82.4461 183.56 81.8141 184.796 80.7301C185.075 80.4865 185.496 80.5134 185.74 80.7911C185.983 81.0687 185.956 81.4919 185.678 81.7348C184.205 83.027 182.237 83.7801 180.278 83.8011C180.251 83.8007 180.224 83.8007 180.198 83.8007Z" fill="#362D60"/>
<path d="M19.7725 8.43715V12.047C19.7725 12.854 19.1156 13.5109 18.3085 13.5109H14.6991C13.8921 13.5109 13.2351 12.854 13.2351 12.047V8.43715C13.2351 7.63014 13.8921 6.97318 14.6991 6.97318H18.3085C19.1156 6.97318 19.7725 7.63014 19.7725 8.43715Z" fill="#D0E8FF"/>
<path d="M31.6536 8.43715V12.047C31.6536 12.854 30.9967 13.5109 30.1896 13.5109H26.5802C25.7732 13.5109 25.1162 12.854 25.1162 12.047V8.43715C25.1162 7.63014 25.7732 6.97318 26.5802 6.97318H30.1896C30.9967 6.97318 31.6536 7.63014 31.6536 8.43715Z" fill="white"/>
<path d="M43.5378 8.43715V12.047C43.5378 12.854 42.8808 13.5109 42.0738 13.5109H38.464C37.657 13.5109 37 12.854 37 12.047V8.43715C37 7.63014 37.657 6.97318 38.464 6.97318H42.0738C42.8811 6.97318 43.5378 7.63014 43.5378 8.43715Z" fill="#1E90FF"/>
<path d="M18.3125 14.0683H14.703C13.5886 14.0683 12.6816 13.1611 12.6816 12.0466V8.4375C12.6816 7.32304 13.5886 6.41577 14.703 6.41577H18.3125C19.4269 6.41577 20.3339 7.32304 20.3339 8.4375V12.0466C20.3339 13.1611 19.4269 14.0683 18.3125 14.0683ZM14.703 7.53023C14.2028 7.53023 13.7961 7.93689 13.7961 8.4375V12.0466C13.7961 12.5472 14.2028 12.9539 14.703 12.9539H18.3125C18.8127 12.9539 19.2194 12.5472 19.2194 12.0466V8.4375C19.2194 7.93689 18.8127 7.53023 18.3125 7.53023H14.703Z" fill="#362D60"/>
<path d="M30.1933 14.0683H26.5835C25.4691 14.0683 24.5625 13.1611 24.5625 12.0466V8.4375C24.5625 7.32304 25.4691 6.41577 26.5835 6.41577H30.1933C31.3078 6.41577 32.2144 7.32304 32.2144 8.4375V12.0466C32.2144 13.1611 31.3082 14.0683 30.1933 14.0683ZM26.5835 7.53023C26.0836 7.53023 25.6773 7.93689 25.6773 8.4375V12.0466C25.6773 12.5472 26.084 12.9539 26.5835 12.9539H30.1933C30.6933 12.9539 31.0999 12.5472 31.0999 12.0466V8.4375C31.0999 7.93689 30.6933 7.53023 30.1933 7.53023H26.5835Z" fill="#1E90FF"/>
<path d="M42.0739 14.0683H38.464C37.3496 14.0683 36.4434 13.1611 36.4434 12.0466V8.4375C36.4434 7.32304 37.3499 6.41577 38.464 6.41577H42.0739C43.1883 6.41577 44.0949 7.32304 44.0949 8.4375V12.0466C44.0949 13.1611 43.1883 14.0683 42.0739 14.0683ZM38.464 7.53023C37.9641 7.53023 37.5575 7.93689 37.5575 8.4375V12.0466C37.5575 12.5472 37.9641 12.9539 38.464 12.9539H42.0739C42.5738 12.9539 42.9804 12.5472 42.9804 12.0466V8.4375C42.9804 7.93689 42.5738 7.53023 42.0739 7.53023H38.464Z" fill="#362D60"/>
<path d="M206.134 80.3431C205.79 80.3431 205.497 80.0784 205.468 79.7292C205.438 79.3608 205.712 79.0379 206.08 79.0085C206.929 78.9387 207.694 78.6923 208.292 78.2961C208.939 77.8677 209.407 77.2427 209.577 76.5801C209.753 75.8965 209.596 75.1434 209.177 74.66C208.994 74.45 208.775 74.3031 208.56 74.2463C208.359 74.1941 208.148 74.2218 208.009 74.3203C207.708 74.5335 207.289 74.4612 207.077 74.1584C206.864 73.8572 206.936 73.439 207.238 73.2265C207.698 72.9037 208.32 72.8016 208.898 72.9524C209.379 73.0779 209.824 73.365 210.187 73.7829C210.896 74.6004 211.159 75.7994 210.873 76.9121C210.621 77.8909 209.95 78.8013 209.031 79.4109C208.245 79.9308 207.262 80.2519 206.19 80.3399C206.171 80.342 206.152 80.3431 206.134 80.3431Z" fill="#362D60"/>
<path d="M67.4271 177.219V183.459C67.4271 185.09 66.1051 186.412 64.4743 186.412H11.4384C9.80759 186.412 8.4856 185.09 8.4856 183.459V177.219C8.4856 175.588 9.80759 174.266 11.4384 174.266H64.4739C66.1051 174.265 67.4271 175.588 67.4271 177.219Z" fill="white"/>
<path d="M64.4736 186.969H11.4377C9.50225 186.969 7.92749 185.395 7.92749 183.459V177.219C7.92749 175.283 9.50225 173.709 11.4377 173.709H64.4736C66.4091 173.709 67.9838 175.283 67.9838 177.219V183.459C67.9838 185.394 66.4091 186.969 64.4736 186.969ZM11.4377 174.823C10.1168 174.823 9.04195 175.898 9.04195 177.219V183.459C9.04195 184.78 10.1168 185.854 11.4377 185.854H64.4736C65.7945 185.854 66.8694 184.78 66.8694 183.459V177.219C66.8694 175.898 65.7945 174.823 64.4736 174.823H11.4377Z" fill="#362D60"/>
<path d="M12.699 220.081V186.412H63.216V220.081C63.216 221.938 61.7106 223.443 59.854 223.443H16.0609C14.204 223.443 12.699 221.938 12.699 220.081Z" fill="white"/>
<path d="M59.8531 224H16.06C13.8987 224 12.1406 222.242 12.1406 220.081V186.411C12.1406 186.104 12.3902 185.854 12.698 185.854H63.215C63.5228 185.854 63.7724 186.104 63.7724 186.411V220.081C63.7721 222.242 62.014 224 59.8531 224ZM13.2551 186.969V220.081C13.2551 221.628 14.5133 222.886 16.06 222.886H59.8531C61.3994 222.886 62.6576 221.628 62.6576 220.081V186.969H13.2551Z" fill="#362D60"/>
<path d="M45.3353 174.265V195.185C45.3353 196.111 44.2181 196.578 43.5583 195.928L38.6966 191.133C38.2903 190.732 37.6375 190.732 37.2309 191.132L32.3569 195.931C31.6968 196.581 30.5806 196.114 30.5806 195.187V174.265L45.3353 174.265Z" fill="#1E90FF"/>
<path d="M31.6327 196.793C31.4227 196.793 31.2099 196.751 31.0041 196.665C30.398 196.411 30.0215 195.844 30.0215 195.188V174.266C30.0215 173.959 30.2711 173.709 30.5789 173.709H45.3336C45.6414 173.709 45.891 173.959 45.891 174.266V195.185C45.891 195.842 45.5145 196.408 44.908 196.662C44.3016 196.915 43.6341 196.787 43.1657 196.325L38.3037 191.531C38.1151 191.343 37.8087 191.343 37.6201 191.531L32.7465 196.329C32.4366 196.633 32.0404 196.793 31.6327 196.793ZM31.1359 174.823V195.188C31.1359 195.488 31.3645 195.607 31.4346 195.636C31.5054 195.666 31.7512 195.745 31.9643 195.534L36.838 190.736C37.4578 190.125 38.4656 190.125 39.0855 190.736L43.9475 195.531C44.1613 195.742 44.4064 195.661 44.4772 195.633C44.5473 195.604 44.7759 195.485 44.7759 195.184V174.823H31.1359V174.823Z" fill="#362D60"/>
<path d="M149.564 66.7175H114.319C111.672 66.7175 109.72 64.2439 110.337 61.6693L114.876 42.7115C115.269 41.0709 116.736 39.914 118.422 39.914H145.46C147.147 39.914 148.614 41.0712 149.007 42.7115L153.546 61.6693C154.162 64.2435 152.211 66.7175 149.564 66.7175Z" fill="white"/>
<path d="M149.561 67.2749H114.316C112.883 67.2749 111.552 66.6298 110.664 65.5038C109.776 64.3788 109.458 62.9334 109.792 61.5396L114.331 42.5818C114.786 40.6828 116.467 39.357 118.42 39.357H145.457C147.409 39.357 149.091 40.6832 149.546 42.5818L154.085 61.5396C154.419 62.9334 154.101 64.3788 153.213 65.5038C152.326 66.6295 150.994 67.2749 149.561 67.2749ZM118.42 40.4711C116.985 40.4711 115.749 41.4453 115.415 42.8413L110.876 61.799C110.623 62.8595 110.864 63.9582 111.539 64.8142C112.214 65.6693 113.226 66.1604 114.316 66.1604H149.561C150.651 66.1604 151.663 65.6693 152.339 64.8135C153.013 63.9585 153.255 62.8598 153.001 61.7993L148.462 42.8416C148.128 41.446 146.892 40.4714 145.458 40.4714H118.42V40.4711Z" fill="#362D60"/>
<path d="M135.561 52.3753C135.561 53.1981 135.241 53.88 134.601 54.4199C134.075 54.864 133.371 55.1862 132.488 55.3864V57.019C132.488 57.4849 132.259 57.718 131.801 57.718C131.602 57.718 131.447 57.6353 131.336 57.4698C131.248 57.3349 131.204 57.1841 131.204 57.019V55.576C131.049 55.5848 130.898 55.589 130.751 55.589C129.951 55.589 129.328 55.4716 128.882 55.2363C128.481 55.0267 128.28 54.7592 128.28 54.4328C128.28 53.8102 128.594 53.4986 129.223 53.4986C129.385 53.4986 129.662 53.5631 130.052 53.691C130.442 53.8201 130.695 53.8842 130.81 53.8842C130.918 53.8842 131.049 53.873 131.204 53.8513V50.971C130.508 50.9229 129.915 50.762 129.426 50.4879C128.785 50.131 128.465 49.6364 128.465 49.005C128.465 48.2867 128.751 47.6248 129.324 47.0197C129.834 46.4798 130.46 46.0812 131.204 45.8243V44.7463C131.204 44.2369 131.423 43.9827 131.86 43.9827C132.278 43.9827 132.487 44.2369 132.487 44.7463V45.609C132.937 45.6395 133.418 45.7482 133.931 45.9354C134.588 46.1706 134.916 46.4402 134.916 46.7452C134.916 46.9934 134.835 47.2048 134.671 47.3783C134.508 47.5533 134.313 47.6406 134.087 47.6406C133.896 47.6406 133.629 47.5988 133.287 47.5161C132.925 47.4334 132.658 47.3882 132.487 47.3783V49.3836C132.543 49.3836 132.587 49.3864 132.618 49.3906C133.498 49.4646 134.192 49.7345 134.702 50.2004C135.275 50.7228 135.561 51.4481 135.561 52.3753ZM131.205 47.6598C130.552 47.9298 130.226 48.2649 130.226 48.6656C130.226 49.0095 130.552 49.2272 131.205 49.3187V47.6598ZM132.488 53.5245C133.359 53.1936 133.795 52.7827 133.795 52.2898C133.795 51.5498 133.359 51.1301 132.488 51.0299V53.5245Z" fill="#362D60"/>
<path d="M149.565 66.7175H114.32C111.677 66.7175 109.716 64.2425 110.335 61.6735L110.912 59.2826C111.635 60.3732 112.873 61.1073 114.32 61.1073H149.564C151.001 61.1073 152.249 60.3732 152.972 59.2826L153.549 61.6735C154.168 64.2425 152.207 66.7175 149.565 66.7175Z" fill="#1E90FF"/>
<path d="M149.565 67.2749H114.32C112.886 67.2749 111.552 66.6271 110.662 65.4979C109.776 64.3729 109.459 62.931 109.794 61.5431L110.371 59.1522C110.422 58.9363 110.597 58.7726 110.815 58.7344C111.031 58.6926 111.254 58.7901 111.376 58.9748C112.031 59.9613 113.132 60.55 114.32 60.55H149.565C150.753 60.55 151.854 59.9613 152.509 58.9748C152.631 58.7901 152.851 58.6926 153.07 58.7344C153.288 58.7726 153.463 58.9373 153.515 59.1522L154.091 61.5431C154.426 62.931 154.109 64.3719 153.223 65.4979C152.333 66.6271 151 67.2749 149.565 67.2749ZM111.2 60.4651L110.876 61.8043C110.623 62.8578 110.864 63.9533 111.537 64.8083C112.214 65.6676 113.229 66.1605 114.32 66.1605H149.565C150.656 66.1605 151.67 65.6676 152.347 64.8083C153.021 63.9526 153.262 62.8578 153.008 61.8043L152.685 60.4651C151.841 61.2297 150.735 61.6641 149.565 61.6641H114.32C113.149 61.6641 112.043 61.2294 111.2 60.4651Z" fill="#362D60"/>
<path d="M139.466 45.6834C139.159 45.6834 138.909 45.4334 138.909 45.1263V35.7959C138.909 33.8692 138.159 32.0571 136.797 30.6955C135.436 29.3328 133.624 28.5833 131.696 28.5833C127.719 28.5833 124.483 31.8187 124.483 35.7963V45.1267C124.483 45.4341 124.234 45.6837 123.926 45.6837C123.618 45.6837 123.369 45.4338 123.369 45.1267V35.7963C123.369 31.2042 127.104 27.4688 131.696 27.4688C133.921 27.4688 136.013 28.3351 137.585 29.9067C139.158 31.4801 140.024 33.5716 140.024 35.7959V45.1263C140.024 45.4334 139.774 45.6834 139.466 45.6834Z" fill="#362D60"/>
</svg>
