<svg width="247" height="251" viewBox="0 0 247 251" fill="none" xmlns="http://www.w3.org/2000/svg">
<rect width="247" height="251" rx="30" fill="#1B65AD"/>
<path d="M60.3929 109.259L48.6875 115.071C47.6964 115.473 47 116.437 47 117.562V125.464L60.3929 133.634V109.259Z" fill="white"/>
<path d="M87.1787 90.0536H101.429V103.768H87.1787V90.0536Z" fill="white"/>
<path d="M96.0713 122.786C96.1192 126.301 101.362 126.31 101.428 122.786V109.125H96.0713V122.786Z" fill="white"/>
<path d="M135.393 115.152V78.6963C127.64 86.0608 117.332 89.1696 106.786 89.7852C106.786 89.7857 106.786 104.062 106.786 104.062C117.332 104.677 127.641 107.789 135.393 115.152Z" fill="white"/>
<path d="M143.429 124.634C144.902 124.634 146.107 123.429 146.107 121.955V71.8928C146.107 70.4196 144.902 69.2143 143.429 69.2143C141.955 69.2143 140.75 70.4196 140.75 71.8928V121.955C140.75 123.429 141.955 124.634 143.429 124.634Z" fill="white"/>
<path d="M84.5 148.312L103.411 159.83L115.089 152.143C115.973 151.554 117.286 151.554 118.17 152.143L129.848 159.83L148.786 148.312C154.236 144.984 162.084 140.203 167.536 136.875V56.3571C167.536 53.4106 165.125 51 162.179 51H71.1071C68.1608 51 65.75 53.4106 65.75 56.3571V136.902C71.1899 140.139 79.0647 145.021 84.5 148.312ZM81.8214 90.0535C81.8214 87.1071 84.2322 84.6963 87.1785 84.6963H103.946L111.902 83.8393C121.143 82.7946 129.687 78.0535 135.5 70.7947C136.062 66.8839 139.384 63.8571 143.429 63.8571C147.848 63.8571 151.464 67.4731 151.464 71.8928V121.955C151.464 126.375 147.848 129.991 143.429 129.991C139.384 129.991 136.062 126.964 135.5 123.053C128.56 114.135 117.848 109.946 106.786 109.447C106.786 109.446 106.786 122.786 106.786 122.786C106.786 127.205 103.17 130.821 98.75 130.821C94.3035 130.821 90.7143 127.205 90.7143 122.786V109.125H87.1785C84.2322 109.125 81.8214 106.741 81.8214 103.768V90.0535Z" fill="white"/>
<path d="M184.625 115.071L172.893 109.232V133.607L186.286 125.464V117.536C186.286 116.437 185.589 115.473 184.625 115.071Z" fill="white"/>
<path d="M164.429 182.705C167.326 184.652 164.426 189.086 161.482 187.152C152.919 181.491 124.681 162.86 116.643 157.527C108.709 162.765 80.1893 181.592 71.7768 187.152C68.8616 189.063 65.9025 184.675 68.8306 182.705C68.8304 182.705 98.4821 163.098 98.4821 163.098L47 131.732V187.607C47 195 53 201 60.3929 201H172.893C180.286 201 186.286 195 186.286 187.607V131.732L134.777 163.098L164.429 182.705Z" fill="white"/>
</svg>
