<svg width="245" height="286" viewBox="0 0 245 286" fill="none" xmlns="http://www.w3.org/2000/svg">
<path opacity="0.2" d="M107.498 123.285H10.0664C6.565 123.285 3.72668 120.447 3.72668 116.945V46.6348C3.72668 43.1335 6.565 40.2952 10.0664 40.2952H107.498C110.999 40.2952 113.837 43.1335 113.837 46.6348V116.945C113.837 120.447 110.999 123.285 107.498 123.285Z" fill="black"/>
<path d="M104.771 118.921H7.33968C3.83832 118.921 1 116.083 1 112.581V42.271C1 38.7696 3.83832 35.9313 7.33968 35.9313H104.771C108.272 35.9313 111.111 38.7696 111.111 42.271V112.581C111.111 116.083 108.272 118.921 104.771 118.921Z" fill="white" stroke="#263238" stroke-miterlimit="10" stroke-linecap="round" stroke-linejoin="round"/>
<path d="M36.6064 73.87L13.0514 81.5231C8.82468 68.5137 15.9438 54.5417 28.9532 50.3142C31.555 49.4687 33.8712 49.1024 36.6064 49.1024V73.87Z" fill="#1E90FF" stroke="#263238" stroke-miterlimit="10" stroke-linecap="round" stroke-linejoin="round"/>
<path d="M36.6057 73.87L51.1636 93.9073C40.0974 101.948 24.6086 99.4942 16.5683 88.428C14.9604 86.2149 13.8954 84.1256 13.0507 81.5239L36.6057 73.87Z" fill="white" stroke="#263238" stroke-miterlimit="10" stroke-linecap="round" stroke-linejoin="round"/>
<path d="M36.6116 73.87L60.1666 66.2161C63.5478 76.6237 60.022 87.4749 51.1695 93.9065L36.6116 73.87Z" fill="#263238" stroke="#263238" stroke-miterlimit="10" stroke-linecap="round" stroke-linejoin="round"/>
<path d="M36.6116 73.87V49.1024C47.5547 49.1024 56.7854 55.8092 60.1666 66.2161L36.6116 73.87Z" fill="white" stroke="#263238" stroke-miterlimit="10" stroke-linecap="round" stroke-linejoin="round"/>
<path d="M36.6331 89.312C45.1611 89.312 52.0743 82.3987 52.0743 73.8707C52.0743 65.3427 45.1611 58.4294 36.6331 58.4294C28.1051 58.4294 21.1918 65.3427 21.1918 73.8707C21.1918 82.3987 28.1051 89.312 36.6331 89.312Z" fill="white" stroke="#263238" stroke-miterlimit="10" stroke-linecap="round" stroke-linejoin="round"/>
<path d="M102.274 47.6005H68.3439V50.4076H102.274V47.6005Z" fill="#1E90FF" stroke="#263238" stroke-miterlimit="10" stroke-linecap="round" stroke-linejoin="round"/>
<path d="M94.9776 53.616H68.3439V56.4232H94.9776V53.616Z" fill="#263238" stroke="#263238" stroke-miterlimit="10" stroke-linecap="round" stroke-linejoin="round"/>
<path d="M87.917 59.6324H68.3439V62.4395H87.917V59.6324Z" fill="white" stroke="#263238" stroke-miterlimit="10" stroke-linecap="round" stroke-linejoin="round"/>
<path d="M96.1546 65.6487H68.3439V68.4558H96.1546V65.6487Z" fill="#1E90FF" stroke="#263238" stroke-miterlimit="10" stroke-linecap="round" stroke-linejoin="round"/>
<path d="M81.5625 71.6642H68.3439V74.4714H81.5625V71.6642Z" fill="#263238" stroke="#263238" stroke-miterlimit="10" stroke-linecap="round" stroke-linejoin="round"/>
<path d="M102.274 77.6805H68.3439V80.4884H102.274V77.6805Z" fill="white" stroke="#263238" stroke-miterlimit="10" stroke-linecap="round" stroke-linejoin="round"/>
<path d="M93.3303 83.6962H68.3439V86.5041H93.3303V83.6962Z" fill="#1E90FF" stroke="#263238" stroke-miterlimit="10" stroke-linecap="round" stroke-linejoin="round"/>
<path d="M90.1783 89.7125H68.3439V92.5196H90.1783V89.7125Z" fill="#263238" stroke="#263238" stroke-miterlimit="10" stroke-linecap="round" stroke-linejoin="round"/>
<path d="M102.274 95.7288H68.3439V98.5359H102.274V95.7288Z" fill="white" stroke="#263238" stroke-miterlimit="10" stroke-linecap="round" stroke-linejoin="round"/>
<path d="M23.9993 103.923H50.3044" stroke="#263238" stroke-miterlimit="10" stroke-linecap="round" stroke-linejoin="round"/>
<path d="M20.2811 107.632H54.0265" stroke="#263238" stroke-miterlimit="10" stroke-linecap="round" stroke-linejoin="round"/>
<path d="M69.2397 103.923H95.5447" stroke="#263238" stroke-miterlimit="10" stroke-linecap="round" stroke-linejoin="round"/>
<path d="M65.5215 107.632H99.2668" stroke="#263238" stroke-miterlimit="10" stroke-linecap="round" stroke-linejoin="round"/>
<path opacity="0.2" d="M108.043 230.529H24.3641C20.8627 230.529 18.0244 227.691 18.0244 224.19V164.245C18.0244 160.743 20.8627 157.905 24.3641 157.905H108.043C111.544 157.905 114.383 160.743 114.383 164.245V224.19C114.383 227.691 111.544 230.529 108.043 230.529Z" fill="black"/>
<path d="M104.77 226.711H21.0916C17.5903 226.711 14.752 223.873 14.752 220.372V160.426C14.752 156.925 17.5903 154.087 21.0916 154.087H104.77C108.272 154.087 111.11 156.925 111.11 160.426V220.372C111.11 223.873 108.272 226.711 104.77 226.711Z" fill="white" stroke="#263238" stroke-miterlimit="10" stroke-linecap="round" stroke-linejoin="round"/>
<path d="M21.3547 188.615H34.2076" stroke="#263238" stroke-miterlimit="10" stroke-linecap="round" stroke-linejoin="round"/>
<path d="M21.3547 191.517H41.6798" stroke="#263238" stroke-miterlimit="10" stroke-linecap="round" stroke-linejoin="round"/>
<path d="M21.3547 194.42H34.2076" stroke="#263238" stroke-miterlimit="10" stroke-linecap="round" stroke-linejoin="round"/>
<path d="M21.3547 197.322H39.8917" stroke="#263238" stroke-miterlimit="10" stroke-linecap="round" stroke-linejoin="round"/>
<path d="M21.3547 200.224H34.2076" stroke="#263238" stroke-miterlimit="10" stroke-linecap="round" stroke-linejoin="round"/>
<path d="M21.3547 203.127H44.0635" stroke="#263238" stroke-miterlimit="10" stroke-linecap="round" stroke-linejoin="round"/>
<path d="M53.5419 188.615H66.3955" stroke="#263238" stroke-miterlimit="10" stroke-linecap="round" stroke-linejoin="round"/>
<path d="M53.5419 191.517H73.8677" stroke="#263238" stroke-miterlimit="10" stroke-linecap="round" stroke-linejoin="round"/>
<path d="M53.5419 194.42H66.3955" stroke="#263238" stroke-miterlimit="10" stroke-linecap="round" stroke-linejoin="round"/>
<path d="M53.5419 197.322H72.0796" stroke="#263238" stroke-miterlimit="10" stroke-linecap="round" stroke-linejoin="round"/>
<path d="M53.5419 200.224H66.3955" stroke="#263238" stroke-miterlimit="10" stroke-linecap="round" stroke-linejoin="round"/>
<path d="M53.5419 203.127H76.2514" stroke="#263238" stroke-miterlimit="10" stroke-linecap="round" stroke-linejoin="round"/>
<path d="M85.7289 188.615H98.5818" stroke="#263238" stroke-miterlimit="10" stroke-linecap="round" stroke-linejoin="round"/>
<path d="M85.7289 191.517H106.055" stroke="#263238" stroke-miterlimit="10" stroke-linecap="round" stroke-linejoin="round"/>
<path d="M85.7289 194.42H98.5818" stroke="#263238" stroke-miterlimit="10" stroke-linecap="round" stroke-linejoin="round"/>
<path d="M85.7289 197.322H104.266" stroke="#263238" stroke-miterlimit="10" stroke-linecap="round" stroke-linejoin="round"/>
<path d="M85.7289 200.224H98.5818" stroke="#263238" stroke-miterlimit="10" stroke-linecap="round" stroke-linejoin="round"/>
<path d="M85.7289 203.127H108.438" stroke="#263238" stroke-miterlimit="10" stroke-linecap="round" stroke-linejoin="round"/>
<path d="M45.4021 179.079H20.5255V184.054H45.4021V179.079Z" fill="#263238"/>
<path d="M78.1547 179.079H53.2781V184.054H78.1547V179.079Z" fill="#263238"/>
<path d="M110.91 179.079H86.0329V184.054H110.91V179.079Z" fill="#263238"/>
<path d="M49.2794 178.785V203.967" stroke="#263238" stroke-miterlimit="10" stroke-linecap="round" stroke-linejoin="round"/>
<path d="M81.7625 178.785V203.967" stroke="#263238" stroke-miterlimit="10" stroke-linecap="round" stroke-linejoin="round"/>
<path d="M30.6849 167.283L36.0694 165.534C37.0357 168.508 35.4085 171.701 32.4345 172.668C29.4612 173.634 26.2669 172.006 25.3005 169.033C24.3341 166.059 25.9613 162.865 28.9354 161.899C29.5302 161.706 30.0597 161.621 30.6849 161.621V167.283Z" fill="#1E90FF" stroke="#263238" stroke-width="0.5" stroke-miterlimit="10"/>
<path d="M30.6838 167.283V161.621C33.1854 161.621 35.2955 163.154 36.0683 165.534L30.6838 167.283Z" fill="#263238" stroke="#263238" stroke-width="0.5" stroke-miterlimit="10"/>
<path d="M85.1793 167.283L90.5637 165.534C91.5301 168.508 89.9029 171.701 86.9289 172.668C83.9548 173.634 80.7613 172.006 79.7949 169.033C78.8285 166.059 80.4557 162.865 83.4297 161.899C84.0246 161.706 84.5541 161.621 85.1793 161.621V167.283Z" fill="#1E90FF" stroke="#263238" stroke-width="0.5" stroke-miterlimit="10"/>
<path d="M85.1782 167.283V161.621C87.6798 161.621 89.7898 163.154 90.5626 165.534L85.1782 167.283Z" fill="#263238" stroke="#263238" stroke-width="0.5" stroke-miterlimit="10"/>
<path d="M48.8524 167.283V172.944C45.7256 172.944 43.1906 170.409 43.1906 167.283C43.1906 164.156 45.7256 161.621 48.8524 161.621V167.283Z" fill="#1E90FF" stroke="#263238" stroke-width="0.5" stroke-miterlimit="10"/>
<path d="M48.8559 167.283V161.621C51.9827 161.621 54.517 164.156 54.517 167.283C54.517 170.41 51.982 172.944 48.8559 172.944V167.283Z" fill="#263238" stroke="#263238" stroke-width="0.5" stroke-miterlimit="10"/>
<path d="M67.0184 167.283L72.4028 169.033C71.4364 172.006 68.2428 173.634 65.2688 172.668C62.2947 171.701 60.6676 168.508 61.6339 165.534C62.4067 163.154 64.5168 161.621 67.0184 161.621V167.283Z" fill="#1E90FF" stroke="#263238" stroke-width="0.5" stroke-miterlimit="10"/>
<path d="M67.0198 167.283V161.621C70.1467 161.621 72.6816 164.156 72.6816 167.283C72.6816 167.908 72.5978 168.438 72.4043 169.033L67.0198 167.283Z" fill="#263238" stroke="#263238" stroke-width="0.5" stroke-miterlimit="10"/>
<path d="M103.34 167.283L108.725 169.033C107.758 172.006 104.565 173.634 101.591 172.668C98.6168 171.701 96.9896 168.508 97.956 165.534C98.7288 163.154 100.839 161.621 103.34 161.621V167.283Z" fill="#1E90FF" stroke="#263238" stroke-width="0.5" stroke-miterlimit="10"/>
<path d="M103.347 167.283V161.621C106.474 161.621 109.009 164.156 109.009 167.283C109.009 167.908 108.925 168.438 108.732 169.033L103.347 167.283Z" fill="#263238" stroke="#263238" stroke-width="0.5" stroke-miterlimit="10"/>
<path d="M104.465 218.661H99.5132V220.337H104.465V218.661Z" fill="#1E90FF" stroke="#263238" stroke-width="0.75" stroke-miterlimit="10" stroke-linecap="round" stroke-linejoin="round"/>
<path d="M98.9617 210.285H94.0097V220.336H98.9617V210.285Z" fill="#263238" stroke="#263238" stroke-width="0.75" stroke-miterlimit="10" stroke-linecap="round" stroke-linejoin="round"/>
<path d="M93.4617 213.893H88.5096V220.337H93.4617V213.893Z" fill="white" stroke="#263238" stroke-width="0.75" stroke-miterlimit="10" stroke-linecap="round" stroke-linejoin="round"/>
<path d="M87.9599 208.868H83.0079V220.337H87.9599V208.868Z" fill="#1E90FF" stroke="#263238" stroke-width="0.75" stroke-miterlimit="10" stroke-linecap="round" stroke-linejoin="round"/>
<path d="M82.4564 217.372H77.5043V220.336H82.4564V217.372Z" fill="#263238" stroke="#263238" stroke-width="0.75" stroke-miterlimit="10" stroke-linecap="round" stroke-linejoin="round"/>
<path d="M76.9516 216.47H71.9996V220.337H76.9516V216.47Z" fill="white" stroke="#263238" stroke-width="0.75" stroke-miterlimit="10" stroke-linecap="round" stroke-linejoin="round"/>
<path d="M71.4519 212.605H66.4999V220.337H71.4519V212.605Z" fill="#1E90FF" stroke="#263238" stroke-width="0.75" stroke-miterlimit="10" stroke-linecap="round" stroke-linejoin="round"/>
<path d="M65.9536 219.048H61.0016V220.336H65.9536V219.048Z" fill="#263238" stroke="#263238" stroke-width="0.75" stroke-miterlimit="10" stroke-linecap="round" stroke-linejoin="round"/>
<path d="M60.4459 210.285H55.4939V220.336H60.4459V210.285Z" fill="white" stroke="#263238" stroke-width="0.75" stroke-miterlimit="10" stroke-linecap="round" stroke-linejoin="round"/>
<path d="M54.9465 212.218H49.9945V220.336H54.9465V212.218Z" fill="#1E90FF" stroke="#263238" stroke-width="0.75" stroke-miterlimit="10" stroke-linecap="round" stroke-linejoin="round"/>
<path d="M49.4404 219.95H44.4883V220.337H49.4404V219.95Z" fill="#263238" stroke="#263238" stroke-width="0.75" stroke-miterlimit="10" stroke-linecap="round" stroke-linejoin="round"/>
<path d="M43.9407 219.821H38.9887V220.337H43.9407V219.821Z" fill="white" stroke="#263238" stroke-width="0.75" stroke-miterlimit="10" stroke-linecap="round" stroke-linejoin="round"/>
<path d="M38.4359 213.893H33.4839V220.337H38.4359V213.893Z" fill="#1E90FF" stroke="#263238" stroke-width="0.75" stroke-miterlimit="10" stroke-linecap="round" stroke-linejoin="round"/>
<path d="M32.9379 219.048H27.9858V220.336H32.9379V219.048Z" fill="#263238" stroke="#263238" stroke-width="0.75" stroke-miterlimit="10" stroke-linecap="round" stroke-linejoin="round"/>
<path d="M27.438 217.76H22.486V220.337H27.438V217.76Z" fill="white" stroke="#263238" stroke-width="0.75" stroke-miterlimit="10" stroke-linecap="round" stroke-linejoin="round"/>
<path opacity="0.2" d="M238.291 178.014H140.86C137.359 178.014 134.52 175.176 134.52 171.674V101.364C134.52 97.8625 137.359 95.0242 140.86 95.0242H238.291C241.793 95.0242 244.631 97.8625 244.631 101.364V171.674C244.631 175.176 241.793 178.014 238.291 178.014Z" fill="black"/>
<path d="M234.473 173.651H137.042C133.54 173.651 130.702 170.813 130.702 167.311V97.0008C130.702 93.4994 133.54 90.6611 137.042 90.6611H234.473C237.974 90.6611 240.813 93.4994 240.813 97.0008V167.311C240.813 170.813 237.974 173.651 234.473 173.651Z" fill="white" stroke="#263238" stroke-miterlimit="10" stroke-linecap="round" stroke-linejoin="round"/>
<path d="M233.88 155.592H228.169V161.925H233.88V155.592Z" fill="#1E90FF" stroke="#263238" stroke-width="0.75" stroke-miterlimit="10" stroke-linecap="round" stroke-linejoin="round"/>
<path d="M227.534 123.93H221.822V161.925H227.534V123.93Z" fill="#263238" stroke="#263238" stroke-width="0.75" stroke-miterlimit="10" stroke-linecap="round" stroke-linejoin="round"/>
<path d="M221.191 137.569H215.479V161.925H221.191V137.569Z" fill="white" stroke="#263238" stroke-width="0.75" stroke-miterlimit="10" stroke-linecap="round" stroke-linejoin="round"/>
<path d="M214.847 118.571H209.136V161.925H214.847V118.571Z" fill="#1E90FF" stroke="#263238" stroke-width="0.75" stroke-miterlimit="10" stroke-linecap="round" stroke-linejoin="round"/>
<path d="M208.496 150.721H202.785V161.925H208.496V150.721Z" fill="#263238" stroke="#263238" stroke-width="0.75" stroke-miterlimit="10" stroke-linecap="round" stroke-linejoin="round"/>
<path d="M202.144 147.311H196.433V161.925H202.144V147.311Z" fill="white" stroke="#263238" stroke-width="0.75" stroke-miterlimit="10" stroke-linecap="round" stroke-linejoin="round"/>
<path d="M195.806 132.697H190.095V161.925H195.806V132.697Z" fill="#1E90FF" stroke="#263238" stroke-width="0.75" stroke-miterlimit="10" stroke-linecap="round" stroke-linejoin="round"/>
<path d="M189.454 157.053H183.743V161.925H189.454V157.053Z" fill="#263238" stroke="#263238" stroke-width="0.75" stroke-miterlimit="10" stroke-linecap="round" stroke-linejoin="round"/>
<path d="M183.111 123.93H177.399V161.925H183.111V123.93Z" fill="white" stroke="#263238" stroke-width="0.75" stroke-miterlimit="10" stroke-linecap="round" stroke-linejoin="round"/>
<path d="M176.764 131.236H171.052V161.925H176.764V131.236Z" fill="#1E90FF" stroke="#263238" stroke-width="0.75" stroke-miterlimit="10" stroke-linecap="round" stroke-linejoin="round"/>
<path d="M170.416 160.464H164.704V161.925H170.416V160.464Z" fill="#263238" stroke="#263238" stroke-width="0.75" stroke-miterlimit="10" stroke-linecap="round" stroke-linejoin="round"/>
<path d="M164.073 159.976H158.361V161.925H164.073V159.976Z" fill="white" stroke="#263238" stroke-width="0.75" stroke-miterlimit="10" stroke-linecap="round" stroke-linejoin="round"/>
<path d="M157.727 137.569H152.015V161.925H157.727V137.569Z" fill="#1E90FF" stroke="#263238" stroke-width="0.75" stroke-miterlimit="10" stroke-linecap="round" stroke-linejoin="round"/>
<path d="M151.375 157.053H145.663V161.925H151.375V157.053Z" fill="#263238" stroke="#263238" stroke-width="0.75" stroke-miterlimit="10" stroke-linecap="round" stroke-linejoin="round"/>
<path d="M145.031 152.182H139.32V161.925H145.031V152.182Z" fill="white" stroke="#263238" stroke-width="0.75" stroke-miterlimit="10" stroke-linecap="round" stroke-linejoin="round"/>
<path d="M234.25 108H140.06V112.821H234.25V108Z" fill="#1E90FF" stroke="#263238" stroke-miterlimit="10"/>
<path d="M180.149 108.353H164.874V112.468H180.149V108.353Z" fill="#263238" stroke="#263238" stroke-miterlimit="10"/>
<path d="M209.461 108.353H180.769V112.468H209.461V108.353Z" fill="white" stroke="#263238" stroke-miterlimit="10"/>
<path opacity="0.2" d="M226.28 72.5216H149.856C146.354 72.5216 143.516 69.6833 143.516 66.1819V11.7036C143.516 8.20221 146.354 5.36389 149.856 5.36389H226.281C229.782 5.36389 232.621 8.20221 232.621 11.7036V66.1819C232.62 69.6833 229.782 72.5216 226.28 72.5216Z" fill="black"/>
<path d="M223.008 68.1577H146.583C143.082 68.1577 140.243 65.3194 140.243 61.8181V7.33968C140.243 3.83832 143.082 1 146.583 1H223.008C226.509 1 229.347 3.83832 229.347 7.33968V61.8181C229.348 65.3194 226.509 68.1577 223.008 68.1577Z" fill="white" stroke="#263238" stroke-miterlimit="10" stroke-linecap="round" stroke-linejoin="round"/>
<path d="M144.376 61.8707H228.035" stroke="#263238" stroke-width="0.5" stroke-miterlimit="10"/>
<path d="M144.375 61.8707V63.1086" stroke="#263238" stroke-width="0.5" stroke-miterlimit="10"/>
<path d="M149.952 61.8707V63.1086" stroke="#263238" stroke-width="0.5" stroke-miterlimit="10"/>
<path d="M155.529 61.8707V63.1086" stroke="#263238" stroke-width="0.5" stroke-miterlimit="10"/>
<path d="M161.107 61.8707V63.1086" stroke="#263238" stroke-width="0.5" stroke-miterlimit="10"/>
<path d="M166.684 61.8707V63.1086" stroke="#263238" stroke-width="0.5" stroke-miterlimit="10"/>
<path d="M172.261 61.8707V63.1086" stroke="#263238" stroke-width="0.5" stroke-miterlimit="10"/>
<path d="M177.839 61.8707V63.1086" stroke="#263238" stroke-width="0.5" stroke-miterlimit="10"/>
<path d="M183.416 61.8707V63.1086" stroke="#263238" stroke-width="0.5" stroke-miterlimit="10"/>
<path d="M188.993 61.8707V63.1086" stroke="#263238" stroke-width="0.5" stroke-miterlimit="10"/>
<path d="M194.57 61.8707V63.1086" stroke="#263238" stroke-width="0.5" stroke-miterlimit="10"/>
<path d="M200.146 61.8707V63.1086" stroke="#263238" stroke-width="0.5" stroke-miterlimit="10"/>
<path d="M205.725 61.8707V63.1086" stroke="#263238" stroke-width="0.5" stroke-miterlimit="10"/>
<path d="M211.302 61.8707V63.1086" stroke="#263238" stroke-width="0.5" stroke-miterlimit="10"/>
<path d="M216.88 61.8707V63.1086" stroke="#263238" stroke-width="0.5" stroke-miterlimit="10"/>
<path d="M222.455 61.8707V63.1086" stroke="#263238" stroke-width="0.5" stroke-miterlimit="10"/>
<path d="M228.034 61.8707V63.1086" stroke="#263238" stroke-width="0.5" stroke-miterlimit="10"/>
<path d="M147.159 60.8658H225.24V50.0724L219.72 39.3896C219.682 39.3169 219.656 39.2368 219.644 39.153L214.733 7.47763C214.612 6.6974 213.645 6.71372 213.544 7.49765L208.548 46.1676C208.523 46.3634 208.428 46.537 208.286 46.6467L203.472 50.3735C203.181 50.5998 202.785 50.4892 202.613 50.134L197.766 40.1283C197.564 39.7108 197.069 39.647 196.793 40.003L191.778 46.4739L186.2 53.6695L180.623 46.4739L175.71 40.1342C175.407 39.7441 174.857 39.865 174.697 40.3567L169.469 56.5471L163.891 27.6907L158.314 59.4255L152.737 55.1083L148.32 42.5721C148.07 41.8608 147.159 42.0692 147.159 42.8376V60.8658H147.159Z" fill="#1E90FF"/>
<path d="M225.24 60.8836H147.159V51.6017L152.679 42.4148C152.717 42.3525 152.743 42.2836 152.755 42.2116L157.666 14.9713C157.787 14.3001 158.754 14.3142 158.855 14.9884L163.851 48.2435C163.876 48.4119 163.972 48.5617 164.113 48.6559L168.927 51.8606C169.219 52.0549 169.614 51.96 169.786 51.6544L174.633 43.0497C174.836 42.6907 175.331 42.6359 175.606 42.9422L180.622 48.5075L186.2 54.6952L191.777 48.5075L196.69 43.0556C196.993 42.7204 197.543 42.8242 197.703 43.247L202.931 57.1701H208.509L214.086 59.645L219.663 55.9323L224.08 45.1516C224.33 44.5397 225.24 44.7192 225.24 45.38V60.8836Z" fill="#263238"/>
<path d="M189.452 9.95697H206.732" stroke="#263238" stroke-miterlimit="10" stroke-linecap="round" stroke-linejoin="round"/>
<path d="M189.452 14.0035H206.732" stroke="#263238" stroke-miterlimit="10" stroke-linecap="round" stroke-linejoin="round"/>
<path d="M189.452 18.0492H206.732" stroke="#263238" stroke-miterlimit="10" stroke-linecap="round" stroke-linejoin="round"/>
<path d="M189.452 22.0956H206.732" stroke="#263238" stroke-miterlimit="10" stroke-linecap="round" stroke-linejoin="round"/>
<path d="M189.452 26.1414H206.732" stroke="#263238" stroke-miterlimit="10" stroke-linecap="round" stroke-linejoin="round"/>
<path d="M189.452 30.1871H206.732" stroke="#263238" stroke-miterlimit="10" stroke-linecap="round" stroke-linejoin="round"/>
<path d="M185.526 9.95697H187.687" stroke="#263238" stroke-miterlimit="10" stroke-linecap="round" stroke-linejoin="round"/>
<path d="M185.526 14.0034H187.687" stroke="#263238" stroke-miterlimit="10" stroke-linecap="round" stroke-linejoin="round"/>
<path d="M185.526 18.0492H187.687" stroke="#263238" stroke-miterlimit="10" stroke-linecap="round" stroke-linejoin="round"/>
<path d="M185.526 22.0956H187.687" stroke="#263238" stroke-miterlimit="10" stroke-linecap="round" stroke-linejoin="round"/>
<path d="M185.526 26.1414H187.687" stroke="#263238" stroke-miterlimit="10" stroke-linecap="round" stroke-linejoin="round"/>
<path d="M185.526 30.1871H187.687" stroke="#263238" stroke-miterlimit="10" stroke-linecap="round" stroke-linejoin="round"/>
<path d="M121.521 286C145.868 286 165.605 276.205 165.605 264.121C165.605 252.038 145.868 242.242 121.521 242.242C97.1737 242.242 77.4366 252.038 77.4366 264.121C77.4366 276.205 97.1737 286 121.521 286Z" fill="#1E90FF"/>
<path opacity="0.5" d="M121.521 286C145.868 286 165.605 276.205 165.605 264.121C165.605 252.038 145.868 242.242 121.521 242.242C97.1737 242.242 77.4366 252.038 77.4366 264.121C77.4366 276.205 97.1737 286 121.521 286Z" fill="white"/>
<path d="M106.706 99.1879C106.706 99.1879 95.3917 139.557 95.3917 142.668C95.3917 145.312 99.0933 150.6 103.191 148.485C107.289 146.37 108.214 139.76 108.214 139.76L106.706 99.1879Z" fill="white" stroke="#263238" stroke-miterlimit="10" stroke-linecap="round" stroke-linejoin="round"/>
<path d="M136.983 264.554C136.983 264.554 131.193 272.375 130.755 275.658C130.318 278.942 134.794 279.218 136.764 277.686C138.734 276.154 142.852 266.14 142.852 266.14L136.983 264.554Z" fill="white" stroke="#263238" stroke-miterlimit="10" stroke-linecap="round" stroke-linejoin="round"/>
<path d="M105.374 245.715C105.374 245.715 95.4591 249.88 95.4591 252.259C95.4591 254.638 100.614 254.043 104.382 252.656C108.15 251.268 114.098 248.888 114.098 248.888C114.098 248.888 108.348 245.121 105.374 245.715Z" fill="white" stroke="#263238" stroke-miterlimit="10" stroke-linecap="round" stroke-linejoin="round"/>
<path d="M108.478 151.526L108.147 164.415C108.147 164.415 105.569 188.012 104.38 200.703C103.19 213.393 106.958 242.543 106.958 242.543L105.173 244.328V246.112L114.096 248.888C114.096 248.888 114.89 245.121 114.89 243.336C114.89 241.552 114.89 240.361 114.89 240.361L124.209 184.641C124.209 184.641 131.547 240.956 132.736 247.501C133.926 254.044 135.71 260.985 135.71 260.985L135.116 262.968L135.908 266.537L142.055 268.124C142.055 268.124 143.443 266.339 143.84 262.77C144.236 259.2 144.434 250.872 144.434 250.872C144.434 250.872 144.038 221.921 145.426 202.29C146.814 182.659 145.029 166.002 145.029 166.002L144.038 152.915C144.039 152.913 127.052 159.854 108.478 151.526Z" fill="#263238" stroke="#263238" stroke-miterlimit="10" stroke-linecap="round" stroke-linejoin="round"/>
<path d="M124.208 184.641L123.217 177.304L119.251 173.14" stroke="white" stroke-miterlimit="10" stroke-linecap="round" stroke-linejoin="round"/>
<path d="M138.091 158.664C138.091 158.664 135.315 163.82 142.851 166.2" stroke="white" stroke-miterlimit="10" stroke-linecap="round" stroke-linejoin="round"/>
<path d="M142.852 168.579V260.191" stroke="white" stroke-miterlimit="10" stroke-linecap="round" stroke-linejoin="round"/>
<path d="M117.864 159.854L118.658 164.613C118.658 164.613 116.675 168.183 117.468 169.769" stroke="white" stroke-miterlimit="10" stroke-linecap="round" stroke-linejoin="round"/>
<path d="M121.837 94.043C121.837 94.043 106.969 98.3951 106.705 99.1879C106.441 99.9807 108.478 151.525 108.478 151.525C108.478 151.525 112.444 157.606 123.284 158.532C134.124 159.457 144.436 153.772 144.436 153.772L151.574 106.843C151.574 106.843 134.521 95.2089 133.331 94.9449C132.142 94.6808 125.142 93.1174 121.837 94.043Z" fill="white" stroke="#263238" stroke-miterlimit="10" stroke-linecap="round" stroke-linejoin="round"/>
<path d="M120.812 103.956L124.344 112.616L130.383 105.779C130.383 105.779 129.927 101.449 125.939 100.994C121.952 100.538 120.812 103.956 120.812 103.956Z" fill="#263238" stroke="#263238" stroke-miterlimit="10" stroke-linecap="round" stroke-linejoin="round"/>
<path d="M121.835 94.043L115.568 103.956C115.568 103.956 119.214 103.044 120.923 104.526C122.632 106.007 124.569 107.602 124.569 107.602C124.569 107.602 127.531 105.209 129.925 106.007C132.317 106.804 134.482 108.513 134.482 108.513C134.482 108.513 135.963 98.7147 134.026 94.2707C132.09 89.8274 125.937 88.2321 121.835 94.043Z" fill="white" stroke="#263238" stroke-miterlimit="10" stroke-linecap="round" stroke-linejoin="round"/>
<path d="M123.431 95.1822C123.431 95.1822 123.089 100.196 123.317 103.842C123.545 107.488 124.684 108.286 126.052 105.892C127.419 103.5 130.496 96.2079 130.496 94.1565C130.496 92.1058 130.723 90.2828 130.723 90.2828C130.723 90.2828 125.938 95.4099 123.431 95.1822Z" fill="white" stroke="#263238" stroke-miterlimit="10" stroke-linecap="round" stroke-linejoin="round"/>
<path d="M124.343 112.615L118.418 142.809L122.406 152.836L127.306 144.632L124.343 112.615Z" fill="#263238" stroke="#263238" stroke-miterlimit="10" stroke-linecap="round" stroke-linejoin="round"/>
<path d="M135.976 140.157C135.976 140.157 122.624 132.093 121.435 131.035C120.245 129.978 120.245 130.771 119.32 131.299C118.394 131.828 114.957 135.927 114.296 137.248C113.635 138.57 112.578 140.421 113.9 140.685C115.221 140.95 116.279 138.438 116.279 138.041C116.279 137.644 118.262 135.397 118.262 135.397C118.262 135.397 116.279 140.156 116.94 140.553C117.6 140.95 122.096 142.8 123.02 142.8C123.945 142.8 124.607 141.082 124.607 141.082C124.607 141.082 125.929 142.8 127.251 142.668C128.573 142.536 129.498 141.875 129.498 141.875L133.992 145.445L135.976 140.157Z" fill="white" stroke="#263238" stroke-miterlimit="10" stroke-linecap="round" stroke-linejoin="round"/>
<path d="M135.977 140.157C135.977 140.157 134.315 139.154 132.115 137.809L130.158 142.398L133.994 145.444L135.977 140.157Z" fill="white" stroke="#263238" stroke-miterlimit="10" stroke-linecap="round" stroke-linejoin="round"/>
<path d="M118.659 141.479C118.659 141.479 119.056 137.248 120.775 134.869" stroke="#263238" stroke-miterlimit="10" stroke-linecap="round" stroke-linejoin="round"/>
<path d="M120.906 142.007C120.906 142.007 121.831 138.306 123.682 136.191" stroke="#263238" stroke-miterlimit="10" stroke-linecap="round" stroke-linejoin="round"/>
<path d="M146.022 109.222C146.022 109.222 140.999 113.321 139.809 119.931L148.137 143.594C148.137 143.594 138.222 139.495 137.032 139.363C135.842 139.231 131.612 145.048 132.801 146.37C133.991 147.691 157.257 160.779 158.712 159.06C160.166 157.342 152.763 110.544 151.969 108.826C151.177 107.107 151.705 106.182 148.929 105.785" fill="white"/>
<path d="M146.022 109.222C146.022 109.222 140.999 113.321 139.809 119.931L148.137 143.594C148.137 143.594 138.222 139.495 137.032 139.363C135.842 139.231 131.612 145.048 132.801 146.37C133.991 147.691 157.257 160.779 158.712 159.06C160.166 157.342 152.763 110.544 151.969 108.826C151.177 107.107 151.705 106.182 148.929 105.785" stroke="#263238" stroke-miterlimit="10" stroke-linecap="round" stroke-linejoin="round"/>
<path d="M148.137 143.594C148.137 143.594 152.896 144.651 154.218 147.163L148.137 143.594Z" fill="white"/>
<path d="M148.137 143.594C148.137 143.594 152.896 144.651 154.218 147.163" stroke="#263238" stroke-miterlimit="10" stroke-linecap="round" stroke-linejoin="round"/>
<path d="M94.9157 124.102L105.536 147.849C105.643 148.087 105.837 148.276 106.078 148.375L121.272 154.612C122.091 154.949 122.919 154.149 122.612 153.318L114.111 130.344C113.809 129.525 113.16 128.882 112.339 128.584L96.1898 122.731C95.3466 122.425 94.5493 123.282 94.9157 124.102Z" fill="#1E90FF" stroke="#263238" stroke-miterlimit="10" stroke-linecap="round" stroke-linejoin="round"/>
<path d="M98.9137 136.753C98.2729 136.625 97.6862 137.144 97.7463 137.793C97.7812 138.175 97.8806 138.544 98.1149 138.712C98.6956 139.126 103.093 139.458 102.927 138.628C102.796 137.979 100.528 137.075 98.9137 136.753Z" fill="white" stroke="#263238" stroke-miterlimit="10" stroke-linecap="round" stroke-linejoin="round"/>
<path d="M97.5242 135.152C96.7647 135 96.069 135.614 96.1402 136.386C96.1818 136.838 96.2997 137.276 96.5771 137.474C97.2653 137.965 102.478 138.359 102.282 137.375C102.128 136.604 99.4384 135.533 97.5242 135.152Z" fill="white" stroke="#263238" stroke-miterlimit="10" stroke-linecap="round" stroke-linejoin="round"/>
<path d="M97.1114 132.799C96.2852 132.634 95.5279 133.303 95.6058 134.141C95.651 134.633 95.7794 135.11 96.0812 135.325C96.8303 135.86 102.502 136.289 102.287 135.218C102.12 134.38 99.1947 133.214 97.1114 132.799Z" fill="white" stroke="#263238" stroke-miterlimit="10" stroke-linecap="round" stroke-linejoin="round"/>
<path d="M96.2555 130.552C95.4293 130.387 94.6721 131.055 94.7492 131.894C94.7944 132.386 94.9228 132.863 95.2246 133.078C95.9737 133.613 101.645 134.041 101.431 132.971C101.264 132.133 98.3381 130.966 96.2555 130.552Z" fill="white" stroke="#263238" stroke-miterlimit="10" stroke-linecap="round" stroke-linejoin="round"/>
<path d="M116.203 78.0425C116.203 78.0425 117.088 87.1159 119.08 91.3204C121.072 95.5248 121.736 97.5169 123.727 97.5169C125.719 97.5169 129.481 94.64 131.252 91.9842C133.022 89.3283 133.686 88.0007 133.686 88.0007L134.128 86.8942C134.128 86.8942 137.226 84.6811 137.891 83.1318C138.555 81.5824 137.227 80.4759 134.793 81.8042C134.793 81.8042 135.679 74.9439 133.907 70.7394C132.137 66.535 118.637 70.5184 116.203 78.0425Z" fill="white" stroke="#263238" stroke-miterlimit="10"/>
<path d="M113.79 81.4853L128.744 84.5394C128.744 84.5394 128.849 86.8564 127.27 87.5936C125.69 88.3308 123.689 87.9095 122.53 86.8564C121.372 85.8032 121.372 83.8022 121.372 83.8022C121.372 83.8022 120.424 83.065 120.319 83.8022C120.236 84.3859 119.558 86.2897 117.398 86.2215C115.983 86.177 114.73 85.2136 114.255 83.8801C114.038 83.2697 113.857 82.4821 113.79 81.4853Z" fill="white" stroke="#263238" stroke-miterlimit="10" stroke-linecap="round" stroke-linejoin="round"/>
<path d="M128.743 84.5394L134.956 81.2747" stroke="#263238" stroke-miterlimit="10" stroke-linecap="round" stroke-linejoin="round"/>
<path d="M113.79 81.4853L116.212 80.5375" stroke="#263238" stroke-miterlimit="10" stroke-linecap="round" stroke-linejoin="round"/>
<path d="M120.425 84.4341L119.372 88.3308L120.635 88.6467L120.951 91.7009L122.952 91.1743" fill="white"/>
<path d="M120.425 84.4341L119.372 88.3308L120.635 88.6467L120.951 91.7009L122.952 91.1743" stroke="#263238" stroke-miterlimit="10" stroke-linecap="round" stroke-linejoin="round"/>
<path d="M122.622 63.4371C122.622 63.4371 113.771 70.2974 112.885 74.5019C111.999 78.7063 117.753 80.4766 121.516 79.8129C125.278 79.1491 130.81 75.6084 130.81 75.6084C130.81 75.6084 127.712 80.4766 130.146 80.6984C132.58 80.9194 133.466 80.6984 133.466 80.6984C133.466 80.6984 132.138 83.3543 133.245 83.3543C134.352 83.3543 134.794 81.8049 134.794 81.8049C134.794 81.8049 137.892 74.5019 137.007 67.8633C136.122 61.224 127.933 59.2319 122.622 63.4371Z" fill="#263238" stroke="#263238" stroke-miterlimit="10"/>
</svg>
