<svg width="302" height="302" viewBox="0 0 302 302" fill="none" xmlns="http://www.w3.org/2000/svg">
<path d="M302 230.968H0V231.119H302V230.968Z" fill="#EBEBEB"/>
<path d="M83.1509 235.082H63.1452V235.233H83.1509V235.082Z" fill="#EBEBEB"/>
<path d="M127.981 240.615H103.369V240.766H127.981V240.615Z" fill="#EBEBEB"/>
<path d="M62.5406 238.723H31.6852V238.874H62.5406V238.723Z" fill="#EBEBEB"/>
<path d="M271.741 236.096H215.484V236.247H271.741V236.096Z" fill="#EBEBEB"/>
<path d="M210.106 236.096H206.281V236.247H210.106V236.096Z" fill="#EBEBEB"/>
<path d="M192.944 238.647H167.437V238.798H192.944V238.647Z" fill="#EBEBEB"/>
<path d="M143.156 204.031H26.5247C24.6239 204.031 23.077 202.484 23.077 200.584V36.6387C23.077 34.7379 24.6239 33.191 26.5247 33.191H143.156C145.057 33.191 146.603 34.7379 146.603 36.6387V200.584C146.603 202.484 145.057 204.031 143.156 204.031ZM26.5247 33.3426C24.7066 33.3426 23.228 34.8212 23.228 36.6393V200.584C23.228 202.402 24.7066 203.881 26.5247 203.881H143.156C144.974 203.881 146.452 202.402 146.452 200.584V36.6387C146.452 34.8212 144.974 33.342 143.156 33.342L26.5247 33.3426Z" fill="#EBEBEB"/>
<path d="M273.799 204.031H157.168C155.267 204.031 153.721 202.484 153.721 200.584V36.6387C153.721 34.7379 155.268 33.191 157.168 33.191H273.799C275.701 33.191 277.247 34.7379 277.247 36.6387V200.584C277.247 202.484 275.701 204.031 273.799 204.031ZM157.168 33.3426C155.351 33.3426 153.872 34.8212 153.872 36.6393V200.584C153.872 202.402 155.351 203.881 157.168 203.881H273.799C275.617 203.881 277.096 202.402 277.096 200.584V36.6387C277.096 34.8212 275.617 33.342 273.799 33.342L157.168 33.3426Z" fill="#EBEBEB"/>
<path d="M258.338 77.2159H219.523V138.964H258.338V77.2159Z" fill="#E0E0E0"/>
<path d="M260.679 77.2159H220.546V138.964H260.679V77.2159Z" fill="#F5F5F5"/>
<path d="M223.908 81.7185V134.462H257.317V81.7185H223.908Z" fill="white"/>
<path d="M224.518 166.935H213.334V229.171H224.518V166.935Z" fill="#F0F0F0"/>
<path d="M264.72 229.171H215.481V230.969H264.72V229.171Z" fill="#F0F0F0"/>
<path d="M224.519 229.17H266.868V166.935H224.519V229.17Z" fill="#F5F5F5"/>
<path d="M261.864 171.029V196.058H229.52V171.029H232.312C232.65 173.599 234.874 175.601 237.523 175.601H253.861C256.513 175.601 258.739 173.599 259.078 171.029H261.864ZM262.468 170.425H258.518C258.476 172.955 256.41 174.997 253.861 174.997H237.523C234.98 174.997 232.914 172.955 232.872 170.425H228.916V196.662H262.468V170.425Z" fill="#EBEBEB"/>
<path d="M261.864 200.045V225.075H229.52V200.045H232.313C232.657 202.615 234.88 204.617 237.523 204.617H253.861C256.507 204.617 258.733 202.615 259.077 200.045H261.864ZM262.468 199.441H258.518C258.47 201.978 256.404 204.013 253.861 204.013H237.523C234.986 204.013 232.92 201.978 232.872 199.441H228.916V225.679H262.468V199.441Z" fill="#EBEBEB"/>
<path d="M178.849 166.935H167.664V229.171H178.849V166.935Z" fill="#F0F0F0"/>
<path d="M219.051 229.171H169.812V230.969H219.051V229.171Z" fill="#F0F0F0"/>
<path d="M178.849 229.17H221.199V166.935H178.849V229.17Z" fill="#F5F5F5"/>
<path d="M216.196 171.029V196.058H183.852V171.029H186.638C186.977 173.599 189.202 175.601 191.855 175.601H208.193C210.845 175.601 213.071 173.599 213.409 171.029H216.196ZM216.8 170.425H212.85C212.807 172.955 210.742 174.997 208.193 174.997H191.855C189.306 174.997 187.24 172.955 187.198 170.425H183.248V196.662H216.8V170.425Z" fill="#EBEBEB"/>
<path d="M216.196 200.045V225.075H183.852V200.045H186.639C186.983 202.615 189.208 204.617 191.855 204.617H208.193C210.839 204.617 213.065 202.615 213.408 200.045H216.196ZM216.8 199.441H212.85C212.801 201.978 210.736 204.013 208.193 204.013H191.855C189.312 204.013 187.246 201.978 187.198 199.441H183.248V225.679H216.8V199.441Z" fill="#EBEBEB"/>
<path d="M136.734 166.35H130.93V230.967H136.734V166.35Z" fill="#E6E6E6"/>
<path d="M138.566 166.35H134.535V230.967H138.566V166.35Z" fill="#F0F0F0"/>
<path d="M82.3829 173.482H138.566V166.35H82.3829V173.482Z" fill="#F0F0F0"/>
<path d="M84.3691 173.482H78.5647V230.967H84.3691V173.482Z" fill="#E6E6E6"/>
<path d="M86.2011 173.482H82.17V230.967H86.2011V173.482Z" fill="#F0F0F0"/>
<path d="M43.0513 173.482H37.2469V230.967H43.0513V173.482Z" fill="#E6E6E6"/>
<path d="M44.8827 173.482H40.8516V230.967H44.8827V173.482Z" fill="#F0F0F0"/>
<path d="M100.001 173.482H94.1968V230.967H100.001V173.482Z" fill="#E6E6E6"/>
<path d="M101.833 173.482H97.8021V230.967H101.833V173.482Z" fill="#F0F0F0"/>
<path d="M82.3832 166.35H37.2469V173.482H82.3832V166.35Z" fill="#E6E6E6"/>
<path d="M186.516 47.9661H44.9805V126.761H186.516V47.9661Z" fill="#E0E0E0"/>
<path d="M194.288 47.9661H45.6951V126.761H194.288V47.9661Z" fill="#F5F5F5"/>
<path d="M191.861 124.333V50.3934L48.1231 50.3934V124.333L191.861 124.333Z" fill="white"/>
<path d="M106.321 124.333L133.459 50.3936H88.6721L61.5344 124.333H106.321Z" fill="#F5F5F5"/>
<path d="M149.431 124.333L176.569 50.3936H142.784L115.646 124.333H149.431Z" fill="#F5F5F5"/>
<path d="M51.0978 152.296V153.885H52.1156L52.9551 166.35H65.3347L66.1737 153.885H67.1914V152.296H51.0978Z" fill="#E6E6E6"/>
<path d="M54.7436 121.521C54.5467 114.556 61.1387 113.737 69.7952 115.006C78.0326 116.213 80.1659 112.593 80.1659 112.593C80.1659 112.593 82.2237 129.135 71.0642 133.03C60.4677 136.729 54.9411 128.496 54.7436 121.521Z" fill="#E6E6E6"/>
<path d="M59.0779 131.715C57.432 129.285 52.3832 127 48.3853 134.819C45.4945 140.473 41.8403 138.359 41.8403 138.359C41.8403 138.359 48.4922 148.27 56.1412 145.164C63.4049 142.214 61.9723 135.989 59.0779 131.715Z" fill="#E6E6E6"/>
<path d="M61.1267 143.097C61.5277 141.109 64.1376 138.307 68.7703 142.225C72.1201 145.059 73.8862 142.737 73.8862 142.737C73.8862 142.737 72.288 150.829 66.5838 150.888C61.1672 150.943 60.4212 146.593 61.1267 143.097Z" fill="#E6E6E6"/>
<path d="M58.678 156.976C58.5494 156.976 58.4219 156.922 58.3326 156.816C57.4821 155.811 58.1779 153.405 59.1407 150.074C60.3759 145.799 61.9137 140.48 60.6114 136.616C59.8764 134.436 58.9674 132.513 58.0879 130.654C56.2469 126.76 54.6572 123.398 55.983 119.886C56.0712 119.652 56.3321 119.535 56.5659 119.623C56.7996 119.711 56.9174 119.972 56.8292 120.206C55.6387 123.358 57.0805 126.407 58.9057 130.267C59.7544 132.062 60.7165 134.097 61.4685 136.327C62.8613 140.458 61.2801 145.929 60.0099 150.324C59.2609 152.916 58.486 155.596 59.0235 156.231C59.1848 156.422 59.1612 156.707 58.9704 156.869C58.8852 156.941 58.7813 156.976 58.678 156.976Z" fill="#E6E6E6"/>
<path d="M151 258.247C215.678 258.247 268.109 255.185 268.109 251.408C268.109 247.631 215.678 244.569 151 244.569C86.3225 244.569 33.8911 247.631 33.8911 251.408C33.8911 255.185 86.3225 258.247 151 258.247Z" fill="#F5F5F5"/>
<path d="M95.966 246.757C96.5573 246.956 97.1558 247.067 97.4349 246.865C97.5327 246.794 97.6372 246.654 97.5829 246.384C97.5527 246.233 97.4645 246.107 97.3213 246.011C96.6231 245.544 94.7096 245.921 94.6287 245.937C94.5822 245.947 94.546 245.984 94.5387 246.032C94.5315 246.08 94.5538 246.127 94.5955 246.151C94.8697 246.309 95.4145 246.571 95.966 246.757ZM96.9916 246.107C97.0683 246.133 97.1371 246.164 97.1945 246.203C97.2863 246.265 97.3395 246.338 97.3582 246.428C97.3908 246.59 97.3407 246.648 97.2996 246.677C96.9867 246.904 95.8198 246.518 95.0026 246.108C95.5021 246.032 96.4528 245.925 96.9916 246.107Z" fill="#407BFF"/>
<path d="M94.6154 246.16C94.6305 246.165 94.6468 246.167 94.6631 246.166C95.3015 246.103 96.7318 245.475 96.8194 244.924C96.8399 244.795 96.8031 244.613 96.5131 244.481C96.2969 244.383 96.0734 244.378 95.8463 244.465C95.101 244.75 94.5683 245.953 94.5453 246.004C94.529 246.041 94.5338 246.085 94.558 246.118C94.5731 246.138 94.593 246.152 94.6154 246.16ZM96.3555 244.666C96.3772 244.673 96.3984 244.682 96.4201 244.691C96.6098 244.777 96.5971 244.859 96.5929 244.886C96.5403 245.216 95.5335 245.75 94.8534 245.9C95.0321 245.556 95.441 244.867 95.9303 244.68C96.0771 244.624 96.2172 244.619 96.3555 244.666Z" fill="#407BFF"/>
<path d="M94.0966 245.878H88.7856C88.5869 245.878 88.4317 246.016 88.4129 246.21L87.9926 250.533C87.9491 250.981 88.3423 251.406 88.8001 251.398C90.7118 251.366 93.4666 251.253 95.8741 251.253C98.69 251.253 98.8929 251.407 102.195 251.407C104.192 251.407 104.493 249.388 103.635 249.205C99.7265 248.373 98.8567 248.283 95.3148 246.256C94.9307 246.037 94.5164 245.878 94.0966 245.878Z" fill="#263238"/>
<path d="M70.0024 247.046C70.6269 247.046 71.2418 246.961 71.4852 246.68C71.5704 246.581 71.6507 246.415 71.5492 246.176C71.4931 246.042 71.3831 245.952 71.2237 245.907C70.4463 245.687 68.6047 246.655 68.5268 246.697C68.4821 246.721 68.4525 246.768 68.4531 246.815C68.4537 246.862 68.4851 246.9 68.5304 246.909C68.8324 246.972 69.4213 247.046 70.0024 247.046ZM70.9126 246.103C70.9936 246.103 71.0678 246.112 71.1313 246.13C71.2333 246.159 71.2992 246.212 71.333 246.291C71.3934 246.434 71.3535 246.505 71.3179 246.546C71.0455 246.86 69.8152 246.868 68.9297 246.74C69.4147 246.508 70.3443 246.103 70.9126 246.103Z" fill="#407BFF"/>
<path d="M68.5534 246.912C68.5697 246.912 68.586 246.909 68.6023 246.902C69.2281 246.639 70.5454 245.586 70.5369 245.037C70.5351 244.908 70.4669 244.747 70.1552 244.715C69.9227 244.691 69.6992 244.758 69.4872 244.912C68.7938 245.42 68.4707 246.73 68.4568 246.786C68.4471 246.826 68.4592 246.867 68.4888 246.89C68.5069 246.905 68.5298 246.912 68.5534 246.912ZM70.0296 244.94C70.0519 244.94 70.0755 244.941 70.0984 244.944C70.3026 244.965 70.3038 245.046 70.3038 245.073C70.3086 245.403 69.3972 246.23 68.7455 246.59C68.8639 246.207 69.1526 245.423 69.6074 245.09C69.7445 244.99 69.8834 244.94 70.0296 244.94Z" fill="#407BFF"/>
<path d="M66.98 245.878H61.669C61.4703 245.878 61.2939 246.016 61.245 246.21L60.1584 250.533C60.0454 250.981 60.3734 251.406 60.8331 251.398C62.7502 251.366 65.5219 251.253 67.9295 251.253C70.7453 251.253 69.6345 251.407 72.9366 251.407C74.9334 251.407 75.5459 249.388 74.716 249.205C70.9356 248.373 71.3692 248.283 68.1409 246.256C67.7893 246.037 67.3997 245.878 66.98 245.878Z" fill="#263238"/>
<path d="M90.5034 122.731C90.5034 122.731 84.8608 160.088 82.6743 173.955C80.6497 186.799 72.3652 228.758 69.6672 241.725C69.4823 242.614 69.4352 243.438 68.9569 244.128C69.5977 244.953 69.0922 246.677 69.0922 246.677L60.609 247.534C60.609 247.534 59.7881 246.672 59.9959 245.126C60.0781 244.514 60.8784 243.383 61.0421 241.398C62.1208 228.318 66.9286 192.483 68.1493 175.072C69.2945 158.739 73.7176 122.73 73.7176 122.73H90.5034V122.731Z" fill="#407BFF"/>
<path opacity="0.3" d="M85.6967 141.336C80.0596 145.363 81.5448 162.434 82.4967 175.094C82.5547 174.693 82.6217 174.313 82.6761 173.953C83.869 166.382 86.0899 151.792 87.8639 140.114C87.5588 140.017 85.983 141.131 85.6967 141.336Z" fill="black"/>
<path d="M99.7312 122.731C99.7312 122.731 99.3713 159.094 98.9509 173.925C98.5788 187.043 98.5438 229.867 95.8663 242.066C95.5926 243.311 96.2268 243.554 96.1085 244.05C96.0638 244.238 96.033 244.411 96.0124 244.569C95.9254 245.248 95.4054 245.791 94.7368 245.942L88.5403 247.341C87.9943 247.464 87.4392 247.142 87.2967 246.601C87.1554 246.062 87.0364 245.262 87.069 244.128C87.0883 243.453 87.3879 242.033 87.3444 241.218C86.529 225.902 84.4929 187.16 84.113 175.102C83.5924 158.586 82.6314 122.73 82.6314 122.73H99.7312V122.731Z" fill="#407BFF"/>
<path d="M76.3849 87.8434C75.5066 89.4742 74.5898 91.2046 73.7164 92.8977C72.8358 94.5997 71.9775 96.3133 71.1524 98.0274C70.7411 98.8851 70.3364 99.7458 69.9529 100.608C69.5554 101.467 69.1804 102.327 68.8216 103.19C68.1197 104.914 67.4535 106.638 66.9643 108.318L64.1653 104.238C64.6993 104.349 65.2393 104.486 65.7847 104.523C66.3325 104.584 66.8864 104.589 67.4541 104.548C68.0255 104.52 68.6011 104.412 69.1864 104.27C69.4793 104.198 69.7717 104.113 70.0628 104.015C70.2035 103.966 70.3545 103.918 70.4898 103.863L70.6958 103.79L70.7906 103.757C70.8184 103.749 70.8559 103.731 70.851 103.755C71.5498 103.028 72.7059 103.005 73.4325 103.704C74.1597 104.403 74.1821 105.559 73.4833 106.285L73.2223 106.637C73.1462 106.74 73.0713 106.84 72.9946 106.93C72.84 107.12 72.6805 107.29 72.5187 107.469C72.1865 107.801 71.8404 108.126 71.4671 108.414C70.723 108.996 69.8979 109.493 69.0088 109.872C68.1191 110.235 67.1787 110.547 66.2117 110.682C65.2447 110.849 64.2674 110.881 63.2956 110.835C61.5929 110.756 60.2762 109.311 60.3559 107.607C60.3638 107.441 60.3843 107.278 60.4175 107.119L60.4966 106.754C60.9551 104.62 61.5657 102.623 62.2537 100.674C62.9302 98.722 63.7069 96.8454 64.5151 94.9857C65.316 93.1242 66.196 91.314 67.0953 89.5147C68.0116 87.7111 68.9339 85.9698 69.9879 84.1801C71.0213 82.4261 73.2809 81.842 75.0349 82.8755C76.7461 83.8836 77.3434 86.0586 76.4127 87.7927L76.3849 87.8434Z" fill="#FFC3BD"/>
<path d="M70.1123 104.2L72.9644 101.995L75.3599 107.056C75.3599 107.056 73.0103 108.504 70.8172 107.64L70.1123 104.2Z" fill="#FFC3BD"/>
<path d="M77.1375 99.1763L78.3557 104L75.3599 107.056L72.9644 101.995L77.1375 99.1763Z" fill="#FFC3BD"/>
<path d="M94.7018 64.0874C94.6692 64.4782 94.8504 64.8135 95.1059 64.8364C95.3614 64.8594 95.5951 64.5616 95.6271 64.1708C95.6597 63.78 95.4785 63.4448 95.223 63.4218C94.9676 63.3983 94.7344 63.6967 94.7018 64.0874Z" fill="#263238"/>
<path d="M94.8147 64.8098C94.8147 64.8098 95.5166 67.1443 96.405 68.3197C95.6597 68.9025 94.5085 68.5015 94.5085 68.5015L94.8147 64.8098Z" fill="#ED847E"/>
<path d="M119.597 86.8487L119.368 81.3384L113.573 82.9867C113.573 82.9867 113.718 85.8146 116.449 87.6369L119.597 86.8487Z" fill="#FFC3BD"/>
<path d="M117.384 77.3501L112.417 80.1037L113.573 82.9872L119.368 81.3389L117.384 77.3501Z" fill="#FFC3BD"/>
<path d="M117.288 74.498H111.971C111.703 74.498 111.463 74.7173 111.437 74.9849L110.454 85.219C110.428 85.4866 110.626 85.7059 110.894 85.7059H116.211C116.479 85.7059 116.719 85.4866 116.745 85.219L117.728 74.9849C117.754 74.7173 117.556 74.498 117.288 74.498Z" fill="#407BFF"/>
<path d="M116.924 74.498H111.607C111.339 74.498 111.099 74.7173 111.073 74.9849L110.09 85.219C110.064 85.4866 110.262 85.7059 110.53 85.7059H115.847C116.115 85.7059 116.355 85.4866 116.381 85.219L117.364 74.9849C117.39 74.7173 117.192 74.498 116.924 74.498Z" fill="#407BFF"/>
<path d="M110.525 85.4951C110.458 85.4951 110.398 85.4709 110.357 85.4256C110.315 85.3791 110.295 85.3151 110.302 85.245L111.285 75.0103C111.301 74.8472 111.451 74.7095 111.613 74.7095H116.93C116.997 74.7095 117.057 74.7336 117.097 74.7777C117.14 74.8242 117.16 74.8889 117.153 74.9595L116.17 85.1937C116.154 85.3568 116.004 85.4945 115.842 85.4945H110.525V85.4951Z" fill="white"/>
<path d="M115.551 80.0603C115.452 81.1167 114.554 81.9919 113.547 82.0148C112.539 82.0378 111.803 81.2 111.904 80.1436C112.003 79.0872 112.901 78.212 113.908 78.1891C114.915 78.1655 115.651 79.0039 115.551 80.0603Z" fill="#407BFF"/>
<path d="M118.468 82.873C118.105 82.6024 115.934 79.4254 115.73 78.7399C115.154 78.8842 114.763 79.7685 114.985 80.4365C115.206 81.1045 116.058 82.8495 116.058 82.8495C116.058 82.8495 115.65 84.9484 116.418 86.4107C117.187 87.8723 118.468 82.873 118.468 82.873Z" fill="#FFC3BD"/>
<path d="M93.4503 61.7887C93.3965 61.7723 93.3482 61.7373 93.3174 61.6854C93.2516 61.576 93.2872 61.4347 93.3965 61.3701C94.4886 60.7208 95.4501 61.181 95.4912 61.201C95.6054 61.2571 95.6537 61.3954 95.5981 61.5096C95.5426 61.6232 95.4036 61.6691 95.2913 61.6147C95.2599 61.5996 94.5055 61.2493 93.6339 61.7663C93.5765 61.8001 93.5101 61.8062 93.4503 61.7887Z" fill="#263238"/>
<path d="M81.8777 68.4828C82.6012 72.041 83.0585 76.9702 80.5863 79.3445C80.5863 79.3445 81.5853 82.9534 88.1967 82.9534C95.4664 82.9534 91.6709 79.786 91.6709 79.786C88.6425 78.848 88.6437 75.4064 89.3147 72.6419L81.8777 68.4828Z" fill="#FFC3BD"/>
<path d="M79.243 81.7237C78.5889 80.8068 78.5937 77.91 79.2811 77.3991C80.3906 76.574 85.1622 76.3843 91.6033 77.8629C90.9316 80.6685 92.4247 82.1399 92.4247 82.1399L79.243 81.7237Z" fill="#407BFF"/>
<path d="M71.8869 80.4437C67.3363 81.4887 64.2795 93.6514 64.2795 93.6514L72.8684 100.102C72.8684 100.102 76.2049 96.9347 77.6575 91.114C79.179 85.0148 76.5395 79.3753 71.8869 80.4437Z" fill="#263238"/>
<path opacity="0.1" d="M71.8869 80.4437C67.3363 81.4887 64.2795 93.6514 64.2795 93.6514L72.8684 100.102C72.8684 100.102 76.2049 96.9347 77.6575 91.114C79.179 85.0148 76.5395 79.3753 71.8869 80.4437Z" fill="white"/>
<path d="M98.7129 83.944C101.212 86.7284 103.594 89.5503 105.989 92.2906C107.179 93.6647 108.379 95.0129 109.587 96.2952C110.781 97.5702 112.034 98.8211 113.184 99.7192C113.463 99.9385 113.736 100.134 113.946 100.263C114.145 100.396 114.326 100.446 114.134 100.419C114.039 100.414 113.807 100.394 113.449 100.495C113.277 100.545 113.081 100.634 112.911 100.739C112.75 100.837 112.552 101.022 112.586 101.001C112.53 101.096 112.666 100.978 112.786 100.77C113.059 100.351 113.345 99.6274 113.576 98.8815C113.806 98.1223 114.018 97.3026 114.204 96.4613C114.922 93.0795 115.392 89.4096 115.836 85.823L119.487 85.7354C120.017 89.5533 120.244 93.3108 119.97 97.2736C119.895 98.266 119.791 99.2735 119.593 100.317C119.386 101.367 119.152 102.435 118.6 103.678C118.306 104.296 117.949 104.977 117.232 105.725C117.103 105.867 116.73 106.207 116.369 106.421C116.004 106.653 115.589 106.827 115.195 106.936C114.39 107.16 113.684 107.137 113.133 107.062C112.023 106.892 111.344 106.561 110.728 106.261C110.122 105.951 109.622 105.633 109.149 105.312C107.307 104.02 105.891 102.68 104.478 101.328C103.09 99.9687 101.784 98.5861 100.504 97.2C97.9609 94.4167 95.5461 91.5912 93.1664 88.8001L98.7129 83.944Z" fill="#FFC3BD"/>
<path opacity="0.4" d="M75.8564 89.0012C73.3981 91.451 72.6232 95.9128 72.4601 99.7923L72.866 100.103C72.866 100.103 76.2061 96.9323 77.6593 91.1128C77.7493 90.7486 77.826 90.3844 77.8894 90.0268L75.8564 89.0012Z" fill="#263238"/>
<path d="M63.9473 92.9895L63.7709 93.4594C63.6688 93.7318 63.7588 94.0398 63.992 94.2162L72.2064 100.431C72.4896 100.645 72.8907 100.597 73.1118 100.323L73.1444 100.283C73.3703 100.004 73.3268 99.593 73.0477 99.3629L64.9771 92.7183C64.6292 92.4314 64.1049 92.5691 63.9473 92.9895Z" fill="#407BFF"/>
<path d="M100.727 85.3204C101.759 90.5746 102.667 109.102 99.9372 130.469H72.2535C72.0451 126.476 75.8763 99.259 71.8875 80.4444C71.8875 80.4444 76.3395 79.5492 80.5875 79.3445C83.9101 79.1844 88.7215 79.0781 91.6455 79.3451C92.8662 79.4562 94.0645 79.6326 95.1324 79.821C97.9482 80.3187 100.176 82.5137 100.727 85.3204Z" fill="#263238"/>
<path opacity="0.1" d="M100.727 85.3204C101.759 90.5746 102.667 109.102 99.9372 130.469H72.2535C72.0451 126.476 75.8763 99.259 71.8875 80.4444C71.8875 80.4444 76.3395 79.5492 80.5875 79.3445C83.9101 79.1844 88.7215 79.0781 91.6455 79.3451C92.8662 79.4562 94.0645 79.6326 95.1324 79.821C97.9482 80.3187 100.176 82.5137 100.727 85.3204Z" fill="white"/>
<path opacity="0.4" d="M101.473 92.4109L97.2053 93.431C96.9559 96.6473 99.5887 100.371 101.738 102.84C101.754 98.8302 101.65 95.3022 101.473 92.4109Z" fill="#263238"/>
<path d="M81.7308 62.0822C81.6276 66.907 81.3219 69.724 83.5422 72.4052C86.8824 76.4387 92.9912 74.7765 94.5344 70.0901C95.923 65.8723 95.859 58.6908 91.3175 56.3569C86.8437 54.0587 81.8341 57.2575 81.7308 62.0822Z" fill="#FFC3BD"/>
<path d="M92.1589 65.6905C92.1589 65.6905 94.0718 67.2332 94.108 64.8099C94.1442 62.3867 93.8459 61.3436 93.8459 61.3436C93.8459 61.3436 95.0865 61.262 94.9784 59.2042C94.8703 57.1464 91.7222 54.0478 86.8147 54.8059C81.9066 55.5639 82.2316 58.0185 82.2316 58.0185C82.2316 58.0185 77.6834 58.3072 80.2462 65.6899C82.1095 71.0577 82.3922 72.0416 82.3922 72.0416C82.3922 72.0416 86.9246 72.9995 87.9351 71.9528C88.9462 70.9061 90.246 65.0237 92.1589 65.6905Z" fill="#263238"/>
<path d="M80.8309 61.0239C76.1161 63.4109 72.262 67.2361 81.9713 67.2246C91.6812 67.2125 94.1443 59.9688 94.1443 59.9688L80.8309 61.0239Z" fill="#407BFF"/>
<path opacity="0.2" d="M80.8309 61.0239C76.1161 63.4109 72.262 67.2361 81.9713 67.2246C91.6812 67.2125 94.1443 59.9688 94.1443 59.9688L80.8309 61.0239Z" fill="white"/>
<path d="M95.1644 59.0658C94.5471 60.1923 92.0049 62.3147 90.2949 63.2896C88.585 64.2644 85.0873 64.6051 83.7476 64.5532C82.4079 64.5012 79.5963 64.192 79.2351 63.2896C78.8739 62.3872 78.918 59.6795 79.0346 57.911C79.1506 56.1425 83.9566 53.0741 85.8676 52.6767C87.7787 52.2799 91.8962 53.471 93.1211 54.5539C94.346 55.6369 95.1644 59.0658 95.1644 59.0658Z" fill="#407BFF"/>
<path d="M89.4747 64.6365C89.4506 65.8983 89.9416 67.1299 90.5843 67.9628C91.5507 69.2155 92.7128 68.5861 93.0124 67.1866C93.2824 65.9267 93.1048 63.7571 91.8611 63.0057C90.6362 62.2658 89.5025 63.1936 89.4747 64.6365Z" fill="#FFC3BD"/>
<path d="M90.5444 86.9157C88.2583 93.2003 102.45 100.816 102.45 100.816L107.888 92.9775C107.888 92.9775 103.874 85.1019 98.9914 81.5516C92.961 77.1659 92.2845 82.1314 90.5444 86.9157Z" fill="#263238"/>
<path opacity="0.1" d="M90.5444 86.9157C88.2583 93.2003 102.45 100.816 102.45 100.816L107.888 92.9775C107.888 92.9775 103.874 85.1019 98.9914 81.5516C92.961 77.1659 92.2845 82.1314 90.5444 86.9157Z" fill="white"/>
<path d="M107.989 92.281L108.295 92.6827C108.472 92.9152 108.475 93.2359 108.303 93.4697L102.823 100.906C102.629 101.169 102.27 101.247 101.982 101.09L101.9 101.046C101.558 100.86 101.45 100.42 101.666 100.1L106.922 92.3064C107.173 91.9349 107.716 91.9222 107.989 92.281Z" fill="#407BFF"/>
<path d="M230.548 68.7074H145.701C141.43 68.7074 137.747 72.2021 137.517 76.473L128.727 239.778C128.497 244.049 131.804 247.543 136.075 247.543H220.922C225.193 247.543 228.876 244.049 229.106 239.778L237.896 76.473C238.126 72.2021 234.819 68.7074 230.548 68.7074Z" fill="#263238"/>
<path d="M157.614 66.594H153.426V67.198H157.614V66.594Z" fill="#407BFF"/>
<path d="M135.716 72.1146L135.195 71.8101C137.068 68.5932 140.488 66.594 144.119 66.594H150.717V67.198H144.119C140.702 67.198 137.482 69.0819 135.716 72.1146Z" fill="#407BFF"/>
<path d="M228.966 68.7074H144.119C139.848 68.7074 136.165 72.2021 135.936 76.473L127.146 239.778C126.915 244.049 130.222 247.543 134.493 247.543H219.34C223.611 247.543 227.294 244.049 227.524 239.778L236.314 76.473C236.544 72.2021 233.238 68.7074 228.966 68.7074Z" fill="#407BFF"/>
<path d="M134.563 246.249C130.995 246.249 128.248 243.346 128.44 239.778L137.23 76.4736C137.422 72.9051 140.481 70.0023 144.05 70.0023H228.897C232.465 70.0023 235.212 72.9057 235.02 76.4736L226.23 239.778C226.038 243.347 222.978 246.249 219.41 246.249H134.563Z" fill="white"/>
<path opacity="0.2" d="M138.172 133.788L140.76 85.7046C140.862 83.7917 142.497 82.2412 144.41 82.2412H227.219C229.132 82.2412 230.599 83.7917 230.496 85.7046L227.908 133.788C227.805 135.701 226.171 137.252 224.258 137.252H141.448C139.535 137.252 138.068 135.701 138.172 133.788Z" fill="#407BFF"/>
<path d="M188.704 76.0062H183.896C182.552 76.0062 181.421 75.1086 181.132 73.813L180.144 69.373H192.87L191.76 73.6234C191.398 75.0108 190.122 76.0062 188.704 76.0062Z" fill="#407BFF"/>
<path opacity="0.5" d="M187.91 72.6895C187.863 73.5629 187.117 74.2714 186.243 74.2714C185.37 74.2714 184.7 73.5629 184.747 72.6895C184.794 71.8156 185.54 71.1077 186.414 71.1077C187.287 71.1077 187.958 71.8156 187.91 72.6895Z" fill="white"/>
<path d="M200.624 192.14H159.696C159.524 192.14 159.381 192.003 159.373 191.83L158.067 162.93C158.063 162.841 158.096 162.755 158.156 162.691C158.218 162.628 158.302 162.591 158.391 162.591H205.041C205.135 162.591 205.225 162.632 205.286 162.704C205.348 162.776 205.374 162.87 205.361 162.964L200.943 191.865C200.919 192.023 200.784 192.14 200.624 192.14ZM160.006 191.492H200.346L204.664 163.24H158.729L160.006 191.492Z" fill="#407BFF"/>
<path d="M198.586 197.978H162.849C162.67 197.978 162.526 197.833 162.526 197.654C162.526 197.475 162.67 197.33 162.849 197.33H198.586C199.107 197.33 199.574 196.923 199.648 196.403L205.053 160.531C205.077 160.372 205.213 160.255 205.373 160.255H207.699C207.877 160.255 208.022 160.4 208.022 160.579C208.022 160.758 207.877 160.903 207.699 160.903H205.651L200.288 196.496C200.169 197.34 199.437 197.978 198.586 197.978Z" fill="#407BFF"/>
<path d="M165.565 204.065C164.664 204.065 163.833 203.713 163.228 203.074C162.621 202.434 162.313 201.583 162.362 200.68C162.461 198.833 164.046 197.33 165.893 197.33C166.795 197.33 167.625 197.682 168.23 198.321C168.837 198.961 169.145 199.812 169.096 200.715C168.997 202.562 167.413 204.065 165.565 204.065ZM165.893 197.978C164.384 197.978 163.09 199.206 163.009 200.715C162.97 201.439 163.215 202.119 163.698 202.629C164.18 203.137 164.843 203.418 165.566 203.418C167.075 203.418 168.37 202.19 168.45 200.681C168.489 199.957 168.244 199.277 167.761 198.767C167.279 198.258 166.615 197.978 165.893 197.978Z" fill="#407BFF"/>
<path d="M196.717 204.065C195.815 204.065 194.984 203.713 194.379 203.073C193.772 202.433 193.465 201.583 193.514 200.68C193.613 198.833 195.197 197.33 197.045 197.33C197.946 197.33 198.777 197.682 199.383 198.322C199.989 198.962 200.296 199.812 200.248 200.715C200.149 202.562 198.564 204.065 196.717 204.065ZM197.045 197.978C195.535 197.978 194.241 199.205 194.161 200.715C194.121 201.439 194.366 202.118 194.849 202.629C195.331 203.137 195.994 203.418 196.717 203.418C198.227 203.418 199.521 202.19 199.601 200.681C199.641 199.957 199.396 199.277 198.913 198.767C198.431 198.258 197.768 197.978 197.045 197.978Z" fill="#407BFF"/>
<path d="M189.399 112.978C189.399 112.978 189.426 109.962 190.799 107.036C193.124 109.017 195.338 111.357 195.338 111.357C195.338 111.357 208.965 112.392 211.303 113.292C210.808 114.957 210.451 116.578 210.451 116.578L189.399 112.978Z" fill="#263238"/>
<path d="M162.475 133.969C162.393 133.68 162.246 133.402 162.091 133.109C161.812 132.582 161.523 132.037 161.591 131.38C161.658 130.733 162.084 130.097 162.823 129.539C164.134 128.549 165.843 128.079 167.513 128.257C168.625 128.374 169.708 128.772 170.661 129.402C170.601 128.724 170.727 128.03 171.046 127.426C171.697 126.191 173.112 125.431 174.409 125.62C174.893 125.691 175.335 125.893 175.701 126.185C175.702 126.089 175.706 125.993 175.711 125.896C175.779 124.775 176.19 123.896 176.869 123.422C177.746 122.81 178.909 122.878 180.424 123.633C180.498 123.67 180.6 123.721 180.716 123.786C180.487 123.043 180.257 122.193 180.226 121.327C180.184 120.176 180.675 119.571 181.096 119.266C182.025 118.592 183.457 118.7 184.592 119.054C184.578 118.507 184.71 117.962 184.982 117.498C185.749 116.191 187.473 115.508 188.987 115.914L188.821 116.539C187.595 116.214 186.155 116.779 185.54 117.826C185.283 118.264 185.187 118.797 185.263 119.315C185.966 119.67 186.628 120.314 186.554 121.179L186.516 121.618L186.109 121.452C185.475 121.192 184.991 120.656 184.75 119.94C184.731 119.885 184.713 119.829 184.698 119.774C184.694 119.772 184.688 119.77 184.684 119.768C183.711 119.411 182.288 119.202 181.475 119.791C181.05 120.1 180.847 120.608 180.872 121.304C180.903 122.161 181.155 123.028 181.388 123.772C181.433 123.912 181.523 124.106 181.619 124.31C181.701 124.488 181.785 124.668 181.855 124.844C181.97 125.065 182.038 125.317 182.026 125.601C182.026 125.602 182.026 125.604 182.026 125.604L181.38 125.577C181.385 125.463 181.338 125.3 181.269 125.122C181.096 124.805 180.72 124.505 180.134 124.213C178.853 123.574 177.905 123.488 177.238 123.954C176.546 124.437 176.389 125.403 176.357 125.936C176.336 126.288 176.346 126.641 176.389 126.99C176.637 127.427 176.764 127.93 176.727 128.446L176.621 129.925L176.101 128.536C175.943 128.116 175.832 127.672 175.766 127.22C175.448 126.723 174.92 126.35 174.316 126.261C173.296 126.113 172.136 126.745 171.617 127.729C171.255 128.416 171.198 129.246 171.428 129.984C171.543 130.083 171.656 130.187 171.766 130.294C171.926 130.45 172.051 130.735 171.979 130.979C171.93 131.144 171.8 131.262 171.63 131.296L171.425 131.337L171.304 131.168C171.126 130.92 170.984 130.65 170.878 130.366C169.883 129.546 168.683 129.031 167.445 128.901C165.938 128.741 164.395 129.163 163.212 130.056C162.799 130.367 162.295 130.86 162.235 131.446C162.187 131.908 162.419 132.344 162.663 132.806C162.827 133.117 162.997 133.438 163.098 133.792L162.475 133.969Z" fill="#263238"/>
<path d="M153.426 133.233C159.078 131.072 178.403 127.021 181.627 123.578C184.087 120.95 186.978 115.662 188.21 113.304C188.579 112.598 189.357 112.211 190.143 112.339L209.778 115.546C210.709 115.698 211.376 116.527 211.325 117.468L211.225 119.324L211.252 138.904L160.811 140.27L153.426 133.233Z" fill="#407BFF"/>
<path d="M151.133 139.444C151.133 139.444 152.565 134.178 153.426 133.233C154.287 132.287 176.08 135.056 177.908 139.984C164.628 140.862 151.133 139.444 151.133 139.444Z" fill="#263238"/>
<path d="M173.242 140.12C169.754 135.934 166.665 132.69 166.861 130.735C167.056 128.779 169.003 128.224 172.032 127.211C175.061 126.198 180.841 124.388 183.639 120.067C186.437 115.746 188.246 118.514 189.086 120.472C189.926 122.43 190.971 127.512 207.327 122.768C202.203 127.629 183.1 140.12 183.1 140.12H173.242Z" fill="#263238"/>
<path d="M181.548 139.444C181.548 139.444 182.156 132.563 188.022 128.949C193.888 125.334 210.234 122.7 211.512 120.27C211.933 122.498 211.727 125.064 211.727 125.064C211.727 125.064 196.613 131.14 196.67 140.12C188.569 140.12 181.548 139.444 181.548 139.444Z" fill="white"/>
<path d="M150.026 140.533C149.901 141.121 150.266 141.669 150.85 141.756C153.873 142.204 163.441 143.495 173.263 143.495H210.958C211.544 143.495 212.044 143.021 212.075 142.436L212.284 138.57C212.317 137.952 211.82 137.464 211.201 137.514C205.272 137.989 177.342 140.036 151.456 138.675C150.99 138.65 150.537 138.931 150.366 139.376C150.209 139.783 150.101 140.185 150.026 140.533Z" fill="#407BFF"/>
<path d="M170.241 139.434C164.073 139.434 157.689 139.305 151.439 138.976C151.273 138.967 151.145 138.825 151.153 138.659C151.162 138.493 151.312 138.351 151.471 138.373C177.456 139.739 205.764 137.646 211.175 137.213C211.343 137.2 211.488 137.324 211.5 137.49C211.514 137.656 211.39 137.802 211.224 137.815C207.108 138.144 189.755 139.434 170.241 139.434Z" fill="white"/>
<path d="M210.958 143.901H173.263C163.337 143.901 153.552 142.566 150.79 142.156C150.402 142.099 150.068 141.893 149.848 141.575C149.622 141.25 149.544 140.849 149.63 140.448L150.423 140.618C150.385 140.798 150.417 140.974 150.514 141.114C150.604 141.245 150.745 141.33 150.909 141.355C153.658 141.762 163.392 143.089 173.263 143.089H210.958C211.331 143.089 211.651 142.786 211.671 142.414L212.48 142.457C212.437 143.253 211.755 143.901 210.958 143.901Z" fill="#263238"/>
<path d="M191.058 114.305L190.711 115.037L202.562 120.642L202.908 119.909L191.058 114.305Z" fill="#263238"/>
<path d="M175.44 150.46L182.081 156.146L189.333 150.46H175.44Z" fill="#407BFF"/>
<path d="M186.91 234.461C192.051 229.457 192.374 221.45 187.631 216.578C182.889 211.707 174.876 211.814 169.735 216.819C164.594 221.824 164.271 229.831 169.014 234.702C173.756 239.574 181.769 239.466 186.91 234.461Z" fill="#407BFF"/>
<path d="M169.595 225.026C169.595 225.026 174.756 228.011 176.867 231.857C178.632 228.856 181.271 224.681 187.603 219.991C179.921 223.084 177.074 228.008 177.074 228.008C177.074 228.008 174.385 225.532 169.595 225.026Z" fill="white"/>
</svg>
