<svg width="247" height="251" viewBox="0 0 247 251" fill="none" xmlns="http://www.w3.org/2000/svg">
<rect width="247" height="251" rx="30" fill="#1B65AD"/>
<path d="M172.125 63.9688H76.875C73.7201 63.978 70.697 65.2353 68.4662 67.4662C66.2353 69.697 64.978 72.7201 64.9688 75.875V95.7188H184.031V75.875C184.022 72.7201 182.765 69.697 180.534 67.4662C178.303 65.2353 175.28 63.978 172.125 63.9688ZM84.8125 83.8125C84.0276 83.8125 83.2602 83.5797 82.6076 83.1436C81.9549 82.7076 81.4462 82.0877 81.1459 81.3625C80.8455 80.6373 80.7669 79.8393 80.92 79.0695C81.0731 78.2996 81.4511 77.5925 82.0062 77.0374C82.5612 76.4824 83.2684 76.1044 84.0382 75.9513C84.8081 75.7981 85.6061 75.8767 86.3313 76.1771C87.0565 76.4775 87.6763 76.9862 88.1124 77.6388C88.5485 78.2915 88.7812 79.0588 88.7812 79.8438C88.7812 80.8963 88.3631 81.9058 87.6188 82.6501C86.8745 83.3944 85.8651 83.8125 84.8125 83.8125ZM100.688 83.8125C99.9026 83.8125 99.1352 83.5797 98.4826 83.1436C97.8299 82.7076 97.3212 82.0877 97.0209 81.3625C96.7205 80.6373 96.6419 79.8393 96.795 79.0695C96.9481 78.2996 97.3261 77.5925 97.8812 77.0374C98.4362 76.4824 99.1434 76.1044 99.9132 75.9513C100.683 75.7981 101.481 75.8767 102.206 76.1771C102.931 76.4775 103.551 76.9862 103.987 77.6388C104.423 78.2915 104.656 79.0588 104.656 79.8438C104.656 80.8963 104.238 81.9058 103.494 82.6501C102.75 83.3944 101.74 83.8125 100.688 83.8125ZM116.562 83.8125C115.778 83.8125 115.01 83.5797 114.358 83.1436C113.705 82.7076 113.196 82.0877 112.896 81.3625C112.595 80.6373 112.517 79.8393 112.67 79.0695C112.823 78.2996 113.201 77.5925 113.756 77.0374C114.311 76.4824 115.018 76.1044 115.788 75.9513C116.558 75.7981 117.356 75.8767 118.081 76.1771C118.806 76.4775 119.426 76.9862 119.862 77.6388C120.298 78.2915 120.531 79.0588 120.531 79.8438C120.531 80.8963 120.113 81.9058 119.369 82.6501C118.625 83.3944 117.615 83.8125 116.562 83.8125Z" fill="white"/>
<path d="M108.625 148.106L136.406 154.258V124.492L108.625 130.644V148.106Z" fill="white"/>
<path d="M64.9688 103.656V171.125C64.978 174.28 66.2353 177.303 68.4662 179.534C70.697 181.765 73.7201 183.022 76.875 183.031H172.125C175.28 183.022 178.303 181.765 180.534 179.534C182.765 177.303 184.022 174.28 184.031 171.125V103.656H64.9688ZM153.161 122.049L160.773 119.795C161.273 119.647 161.797 119.598 162.315 119.653C162.834 119.707 163.336 119.863 163.794 120.112C164.253 120.361 164.657 120.697 164.985 121.102C165.313 121.507 165.559 121.973 165.707 122.473C165.855 122.973 165.903 123.497 165.849 124.015C165.794 124.534 165.638 125.036 165.39 125.495C165.141 125.953 164.804 126.357 164.399 126.685C163.994 127.014 163.528 127.259 163.029 127.407L155.417 129.66C154.917 129.808 154.393 129.857 153.874 129.802C153.356 129.748 152.853 129.592 152.395 129.343C151.937 129.094 151.532 128.758 151.204 128.353C150.876 127.948 150.631 127.482 150.483 126.982C150.335 126.482 150.287 125.958 150.341 125.44C150.396 124.921 150.552 124.419 150.8 123.961C151.049 123.503 151.385 123.098 151.791 122.77C152.196 122.442 152.661 122.197 153.161 122.049ZM144.344 154.258C144.341 156.362 143.504 158.38 142.016 159.868C140.528 161.356 138.511 162.193 136.406 162.195C135.833 162.202 135.262 162.148 134.7 162.037L104.14 155.25H100.688V167.156C100.688 168.209 100.269 169.218 99.5251 169.963C98.7808 170.707 97.7713 171.125 96.7188 171.125C95.6662 171.125 94.6567 170.707 93.9124 169.963C93.1681 169.218 92.75 168.209 92.75 167.156V155.25C89.5951 155.241 86.572 153.983 84.3412 151.753C82.1103 149.522 80.853 146.499 80.8438 143.344V135.406C80.853 132.251 82.1103 129.228 84.3412 126.997C86.572 124.767 89.5951 123.509 92.75 123.5H104.14L134.7 116.713C135.861 116.466 137.062 116.48 138.217 116.756C139.371 117.032 140.45 117.561 141.374 118.306C142.298 119.052 143.044 119.994 143.558 121.064C144.071 122.134 144.34 123.305 144.344 124.492V154.258ZM165.707 156.275C165.559 156.776 165.315 157.242 164.987 157.648C164.659 158.053 164.254 158.39 163.796 158.639C163.338 158.888 162.835 159.044 162.316 159.098C161.797 159.153 161.273 159.104 160.773 158.955L153.161 156.701C152.152 156.402 151.303 155.714 150.8 154.789C150.298 153.864 150.184 152.777 150.483 151.768C150.782 150.758 151.47 149.909 152.395 149.407C153.32 148.905 154.407 148.791 155.417 149.09L163.029 151.343C164.037 151.643 164.886 152.33 165.388 153.255C165.89 154.18 166.005 155.266 165.707 156.275ZM164.188 143.344H156.25C155.197 143.344 154.188 142.926 153.444 142.181C152.699 141.437 152.281 140.428 152.281 139.375C152.281 138.322 152.699 137.313 153.444 136.569C154.188 135.824 155.197 135.406 156.25 135.406H164.188C165.24 135.406 166.25 135.824 166.994 136.569C167.738 137.313 168.156 138.322 168.156 139.375C168.156 140.428 167.738 141.437 166.994 142.181C166.25 142.926 165.24 143.344 164.188 143.344Z" fill="white"/>
<path d="M100.688 147.312V131.438H92.75C91.6984 131.441 90.6907 131.86 89.947 132.603C89.2034 133.347 88.7843 134.355 88.7812 135.406V143.344C88.7843 144.395 89.2034 145.403 89.947 146.147C90.6907 146.89 91.6984 147.309 92.75 147.312H100.688Z" fill="white"/>
</svg>
