<svg width="254" height="232" viewBox="0 0 254 232" fill="none" xmlns="http://www.w3.org/2000/svg">
<path d="M4.66907 183.691C6.2473 183.576 9.34855 181.852 9.35068 181.851C9.38305 181.833 7.59415 180.152 7.46944 180.058C6.02176 178.981 2.59201 177.749 0.945865 178.922C-0.23966 179.766 -0.276807 181.418 0.644442 182.468C1.58533 183.54 3.32488 183.789 4.66907 183.691Z" fill="#263238"/>
<path d="M10.5407 192.211C11.9735 191.704 14.3467 189.417 14.5351 189.234C15.8028 190.569 17.2123 191.836 18.7093 193.04C19.5643 193.73 20.4473 194.397 21.3404 195.055C20.8878 194.815 20.4813 194.604 20.4213 194.581C18.7407 193.923 15.1071 193.641 13.8293 195.207C12.9085 196.335 13.3092 197.937 14.4746 198.707C15.6649 199.493 17.4087 199.273 18.6796 198.823C19.9686 198.367 22.0314 196.458 22.5705 195.945C22.916 196.194 23.2577 196.447 23.6043 196.694C25.2658 197.882 26.9295 199.06 28.5252 200.265C29.0883 200.69 29.6264 201.129 30.1666 201.566C29.7643 201.353 29.4236 201.178 29.369 201.156C27.6883 200.499 24.0548 200.217 22.777 201.783C21.8568 202.911 22.2569 204.513 23.4228 205.282C24.6131 206.068 26.3569 205.849 27.6278 205.399C28.8585 204.964 30.7774 203.219 31.4211 202.612C31.9608 203.077 32.5026 203.541 33.0046 204.015C33.34 204.347 33.6865 204.643 34.005 204.994C34.3276 205.336 34.6471 205.674 34.9633 206.009C35.5487 206.676 36.1574 207.361 36.7119 208.027C37.1014 208.487 37.4639 208.932 37.8306 209.38C37.2755 208.951 36.1712 208.134 36.0709 208.076C34.5096 207.171 30.9605 206.342 29.4603 207.696C28.3798 208.672 28.5321 210.316 29.568 211.253C30.6256 212.211 32.3827 212.258 33.7067 212.006C35.1645 211.728 37.7595 209.913 38.0821 209.685C38.686 210.428 39.2666 211.156 39.8036 211.852C41.2513 213.72 42.4527 215.384 43.3878 216.723L44.5765 216.097C43.5868 214.74 42.3015 213.033 40.7419 211.109C40.1316 210.352 39.4645 209.556 38.7715 208.744C38.9365 208.551 39.8694 207.447 40.6108 206.307C42.0478 206.816 45.0037 206.741 45.3853 206.728C45.4792 207.681 45.5614 208.609 45.6251 209.485C45.7971 211.773 45.8814 213.778 45.9244 215.387L47.2171 214.706C47.1365 213.198 47.0139 211.403 46.8181 209.384C46.7268 208.416 46.6095 207.383 46.479 206.324C46.8526 206.217 49.8986 205.327 51.029 204.362C52.0537 203.486 53.1161 202.086 53.0312 200.662C52.9479 199.268 51.7608 198.12 50.3232 198.353C48.3284 198.676 46.7549 201.963 46.4837 203.748C46.4678 203.853 46.4217 205.014 46.4047 205.747C46.3495 205.315 46.3001 204.894 46.2375 204.45C46.1197 203.57 45.9764 202.695 45.8252 201.754C45.7366 201.302 45.6469 200.845 45.5561 200.384C45.476 199.925 45.3332 199.45 45.2223 198.978C44.9432 197.889 44.6073 196.798 44.2443 195.708C45.0143 195.603 47.7441 195.19 48.8946 194.477C50.0398 193.767 51.3023 192.544 51.4339 191.124C51.5628 189.733 50.563 188.418 49.1074 188.431C47.0866 188.448 45.0334 191.459 44.4948 193.182C44.4613 193.289 44.2135 194.569 44.0915 195.274C43.8686 194.619 43.6489 193.966 43.4016 193.311C42.6878 191.423 41.9067 189.533 41.1361 187.645C40.8995 187.066 40.6713 186.487 40.4399 185.908C40.7143 185.874 43.9694 185.454 45.2584 184.655C46.4041 183.946 47.6661 182.722 47.7977 181.302C47.9266 179.911 46.9269 178.596 45.4712 178.609C43.4504 178.625 41.3972 181.637 40.8586 183.359C40.8183 183.489 40.4643 185.33 40.3974 185.803C39.8891 184.528 39.3945 183.252 38.9572 181.976C38.3522 180.214 37.8555 178.453 37.501 176.711C37.6289 176.695 41.0284 176.272 42.3482 175.454C43.4939 174.744 44.7559 173.521 44.8875 172.1C45.0164 170.709 44.0166 169.395 42.561 169.407C40.5402 169.425 38.487 172.436 37.9484 174.158C37.9059 174.293 37.5265 176.274 37.4835 176.638C37.4628 176.535 37.4299 176.43 37.4103 176.326C37.0553 174.461 36.9454 172.61 36.9279 170.872C36.9157 169.862 36.9603 168.897 37.025 167.957C37.6661 167.944 40.5954 167.848 41.8653 167.243C43.0821 166.663 44.4709 165.586 44.7575 164.189C45.0382 162.82 44.1891 161.404 42.7409 161.256C40.7302 161.051 38.3591 163.819 37.6348 165.471C37.5955 165.561 37.2962 166.519 37.0876 167.22C37.1232 166.796 37.1524 166.359 37.1943 165.954C37.3493 164.434 37.5843 163.051 37.803 161.829C37.9325 161.134 38.0641 160.509 38.1925 159.925C38.8144 159.583 41.3044 158.174 42.137 157.072C42.9495 155.997 43.6855 154.401 43.2965 153.028C42.9155 151.685 41.5087 150.819 40.1555 151.355C38.2769 152.1 37.4474 155.649 37.5663 157.449C37.5769 157.605 38.0168 160.02 38.0492 160.003C38.0492 160.003 38.0795 159.987 38.0869 159.982C37.9516 160.542 37.8131 161.143 37.6751 161.803C37.4294 163.023 37.1635 164.405 36.9751 165.928C36.783 167.449 36.6169 169.107 36.5999 170.87C36.5803 172.636 36.6498 174.496 36.9693 176.402C36.973 176.424 36.9794 176.445 36.9831 176.467C36.7167 175.939 35.9217 174.486 35.848 174.381C34.8089 172.906 31.9337 170.666 30.0042 171.267C28.6144 171.7 28.0641 173.257 28.6117 174.543C29.1716 175.855 30.7466 176.633 32.0542 176.96C33.5289 177.327 36.7703 176.729 37.0282 176.68C37.3493 178.493 37.8258 180.327 38.4101 182.157C38.7428 183.204 39.1111 184.247 39.4932 185.289C39.248 184.839 39.0251 184.439 38.988 184.386C37.9489 182.911 35.0737 180.671 33.1447 181.272C31.7544 181.705 31.2046 183.263 31.7522 184.547C32.3116 185.86 33.8871 186.638 35.1947 186.965C36.5214 187.295 39.2952 186.84 40.0276 186.71C40.1783 187.108 40.3247 187.508 40.4771 187.905C41.2073 189.812 41.9449 191.712 42.6109 193.598C42.846 194.263 43.0529 194.926 43.2626 195.588C43.0439 195.189 42.8571 194.855 42.8232 194.807C41.7841 193.332 38.9094 191.092 36.9799 191.693C35.5901 192.126 35.0398 193.683 35.5874 194.969C36.1467 196.28 37.7223 197.06 39.0299 197.385C40.2961 197.701 42.8598 197.304 43.7311 197.154C43.9248 197.839 44.1207 198.525 44.2783 199.198C44.3754 199.659 44.5006 200.097 44.5723 200.566C44.6529 201.029 44.7331 201.487 44.8121 201.941C44.9321 202.821 45.0615 203.728 45.1576 204.589C45.2287 205.188 45.2855 205.759 45.3444 206.335C45.1183 205.671 44.6481 204.38 44.5967 204.276C44.0628 203.203 42.778 201.677 41.3898 200.86C41.3118 200.7 41.2205 200.549 41.1139 200.407C40.2749 199.29 38.651 198.987 37.5812 199.974C36.0958 201.345 36.5968 204.954 37.3551 206.592C37.3997 206.689 38.002 207.683 38.392 208.303C38.1071 207.973 37.8343 207.65 37.5366 207.314C36.9528 206.645 36.3511 205.994 35.7058 205.293C35.3826 204.965 35.0557 204.634 34.7256 204.299C34.4056 203.96 34.0241 203.643 33.6717 203.31C32.838 202.556 31.956 201.832 31.0518 201.122C31.636 200.61 33.685 198.76 34.2512 197.53C34.8148 196.306 35.1931 194.59 34.5192 193.332C33.8595 192.101 32.3004 191.556 31.0931 192.369C29.4173 193.499 29.3658 197.143 29.8668 198.877C29.8981 198.985 30.3969 200.188 30.6845 200.844C30.1374 200.421 29.594 199.997 29.0267 199.588C27.3896 198.406 25.6957 197.261 24.0108 196.112C23.4944 195.76 22.9844 195.403 22.4723 195.048C22.6825 194.867 25.1655 192.721 25.7997 191.344C26.3632 190.12 26.7416 188.404 26.0677 187.146C25.408 185.915 23.8489 185.369 22.6416 186.183C20.9658 187.313 20.9143 190.957 21.4152 192.69C21.4529 192.821 22.1741 194.552 22.379 194.983C21.2518 194.2 20.1353 193.41 19.0665 192.585C17.5902 191.45 16.2046 190.255 14.9474 188.998C15.045 188.914 17.6469 186.686 18.2965 185.275C18.8606 184.051 19.2384 182.334 18.5645 181.077C17.9048 179.846 16.3457 179.301 15.1384 180.115C13.4626 181.244 13.4111 184.888 13.9121 186.622C13.9513 186.758 14.7277 188.619 14.8927 188.947C14.8179 188.872 14.7325 188.803 14.6587 188.727C13.3341 187.368 12.2213 185.885 11.2481 184.445C10.6808 183.61 10.1851 182.779 9.72132 181.96C10.2483 181.595 12.639 179.899 13.3639 178.694C14.0585 177.539 14.6226 175.875 14.0914 174.551C13.5708 173.255 12.0807 172.541 10.7917 173.218C9.00226 174.156 8.55066 177.773 8.85845 179.551C8.87543 179.648 9.15403 180.612 9.36683 181.311C9.16305 180.939 8.94601 180.558 8.75762 180.197C8.04811 178.844 7.48135 177.56 6.98888 176.42C6.71399 175.769 6.47838 175.176 6.26398 174.618C6.59406 173.99 7.89315 171.441 7.98018 170.062C8.06456 168.717 7.79816 166.98 6.71665 166.05C5.65742 165.14 4.0065 165.193 3.17387 166.388C2.01753 168.045 3.28372 171.462 4.37638 172.9C4.47084 173.024 6.17005 174.795 6.18757 174.763C6.18757 174.763 6.20349 174.732 6.2072 174.725C6.40302 175.266 6.619 175.844 6.86789 176.47C7.33648 177.624 7.87617 178.923 8.55968 180.297C9.23841 181.672 10.0153 183.147 10.9732 184.626C11.9316 186.111 13.0152 187.623 14.3334 189.037C14.3483 189.053 14.3658 189.068 14.3806 189.084C13.8669 188.79 12.4023 188.017 12.2829 187.97C10.6022 187.313 6.96872 187.031 5.69086 188.596C4.77067 189.725 5.1708 191.327 6.33669 192.097C7.52646 192.88 9.27025 192.66 10.5407 192.211Z" fill="#263238"/>
<path d="M36.7778 167.663C36.8145 167.666 36.2503 165.276 36.1973 165.13C35.5849 163.432 33.4033 160.513 31.3835 160.583C29.9284 160.634 28.9865 161.99 29.1754 163.374C29.3686 164.788 30.682 165.955 31.8574 166.615C33.2377 167.39 36.7752 167.663 36.7778 167.663Z" fill="#263238"/>
<path d="M248.851 183.691C247.273 183.576 244.171 181.852 244.169 181.851C244.137 181.833 245.926 180.152 246.051 180.058C247.499 178.98 250.928 177.749 252.574 178.922C253.76 179.766 253.797 181.418 252.876 182.468C251.934 183.54 250.195 183.789 248.851 183.691Z" fill="#263238"/>
<path d="M242.981 192.211C241.548 191.704 239.175 189.417 238.986 189.234C237.718 190.569 236.309 191.836 234.812 193.04C233.957 193.73 233.074 194.397 232.181 195.055C232.634 194.815 233.04 194.604 233.1 194.581C234.781 193.923 238.414 193.641 239.692 195.207C240.613 196.335 240.212 197.937 239.047 198.707C237.856 199.493 236.113 199.273 234.842 198.823C233.553 198.367 231.49 196.458 230.951 195.945C230.605 196.194 230.264 196.447 229.917 196.694C228.256 197.882 226.592 199.06 224.996 200.265C224.433 200.69 223.895 201.129 223.355 201.566C223.757 201.353 224.098 201.178 224.152 201.156C225.833 200.499 229.467 200.217 230.744 201.783C231.665 202.911 231.264 204.513 230.099 205.282C228.908 206.068 227.164 205.849 225.894 205.399C224.663 204.964 222.744 203.219 222.101 202.612C221.561 203.077 221.019 203.541 220.517 204.015C220.182 204.347 219.835 204.643 219.517 204.994C219.194 205.336 218.875 205.674 218.559 206.009C217.973 206.676 217.365 207.361 216.81 208.027C216.42 208.487 216.058 208.932 215.691 209.38C216.246 208.951 217.351 208.134 217.451 208.076C219.012 207.171 222.561 206.342 224.062 207.696C225.142 208.672 224.99 210.316 223.954 211.253C222.896 212.211 221.139 212.258 219.815 212.006C218.357 211.728 215.762 209.913 215.44 209.685C214.836 210.428 214.255 211.156 213.718 211.852C212.271 213.72 211.069 215.384 210.134 216.723L208.945 216.097C209.935 214.74 211.22 213.033 212.779 211.109C213.39 210.352 214.057 209.556 214.75 208.744C214.585 208.551 213.652 207.447 212.911 206.307C211.473 206.816 208.518 206.741 208.136 206.728C208.042 207.681 207.96 208.609 207.896 209.485C207.725 211.773 207.64 213.778 207.597 215.387L206.304 214.706C206.385 213.198 206.507 211.403 206.703 209.384C206.795 208.416 206.912 207.383 207.042 206.324C206.669 206.217 203.623 205.327 202.492 204.362C201.468 203.486 200.405 202.086 200.49 200.662C200.573 199.268 201.761 198.12 203.198 198.353C205.193 198.676 206.766 201.963 207.038 203.748C207.054 203.853 207.1 205.014 207.117 205.747C207.172 205.315 207.221 204.894 207.284 204.45C207.402 203.57 207.545 202.695 207.696 201.754C207.785 201.302 207.874 200.845 207.966 200.384C208.046 199.925 208.189 199.45 208.3 198.978C208.579 197.889 208.915 196.798 209.278 195.708C208.508 195.603 205.778 195.19 204.627 194.477C203.482 193.767 202.22 192.544 202.088 191.124C201.959 189.733 202.959 188.418 204.414 188.431C206.435 188.448 208.488 191.459 209.027 193.182C209.061 193.289 209.308 194.569 209.43 195.274C209.653 194.619 209.873 193.966 210.12 193.311C210.833 191.423 211.615 189.533 212.386 187.645C212.622 187.066 212.851 186.487 213.082 185.908C212.808 185.874 209.552 185.454 208.263 184.655C207.118 183.946 205.856 182.722 205.724 181.302C205.595 179.911 206.595 178.596 208.051 178.609C210.071 178.625 212.125 181.637 212.663 183.359C212.704 183.489 213.057 185.33 213.124 185.803C213.633 184.528 214.127 183.252 214.565 181.976C215.17 180.214 215.666 178.453 216.021 176.711C215.893 176.695 212.493 176.272 211.174 175.454C210.028 174.744 208.766 173.521 208.634 172.1C208.505 170.709 209.505 169.395 210.961 169.407C212.982 169.425 215.035 172.436 215.573 174.158C215.616 174.293 215.995 176.274 216.038 176.638C216.059 176.535 216.092 176.43 216.112 176.326C216.467 174.461 216.576 172.61 216.594 170.872C216.606 169.862 216.562 168.897 216.497 167.957C215.856 167.944 212.926 167.848 211.657 167.243C210.44 166.663 209.051 165.586 208.764 164.189C208.484 162.82 209.333 161.404 210.781 161.256C212.792 161.051 215.163 163.819 215.887 165.471C215.926 165.561 216.226 166.519 216.434 167.22C216.399 166.796 216.369 166.359 216.328 165.954C216.173 164.434 215.938 163.051 215.719 161.829C215.589 161.134 215.458 160.509 215.329 159.925C214.707 159.583 212.218 158.174 211.385 157.072C210.572 155.997 209.836 154.401 210.225 153.028C210.606 151.685 212.013 150.819 213.366 151.355C215.245 152.1 216.074 155.649 215.956 157.449C215.945 157.605 215.506 160.02 215.473 160.003C215.473 160.003 215.442 159.987 215.435 159.982C215.57 160.542 215.709 161.143 215.847 161.803C216.092 163.023 216.359 164.405 216.547 165.928C216.739 167.449 216.905 169.107 216.922 170.87C216.942 172.636 216.873 174.496 216.553 176.402C216.549 176.424 216.543 176.445 216.539 176.467C216.806 175.939 217.601 174.486 217.674 174.381C218.713 172.906 221.589 170.666 223.518 171.267C224.908 171.7 225.458 173.257 224.911 174.543C224.351 175.855 222.776 176.633 221.468 176.96C219.993 177.327 216.752 176.729 216.494 176.68C216.173 178.493 215.697 180.327 215.112 182.157C214.78 183.204 214.411 184.247 214.029 185.289C214.274 184.839 214.497 184.439 214.534 184.386C215.573 182.911 218.449 180.671 220.378 181.272C221.768 181.705 222.318 183.263 221.77 184.547C221.211 185.86 219.635 186.638 218.328 186.965C217.001 187.295 214.227 186.84 213.495 186.71C213.344 187.108 213.198 187.508 213.045 187.905C212.315 189.812 211.577 191.712 210.911 193.598C210.676 194.263 210.469 194.926 210.26 195.588C210.478 195.189 210.665 194.855 210.699 194.807C211.738 193.332 214.613 191.092 216.542 191.693C217.932 192.126 218.483 193.683 217.935 194.969C217.376 196.28 215.8 197.06 214.492 197.385C213.226 197.701 210.663 197.304 209.791 197.154C209.598 197.839 209.402 198.525 209.244 199.198C209.147 199.659 209.022 200.097 208.95 200.566C208.869 201.029 208.789 201.487 208.71 201.941C208.59 202.821 208.461 203.728 208.365 204.589C208.294 205.188 208.237 205.759 208.178 206.335C208.404 205.671 208.874 204.38 208.926 204.276C209.46 203.203 210.744 201.677 212.133 200.86C212.211 200.7 212.302 200.549 212.409 200.407C213.248 199.29 214.871 198.987 215.941 199.974C217.427 201.345 216.926 204.954 216.167 206.592C216.123 206.689 215.52 207.683 215.13 208.303C215.415 207.973 215.688 207.65 215.986 207.314C216.57 206.645 217.171 205.994 217.817 205.293C218.14 204.965 218.467 204.634 218.797 204.299C219.117 203.96 219.499 203.643 219.851 203.31C220.685 202.556 221.567 201.832 222.471 201.122C221.887 200.61 219.838 198.76 219.272 197.53C218.708 196.306 218.33 194.59 219.004 193.332C219.663 192.101 221.222 191.556 222.43 192.369C224.106 193.499 224.157 197.143 223.656 198.877C223.625 198.985 223.126 200.188 222.838 200.844C223.386 200.421 223.929 199.997 224.496 199.588C226.133 198.406 227.827 197.261 229.512 196.112C230.028 195.76 230.538 195.403 231.051 195.048C230.84 194.867 228.357 192.721 227.723 191.344C227.159 190.12 226.781 188.404 227.455 187.146C228.115 185.915 229.674 185.369 230.881 186.183C232.557 187.313 232.609 190.957 232.108 192.69C232.07 192.821 231.349 194.552 231.144 194.983C232.271 194.2 233.388 193.41 234.456 192.585C235.933 191.45 237.318 190.255 238.576 188.998C238.478 188.914 235.876 186.686 235.226 185.275C234.662 184.051 234.284 182.334 234.958 181.077C235.618 179.846 237.177 179.301 238.384 180.115C240.06 181.244 240.112 184.888 239.611 186.622C239.572 186.758 238.795 188.619 238.63 188.947C238.705 188.872 238.79 188.803 238.864 188.727C240.188 187.368 241.301 185.885 242.275 184.445C242.842 183.61 243.338 182.779 243.802 181.96C243.275 181.595 240.884 179.899 240.159 178.694C239.464 177.539 238.9 175.875 239.431 174.551C239.952 173.255 241.442 172.541 242.731 173.218C244.521 174.156 244.972 177.773 244.664 179.551C244.647 179.648 244.369 180.612 244.156 181.311C244.36 180.939 244.577 180.558 244.765 180.197C245.475 178.844 246.042 177.56 246.534 176.42C246.809 175.769 247.045 175.176 247.259 174.618C246.929 173.99 245.63 171.441 245.543 170.062C245.458 168.717 245.725 166.98 246.806 166.05C247.866 165.14 249.516 165.193 250.349 166.388C251.505 168.045 250.239 171.462 249.147 172.9C249.052 173.024 247.353 174.795 247.335 174.763C247.335 174.763 247.319 174.732 247.316 174.725C247.12 175.266 246.904 175.844 246.655 176.47C246.186 177.624 245.647 178.923 244.963 180.297C244.285 181.672 243.508 183.147 242.55 184.626C241.591 186.111 240.508 187.623 239.19 189.037C239.175 189.053 239.157 189.068 239.142 189.084C239.656 188.79 241.121 188.017 241.24 187.97C242.921 187.313 246.554 187.031 247.832 188.596C248.752 189.725 248.352 191.327 247.186 192.097C245.995 192.88 244.252 192.66 242.981 192.211Z" fill="#263238"/>
<path d="M216.745 167.663C216.708 167.665 217.272 165.276 217.325 165.13C217.938 163.432 220.119 160.513 222.139 160.583C223.594 160.634 224.536 161.99 224.347 163.374C224.154 164.788 222.84 165.955 221.665 166.615C220.285 167.39 216.748 167.663 216.745 167.663Z" fill="#263238"/>
<path d="M43.48 91.3233L43.9252 91.6125" stroke="#263238" stroke-miterlimit="10"/>
<path d="M44.814 92.1904L126.13 145.066" stroke="#263238" stroke-miterlimit="10" stroke-dasharray="2 2"/>
<path d="M126.573 145.354L127.018 145.644L126.728 145.199" stroke="#263238" stroke-miterlimit="10"/>
<path d="M126.154 144.316L56.4009 37.0662" stroke="#263238" stroke-miterlimit="10" stroke-dasharray="1.98 1.98"/>
<path d="M56.1147 36.6246L55.825 36.1799" stroke="#263238" stroke-miterlimit="10"/>
<path d="M210.553 91.3233L210.108 91.6125" stroke="#263238" stroke-miterlimit="10"/>
<path d="M209.219 92.1904L127.904 145.066" stroke="#263238" stroke-miterlimit="10" stroke-dasharray="2 2"/>
<path d="M127.46 145.354L127.015 145.644L127.305 145.199" stroke="#263238" stroke-miterlimit="10"/>
<path d="M127.879 144.316L197.631 37.0662" stroke="#263238" stroke-miterlimit="10" stroke-dasharray="1.98 1.98"/>
<path d="M197.918 36.6246L198.207 36.1799" stroke="#263238" stroke-miterlimit="10"/>
<path d="M127.015 19.7195V20.2502" stroke="#263238" stroke-miterlimit="10"/>
<path d="M127.015 21.3174V144.58" stroke="#263238" stroke-miterlimit="10" stroke-dasharray="2.01 2.01"/>
<path d="M127.015 145.113V145.644" stroke="#263238" stroke-miterlimit="10"/>
<path d="M128.007 33.6407C137.021 33.6407 144.328 26.3338 144.328 17.3203C144.328 8.30687 137.021 1 128.007 1C118.994 1 111.687 8.30687 111.687 17.3203C111.687 26.3338 118.994 33.6407 128.007 33.6407Z" fill="#263238" stroke="#263238" stroke-width="2" stroke-miterlimit="10"/>
<path d="M128.007 17.3203L141.741 8.5085C139.732 5.38337 136.687 2.99003 133.09 1.8114L128.007 17.3203Z" fill="#8AC7FF" stroke="#263238" stroke-miterlimit="10"/>
<path d="M128.007 17.3203L135.718 31.7058C140.842 28.9532 144.327 23.5446 144.327 17.3203C144.327 14.0731 143.376 11.0504 141.74 8.50903L128.007 17.3203Z" fill="white" stroke="#263238" stroke-miterlimit="10"/>
<path d="M207.017 47.6129C213.387 41.2426 213.387 30.9143 207.017 24.5439C200.647 18.1736 190.318 18.1736 183.948 24.5439C177.578 30.9143 177.578 41.2426 183.948 47.6129C190.318 53.9832 200.647 53.9832 207.017 47.6129Z" stroke="#263238" stroke-miterlimit="10"/>
<path d="M195.484 50.2179C203.293 50.2179 209.624 43.887 209.624 36.0775C209.624 28.268 203.293 21.9372 195.484 21.9372C187.674 21.9372 181.344 28.268 181.344 36.0775C181.344 43.887 187.674 50.2179 195.484 50.2179Z" fill="#263238"/>
<path d="M203.623 36.0775L189.925 28.1689V43.9856L203.623 36.0775Z" fill="white"/>
<path d="M235.407 93.2554C237.596 84.1127 231.96 74.9261 222.817 72.7366C213.674 70.5471 204.488 76.1837 202.298 85.3264C200.108 94.4691 205.745 103.656 214.888 105.845C224.03 108.035 233.217 102.398 235.407 93.2554Z" fill="#263238"/>
<path d="M230.682 92.1184C232.239 85.5866 228.207 79.0286 221.676 77.4707C215.144 75.9128 208.586 79.9449 207.028 86.4767C205.47 93.0085 209.502 99.5665 216.034 101.124C222.566 102.682 229.124 98.6502 230.682 92.1184Z" fill="white"/>
<path d="M225.953 90.989C226.884 87.0691 224.461 83.1367 220.541 82.2056C216.621 81.2745 212.689 83.6973 211.758 87.6171C210.827 91.5369 213.249 95.4694 217.169 96.4005C221.089 97.3316 225.022 94.9088 225.953 90.989Z" fill="#263238"/>
<path d="M222.69 90.2001C223.19 88.089 221.884 85.9723 219.773 85.4723C217.662 84.9722 215.545 86.2782 215.045 88.3892C214.545 90.5003 215.851 92.617 217.962 93.117C220.073 93.6171 222.19 92.3111 222.69 90.2001Z" fill="white"/>
<path d="M240.56 81.1349L238.394 80.288L239.339 79.8279C239.563 79.7191 239.656 79.449 239.547 79.2251C239.438 79.0016 239.168 78.9077 238.944 79.017L238.259 79.3508L239.347 76.993L235.306 78.8111L234.72 81.0745L218.666 88.8929C218.442 89.0017 218.348 89.2718 218.457 89.4957C218.536 89.656 218.696 89.7494 218.863 89.7494C218.929 89.7494 218.996 89.735 219.06 89.7037L235.166 81.8598L236.922 82.8522L240.56 81.1349Z" fill="#263238"/>
<path d="M57.2476 52.3899C66.648 52.3899 74.2685 44.7694 74.2685 35.3691C74.2685 25.9688 66.648 18.3483 57.2476 18.3483C47.8473 18.3483 40.2268 25.9688 40.2268 35.3691C40.2268 44.7694 47.8473 52.3899 57.2476 52.3899Z" fill="white" stroke="#263238" stroke-width="2" stroke-miterlimit="10"/>
<path d="M57.2481 52.3899C64.064 52.3899 69.5894 44.7694 69.5894 35.3691C69.5894 25.9688 64.064 18.3483 57.2481 18.3483C50.4321 18.3483 44.9067 25.9688 44.9067 35.3691C44.9067 44.7694 50.4321 52.3899 57.2481 52.3899Z" fill="white" stroke="#263238" stroke-miterlimit="10"/>
<path d="M57.2473 52.3899C60.1485 52.3899 62.5004 44.7694 62.5004 35.3691C62.5004 25.9688 60.1485 18.3483 57.2473 18.3483C54.3461 18.3483 51.9941 25.9688 51.9941 35.3691C51.9941 44.7694 54.3461 52.3899 57.2473 52.3899Z" fill="white" stroke="#263238" stroke-miterlimit="10"/>
<path d="M48.229 20.9937H66.5659" stroke="#263238" stroke-miterlimit="10"/>
<path d="M42.062 27.6616H72.4012" stroke="#263238" stroke-miterlimit="10"/>
<path d="M40.3105 34.3295H74.2339" stroke="#263238" stroke-miterlimit="10"/>
<path d="M41.0615 40.9974H73.2341" stroke="#263238" stroke-miterlimit="10"/>
<path d="M45.6448 47.6653H69.1494" stroke="#263238" stroke-miterlimit="10"/>
<path d="M34.9705 106.321C44.3709 106.321 51.9914 98.7007 51.9914 89.3004C51.9914 79.9 44.3709 72.2795 34.9705 72.2795C25.5702 72.2795 17.9497 79.9 17.9497 89.3004C17.9497 98.7007 25.5702 106.321 34.9705 106.321Z" fill="#263238" stroke="#263238" stroke-width="2" stroke-miterlimit="10"/>
<path d="M45.7551 81.2559H23.1829V99.3137H45.7551V81.2559Z" fill="white" stroke="#263238" stroke-width="2" stroke-miterlimit="10"/>
<path d="M47.1655 81.2559H21.7722V88.592H47.1655V81.2559Z" fill="white" stroke="#263238" stroke-width="2" stroke-miterlimit="10"/>
<path d="M34.4479 81.0744C34.4479 81.0744 29.121 74.8597 28.2332 75.1553C27.3454 75.4514 24.9775 79.5944 26.3095 80.0386C27.641 80.4827 34.4479 81.0744 34.4479 81.0744Z" fill="#8AC7FF"/>
<path d="M34.4937 81.0744C34.4937 81.0744 39.8206 74.8597 40.7084 75.1553C41.5962 75.4514 43.9635 79.5944 42.6321 80.0386C41.3006 80.4827 34.4937 81.0744 34.4937 81.0744Z" fill="#8AC7FF"/>
<path d="M36.0762 93.9481L34.48 91.1716L32.8206 93.9481V81.5186H36.0762V93.9481Z" fill="#8AC7FF"/>
<path d="M42.5078 136.187L126.958 88.6514L213.481 136.187V205.094H43.5437L42.5078 136.187Z" fill="#263238" stroke="#263238" stroke-miterlimit="10" stroke-linecap="round" stroke-linejoin="round"/>
<path d="M191.202 101.475H64.7852V213.903H191.202V101.475Z" fill="white" stroke="#263238" stroke-miterlimit="10"/>
<path d="M79.2937 121.163H175.142" stroke="#263238" stroke-miterlimit="10"/>
<path d="M79.2937 131.006H175.142" stroke="#263238" stroke-miterlimit="10"/>
<path d="M79.2937 140.85H175.142" stroke="#263238" stroke-miterlimit="10"/>
<path d="M79.2937 150.694H175.142" stroke="#263238" stroke-miterlimit="10"/>
<path d="M79.2937 160.538H175.142" stroke="#263238" stroke-miterlimit="10"/>
<path d="M79.2937 170.382H175.142" stroke="#263238" stroke-miterlimit="10"/>
<path d="M213.481 231H42.5078V136.187L127.995 194.215L213.481 136.187V231Z" fill="#8AC7FF" stroke="#263238" stroke-miterlimit="10"/>
<path d="M42.5078 231L104.668 178.352" stroke="#263238" stroke-miterlimit="10"/>
<path d="M213.209 231L151.507 178.27" stroke="#263238" stroke-miterlimit="10"/>
<path d="M146.49 70.1325C146.49 70.1325 145.846 73.1371 146.704 74.103C147.562 75.0688 150.782 78.5028 150.782 79.0393C150.782 79.5758 149.709 95.028 149.709 95.028L144.772 91.4868L141.768 100.715C141.768 100.715 149.28 103.934 152.821 104.578C156.362 105.222 157.006 104.256 157.006 101.466C157.006 98.6763 154.216 77.322 154.216 77.322C154.216 77.322 155.074 72.3857 155.074 71.5276C155.074 70.669 155.397 70.2402 154.645 69.8109C153.894 69.3816 147.778 68.7379 147.778 68.7379C147.778 68.7379 146.49 69.2738 146.49 70.1325Z" fill="white" stroke="#263238" stroke-miterlimit="10" stroke-linecap="round" stroke-linejoin="round"/>
<path d="M144.895 92.7869L143.264 101.057L141.768 100.715L144.895 92.7869Z" fill="#263238" stroke="#263238" stroke-miterlimit="10" stroke-linecap="round" stroke-linejoin="round"/>
<path d="M156.947 72.5439L144.791 70.9073V67.8787C144.791 67.5927 145.023 67.3608 145.309 67.3608C145.596 67.3608 145.827 67.5927 145.827 67.8787V70.0009L155.991 71.369L156.167 68.9146C156.187 68.6296 156.424 68.4168 156.72 68.4349C157.006 68.4556 157.22 68.7034 157.2 68.9889L156.947 72.5439Z" fill="#263238"/>
<path d="M147.563 71.5276L154.216 72.1714L154.645 69.8104L147.777 68.7374L147.563 71.5276Z" fill="white" stroke="#263238" stroke-miterlimit="10" stroke-linecap="round" stroke-linejoin="round"/>
<path d="M146.382 71.8492C146.382 71.8492 146.382 69.1667 146.704 68.9518C147.026 68.7374 151.641 69.059 151.641 69.7027C151.641 70.3464 151.641 70.6685 151.104 70.6685C150.568 70.6685 149.494 70.7757 149.494 70.7757C149.494 70.7757 151.963 73.0289 151.211 75.0678" fill="white"/>
<path d="M146.382 71.8492C146.382 71.8492 146.382 69.1667 146.704 68.9518C147.026 68.7374 151.641 69.059 151.641 69.7027C151.641 70.3464 151.641 70.6685 151.104 70.6685C150.568 70.6685 149.494 70.7757 149.494 70.7757C149.494 70.7757 151.963 73.0289 151.211 75.0678" stroke="#263238" stroke-miterlimit="10" stroke-linecap="round" stroke-linejoin="round"/>
<path d="M149.709 95.028L149.28 99.7494" stroke="#263238" stroke-miterlimit="10" stroke-linecap="round" stroke-linejoin="round"/>
<path d="M95.2166 92.9652C95.2166 92.9652 80.0494 104.806 80.4405 106.078C80.8322 107.35 92.0851 118.114 95.8035 120.756C99.522 123.398 101.577 124.572 101.577 124.572L103.926 126.04C103.926 126.04 102.947 127.605 103.534 127.899C104.121 128.193 106.274 129.269 106.567 128.682C106.861 128.095 108.427 123.692 108.231 122.615C108.035 121.539 102.359 120.658 101.968 120.266C101.577 119.875 92.2809 105.393 92.2809 105.393L99.522 99.717L95.2166 92.9652Z" fill="white" stroke="#263238" stroke-miterlimit="10" stroke-linecap="round" stroke-linejoin="round"/>
<path d="M94.9561 93.3589L97.7081 100.829L99.523 99.717L94.9561 93.3589Z" fill="#263238" stroke="#263238" stroke-miterlimit="10" stroke-linecap="round" stroke-linejoin="round"/>
<path d="M103.926 126.04C103.926 126.04 104.611 127.508 105.785 127.605" stroke="#263238" stroke-miterlimit="10" stroke-linecap="round" stroke-linejoin="round"/>
<path d="M92.2804 105.393L90.3232 101.968" stroke="#263238" stroke-miterlimit="10" stroke-linecap="round" stroke-linejoin="round"/>
<path d="M105.296 212.54L105.14 221.235L112.269 221.392L112.895 211.913L105.296 212.54Z" fill="white" stroke="#263238" stroke-miterlimit="10" stroke-linecap="round" stroke-linejoin="round"/>
<path d="M105.326 212.068V214.216L112.716 214.559L112.888 212.325L105.326 212.068Z" fill="#263238" stroke="#263238" stroke-miterlimit="10" stroke-linecap="round" stroke-linejoin="round"/>
<path d="M108.667 218.964C108.667 218.964 107.727 215.282 106.316 215.203C104.906 215.125 104.201 216.222 103.653 217.24C103.105 218.258 99.6574 221.706 98.4825 222.567C97.3076 223.429 94.7221 224.526 94.3305 227.033C93.9389 229.54 95.4274 230.558 96.4458 230.793C97.4641 231.028 102.086 231.107 104.828 230.793C107.57 230.48 115.052 231.224 115.483 230.793C115.914 230.363 116.501 228.992 116.109 228.051C115.718 227.111 115.012 226.093 115.012 226.093C115.012 226.093 115.796 223.821 115.326 222.567C114.855 221.314 113.916 219.747 114.072 219.042C114.229 218.337 115.952 216.848 114.777 216.77C113.602 216.692 111.722 218.102 110.547 218.494C109.372 218.885 108.667 218.964 108.667 218.964Z" fill="#263238" stroke="#263238" stroke-miterlimit="10" stroke-linecap="round" stroke-linejoin="round"/>
<path d="M113.681 226.406C112.584 226.562 108.353 228.6 105.69 229.226C103.026 229.853 100.676 229.932 99.4226 229.305C98.1691 228.678 97.0722 226.798 96.1324 225.623C95.1926 224.448 94.4088 227.425 94.4088 227.425L94.2788 227.483C94.1217 229.663 95.4903 230.573 96.4455 230.793C97.4639 231.028 102.086 231.106 104.828 230.793C107.57 230.48 115.051 231.224 115.482 230.793C115.913 230.362 116.501 228.992 116.109 228.051C115.717 227.111 115.012 226.093 115.012 226.093C114.543 226.014 114.778 226.249 113.681 226.406Z" fill="white" stroke="#263238" stroke-miterlimit="10" stroke-linecap="round" stroke-linejoin="round"/>
<path d="M102.243 219.434C102.243 219.434 104.358 218.964 107.022 221.549L105.612 222.724C105.612 222.724 102.87 220.609 101.146 220.609L102.243 219.434Z" fill="white" stroke="#263238" stroke-miterlimit="10" stroke-linecap="round" stroke-linejoin="round"/>
<path d="M100.284 221C100.284 221 102.399 220.53 105.062 223.116L103.652 224.291C103.652 224.291 100.91 222.175 99.1868 222.175L100.284 221Z" fill="white" stroke="#263238" stroke-miterlimit="10" stroke-linecap="round" stroke-linejoin="round"/>
<path d="M106.475 220.765L108.668 218.964" stroke="#263238" stroke-miterlimit="10" stroke-linecap="round" stroke-linejoin="round"/>
<path d="M103.652 224.291C103.652 224.291 104.2 225.465 103.26 226.171C102.32 226.876 96.1312 225.701 96.2097 224.839C96.2883 223.977 99.1868 222.175 99.1868 222.175C99.1868 222.175 101.537 222.645 103.652 224.291Z" fill="white" stroke="#263238" stroke-miterlimit="10" stroke-linecap="round" stroke-linejoin="round"/>
<path d="M150.25 212.54L150.406 221.235L143.277 221.392L142.65 211.913L150.25 212.54Z" fill="white" stroke="#263238" stroke-miterlimit="10" stroke-linecap="round" stroke-linejoin="round"/>
<path d="M142.789 213.528V214.817L150.351 214.731L150.265 212.841L142.617 212.755L142.789 213.528Z" fill="#263238" stroke="#263238" stroke-miterlimit="10" stroke-linecap="round" stroke-linejoin="round"/>
<path d="M146.88 218.964C146.88 218.964 147.821 215.282 149.231 215.203C150.641 215.125 151.346 216.222 151.894 217.24C152.442 218.258 155.889 221.706 157.064 222.567C158.239 223.429 160.825 224.526 161.216 227.033C161.608 229.54 160.119 230.558 159.101 230.793C158.083 231.028 153.461 231.107 150.719 230.793C147.977 230.48 140.495 231.224 140.064 230.793C139.633 230.363 139.046 228.992 139.438 228.051C139.829 227.111 140.534 226.093 140.534 226.093C140.534 226.093 139.751 223.821 140.221 222.567C140.691 221.314 141.631 219.747 141.474 219.042C141.318 218.337 139.594 216.848 140.769 216.77C141.944 216.692 143.824 218.102 144.999 218.494C146.175 218.885 146.88 218.964 146.88 218.964Z" fill="#263238" stroke="#263238" stroke-miterlimit="10" stroke-linecap="round" stroke-linejoin="round"/>
<path d="M141.868 226.406C142.964 226.562 147.195 228.6 149.858 229.226C152.522 229.853 154.872 229.932 156.126 229.305C157.379 228.678 158.476 226.798 159.416 225.623C160.356 224.448 161.14 227.425 161.14 227.425L161.27 227.483C161.427 229.663 160.058 230.573 159.103 230.793C158.084 231.028 153.462 231.106 150.72 230.793C147.978 230.48 140.497 231.224 140.066 230.793C139.635 230.362 139.048 228.992 139.439 228.051C139.831 227.111 140.536 226.093 140.536 226.093C141.006 226.014 140.771 226.249 141.868 226.406Z" fill="white" stroke="#263238" stroke-miterlimit="10" stroke-linecap="round" stroke-linejoin="round"/>
<path d="M153.305 219.434C153.305 219.434 151.19 218.964 148.527 221.549L149.937 222.724C149.937 222.724 152.679 220.609 154.402 220.609L153.305 219.434Z" fill="white" stroke="#263238" stroke-miterlimit="10" stroke-linecap="round" stroke-linejoin="round"/>
<path d="M155.263 221C155.263 221 153.147 220.53 150.484 223.116L151.894 224.291C151.894 224.291 154.636 222.175 156.36 222.175L155.263 221Z" fill="white" stroke="#263238" stroke-miterlimit="10" stroke-linecap="round" stroke-linejoin="round"/>
<path d="M149.075 220.765L146.881 218.964" stroke="#263238" stroke-miterlimit="10" stroke-linecap="round" stroke-linejoin="round"/>
<path d="M151.895 224.291C151.895 224.291 151.347 225.465 152.286 226.171C153.226 226.876 159.415 225.701 159.337 224.839C159.258 223.977 156.36 222.175 156.36 222.175C156.36 222.175 154.01 222.645 151.895 224.291Z" fill="white" stroke="#263238" stroke-miterlimit="10" stroke-linecap="round" stroke-linejoin="round"/>
<path d="M108.569 120.738C108.569 120.738 104.424 137.663 102.87 151.997C101.315 166.331 98.8977 213.306 98.8977 213.306H117.895C117.895 213.306 123.594 165.64 124.458 157.178C125.321 148.716 125.321 143.362 125.321 143.362L136.028 213.306H158.652C158.652 213.306 150.017 168.922 146.563 148.543C143.109 128.164 138.273 120.22 138.273 120.22L108.569 120.738Z" fill="#B0B0B0" stroke="#263238" stroke-miterlimit="10" stroke-linecap="round" stroke-linejoin="round"/>
<path d="M124.804 121.947C124.64 122.438 120.141 129.2 121.523 129.719C122.904 130.237 125.495 130.237 125.495 128.855C125.495 127.473 125.495 123.329 125.495 123.329C125.495 123.329 125.84 131.1 127.395 130.755C128.949 130.41 131.021 130.755 130.503 129.028C129.985 127.301 126.013 121.775 126.013 121.775C126.013 121.775 125.322 120.393 124.804 121.947Z" fill="#B0B0B0" stroke="#263238" stroke-miterlimit="10" stroke-linecap="round" stroke-linejoin="round"/>
<path d="M125.515 122.514C125.515 122.514 129.433 128.075 129.054 128.58C128.674 129.086 128.169 129.591 127.79 128.833C127.411 128.075 125.515 122.514 125.515 122.514Z" stroke="#263238" stroke-miterlimit="10"/>
<path d="M125.389 121.882C125.389 121.882 122.482 128.075 122.861 128.328C123.24 128.58 124.125 128.58 124.377 127.696C124.631 126.811 125.389 121.882 125.389 121.882Z" stroke="#263238" stroke-miterlimit="10"/>
<path d="M137.19 139.532C137.35 140.411 137.483 141.237 137.581 141.98" stroke="#263238" stroke-miterlimit="10" stroke-linecap="round" stroke-linejoin="round"/>
<path d="M133.092 122.465C133.092 122.465 135.247 130.162 136.63 136.695" stroke="#263238" stroke-miterlimit="10" stroke-linecap="round" stroke-linejoin="round"/>
<path d="M131.539 122.465C131.539 122.465 132.921 132.136 133.611 134.727" stroke="#263238" stroke-miterlimit="10" stroke-linecap="round" stroke-linejoin="round"/>
<path d="M112.743 135.856C112.671 136.526 112.603 137.137 112.542 137.663" stroke="#263238" stroke-miterlimit="10" stroke-linecap="round" stroke-linejoin="round"/>
<path d="M114.095 122.465C114.095 122.465 113.523 128.377 113.016 133.257" stroke="#263238" stroke-miterlimit="10" stroke-linecap="round" stroke-linejoin="round"/>
<path d="M112.714 122.811L112.023 131.1" stroke="#263238" stroke-miterlimit="10" stroke-linecap="round" stroke-linejoin="round"/>
<path d="M124.813 51.9978C124.813 51.9978 131.252 52.6415 129.749 55.9683C128.247 59.2951 126.744 59.9388 126.422 59.9388C126.1 59.9388 123.525 55.9683 123.525 55.9683L124.813 51.9978Z" fill="#263238" stroke="#263238" stroke-miterlimit="10" stroke-linecap="round" stroke-linejoin="round"/>
<path d="M124.063 55.1096C124.063 55.1096 126.531 56.5048 127.282 59.0801C128.033 61.6555 129.964 62.4064 130.501 62.2992C131.038 62.192 131.788 63.8015 131.145 64.8746C130.501 65.9476 130.501 65.9476 130.501 65.9476C130.501 65.9476 131.038 73.2444 130.394 74.2102C129.75 75.176 125.78 74.6395 125.78 74.6395C125.78 74.6395 124.921 78.0735 125.672 80.2195C126.423 82.3656 128.677 83.4386 129.535 83.4386C130.393 83.4386 132.218 82.3656 134.686 83.653C137.154 84.9404 145.417 91.1647 145.417 91.1647L141.017 103.183L136.295 100.715L139.622 121.211L107.429 121.962C107.429 121.962 107.752 107.368 106.893 104.685C106.034 102.003 104.64 99.5345 104.64 99.5345L100.562 102.754L94.8748 92.8814C94.8748 92.8814 103.245 84.5116 106.571 83.7602C109.898 83.0093 113.868 83.9746 115.156 82.365C116.443 80.7555 115.37 73.1366 115.37 73.1366C115.37 73.1366 112.259 72.0636 110.434 66.5908C108.61 61.1179 114.834 55.4307 114.834 55.4307C114.834 55.4307 117.624 52.5343 124.063 55.1096Z" fill="white" stroke="#263238" stroke-miterlimit="10" stroke-linecap="round" stroke-linejoin="round"/>
<path d="M125.781 74.6395L122.88 74.1481L125.21 76.8274L125.781 74.6395Z" fill="#263238" stroke="#263238" stroke-miterlimit="10" stroke-linecap="round" stroke-linejoin="round"/>
<path d="M124.418 60.9184C124.418 60.9184 124.418 58.8796 126.242 58.8796" stroke="#263238" stroke-width="2" stroke-miterlimit="10" stroke-linecap="round" stroke-linejoin="round"/>
<path d="M129.214 68.308L125.458 66.4836C125.458 66.4836 125.136 70.3469 126.531 70.2392C127.926 70.1325 129.214 68.308 129.214 68.308Z" fill="#263238" stroke="#263238" stroke-miterlimit="10" stroke-linecap="round" stroke-linejoin="round"/>
<path d="M125.537 62.9106C125.537 62.9106 126.747 61.6009 127.754 62.7089" stroke="#263238" stroke-miterlimit="10" stroke-linecap="round" stroke-linejoin="round"/>
<path d="M125.43 67.71L128.807 68.8074C129.061 68.523 129.213 68.308 129.213 68.308L125.458 66.4836C125.458 66.4836 125.412 67.0323 125.43 67.71Z" fill="white" stroke="#263238" stroke-miterlimit="10" stroke-linecap="round" stroke-linejoin="round"/>
<path d="M104.425 59.7239C104.425 59.7239 102.064 54.8947 98.7376 55.4318C95.4113 55.9683 92.8354 59.6167 93.9085 64.7674C93.9085 64.7674 94.445 66.1625 94.8743 67.3427C94.8743 67.3427 90.6894 66.0553 88.4356 68.8451C86.1824 71.6348 87.8991 74.5323 90.4745 75.9274C93.0498 77.3226 94.5522 77.2149 94.5522 77.2149C94.5522 77.2149 88.8649 78.9316 90.9038 81.0776C92.9426 83.2237 99.1664 81.8291 97.879 80.0046C96.591 78.1801 95.6257 78.3951 95.6257 78.3951C95.6257 78.3951 100.776 76.4634 100.24 75.0683C99.7034 73.6731 97.1281 72.6001 97.1281 72.6001C97.1281 72.6001 102.064 74.3168 104.747 72.7073C107.429 71.0978 105.069 64.2298 105.069 64.2298L104.425 59.7239Z" fill="#263238" stroke="#263238" stroke-miterlimit="10" stroke-linecap="round" stroke-linejoin="round"/>
<path d="M125.994 49.6368C125.994 49.6368 126.852 52.6415 125.35 55.2168C123.847 57.7922 120.628 62.192 120.199 67.1278C119.77 72.0641 121.165 78.1807 122.024 80.2195C122.882 82.2584 120.951 82.6877 119.555 82.5805C118.16 82.4733 117.624 81.6147 117.624 79.683C117.624 77.7514 117.194 74.3174 117.194 74.3174C117.194 74.3174 111.722 73.7809 109.146 72.2785C106.571 70.7762 102.815 65.6255 104.425 59.7239C106.034 53.8217 110.327 52.105 112.902 51.032C115.478 49.9589 119.019 50.0661 121.487 49.5296C123.955 48.9931 125.886 48.3489 125.994 49.6368Z" fill="#263238" stroke="#263238" stroke-miterlimit="10" stroke-linecap="round" stroke-linejoin="round"/>
<path d="M118.161 64.6596L117.195 68.5224C117.195 68.5224 115.156 67.5566 114.834 65.8398C114.512 64.1231 116.98 63.2645 118.697 64.7668" fill="white"/>
<path d="M118.161 64.6596L117.195 68.5224C117.195 68.5224 115.156 67.5566 114.834 65.8398C114.512 64.1231 116.98 63.2645 118.697 64.7668" stroke="#263238" stroke-miterlimit="10" stroke-linecap="round" stroke-linejoin="round"/>
<path d="M149.495 70.7762L148.1 70.8834" stroke="#263238" stroke-miterlimit="10" stroke-linecap="round" stroke-linejoin="round"/>
<path d="M139.458 67.6776L175.222 72.6802L170.363 46.223L138.354 61.6337L139.458 67.6776Z" fill="#8AC7FF" stroke="#263238" stroke-miterlimit="10" stroke-linecap="round" stroke-linejoin="round"/>
<path d="M138.35 61.6411L133.034 62.6127L134.133 68.628L139.449 67.6564L138.35 61.6411Z" fill="#8AC7FF" stroke="#263238" stroke-miterlimit="10" stroke-linecap="round" stroke-linejoin="round"/>
<path d="M145.418 91.1647C145.418 91.1647 137.155 84.9409 134.687 83.653C132.253 82.3831 130.447 83.4078 129.574 83.4359C128.218 85.3798 125.062 88.6652 119.235 88.5893C112.177 88.4975 110.209 84.5716 109.786 83.428C108.72 83.4582 107.615 83.5251 106.573 83.7602C103.246 84.5111 94.8767 92.8814 94.8767 92.8814L100.564 102.754L104.642 99.5345C104.642 99.5345 106.037 102.003 106.895 104.685C107.754 107.368 107.431 121.962 107.431 121.962L139.624 121.211L136.297 100.715L141.019 103.183L145.418 91.1647Z" fill="#263238" stroke="#263238" stroke-miterlimit="10" stroke-linecap="round" stroke-linejoin="round"/>
<path d="M125.052 111.594C130.373 110.327 133.66 104.987 132.393 99.6654C131.126 94.3441 125.785 91.0573 120.464 92.3242C115.143 93.591 111.856 98.9318 113.123 104.253C114.39 109.574 119.73 112.861 125.052 111.594Z" stroke="white" stroke-miterlimit="10"/>
<path d="M128.809 97.4771H117.068L122.855 103.056L128.809 97.4771Z" fill="#8AC7FF"/>
<path d="M125.205 101.822L129.293 105.434V97.9923L125.205 101.822Z" fill="#8AC7FF"/>
<path d="M120.548 101.815L116.408 97.8246V105.265L120.548 101.815Z" fill="#8AC7FF"/>
<path d="M124.687 102.308L122.847 104.032L121.06 102.309L116.752 105.899H128.75L124.687 102.308Z" fill="#8AC7FF"/>
<path d="M10.6228 231H244.286" stroke="#263238" stroke-miterlimit="10"/>
</svg>
