<svg width="322" height="240" viewBox="0 0 322 240" fill="none" xmlns="http://www.w3.org/2000/svg">
<path d="M322 210.875H0V211.036H322V210.875Z" fill="#EBEBEB"/>
<path d="M55.1143 217.009H33.7837V217.17H55.1143V217.009Z" fill="#EBEBEB"/>
<path d="M145.902 215.261H110.214V215.422H145.902V215.261Z" fill="#EBEBEB"/>
<path d="M70.9637 220.833H58.604V220.994H70.9637V220.833Z" fill="#EBEBEB"/>
<path d="M276.053 216.928H248.236V217.089H276.053V216.928Z" fill="#EBEBEB"/>
<path d="M285.865 216.928H281.786V217.089H285.865V216.928Z" fill="#EBEBEB"/>
<path d="M208.689 219.188H178.525V219.349H208.689V219.188Z" fill="#EBEBEB"/>
<path d="M152.637 182.154H28.2812C26.2545 182.154 24.6052 180.505 24.6052 178.478V3.67595C24.6052 1.64928 26.2545 0 28.2812 0H152.637C154.663 0 156.312 1.64928 156.312 3.67595V178.478C156.312 180.505 154.663 182.154 152.637 182.154ZM28.2812 0.161644C26.3427 0.161644 24.7662 1.73816 24.7662 3.6766V178.479C24.7662 180.417 26.3427 181.994 28.2812 181.994H152.637C154.575 181.994 156.151 180.417 156.151 178.479V3.67595C156.151 1.73816 154.575 0.161 152.637 0.161L28.2812 0.161644Z" fill="#EBEBEB"/>
<path d="M291.932 182.154H167.576C165.55 182.154 163.901 180.505 163.901 178.478V3.67595C163.901 1.64928 165.55 0 167.576 0H291.932C293.959 0 295.607 1.64928 295.607 3.67595V178.478C295.608 180.505 293.959 182.154 291.932 182.154ZM167.576 0.161644C165.639 0.161644 164.062 1.73816 164.062 3.6766V178.479C164.062 180.417 165.639 181.994 167.576 181.994H291.932C293.87 181.994 295.446 180.417 295.446 178.479V3.67595C295.446 1.73816 293.87 0.161 291.932 0.161L167.576 0.161644Z" fill="#EBEBEB"/>
<path d="M191.81 12.5206H67.4802V101.774H191.81V12.5206Z" fill="#FAFAFA"/>
<path d="M184.734 101.774L153.111 12.5206H129.379L161.002 101.774H184.734Z" fill="white"/>
<path d="M120.92 101.774L89.2959 12.5206H80.6399L112.264 101.774H120.92Z" fill="white"/>
<path d="M61.5523 9.45134H197.738C198.042 9.45134 198.29 9.69993 198.29 10.0039C198.29 10.3079 198.042 10.5564 197.738 10.5564H61.5523C61.2483 10.5564 60.9998 10.3079 60.9998 10.0039C60.9998 9.69993 61.2483 9.45134 61.5523 9.45134Z" fill="#E0E0E0"/>
<path d="M130.382 12.3287H128.908V101.966H130.382V12.3287Z" fill="#F0F0F0"/>
<path d="M128.908 12.3287H128.172V101.966H128.908V12.3287Z" fill="#E0E0E0"/>
<path d="M66.6213 56.4103V57.8838L192.669 57.8838V56.4103L66.6213 56.4103Z" fill="#F0F0F0"/>
<path d="M66.6213 101.16V13.1344V11.6609H68.0942H191.195H192.669V13.1344V101.16V102.633H191.195H68.0942H66.6213V101.16ZM191.195 101.16V13.1344H68.0942V101.16H191.195Z" fill="#F0F0F0"/>
<path d="M66.6213 11.6609H65.8845V102.633H66.6213V11.6609Z" fill="#E0E0E0"/>
<path opacity="0.5" d="M84.8987 8.10088V112.916H58.2886L63.1688 8.10088H84.8987Z" fill="#EBEBEB"/>
<path opacity="0.5" d="M173.655 8.10088V112.916H200.265L195.385 8.10088H173.655Z" fill="#EBEBEB"/>
<path d="M50.0279 125.475H39.8792V207.798H50.0279V125.475Z" fill="#F0F0F0"/>
<path d="M153.643 207.798H41.8279V210.876H153.643V207.798Z" fill="#F0F0F0"/>
<path d="M50.0284 207.797H155.592V125.475L50.0284 125.475L50.0284 207.797Z" fill="#F5F5F5"/>
<path d="M48.975 122.789H38.6021V125.475H48.975V122.789Z" fill="#F0F0F0"/>
<path d="M48.9753 125.475L156.869 125.475V122.789L48.9753 122.789V125.475Z" fill="#FAFAFA"/>
<path d="M151.943 171.802H53.6775V131.114H151.943V171.802ZM54.3588 171.12H151.261V131.795H54.3588V171.12Z" fill="#E0E0E0"/>
<path d="M151.943 202.158H53.6775V175.876H151.943V202.158ZM54.3588 201.477H151.261V176.558H54.3588V201.477Z" fill="#E0E0E0"/>
<path d="M137.803 133.64H67.8166C67.3213 133.64 66.9163 133.235 66.9163 132.739V132.354C66.9163 131.859 67.3213 131.454 67.8166 131.454H137.803C138.299 131.454 138.704 131.859 138.704 132.354V132.739C138.704 133.235 138.299 133.64 137.803 133.64Z" fill="#E0E0E0"/>
<path d="M137.803 178.402H67.8166C67.3213 178.402 66.9163 177.997 66.9163 177.502V177.117C66.9163 176.622 67.3213 176.217 67.8166 176.217H137.803C138.299 176.217 138.704 176.622 138.704 177.117V177.502C138.704 177.997 138.299 178.402 137.803 178.402Z" fill="#E0E0E0"/>
<path d="M224.021 206.925H283.061V26.7883H224.021L224.021 206.925Z" fill="#F0F0F0"/>
<path d="M224.021 26.7878H222.148V206.925H224.021V26.7878Z" fill="#E0E0E0"/>
<path d="M233.6 200.054H273.483V33.6598H233.6L233.6 200.054Z" fill="#FAFAFA"/>
<path d="M160.999 239.96C229.96 239.96 285.864 236.695 285.864 232.668C285.864 228.641 229.96 225.376 160.999 225.376C92.0385 225.376 36.1348 228.641 36.1348 232.668C36.1348 236.695 92.0385 239.96 160.999 239.96Z" fill="#F5F5F5"/>
<path d="M92.3215 227.062L97.3633 225.149L94.2767 212.964L89.2341 214.876L92.3215 227.062Z" fill="#B55B52"/>
<path d="M54.4355 227.16H59.8284L60.636 214.672H55.2431L54.4355 227.16Z" fill="#B55B52"/>
<path d="M60.368 226.535H53.7927C53.5725 226.535 53.389 226.689 53.3516 226.904L52.5247 231.697C52.4391 232.194 52.8531 232.665 53.3619 232.656C55.4755 232.62 57.0127 232.496 59.677 232.496C61.316 232.496 66.2677 232.666 68.5313 232.666C70.7454 232.666 70.9792 230.428 70.0428 230.225C65.8426 229.316 62.649 228.062 61.2593 226.866C61.0088 226.651 60.69 226.535 60.368 226.535Z" fill="#263238"/>
<path d="M97.107 224.579L91.6008 226.667C91.3947 226.745 91.2704 226.957 91.302 227.175L92.0059 232.034C92.0787 232.538 92.599 232.845 93.0717 232.657C95.0456 231.87 96.7206 230.871 99.2335 229.969C102.172 228.914 105.089 227.785 107.467 226.271C109.334 225.081 108.548 222.83 107.667 223.183C103.66 224.791 102.677 225.32 98.471 224.512C98.0131 224.424 97.5417 224.414 97.107 224.579Z" fill="#263238"/>
<path d="M82.8811 62.8158C84.5786 65.8142 86.3664 68.9054 88.1683 71.8962C89.9689 74.9004 91.8204 77.8693 93.7833 80.6526C94.2592 81.3578 94.786 82.0321 95.2607 82.6845C95.4571 82.9762 95.5408 83.0599 95.6793 83.17C95.8197 83.2731 96.1487 83.3665 96.6575 83.3233C97.1605 83.2879 97.7987 83.1411 98.4588 82.8957C99.7931 82.4088 101.221 81.6103 102.618 80.717C103.312 80.2604 104.017 79.7903 104.708 79.2899C105.388 78.796 106.093 78.2434 106.721 77.7585L109.746 80.4511C109.166 81.2947 108.6 82.0115 107.976 82.7521C107.361 83.4843 106.721 84.2049 106.025 84.8844C105.336 85.5722 104.604 86.2355 103.811 86.8621C103.02 87.4919 102.172 88.096 101.215 88.6279C100.258 89.1579 99.2032 89.6519 97.9416 89.9604C96.6942 90.2592 95.1731 90.3751 93.5914 89.9475C92.0033 89.5424 90.5717 88.5275 89.6224 87.4417C88.9759 86.6921 88.3447 85.9927 87.7548 85.2521C85.3637 82.3225 83.2539 79.2906 81.2517 76.2052C79.2605 73.0979 77.4206 69.9874 75.6792 66.6817L82.8811 62.8158Z" fill="#B65B52"/>
<path d="M73.3158 63.0637C71.8616 68.0103 82.098 81.4963 82.098 81.4963L92.4194 74.8547C92.4194 74.8547 89.3861 67.9742 85.2671 62.7269C81.0386 57.3398 74.9116 57.6348 73.3158 63.0637Z" fill="#407BFF"/>
<path opacity="0.2" d="M73.3158 63.0637C71.8616 68.0103 82.098 81.4963 82.098 81.4963L92.4194 74.8547C92.4194 74.8547 89.3861 67.9742 85.2671 62.7269C81.0386 57.3398 74.9116 57.6348 73.3158 63.0637Z" fill="black"/>
<path opacity="0.2" d="M79.6076 68.8707C81.7309 69.7774 84.8549 74.8901 86.4804 78.6794L82.0999 81.4944C82.0999 81.4944 78.156 76.3011 75.5156 71.1749C76.8996 69.657 78.4851 68.3941 79.6076 68.8707Z" fill="black"/>
<path d="M106.086 79.44L107.977 74.1444L113.344 76.7056C113.344 76.7056 112.23 81.4287 108.303 81.4209L106.086 79.44Z" fill="#B55B52"/>
<path d="M112.754 70.6565L115.024 73.1668L113.345 76.7062L107.978 74.1444L112.754 70.6565Z" fill="#B55B52"/>
<path opacity="0.2" d="M94.276 212.968L95.8686 219.249L90.8241 221.162L89.2322 214.881L94.276 212.968Z" fill="black"/>
<path opacity="0.2" d="M55.2418 214.675H60.6372L60.2179 221.112H54.8225L55.2418 214.675Z" fill="black"/>
<path d="M49.2771 60.876C55.086 81.361 54.1354 103.097 54.498 107.513C58.7246 107.361 74.6449 106.761 83.3235 106.433C88.2198 75.8973 79.4266 58.9022 79.4266 58.9022C79.4266 58.9022 77.577 58.5428 75.0616 58.2846C74.2727 58.2041 73.422 58.1326 72.5358 58.0862C72.0464 58.0566 71.5492 58.0412 71.0449 58.0309C67.7908 57.9774 62.4765 58.4945 58.8154 58.9421C58.049 59.0374 57.2679 59.1527 56.5137 59.2757C55.8131 59.3955 55.1259 59.5224 54.4787 59.6518C51.5427 60.2372 49.2771 60.876 49.2771 60.876Z" fill="#407BFF"/>
<path opacity="0.2" d="M49.2771 60.876C55.086 81.361 54.1354 103.097 54.498 107.513C58.7246 107.361 74.6449 106.761 83.3235 106.433C88.2198 75.8973 79.4266 58.9022 79.4266 58.9022C79.4266 58.9022 77.577 58.5428 75.0616 58.2846C74.2727 58.2041 73.422 58.1326 72.5358 58.0862C72.0464 58.0566 71.5492 58.0412 71.0449 58.0309C67.7908 57.9774 62.4765 58.4945 58.8154 58.9421C58.049 59.0374 57.2679 59.1527 56.5137 59.2757C55.8131 59.3955 55.1259 59.5224 54.4787 59.6518C51.5427 60.2372 49.2771 60.876 49.2771 60.876Z" fill="black"/>
<path opacity="0.2" d="M55.4138 69.6641C55.9309 71.6457 55.3397 80.6894 53.2706 82.9195C52.9885 80.0241 52.6124 77.0005 52.1152 73.91L55.4138 69.6641Z" fill="black"/>
<path d="M59.0041 45.0819C60.068 48.9588 61.3747 56.1104 58.8174 58.9402C61.1139 60.9063 64.0917 63.1545 68.7762 62.971C73.46 62.7874 72.4051 59.6351 71.045 58.0309C66.5802 57.3096 66.4507 54.0458 66.9878 50.932L59.0041 45.0819Z" fill="#B55B52"/>
<path d="M68.8952 62.3044L69.7459 62.8802L66.6418 63.7837L67.4417 62.3469L68.8952 62.3044Z" fill="#407BFF"/>
<path d="M70.0668 62.0024L69.7461 62.8802L72.8631 63.7837L72.6525 62.1164L70.0668 62.0024Z" fill="#407BFF"/>
<path d="M56.9536 58.6433L58.1804 58.0276C58.5791 57.8274 59.055 57.8653 59.413 58.1313C60.701 59.0883 64.1278 61.3462 68.8953 62.3044C66.432 63.4804 67.0412 66.6341 67.0412 66.6341C67.0412 66.6341 59.2166 64.0535 56.7044 59.382C56.5608 59.1147 56.6825 58.7798 56.9536 58.6433Z" fill="white"/>
<path d="M72.4128 57.8312L70.6141 57.5607C70.4055 57.5292 70.2632 57.7623 70.3849 57.9349C71.0134 58.8255 72.0561 60.7955 70.0674 62.003C72.5307 63.179 73.297 66.0564 73.297 66.0564C73.297 66.0564 76.5035 62.5955 72.7651 58.0308C72.6775 57.9239 72.5494 57.8518 72.4128 57.8312Z" fill="white"/>
<path opacity="0.2" d="M62.2589 47.4699L66.984 50.9295C66.8545 51.6669 66.7663 52.4107 66.7682 53.1281C65.0739 53.0109 62.635 51.3423 62.3266 49.6002C62.1726 48.7315 62.1469 47.8879 62.2589 47.4699Z" fill="black"/>
<path d="M72.6864 37.1324C72.4707 39.0032 70.6746 40.6171 69.5115 41.0202L68.0645 32.8678C71.3173 30.5752 72.9898 34.5023 72.6864 37.1324Z" fill="#263238"/>
<path d="M57.3747 39.38C58.3124 44.6492 58.5932 47.781 61.5871 50.196C66.0906 53.8288 72.3612 50.6435 73.0175 45.2004C73.608 40.3009 71.9755 32.5066 66.5375 30.9932C61.1801 29.5023 56.437 34.1108 57.3747 39.38Z" fill="#B55B52"/>
<path d="M58.3761 42.9329C60.8169 44.2299 61.8917 41.3146 61.913 40.1335C61.9458 38.2504 61.1305 36.1864 60.1594 35.4303C64.8709 35.4026 74.1928 35.1972 71.8415 30.7092C69.4903 26.2205 64.7814 26.7337 61.2316 29.188C59.3557 30.485 53.2892 29.3561 54.7929 32.855C51.6296 34.5352 54.373 40.8058 58.3761 42.9329Z" fill="#263238"/>
<path d="M55.3101 32.5658C55.3101 32.5658 54.2713 32.6624 52.9846 31.775C53.3556 33.4416 55.0428 33.4803 55.0428 33.4803L55.3101 32.5658Z" fill="#263238"/>
<path d="M55.3933 43.7141C56.0295 45.0092 57.2048 45.8895 58.3331 46.2547C60.0307 46.8034 60.4197 45.2468 60.0075 43.6078C59.6366 42.1324 58.8374 40.1238 57.105 40.2887C55.3984 40.4509 54.6655 42.2329 55.3933 43.7141Z" fill="#B55B52"/>
<path d="M89.6025 163.446C87.4109 147.133 83.3228 106.435 83.3228 106.435L64.3738 107.146C64.3738 107.146 73.3112 147.817 76.546 164.308C79.7808 180.798 88.7769 220.602 88.7769 220.602L97.3163 217.367C97.3163 217.367 91.8835 180.407 89.6025 163.446Z" fill="#263238"/>
<path opacity="0.2" d="M71.4487 118.111C70.2663 118.406 68.3987 119.132 67.2363 120.268C69.0234 128.491 71.3618 139.315 73.3704 148.855C74.7409 140.59 74.7814 124.997 71.4487 118.111Z" fill="black"/>
<path d="M73.0987 106.818C73.0987 106.818 69.0782 150.968 67.2364 166.662C65.2194 183.848 62.7014 219.865 62.7014 219.865H52.8243C52.8243 219.865 52.4148 188.01 53.6989 171.187C55.1614 152.025 54.5 107.518 54.5 107.518L73.0987 106.818Z" fill="#263238"/>
<path d="M64.0138 220.079H52.3831L52.1384 216.604L65.124 216.378L64.0138 220.079Z" fill="#407BFF"/>
<path d="M98.4638 217.159L88.2893 221.018L87.0425 217.731L98.3505 213.245L98.4638 217.159Z" fill="#407BFF"/>
<path d="M65.5955 39.9357C65.6451 40.3679 65.9143 40.6918 66.197 40.659C66.4797 40.6268 66.6678 40.25 66.6182 39.8179C66.5686 39.3858 66.2994 39.0618 66.0167 39.0947C65.734 39.1269 65.5453 39.5036 65.5955 39.9357Z" fill="#263238"/>
<path d="M70.4796 39.3729C70.5292 39.805 70.799 40.1289 71.0811 40.0961C71.3638 40.0639 71.5518 39.6872 71.5023 39.255C71.4527 38.8229 71.1828 38.499 70.9008 38.5318C70.6187 38.5647 70.43 38.9408 70.4796 39.3729Z" fill="#263238"/>
<path d="M68.9514 39.767C68.9514 39.767 70.2214 42.1466 71.4418 43.2247C70.7598 44.0264 69.4222 43.85 69.4222 43.85L68.9514 39.767Z" fill="#A02724"/>
<path d="M67.7336 45.2159C66.0643 45.1837 65.1705 44.1308 65.1292 44.0812C65.0842 44.0271 65.0919 43.9466 65.146 43.9015C65.2001 43.8564 65.2806 43.8641 65.3257 43.9176C65.336 43.9298 66.3799 45.1521 68.2707 44.9345C68.3409 44.9267 68.404 44.977 68.4124 45.0465C68.4207 45.1167 68.3698 45.1798 68.3003 45.1882C68.1026 45.2114 67.9139 45.2198 67.7336 45.2159Z" fill="#263238"/>
<path d="M63.9075 38.5318C63.865 38.5312 63.8219 38.5196 63.7826 38.4964C63.6609 38.4249 63.6209 38.2684 63.6924 38.1467C64.4105 36.9295 65.5877 36.8632 65.6379 36.8613C65.779 36.8548 65.8981 36.9643 65.9046 37.1054C65.911 37.2458 65.8022 37.3649 65.6618 37.372C65.6231 37.3739 64.7054 37.4351 64.1323 38.4069C64.084 38.4887 63.9964 38.5338 63.9075 38.5318Z" fill="#263238"/>
<path d="M72.3903 37.4505C72.3078 37.4486 72.2273 37.4074 72.1797 37.3321C71.5737 36.3809 70.6547 36.3506 70.616 36.35C70.4756 36.3467 70.3629 36.2308 70.3655 36.0904C70.3675 35.95 70.4821 35.8373 70.6231 35.8393C70.674 35.8412 71.8519 35.8657 72.6111 37.0577C72.6871 37.1768 72.6517 37.3346 72.5332 37.4106C72.4881 37.439 72.4386 37.4512 72.3903 37.4505Z" fill="#263238"/>
<path d="M62.1983 227.478C61.6998 227.478 61.1563 227.374 60.7776 227.284C60.7267 227.271 60.6868 227.231 60.6765 227.18C60.6655 227.129 60.6861 227.078 60.7286 227.051C60.9193 226.928 62.6059 225.86 63.2171 226.166C63.3117 226.214 63.4302 226.315 63.4541 226.528C63.4863 226.814 63.4083 227.04 63.2235 227.203C62.9891 227.408 62.6085 227.478 62.1983 227.478ZM61.1389 227.105C62.0637 227.288 62.7663 227.255 63.049 227.007C63.1733 226.899 63.2222 226.747 63.1997 226.544C63.1887 226.445 63.1469 226.411 63.1114 226.394C62.7933 226.235 61.8254 226.696 61.1389 227.105Z" fill="#407BFF"/>
<path d="M60.8073 227.288C60.7828 227.288 60.7583 227.28 60.7364 227.267C60.6958 227.241 60.6714 227.197 60.6727 227.15C60.6746 227.084 60.7261 225.528 61.3276 225.016C61.4841 224.882 61.6644 224.827 61.8634 224.851C62.1706 224.889 62.2601 225.077 62.2865 225.186C62.4308 225.788 61.41 226.969 60.8671 227.272C60.8491 227.282 60.8285 227.288 60.8073 227.288ZM61.7874 225.102C61.6824 225.102 61.5878 225.139 61.4996 225.214C61.1138 225.542 60.9869 226.449 60.9464 226.904C61.4802 226.483 62.1229 225.59 62.0379 225.235C62.0302 225.202 62.0122 225.126 61.8454 225.106C61.8261 225.103 61.8067 225.102 61.7874 225.102Z" fill="#407BFF"/>
<path d="M97.8669 225.088C97.8193 225.089 97.7748 225.064 97.751 225.021C97.7246 224.974 97.7317 224.915 97.7678 224.874C97.9519 224.669 99.589 222.873 100.331 222.982C100.474 223.003 100.584 223.087 100.648 223.225C100.757 223.456 100.755 223.68 100.645 223.89C100.278 224.59 98.7576 224.94 97.8837 225.086C97.8785 225.087 97.8727 225.088 97.8669 225.088ZM100.244 223.232C99.8137 223.245 98.8735 224.081 98.2186 224.765C99.4022 224.528 100.214 224.165 100.42 223.772C100.493 223.634 100.492 223.491 100.418 223.333C100.389 223.273 100.352 223.243 100.294 223.235C100.279 223.232 100.262 223.232 100.244 223.232Z" fill="#407BFF"/>
<path d="M97.8669 225.088C97.8547 225.088 97.8424 225.087 97.8302 225.083C97.7864 225.072 97.7516 225.037 97.74 224.994C97.7239 224.934 97.3446 223.524 97.7864 222.754C97.921 222.519 98.1181 222.366 98.3712 222.298C98.7125 222.207 98.8703 222.338 98.9424 222.463C99.2509 222.999 98.4588 224.546 97.9539 225.05C97.93 225.073 97.8991 225.087 97.8669 225.088ZM98.5682 222.524C98.5335 222.525 98.4903 222.531 98.4369 222.545C98.2495 222.595 98.1091 222.706 98.008 222.881C97.7175 223.387 97.8463 224.268 97.932 224.688C98.4117 224.08 98.9063 222.912 98.7209 222.591C98.7099 222.572 98.6803 222.521 98.5682 222.524Z" fill="#407BFF"/>
<path d="M55.2064 68.4997C53.5887 71.8331 51.9401 75.2727 50.3416 78.6595C49.5489 80.3628 48.7535 82.0617 48.0026 83.7677L46.8853 86.325L46.3514 87.604L46.2175 87.924L46.1241 88.1617C46.0584 88.3137 46.0159 88.4682 45.9586 88.6215C45.5754 89.8509 45.4717 91.1434 45.7474 92.5383C45.9992 93.9326 46.6116 95.3951 47.4456 96.8228C48.2821 98.2506 49.3344 99.6474 50.5123 100.973C51.0971 101.641 51.7114 102.297 52.3561 102.926C52.6781 103.24 53.0065 103.549 53.3408 103.85C53.6608 104.15 54.0247 104.471 54.31 104.718L52.1616 108.15C51.1628 107.643 50.3294 107.144 49.4613 106.57C48.6054 106.006 47.7663 105.411 46.9536 104.767C45.3371 103.473 43.8083 102.006 42.4539 100.288C41.1067 98.5713 39.923 96.5794 39.2004 94.2591C38.4875 91.9529 38.3053 89.2893 38.8888 86.8035C38.9667 86.4976 39.0356 86.1852 39.1303 85.8851L39.3788 85.0866L39.8354 83.6672C40.1523 82.7315 40.4666 81.7906 40.8143 80.8716C41.4905 79.0208 42.1983 77.1931 42.9595 75.3924C44.4645 71.7699 46.0932 68.2769 47.9337 64.7684L55.2064 68.4997Z" fill="#B65B52"/>
<path d="M49.2783 60.8767C44.3581 62.4178 39.5198 79.1006 39.5198 79.1006L50.9038 84.0832C50.9038 84.0832 54.5868 76.021 56.7043 69.7027C59.0104 62.8209 55.2385 59.0104 49.2783 60.8767Z" fill="#407BFF"/>
<path opacity="0.2" d="M49.2783 60.8767C44.3581 62.4178 39.5198 79.1006 39.5198 79.1006L50.9038 84.0832C50.9038 84.0832 54.5868 76.021 56.7043 69.7027C59.0104 62.8209 55.2385 59.0104 49.2783 60.8767Z" fill="black"/>
<path d="M53.1064 103.66L57.8147 106.459L53.2352 111.018C53.2352 111.018 49.2578 107.959 50.4441 105.561L53.1064 103.66Z" fill="#B55B52"/>
<path d="M60.958 110.922L56.2355 114.23L53.2351 111.018L57.8146 106.459L60.958 110.922Z" fill="#B55B52"/>
<path d="M288.755 102.448L288.53 105.552L289.173 105.599L289.398 102.494L288.755 102.448Z" fill="#407BFF"/>
<path d="M289.626 90.7164L288.974 99.7154L289.617 99.762L290.269 90.7631L289.626 90.7164Z" fill="#407BFF"/>
<path d="M271.977 191.917H114.237C109.418 191.917 105.756 187.974 106.102 183.154L114.448 66.7203C114.793 61.9006 119.02 57.9568 123.839 57.9568H281.579C286.398 57.9568 290.06 61.9 289.714 66.7203L281.368 183.154C281.022 187.974 276.796 191.917 271.977 191.917Z" fill="#407BFF"/>
<path d="M235.284 232.668H184.083L174.957 169.4H226.158L235.284 232.668Z" fill="#407BFF"/>
<path d="M227.154 228.898H171.768L170.668 232.668H226.054L227.154 228.898Z" fill="#407BFF"/>
<path d="M228.861 199.858L178.957 197.131L174.957 169.4H224.467L228.861 199.858Z" fill="#263238"/>
<path d="M270.196 191.917H112.456C107.637 191.917 103.976 187.974 104.321 183.154L112.667 66.7203C113.012 61.9006 117.239 57.9568 122.058 57.9568H279.798C284.618 57.9568 288.279 61.9 287.933 66.7203L279.587 183.154C279.241 187.974 275.016 191.917 270.196 191.917Z" fill="#263238"/>
<path d="M287.548 67.8645L282.753 134.656L283.367 134.7L288.162 67.9086L287.548 67.8645Z" fill="white"/>
<path d="M282.338 140.464L280.68 163.591L281.294 163.635L282.952 140.508L282.338 140.464Z" fill="white"/>
<path d="M269.862 189.739H113.102C109.35 189.739 106.501 186.669 106.77 182.917L115.082 66.9573C115.351 63.2054 118.641 60.1361 122.392 60.1361H279.152C282.904 60.1361 285.753 63.2054 285.484 66.9573L277.172 182.917C276.903 186.669 273.614 189.739 269.862 189.739Z" fill="white"/>
<path opacity="0.2" d="M269.862 189.739H113.102C109.35 189.739 106.501 186.669 106.77 182.917L115.082 66.9573C115.351 63.2054 118.641 60.1361 122.392 60.1361H279.152C282.904 60.1361 285.753 63.2054 285.484 66.9573L277.172 182.917C276.903 186.669 273.614 189.739 269.862 189.739Z" fill="#407BFF"/>
<path opacity="0.5" d="M153.312 184.599H116.702C114.89 184.599 113.513 183.116 113.643 181.303L121.724 68.5718C121.854 66.7596 123.442 65.2765 125.255 65.2765H161.865C163.677 65.2765 165.054 66.7596 164.924 68.5718L156.844 181.303C156.714 183.116 155.125 184.599 153.312 184.599Z" fill="white"/>
<path opacity="0.4" d="M151.895 81.1678H132.947C131.315 81.1678 130.075 79.8322 130.192 78.199L130.4 75.2939C130.517 73.6614 131.949 72.3257 133.581 72.3257H152.529C154.161 72.3257 155.402 73.6614 155.285 75.2939L155.077 78.199C154.959 79.8322 153.528 81.1678 151.895 81.1678Z" fill="#407BFF"/>
<path d="M139.848 126.769H110.921C108.073 126.769 105.909 124.438 106.114 121.59L108.187 92.6632C108.392 89.8148 110.889 87.4842 113.737 87.4842H142.664C145.512 87.4842 147.676 89.8148 147.471 92.6632L145.398 121.59C145.194 124.438 142.696 126.769 139.848 126.769Z" fill="#407BFF"/>
<path d="M143.995 103.052C142.909 103.052 141.957 103.94 141.88 105.026L141.579 109.226C141.501 110.312 142.326 111.2 143.411 111.2H146.348C146.618 111.2 146.853 110.981 146.873 110.711L147.386 103.542C147.406 103.272 147.202 103.053 146.932 103.053H143.995V103.052Z" fill="white"/>
<path d="M132.834 94.8451H114.6C114.165 94.8451 113.835 94.489 113.866 94.0536C113.896 93.6183 114.278 93.2621 114.714 93.2621H132.947C133.383 93.2621 133.713 93.6183 133.682 94.0536C133.65 94.4896 133.269 94.8451 132.834 94.8451Z" fill="white"/>
<path d="M132.545 98.8733H114.311C113.876 98.8733 113.546 98.5172 113.576 98.0819C113.607 97.6465 113.989 97.2904 114.425 97.2904H132.658C133.094 97.2904 133.424 97.6465 133.393 98.0819C133.362 98.5178 132.98 98.8733 132.545 98.8733Z" fill="white"/>
<path d="M125.956 102.902H114.023C113.587 102.902 113.257 102.546 113.288 102.111C113.319 101.675 113.701 101.319 114.136 101.319H126.069C126.505 101.319 126.835 101.675 126.804 102.111C126.773 102.546 126.391 102.902 125.956 102.902Z" fill="white"/>
<path opacity="0.5" d="M132.881 122.095H115.241C113.379 122.095 111.965 120.572 112.098 118.709L112.762 109.441C112.895 107.58 114.528 106.056 116.39 106.056H134.031C135.892 106.056 137.307 107.58 137.173 109.441L136.509 118.709C136.376 120.572 134.743 122.095 132.881 122.095Z" fill="white"/>
<path opacity="0.4" d="M149.35 137.603H127.402C126.594 137.603 125.981 136.942 126.039 136.135C126.097 135.328 126.805 134.667 127.612 134.667H149.561C150.369 134.667 150.982 135.328 150.924 136.135C150.866 136.942 150.158 137.603 149.35 137.603Z" fill="#407BFF"/>
<path opacity="0.8" d="M144.927 143.364H130.999C130.191 143.364 129.578 142.703 129.636 141.896C129.694 141.089 130.402 140.429 131.21 140.429H145.137C145.945 140.429 146.558 141.089 146.5 141.896C146.442 142.704 145.734 143.364 144.927 143.364Z" fill="white"/>
<path opacity="0.4" d="M148.211 153.501H126.262C125.454 153.501 124.841 152.841 124.899 152.034C124.957 151.226 125.665 150.566 126.472 150.566H148.421C149.229 150.566 149.842 151.227 149.784 152.034C149.726 152.841 149.018 153.501 148.211 153.501Z" fill="#407BFF"/>
<path opacity="0.8" d="M143.788 159.262H129.86C129.052 159.262 128.439 158.602 128.497 157.795C128.555 156.987 129.263 156.327 130.07 156.327H143.998C144.806 156.327 145.419 156.988 145.361 157.795C145.302 158.602 144.595 159.262 143.788 159.262Z" fill="white"/>
<path opacity="0.4" d="M147.071 169.4H125.123C124.315 169.4 123.702 168.739 123.76 167.932C123.818 167.124 124.526 166.464 125.333 166.464H147.282C148.09 166.464 148.703 167.125 148.645 167.932C148.587 168.74 147.879 169.4 147.071 169.4Z" fill="#407BFF"/>
<path opacity="0.8" d="M142.648 175.161H128.72C127.912 175.161 127.299 174.5 127.357 173.693C127.415 172.886 128.123 172.226 128.931 172.226H142.858C143.666 172.226 144.279 172.886 144.221 173.693C144.163 174.501 143.455 175.161 142.648 175.161Z" fill="white"/>
<path opacity="0.5" d="M271.563 151.542C272.515 150.091 274.696 150.704 274.575 152.385L272.463 181.849C272.355 183.367 271.209 184.6 269.907 184.6H163.753C162.451 184.6 161.482 183.367 161.591 181.849L162.846 164.344C163.015 161.983 165.417 160.283 167.626 160.971C173.609 162.836 178.736 161.741 183.5 159.378C193.691 154.319 202.217 143.463 213.932 143.463C214.381 143.463 214.823 143.474 215.254 143.503C232.68 144.554 237.989 166.2 251.49 166.2C255.481 166.2 259.123 164.478 262.294 162.022C266.179 159.017 269.351 154.916 271.563 151.542Z" fill="#407BFF"/>
<path opacity="0.5" d="M273.766 163.681L272.463 181.848C272.355 183.366 271.209 184.599 269.907 184.599H163.753C162.451 184.599 161.482 183.366 161.591 181.848L164.179 145.747C164.356 143.274 167.596 142.234 168.908 144.235C172.295 149.402 177.507 156.075 183.5 159.378C185.797 160.64 188.203 161.407 190.67 161.407C199.248 161.407 206.542 151.232 215.254 143.501C220.596 138.761 226.469 134.935 233.495 134.935C248.161 134.935 250.323 158.763 262.294 162.021C264.602 162.652 267.272 162.515 270.469 161.293C272.182 160.64 273.894 161.891 273.766 163.681Z" fill="#407BFF"/>
<g opacity="0.8">
<path d="M274.286 156.639C274.227 156.639 274.177 156.613 274.132 156.574C274.112 156.555 274.093 156.529 274.086 156.504C274.074 156.478 274.067 156.446 274.067 156.42C274.067 156.355 274.093 156.304 274.132 156.265C274.209 156.182 274.358 156.175 274.441 156.265C274.486 156.305 274.506 156.362 274.506 156.42C274.506 156.446 274.5 156.478 274.493 156.504C274.48 156.529 274.461 156.555 274.441 156.574C274.402 156.613 274.344 156.639 274.286 156.639Z" fill="white"/>
<path d="M171.072 171.727C170.951 171.727 170.853 171.631 170.853 171.508C170.853 171.392 170.95 171.296 171.072 171.296V171.289C171.195 171.289 171.291 171.392 171.291 171.508C171.291 171.631 171.195 171.734 171.072 171.734C171.072 171.734 171.072 171.734 171.072 171.727ZM168.863 171.605C168.863 171.605 168.863 171.605 168.87 171.605C168.748 171.599 168.657 171.489 168.67 171.367C168.683 171.245 168.792 171.161 168.915 171.174C169.037 171.187 169.12 171.296 169.108 171.412C169.095 171.528 168.999 171.612 168.889 171.612C168.883 171.612 168.876 171.612 168.863 171.605ZM173.03 171.412C173.017 171.29 173.101 171.18 173.223 171.167C173.346 171.154 173.455 171.238 173.468 171.361C173.481 171.482 173.398 171.592 173.275 171.605C173.268 171.605 173.256 171.605 173.249 171.605C173.14 171.605 173.043 171.522 173.03 171.412ZM166.687 171.27C166.57 171.244 166.493 171.128 166.512 171.006C166.538 170.89 166.654 170.813 166.776 170.832C166.892 170.858 166.969 170.974 166.951 171.096C166.925 171.199 166.834 171.27 166.731 171.27C166.719 171.27 166.7 171.27 166.687 171.27ZM175.181 171.052C175.149 170.929 175.22 170.813 175.342 170.781C175.459 170.755 175.574 170.826 175.606 170.942C175.638 171.058 175.561 171.18 175.445 171.213C175.445 171.213 175.445 171.213 175.445 171.206C175.426 171.213 175.406 171.213 175.394 171.213C175.29 171.213 175.2 171.148 175.181 171.052ZM245.615 171.142C245.494 171.142 245.396 171.045 245.396 170.922C245.396 170.8 245.499 170.703 245.615 170.703C245.738 170.703 245.834 170.8 245.834 170.922C245.834 171.045 245.738 171.142 245.615 171.142ZM247.579 170.833C247.567 170.71 247.657 170.601 247.773 170.594C247.895 170.575 248.005 170.665 248.018 170.788C248.031 170.91 247.941 171.019 247.818 171.032C247.812 171.032 247.806 171.032 247.8 171.032C247.688 171.032 247.592 170.948 247.579 170.833ZM243.413 171.006C243.297 170.993 243.207 170.884 243.226 170.761C243.24 170.639 243.348 170.556 243.471 170.568C243.593 170.587 243.677 170.697 243.664 170.813C243.645 170.929 243.554 171.012 243.445 171.012C243.432 171.013 243.426 171.013 243.413 171.006ZM164.549 170.742C164.433 170.71 164.362 170.588 164.394 170.472C164.433 170.355 164.549 170.285 164.672 170.317C164.787 170.356 164.851 170.472 164.82 170.594C164.794 170.691 164.704 170.749 164.607 170.749C164.587 170.749 164.568 170.749 164.549 170.742ZM249.743 170.53C249.718 170.408 249.795 170.292 249.917 170.272C250.034 170.247 250.149 170.324 250.175 170.446C250.201 170.562 250.123 170.677 250.001 170.703C249.987 170.703 249.975 170.71 249.962 170.71C249.859 170.71 249.763 170.633 249.743 170.53ZM241.248 170.607C241.126 170.581 241.055 170.465 241.087 170.343C241.113 170.227 241.23 170.156 241.351 170.182C241.468 170.208 241.538 170.33 241.512 170.446C241.487 170.549 241.396 170.614 241.3 170.614C241.281 170.614 241.262 170.614 241.248 170.607ZM177.268 170.427C177.222 170.311 177.281 170.182 177.396 170.144C177.506 170.099 177.635 170.156 177.679 170.266C177.718 170.382 177.666 170.511 177.551 170.549C177.525 170.562 177.499 170.568 177.474 170.568C177.383 170.569 177.3 170.511 177.268 170.427ZM251.874 170.047C251.842 169.925 251.907 169.802 252.029 169.769C252.145 169.737 252.267 169.809 252.299 169.924C252.332 170.04 252.261 170.162 252.145 170.194C252.126 170.201 252.106 170.208 252.087 170.208C251.991 170.208 251.9 170.143 251.874 170.047ZM239.137 169.97C239.02 169.93 238.962 169.802 239.001 169.693C239.046 169.576 239.169 169.518 239.285 169.557C239.401 169.602 239.459 169.725 239.42 169.84C239.388 169.93 239.298 169.982 239.207 169.982C239.181 169.982 239.155 169.982 239.137 169.97ZM179.27 169.557C179.212 169.454 179.258 169.319 179.366 169.261C179.476 169.21 179.605 169.254 179.663 169.364C179.714 169.467 179.676 169.602 179.567 169.653C179.534 169.673 179.502 169.679 179.464 169.679C179.386 169.68 179.309 169.634 179.27 169.557ZM253.967 169.403C253.923 169.286 253.987 169.165 254.096 169.125L254.103 169.119C254.213 169.08 254.341 169.145 254.38 169.254C254.419 169.371 254.361 169.499 254.245 169.538C254.219 169.544 254.2 169.55 254.174 169.55C254.084 169.55 254 169.493 253.967 169.403ZM237.102 169.132C236.992 169.087 236.941 168.952 236.992 168.843C237.044 168.733 237.172 168.688 237.282 168.733C237.398 168.785 237.443 168.913 237.391 169.029C237.353 169.107 237.275 169.158 237.192 169.158C237.16 169.158 237.127 169.151 237.102 169.132ZM256.009 168.63C255.964 168.521 256.016 168.392 256.131 168.347C256.241 168.295 256.369 168.347 256.415 168.463C256.466 168.573 256.415 168.702 256.298 168.753C256.272 168.766 256.24 168.766 256.214 168.766C256.125 168.765 256.048 168.714 256.009 168.63ZM181.177 168.501C181.112 168.398 181.144 168.257 181.247 168.192C181.35 168.127 181.485 168.159 181.55 168.262C181.615 168.365 181.582 168.501 181.479 168.566C181.447 168.591 181.402 168.604 181.363 168.604C181.293 168.604 181.221 168.566 181.177 168.501ZM235.137 168.147C235.028 168.089 234.989 167.954 235.047 167.844C235.105 167.741 235.24 167.702 235.35 167.761C235.452 167.819 235.492 167.947 235.434 168.057C235.394 168.127 235.317 168.173 235.24 168.173C235.208 168.173 235.17 168.159 235.137 168.147ZM258.012 167.748C257.961 167.638 258.006 167.51 258.115 167.458C258.225 167.407 258.36 167.452 258.412 167.561C258.463 167.671 258.412 167.799 258.302 167.851C258.302 167.851 258.302 167.851 258.309 167.857C258.276 167.87 258.244 167.877 258.213 167.877C258.128 167.877 258.051 167.832 258.012 167.748ZM182.992 167.291C182.922 167.188 182.948 167.052 183.044 166.982C183.14 166.911 183.282 166.931 183.353 167.027C183.423 167.123 183.398 167.265 183.301 167.336C183.262 167.361 183.217 167.38 183.172 167.38C183.102 167.38 183.038 167.349 182.992 167.291ZM233.238 167.046C233.238 167.046 233.238 167.046 233.238 167.039C233.135 166.981 233.102 166.846 233.167 166.743C233.225 166.634 233.36 166.601 233.463 166.666C233.572 166.73 233.605 166.866 233.54 166.969C233.495 167.039 233.424 167.078 233.354 167.078C233.315 167.078 233.27 167.065 233.238 167.046ZM259.97 166.769C259.912 166.666 259.951 166.531 260.06 166.473C260.163 166.414 260.298 166.459 260.357 166.563C260.415 166.672 260.376 166.801 260.266 166.866C260.234 166.879 260.196 166.891 260.163 166.891C260.085 166.891 260.009 166.846 259.97 166.769ZM184.744 165.97C184.667 165.874 184.679 165.739 184.777 165.661C184.873 165.584 185.008 165.603 185.086 165.694C185.163 165.79 185.144 165.932 185.054 166.009C185.009 166.041 184.963 166.054 184.912 166.054C184.847 166.054 184.783 166.028 184.744 165.97ZM231.383 165.874C231.383 165.874 231.383 165.874 231.383 165.867C231.28 165.803 231.254 165.668 231.318 165.565C231.389 165.462 231.525 165.436 231.628 165.5C231.724 165.565 231.756 165.706 231.692 165.804C231.648 165.874 231.576 165.906 231.505 165.906C231.46 165.905 231.422 165.893 231.383 165.874ZM261.882 165.713C261.818 165.603 261.856 165.475 261.959 165.41C262.062 165.352 262.198 165.384 262.263 165.487C262.321 165.59 262.288 165.726 262.185 165.79C262.147 165.809 262.108 165.822 262.069 165.822C261.999 165.822 261.921 165.784 261.882 165.713ZM229.56 164.657C229.464 164.586 229.432 164.451 229.502 164.348C229.573 164.252 229.708 164.226 229.812 164.29C229.908 164.36 229.934 164.496 229.869 164.599C229.825 164.663 229.754 164.695 229.683 164.695C229.644 164.695 229.599 164.682 229.56 164.657ZM263.75 164.579C263.686 164.476 263.718 164.341 263.821 164.27C263.924 164.206 264.059 164.238 264.124 164.341C264.188 164.444 264.156 164.579 264.053 164.644C264.021 164.67 263.983 164.682 263.937 164.682C263.866 164.682 263.795 164.643 263.75 164.579ZM186.438 164.592C186.361 164.501 186.373 164.36 186.464 164.283C186.56 164.206 186.702 164.219 186.779 164.309C186.856 164.405 186.844 164.541 186.747 164.617C186.708 164.657 186.656 164.669 186.605 164.669C186.548 164.669 186.483 164.643 186.438 164.592ZM265.585 163.381C265.515 163.278 265.541 163.143 265.637 163.072C265.74 163.001 265.875 163.027 265.946 163.13C266.01 163.226 265.991 163.368 265.888 163.432C265.849 163.458 265.804 163.472 265.765 163.472C265.695 163.472 265.624 163.439 265.585 163.381ZM227.75 163.432C227.648 163.362 227.622 163.227 227.692 163.13C227.757 163.027 227.892 163.001 227.995 163.065C228.098 163.135 228.124 163.271 228.053 163.374C228.015 163.439 227.944 163.47 227.873 163.47C227.834 163.472 227.789 163.459 227.75 163.432ZM188.118 163.188C188.035 163.098 188.048 162.957 188.144 162.879C188.235 162.802 188.376 162.814 188.453 162.905C188.53 163.001 188.518 163.136 188.427 163.213C188.382 163.253 188.337 163.265 188.286 163.265C188.222 163.266 188.158 163.24 188.118 163.188ZM225.935 162.222C225.832 162.152 225.799 162.016 225.87 161.92C225.935 161.817 226.076 161.784 226.173 161.855C226.275 161.92 226.301 162.055 226.237 162.158C226.199 162.222 226.128 162.254 226.057 162.254C226.012 162.254 225.973 162.248 225.935 162.222ZM267.376 162.119C267.299 162.023 267.325 161.888 267.421 161.817C267.517 161.746 267.659 161.765 267.73 161.862C267.8 161.958 267.775 162.1 267.678 162.17C267.639 162.196 267.594 162.209 267.55 162.209C267.486 162.209 267.415 162.184 267.376 162.119ZM189.8 161.791C189.723 161.701 189.735 161.559 189.832 161.482C189.929 161.405 190.064 161.424 190.141 161.515C190.218 161.611 190.206 161.753 190.109 161.823C190.07 161.862 190.018 161.875 189.967 161.875C189.909 161.875 189.845 161.849 189.8 161.791ZM224.099 161.044C223.996 160.979 223.963 160.844 224.028 160.741C224.093 160.638 224.228 160.606 224.331 160.67C224.434 160.735 224.466 160.87 224.402 160.974C224.357 161.044 224.285 161.083 224.215 161.083C224.177 161.082 224.131 161.07 224.099 161.044ZM269.127 160.812C269.05 160.715 269.069 160.574 269.166 160.503C269.262 160.426 269.398 160.445 269.475 160.542C269.546 160.638 269.527 160.773 269.437 160.851C269.437 160.851 269.437 160.851 269.43 160.851C269.392 160.883 269.347 160.896 269.302 160.896C269.231 160.896 269.166 160.863 269.127 160.812ZM191.513 160.438C191.442 160.342 191.461 160.2 191.558 160.129C191.654 160.059 191.789 160.078 191.866 160.174C191.937 160.27 191.918 160.406 191.821 160.484C191.783 160.509 191.738 160.529 191.693 160.529C191.622 160.529 191.558 160.496 191.513 160.438ZM222.225 159.93C222.122 159.872 222.083 159.736 222.148 159.626C222.206 159.524 222.341 159.485 222.444 159.55C222.554 159.608 222.592 159.743 222.528 159.846C222.489 159.916 222.411 159.962 222.335 159.962C222.302 159.962 222.264 159.948 222.225 159.93ZM270.834 159.447C270.757 159.356 270.77 159.215 270.867 159.138C270.963 159.06 271.098 159.073 271.176 159.17C271.253 159.261 271.24 159.402 271.15 159.479C271.105 159.511 271.053 159.53 271.008 159.53C270.944 159.53 270.879 159.505 270.834 159.447ZM193.29 159.163C193.22 159.06 193.245 158.925 193.348 158.854C193.451 158.789 193.587 158.816 193.657 158.919C193.722 159.015 193.696 159.157 193.592 159.221C193.554 159.247 193.516 159.26 193.47 159.26C193.4 159.26 193.329 159.221 193.29 159.163ZM220.313 158.893C220.209 158.841 220.164 158.706 220.222 158.597C220.274 158.487 220.409 158.449 220.519 158.5C220.622 158.559 220.667 158.694 220.615 158.803C220.576 158.874 220.493 158.919 220.415 158.919C220.383 158.919 220.344 158.912 220.313 158.893ZM272.508 158.036C272.431 157.946 272.438 157.805 272.527 157.727H272.534C272.625 157.65 272.759 157.656 272.843 157.746C272.92 157.837 272.907 157.978 272.817 158.055C272.778 158.094 272.727 158.113 272.676 158.113C272.612 158.114 272.554 158.088 272.508 158.036ZM195.139 157.998C195.074 157.895 195.113 157.759 195.222 157.694C195.325 157.636 195.461 157.676 195.519 157.779C195.576 157.888 195.544 158.016 195.435 158.081C195.435 158.081 195.435 158.081 195.441 158.081C195.403 158.101 195.364 158.107 195.332 158.107C195.254 158.107 195.177 158.068 195.139 157.998ZM218.355 157.958C218.245 157.907 218.194 157.779 218.245 157.669C218.29 157.559 218.426 157.508 218.535 157.559C218.645 157.604 218.696 157.734 218.645 157.849C218.612 157.926 218.529 157.978 218.445 157.978C218.412 157.978 218.386 157.972 218.355 157.958ZM216.345 157.141C216.23 157.102 216.172 156.974 216.217 156.858C216.256 156.748 216.385 156.69 216.5 156.729C216.61 156.774 216.667 156.897 216.629 157.012C216.597 157.103 216.513 157.154 216.423 157.154C216.397 157.153 216.371 157.153 216.345 157.141ZM197.071 156.987C197.025 156.877 197.071 156.742 197.18 156.697C197.29 156.645 197.425 156.69 197.476 156.806C197.521 156.916 197.476 157.045 197.36 157.096C197.335 157.11 197.302 157.115 197.27 157.115C197.186 157.115 197.109 157.07 197.071 156.987ZM214.285 156.465C214.168 156.426 214.104 156.31 214.137 156.187C214.169 156.071 214.298 156.008 214.413 156.04C214.53 156.072 214.594 156.194 214.562 156.317C214.529 156.407 214.446 156.471 214.349 156.471C214.33 156.471 214.31 156.471 214.285 156.465ZM199.092 156.162C199.053 156.046 199.118 155.924 199.234 155.885C199.35 155.847 199.473 155.911 199.511 156.027C199.55 156.144 199.486 156.265 199.37 156.305C199.35 156.311 199.325 156.317 199.299 156.317C199.209 156.317 199.125 156.259 199.092 156.162ZM212.185 155.93C212.069 155.905 211.991 155.788 212.017 155.673C212.043 155.551 212.159 155.473 212.281 155.505C212.397 155.525 212.474 155.641 212.449 155.762C212.429 155.865 212.333 155.937 212.23 155.937C212.217 155.937 212.205 155.937 212.185 155.93ZM201.185 155.563C201.159 155.441 201.237 155.325 201.359 155.299C201.475 155.274 201.591 155.351 201.616 155.467C201.642 155.589 201.571 155.705 201.448 155.731C201.436 155.731 201.416 155.737 201.404 155.737C201.302 155.737 201.211 155.666 201.185 155.563ZM210.054 155.557C209.938 155.538 209.848 155.428 209.867 155.305C209.88 155.183 209.996 155.1 210.112 155.118H210.118C210.235 155.132 210.318 155.247 210.305 155.37C210.286 155.473 210.195 155.557 210.086 155.557C210.073 155.557 210.066 155.557 210.054 155.557ZM203.337 155.19C203.323 155.068 203.413 154.964 203.53 154.952C203.652 154.932 203.761 155.022 203.775 155.145C203.788 155.267 203.697 155.371 203.575 155.39C203.569 155.39 203.562 155.39 203.556 155.39C203.446 155.389 203.35 155.305 203.337 155.19ZM207.896 155.331C207.896 155.331 207.896 155.331 207.903 155.331C207.78 155.324 207.684 155.221 207.697 155.1C207.703 154.977 207.806 154.887 207.928 154.894C208.051 154.9 208.141 155.01 208.134 155.132C208.127 155.248 208.031 155.338 207.915 155.338C207.909 155.338 207.903 155.331 207.896 155.331ZM205.513 155.048C205.506 154.926 205.609 154.829 205.732 154.829C205.848 154.822 205.951 154.925 205.951 155.048C205.951 155.17 205.855 155.267 205.732 155.267C205.61 155.267 205.513 155.17 205.513 155.048Z" fill="white"/>
<path d="M162.449 170.053C162.423 170.053 162.391 170.047 162.365 170.034C162.34 170.021 162.314 170.008 162.294 169.983C162.275 169.964 162.256 169.944 162.249 169.912C162.237 169.887 162.231 169.861 162.231 169.829C162.231 169.77 162.256 169.719 162.295 169.674C162.314 169.655 162.34 169.635 162.366 169.629C162.417 169.603 162.482 169.603 162.533 169.629C162.566 169.635 162.585 169.655 162.604 169.674C162.649 169.719 162.669 169.77 162.669 169.829C162.669 169.861 162.669 169.887 162.656 169.912C162.643 169.945 162.631 169.964 162.605 169.983C162.586 170.008 162.56 170.022 162.534 170.034C162.507 170.047 162.481 170.053 162.449 170.053Z" fill="white"/>
</g>
<path d="M197.763 104.106L196.259 102.486C193.59 104.977 190.037 106.516 186.236 106.516C179.867 106.516 174.819 102.189 173.669 96.3147L171.414 96.9072L169.353 97.4488C169.959 100.528 171.377 103.334 173.467 105.586C180.004 112.627 191.59 112.627 199.136 105.586L197.763 104.106Z" fill="white"/>
<path d="M200.976 79.9172L199.008 81.7539L197.649 83.0219C199.962 85.5084 201.259 88.9506 200.986 92.7515C200.714 96.5523 198.928 99.9952 196.259 102.486L197.437 103.754L199.137 105.586C202.784 102.182 205.028 97.5654 205.373 92.7515C205.717 87.9421 204.136 83.3207 200.976 79.9172Z" fill="#263238"/>
<path d="M200.976 79.9172C194.44 72.8808 182.853 72.8808 175.308 79.9172C170.404 84.498 168.128 91.1943 169.353 97.4488L171.902 96.779L173.669 96.3147C173.449 95.1793 173.374 93.9809 173.462 92.7515C174.007 85.1535 180.61 78.9911 188.208 78.9911C192.009 78.9911 195.337 80.5303 197.649 83.0213L199.391 81.3964L200.976 79.9172Z" fill="#407BFF"/>
<path d="M219.472 104.106L221.209 102.486C218.897 99.9952 217.604 96.553 217.876 92.7521C218.333 86.3836 223.043 81.0255 229.03 79.4548L228.596 77.242L228.199 75.2205C225.06 76.0474 222.139 77.6658 219.726 79.9178C212.18 86.9593 211.349 98.5455 217.886 105.586L219.472 104.106Z" fill="white"/>
<path d="M243.555 105.586L241.851 103.749L240.673 102.481C238.009 104.972 234.456 106.516 230.655 106.516C226.854 106.516 223.522 104.977 221.209 102.486L219.85 103.754L217.887 105.586C221.048 108.99 225.527 110.902 230.34 110.902C235.149 110.903 239.907 108.99 243.555 105.586Z" fill="#263238"/>
<path d="M243.555 105.586C251.096 98.5442 251.927 86.958 245.395 79.9172C241.142 75.3416 234.575 73.5455 228.2 75.2199L228.69 77.7211L229.03 79.4548C230.187 79.154 231.397 78.9924 232.627 78.9924C240.225 78.9924 245.945 85.1542 245.401 92.7521C245.128 96.5536 243.342 99.9913 240.673 102.482L242.181 104.106L243.555 105.586Z" fill="#407BFF"/>
<path opacity="0.3" d="M273.972 76.2193C274.34 76.2193 274.676 76.3617 274.917 76.6205C275.159 76.8807 275.278 77.2285 275.251 77.5994L274.455 88.7078C274.398 89.4999 273.681 90.169 272.891 90.169H261.782C261.414 90.169 261.078 90.0261 260.837 89.7678C260.595 89.5076 260.477 89.1599 260.503 88.7889L261.299 77.6806C261.356 76.8885 262.073 76.2193 262.863 76.2193H273.972ZM273.972 75.6513H262.863C261.77 75.6513 260.81 76.5465 260.732 77.64L259.936 88.7484C259.857 89.8425 260.688 90.737 261.782 90.737H272.891C273.985 90.737 274.944 89.8419 275.022 88.7484L275.818 77.64C275.897 76.5465 275.066 75.6513 273.972 75.6513Z" fill="#407BFF"/>
<path opacity="0.3" d="M272.602 95.3339C272.97 95.3339 273.306 95.4769 273.547 95.7351C273.789 95.9953 273.907 96.3424 273.881 96.7134L273.085 107.822C273.028 108.614 272.311 109.283 271.521 109.283H260.412C260.044 109.283 259.708 109.141 259.468 108.882C259.225 108.622 259.107 108.274 259.133 107.903L259.929 96.7951C259.986 96.003 260.703 95.3339 261.494 95.3339H272.602ZM272.602 94.7652H261.494C260.4 94.7652 259.44 95.6604 259.363 96.7539L258.566 107.862C258.487 108.956 259.318 109.851 260.412 109.851H271.521C272.614 109.851 273.574 108.956 273.652 107.862L274.448 96.7539C274.527 95.6604 273.695 94.7652 272.602 94.7652Z" fill="#407BFF"/>
<path d="M256.339 156.799C256.651 156.799 256.933 156.918 257.135 157.135C257.337 157.352 257.436 157.645 257.414 157.959C257.365 158.643 256.769 159.2 256.085 159.2C255.773 159.2 255.491 159.081 255.289 158.865C255.087 158.647 254.988 158.355 255.01 158.041C255.06 157.356 255.656 156.799 256.339 156.799ZM256.339 156.231C255.362 156.231 254.514 157.022 254.444 157.999C254.373 158.976 255.109 159.767 256.085 159.767C257.061 159.767 257.91 158.976 257.98 157.999C258.051 157.023 257.316 156.231 256.339 156.231Z" fill="#407BFF"/>
<path d="M256.481 156.24L256.197 156.22L256.238 155.654L256.521 155.674L256.481 156.24Z" fill="#407BFF"/>
<path d="M256.604 154.51L256.321 154.49L256.405 153.327L256.688 153.347L256.604 154.51ZM256.771 152.185L256.488 152.165L256.572 151.001L256.856 151.021L256.771 152.185ZM256.938 149.858L256.655 149.838L256.738 148.675L257.021 148.695L256.938 149.858ZM257.104 147.533L256.821 147.513L256.905 146.349L257.188 146.369L257.104 147.533ZM257.271 145.207L256.988 145.187L257.072 144.024L257.355 144.043L257.271 145.207ZM257.438 142.88L257.156 142.86L257.239 141.697L257.521 141.717L257.438 142.88ZM257.605 140.554L257.322 140.534L257.406 139.371L257.688 139.391L257.605 140.554ZM257.772 138.229L257.489 138.209L257.572 137.045L257.854 137.065L257.772 138.229ZM257.938 135.902L257.655 135.882L257.739 134.719L258.022 134.739L257.938 135.902ZM258.105 133.577L257.822 133.557L257.905 132.393L258.188 132.413L258.105 133.577ZM258.272 131.25L257.988 131.23L258.072 130.067L258.355 130.087L258.272 131.25Z" fill="#407BFF"/>
<path d="M258.191 128.331L258.151 128.897L258.434 128.917L258.474 128.351L258.191 128.331Z" fill="#407BFF"/>
<path d="M270.341 128.656H168.365C167.79 128.656 167.262 128.43 166.878 128.018C166.494 127.605 166.306 127.061 166.348 126.484L166.851 119.463C166.934 118.29 167.958 117.334 169.132 117.334H271.109C271.684 117.334 272.212 117.56 272.594 117.971C272.979 118.384 273.167 118.929 273.126 119.507L272.623 126.527C272.538 127.701 271.514 128.656 270.341 128.656ZM169.132 117.951C168.275 117.951 167.527 118.649 167.465 119.507L166.962 126.527C166.933 126.932 167.064 127.313 167.33 127.598C167.595 127.883 167.962 128.04 168.365 128.04H270.341C271.199 128.04 271.946 127.342 272.009 126.484L272.512 119.463C272.541 119.058 272.41 118.677 272.143 118.392C271.879 118.108 271.512 117.951 271.109 117.951H169.132Z" fill="#407BFF"/>
<path opacity="0.8" fill-rule="evenodd" clip-rule="evenodd" d="M268.151 121.86H171.485C170.959 121.86 170.561 121.431 170.598 120.905C170.635 120.38 171.097 119.95 171.622 119.95H268.289C268.815 119.95 269.213 120.38 269.176 120.905C269.138 121.43 268.677 121.86 268.151 121.86Z" fill="white"/>
<path opacity="0.8" fill-rule="evenodd" clip-rule="evenodd" d="M252.042 125.888H171.196C170.67 125.888 170.272 125.458 170.309 124.933C170.346 124.408 170.808 123.978 171.333 123.978H252.178C252.704 123.978 253.102 124.409 253.065 124.933C253.028 125.458 252.567 125.888 252.042 125.888Z" fill="white"/>
</svg>
