<svg width="247" height="251" viewBox="0 0 247 251" fill="none" xmlns="http://www.w3.org/2000/svg">
<rect width="247" height="251" rx="30" fill="#1B65AD"/>
<path fill-rule="evenodd" clip-rule="evenodd" d="M168.181 177.092C163.225 181.36 156.774 183.94 149.72 183.94C134.088 183.94 121.418 171.271 121.418 155.638C121.418 140.006 134.088 127.336 149.72 127.336C165.352 127.336 178.022 140.006 178.022 155.638C178.022 161.641 176.154 167.207 172.967 171.787L181.782 180.48L182.103 180.149C183.085 179.135 184.727 179.111 185.742 180.093L201.285 195.178C202.299 196.16 202.324 197.793 201.333 198.816L195.723 204.595C194.741 205.61 193.107 205.634 192.085 204.652L176.549 189.567C175.527 188.585 175.502 186.943 176.493 185.929L176.81 185.602L168.181 177.092ZM149.72 135.519C138.608 135.519 129.601 144.527 129.601 155.638C129.601 166.75 138.608 175.757 149.72 175.757C160.832 175.757 169.839 166.75 169.839 155.638C169.839 144.527 160.832 135.519 149.72 135.519ZM136.785 52.6274L151.789 67.6315H136.785V52.6274ZM118.383 143.92C117.439 146.441 116.792 149.107 116.482 151.874C115.317 150.838 114.089 149.874 112.803 148.991L116.449 142.541C117.106 142.983 117.751 143.443 118.383 143.92ZM94.701 142.654V135.177C100.903 135.541 106.763 137.21 112.021 139.919L108.369 146.379C104.191 144.298 99.575 142.995 94.701 142.654ZM75.8883 146.379L72.2359 139.919C77.4938 137.21 83.3535 135.541 89.5559 135.177V142.654C84.6819 142.995 80.0654 144.298 75.8883 146.379ZM61.3913 159.245L55.1127 155.538C58.4325 150.372 62.7589 145.942 67.8076 142.541L71.4541 148.991C67.4882 151.715 64.0664 155.202 61.3913 159.245ZM55.1609 177.781H47.9385C48.2874 171.421 49.9213 165.411 52.58 160.017L58.8496 163.719C56.7835 168.011 55.4918 172.761 55.1609 177.781ZM116.464 159.241C117.176 165.885 119.832 171.947 123.853 176.845C123.886 177.156 123.914 177.468 123.938 177.781H102.086C101.849 176.845 101.485 175.942 101.001 175.102L113.152 162.952C114.156 161.948 114.156 160.318 113.152 159.314C112.148 158.31 110.518 158.31 109.514 159.314L97.4096 171.418C97.3333 171.372 97.2568 171.326 97.179 171.282C97.1687 171.276 97.1584 171.27 97.1478 171.264C92.1596 168.446 85.8656 170.251 83.0943 175.331C82.6634 176.121 82.3447 176.944 82.1331 177.781H60.3192C61.6013 160.965 75.3435 147.709 92.1284 147.709C101.885 147.709 110.613 152.188 116.464 159.241ZM94.6177 175.744C97.1066 177.173 98.0054 180.376 96.5995 182.912C95.2168 185.447 92.0825 186.369 89.5932 184.963C87.1039 183.534 86.2283 180.33 87.611 177.795C88.9938 175.26 92.1284 174.338 94.6177 175.744ZM59.2066 142.778V52.6274H131.64V67.6315C131.64 70.4732 133.944 72.7766 136.785 72.7766H151.789V122.254C151.105 122.212 150.415 122.191 149.72 122.191C137.235 122.191 126.348 129.03 120.602 139.166C112.552 133.364 102.727 129.957 92.1284 129.957C79.4879 129.957 67.9484 134.804 59.2066 142.778ZM108.1 88.8306H124.791C126.211 88.8306 127.364 87.6778 127.364 86.2581C127.364 84.8383 126.211 83.6855 124.791 83.6855H108.1C106.681 83.6855 105.528 84.8383 105.528 86.2581C105.528 87.6778 106.681 88.8306 108.1 88.8306ZM108.1 80.7251H133.741C135.16 80.7251 136.313 79.5723 136.313 78.1526C136.313 76.7329 135.16 75.58 133.741 75.58H108.1C106.681 75.58 105.528 76.7329 105.528 78.1526C105.528 79.5723 106.681 80.7251 108.1 80.7251ZM77.9138 72.3306C76.7893 72.3306 75.8702 73.2493 75.8702 74.3742V90.0365C75.8702 91.1613 76.7893 92.0801 77.9138 92.0801H93.5761C94.701 92.0801 95.6197 91.1613 95.6197 90.0365V74.3742C95.6197 73.2493 94.701 72.3306 93.5761 72.3306H77.9138ZM80.5095 83.6939C79.5046 82.6909 79.503 81.0609 80.506 80.056C81.509 79.0507 83.139 79.0491 84.1442 80.0521L84.9385 80.8451L87.156 78.1027C88.0487 76.9985 89.67 76.8271 90.774 77.7198C91.8779 78.6124 92.0497 80.2338 91.157 81.3377L87.1435 86.3011C86.6849 86.8681 86.0077 87.2138 85.2797 87.2527C84.552 87.2913 83.8416 87.0195 83.3258 86.5044L80.5095 83.6939ZM108.1 117.022H124.791C126.211 117.022 127.364 115.869 127.364 114.449C127.364 113.029 126.211 111.877 124.791 111.877H108.1C106.681 111.877 105.528 113.029 105.528 114.449C105.528 115.869 106.681 117.022 108.1 117.022ZM108.1 108.916H133.741C135.16 108.916 136.313 107.764 136.313 106.344C136.313 104.924 135.16 103.771 133.741 103.771H108.1C106.681 103.771 105.528 104.924 105.528 106.344C105.528 107.764 106.681 108.916 108.1 108.916ZM77.9138 100.522C76.7893 100.522 75.8702 101.441 75.8702 102.565V118.228C75.8702 119.352 76.7893 120.271 77.9138 120.271H93.5761C94.701 120.271 95.6197 119.352 95.6197 118.228V102.565C95.6197 101.441 94.701 100.522 93.5761 100.522H77.9138ZM80.5076 111.884C79.5037 110.881 79.5037 109.25 80.5076 108.246C81.5118 107.242 83.1419 107.242 84.1458 108.246L84.9404 109.041L87.156 106.301C88.0487 105.197 89.67 105.025 90.774 105.918C91.8779 106.81 92.0497 108.431 91.157 109.536L87.1435 114.499C86.6846 115.066 86.0071 115.412 85.2784 115.451C84.55 115.489 83.8397 115.216 83.3239 114.701L80.5076 111.884Z" fill="white"/>
</svg>
