<svg width="284" height="241" viewBox="0 0 284 241" fill="none" xmlns="http://www.w3.org/2000/svg">
<path d="M95.1719 58.9682C95.0742 58.9682 94.9844 58.9158 94.9356 58.832L92.3618 54.3764C92.313 54.2921 92.313 54.1878 92.3618 54.1034L94.9356 49.6484C94.9838 49.564 95.0742 49.5122 95.1719 49.5122C95.2695 49.5122 95.3593 49.564 95.4081 49.6478L97.9879 54.1028C98.0368 54.1878 98.0368 54.2921 97.9879 54.3764L95.4081 58.832C95.3593 58.9164 95.2689 58.9682 95.1719 58.9682ZM92.9127 54.2396L95.1725 58.1503L97.4364 54.2396L95.1725 50.3295L92.9127 54.2396Z" fill="#25292B"/>
<path d="M88.0157 53.6303C87.1586 53.6303 86.4612 52.9329 86.4612 52.0758C86.4612 51.2186 87.1586 50.5219 88.0157 50.5219C88.8728 50.5219 89.5696 51.2186 89.5696 52.0758C89.5696 52.9329 88.8728 53.6303 88.0157 53.6303ZM88.0157 51.0673C87.4593 51.0673 87.0067 51.52 87.0067 52.0758C87.0067 52.6321 87.4593 53.0848 88.0157 53.0848C88.5714 53.0848 89.0241 52.6321 89.0241 52.0758C89.0241 51.52 88.5714 51.0673 88.0157 51.0673Z" fill="#25292B"/>
<path d="M92.5997 47.9131C91.8511 47.9131 91.2417 47.3037 91.2417 46.555C91.2417 45.807 91.8511 45.1976 92.5997 45.1976C93.3483 45.1976 93.9577 45.807 93.9577 46.555C93.9577 47.3043 93.3489 47.9131 92.5997 47.9131ZM92.5997 45.7437C92.1519 45.7437 91.7878 46.1078 91.7878 46.5556C91.7878 47.0035 92.1525 47.3676 92.5997 47.3676C93.0476 47.3676 93.4116 47.0029 93.4116 46.5556C93.4122 46.1078 93.0476 45.7437 92.5997 45.7437Z" fill="#25292B"/>
<path d="M86.7335 48.5381C86.1796 48.5381 85.7288 48.0873 85.7288 47.5334C85.7288 46.9794 86.1796 46.528 86.7335 46.528C87.2875 46.528 87.7383 46.9794 87.7383 47.5334C87.7383 48.0873 87.2875 48.5381 86.7335 48.5381ZM86.7335 47.0734C86.4804 47.0734 86.2743 47.2796 86.2743 47.5334C86.2743 47.7865 86.4804 47.9927 86.7335 47.9927C86.9867 47.9927 87.1929 47.7865 87.1929 47.5334C87.1929 47.2796 86.9867 47.0734 86.7335 47.0734Z" fill="#25292B"/>
<path d="M194.749 39.4057C194.651 39.4057 194.561 39.3539 194.513 39.2695L192.543 35.8603C192.495 35.7759 192.495 35.6717 192.543 35.5873L194.513 32.1781C194.561 32.0937 194.651 32.0419 194.749 32.0419C194.847 32.0419 194.936 32.0937 194.985 32.1781L196.959 35.5873C197.008 35.6717 197.008 35.7759 196.959 35.8609L194.985 39.2701C194.936 39.3533 194.847 39.4057 194.749 39.4057ZM193.095 35.7235L194.75 38.5878L196.407 35.7235L194.75 32.8592L193.095 35.7235Z" fill="#25292B"/>
<path d="M190.083 34.2877C189.225 34.2877 188.528 33.5903 188.528 32.7332C188.528 31.8761 189.225 31.1787 190.083 31.1787C190.94 31.1787 191.636 31.8761 191.636 32.7332C191.636 33.5903 190.94 34.2877 190.083 34.2877ZM190.083 31.7248C189.526 31.7248 189.074 32.1775 189.074 32.7338C189.074 33.2902 189.526 33.7422 190.083 33.7422C190.638 33.7422 191.091 33.2896 191.091 32.7338C191.091 32.1775 190.638 31.7248 190.083 31.7248Z" fill="#25292B"/>
<path d="M194.667 30.4433C193.918 30.4433 193.309 29.8339 193.309 29.0853C193.309 28.3367 193.918 27.7279 194.667 27.7279C195.415 27.7279 196.025 28.3373 196.025 29.0853C196.025 29.8345 195.416 30.4433 194.667 30.4433ZM194.667 28.2734C194.219 28.2734 193.855 28.6375 193.855 29.0853C193.855 29.5332 194.22 29.8972 194.667 29.8972C195.115 29.8972 195.479 29.5332 195.479 29.0853C195.479 28.6381 195.115 28.2734 194.667 28.2734Z" fill="#25292B"/>
<path d="M190.09 29.0058C189.536 29.0058 189.085 28.5549 189.085 28.001C189.085 27.4471 189.536 26.9956 190.09 26.9956C190.643 26.9956 191.094 27.4465 191.094 28.001C191.094 28.5555 190.644 29.0058 190.09 29.0058ZM190.09 27.5411C189.836 27.5411 189.63 27.7472 189.63 28.001C189.63 28.2548 189.836 28.4603 190.09 28.4603C190.343 28.4603 190.549 28.2542 190.549 28.001C190.549 27.7478 190.343 27.5411 190.09 27.5411Z" fill="#25292B"/>
<path d="M235.865 164.182C235.767 164.182 235.678 164.13 235.629 164.046L233.055 159.591C233.006 159.506 233.006 159.402 233.055 159.318L235.629 154.863C235.678 154.778 235.767 154.726 235.865 154.726C235.962 154.726 236.052 154.778 236.101 154.862L238.681 159.317C238.73 159.402 238.73 159.506 238.681 159.591L236.101 164.046C236.052 164.131 235.963 164.182 235.865 164.182ZM233.606 159.454L235.866 163.365L238.13 159.454L235.866 155.544L233.606 159.454Z" fill="#25292B"/>
<path d="M242.176 166.703C241.319 166.703 240.621 166.006 240.621 165.149C240.621 164.292 241.319 163.595 242.176 163.595C243.033 163.595 243.73 164.292 243.73 165.149C243.73 166.006 243.033 166.703 242.176 166.703ZM242.176 164.14C241.62 164.14 241.167 164.593 241.167 165.149C241.167 165.705 241.62 166.158 242.176 166.158C242.732 166.158 243.184 165.705 243.184 165.149C243.184 164.593 242.732 164.14 242.176 164.14Z" fill="#25292B"/>
<path d="M233.426 153.127C232.678 153.127 232.069 152.518 232.069 151.77C232.069 151.021 232.678 150.412 233.426 150.412C234.175 150.412 234.785 151.021 234.785 151.77C234.785 152.518 234.175 153.127 233.426 153.127ZM233.426 150.958C232.979 150.958 232.615 151.323 232.615 151.77C232.615 152.217 232.979 152.581 233.426 152.581C233.874 152.581 234.238 152.217 234.238 151.77C234.238 151.323 233.874 150.958 233.426 150.958Z" fill="#25292B"/>
<path d="M241.165 158.246C240.612 158.246 240.161 157.795 240.161 157.242C240.161 156.688 240.612 156.237 241.165 156.237C241.719 156.237 242.171 156.688 242.171 157.242C242.171 157.795 241.72 158.246 241.165 158.246ZM241.165 156.782C240.912 156.782 240.706 156.988 240.706 157.242C240.706 157.495 240.912 157.701 241.165 157.701C241.419 157.701 241.625 157.495 241.625 157.242C241.625 156.988 241.419 156.782 241.165 156.782Z" fill="#25292B"/>
<path d="M241.48 153.127C241.382 153.127 241.292 153.075 241.243 152.991L239.627 150.193C239.578 150.109 239.578 150.004 239.627 149.92L241.243 147.122C241.292 147.038 241.382 146.986 241.48 146.986C241.577 146.986 241.667 147.038 241.716 147.121L243.336 149.919C243.385 150.004 243.385 150.109 243.336 150.193L241.716 152.991C241.667 153.076 241.577 153.127 241.48 153.127ZM240.178 150.057L241.48 152.309L242.784 150.057L241.48 147.804L240.178 150.057Z" fill="#25292B"/>
<path d="M227.487 163.604C226.933 163.604 226.482 163.153 226.482 162.599C226.482 162.045 226.933 161.594 227.487 161.594C228.041 161.594 228.493 162.045 228.493 162.599C228.493 163.153 228.041 163.604 227.487 163.604ZM227.487 162.14C227.234 162.14 227.028 162.346 227.028 162.599C227.028 162.852 227.234 163.058 227.487 163.058C227.74 163.058 227.947 162.852 227.947 162.599C227.947 162.346 227.74 162.14 227.487 162.14Z" fill="#25292B"/>
<path d="M85.5372 110.837C85.5372 110.837 89.7415 210.172 89.3647 226.509H67.7493L56.6785 111.668L85.5372 110.837Z" fill="#25292B"/>
<path d="M35.6061 112.006L32.7014 165.182L17.2305 226.509H40.4095L63.7307 164.93L73.64 111.397L35.6061 112.006Z" fill="#25292B"/>
<path d="M62.5336 168.38L61.917 168.254C65.451 150.867 68.4183 133.113 70.7347 115.486L70.7679 115.235L78.1384 114.599L78.1926 115.227L71.326 115.819C69.012 133.377 66.0543 151.06 62.5336 168.38Z" fill="white"/>
<path d="M19.0093 226.572H37.4265L42.2901 230.867C42.2901 230.867 56.7026 230.46 56.7026 241H19.0093V226.572Z" fill="#1E90FF"/>
<path d="M20.2809 239.784H20.3472L55.8013 239.651C55.9399 239.65 56.0521 239.538 56.0514 239.399C56.0508 239.261 55.9387 239.149 55.8007 239.149L20.2797 239.283C20.1411 239.283 20.0289 239.396 20.0295 239.535C20.0307 239.673 20.1429 239.784 20.2809 239.784Z" fill="#25292B"/>
<path d="M30.2242 232.513C28.9349 232.376 28.1489 231.867 28.0096 231.08C27.8294 230.063 28.836 229.333 29.7528 229.017C32.6201 228.029 35.9425 228.64 38.3023 230.526C38.9647 228.37 40.1383 226.386 41.7139 224.768C42.2064 224.262 42.8139 223.725 43.5915 223.575C44.3823 223.424 45.3618 223.826 45.5625 224.668C45.7536 225.471 45.1804 226.183 44.659 226.713C42.9212 228.485 41.0045 230.106 38.9635 231.529C38.8912 231.581 38.8002 231.587 38.7218 231.555C38.6965 231.578 38.6658 231.597 38.6308 231.608C36.6068 232.279 34.4561 232.623 32.3145 232.623C31.6147 232.623 30.9167 232.586 30.2242 232.513ZM38.1824 231.077C35.9449 229.172 32.7027 228.531 29.9156 229.492C29.3279 229.693 28.3695 230.237 28.5033 230.993C28.6389 231.759 29.7884 231.962 30.2766 232.013C32.9474 232.297 35.7044 232.016 38.2637 231.2C38.2252 231.168 38.1968 231.126 38.1824 231.077ZM43.6855 224.068C43.0442 224.191 42.5101 224.668 42.0725 225.118C40.5024 226.731 39.3457 228.721 38.7188 230.882C38.7616 230.921 38.8038 230.96 38.846 231C40.7983 229.623 42.6325 228.064 44.3009 226.363C44.7313 225.924 45.2081 225.349 45.0743 224.786C44.961 224.311 44.4275 224.046 43.9308 224.046C43.8471 224.046 43.7645 224.052 43.6855 224.068Z" fill="#25292B"/>
<path d="M69.427 226.421H87.8442L92.7079 230.716C92.7079 230.716 107.12 230.309 107.12 240.849H69.427V226.421Z" fill="#1E90FF"/>
<path d="M70.7015 239.633H70.7021H70.7678L106.222 239.5C106.361 239.499 106.473 239.386 106.472 239.248C106.472 239.11 106.359 238.998 106.221 238.998L70.7003 239.131C70.5617 239.132 70.4496 239.245 70.4502 239.383C70.4514 239.521 70.5635 239.633 70.7015 239.633Z" fill="#25292B"/>
<path d="M80.6443 232.362C79.355 232.224 78.569 231.716 78.4298 230.929C78.2496 229.912 79.2562 229.182 80.173 228.866C83.0403 227.877 86.3627 228.489 88.7225 230.375C89.3849 228.218 90.5585 226.235 92.1341 224.617C92.6265 224.111 93.2341 223.574 94.0117 223.424C94.8025 223.272 95.7819 223.675 95.9827 224.517C96.1737 225.319 95.6005 226.032 95.0791 226.562C93.3414 228.334 91.4246 229.954 89.3837 231.378C89.3114 231.429 89.2203 231.435 89.142 231.403C89.1167 231.427 89.0859 231.446 89.051 231.457C87.0269 232.128 84.8763 232.472 82.7347 232.472C82.0355 232.472 81.3369 232.435 80.6443 232.362ZM88.6031 230.926C86.3657 229.021 83.1235 228.379 80.3363 229.34C79.7486 229.542 78.7903 230.086 78.9241 230.842C79.0597 231.608 80.2091 231.81 80.6974 231.862C83.3682 232.146 86.1252 231.865 88.6845 231.049C88.6453 231.017 88.617 230.974 88.6031 230.926ZM94.1063 223.917C93.465 224.04 92.9309 224.516 92.4933 224.967C90.9231 226.58 89.7664 228.569 89.1396 230.731C89.1824 230.769 89.2246 230.809 89.2668 230.849C91.2191 229.472 93.0533 227.912 94.7217 226.212C95.1521 225.773 95.6289 225.197 95.495 224.634C95.3817 224.16 94.8483 223.894 94.3516 223.894C94.2678 223.894 94.1847 223.902 94.1063 223.917Z" fill="#25292B"/>
<path d="M82.5789 87.4918L85.5384 110.837L82.6332 122.735L73.64 111.397L60.7411 122.735L35.6061 112.006L35.9075 102.235C28.5358 103.742 21.7066 97.9375 22.0019 90.4212L25.0892 54.4077C25.2881 49.3807 28.9788 41.8722 33.819 40.516L50.3917 35.6125L64.8277 38.2526L74.6406 41.2664C78.9684 42.5985 82.1268 46.3235 82.7236 50.808L85.5927 72.2661L99.1125 75.7621L99.6128 87.4918H82.5789Z" fill="#1E90FF"/>
<path d="M40.4101 83.601C40.3999 83.601 40.3897 83.6004 40.3788 83.5998C40.2136 83.583 40.0931 83.4347 40.11 83.2689L42.5674 59.3636C42.5849 59.1985 42.7308 59.0833 42.8983 59.0948C43.0635 59.1117 43.184 59.2599 43.1672 59.4257L40.7097 83.331C40.694 83.4859 40.5632 83.601 40.4101 83.601Z" fill="#25292B"/>
<path d="M36.8357 102.256C36.7079 102.256 36.5891 102.174 36.5482 102.046C36.4981 101.887 36.5855 101.718 36.7441 101.667L66.3792 92.2608L62.9338 79.9573L32.755 85.2718C32.5899 85.3026 32.4343 85.1917 32.406 85.0277C32.3771 84.8638 32.4862 84.7077 32.6501 84.6787L63.0984 79.3166C63.2527 79.2889 63.3991 79.3829 63.4407 79.5318L67.0386 92.3783C67.0826 92.535 66.9946 92.6978 66.8397 92.7466L36.9273 102.242C36.8965 102.252 36.8658 102.256 36.8357 102.256Z" fill="#25292B"/>
<path d="M78.3912 74.7766C78.2405 74.7766 78.1103 74.6639 78.0922 74.5108L75.8578 55.6319C75.8385 55.4667 75.9566 55.3172 76.1218 55.2973C76.2863 55.2762 76.4364 55.3962 76.4563 55.5613L78.6907 74.4403C78.71 74.6054 78.5919 74.7549 78.4267 74.7748C78.4147 74.776 78.4032 74.7766 78.3912 74.7766Z" fill="#25292B"/>
<path d="M63.869 49.8653C63.8051 49.8653 63.7406 49.8448 63.6863 49.8033L58.3188 45.6961C57.7974 45.7063 55.2966 45.9191 54.783 48.9992C54.7643 49.1107 54.6854 49.2017 54.5787 49.2367C54.472 49.2728 54.3539 49.2439 54.2743 49.1643C54.2182 49.1089 48.6801 43.5394 49.1587 36.4185C49.1702 36.2527 49.313 36.134 49.48 36.1382C49.6457 36.1496 49.7717 36.2931 49.7603 36.4594C49.3739 42.2097 53.0881 46.9299 54.3141 48.3199C55.2019 45.0077 58.402 45.0969 58.4333 45.0939C58.4954 45.0963 58.5557 45.118 58.6045 45.156L64.0522 49.3253C64.1842 49.4265 64.2095 49.6152 64.1083 49.7478C64.0498 49.825 63.96 49.8653 63.869 49.8653Z" fill="#25292B"/>
<path d="M65.3201 49.8653C65.3057 49.8653 65.2912 49.8647 65.2761 49.8623C65.1116 49.8381 64.9977 49.685 65.0218 49.5205L65.6613 45.1638C65.6727 45.0848 65.7155 45.0131 65.78 44.9655C65.8445 44.9179 65.9265 44.8992 66.0043 44.9094C66.0724 44.9197 67.2887 45.1101 68.0814 45.7292C68.0102 44.0933 67.5937 40.569 65.3768 39.091C65.2382 38.9988 65.2008 38.8113 65.293 38.6733C65.3846 38.5347 65.5715 38.4973 65.7107 38.5895C68.915 40.7257 68.7034 46.3777 68.6932 46.617C68.6865 46.7611 68.5798 46.8804 68.437 46.9015C68.2959 46.9214 68.1567 46.8406 68.1085 46.7056C67.88 46.0679 66.8409 45.7069 66.2122 45.5628L65.6185 49.6073C65.5956 49.7574 65.4672 49.8653 65.3201 49.8653Z" fill="#25292B"/>
<path d="M95.6891 76.9195L87.0878 77.9743L89.4747 79.8368C90.3487 80.5179 90.5054 81.7837 89.8243 82.6577C89.4264 83.164 88.8358 83.4292 88.239 83.4292C88.1787 83.4292 88.1124 83.4292 88.0522 83.4232C88.2692 84.044 88.1848 84.7734 87.7448 85.3339C87.3469 85.8403 86.7502 86.1055 86.1535 86.1055C85.9425 86.1055 85.7255 86.0693 85.5206 86.003C85.7677 86.6419 85.6773 87.3833 85.2313 87.9559C84.8334 88.4622 84.2427 88.7275 83.64 88.7275C83.212 88.7275 82.778 88.5949 82.4104 88.3116L80.6021 86.9011L80.361 87.2628C76.1718 92.4826 70.9339 90.367 70.9339 90.367L66.8291 91.5544L63.731 80.7711L72.043 78.9688L79.053 74.3457C79.9029 73.7851 80.9035 73.4838 81.9221 73.4838H95.6891V76.9195Z" fill="white"/>
<path d="M85.5215 86.3044C85.4546 86.3044 85.3871 86.2821 85.3311 86.2363L81.8037 83.3515C81.6747 83.246 81.6555 83.0561 81.7609 82.9271C81.8664 82.7982 82.0563 82.7789 82.1853 82.8844L85.7126 85.7691C85.8416 85.8746 85.8609 86.0645 85.7554 86.1935C85.6957 86.267 85.6089 86.3044 85.5215 86.3044Z" fill="#25292B"/>
<path d="M88.0522 83.7246C87.9847 83.7246 87.9159 83.7017 87.8599 83.6547L84.2723 80.6686C84.1445 80.5619 84.127 80.372 84.2337 80.2443C84.3398 80.1171 84.5297 80.099 84.6581 80.2057L88.2457 83.1917C88.3734 83.2984 88.3909 83.4883 88.2842 83.6161C88.2246 83.6872 88.139 83.7246 88.0522 83.7246Z" fill="#25292B"/>
<path d="M122.993 60.1628L105.169 91.693C104.705 92.5128 103.837 93.0191 102.891 93.0191H86.1039C84.1028 93.0191 82.8491 90.8612 83.8316 89.1193L101.655 57.5951C102.119 56.7754 102.987 56.269 103.927 56.269H120.72C122.721 56.269 123.975 58.4209 122.993 60.1628Z" fill="#25292B"/>
<path d="M115.383 77.474C115.099 78.0285 114.581 78.3841 114.008 78.4806C114.262 78.7337 114.442 79.0411 114.551 79.3727C114.726 79.9212 114.696 80.536 114.412 81.0845C113.984 81.9283 113.08 82.3804 112.188 82.29C112.417 82.5311 112.58 82.8204 112.682 83.1278C112.857 83.6824 112.827 84.2972 112.544 84.8457C112.164 85.5871 111.423 86.0271 110.639 86.0572C110.741 86.2079 110.826 86.3646 110.892 86.5274C111.127 87.106 111.133 87.7329 110.85 88.2874C110.283 89.3844 108.782 89.7521 107.511 89.1011L104.682 87.7492C104.043 87.4237 103.585 86.8993 103.35 86.3206C103.115 85.742 103.115 85.1091 103.392 84.5606C103.736 83.8855 104.441 83.4877 105.224 83.4395C105.086 83.2466 104.977 83.0296 104.905 82.8066C104.724 82.2581 104.76 81.6432 105.038 81.0947C105.472 80.2509 106.376 79.7928 107.268 79.8832C107.039 79.6421 106.87 79.3528 106.773 79.0454C106.593 78.4969 106.623 77.882 106.906 77.3335C107.346 76.4656 108.28 76.0135 109.197 76.128C109.148 76.0376 109.112 75.9472 109.082 75.8508C108.931 75.3866 108.955 74.8622 109.197 74.3981C109.673 73.4638 110.83 73.0901 111.764 73.5723L114.551 74.9062C115.021 75.1473 115.346 75.5572 115.497 76.0213C115.648 76.4855 115.618 77.0099 115.383 77.474Z" fill="white"/>
<path d="M110.639 86.3587C110.595 86.3587 110.55 86.349 110.508 86.3285L105.093 83.7107C104.943 83.6384 104.881 83.4582 104.954 83.3081C105.026 83.1592 105.206 83.0959 105.356 83.1683L110.771 85.786C110.921 85.8584 110.984 86.0386 110.911 86.1887C110.858 86.296 110.751 86.3587 110.639 86.3587Z" fill="#25292B"/>
<path d="M112.187 82.5914C112.142 82.5914 112.097 82.5818 112.055 82.5607L107.134 80.1539C106.985 80.0803 106.923 79.9001 106.996 79.7506C107.07 79.6011 107.25 79.5397 107.4 79.6126L112.32 82.0194C112.469 82.0929 112.531 82.2732 112.458 82.4226C112.405 82.5293 112.298 82.5914 112.187 82.5914Z" fill="#25292B"/>
<path d="M114.008 78.7819C113.964 78.7819 113.919 78.7723 113.876 78.7512L109.064 76.3986C108.915 76.3257 108.853 76.1449 108.926 75.9954C109 75.8459 109.18 75.7844 109.33 75.8573L114.141 78.2099C114.291 78.2828 114.353 78.4637 114.28 78.6131C114.227 78.7198 114.12 78.7819 114.008 78.7819Z" fill="#25292B"/>
<path d="M48.1193 21.8431C48.7745 24.5043 50.4158 26.1788 52.8865 25.8708L50.1138 36.0435L63.9712 48.0552L65.3172 35.3768C65.3172 35.3768 67.0537 34.9959 69.1043 33.231C71.1549 31.4722 74.5942 27.1251 74.863 23.0246L75.4007 14.9356C72.0283 14.9133 67.6758 13.9832 64.3425 13.1207C61.4071 12.3588 59.2619 11.653 59.2619 11.653C59.2112 12.0285 59.0937 12.4148 58.9255 12.8012C58.0178 14.9018 55.6821 16.997 55.6821 16.997L55.6767 17.0362C55.6713 17.0307 55.6713 17.0247 55.6652 17.0247C55.6484 17.0078 55.6315 16.991 55.6206 16.9741C54.831 16.1115 53.7889 15.5287 52.6738 15.3551C52.0855 15.2653 51.4749 15.2876 50.8697 15.4334C48.2314 16.0898 47.4135 18.9921 48.1193 21.8431Z" fill="white"/>
<path d="M74.2008 21.6911C74.2548 20.8759 73.7013 20.1756 72.9646 20.1268C72.2278 20.078 71.5868 20.6992 71.5328 21.5143C71.4788 22.3295 72.0323 23.0298 72.769 23.0786C73.5058 23.1274 74.1468 22.5062 74.2008 21.6911Z" fill="#25292B"/>
<path d="M65.6163 20.2064C65.8747 19.4314 65.5163 18.6138 64.8159 18.3802C64.1154 18.1467 63.3381 18.5856 63.0797 19.3606C62.8213 20.1356 63.1797 20.9532 63.8801 21.1868C64.5806 21.4203 65.3579 20.9814 65.6163 20.2064Z" fill="#25292B"/>
<path d="M71.9873 18.076C73.0222 17.8211 74.1512 18.076 74.9305 18.8216C75.0854 18.9699 75.1391 19.2279 74.983 19.3997C74.8419 19.5552 74.5707 19.6106 74.4049 19.4521C74.3284 19.3786 74.2488 19.3093 74.1638 19.246C74.1222 19.2146 74.08 19.1851 74.0372 19.1562C74.0324 19.1531 74.0276 19.1501 74.0222 19.1471C73.9993 19.1339 73.9764 19.12 73.9534 19.1073C73.8612 19.0555 73.766 19.0091 73.6683 18.9681C73.6195 18.9476 73.5701 18.9289 73.5201 18.9108C73.511 18.9078 73.5026 18.9048 73.496 18.9024C73.4682 18.894 73.4405 18.8861 73.4128 18.8789C73.3103 18.8518 73.2066 18.8301 73.1017 18.8144C73.0493 18.8066 72.9969 18.8005 72.9438 18.7957C72.9173 18.7933 72.8914 18.7915 72.8649 18.7897C72.8637 18.7897 72.8643 18.7897 72.8631 18.7897C72.86 18.7897 72.8619 18.7897 72.8558 18.7897C72.7497 18.7891 72.6443 18.7921 72.5388 18.8029C72.4863 18.8084 72.4339 18.815 72.3815 18.824C72.3555 18.8283 72.3296 18.8331 72.3031 18.8379C72.2959 18.8391 72.2928 18.8397 72.2898 18.8403C72.2844 18.8415 72.282 18.8421 72.2748 18.8439C72.0674 18.8952 71.8203 18.8319 71.7462 18.6046C71.6853 18.4142 71.7642 18.1309 71.9873 18.076Z" fill="#25292B"/>
<path d="M66.666 17.487C66.5111 17.6697 66.2585 17.6347 66.0861 17.5087C66.0807 17.5045 66.0777 17.5027 66.0735 17.4997C66.0711 17.4985 66.068 17.4967 66.062 17.4925C66.0397 17.478 66.0174 17.4635 65.9951 17.4497C65.9499 17.4219 65.9041 17.3954 65.8577 17.3707C65.7643 17.3207 65.6678 17.2779 65.5696 17.2387C65.5641 17.2363 65.5659 17.2369 65.5629 17.2357C65.5617 17.2351 65.5629 17.2357 65.5611 17.2351C65.5358 17.2267 65.5111 17.2182 65.4858 17.211C65.4351 17.1953 65.3839 17.1814 65.3327 17.1688C65.2296 17.1435 65.1253 17.1242 65.0205 17.1109C64.9915 17.1073 64.9632 17.1043 64.9343 17.1013C64.9276 17.1007 64.9186 17.1001 64.9089 17.1001C64.8559 17.0983 64.8029 17.0965 64.7504 17.0971C64.6443 17.0977 64.5388 17.1049 64.434 17.1182C64.4074 17.1212 64.3815 17.1254 64.3556 17.129C64.3502 17.1296 64.3442 17.1308 64.3387 17.132C64.2881 17.1423 64.2375 17.1537 64.1874 17.167C64.085 17.1941 63.9849 17.2279 63.8861 17.267C63.6727 17.3508 63.443 17.1965 63.3713 16.9994C63.2917 16.7812 63.4394 16.563 63.6389 16.4847C64.6425 16.0893 65.7841 16.2803 66.6455 16.9078C66.8299 17.0422 66.7956 17.3339 66.666 17.487Z" fill="#25292B"/>
<path d="M63.5873 29.2299C62.8405 28.896 62.3438 28.403 62.1124 27.7653C61.7224 26.6923 62.2383 25.6122 62.2606 25.567C62.3215 25.4422 62.4704 25.3886 62.5964 25.4428L67.2418 27.4572C67.3069 27.4856 67.3569 27.5386 67.3817 27.6049C67.4058 27.6712 67.4021 27.7448 67.3714 27.808C67.3612 27.8285 66.5149 29.5181 64.8338 29.5181C64.4601 29.5181 64.0442 29.4349 63.5873 29.2299ZM62.6362 26.0245C62.5258 26.353 62.3794 26.9823 62.5994 27.5886C62.7814 28.0895 63.1847 28.4825 63.7989 28.7574C65.4462 29.4946 66.4263 28.3409 66.7686 27.8165L62.6362 26.0245Z" fill="#25292B"/>
<path d="M52.3052 24.6346C52.2485 24.6346 52.1919 24.6195 52.14 24.5881C51.1865 24.0077 50.6711 22.7955 50.9152 21.7064C51.1431 20.6859 52.0201 19.8517 53.0429 19.6528C53.2051 19.0832 53.1605 18.4895 52.9158 18.0338C52.6258 17.4937 52.0388 17.1562 51.4921 17.2158C50.9387 17.2749 50.4625 17.7951 50.4933 18.308C50.5041 18.484 50.3703 18.6347 50.1943 18.645C50.0183 18.6612 49.8676 18.522 49.8574 18.346C49.8055 17.4859 50.5228 16.6782 51.4245 16.5823C52.2304 16.4943 53.0683 16.9705 53.4769 17.7324C53.8368 18.4021 53.876 19.2459 53.5842 20.047C53.5426 20.1609 53.4396 20.2417 53.319 20.2549C52.4721 20.3459 51.7229 21.015 51.5367 21.8456C51.3504 22.6768 51.744 23.6014 52.4715 24.0439C52.6216 24.1355 52.6692 24.3314 52.5782 24.4821C52.5173 24.5797 52.4125 24.6339 52.3052 24.6346Z" fill="#25292B"/>
<path d="M63.8292 35.7277C63.576 35.7277 63.3385 35.7024 63.127 35.6433C61.6333 35.228 59.602 32.8296 59.5164 32.7278C59.4031 32.5933 59.4206 32.392 59.555 32.2787C59.6906 32.1654 59.8914 32.1835 60.0041 32.3173C60.024 32.3408 61.9938 34.6668 63.2981 35.0297C64.3656 35.3274 66.5868 34.4908 67.3523 34.143C67.5132 34.0713 67.7013 34.1418 67.7736 34.3016C67.8465 34.4619 67.7754 34.6505 67.6157 34.7229C67.5108 34.7705 65.3831 35.7277 63.8292 35.7277Z" fill="#25292B"/>
<path d="M63.9599 23.7346C63.309 23.7346 62.6483 23.6117 62.0082 23.3525C60.7183 22.8293 59.7093 21.8353 59.1668 20.5539C58.6243 19.2718 58.6141 17.8553 59.1367 16.5654C59.6593 15.2755 60.6538 14.2665 61.9353 13.724C63.2161 13.1816 64.6332 13.1707 65.9237 13.6939C68.5867 14.7734 69.8748 17.818 68.7952 20.4809C67.9755 22.505 66.0208 23.7346 63.9599 23.7346ZM63.966 13.9465C63.3614 13.9465 62.7574 14.0682 62.1842 14.3105C61.0589 14.7867 60.1867 15.6728 59.7274 16.8047C59.2681 17.9373 59.2777 19.1802 59.7533 20.3055C60.2295 21.4309 61.1155 22.3031 62.2475 22.7624C64.5838 23.7099 67.2576 22.5791 68.2051 20.2423C69.1527 17.9048 68.0219 15.2327 65.6844 14.2852C65.1299 14.0592 64.5476 13.9465 63.966 13.9465Z" fill="#1E90FF"/>
<path d="M75.3879 26.9956C74.7369 26.9956 74.0763 26.8732 73.4367 26.614C70.7738 25.5345 69.4857 22.4894 70.5652 19.8264C71.0884 18.5365 72.0824 17.5275 73.3638 16.985C74.6447 16.4419 76.0617 16.4317 77.3522 16.9549C80.0152 18.0344 81.3033 21.0789 80.2238 23.7419C79.404 25.766 77.4481 26.9956 75.3879 26.9956ZM75.3939 17.2074C74.7893 17.2074 74.1854 17.3292 73.6121 17.5715C72.4868 18.0477 71.6146 18.9337 71.1553 20.0657C70.2078 22.4032 71.3379 25.0752 73.676 26.0233C76.0117 26.9709 78.6861 25.8407 79.6337 23.5026C80.5812 21.1651 79.4504 18.4931 77.113 17.5456C76.5578 17.3201 75.9762 17.2074 75.3939 17.2074Z" fill="#1E90FF"/>
<path d="M54.094 13.5862L53.7734 14.1368L59.1585 17.2724L59.4791 16.7218L54.094 13.5862Z" fill="#1E90FF"/>
<path d="M68.6289 20.0661L68.3779 20.6517L70.4108 21.5228L70.6617 20.9372L68.6289 20.0661Z" fill="#1E90FF"/>
<path d="M50.8658 15.4347C51.471 15.2888 52.0816 15.2665 52.6699 15.3563C53.7844 15.5299 54.8265 16.1128 55.6168 16.9753L55.6782 16.9977C55.6782 16.9977 58.0145 14.9025 58.9217 12.8019C59.0898 12.4155 59.2074 12.0285 59.258 11.6536C59.258 11.6536 61.4038 12.3594 64.3386 13.1213C67.6719 13.9839 72.0244 14.9139 75.3968 14.9362C77.5366 14.9531 79.2846 14.6059 80.1248 13.6475C83.9282 9.30046 81.1555 4.81896 76.9598 5.23908C72.9376 5.64775 70.2209 5.57542 65.8287 2.80214C61.437 0.0234343 56.815 0.488764 55.4655 4.04563C55.4655 4.04563 48.2107 4.27045 50.8658 15.4347Z" fill="#25292B"/>
<path d="M70.8487 27.2915C70.815 27.2915 70.7818 27.2861 70.7487 27.2759L66.7747 25.9643C66.6077 25.9088 66.5167 25.7286 66.5722 25.5622C66.6276 25.3953 66.8084 25.3048 66.9742 25.3597L70.4937 26.5212L69.9783 19.8867C69.9651 19.7113 70.0959 19.5582 70.2713 19.5443C70.4485 19.5316 70.5998 19.6618 70.6136 19.8372L71.1664 26.9492C71.1748 27.0553 71.129 27.1589 71.0452 27.2246C70.9886 27.2686 70.9192 27.2915 70.8487 27.2915Z" fill="#25292B"/>
<path d="M182.673 141.945H109.794C108.157 141.945 106.826 140.614 106.826 138.978V94.8726C106.826 93.2362 108.157 91.9047 109.794 91.9047H182.673C184.31 91.9047 185.641 93.2362 185.641 94.8726V138.978C185.641 140.614 184.309 141.945 182.673 141.945ZM109.794 92.3501C108.402 92.3501 107.27 93.4821 107.27 94.8732V138.978C107.27 140.369 108.402 141.501 109.794 141.501H182.673C184.065 141.501 185.197 140.369 185.197 138.978V94.8732C185.197 93.4821 184.065 92.3501 182.673 92.3501H109.794Z" fill="#25292B"/>
<path d="M185.418 97.8219H107.048V94.8732C107.048 93.3567 108.277 92.1277 109.793 92.1277H182.672C184.189 92.1277 185.418 93.3567 185.418 94.8732V97.8219Z" fill="#25292B"/>
<path d="M112.021 111.142L123.502 111.142L123.502 99.6604L112.021 99.6604L112.021 111.142Z" fill="white"/>
<path d="M112.021 125.004L123.502 125.004L123.502 113.523L112.021 113.523L112.021 125.004Z" fill="white"/>
<path d="M112.021 138.465L123.502 138.465L123.502 126.984L112.021 126.984L112.021 138.465Z" fill="white"/>
<path d="M116.649 109.177L112.545 105.072L114.635 102.982L116.649 104.996L120.887 100.759L122.977 102.849L116.649 109.177Z" fill="#1E90FF"/>
<path d="M116.649 123.473L112.545 119.368L114.635 117.278L116.649 119.292L120.887 115.055L122.976 117.145L116.649 123.473Z" fill="#1E90FF"/>
<path d="M116.649 136.562L112.545 132.457L114.635 130.368L116.649 132.382L120.887 128.144L122.977 130.235L116.649 136.562Z" fill="#1E90FF"/>
<path d="M125.426 102.656L180.52 102.656L180.52 100.387L125.426 100.387L125.426 102.656Z" fill="white"/>
<path d="M125.426 106.96L180.52 106.96L180.52 104.691L125.426 104.691L125.426 106.96Z" fill="white"/>
<path d="M125.425 111.183L150.214 111.183L150.214 108.913L125.425 108.913L125.425 111.183Z" fill="white"/>
<path d="M125.426 116.136L180.52 116.136L180.52 113.866L125.426 113.866L125.426 116.136Z" fill="white"/>
<path d="M125.426 120.44L180.52 120.44L180.52 118.171L125.426 118.171L125.426 120.44Z" fill="white"/>
<path d="M125.425 124.662L150.214 124.662L150.214 122.393L125.425 122.393L125.425 124.662Z" fill="white"/>
<path d="M125.426 129.851L180.52 129.851L180.52 127.582L125.426 127.582L125.426 129.851Z" fill="white"/>
<path d="M125.426 134.155L180.52 134.155L180.52 131.886L125.426 131.886L125.426 134.155Z" fill="white"/>
<path d="M125.425 138.377L150.214 138.377L150.214 136.108L125.425 136.108L125.425 138.377Z" fill="white"/>
<path d="M249.764 115.769L245.816 127.584C240.41 143.743 222.549 148.104 210.305 136.254L201.356 127.588C186.416 113.126 190.914 86.4002 209.036 81.976L221.934 78.8266C240.05 74.4036 256.358 96.0491 249.764 115.769Z" fill="white"/>
<path d="M218.263 92.8265C227.674 90.5288 234.572 85.6733 233.67 81.9813C232.769 78.2893 224.41 77.1589 214.999 79.4566C205.589 81.7542 198.691 86.6098 199.592 90.3018C200.494 93.9938 208.853 95.1241 218.263 92.8265Z" fill="#25292B"/>
<path d="M241.919 68.4791C241.919 81.5987 229.046 85.9295 213.166 85.9295C197.285 85.9295 184.412 81.5987 184.412 68.4791C184.412 55.3595 197.285 43.0488 213.166 43.0488C229.046 43.0494 241.919 55.3601 241.919 68.4791Z" fill="white"/>
<path d="M200.866 76.2324C200.866 76.2324 188.092 76.0763 184.429 69.1976C184.418 68.9631 184.412 68.7232 184.412 68.4773C184.412 61.9507 187.606 55.6187 192.771 50.9064H224.925C224.925 50.9064 236.254 76.2324 200.866 76.2324Z" fill="#1E90FF"/>
<path d="M192.761 65.0313C195.113 65.0313 197.02 62.8643 197.02 60.1912C197.02 57.5181 195.113 55.3511 192.761 55.3511C190.408 55.3511 188.501 57.5181 188.501 60.1912C188.501 62.8643 190.408 65.0313 192.761 65.0313Z" fill="white"/>
<path d="M207.679 65.0313C210.032 65.0313 211.939 62.8643 211.939 60.1912C211.939 57.5181 210.032 55.3511 207.679 55.3511C205.327 55.3511 203.42 57.5181 203.42 60.1912C203.42 62.8643 205.327 65.0313 207.679 65.0313Z" fill="white"/>
<path d="M198.749 69.9872C194.786 69.9872 194.721 66.4134 194.72 66.3773C194.72 66.2688 194.807 66.1808 194.915 66.1802H194.916C195.024 66.1802 195.112 66.267 195.112 66.3743C195.113 66.5057 195.18 69.5948 198.749 69.5948C202.317 69.5948 202.384 66.5057 202.385 66.3743C202.386 66.267 202.474 66.1802 202.581 66.1802H202.582C202.69 66.1808 202.778 66.2688 202.777 66.3773C202.777 66.4134 202.712 69.9872 198.749 69.9872Z" fill="#25292B"/>
<path d="M232.01 81.8741C231.979 81.8741 231.947 81.8663 231.917 81.8506C231.822 81.7994 231.786 81.6806 231.838 81.5854C234.627 76.4041 235.808 70.3289 235.164 64.4798C234.52 58.63 232.044 52.9587 228.193 48.5086C228.122 48.4266 228.131 48.303 228.213 48.2319C228.294 48.1608 228.418 48.1692 228.489 48.2518C232.392 52.761 234.9 58.5089 235.554 64.4364C236.206 70.3639 235.009 76.5205 232.182 81.7711C232.147 81.8368 232.081 81.8741 232.01 81.8741Z" fill="#25292B"/>
<path d="M214.172 46.1084C214.136 46.1084 214.098 46.0976 214.065 46.0759C213.974 46.0162 213.949 45.895 214.009 45.804C216.985 41.29 217.795 35.5144 216.177 30.356C216.144 30.2529 216.202 30.1426 216.305 30.1107C216.407 30.0793 216.518 30.136 216.55 30.2391C218.204 35.509 217.377 41.4087 214.336 46.0204C214.299 46.0771 214.236 46.1084 214.172 46.1084Z" fill="#25292B"/>
<path d="M216.349 34.5578C219.371 34.5578 221.821 32.1082 221.821 29.0866C221.821 26.0649 219.371 23.6154 216.349 23.6154C213.328 23.6154 210.878 26.0649 210.878 29.0866C210.878 32.1082 213.328 34.5578 216.349 34.5578Z" fill="#1E90FF"/>
<path d="M237.289 112.733C241.889 112.733 245.619 108.008 245.619 102.179C245.619 96.3502 241.889 91.6249 237.289 91.6249C232.689 91.6249 228.96 96.3502 228.96 102.179C228.96 108.008 232.689 112.733 237.289 112.733Z" fill="#1E90FF"/>
<path d="M208.896 118.321C201.742 118.321 194.592 116.657 188.192 113.439C185.711 112.192 184.71 109.169 185.957 106.687C187.204 104.206 190.227 103.204 192.709 104.453C199.467 107.849 207.295 109.029 214.753 107.778C222.211 106.525 229.225 102.853 234.501 97.4367C236.439 95.447 239.623 95.4054 241.613 97.3445C243.602 99.2823 243.644 102.467 241.706 104.456C234.949 111.392 225.968 116.094 216.418 117.698C213.932 118.115 211.414 118.321 208.896 118.321Z" fill="#25292B"/>
<path d="M136.423 81.3919C137.594 81.2032 138.812 81.1894 140.045 81.3738C143.17 81.8409 145.926 83.4967 147.806 86.0367C149.685 88.5767 150.463 91.6966 149.996 94.8213L149.917 95.3481C149.701 96.7929 148.355 97.7905 146.91 97.5735C145.465 97.3577 144.468 96.0111 144.684 94.5663L144.763 94.0395C145.021 92.3126 144.591 90.5881 143.553 89.1843C142.514 87.7805 140.991 86.8649 139.264 86.6069C135.698 86.0741 132.364 88.5412 131.831 92.1065L131.752 92.6339C131.536 94.0787 130.189 95.0738 128.744 94.8587C127.299 94.6423 126.303 93.2957 126.52 91.8509L126.598 91.3241C127.378 86.1066 131.473 82.1893 136.423 81.3919Z" fill="#1E90FF"/>
<path d="M190.323 103.989C190.285 105.087 190.079 106.196 189.69 107.285C188.706 110.041 186.707 112.248 184.062 113.501C181.417 114.754 178.442 114.902 175.686 113.917L175.221 113.751C173.947 113.296 173.282 111.894 173.738 110.619C174.193 109.345 175.596 108.681 176.87 109.136L177.334 109.301C178.858 109.846 180.502 109.764 181.964 109.072C183.425 108.379 184.531 107.159 185.075 105.636C186.199 102.491 184.554 99.019 181.41 97.8954L180.945 97.7291C179.671 97.2734 179.008 95.8714 179.462 94.5966C179.918 93.3223 181.32 92.6581 182.595 93.1138L183.059 93.2795C187.66 94.9238 190.486 99.3475 190.323 103.989Z" fill="#1E90FF"/>
<path d="M146.282 158.814H111.597V193.499H146.282V158.814Z" fill="#1E90FF"/>
<path d="M222.688 154.19H107.048V148.533C107.048 147.016 108.277 145.787 109.793 145.787H219.943C221.459 145.787 222.688 147.016 222.688 148.533L222.688 154.19Z" fill="#1E90FF"/>
<path d="M219.941 219.297H109.792C108.097 219.297 106.719 217.918 106.719 216.223V148.534C106.719 146.838 108.098 145.459 109.792 145.459H219.942C221.637 145.459 223.016 146.838 223.016 148.534V216.224C223.015 217.918 221.636 219.297 219.941 219.297ZM109.792 146.115C108.46 146.115 107.375 147.2 107.375 148.534V216.224C107.375 217.556 108.46 218.641 109.792 218.641H219.942C221.275 218.641 222.36 217.556 222.36 216.224V148.534C222.36 147.2 221.275 146.115 219.942 146.115H109.792Z" fill="#25292B"/>
<path d="M218.467 149.955C218.467 150.329 218.317 150.673 218.069 150.92C217.822 151.167 217.479 151.318 217.105 151.318H210.487C209.739 151.318 209.125 150.709 209.125 149.955C209.125 149.582 209.281 149.238 209.522 148.991C209.775 148.744 210.113 148.593 210.487 148.593H217.105C217.858 148.593 218.467 149.202 218.467 149.955Z" fill="white"/>
<path d="M207.461 149.955C207.461 150.329 207.31 150.673 207.057 150.92C206.816 151.167 206.472 151.318 206.099 151.318H199.48C198.727 151.318 198.118 150.709 198.118 149.955C198.118 149.582 198.269 149.238 198.516 148.991C198.763 148.744 199.101 148.593 199.48 148.593H206.099C206.846 148.593 207.461 149.202 207.461 149.955Z" fill="#25292B"/>
<path d="M196.268 149.955C196.268 150.329 196.117 150.673 195.864 150.92C195.623 151.167 195.279 151.318 194.905 151.318H188.287C187.534 151.318 186.925 150.709 186.925 149.955C186.925 149.582 187.075 149.238 187.323 148.991C187.57 148.744 187.907 148.593 188.287 148.593H194.905C195.653 148.593 196.268 149.202 196.268 149.955Z" fill="#FFA727"/>
<path d="M124.736 189.023L113.307 177.594L118.768 172.133L124.736 178.1L139.546 163.29L145.007 168.752L124.736 189.023Z" fill="white"/>
<path d="M216.568 200.242H112.379C111.948 200.242 111.597 199.89 111.597 199.46V199.02C111.597 198.589 111.949 198.238 112.379 198.238H216.568C216.998 198.238 217.349 198.59 217.349 199.02V199.46C217.349 199.89 216.998 200.242 216.568 200.242Z" fill="white"/>
<path d="M216.679 207.327H112.491C112.06 207.327 111.709 206.975 111.709 206.545V206.105C111.709 205.675 112.061 205.323 112.491 205.323H216.679C217.11 205.323 217.461 205.675 217.461 206.105V206.545C217.461 206.975 217.109 207.327 216.679 207.327Z" fill="white"/>
<path d="M185.124 213.982H112.436C112.005 213.982 111.654 213.63 111.654 213.2V212.76C111.654 212.33 112.006 211.978 112.436 211.978H185.124C185.554 211.978 185.906 212.33 185.906 212.76V213.2C185.906 213.63 185.554 213.982 185.124 213.982Z" fill="white"/>
<path d="M193.997 186.437C190.425 186.437 187.519 183.531 187.519 179.959V166.115C187.519 163.226 185.168 160.875 182.279 160.875C179.39 160.875 177.039 163.226 177.039 166.115V177.447C177.039 180.592 174.481 183.15 171.335 183.15H171.134C167.988 183.15 165.43 180.592 165.43 177.447V164.913C165.43 162.302 163.306 160.178 160.695 160.178C158.084 160.178 155.961 162.302 155.961 164.913V188.384C155.961 188.652 155.745 188.869 155.476 188.869C155.208 188.869 154.992 188.652 154.992 188.384V164.913C154.992 161.768 157.55 159.209 160.695 159.209C163.84 159.209 166.399 161.768 166.399 164.913V177.447C166.399 180.058 168.523 182.181 171.134 182.181H171.335C173.947 182.181 176.07 180.057 176.07 177.447V166.115C176.07 162.691 178.855 159.906 182.278 159.906C185.702 159.906 188.487 162.692 188.487 166.115V179.959C188.487 182.997 190.958 185.468 193.996 185.468C197.034 185.468 199.505 182.997 199.505 179.959V176.627C199.505 173.154 202.33 170.329 205.803 170.329C209.277 170.329 212.102 173.154 212.102 176.627V190.247C212.102 190.514 211.886 190.731 211.618 190.731C211.349 190.731 211.133 190.514 211.133 190.247V176.627C211.133 173.689 208.742 171.298 205.803 171.298C202.864 171.298 200.474 173.688 200.474 176.627V179.959C200.475 183.53 197.569 186.437 193.997 186.437Z" fill="white"/>
<path d="M160.277 162.581C161.918 162.581 163.248 161.251 163.248 159.61C163.248 157.97 161.918 156.639 160.277 156.639C158.636 156.639 157.306 157.97 157.306 159.61C157.306 161.251 158.636 162.581 160.277 162.581Z" fill="#1E90FF"/>
<path d="M176.287 174.471C177.928 174.471 179.258 173.141 179.258 171.5C179.258 169.86 177.928 168.529 176.287 168.529C174.646 168.529 173.316 169.86 173.316 171.5C173.316 173.141 174.646 174.471 176.287 174.471Z" fill="#1E90FF"/>
<path d="M188.49 168.12C190.131 168.12 191.461 166.789 191.461 165.149C191.461 163.508 190.131 162.178 188.49 162.178C186.849 162.178 185.519 163.508 185.519 165.149C185.519 166.789 186.849 168.12 188.49 168.12Z" fill="#1E90FF"/>
<path d="M193.707 188.545C195.347 188.545 196.678 187.215 196.678 185.574C196.678 183.933 195.347 182.603 193.707 182.603C192.066 182.603 190.736 183.933 190.736 185.574C190.736 187.215 192.066 188.545 193.707 188.545Z" fill="#1E90FF"/>
<path d="M211.621 192.281C213.262 192.281 214.592 190.951 214.592 189.31C214.592 187.669 213.262 186.339 211.621 186.339C209.98 186.339 208.65 187.669 208.65 189.31C208.65 190.951 209.98 192.281 211.621 192.281Z" fill="#1E90FF"/>
<path d="M155.457 191.552C157.097 191.552 158.428 190.221 158.428 188.581C158.428 186.94 157.097 185.61 155.457 185.61C153.816 185.61 152.486 186.94 152.486 188.581C152.486 190.221 153.816 191.552 155.457 191.552Z" fill="#1E90FF"/>
<path d="M109.725 55.653C109.559 55.653 109.424 55.518 109.424 55.3517V51.7351C109.424 51.5688 109.559 51.4338 109.725 51.4338C109.892 51.4338 110.027 51.5688 110.027 51.7351V55.3517C110.027 55.518 109.892 55.653 109.725 55.653ZM169.485 52.0944C169.324 52.0944 169.19 51.9666 169.184 51.8032C169.178 51.6369 169.308 51.4976 169.475 51.4916C170.652 51.4506 171.779 51.1613 172.824 50.6321C172.973 50.5549 173.154 50.6164 173.229 50.7647C173.305 50.9136 173.245 51.0944 173.097 51.1697C171.973 51.7393 170.761 52.0504 169.496 52.0944C169.492 52.0944 169.488 52.0944 169.485 52.0944ZM165.917 51.6598C165.885 51.6598 165.853 51.655 165.821 51.6441C164.645 51.2457 163.545 50.5808 162.64 49.7207C162.52 49.6062 162.515 49.4157 162.629 49.2946C162.743 49.174 162.934 49.1686 163.056 49.2837C163.898 50.0836 164.921 50.7026 166.014 51.0727C166.172 51.1264 166.257 51.2975 166.203 51.4548C166.16 51.5808 166.043 51.6598 165.917 51.6598ZM175.737 48.9317C175.672 48.9317 175.606 48.9106 175.551 48.8666C175.42 48.7629 175.398 48.5737 175.501 48.4429C176.233 47.5201 176.742 46.4737 177.016 45.3345C177.055 45.1723 177.217 45.0711 177.379 45.1114C177.542 45.15 177.641 45.3128 177.602 45.4749C177.308 46.7003 176.761 47.8244 175.974 48.8166C175.915 48.8925 175.827 48.9317 175.737 48.9317ZM109.725 48.42C109.559 48.42 109.424 48.285 109.424 48.1186V44.5021C109.424 44.3357 109.559 44.2007 109.725 44.2007C109.892 44.2007 110.027 44.3357 110.027 44.5021V48.1186C110.027 48.285 109.892 48.42 109.725 48.42ZM160.836 46.8329C160.716 46.8329 160.603 46.7612 160.556 46.643C160.152 45.6268 159.947 44.5521 159.947 43.449V42.9897C159.947 42.8234 160.082 42.6884 160.248 42.6884C160.415 42.6884 160.55 42.8234 160.55 42.9897V43.449C160.55 44.4755 160.74 45.4755 161.116 46.4206C161.178 46.5749 161.103 46.7503 160.948 46.8118C160.911 46.8263 160.873 46.8329 160.836 46.8329ZM135.054 46.2133H134.774C133.89 46.2133 133.018 46.0807 132.183 45.8185C132.024 45.7684 131.936 45.5997 131.985 45.4412C132.035 45.282 132.203 45.1922 132.363 45.2434C133.14 45.487 133.951 45.6105 134.774 45.6105H135.054C135.312 45.6105 135.568 45.5985 135.82 45.5744C135.985 45.5599 136.133 45.681 136.148 45.8468C136.163 46.0126 136.041 46.1596 135.875 46.1747C135.605 46.2006 135.331 46.2133 135.054 46.2133ZM139.263 45.0771C139.159 45.0771 139.059 45.024 139.003 44.9276C138.919 44.7841 138.967 44.5997 139.11 44.5153C140.11 43.9313 140.989 43.1205 141.653 42.1706C141.749 42.0338 141.937 42.0006 142.073 42.0965C142.209 42.1917 142.242 42.3798 142.147 42.516C141.433 43.5364 140.489 44.4074 139.415 45.0355C139.367 45.0638 139.315 45.0771 139.263 45.0771ZM129.161 44.0464C129.089 44.0464 129.017 44.0205 128.959 43.968C128.035 43.1296 127.29 42.082 126.806 40.938C126.741 40.7849 126.812 40.6077 126.965 40.5426C127.119 40.4781 127.295 40.5492 127.361 40.7023C127.812 41.7668 128.504 42.7414 129.364 43.5214C129.487 43.6335 129.496 43.824 129.384 43.9469C129.325 44.0126 129.243 44.0464 129.161 44.0464ZM177.54 42.1091C177.373 42.1091 177.238 41.9741 177.238 41.8077V38.1912C177.238 38.0248 177.373 37.8898 177.54 37.8898C177.706 37.8898 177.841 38.0248 177.841 38.1912V41.8077C177.841 41.9741 177.706 42.1091 177.54 42.1091ZM109.725 41.1869C109.559 41.1869 109.424 41.0519 109.424 40.8855V37.269C109.424 37.1026 109.559 36.9676 109.725 36.9676C109.892 36.9676 110.027 37.1026 110.027 37.269V40.8855C110.027 41.0519 109.892 41.1869 109.725 41.1869ZM160.248 39.6746C160.082 39.6746 159.947 39.5396 159.947 39.3732V35.7567C159.947 35.5903 160.082 35.4553 160.248 35.4553C160.415 35.4553 160.55 35.5903 160.55 35.7567V39.3732C160.55 39.5402 160.415 39.6746 160.248 39.6746ZM143.275 39.331C143.258 39.331 143.24 39.3298 143.222 39.3262C143.058 39.2973 142.949 39.1405 142.978 38.9766C143.061 38.5119 143.102 38.0363 143.102 37.5625V35.4209C143.102 35.2546 143.237 35.1196 143.403 35.1196C143.57 35.1196 143.705 35.2546 143.705 35.4209V37.5619C143.705 38.0712 143.66 38.5824 143.571 39.0815C143.546 39.2285 143.419 39.331 143.275 39.331ZM126.424 37.5945C126.258 37.5945 126.123 37.4594 126.123 37.2931V33.6766C126.123 33.5102 126.258 33.3752 126.424 33.3752C126.591 33.3752 126.726 33.5102 126.726 33.6766V37.2931C126.726 37.4594 126.591 37.5945 126.424 37.5945ZM177.54 34.876C177.373 34.876 177.238 34.741 177.238 34.5747V30.9581C177.238 30.7918 177.373 30.6567 177.54 30.6567C177.706 30.6567 177.841 30.7918 177.841 30.9581V34.5747C177.841 34.741 177.706 34.876 177.54 34.876ZM109.725 33.9538C109.559 33.9538 109.424 33.8188 109.424 33.6524V30.0359C109.424 29.8695 109.559 29.7345 109.725 29.7345C109.892 29.7345 110.027 29.8695 110.027 30.0359V33.6524C110.027 33.8188 109.892 33.9538 109.725 33.9538ZM160.248 32.4415C160.082 32.4415 159.947 32.3065 159.947 32.1401V28.5236C159.947 28.3572 160.082 28.2222 160.248 28.2222C160.415 28.2222 160.55 28.3572 160.55 28.5236V32.1401C160.55 32.3071 160.415 32.4415 160.248 32.4415ZM143.403 32.1064C143.237 32.1064 143.102 31.9714 143.102 31.805V28.1885C143.102 28.0221 143.237 27.8871 143.403 27.8871C143.57 27.8871 143.705 28.0221 143.705 28.1885V31.805C143.705 31.9714 143.57 32.1064 143.403 32.1064ZM126.424 30.3614C126.258 30.3614 126.123 30.2264 126.123 30.06V26.4435C126.123 26.2771 126.258 26.1421 126.424 26.1421C126.591 26.1421 126.726 26.2771 126.726 26.4435V30.06C126.726 30.2264 126.591 30.3614 126.424 30.3614ZM177.54 27.643C177.373 27.643 177.238 27.508 177.238 27.3416V23.7251C177.238 23.5587 177.373 23.4237 177.54 23.4237C177.706 23.4237 177.841 23.5587 177.841 23.7251V27.3416C177.841 27.508 177.706 27.643 177.54 27.643ZM109.725 26.7207C109.559 26.7207 109.424 26.5857 109.424 26.4194V22.8028C109.424 22.6365 109.559 22.5015 109.725 22.5015C109.892 22.5015 110.027 22.6365 110.027 22.8028V26.4194C110.027 26.5857 109.892 26.7207 109.725 26.7207ZM160.248 25.2084C160.082 25.2084 159.947 25.0734 159.947 24.9071V21.6582C159.947 21.5395 159.945 21.4213 159.939 21.3038C159.932 21.1374 160.061 20.997 160.227 20.9897C160.394 20.9855 160.534 21.1115 160.541 21.2779C160.547 21.4038 160.55 21.531 160.55 21.6582V24.9071C160.55 25.074 160.415 25.2084 160.248 25.2084ZM143.403 24.8733C143.237 24.8733 143.102 24.7383 143.102 24.5719V21.6588C143.102 21.4141 143.112 21.1712 143.132 20.9313C143.145 20.7655 143.292 20.642 143.457 20.6564C143.623 20.6703 143.746 20.8162 143.732 20.9819C143.714 21.2049 143.705 21.431 143.705 21.6588V24.5719C143.705 24.7383 143.57 24.8733 143.403 24.8733ZM126.424 23.1283C126.258 23.1283 126.123 22.9933 126.123 22.8269V19.2104C126.123 19.044 126.258 18.909 126.424 18.909C126.591 18.909 126.726 19.044 126.726 19.2104V22.8269C126.726 22.9933 126.591 23.1283 126.424 23.1283ZM177.54 20.4099C177.373 20.4099 177.238 20.2749 177.238 20.1085V16.492C177.238 16.3256 177.373 16.1906 177.54 16.1906C177.706 16.1906 177.841 16.3256 177.841 16.492V20.1085C177.841 20.2749 177.706 20.4099 177.54 20.4099ZM109.725 19.4877C109.559 19.4877 109.424 19.3527 109.424 19.1863V15.5698C109.424 15.4034 109.559 15.2684 109.725 15.2684C109.892 15.2684 110.027 15.4034 110.027 15.5698V19.1863C110.027 19.3527 109.892 19.4877 109.725 19.4877ZM213.474 19.4063C213.374 19.4063 213.276 19.3569 213.219 19.2665C212.61 18.3069 211.627 17.6227 210.521 17.3901C210.358 17.3557 210.254 17.196 210.288 17.0333C210.322 16.8705 210.482 16.7668 210.645 16.8006C211.91 17.0664 213.033 17.8476 213.727 18.944C213.817 19.0844 213.775 19.2707 213.634 19.3599C213.585 19.3912 213.528 19.4063 213.474 19.4063ZM159.318 18.1261C159.209 18.1261 159.104 18.0664 159.05 17.9633C158.519 16.9362 157.754 16.017 156.839 15.3045C156.707 15.2027 156.684 15.0128 156.786 14.8814C156.888 14.75 157.078 14.7253 157.209 14.829C158.193 15.5951 159.015 16.583 159.585 17.686C159.662 17.8343 159.604 18.0157 159.456 18.0923C159.412 18.1152 159.364 18.1261 159.318 18.1261ZM144.494 17.8307C144.444 17.8307 144.392 17.818 144.345 17.7915C144.201 17.7089 144.15 17.5251 144.233 17.3804C144.849 16.3003 145.709 15.3455 146.722 14.6204C146.858 14.5228 147.046 14.5547 147.142 14.6897C147.239 14.8248 147.208 15.0134 147.073 15.1099C146.131 15.7849 145.329 16.6734 144.756 17.6788C144.7 17.7764 144.599 17.8307 144.494 17.8307ZM206.974 17.2991H203.357C203.191 17.2991 203.056 17.1641 203.056 16.9977C203.056 16.8313 203.191 16.6963 203.357 16.6963H206.974C207.14 16.6963 207.275 16.8313 207.275 16.9977C207.275 17.1641 207.14 17.2991 206.974 17.2991ZM199.843 16.5896C199.801 16.5896 199.759 16.5812 199.719 16.5631C198.584 16.0483 197.561 15.2684 196.762 14.307C196.655 14.1792 196.672 13.9893 196.8 13.8826C196.927 13.776 197.118 13.794 197.225 13.9212C197.967 14.8127 198.915 15.5366 199.968 16.0134C200.119 16.0821 200.186 16.2611 200.118 16.4124C200.067 16.5239 199.957 16.5896 199.843 16.5896ZM126.424 15.8952C126.258 15.8952 126.123 15.7602 126.123 15.5939V14.2359C126.123 13.5053 126.025 12.782 125.832 12.0858C125.788 11.9255 125.882 11.7591 126.043 11.7151C126.202 11.6729 126.369 11.7652 126.413 11.9255C126.62 12.6735 126.726 13.4511 126.726 14.2359V15.5939C126.726 15.7602 126.591 15.8952 126.424 15.8952ZM153.786 13.8242C153.763 13.8242 153.741 13.8218 153.718 13.8163C153.126 13.6795 152.514 13.6102 151.899 13.6102H151.753C151.248 13.6102 150.742 13.6572 150.251 13.75C150.09 13.7808 149.93 13.6735 149.899 13.5101C149.868 13.3468 149.976 13.1889 150.139 13.1581C150.667 13.0581 151.21 13.0074 151.753 13.0074H151.898C152.559 13.0074 153.216 13.0822 153.853 13.2293C154.015 13.2672 154.116 13.4288 154.079 13.5909C154.047 13.7301 153.923 13.8242 153.786 13.8242ZM177.54 13.1768C177.373 13.1768 177.238 13.0418 177.238 12.8754V9.25891C177.238 9.09255 177.373 8.95753 177.54 8.95753C177.706 8.95753 177.841 9.09255 177.841 9.25891V12.8754C177.841 13.0418 177.706 13.1768 177.54 13.1768ZM110.033 12.2829C110.006 12.2829 109.979 12.2793 109.952 12.2715C109.792 12.2269 109.698 12.0605 109.743 11.9002C110.082 10.6868 110.671 9.58379 111.493 8.62119C111.602 8.49461 111.792 8.48014 111.918 8.58743C112.045 8.69593 112.06 8.8858 111.952 9.01238C111.187 9.90807 110.639 10.934 110.323 12.0629C110.287 12.1961 110.165 12.2829 110.033 12.2829ZM195.375 11.2154C195.24 11.2154 195.117 11.1232 195.083 10.9858C194.924 10.3402 194.844 9.6724 194.844 9.00153C194.844 8.45905 194.788 7.91777 194.675 7.39277C194.641 7.23003 194.745 7.06969 194.908 7.03534C195.07 7.00098 195.23 7.10465 195.265 7.2674C195.386 7.83339 195.446 8.41746 195.446 9.00153C195.446 9.62418 195.521 10.2438 195.668 10.8423C195.707 11.0039 195.609 11.1672 195.447 11.2064C195.423 11.213 195.399 11.2154 195.375 11.2154ZM124.442 9.13715C124.357 9.13715 124.272 9.10098 124.213 9.03106C123.462 8.14621 122.511 7.4211 121.462 6.93407C121.312 6.86355 121.246 6.68453 121.316 6.53324C121.386 6.38255 121.565 6.31625 121.717 6.38677C122.843 6.91057 123.865 7.68993 124.673 8.64048C124.78 8.76706 124.765 8.95752 124.638 9.06542C124.58 9.11364 124.512 9.13715 124.442 9.13715ZM114.582 6.95155C114.468 6.95155 114.359 6.88706 114.308 6.77615C114.238 6.62486 114.304 6.44584 114.455 6.37592C115.594 5.85092 116.811 5.5845 118.075 5.5845C118.241 5.5845 118.382 5.71952 118.382 5.88588C118.382 6.05224 118.253 6.18726 118.086 6.18726C116.899 6.18726 115.766 6.43499 114.708 6.92323C114.667 6.94312 114.624 6.95155 114.582 6.95155ZM178.232 6.04199C178.191 6.04199 178.15 6.03355 178.109 6.01607C177.957 5.94796 177.889 5.76955 177.957 5.61766C178.466 4.48025 179.241 3.45376 180.198 2.64848C180.326 2.54179 180.515 2.55806 180.623 2.68524C180.731 2.81243 180.714 3.0029 180.587 3.11019C179.698 3.857 178.98 4.80936 178.508 5.86418C178.458 5.97569 178.347 6.04199 178.232 6.04199ZM193.453 4.38321C193.363 4.38321 193.275 4.34343 193.215 4.26748C192.501 3.3537 191.575 2.60086 190.538 2.09093C190.388 2.01739 190.327 1.83717 190.4 1.68768C190.473 1.5382 190.652 1.47612 190.803 1.55026C191.922 2.09997 192.92 2.91128 193.69 3.89618C193.792 4.02758 193.769 4.21685 193.638 4.31932C193.583 4.36212 193.518 4.38321 193.453 4.38321ZM183.584 1.54664C183.449 1.54664 183.326 1.45562 183.292 1.3188C183.251 1.15726 183.349 0.993909 183.511 0.953525C184.168 0.78837 184.849 0.70459 185.532 0.70459C185.533 0.70459 185.535 0.70459 185.536 0.70459H187.149C187.315 0.70459 187.466 0.839607 187.466 1.00597C187.466 1.17233 187.347 1.30735 187.18 1.30735H185.535C185.534 1.30735 185.533 1.30735 185.532 1.30735C184.897 1.30735 184.266 1.3851 183.656 1.5382C183.632 1.54362 183.608 1.54664 183.584 1.54664Z" fill="#25292B"/>
<path d="M151.849 23.4128C157.429 23.4128 161.952 18.8894 161.952 13.3094C161.952 7.7295 157.429 3.20605 151.849 3.20605C146.269 3.20605 141.745 7.7295 141.745 13.3094C141.745 18.8894 146.269 23.4128 151.849 23.4128Z" fill="#1E90FF"/>
<path d="M148.149 17.7011C148.028 17.7011 147.905 17.6613 147.803 17.5793L142.97 13.7193C142.838 13.6138 142.761 13.4534 142.761 13.2847C142.761 13.1159 142.838 12.9556 142.97 12.8501L147.741 9.03945C147.981 8.84778 148.331 8.88696 148.522 9.12686C148.714 9.36675 148.675 9.71695 148.435 9.90863L144.209 13.2847L148.497 16.7101C148.737 16.9018 148.776 17.252 148.585 17.4919C148.475 17.6293 148.313 17.7011 148.149 17.7011Z" fill="white"/>
<path d="M155.549 17.7011C155.386 17.7011 155.224 17.6293 155.114 17.4919C154.922 17.252 154.962 16.9018 155.201 16.7101L159.49 13.2847L155.264 9.90863C155.024 9.71695 154.984 9.36675 155.176 9.12686C155.368 8.88696 155.718 8.84778 155.958 9.03945L160.729 12.8501C160.861 12.9556 160.938 13.1159 160.938 13.2847C160.938 13.4534 160.861 13.6138 160.729 13.7193L155.896 17.5793C155.794 17.6613 155.671 17.7011 155.549 17.7011Z" fill="white"/>
<path d="M150.767 18.7216C150.689 18.7324 150.608 18.7264 150.528 18.7017C150.234 18.6113 150.069 18.3003 150.16 18.0061L153.151 8.28365C153.241 7.99011 153.552 7.82496 153.846 7.91537C154.14 8.00578 154.305 8.3168 154.214 8.61095L151.224 18.3334C151.158 18.548 150.975 18.6933 150.767 18.7216Z" fill="white"/>
<path d="M154.121 63.8915H155.683C155.683 62.5854 155.385 61.2701 154.816 60.0887L153.41 60.7674C152.938 59.7886 152.251 58.9333 151.41 58.2636L152.385 57.0442C151.872 56.6356 151.316 56.2848 150.725 55.9972C150.134 55.7145 149.51 55.4963 148.87 55.3517L148.524 56.8724C148.01 56.7549 147.474 56.6934 146.923 56.6934C146.372 56.6934 145.835 56.7549 145.32 56.8736L144.975 55.3517C144.335 55.4963 143.711 55.7145 143.12 55.9972C142.531 56.2848 141.972 56.6362 141.46 57.0442L142.434 58.2636C141.593 58.9333 140.907 59.7886 140.435 60.7674L139.029 60.0887C138.461 61.2707 138.163 62.586 138.162 63.8915H139.725C139.725 65.0102 139.98 66.0705 140.435 67.0156L139.029 67.6943C139.604 68.8727 140.434 69.9257 141.461 70.7388L142.435 69.5183C143.267 70.1831 144.248 70.6671 145.321 70.91L144.976 72.432C146.257 72.7249 147.59 72.7249 148.872 72.432L148.526 70.9112C149.6 70.6671 150.58 70.1837 151.412 69.5183L152.386 70.7388C153.413 69.9257 154.245 68.8727 154.818 67.6943L153.412 67.0156C153.865 66.0705 154.121 65.0109 154.121 63.8915ZM146.921 68.8299C144.255 68.8299 142.094 66.6684 142.094 64.0012C142.094 61.3352 144.255 59.1738 146.921 59.1738C149.588 59.1738 151.75 61.3352 151.75 64.0012C151.749 66.6684 149.588 68.8299 146.921 68.8299Z" fill="#1E90FF"/>
<path d="M176.916 77.5126H179.948C179.943 76.8086 179.89 76.1028 179.781 75.4024C179.672 74.7032 179.502 74.0124 179.286 73.3385C179.073 72.6628 178.793 72.0083 178.473 71.3778C178.151 70.7485 177.784 70.1409 177.364 69.5713L174.915 71.3531C173.628 69.5846 171.801 68.2344 169.676 67.5454L170.61 64.6631C167.909 63.783 164.963 63.783 162.261 64.6631L163.198 67.5454C161.072 68.2344 159.244 69.5846 157.957 71.3549L155.508 69.5713C155.09 70.1409 154.721 70.7485 154.4 71.3778C154.079 72.0089 153.801 72.6628 153.587 73.3385C153.369 74.0124 153.2 74.7038 153.09 75.4024C152.984 76.1034 152.929 76.8086 152.926 77.5126H155.956C155.956 79.8158 156.698 81.9447 157.957 83.6734L155.508 85.4551C157.164 87.748 159.563 89.4888 162.262 90.3634L163.198 87.4822C164.218 87.8125 165.306 87.9921 166.436 87.9921C167.567 87.9921 168.656 87.8125 169.676 87.4804L170.611 90.3628C173.31 89.4876 175.709 87.7474 177.364 85.4545L174.915 83.6728C176.174 81.9447 176.916 79.8158 176.916 77.5126ZM166.438 83.1713C163.129 83.1713 160.449 80.4896 160.449 77.1817C160.449 73.8738 163.128 71.1921 166.438 71.1921C169.746 71.1921 172.426 73.8738 172.426 77.1817C172.426 80.4896 169.746 83.1713 166.438 83.1713Z" fill="#1E90FF"/>
<path d="M160.061 62.5221C162.041 62.5221 163.646 60.9169 163.646 58.9369C163.646 56.9568 162.041 55.3517 160.061 55.3517C158.081 55.3517 156.476 56.9568 156.476 58.9369C156.476 60.9169 158.081 62.5221 160.061 62.5221Z" fill="#1E90FF"/>
<path d="M283.757 240.849H0.242911C0.108496 240.849 0 240.74 0 240.606C0 240.473 0.108496 240.363 0.242911 240.363H283.757C283.892 240.363 284 240.473 284 240.606C284 240.74 283.892 240.849 283.757 240.849Z" fill="#25292B"/>
</svg>
