<svg width="247" height="251" viewBox="0 0 247 251" fill="none" xmlns="http://www.w3.org/2000/svg">
<rect width="247" height="251" rx="30" fill="#1B65AD"/>
<path d="M63.3633 188.523H57.7412C58.3357 191.409 59.9064 194.001 62.1888 195.864C64.4712 197.726 67.3258 198.746 70.2718 198.75H177.73C180.676 198.745 183.53 197.726 185.812 195.863C188.094 194 189.664 191.408 190.258 188.523H184.636H184.598H63.3992H63.3633Z" fill="#F1F1F1"/>
<path d="M131.733 76.5725C131.733 75.4036 131.269 74.2825 130.443 73.456C129.616 72.6294 128.495 72.165 127.326 72.165C126.157 72.165 125.036 72.6294 124.209 73.456C123.383 74.2825 122.918 75.4036 122.918 76.5725V77.8384H131.733V76.5725Z" fill="#F1F1F1"/>
<path d="M65.9619 111.146V183.408H182.043V111.146C182.037 108.596 181.02 106.152 179.215 104.35C177.409 102.549 174.964 101.537 172.413 101.536H162.883C160.829 105.512 158.033 109.059 154.647 111.986V131.654C154.647 132.333 154.378 132.985 153.897 133.465C153.416 133.946 152.765 134.216 152.085 134.216H116.282C115.602 134.216 114.95 133.946 114.47 133.465C113.989 132.985 113.719 132.333 113.719 131.654V124.107H104.853C104.173 124.107 103.522 123.837 103.041 123.356C102.56 122.876 102.29 122.224 102.29 121.544V111.384L89.8111 106.705C89.3834 106.545 89.0062 106.274 88.7185 105.919C88.4309 105.564 88.2433 105.139 88.1751 104.688C88.1069 104.236 88.1606 103.774 88.3306 103.351C88.5007 102.927 88.7809 102.556 89.1423 102.277L90.1007 101.536H75.5969C73.046 101.536 70.5992 102.548 68.793 104.349C66.9868 106.151 65.9687 108.595 65.9619 111.146ZM157.643 147.418H160.867C161.546 147.418 162.198 147.688 162.679 148.169C163.159 148.649 163.429 149.301 163.429 149.98C163.429 150.66 163.159 151.312 162.679 151.792C162.198 152.273 161.546 152.543 160.867 152.543H157.643C156.963 152.543 156.312 152.273 155.831 151.792C155.351 151.312 155.081 150.66 155.081 149.98C155.081 149.301 155.351 148.649 155.831 148.169C156.312 147.688 156.963 147.418 157.643 147.418ZM156.182 172.464H156.205C156.884 172.467 157.534 172.739 158.012 173.221C158.49 173.702 158.758 174.354 158.756 175.032C158.755 175.711 158.484 176.361 158.004 176.84C157.523 177.32 156.873 177.589 156.194 177.589C155.515 177.589 154.864 177.32 154.384 176.84C153.904 176.361 153.633 175.711 153.631 175.032C153.63 174.354 153.898 173.702 154.376 173.221C154.854 172.739 155.504 172.467 156.182 172.464ZM124.051 177.589C123.372 177.592 122.718 177.326 122.236 176.847C121.753 176.369 121.479 175.719 121.476 175.039C121.473 174.36 121.739 173.706 122.217 173.223C122.696 172.741 123.346 172.467 124.026 172.464H124.051C124.731 172.464 125.383 172.734 125.863 173.214C126.344 173.695 126.614 174.347 126.614 175.026C126.614 175.706 126.344 176.358 125.863 176.838C125.383 177.319 124.731 177.589 124.051 177.589ZM121.932 147.418H142.763C143.442 147.418 144.094 147.688 144.575 148.169C145.055 148.649 145.325 149.301 145.325 149.98C145.325 150.66 145.055 151.312 144.575 151.792C144.094 152.273 143.442 152.543 142.763 152.543H121.932C121.252 152.543 120.601 152.273 120.12 151.792C119.64 151.312 119.37 150.66 119.37 149.98C119.37 149.301 119.64 148.649 120.12 148.169C120.601 147.688 121.252 147.418 121.932 147.418ZM91.897 177.589C91.2174 177.593 90.5641 177.326 90.0809 176.848C89.5977 176.37 89.3241 175.72 89.3204 175.04C89.3166 174.361 89.583 173.708 90.061 173.224C90.5389 172.741 91.1892 172.468 91.8688 172.464H91.897C92.5766 172.464 93.2284 172.734 93.7089 173.214C94.1895 173.695 94.4595 174.347 94.4595 175.026C94.4595 175.706 94.1895 176.358 93.7089 176.838C93.2284 177.319 92.5766 177.589 91.897 177.589ZM115.072 163.621C115.072 164.3 114.802 164.952 114.322 165.433C113.841 165.913 113.189 166.183 112.51 166.183H82.5054C81.8258 166.183 81.174 165.913 80.6935 165.433C80.2129 164.952 79.9429 164.3 79.9429 163.621C79.9429 162.941 80.2129 162.289 80.6935 161.809C81.174 161.328 81.8258 161.058 82.5054 161.058H112.51C113.189 161.058 113.841 161.328 114.322 161.809C114.802 162.289 115.072 162.941 115.072 163.621ZM82.5054 135.515H94.4082C95.0878 135.515 95.7396 135.785 96.2202 136.266C96.7008 136.746 96.9707 137.398 96.9707 138.078C96.9707 138.757 96.7008 139.409 96.2202 139.89C95.7396 140.37 95.0878 140.64 94.4082 140.64H82.5054C81.8258 140.64 81.174 140.37 80.6935 139.89C80.2129 139.409 79.9429 138.757 79.9429 138.078C79.9429 137.398 80.2129 136.746 80.6935 136.266C81.174 135.785 81.8258 135.515 82.5054 135.515ZM81.0166 147.418H109.535C110.214 147.418 110.866 147.688 111.347 148.169C111.827 148.649 112.097 149.301 112.097 149.98C112.097 150.66 111.827 151.312 111.347 151.792C110.866 152.273 110.214 152.543 109.535 152.543H81.0166C80.337 152.543 79.6852 152.273 79.2046 151.792C78.7241 151.312 78.4541 150.66 78.4541 149.98C78.4541 149.301 78.7241 148.649 79.2046 148.169C79.6852 147.688 80.337 147.418 81.0166 147.418Z" fill="#F1F1F1"/>
<path d="M149.522 129.091V110.782C149.523 110.398 149.609 110.019 149.775 109.673C149.942 109.327 150.184 109.023 150.483 108.783C154.087 105.903 156.98 102.233 158.94 98.0566C158.957 98.0085 158.976 97.9615 158.999 97.9156C161.18 93.1945 162.1 87.9881 161.667 82.8052C161.235 77.6224 159.464 72.6405 156.53 68.3465C153.596 64.0525 149.597 60.5934 144.926 58.3073C140.254 56.0212 135.069 54.9863 129.878 55.3038C122.884 55.7739 116.269 58.6534 111.159 63.4522C106.049 68.251 102.76 74.6723 101.852 81.6233C101.529 84.3073 101.562 87.0222 101.95 89.6977C102.239 91.6347 102.123 93.6106 101.61 95.5006C101.096 97.3906 100.196 99.1535 98.9669 100.678C98.9259 100.724 98.8925 100.775 98.849 100.819C98.233 101.576 97.5361 102.263 96.7708 102.869L95.9175 103.528L105.752 107.215C106.241 107.398 106.662 107.726 106.959 108.155C107.257 108.584 107.416 109.094 107.415 109.616V118.99H116.282C116.961 118.99 117.613 119.26 118.094 119.74C118.574 120.221 118.844 120.873 118.844 121.552V129.099L149.522 129.091ZM141.681 69.6C141.681 68.9204 141.951 68.2686 142.432 67.788C142.912 67.3075 143.564 67.0375 144.244 67.0375C144.923 67.0375 145.575 67.3075 146.056 67.788C146.536 68.2686 146.806 68.9204 146.806 69.6V91.1968C146.806 91.8764 146.536 92.5282 146.056 93.0087C145.575 93.4893 144.923 93.7593 144.244 93.7593C143.564 93.7593 142.912 93.4893 142.432 93.0087C141.951 92.5282 141.681 91.8764 141.681 91.1968V69.6ZM117.806 91.1968V76.5726C117.806 74.0444 118.811 71.6198 120.598 69.8321C122.386 68.0444 124.811 67.0401 127.339 67.0401C129.867 67.0401 132.292 68.0444 134.079 69.8321C135.867 71.6198 136.871 74.0444 136.871 76.5726V91.1993C136.871 91.8789 136.601 92.5307 136.121 93.0113C135.64 93.4918 134.988 93.7618 134.309 93.7618C133.629 93.7618 132.977 93.4918 132.497 93.0113C132.016 92.5307 131.746 91.8789 131.746 91.1993V82.9634H122.931V91.1993C122.931 91.8789 122.661 92.5307 122.181 93.0113C121.7 93.4918 121.048 93.7618 120.369 93.7618C119.689 93.7618 119.037 93.4918 118.557 93.0113C118.076 92.5307 117.806 91.8764 117.806 91.1968Z" fill="#F1F1F1"/>
</svg>
