<svg width="222" height="222" viewBox="0 0 248 248" fill="none" xmlns="http://www.w3.org/2000/svg">
<path d="M19.405 198.812H235.975" stroke="#263238" stroke-miterlimit="10" stroke-linecap="round" stroke-linejoin="round"/>
<path d="M11.3693 198.812H15.9697" stroke="#263238" stroke-miterlimit="10" stroke-linecap="round" stroke-linejoin="round"/>
<path d="M197.931 138.276C197.931 138.276 196.686 141.699 194.041 142.166C191.395 142.633 186.727 137.498 189.683 134.852C192.64 132.207 196.686 136.408 197.931 138.276Z" fill="white" stroke="#263238" stroke-miterlimit="10" stroke-linecap="round" stroke-linejoin="round"/>
<path d="M201.977 121.47C201.977 121.47 198.086 130.962 199.642 135.631C201.198 140.299 210.847 143.722 213.647 137.654C216.448 131.585 210.224 123.026 207.89 121.159C205.556 119.291 202.755 119.913 201.977 121.47Z" fill="white" stroke="#263238" stroke-miterlimit="10" stroke-linecap="round" stroke-linejoin="round"/>
<path d="M224.696 125.516C224.696 125.516 218.005 131.585 217.227 137.653C216.449 143.722 220.962 145.901 225.63 145.123C230.299 144.344 232.633 132.518 231.232 127.072C229.832 121.625 224.696 125.516 224.696 125.516Z" fill="white" stroke="#263238" stroke-miterlimit="10" stroke-linecap="round" stroke-linejoin="round"/>
<path d="M225.941 159.128C225.941 159.128 218.472 159.44 218.161 163.019C217.85 166.598 221.428 167.376 225.007 164.264C228.587 161.151 229.053 159.283 225.941 159.128Z" fill="white" stroke="#263238" stroke-miterlimit="10" stroke-linecap="round" stroke-linejoin="round"/>
<path d="M218.284 163.871C218.284 163.871 224.171 161.178 226.822 160.71" stroke="#263238" stroke-miterlimit="10" stroke-linecap="round" stroke-linejoin="round"/>
<path d="M207.423 166.597C207.423 166.597 206.645 170.332 203.844 171.733C201.043 173.133 196.063 170.177 198.709 165.664C201.354 161.151 206.023 164.73 207.423 166.597Z" fill="white" stroke="#263238" stroke-miterlimit="10" stroke-linecap="round" stroke-linejoin="round"/>
<path d="M200.887 154.927C200.887 154.927 199.487 151.814 194.041 153.837C188.594 155.861 186.416 158.972 189.839 160.062C193.262 161.151 200.887 154.927 200.887 154.927Z" fill="white" stroke="#263238" stroke-miterlimit="10" stroke-linecap="round" stroke-linejoin="round"/>
<path d="M199.845 154.785C199.845 154.785 194.075 155.409 190.957 158.059" stroke="#263238" stroke-miterlimit="10" stroke-linecap="round" stroke-linejoin="round"/>
<path d="M216.449 117.579C216.449 117.579 217.382 119.758 219.25 119.291C221.117 118.824 221.584 116.023 224.541 116.801C227.497 117.579 229.987 121.003 229.987 119.447C229.987 117.89 226.252 113.844 222.051 113.844C217.849 113.845 216.604 115.557 216.449 117.579Z" fill="white" stroke="#263238" stroke-miterlimit="10" stroke-linecap="round" stroke-linejoin="round"/>
<path d="M212.704 179.916C212.704 179.916 213.401 166.894 212.704 158.756C212.006 150.617 208.751 141.084 208.751 141.084L204.835 123.597" stroke="#263238" stroke-miterlimit="10" stroke-linecap="round" stroke-linejoin="round"/>
<path d="M214.331 179.916C214.331 179.916 214.564 169.219 215.494 162.244C216.424 155.268 220.144 144.339 220.144 144.339L227.133 129.367" stroke="#263238" stroke-miterlimit="10" stroke-linecap="round" stroke-linejoin="round"/>
<path d="M218.284 163.871C218.284 163.871 216.657 164.337 215.727 180.148" stroke="#263238" stroke-miterlimit="10" stroke-linecap="round" stroke-linejoin="round"/>
<path d="M210.378 179.683C210.378 179.683 210.844 171.312 209.913 168.289C208.983 165.266 207.423 166.597 207.423 166.597C207.423 166.597 203.119 167.104 201.56 169.599" stroke="#263238" stroke-miterlimit="10" stroke-linecap="round" stroke-linejoin="round"/>
<path d="M211.447 165.099C212.663 171.916 211.541 179.451 211.541 179.451" stroke="#263238" stroke-miterlimit="10" stroke-linecap="round" stroke-linejoin="round"/>
<path d="M200.887 154.927C200.887 154.927 207.588 153.64 210.378 161.081C210.652 161.811 210.883 162.574 211.078 163.358" stroke="#263238" stroke-miterlimit="10" stroke-linecap="round" stroke-linejoin="round"/>
<path d="M228.852 147.718C228.852 147.718 230.252 144.606 235.699 146.629C241.145 148.652 243.324 151.764 239.9 152.853C236.477 153.943 228.852 147.718 228.852 147.718Z" fill="white" stroke="#263238" stroke-miterlimit="10" stroke-linecap="round" stroke-linejoin="round"/>
<path d="M230.096 147.924C230.096 147.924 235.71 147.612 238.361 150.886" stroke="#263238" stroke-miterlimit="10" stroke-linecap="round" stroke-linejoin="round"/>
<path d="M222.895 149.081C221.549 150.003 220.255 151.491 219.361 153.873C216.571 161.314 216.889 179.683 216.889 179.683" stroke="#263238" stroke-miterlimit="10" stroke-linecap="round" stroke-linejoin="round"/>
<path d="M228.852 147.718C228.852 147.718 226.631 147.292 224.213 148.35" stroke="#263238" stroke-miterlimit="10" stroke-linecap="round" stroke-linejoin="round"/>
<path d="M205.269 143.023C206.723 144.73 208.132 147.038 209.216 150.153C212.936 160.849 214.331 174.568 213.634 179.683" stroke="#263238" stroke-miterlimit="10" stroke-linecap="round" stroke-linejoin="round"/>
<path d="M204.46 142.136C201.175 138.782 197.931 138.276 197.931 138.276C197.931 138.276 193.139 137.007 191.268 138.723" stroke="#263238" stroke-miterlimit="10" stroke-linecap="round" stroke-linejoin="round"/>
<path d="M214.718 153.033C214.491 166.532 214.331 179.916 214.331 179.916" stroke="#263238" stroke-miterlimit="10" stroke-linecap="round" stroke-linejoin="round"/>
<path d="M214.747 151.353C214.9 142.427 215.081 133.691 215.261 128.993C215.727 116.901 216.449 117.58 216.449 117.58C216.449 117.58 217.309 114.865 222.144 115.177" stroke="#263238" stroke-miterlimit="10" stroke-linecap="round" stroke-linejoin="round"/>
<path d="M221.779 203.633H206.65C205.612 203.633 204.744 202.845 204.644 201.812L202.473 179.45H225.958L223.786 201.812C223.686 202.845 222.818 203.633 221.779 203.633Z" fill="#263238" stroke="#263238" stroke-miterlimit="10" stroke-linecap="round" stroke-linejoin="round"/>
<path d="M203.172 186.659L203.421 189.216H225.009L225.257 186.659H203.172Z" fill="white" stroke="#263238" stroke-miterlimit="10" stroke-linecap="round" stroke-linejoin="round"/>
<path d="M224.467 194.797L224.603 193.402H203.827L203.963 194.797H224.467Z" fill="white" stroke="#263238" stroke-miterlimit="10" stroke-linecap="round" stroke-linejoin="round"/>
<path d="M28.1227 92.5879V96.9874" stroke="#263238" stroke-miterlimit="10" stroke-linecap="round" stroke-linejoin="round"/>
<path d="M30.3225 94.7876H25.923" stroke="#263238" stroke-miterlimit="10" stroke-linecap="round" stroke-linejoin="round"/>
<path d="M215.207 103.92V108.32" stroke="#263238" stroke-miterlimit="10" stroke-linecap="round" stroke-linejoin="round"/>
<path d="M217.407 106.12H213.008" stroke="#263238" stroke-miterlimit="10" stroke-linecap="round" stroke-linejoin="round"/>
<path d="M191.543 53.1569V57.5564" stroke="#263238" stroke-miterlimit="10" stroke-linecap="round" stroke-linejoin="round"/>
<path d="M193.743 55.3561H189.344" stroke="#263238" stroke-miterlimit="10" stroke-linecap="round" stroke-linejoin="round"/>
<path d="M102.612 27.5841V31.9836" stroke="#263238" stroke-miterlimit="10" stroke-linecap="round" stroke-linejoin="round"/>
<path d="M104.811 29.7838H100.412" stroke="#263238" stroke-miterlimit="10" stroke-linecap="round" stroke-linejoin="round"/>
<path d="M75.1306 186.544V190.944" stroke="#263238" stroke-miterlimit="10" stroke-linecap="round" stroke-linejoin="round"/>
<path d="M77.3304 188.744H72.9308" stroke="#263238" stroke-miterlimit="10" stroke-linecap="round" stroke-linejoin="round"/>
<path d="M20.5498 154.684V159.084" stroke="#263238" stroke-miterlimit="10" stroke-linecap="round" stroke-linejoin="round"/>
<path d="M22.7501 156.884H18.35" stroke="#263238" stroke-miterlimit="10" stroke-linecap="round" stroke-linejoin="round"/>
<path d="M176.173 39.8692C176.633 37.9139 175.42 35.9559 173.465 35.4959C171.51 35.0359 169.552 36.248 169.092 38.2034C168.632 40.1587 169.844 42.1167 171.799 42.5767C173.755 43.0367 175.713 41.8245 176.173 39.8692Z" stroke="#263238" stroke-miterlimit="10" stroke-linecap="round" stroke-linejoin="round"/>
<path d="M166.651 187.193C167.111 185.238 165.899 183.28 163.944 182.82C161.988 182.36 160.03 183.572 159.57 185.527C159.11 187.483 160.323 189.441 162.278 189.901C164.233 190.361 166.191 189.149 166.651 187.193Z" stroke="#263238" stroke-miterlimit="10" stroke-linecap="round" stroke-linejoin="round"/>
<path d="M20.6039 126.386C22.4598 125.618 23.3411 123.49 22.5724 121.634C21.8036 119.778 19.6759 118.897 17.82 119.666C15.9641 120.434 15.0828 122.562 15.8516 124.418C16.6203 126.274 18.748 127.155 20.6039 126.386Z" stroke="#263238" stroke-miterlimit="10" stroke-linecap="round" stroke-linejoin="round"/>
<path d="M192.809 76.2343C192.809 76.6911 192.439 77.0611 191.982 77.0611C191.526 77.0611 191.155 76.6911 191.155 76.2343C191.155 75.778 191.525 75.4075 191.982 75.4075C192.439 75.408 192.809 75.778 192.809 76.2343Z" stroke="#263238" stroke-miterlimit="10" stroke-linecap="round" stroke-linejoin="round"/>
<path d="M62.5982 39.0977C62.5982 39.5545 62.2282 39.9245 61.7714 39.9245C61.315 39.9245 60.9445 39.5545 60.9445 39.0977C60.9445 38.6414 61.3145 38.2709 61.7714 38.2709C62.2282 38.2709 62.5982 38.6409 62.5982 39.0977Z" stroke="#263238" stroke-miterlimit="10" stroke-linecap="round" stroke-linejoin="round"/>
<path d="M130.092 184.455C130.092 184.912 129.722 185.282 129.266 185.282C128.809 185.282 128.439 184.912 128.439 184.455C128.439 183.999 128.809 183.628 129.266 183.628C129.722 183.628 130.092 183.999 130.092 184.455Z" stroke="#263238" stroke-miterlimit="10" stroke-linecap="round" stroke-linejoin="round"/>
<path d="M123.106 186.69L121.456 173.409H115.003H101.176H94.7226L93.0724 186.69C93.0491 186.951 93.0199 187.212 92.9842 187.471C92.3488 192.077 89.3941 196.039 85.2937 198.23L78.1295 202.061H101.176H115.003H138.049L130.885 198.23C126.785 196.038 123.829 192.077 123.195 187.471C123.159 187.212 123.129 186.951 123.106 186.69Z" fill="white" stroke="#263238" stroke-miterlimit="10" stroke-linecap="round" stroke-linejoin="round"/>
<path d="M122.203 181.837L121.456 173.409H115.003H101.176H94.7226L93.9756 181.837H122.203Z" fill="#263238" stroke="#263238" stroke-miterlimit="10" stroke-linecap="round" stroke-linejoin="round"/>
<path d="M137.967 202.061H78.1295V203.633H137.967V202.061Z" fill="white" stroke="#263238" stroke-miterlimit="10" stroke-linecap="round" stroke-linejoin="round"/>
<path d="M95.3536 192.982H117.16" stroke="#263238" stroke-miterlimit="10" stroke-linecap="round" stroke-linejoin="round"/>
<path d="M122.78 192.982H120.083" stroke="#263238" stroke-miterlimit="10" stroke-linecap="round" stroke-linejoin="round"/>
<path d="M175.125 176.098H41.0544C38.2609 176.098 35.9962 173.834 35.9962 171.04V63.6914C35.9962 61.5144 37.7609 59.7491 39.9379 59.7491H176.241C178.418 59.7491 180.183 61.5139 180.183 63.6914V171.04C180.183 173.834 177.918 176.098 175.125 176.098Z" fill="white" stroke="#263238" stroke-miterlimit="10" stroke-linecap="round" stroke-linejoin="round"/>
<path d="M180.183 156.815V63.9929C180.183 61.6493 178.283 59.7491 175.939 59.7491H40.2395C37.8959 59.7491 35.9957 61.6493 35.9957 63.9929V156.815H180.183Z" fill="#263238" stroke="#263238" stroke-miterlimit="10" stroke-linecap="round" stroke-linejoin="round"/>
<path d="M173.694 64.3232H42.4849V156.815H173.694V64.3232Z" fill="white" stroke="#263238" stroke-miterlimit="10" stroke-linecap="round" stroke-linejoin="round"/>
<path d="M146.313 79.0059H56.0317V73.6873C56.0317 71.9319 57.4547 70.5089 59.21 70.5089H143.135C144.89 70.5089 146.313 71.9319 146.313 73.6873V79.0059Z" fill="#2490C6" stroke="#1E90FF" stroke-miterlimit="10" stroke-linecap="round" stroke-linejoin="round"/>
<path d="M129.631 74.7616C129.631 75.4842 129.045 76.07 128.322 76.07C127.6 76.07 127.014 75.4842 127.014 74.7616C127.014 74.0389 127.6 73.4531 128.322 73.4531C129.045 73.4531 129.631 74.0389 129.631 74.7616Z" fill="white" stroke="#1E90FF" stroke-miterlimit="10" stroke-linecap="round" stroke-linejoin="round"/>
<path d="M134.864 74.7616C134.864 75.4842 134.279 76.07 133.556 76.07C132.833 76.07 132.247 75.4842 132.247 74.7616C132.247 74.0389 132.833 73.4531 133.556 73.4531C134.279 73.4531 134.864 74.0389 134.864 74.7616Z" fill="white" stroke="#1E90FF" stroke-miterlimit="10" stroke-linecap="round" stroke-linejoin="round"/>
<path d="M140.098 74.7616C140.098 75.4842 139.512 76.07 138.789 76.07C138.067 76.07 137.481 75.4842 137.481 74.7616C137.481 74.0389 138.067 73.4531 138.789 73.4531C139.512 73.4531 140.098 74.0389 140.098 74.7616Z" fill="white" stroke="#1E90FF" stroke-miterlimit="10" stroke-linecap="round" stroke-linejoin="round"/>
<path d="M143.165 147.052H59.1792C57.4407 147.052 56.0321 145.643 56.0321 143.905V73.6878C56.0321 71.9324 57.4551 70.5094 59.2105 70.5094H143.135C144.891 70.5094 146.314 71.9324 146.314 73.6878V143.905C146.313 145.643 144.904 147.052 143.165 147.052Z" stroke="#1E90FF" stroke-miterlimit="10" stroke-linecap="round" stroke-linejoin="round"/>
<path d="M60.3384 77.0785V147.322" stroke="#1E90FF" stroke-width="0.25" stroke-miterlimit="10" stroke-linecap="round" stroke-linejoin="round"/>
<path d="M65.8038 77.0785V147.322" stroke="#1E90FF" stroke-width="0.25" stroke-miterlimit="10" stroke-linecap="round" stroke-linejoin="round"/>
<path d="M71.2688 77.0785V147.322" stroke="#1E90FF" stroke-width="0.25" stroke-miterlimit="10" stroke-linecap="round" stroke-linejoin="round"/>
<path d="M76.7342 77.0785V147.322" stroke="#1E90FF" stroke-width="0.25" stroke-miterlimit="10" stroke-linecap="round" stroke-linejoin="round"/>
<path d="M82.1992 77.0785V147.322" stroke="#1E90FF" stroke-width="0.25" stroke-miterlimit="10" stroke-linecap="round" stroke-linejoin="round"/>
<path d="M87.6646 77.0785V147.322" stroke="#1E90FF" stroke-width="0.25" stroke-miterlimit="10" stroke-linecap="round" stroke-linejoin="round"/>
<path d="M93.1295 77.0785V147.322" stroke="#1E90FF" stroke-width="0.25" stroke-miterlimit="10" stroke-linecap="round" stroke-linejoin="round"/>
<path d="M98.5944 77.0785V147.322" stroke="#1E90FF" stroke-width="0.25" stroke-miterlimit="10" stroke-linecap="round" stroke-linejoin="round"/>
<path d="M104.06 77.0785V147.322" stroke="#1E90FF" stroke-width="0.25" stroke-miterlimit="10" stroke-linecap="round" stroke-linejoin="round"/>
<path d="M109.525 77.0785V147.322" stroke="#1E90FF" stroke-width="0.25" stroke-miterlimit="10" stroke-linecap="round" stroke-linejoin="round"/>
<path d="M114.99 77.0785V147.322" stroke="#1E90FF" stroke-width="0.25" stroke-miterlimit="10" stroke-linecap="round" stroke-linejoin="round"/>
<path d="M120.455 77.0785V147.322" stroke="#1E90FF" stroke-width="0.25" stroke-miterlimit="10" stroke-linecap="round" stroke-linejoin="round"/>
<path d="M125.921 77.0785V147.322" stroke="#1E90FF" stroke-width="0.25" stroke-miterlimit="10" stroke-linecap="round" stroke-linejoin="round"/>
<path d="M131.385 77.0785V147.322" stroke="#1E90FF" stroke-width="0.25" stroke-miterlimit="10" stroke-linecap="round" stroke-linejoin="round"/>
<path d="M136.85 77.0785V147.322" stroke="#1E90FF" stroke-width="0.25" stroke-miterlimit="10" stroke-linecap="round" stroke-linejoin="round"/>
<path d="M142.316 77.0785V147.322" stroke="#1E90FF" stroke-width="0.25" stroke-miterlimit="10" stroke-linecap="round" stroke-linejoin="round"/>
<path d="M56.1596 84.1633H146.495" stroke="#1E90FF" stroke-width="0.25" stroke-miterlimit="10" stroke-linecap="round" stroke-linejoin="round"/>
<path d="M56.1596 90.788H146.495" stroke="#1E90FF" stroke-width="0.25" stroke-miterlimit="10" stroke-linecap="round" stroke-linejoin="round"/>
<path d="M56.1596 97.4125H146.495" stroke="#1E90FF" stroke-width="0.25" stroke-miterlimit="10" stroke-linecap="round" stroke-linejoin="round"/>
<path d="M56.1596 104.037H146.495" stroke="#1E90FF" stroke-width="0.25" stroke-miterlimit="10" stroke-linecap="round" stroke-linejoin="round"/>
<path d="M56.1596 110.662H146.495" stroke="#1E90FF" stroke-width="0.25" stroke-miterlimit="10" stroke-linecap="round" stroke-linejoin="round"/>
<path d="M56.1596 117.286H146.495" stroke="#1E90FF" stroke-width="0.25" stroke-miterlimit="10" stroke-linecap="round" stroke-linejoin="round"/>
<path d="M56.1596 123.911H146.495" stroke="#1E90FF" stroke-width="0.25" stroke-miterlimit="10" stroke-linecap="round" stroke-linejoin="round"/>
<path d="M56.1596 130.536H146.495" stroke="#1E90FF" stroke-width="0.25" stroke-miterlimit="10" stroke-linecap="round" stroke-linejoin="round"/>
<path d="M56.1596 137.16H146.495" stroke="#1E90FF" stroke-width="0.25" stroke-miterlimit="10" stroke-linecap="round" stroke-linejoin="round"/>
<path d="M56.1596 143.785H146.495" stroke="#1E90FF" stroke-width="0.25" stroke-miterlimit="10" stroke-linecap="round" stroke-linejoin="round"/>
<path d="M184.949 103.911C184.949 103.911 182.653 105.88 182.653 106.289C182.653 106.7 181.997 110.964 181.997 110.964L185.113 112.276L186.425 110.061C186.425 110.061 187.081 109.159 187.573 108.339C188.065 107.519 189.214 106.617 189.214 106.617L187.983 106.371L186.507 107.929L186.343 105.715L184.949 103.911Z" fill="white" stroke="#263238" stroke-miterlimit="10" stroke-linecap="round" stroke-linejoin="round"/>
<path d="M181.997 110.964C181.997 110.964 177.487 116.212 176.093 118.016C174.699 119.82 170.763 123.838 169.369 126.38C167.975 128.922 168.303 132.038 169.533 133.022C170.763 134.006 175.601 131.873 177.651 127.692C179.701 123.509 185.113 112.276 185.113 112.276L181.997 110.964Z" fill="white" stroke="#263238" stroke-miterlimit="10" stroke-linecap="round" stroke-linejoin="round"/>
<path d="M187.41 94.3169C187.41 94.3169 186.753 96.6948 186.261 97.7612C185.769 98.8271 183.392 99.7293 183.638 100.057C183.884 100.385 185.114 101.451 185.114 101.451C185.114 101.451 185.195 106.864 185.934 107.027C186.672 107.192 189.214 106.617 189.214 106.617L188.722 110.389L195.036 109.487L195.609 104.157C195.609 104.157 198.398 102.025 198.398 99.9748C198.398 97.9248 195.117 93.8244 192.001 93.0045C188.886 92.1851 188.311 92.759 187.41 94.3169Z" fill="white" stroke="#263238" stroke-miterlimit="10" stroke-linecap="round" stroke-linejoin="round"/>
<path d="M187.456 98.087C187.388 98.4967 187.194 98.8057 187.022 98.7774C186.849 98.7492 186.764 98.394 186.831 97.9843C186.899 97.5746 187.093 97.2656 187.265 97.2939C187.438 97.3222 187.523 97.6773 187.456 98.087Z" fill="#263238"/>
<path d="M187.381 96.5723C187.381 96.3347 187.935 96.0183 188.093 96.8099" stroke="#263238" stroke-miterlimit="10" stroke-linecap="round" stroke-linejoin="round"/>
<path d="M185.482 102.348C185.482 102.348 185.957 102.427 186.669 102.031" stroke="#263238" stroke-miterlimit="10" stroke-linecap="round" stroke-linejoin="round"/>
<path d="M190.854 88.7408C190.854 88.7408 192.084 86.5267 189.788 87.0187C187.492 87.5108 184.376 92.0209 185.524 94.0709C186.672 96.1208 188.23 95.3009 188.23 95.3009C188.23 95.3009 188.968 96.3669 189.542 96.9407C190.116 97.5146 190.854 98.089 190.854 98.089C190.854 98.089 191.428 103.009 192.412 104.321C193.396 105.633 194.544 106.043 195.446 105.551C196.348 105.059 197.906 103.911 197.906 103.911C197.906 103.911 201.842 100.959 202.088 98.335C202.334 95.7111 202.17 94.0709 200.694 92.2669C199.218 90.463 197.004 89.6431 197.004 89.6431C197.004 89.6431 197.66 87.4289 195.692 87.2652C193.724 87.1011 190.854 88.7408 190.854 88.7408Z" fill="#263238" stroke="#263238" stroke-miterlimit="10" stroke-linecap="round" stroke-linejoin="round"/>
<path d="M189.706 98.9093C189.706 98.9093 191.345 96.777 192.083 97.515C192.821 98.2531 192.165 100.959 191.591 101.861C191.018 102.763 189.623 102.025 189.541 101.615" fill="white"/>
<path d="M189.706 98.9093C189.706 98.9093 191.345 96.777 192.083 97.515C192.821 98.2531 192.165 100.959 191.591 101.861C191.018 102.763 189.623 102.025 189.541 101.615" stroke="#263238" stroke-miterlimit="10" stroke-linecap="round" stroke-linejoin="round"/>
<path d="M185.277 112.849L187.819 109.897L196.735 108.951L197.414 111.783L185.277 112.849Z" fill="white" stroke="#263238" stroke-miterlimit="10" stroke-linecap="round" stroke-linejoin="round"/>
<path d="M201.492 145.365L200.361 143.772L200.302 151.456C200.302 151.456 202.621 149.247 202.732 148.032C202.842 146.818 201.492 145.365 201.492 145.365Z" fill="white" stroke="#263238" stroke-miterlimit="10" stroke-linecap="round" stroke-linejoin="round"/>
<path d="M204.63 114.079C204.63 114.079 213.978 133.104 214.635 134.416C215.291 135.728 213.897 136.22 213.897 136.22L202.732 148.032L201.492 145.365L206.271 133.678L201.925 126.708C201.925 126.708 204.302 114.818 204.63 114.079Z" fill="white" stroke="#263238" stroke-miterlimit="10" stroke-linecap="round" stroke-linejoin="round"/>
<path d="M204.742 120.187L206.27 133.678L203.84 129.545L204.742 120.187Z" fill="#263238" stroke="#263238" stroke-miterlimit="10" stroke-linecap="round" stroke-linejoin="round"/>
<path d="M179.315 144.699C179.315 144.699 179.312 144.905 179.307 145.288C179.255 149.291 178.985 172.576 179.672 180.895C180.424 190.01 181.835 203.587 181.835 203.587C181.835 203.587 180.895 203.872 180.895 204.347C180.895 204.821 180.612 206.245 180.612 206.245C180.612 206.245 178.544 207.385 177.133 207.859C175.722 208.334 174.594 209.283 175.252 209.758C175.91 210.233 179.014 210.612 182.117 210.992C185.221 211.372 187.572 211.467 187.948 211.087C188.324 210.707 188.23 208.618 188.136 207.859C188.042 207.099 188.23 205.58 188.136 204.346C188.042 203.111 187.571 202.067 187.571 201.308C187.571 200.548 188.042 177.761 188.042 177.761L189.452 169.216L190.769 163.804C190.769 163.804 191.521 177.761 191.804 178.426C192.086 179.09 196.891 204.051 196.891 204.051L196.326 205.001L196.42 206.235C196.42 206.235 195.386 207.279 194.069 207.944C192.753 208.609 191.53 208.989 192.471 209.748C193.411 210.507 197.267 210.697 198.113 210.793C198.96 210.887 201.969 210.982 202.345 210.887C202.721 210.793 203.286 210.887 203.38 209.558C203.474 208.229 203.098 206.805 203.004 206.425C202.91 206.045 202.628 204.716 202.534 203.481C202.439 202.247 202.158 201.013 202.158 201.013L200.739 176.052L201.209 151.556C201.209 151.556 201.209 149.277 200.927 147.283C200.644 145.289 200.362 143.77 200.362 143.77L179.673 142.915" fill="#263238"/>
<path d="M179.315 144.699C179.315 144.699 179.312 144.905 179.307 145.288C179.255 149.291 178.985 172.576 179.672 180.895C180.424 190.01 181.835 203.587 181.835 203.587C181.835 203.587 180.895 203.872 180.895 204.347C180.895 204.821 180.612 206.245 180.612 206.245C180.612 206.245 178.544 207.385 177.133 207.859C175.722 208.334 174.594 209.283 175.252 209.758C175.91 210.233 179.014 210.612 182.117 210.992C185.221 211.372 187.572 211.467 187.948 211.087C188.324 210.707 188.23 208.618 188.136 207.859C188.042 207.099 188.23 205.58 188.136 204.346C188.042 203.111 187.571 202.067 187.571 201.308C187.571 200.548 188.042 177.761 188.042 177.761L189.452 169.216L190.769 163.804C190.769 163.804 191.521 177.761 191.804 178.426C192.086 179.09 196.891 204.051 196.891 204.051L196.326 205.001L196.42 206.235C196.42 206.235 195.386 207.279 194.069 207.944C192.753 208.609 191.53 208.989 192.471 209.748C193.411 210.507 197.267 210.697 198.113 210.793C198.96 210.887 201.969 210.982 202.345 210.887C202.721 210.793 203.286 210.887 203.38 209.558C203.474 208.229 203.098 206.805 203.004 206.425C202.91 206.045 202.628 204.716 202.534 203.481C202.439 202.247 202.158 201.013 202.158 201.013L200.739 176.052L201.209 151.556C201.209 151.556 201.209 149.277 200.927 147.283C200.644 145.289 200.362 143.77 200.362 143.77L179.673 142.915" stroke="#263238" stroke-miterlimit="10" stroke-linecap="round" stroke-linejoin="round"/>
<path d="M170.517 128.348L176.421 121.542C176.421 121.542 180.604 114.408 180.931 113.752C181.259 113.095 185.277 112.849 185.277 112.849L197.413 111.784C197.413 111.784 204.466 113.506 204.63 114.08C204.794 114.653 204.311 126.439 204.065 128.079C203.819 129.719 200.858 145.077 200.612 145.978C200.366 146.881 196.921 147.372 191.181 147.7C185.441 148.028 180.521 145.978 180.111 145.65C179.701 145.323 179.291 144.994 179.373 144.42C179.455 143.847 180.685 129.906 180.685 129.906C180.685 129.906 174.453 134.252 172.977 134.58C171.5 134.908 168.958 133.432 168.631 131.382C168.303 129.332 169.533 128.266 169.533 128.266" fill="white"/>
<path d="M170.517 128.348L176.421 121.542C176.421 121.542 180.604 114.408 180.931 113.752C181.259 113.095 185.277 112.849 185.277 112.849L197.413 111.784C197.413 111.784 204.466 113.506 204.63 114.08C204.794 114.653 204.311 126.439 204.065 128.079C203.819 129.719 200.858 145.077 200.612 145.978C200.366 146.881 196.921 147.372 191.181 147.7C185.441 148.028 180.521 145.978 180.111 145.65C179.701 145.323 179.291 144.994 179.373 144.42C179.455 143.847 180.685 129.906 180.685 129.906C180.685 129.906 174.453 134.252 172.977 134.58C171.5 134.908 168.958 133.432 168.631 131.382C168.303 129.332 169.533 128.266 169.533 128.266" stroke="#263238" stroke-miterlimit="10" stroke-linecap="round" stroke-linejoin="round"/>
<path d="M197.899 120.901C197.899 120.901 192.924 130.644 190.643 133.547" stroke="#263238" stroke-miterlimit="10" stroke-linecap="round" stroke-linejoin="round"/>
<path d="M195.826 127.12L193.13 131.888" stroke="#263238" stroke-miterlimit="10" stroke-linecap="round" stroke-linejoin="round"/>
<path d="M186.261 124.494L180.685 129.906L185.606 127.774" stroke="#263238" stroke-miterlimit="10" stroke-linecap="round" stroke-linejoin="round"/>
<path d="M102.313 156.781H115.252L115.691 132.475L110.46 100.416L95.4825 100.613L102.577 135.494L102.313 156.781Z" fill="white" stroke="#263238" stroke-miterlimit="10" stroke-linecap="round" stroke-linejoin="round"/>
<path d="M111.819 133.92L115.209 156.781H133.212C132.562 154.166 127.082 132.065 127.082 130.712C127.082 129.274 123.211 105.274 122.215 103.837C121.22 102.399 107.837 96.8688 107.837 96.8688L109.165 104.611L111.819 133.92Z" fill="#263238" stroke="#263238" stroke-miterlimit="10" stroke-linecap="round" stroke-linejoin="round"/>
<path d="M120.446 114.565C121.559 119.663 122.773 124.831 123.328 130.025C123.926 135.61 122.993 141.574 122.677 147.165C122.552 149.392 122.644 151.518 122.785 153.75" stroke="#8C8C8C" stroke-miterlimit="10" stroke-linecap="round" stroke-linejoin="round"/>
<path d="M90.6817 90.9485C94.4392 90.9485 97.4853 87.9826 97.4853 84.3239C97.4853 80.6653 94.4392 77.6993 90.6817 77.6993C86.9241 77.6993 83.8781 80.6653 83.8781 84.3239C83.8781 87.9826 86.9241 90.9485 90.6817 90.9485Z" fill="#828282" stroke="#263238" stroke-miterlimit="10" stroke-linecap="round" stroke-linejoin="round"/>
<path d="M76.9465 156.781H102.352C102.629 153.816 104.129 137.88 104.63 134.473C105.183 130.712 99.0998 106.381 99.0998 106.381L94.4548 95.7627L75.6524 103.284L82.8414 141.883L76.9465 156.781Z" fill="#263238" stroke="#263238" stroke-miterlimit="10" stroke-linecap="round" stroke-linejoin="round"/>
<path d="M95.2479 92.7173C95.2479 92.7173 94.4528 92.7173 93.6572 93.6895C93.1756 94.2777 92.2148 98.5443 92.0665 99.4332C91.8011 101.024 91.448 112.688 91.448 112.688C91.448 112.688 100.108 108.27 100.461 108.27C100.815 108.27 104.703 109.949 104.703 109.949C104.703 109.949 105.94 109.772 106.294 109.507C106.647 109.242 108.768 106.326 108.768 106.326L116.279 111.097C116.279 111.097 110.623 97.9303 109.298 95.8099C107.972 93.689 107 93.0705 106.116 92.8056C105.233 92.5408 95.2479 92.7173 95.2479 92.7173Z" fill="white" stroke="#263238" stroke-miterlimit="10" stroke-linecap="round" stroke-linejoin="round"/>
<path d="M94.983 81.0533C94.983 81.0533 95.9552 88.5643 95.6015 91.0388C95.2479 93.5134 94.4528 92.2758 95.2479 95.1035C96.043 97.9312 102.052 107.21 103.289 108.8C104.526 110.391 105.763 109.861 106.205 108.182C106.647 106.503 107 96.2523 107 96.2523L108.237 91.7456L94.983 81.0533Z" fill="white" stroke="#263238" stroke-miterlimit="10" stroke-linecap="round" stroke-linejoin="round"/>
<path d="M99.886 89.8792L106.519 97.8538L107.001 96.2523L108.238 91.7456L99.886 89.8792Z" fill="#263238" stroke="#263238" stroke-miterlimit="10" stroke-linecap="round" stroke-linejoin="round"/>
<path d="M115.783 73.2537C115.783 73.2537 115.614 80.4105 115.694 81.9352C115.774 83.4599 115.614 86.1884 114.49 88.5152C113.367 90.8424 109.916 93.0888 108.07 93.0888C106.225 93.0888 102.534 91.7248 99.8855 89.8792C97.589 88.2786 95.3114 85.3055 94.6695 84.4227C94.0277 83.5398 93.0645 79.8486 93.0645 79.8486L92.5025 76.7991L91.941 74.3117C91.941 74.3117 96.9963 74.4724 99.7248 71.6636C102.453 68.8552 108.231 63.3184 108.231 63.3184L114.971 70.1394L115.783 73.2537Z" fill="white" stroke="#263238" stroke-miterlimit="10" stroke-linecap="round" stroke-linejoin="round"/>
<path d="M109.274 76.1578C109.274 76.1578 109.194 78.4851 109.756 79.4478C110.317 80.4105 111.842 81.6143 111.441 82.2562C111.04 82.898 108.712 82.9783 108.472 82.8176" stroke="#263238" stroke-miterlimit="10" stroke-linecap="round" stroke-linejoin="round"/>
<path d="M104.139 84.4226C104.139 84.4226 105.503 86.9904 108.953 86.5891" stroke="#263238" stroke-miterlimit="10" stroke-linecap="round" stroke-linejoin="round"/>
<path d="M106.706 74.7134C106.706 74.7134 104.379 73.1083 101.732 74.3925" stroke="#263238" stroke-miterlimit="10" stroke-linecap="round" stroke-linejoin="round"/>
<path d="M110.318 74.2319C110.318 74.2319 112.484 72.2256 114.33 73.9913" stroke="#263238" stroke-miterlimit="10" stroke-linecap="round" stroke-linejoin="round"/>
<path d="M104.781 78.1637C104.781 78.9171 104.44 79.5277 104.019 79.5277C103.598 79.5277 103.256 78.9171 103.256 78.1637C103.256 77.4103 103.598 76.7997 104.019 76.7997C104.44 76.7997 104.781 77.4103 104.781 78.1637Z" fill="#263238"/>
<path d="M113.207 77.9231C113.207 78.6765 112.865 79.2871 112.444 79.2871C112.023 79.2871 111.682 78.6765 111.682 77.9231C111.682 77.1697 112.023 76.5591 112.444 76.5591C112.865 76.5591 113.207 77.1697 113.207 77.9231Z" fill="#263238"/>
<path d="M107.983 65.3887C107.983 65.3887 106.822 68.999 103.663 71.9641C100.504 74.9297 95.7339 75.8324 95.7339 75.8324C95.7339 75.8324 95.9919 77.0571 95.6695 77.5084C95.3471 77.9598 94.6378 78.4111 94.6378 78.4111C94.6378 78.4111 92.7684 78.7335 91.0274 76.8641C89.2869 74.9947 89.4804 66.4203 92.7679 62.1656C96.0558 57.911 106.177 57.2662 109.078 58.4908C111.979 59.7154 110.883 60.2957 110.883 60.2957C110.883 60.2957 115.396 62.2941 118.168 65.5176C120.94 68.7411 115.783 73.2537 115.783 73.2537L107.983 65.3887Z" fill="#828282" stroke="#263238" stroke-miterlimit="10" stroke-linecap="round" stroke-linejoin="round"/>
<path d="M91.701 76.5585C91.701 76.5585 90.8181 64.7626 97.7195 59.0656L100.769 58.2631C100.769 58.2631 93.7877 64.843 93.2257 76.7996L91.701 76.5585Z" fill="#263238" stroke="#263238" stroke-miterlimit="10" stroke-linecap="round" stroke-linejoin="round"/>
<path d="M95.9765 79.0891C97.032 81.1376 96.5305 83.4976 94.8561 84.3606C93.1816 85.2232 90.9689 84.2619 89.9134 82.2134C88.8579 80.165 89.3594 77.805 91.0339 76.9419C92.7079 76.0794 94.921 77.0407 95.9765 79.0891Z" fill="#263238" stroke="#263238" stroke-miterlimit="10" stroke-linecap="round" stroke-linejoin="round"/>
<path d="M94.2688 82.1757C94.2688 82.1757 99.0031 88.3543 104.781 90.5209" stroke="#263238" stroke-miterlimit="10" stroke-linecap="round" stroke-linejoin="round"/>
<path d="M106.199 90.9286C105.969 91.4762 105.216 91.6825 104.517 91.3889C103.817 91.0953 103.437 90.4138 103.667 89.8657C103.897 89.3181 104.65 89.1118 105.349 89.4054C106.048 89.6985 106.429 90.3805 106.199 90.9286Z" fill="#263238" stroke="#263238" stroke-miterlimit="10" stroke-linecap="round" stroke-linejoin="round"/>
<path d="M101.242 131.616C101.242 131.616 104.21 129.508 104.445 129.273C104.679 129.039 106.632 126.383 107.178 125.603C107.725 124.821 108.74 124.118 109.443 123.494C110.146 122.869 111.317 121.463 111.864 120.526C112.41 119.589 113.113 118.73 113.348 119.745C113.582 120.761 112.958 121.932 112.723 122.635C112.489 123.338 111.708 124.587 111.708 124.587C111.708 124.587 114.597 122.791 116.315 122.479C118.034 122.166 120.22 122.166 120.298 122.713C120.376 123.259 119.83 123.416 119.049 123.728C118.268 124.041 116.159 124.821 115.378 125.134C114.597 125.446 112.489 127.008 112.489 127.008C112.489 127.008 116.472 126.071 117.331 125.837C118.19 125.603 120.298 125.524 120.767 125.524C121.236 125.524 121.626 126.383 121.001 126.852C120.376 127.321 119.127 127.945 119.127 127.945C119.127 127.945 118.658 128.726 117.955 129.507C117.252 130.288 116.471 131.303 115.69 132.475C114.91 133.646 113.738 134.505 112.488 135.13C111.239 135.755 105.928 136.302 105.928 136.302L102.336 138.098L101.242 131.616Z" fill="white" stroke="#263238" stroke-miterlimit="10" stroke-linecap="round" stroke-linejoin="round"/>
<path d="M119.127 127.946C119.127 127.946 114.285 129.117 113.191 129.898" stroke="#263238" stroke-miterlimit="10" stroke-linecap="round" stroke-linejoin="round"/>
<path d="M116.55 131.147C116.55 131.147 113.816 132.475 113.504 132.553" stroke="#263238" stroke-miterlimit="10" stroke-linecap="round" stroke-linejoin="round"/>
<path d="M82.6202 100.851C82.6202 100.851 74.5463 102.842 74.3251 104.058C74.1039 105.275 68.3528 142.547 68.0209 144.207C67.6891 145.866 67.2467 148.63 68.3528 148.852C69.4588 149.073 102.528 138.787 102.528 138.787L100.93 130.835L83.6157 132.814L86.1597 117.22" fill="#263238"/>
<path d="M82.6202 100.851C82.6202 100.851 74.5463 102.842 74.3251 104.058C74.1039 105.275 68.3528 142.547 68.0209 144.207C67.6891 145.866 67.2467 148.63 68.3528 148.852C69.4588 149.073 102.528 138.787 102.528 138.787L100.93 130.835L83.6157 132.814L86.1597 117.22" stroke="#263238" stroke-miterlimit="10" stroke-linecap="round" stroke-linejoin="round"/>
<path d="M82.5879 132.945L74.7635 133.354" stroke="#8C8C8C" stroke-miterlimit="10" stroke-linecap="round" stroke-linejoin="round"/>
<path d="M97.8157 131.634L82.588 132.945L85.8913 120.218" stroke="#8C8C8C" stroke-miterlimit="10" stroke-linecap="round" stroke-linejoin="round"/>
<path d="M157.489 29.8939H121.879C120.1 29.8939 118.658 31.3358 118.658 33.1144V51.3702C118.658 53.1489 120.1 54.5907 121.879 54.5907H128.161L123.664 65.2701L135.21 54.5907H157.488C159.267 54.5907 160.709 53.1489 160.709 51.3702V33.1144C160.709 31.3358 159.268 29.8939 157.489 29.8939Z" fill="#263238" stroke="#263238" stroke-miterlimit="10" stroke-linecap="round" stroke-linejoin="round"/>
<path d="M155.995 28.827H120.385C118.606 28.827 117.164 30.2689 117.164 32.0476V50.3033C117.164 52.082 118.606 53.5239 120.385 53.5239H126.667L122.17 64.2032L133.716 53.5239H155.994C157.773 53.5239 159.215 52.082 159.215 50.3033V32.0471C159.215 30.2689 157.774 28.827 155.995 28.827Z" fill="#8AC7FF" stroke="#263238" stroke-miterlimit="10" stroke-linecap="round" stroke-linejoin="round"/>
<path d="M130.144 42.8434C131.066 42.8434 131.813 42.0964 131.813 41.1749C131.813 40.2534 131.066 39.5063 130.144 39.5063C129.223 39.5063 128.476 40.2534 128.476 41.1749C128.476 42.0964 129.223 42.8434 130.144 42.8434Z" fill="#263238"/>
<path d="M138.19 42.8434C139.111 42.8434 139.858 42.0964 139.858 41.1749C139.858 40.2534 139.111 39.5063 138.19 39.5063C137.268 39.5063 136.521 40.2534 136.521 41.1749C136.521 42.0964 137.268 42.8434 138.19 42.8434Z" fill="#263238"/>
<path d="M146.235 42.8434C147.157 42.8434 147.904 42.0964 147.904 41.1749C147.904 40.2534 147.157 39.5063 146.235 39.5063C145.314 39.5063 144.567 40.2534 144.567 41.1749C144.567 42.0964 145.314 42.8434 146.235 42.8434Z" fill="#263238"/>
</svg>
